<svg xmlns="http://www.w3.org/2000/svg" viewBox="0 0 285.5 391.07"><defs><style>.cls-1{isolation:isolate;}.cls-2{fill:#ffd6b2;}.cls-3{fill:#6f3c24;}.cls-4{fill:#de8085;}.cls-5{fill:#af4a71;}.cls-6{fill:#9ed6e6;}.cls-7{fill:#4676ad;}.cls-8{fill:#525aa3;opacity:0.7;mix-blend-mode:multiply;}</style></defs><g class="cls-1"><g id="Calque_2" data-name="Calque 2"><g id="Calque_1-2" data-name="Calque 1"><path class="cls-2" d="M104.56,114.48s2.83,0,5.66-5.23a35.72,35.72,0,0,0,3.53-11.32s-4.66-3.25-4.59-7.63,4.45-6.65,4.59-8.35.85-5.94,4.1-7.92,2.26-4.66,3.4-6.5,10-6.08,16.82-7.21,9.05,2.54,9.05,2.54L149,60.1s-3.67-2.89.71-17,3.53-24.18-6.93-32.24-16.4-2.55-16.4-2.55S132.56-2,148.82.36s25,24.75,19,37.76c0,0,9-14-3.54-30.83,0,0,9.62,7.64,11.17,26.87s-4.8,23.08-4.8,23.08a16.55,16.55,0,0,0,7.63-7.81s-1.84,10.75-9.33,10.89S155.46,61,154.48,62s-1.13,3.53-1.13,3.53,9.75,2.12,13,12S158,102,158,102a4.63,4.63,0,0,1-1.84,3.4,9.35,9.35,0,0,0-3.53,5.09c-.43,1.84-.85,4.66-4.95,6.36s-12.87,6.22-14.85,8.06a76.32,76.32,0,0,0,8.56,5.66c3.74,2,6.57,5.37,12.79,7.49s9.76,8.63,16.69,15.84,20.93,22.91,29.13,28.14,10.75,8.34,10.89,9.9-.43,3.11,1.13,3.39,1.7.57,5.51,4.81S243,226.61,243,226.61l-.85,2.41s13.29,14.42,21.21,14.84,11.88-2.12,13.58-1a3.67,3.67,0,0,1,1.69,2.83,3.8,3.8,0,0,1,2.4,3.11s2.13,2.12,2.13,4.1a28,28,0,0,1,2.26,5.8c.42,2.26-1,4.53-2.4,4.53s-2.13,1.69-3.68,1.55a11.45,11.45,0,0,1-2.69-.56s-1.84,2.68-4.81,2-6.08-3.11-7.77-4-8.77-3.4-10.75-5.8-7.5-9.33-12.73-13.15a106.06,106.06,0,0,0-10.74-6.79s-3.11.71-4.39,0-19.37-13-23.33-15.55-11.74-8.49-13.15-9.76-3.11,3.39-5.8,2.83-20.22-4.53-27.29-2.55a173.45,173.45,0,0,1-26.16,4.81c-6.93.57-12.3-3.82-12.3-3.82s-2.26,15.42,6.36,25.6,14.85,16.12,14.57,37.19-28,50.9-28,50.9-.85,9.48-1.56,12.16c0,0,7.78-2.82,19.66-7.77s18.95-7.36,24-9.2,9.75-3.67,9.75-5.37-2.68-3.68-1.41-10.46,1.13-10.75,8.77-10.61,16.68,2.69,27,1,17.95-1.13,25.31,3,6.5,9.48,4.66,11-7.63.28-11.45,2.4-12.87,6.23-15.13,9.05-2.61,4-5,4.25a49.66,49.66,0,0,0-5.91,1.27l-3.82,4.81a48.61,48.61,0,0,0,12.87,5.23c8.34,2.26,19.66,8.06,18.1,11.74s-5,7.63-7.07,6.79-6.5-2.69-10.46-1.85-13.58,2.83-18.53,6.37-10.74,5.8-12.58,5.09a44.57,44.57,0,0,1-5.52-3.11s-41.85,11.88-45.39,13a63.89,63.89,0,0,0-7.07,2.83s-15.27,13.29-23.33,13.29-11.74-3.82-11.74-3.82-21.35,2.4-25.73-.85-10.47-9.9-9.62-18.1,18.67-49.81,29.48-65.45l2.34-3.77s1.06-10.81,1.9-15.69.85-11.46-.42-15.7-3.6-8.7-1.48-11.88A87.54,87.54,0,0,1,63,229.3c-1.7-14.21-.64-19.3-1.28-24.18s.64-12.94.64-12.94-2.9-.35-3.89-5.59a110.07,110.07,0,0,1-1.13-14.28s-14.28-20.78-20.65-32.95S15.05,106.7,11.23,102.88a42.61,42.61,0,0,1-9.33-14c-1.7-4.66-3.25-9.19,0-11a54.32,54.32,0,0,1,6.64-3.53c1.56-.57,8.77.56,14.29,3.11s6.78,1.7,9.33,3.68,2.54,3,6.79,3.53S43.76,90,46.3,92s10.32,8.06,19.23,8.91,13.15-.56,21.07,3.11S102,114.62,104.56,114.48Z"/><path class="cls-3" d="M113.75,97.93s1.41-2.12,1.13-3.53-2.12-6.22-1.55-7.92,2.12-8.2,4.1-7.35,3.82,5.93,4.81,5.93,7.35-1.27,9.47-5.09,7.92-8.48,12.16-7.49,7.07,5.23,12.73,7.92,7.86,4.27,7.89,10.82c1.95-4.41,3.25-9.45,1.87-13.65-3.26-9.9-13-12-13-12s.14-2.54,1.13-3.53,6.93-1.56,14.42-1.7,9.33-10.89,9.33-10.89a16.55,16.55,0,0,1-7.63,7.81s6.36-3.85,4.8-23.08S164.23,7.29,164.23,7.29c12.59,16.83,3.54,30.83,3.54,30.83,6.08-13-2.69-35.35-19-37.76s-22.48,7.92-22.48,7.92,5.94-5.51,16.4,2.55,11.31,18.1,6.93,32.24-.71,17-.71,17l-1.84,2.76s-2.26-3.67-9.05-2.54-15.69,5.37-16.82,7.21-.14,4.53-3.4,6.5-4,6.23-4.1,7.92-4.52,4-4.59,8.35S113.75,97.93,113.75,97.93Z"/><path class="cls-4" d="M242.15,229l.85-2.41s-21.64-22.2-25.46-26.44-4-4.53-5.51-4.81-1-1.84-1.13-3.39-2.69-4.67-10.89-9.9-22.2-20.93-29.13-28.14-10.46-13.72-16.69-15.84-9.05-5.51-12.79-7.49a74.71,74.71,0,0,1-8.54-5.65h-.73a8.89,8.89,0,0,1-7.77.71c-11.88,1.41-21.92-2.55-22.63-4.39s2.83-6.78,2.83-6.78c-2.55.14-10-6.79-18-10.47s-12.16-2.26-21.07-3.11S48.85,94,46.3,92,43.19,85.21,39,84.64s-4.25-1.55-6.79-3.53S28.34,80,22.83,77.43,10.1,73.75,8.54,74.32A54.32,54.32,0,0,0,1.9,77.85c-3.25,1.84-1.7,6.37,0,11a42.61,42.61,0,0,0,9.33,14c3.82,3.82,19.09,24.32,25.45,36.48s20.65,32.95,20.65,32.95a110.07,110.07,0,0,0,1.13,14.28c.79,4.19,2.8,5.25,3.57,5.51l.32.08c7.14,1.77,15.48,6.15,27.93,11.67s22.91,2.26,24.32,4.52,2.83,4.1,2.83,4.1,5.37,4.39,12.3,3.82a173.45,173.45,0,0,0,26.16-4.81c7.07-2,24.61,2,27.29,2.55s4.39-4.1,5.8-2.83,9.19,7.21,13.15,9.76,22.06,14.84,23.33,15.55,4.39,0,4.39,0A16.64,16.64,0,0,0,242.15,229Z"/><path class="cls-2" d="M24.24,110.8s-4.13-6.65.91-11.45,14.93,0,14.93,0,4.81,10.6,8.2,13.71S59.17,127.63,63,131s1.55,5.23,1.41,6.93-3.68,10.89-6.22,10.61l-2.55-.29s-1.41,2.69-3.53,2.12-4.38-2-3.54-3.53a8.15,8.15,0,0,1,1.7-2.26,1.21,1.21,0,0,1-1-1.7s-4.24.14-4.1-4c0,0-3.11-.28-3.25-3.11a5.8,5.8,0,0,1,2-4.53,12.57,12.57,0,0,1-2.85-4.52c-.71-2.4-1.42-5.09-3.68-7.49S25,112.27,24.24,110.8Z"/><path class="cls-5" d="M144,343.63h10.18c-2.12-4.46.64-15.06.64-15.06a18.8,18.8,0,0,0-2.33-7.22c-5.09,1.84-12.16,4.25-24,9.2s-19.66,7.77-19.66,7.77c.71-2.68,1.56-12.16,1.56-12.16s27.71-29.83,28-50.9-5.86-26.93-14.39-37c-1.78,2.24-6.42,6.58-17.15,9.41-15,4-21.77,12.45-28,14.14s-7.77-6-7.77-6c-2.12,3.18.21,7.64,1.48,11.88s1.27,10.82.42,15.7-1.9,15.69-1.9,15.69l-2.34,3.77C57.9,318.49,40.08,360.1,39.23,368.3s5.23,14.85,9.62,18.1,25.73.85,25.73.85,3.68,3.82,11.74,3.82,23.33-13.29,23.33-13.29a63.89,63.89,0,0,1,7.07-2.83c2.27-.73,20.31-5.88,33-9.48C150.25,355.93,144,343.63,144,343.63Z"/><path class="cls-6" d="M221.93,298.87c-7.36-4.1-15-4.66-25.31-3s-19.38-.85-27-1-7.5,3.82-8.77,10.61,1.41,8.77,1.41,10.46c0,.67-.73,1.36-1.92,2.07h0a8.23,8.23,0,0,0,2.76,4.33s9.19,2.5,13.48,4.8,7.22,3.63,8.73,4.5l3.82-4.81A49.66,49.66,0,0,1,195,325.6c2.37-.29,2.72-1.42,5-4.25s11.31-6.92,15.13-9.05,9.62-.84,11.45-2.4S229.28,303,221.93,298.87Z"/><path class="cls-6" d="M198.17,336.91a48.61,48.61,0,0,1-12.87-5.23c-2.05-.39-6.45-3.31-10.9-5.52a61.82,61.82,0,0,0-11.31-3.78,6.15,6.15,0,0,0-4.49-.2c-2.7.8-3.77,6.39-3.77,6.39s-2.55,9.82-.85,14.53c.09.21.17.4.21.53.49,1.47-.39,4.92,2.21,6.52s10.09,9.39,8.89,11.18-2.61,1-2.61,1h0a37.46,37.46,0,0,0,4.95,2.75c1.84.71,7.63-1.55,12.58-5.09s14.57-5.52,18.53-6.37,8.34,1,10.46,1.85,5.51-3.12,7.07-6.79S206.51,339.17,198.17,336.91Z"/><path class="cls-7" d="M226.93,309.57c1.58-1.89,1.89-6.85-5-10.7-7.36-4.1-15-4.66-25.31-3s-19.38-.85-27-1c-6.47-.12-7.36,2.71-8.25,7.69,0,0,2.84,3,13.52,3.7S223.54,306.64,226.93,309.57Z"/><path class="cls-7" d="M198.17,336.91a48.61,48.61,0,0,1-12.87-5.23c-2.05-.39-6.45-3.31-10.9-5.52a61.82,61.82,0,0,0-11.31-3.78,6.15,6.15,0,0,0-4.49-.2c-2,.59-3.08,3.75-3.53,5.39a39.45,39.45,0,0,1,15.21,4.7c8.59,4.79,12.19,6.79,21.08,8s19,4.19,23.57,10.89v0a19.08,19.08,0,0,0,1.33-2.52C217.83,345,206.51,339.17,198.17,336.91Z"/><path class="cls-8" d="M86.32,391.07c8.06,0,23.33-13.29,23.33-13.29s-30,9-35.07,9.47C74.58,387.25,78.26,391.07,86.32,391.07Z"/><path class="cls-8" d="M154,343.1c-1.7-4.71.85-14.53.85-14.53a18.8,18.8,0,0,0-2.33-7.22c-5.09,1.84-12.16,4.25-24,9.2s-19.66,7.77-19.66,7.77c.61-2.29,1.31-9.54,1.51-11.6h0s-12.23,13.73-9.17,14.34S144,343.63,144,343.63Z"/></g></g></g></svg>