<svg xmlns="http://www.w3.org/2000/svg" viewBox="0 0 304.4 542.53"><defs><style>.cls-1{fill:#57595b;}.cls-2{fill:#e4e6e8;}.cls-3{fill:#e5e6e8;}.cls-4{fill:#4d4e4f;}.cls-5{fill:#4e4f50;}.cls-6{fill:#fbf7f6;}.cls-7{fill:#4f5051;}.cls-8{fill:#4e4f51;}.cls-9{fill:#505052;}.cls-10{fill:#4d4f50;}.cls-11{fill:#6c6e71;}.cls-12{fill:#f1f1f1;}.cls-13{fill:#808285;}.cls-14{fill:#f0f0f0;}.cls-15{fill:#6c6e70;}.cls-16{fill:#757778;}.cls-17{fill:#6f7173;}.cls-18{fill:#707274;}.cls-19{fill:#696b6c;}.cls-20{fill:#737576;}.cls-21{fill:#6d6f70;}.cls-22{fill:#626466;}.cls-23{fill:#6b6d6e;}.cls-24{fill:#737577;}.cls-25{fill:#616365;}.cls-26{fill:#5d5f60;}.cls-27{fill:#717374;}.cls-28{fill:#646668;}.cls-29{fill:#696b6d;}.cls-30{fill:#707173;}.cls-31{fill:#6b6d6f;}.cls-32{fill:#6a6b6e;}.cls-33{fill:#747678;}.cls-34{fill:#686a6c;}.cls-35{fill:#636567;}.cls-36{fill:#727476;}.cls-37{fill:#5e6062;}.cls-38{fill:#5f6162;}.cls-39{fill:#606264;}.cls-40{fill:#6c6e6f;}.cls-41{fill:#6e6f72;}.cls-42{fill:#737578;}.cls-43{fill:#6f7172;}.cls-44{fill:#67696b;}.cls-45{fill:#6f7072;}.cls-46{fill:#6a6c6d;}.cls-47{fill:#656769;}.cls-48{fill:#5c5e60;}.cls-49{fill:#797b7d;}.cls-50{fill:#6e7072;}.cls-51{fill:#717375;}.cls-52{fill:#5f6163;}.cls-53{fill:#6a6c6e;}.cls-54{fill:#7f8183;}.cls-55{fill:#7e8082;}.cls-56{fill:#6e7071;}.cls-57{fill:#616364;}.cls-58{fill:#727477;}.cls-59{fill:#6d6f71;}.cls-60{fill:#727475;}.cls-61{fill:#797b7c;}.cls-62{fill:#757779;}.cls-63{fill:#7a7c7d;}.cls-64{fill:#7b7d7f;}.cls-65{fill:#67696a;}.cls-66{fill:#686a6b;}.cls-67{fill:#7a7c7e;}.cls-68{fill:#66686a;}.cls-69{fill:#7c7e80;}.cls-70{fill:#7b7d7e;}.cls-71{fill:#7e7f82;}.cls-72{fill:#656768;}.cls-73{fill:#eceef0;}.cls-74{fill:#4c4d4e;}.cls-75{fill:#f4b47e;}.cls-76{fill:#e5e7e8;}.cls-77{fill:#603812;}.cls-78{fill:#f4b47f;}.cls-79{fill:#f1f0ef;}.cls-80{fill:#75767a;}.cls-81{fill:#f0fdfc;}.cls-82{fill:#f3151d;}.cls-83{fill:#767679;}.cls-84{fill:#788584;}.cls-85{fill:#eefbfc;}.cls-86{fill:#f2fbfd;}.cls-87{fill:#d6d4cd;}.cls-88{fill:#f1fafb;}.cls-89{fill:#eed7d7;}.cls-90{fill:#f3be87;}.cls-91{fill:#edc188;}.cls-92{fill:#d3d5d6;}.cls-93{fill:#75777a;}.cls-94{fill:#d8d9d8;}.cls-95{fill:#dbdcdc;}.cls-96{fill:#e3e4e3;}.cls-97{fill:#eaeaea;}.cls-98{fill:#d8dbda;}.cls-99{fill:#ddd;}.cls-100{fill:#a87346;}.cls-101{fill:#d7d7d7;}.cls-102{fill:#e0e0e0;}.cls-103{fill:#d5d6d6;}.cls-104{fill:#dcdddd;}.cls-105{fill:#e2a874;}.cls-106{fill:#f8b172;}.cls-107{fill:#eaac77;}.cls-108{fill:#f3b888;}.cls-109{fill:#e8ae79;}.cls-110{fill:#fabb85;}.cls-111{fill:#f5b47a;}.cls-112{fill:#d6d7d7;}.cls-113{fill:#e1e2e2;}.cls-114{fill:#d6dad9;}.cls-115{fill:#e1e1e1;}.cls-116{fill:#6d4621;}.cls-117{fill:#d09a6c;}.cls-118{fill:#f3bd86;}.cls-119{fill:#efcbac;}.cls-120{fill:#e3a974;}.cls-121{fill:#e0a773;}.cls-122{fill:#e1a775;}.cls-123{fill:#dfaa73;}.cls-124{fill:#dadada;}.cls-125{fill:#dedede;}</style></defs><g id="Calque_2" data-name="Calque 2"><g id="Calque_1-2" data-name="Calque 1"><path class="cls-1" d="M236.67,311.54c6,25.86,14.13,51,29.07,73.18,12.63,18.75,18.25,39.54,20.71,61.56,1.76,15.7,3.8,31.38,5.4,47.09A54,54,0,0,0,300.31,518c.91,2.69-.81,3.84-2.88,4.39-9.5,2.55-18.73,6.37-28.79,6.37-11.54,2.08-22.3,7.19-34,8.65-2.22.28-4.45.53-6.68.79a3.53,3.53,0,0,0-2.43-.52c-.55,0-1.13-.23-1.66.1a1.76,1.76,0,0,1,1.66.69,8.51,8.51,0,0,1-5.7,1.16,3.12,3.12,0,0,0-2.43-.59c-.55,0-1.12-.25-1.65.1a1.75,1.75,0,0,1,1.67.71c-3.69,1.94-7.93.81-11.74,2.18-1.78.64-3.31,0-3.1-2.08.45-4.5-2.52-4.13-5.48-4.44-5.16-.53-10.61.56-15.36-2.48.92-.88.8-2,.76-3.14,0,1.11.09,2.25-.75,3.17-.27-5.41-2.87-7.63-8.46-7.19-6.26.5-10.67-.89-9-9.25,1-5-8.17-12.21-13.11-10.81-4.1,1.17-10.83-1.14-10.6,7.06,0,1.18-2.32,1-3.62,1-4.07,0-8.13,0-12.2,0-3.09-.75-6.17-1.32-9.19.26-2,.73-2.17,2.64-2.81,4.25-.1,6.89-5.65,5.46-9.68,6.34-3.36-.07-6.72,0-10.07-.25-2.53-.17-4.33.38-5.26,3-1.82,5.15-5.36,5.19-9.54,3a1.5,1.5,0,0,1,1.34-.8c-1.25-.12-2.5-.3-3.63.48l-28.31-5.44a103.43,103.43,0,0,1-24.55-3.53,22.07,22.07,0,0,1-3-.64c-2.41-1.41-6.8-.33-6.49-5.15C22.49,506,24.62,493.4,29.4,482c8.4-20,11.44-41.17,15-62.27.93.53.88,1.42.86,2.3-.73-.54-.65,1.26-.34.36a9.39,9.39,0,0,0-.1-6.21,57.09,57.09,0,0,1,2.38-14c.93.41.51,1.48,1,2.15-.52-1.5.33-3.17-.8-4.5,1.72-21.57,9.37-41.18,19.5-60.06,5.86-10.94,11.19-22.17,16.76-33.26,1.08-7.57,6.52-12.88,10.06-19.16,1.85-3.28,4.56-6,7.07-8.86,8.66-6.14,16-13.71,22.83-21.75,5.26,2.2,10.37,4.65,14.11,9.2-.54,5.71-4.16,10-7.29,14.27a127.5,127.5,0,0,0-20.28,43.38,27.93,27.93,0,0,0-1.2,8.7c.13,2.17.65,4.12,3.31,4.31,2.22.17,4-.51,4.83-2.83a10.33,10.33,0,0,0,.53-2c2.63-19.71,12.52-36.67,20.43-54.39,2.1-4.72,5-6.12,9.63-3.62.6.32,1.23.57,1.85.84,11.76,5.23,12.56,6.5,10.47,19.4-1.38,8.48-3,17-5.76,25.11-1.51,4.42-.6,7.49,3.92,9.19,5.08,4.32,2.15,10.61,3.87,15.77a23.65,23.65,0,0,0,.78,6.8c1.33,7.72-.1,15.65,1.84,23.33.45,3.54-.4,7.15.63,10.66,1.33,9.56.5,19.27,2.1,28.81.37,4.11-.24,8.25.37,12.35.68,18.95.82,37.89-.06,56.83-.29,6.33-.1,12.62-.18,18.91.25-25.33,1.43-50.64.29-75.92-.8-4.49.36-9.09-.7-13.57-1.17-9.55-.4-19.25-2.08-28.76-.46-3.15,0-6.32-.3-9.47-2.25-8.37-.17-17.13-2.3-25.5a18.29,18.29,0,0,1-.35-4.61c-.88-4.53-.76-9.16-1.13-13.74,5.14-11.51,7.29-23.7,7.94-36.16.33-6.54,0-13.11.11-19.66.06-3.21.32-6.39,3.56-8.26,7.84-2.46,15.86-4.44,23.43-7.77,2.13-.94,4.33-1.14,6.28.56,4.11,7.6,5.46,16.53,12.26,22.92a204.42,204.42,0,0,1,19.81,22.15C235.94,306.33,237.61,308.54,236.67,311.54Z"/><path class="cls-2" d="M13.57,515.37c.87,4.06,5.13,1.76,7.09,3.79a1.44,1.44,0,0,1-1.42.81,4.94,4.94,0,0,0,3.65-.45l24.73,5.17a22.17,22.17,0,0,0-16.5,6.25c-6.07,5.6-13.63,7.44-21.42,8.72-4.21.68-6.29-1.94-8.44-5.14-2-3-1.35-5.13.06-8C4,521.15,9.87,519.49,13.57,515.37Z"/><path class="cls-3" d="M268.64,528.8c9.27-2.63,18.53-5.3,27.82-7.87,1.74-.48,3.68-.43,3.85-2.89,1.43,4.19,5.53,7.25,3.58,12.84-4.08,11.69-12.59,15-22.87,8C276.6,535.92,271.76,533.4,268.64,528.8Z"/><path class="cls-4" d="M103.09,524.73c3.39-1.94,10.08-.38,8.45-7.85a8,8,0,0,1,1.23,1.51C113.12,525.71,113.12,525.71,103.09,524.73Z"/><path class="cls-5" d="M115.58,514.14c2.52-2.09,4.32-2.14,9.19-.26Z"/><path class="cls-6" d="M255.13,14.33l-6.7-4.23C251.41,10.32,254.55,10.3,255.13,14.33Z"/><path class="cls-7" d="M44.83,416.22c2.07,2,.8,4.37,1.26,6.93-2-.91-1.14-2.42-1.68-3.38Z"/><path class="cls-8" d="M47.46,399.9c1.73,1.51,1.41,3.36.69,6.38-.47-2-.71-3-.94-4C47.29,401.47,47.38,400.68,47.46,399.9Z"/><path class="cls-7" d="M75.93,530.13c1.51-1.86,3.42-1.07,5.58-1.14-.89,1.84-2.34,1-3.29,1.46Z"/><path class="cls-9" d="M225.54,538.51l-4-.58c2.9-1.17,4.78-1.34,6.46.31Z"/><path class="cls-10" d="M217.43,539.89l-4.39-.61c3.3-1.08,5.15-1.4,6.8.39Z"/><path class="cls-11" d="M173.77,266.88c-3.39,2-2.93,5.27-2.78,8.38.82,16.94-.55,33.63-5.41,49.95-.71,2.37-.9,5-4.11,5.41-1.29-.66-2.88-.42-4.07-1.37-5.87-.5-7.23-3.36-5.42-8.9,3.57-10.9,6.24-22,6.87-33.57.25-4.51-.84-6.61-5.41-8.49-10.8-4.46-10.85-5-15.88,5.17-8.05,16.31-16.69,32.46-18.27,51.12-.44,5.21-4.51,3.89-7.71,4.17-3.77.33-4.47-1.74-4.5-5-.07-10.68,4.54-20,7.91-29.8,4.51-13,14.16-23,20.45-34.88.61-1.17,1.05-2.43,1.57-3.64-1.19-5.46,1.49-8.91,5.92-11.46,1.09-.71,2.21-1.39,3.23-2.19,1.73-1.42,3.73-2.47,5.51-3.78,4.21-3.11,8.17-2.94,12.19.28,2.27,1.82,5.09,2.77,7.42,4.51a6,6,0,0,1,.93,1.67C173.49,258.51,171.33,263,173.77,266.88Z"/><path class="cls-12" d="M214.17,249.6c4.92,10.81,9.88,21.6,14.76,32.43,3.34,7.43,5.63,15.09,4.75,23.39-7.67-8.16-14.41-17.15-22.56-24.9-5.76-5.47-7.51-13-9.11-20.48C202.3,254.51,206.59,250.83,214.17,249.6Z"/><path class="cls-13" d="M214.17,249.6c-3.64,4-10.62,4-12.16,10.44-2.13-2-4-.52-6.08.3-7.18,2.88-14.26,6.1-22.16,6.54-1.71-.2-3.62.23-3.08-2.87s.23-6.28.3-9.43c2.21-3,5.77-3,8.86-4.06,4.84-1.6,9.61-3.32,13.92-6.12a16.21,16.21,0,0,0,6.74-4.43c2.38-2,6-1.81,7.82-4.76,5.65-2.47,5.7-2.41,5.7,5.63Q214.11,245.22,214.17,249.6Z"/><path class="cls-14" d="M101.74,279.37c-1.61-3.7,1.69-5.71,2.92-8.43s4.5-4.71,3.67-8.33c-1.63-7.08,1.75-11.39,7.71-14.36,4.71,1.24,7.12,4.39,7.62,9.14C118.92,267.28,110.6,273.59,101.74,279.37Z"/><path class="cls-13" d="M123.66,257.39q-3.82-4.56-7.63-9.13l2.1-4.58c3.15-2.44,5.31.33,7.79,1.46a13,13,0,0,1,1.55,1.08c4.35,4.92,11.53,4.29,16.32,8.34-3.94,2.59-5.53,6.63-6.78,10.89C131.92,263.82,127.74,260.69,123.66,257.39Z"/><path class="cls-15" d="M168.26,425.68c.3.34.83.66.85,1,.83,18.48,1.23,37-.2,55.41C168.38,489,169,496,167,502.86V425.62C167.44,425,167.87,425.05,168.26,425.68Z"/><path class="cls-16" d="M141,397.15c-2.45,21.23-.78,42.55-1.34,63.82-.43.63-.86.63-1.29,0,0-17.51.11-35-.08-52.54,0-3.89,1.22-7.49,1.43-11.28C140.17,396.53,140.6,396.56,141,397.15Z"/><path class="cls-17" d="M139.23,339.58c-.57,13-3.89,25.29-8.7,37.27Z"/><path class="cls-18" d="M165.59,383.53c2.34,9.42,1.14,19.15,2.58,28.65a3.23,3.23,0,0,1-1.32,1.32c-2.21-2.29-1.26-5.16-1.24-7.76a126.49,126.49,0,0,0-1.34-20.86A3.36,3.36,0,0,1,165.59,383.53Z"/><path class="cls-19" d="M172.32,336.06q1.45,14.24,2.92,28.48l-1.88.2c-1.09-9.52-2.48-19-2.38-28.69A.8.8,0,0,1,172.32,336.06Z"/><path class="cls-20" d="M118.09,431.14c.65-10.05,3.45-19.61,7.32-29q-3,14.47-6.07,28.95C118.93,431.73,118.51,431.73,118.09,431.14Z"/><path class="cls-21" d="M183.16,466.4v40.47l-1.25,0v-40.5C182.33,465.79,182.75,465.82,183.16,466.4Z"/><path class="cls-22" d="M96.05,480.85c1.49,8.89-2.36,17.19-3.13,25.9C91.22,497.85,95.51,489.59,96.05,480.85Z"/><path class="cls-23" d="M115.32,463.73c1.57-9,.22-18.31,2.63-27.24,1,.59.43,2,1.32,2.67-2.83,8.45.54,17.52-2.58,25.95C115.85,465,115.83,464.14,115.32,463.73Z"/><path class="cls-24" d="M217.12,353.73c-6.91-6.66-12.05-14.57-16.32-23.1l.09-.07c6.64,6.85,11.78,14.76,16.3,23.12Z"/><path class="cls-22" d="M116.6,475.89c-.06,9.54-2.23,18.94-2,28.52.17-9.51-2.27-19.07.72-28.49C115.72,475.31,116.15,475.32,116.6,475.89Z"/><path class="cls-15" d="M137,319.75c-1,9.39-4.85,17.85-8.46,26.41,2.15-9,4.29-18,8.46-26.41Z"/><path class="cls-25" d="M143.43,322.76c-.11-8.21,3-15.71,5-23.45C148.21,307.46,146.09,315.17,143.43,322.76Z"/><path class="cls-26" d="M55.51,488.13v18.09l-2.47,0c-.07-6-1.28-12,1.14-18.11C54.62,487.55,55.07,487.52,55.51,488.13Z"/><path class="cls-27" d="M126.1,357.77q-3.19,11.16-6.37,22.32c.13-7.87,1.41-15.4,5-22.32C125.22,357.1,125.66,357.13,126.1,357.77Z"/><path class="cls-28" d="M73.19,504.46c-5.49-7.38-5.54-16-5.32-24.63,1.73,7.32,2,15,5.31,21.9A1.89,1.89,0,0,1,73.19,504.46Z"/><path class="cls-29" d="M164.19,374.07c-2.75-3.67-.9-7.87-1.33-11.8-.4-3.78.67-7.72-1.35-11.31.91-.68.35-2.09,1.34-2.73,2.45,8.47,1.05,17.34,2.61,25.9C165,374.74,164.58,374.72,164.19,374.07Z"/><path class="cls-30" d="M176.41,393.08c-3.11-7.21.31-14.93-2.76-22.15l2.08-.24,2,22.43C177.26,393.7,176.83,393.69,176.41,393.08Z"/><path class="cls-31" d="M139.82,385c2.34-8.47-.26-17.45,2.65-25.87l0,0c-.77,9.06,1.65,18.26-1.31,27.21A3.23,3.23,0,0,1,139.82,385Z"/><path class="cls-32" d="M100.63,459.15c-.84,6.36-.48,12.78-3.62,18.45C97.3,471.2,97.84,464.85,100.63,459.15Z"/><path class="cls-27" d="M185.9,394.45c-2.58-6.61-2.61-13.63-3.51-20.52,3.78,6.36,2.88,13.76,4.8,20.53C186.75,395.12,186.33,395.09,185.9,394.45Z"/><path class="cls-27" d="M195.43,452.84a87,87,0,0,1,2.69,21.73c-.44.6-.87.63-1.31,0l-2.67-21.73C194.57,452.24,195,452.22,195.43,452.84Z"/><path class="cls-33" d="M177.8,399.84c2.81,7,.31,14.72,2.58,21.83a3.25,3.25,0,0,1-1.3,1.35c-2.54-4.19-.74-8.81-1.33-13.2-.39-2.88-.81-5.77-1.22-8.65A3.08,3.08,0,0,1,177.8,399.84Z"/><path class="cls-34" d="M199.54,488.1c2.65,7.43.56,15.35,2.59,22.85-4.32-6.17-1.23-13.67-4-20.11C199.1,490.16,198.53,488.74,199.54,488.1Z"/><path class="cls-26" d="M203.21,516.11c.22,4.5.49,9,.6,13.51,0,.7-.65,1.42-1,2.14-.77-.74-2.26-2-2.2-2.12,3.39-4.24-.87-9.1.69-13.43Z"/><path class="cls-35" d="M54.21,474.63c.53-4.54-1.41-9.32,1.3-13.66,1.31,1.06.05,3,1.34,4-.62,5,1.5,10.22-1.28,15C54,478.51,55.71,476.17,54.21,474.63Z"/><path class="cls-36" d="M195.43,452.84h-1.29q-1.12-9.75-2.23-19.5A43.64,43.64,0,0,1,195.43,452.84Z"/><path class="cls-37" d="M172.32,336.06H171c-3-5.28-.41-10.86-1-16.28C171.3,325.15,172.86,330.46,172.32,336.06Z"/><path class="cls-38" d="M157.4,329.25c1.49.05,3.09-.23,4.07,1.37,1.6,4.41,1.42,9,1.35,13.58-.44.6-.89.63-1.34,0-1.68-2.64-1.57-5.62-1.31-8.51A7.18,7.18,0,0,0,157.4,329.25Z"/><path class="cls-39" d="M145,292.45a32.12,32.12,0,0,1-3.46,15.93l-1.64-.53Z"/><path class="cls-18" d="M56.85,465c-1.59-1-1.24-2.57-1.34-4q0-10.86.07-21.71a.81.81,0,0,1,1.33,0Z"/><path class="cls-21" d="M65.08,455.51c2.76,5.78.23,12.06,2,17.95-3.29-4.69-1.2-10.41-3.36-15.27C64.66,457.52,64.05,456.11,65.08,455.51Z"/><path class="cls-36" d="M62.27,424.36c-.32,6.38,2.27,12.54,1.42,19,.56,1.43-.12,1.65-1.33,1.34-.1-6.35-2.21-12.54-1.43-19C60.39,424.27,61.06,424.05,62.27,424.36Z"/><path class="cls-28" d="M236.12,370.05c7,3,6.26-4.21,9-6.86.68,8.18-2.68,10.85-10.31,8.21C234.84,370.56,235.72,370.55,236.12,370.05Z"/><path class="cls-40" d="M56.91,439.26H55.58c.49-4.54-1.35-9.29,1.26-13.64,1.36,1,.08,3,1.34,4C57.79,432.87,59.41,436.34,56.91,439.26Z"/><path class="cls-41" d="M138.4,461c.43,0,.86,0,1.29,0q0,10.88,0,21.73c-.43.64-.86.64-1.29,0Z"/><path class="cls-42" d="M185.9,394.45h1.29q1.16,7.44,2.32,14.9C186.52,404.78,185.74,399.72,185.9,394.45Z"/><path class="cls-43" d="M199.54,488.1a2.93,2.93,0,0,1-1.37,2.75q-.67-8.14-1.36-16.28h1.31C199.76,479,199.51,483.54,199.54,488.1Z"/><path class="cls-44" d="M236.16,418.91c1.57,3.79,4.48,7.09,4.4,12-3.76-3-3.91-7.3-5.76-10.7C234.28,418.82,234.94,418.59,236.16,418.91Z"/><path class="cls-33" d="M190.7,415.53l1.72,11.39-2,.5c-1-3.69.21-7.94-1.44-11.48Z"/><path class="cls-45" d="M108.57,418.91l2.73-12.23c1.84,4.46.63,8.4-1.43,12.21C109.45,419.53,109,419.57,108.57,418.91Z"/><path class="cls-46" d="M181.1,370.65l-1.59-10.58,1.72-.24q.79,5.3,1.6,10.58Z"/><path class="cls-33" d="M248.44,444.65c4.05,3.18,5.09,8.22,7.61,12.35a23.1,23.1,0,0,1-7.7-12.28Z"/><path class="cls-33" d="M116.68,391.77c-.41,3.46-1,6.86-3.84,9.67q1.26-6.18,2.51-12.38C117.85,389,117.44,390.28,116.68,391.77Z"/><path class="cls-47" d="M175,325.19l2.31,13.52-1.47.33-2.18-13.85C174.15,324.53,174.59,324.56,175,325.19Z"/><path class="cls-48" d="M73.19,504.46c0-.91,0-1.82,0-2.73,2.79,3.67,2.85,8.1,3.56,12.36A15.85,15.85,0,0,1,73.19,504.46Z"/><path class="cls-40" d="M179,354.24c-2-3.14-.31-6.86-2.14-10C179,346.66,179,346.66,179,354.24Z"/><path class="cls-49" d="M59.64,418.85c-.09-2.73-.09-2.73-1.41-2.67-.41.61-.82.61-1.25,0,0-1.93-.56-4,1.18-5.56a2.18,2.18,0,0,0,1.55,0c2,2,1,4.59,1.27,6.92C61.51,419,60.85,419.18,59.64,418.85Z"/><path class="cls-16" d="M108.57,418.91l1.3,0A19.15,19.15,0,0,1,106,431.12Q107.29,425,108.57,418.91Z"/><path class="cls-50" d="M200.8,330.63A20.59,20.59,0,0,1,194,319.76l.05,0a20.19,20.19,0,0,1,6.81,10.84Z"/><path class="cls-34" d="M143.44,326.19c-1.49,2.81.05,6.3-3.32,9.95.65-4.2,1.11-7.22,1.57-10.23Z"/><path class="cls-21" d="M106.55,434.63l-1.36,8-1.48-.24c.44-2.68.87-5.37,1.31-8.05Z"/><path class="cls-51" d="M100.4,351c-1.77,3.42-5.23,4.6-8.41,6.2,1.24-3.28,4.6-4.21,7-6.21C99.46,350.39,99.93,350.42,100.4,351Z"/><path class="cls-52" d="M236.16,418.91l-1.36,1.34c-2.11-2.8-3-5.89-2.36-10.73Z"/><path class="cls-15" d="M128.08,388.86c-.51-3.71.81-6.12,2.29-8.49C130.24,383,130.87,385.86,128.08,388.86Z"/><path class="cls-53" d="M180.44,439.27c-2.18-2-1-4.56-1.23-6.89a3.48,3.48,0,0,1,1.31-1.3c2.35,2.44.94,5.46,1.26,8.21C181.32,439.94,180.88,439.9,180.44,439.27Z"/><path class="cls-38" d="M175,325.19H173.7a9.76,9.76,0,0,1-.78-8.46A13.25,13.25,0,0,1,175,325.19Z"/><path class="cls-54" d="M166.85,413.5l1.32-1.32.09,13.5c-.42,0-.85,0-1.28-.06Q166.92,419.56,166.85,413.5Z"/><path class="cls-53" d="M62.36,444.66l1.33-1.34c2.39,2.43,1,5.46,1.28,8.21-.43.59-.85.55-1.26,0A10.78,10.78,0,0,1,62.36,444.66Z"/><path class="cls-27" d="M54.21,474.63c2,1.42,1.08,3.56,1.36,5.4l-.06,8.1-.66,0h-.67Z"/><path class="cls-21" d="M271,478.53a21.68,21.68,0,0,1,8.1,8.37C275,484.56,273,482.67,271,478.53Z"/><path class="cls-53" d="M59.64,418.85,61,417.52c2.19,2,1,4.52,1.29,6.84l-1.34,1.35C58.76,423.75,59.87,421.17,59.64,418.85Z"/><path class="cls-55" d="M57,416.19h1.25q0,6.74,0,13.49c-1.59-1-1.17-2.6-1.34-4C56.89,422.49,56.93,419.34,57,416.19Z"/><path class="cls-56" d="M181.87,450.12c1.93,1.49,1.15,3.6,1.26,5.5-.9.68-.3,2.1-1.34,2.72-2.31-2.46-.94-5.47-1.24-8.24C181,449.48,181.44,449.45,181.87,450.12Z"/><path class="cls-57" d="M281.79,491.22c3.24.56,4.13,3,5.36,5C284.83,495.44,282.31,494.85,281.79,491.22Z"/><path class="cls-58" d="M101.34,454.7c.53-2.64-.3-5.54,2.65-8.72C103.11,449.84,103.6,452.67,101.34,454.7Z"/><path class="cls-16" d="M217.19,353.68a15.73,15.73,0,0,1,6.21,7c-2.86-1.68-5.7-3.35-6.27-7Z"/><path class="cls-59" d="M116.68,391.77a2.87,2.87,0,0,0-1.33-2.71l2.1-6.17C118.08,386,118.65,389,116.68,391.77Z"/><path class="cls-20" d="M126.1,357.77h-1.33a13.91,13.91,0,0,1,3-8.49A16.8,16.8,0,0,1,126.1,357.77Z"/><path class="cls-60" d="M116.6,475.89c-.43,0-.87,0-1.3,0q0-6.09,0-12.19l1.37,1.38Z"/><path class="cls-24" d="M79.29,364.69l6-4.06C84.68,363.94,82.34,364.82,79.29,364.69Z"/><path class="cls-61" d="M139.82,385l1.31,1.32c0,3.61-.06,7.21-.1,10.82h-1.28Q139.78,391.09,139.82,385Z"/><path class="cls-60" d="M127.34,391c0,2.34.8,4.82-1.48,7.91C125.15,395.3,126.23,393.17,127.34,391Z"/><path class="cls-62" d="M181.87,450.12c-.44,0-.88,0-1.32,0,0-3.61-.07-7.22-.11-10.83.45,0,.9,0,1.34,0Z"/><path class="cls-49" d="M181.79,458.34c.09-1.08.24-2.14,1.34-2.72l0,10.78h-.63l-.62,0Z"/><path class="cls-63" d="M164.19,374.07c.42,0,.85,0,1.27.06,0,3.13.09,6.27.13,9.4l-1.32,1.35Q164.23,379.48,164.19,374.07Z"/><path class="cls-64" d="M180.52,431.08c-.44.44-.88.87-1.31,1.31,0-3.13-.09-6.25-.13-9.37l1.3-1.35C180.43,424.81,180.47,428,180.52,431.08Z"/><path class="cls-65" d="M138.41,482.71h1.29l0,10.87c-.45.63-.89.63-1.34,0Q138.39,488.14,138.41,482.71Z"/><path class="cls-66" d="M137,319.75c.06-2.49-.4-5.15,2.24-7.08,1,3.07-.24,5.2-2.24,7.08Z"/><path class="cls-38" d="M138.39,493.58h1.34v9.28l-1.34,0Z"/><path class="cls-39" d="M142.45,352.34v-7.93l1.36,0v8C143.35,353,142.9,352.94,142.45,352.34Z"/><path class="cls-34" d="M194,319.76c-2.5-1.09-2.91-3.4-4.57-7.09,3.53,2.59,4.24,4.72,4.62,7.05Z"/><path class="cls-33" d="M248.35,444.72c-2.38-1.18-3.12-3.32-4.08-6.79a9.39,9.39,0,0,1,4.16,6.72Z"/><path class="cls-62" d="M266.63,472.69c1.87.65,3.12,1.53,2.92,3.8C267.74,475.78,266.37,475,266.63,472.69Z"/><path class="cls-67" d="M119.27,439.16c-1.09-.57-1.21-1.61-1.32-2.67,0-1.78.09-3.57.14-5.35.41,0,.83,0,1.25,0Q119.3,435.14,119.27,439.16Z"/><path class="cls-68" d="M100.4,351H99c.85-2,2.5-2.76,5-3.36C103.49,350,101.67,350.2,100.4,351Z"/><path class="cls-69" d="M177.8,399.84c-.43.44-.85.88-1.27,1.33l-.12-8.09c.43,0,.87,0,1.3,0Z"/><path class="cls-15" d="M161.48,344.21h1.34l0,4a2.88,2.88,0,0,1-1.34,2.73Z"/><path class="cls-56" d="M142.45,352.34h1.36c-.32,2.28.89,4.88-1.36,6.77l0,0C142.46,356.88,142.46,354.61,142.45,352.34Z"/><path class="cls-70" d="M63.71,451.51c.42,0,.84,0,1.26,0,0,1.33.07,2.65.11,4-.09,1.07-.23,2.11-1.32,2.68Q63.73,454.85,63.71,451.51Z"/><path class="cls-71" d="M59.71,410.6c-.49,1-1,1.08-1.55,0,.17-1.42-.5-3,.72-4.25C60.14,407.61,59.48,409.19,59.71,410.6Z"/><path class="cls-72" d="M74.86,367.77c-.86,1.3-1.78,2.16-3.49,1.5C72,367.47,73.1,367,74.86,367.77Z"/><path class="cls-73" d="M22.89,519.52c-1.55,1.65-3.38,1.43-5.42.81.75-1.55,2.22-.66,3.19-1.17Z"/><path class="cls-18" d="M236.12,370.05l-1.34,1.35a3.83,3.83,0,0,1-3.3-1.75C233.27,368.17,234.58,370.47,236.12,370.05Z"/><path class="cls-74" d="M181.76,533.1c.11-1.79.21-3.57.35-5.88,1.71,2.47,1.35,4.22-.36,5.85Z"/><path class="cls-20" d="M263.74,470.17a6.5,6.5,0,0,1-1.29-2.08c-.16-.85.69-1,1.21-.47a13.35,13.35,0,0,1,1.51,2.1Z"/><path class="cls-12" d="M237.3,222.75c1.14-3.36,2.15-6.77,3.44-10.07,3.52-9.07,3-11.74-4.42-18.45-3-2.68-6.07-5.19-9.11-7.79-5.16-1.63-2.31,2.7-3.17,4.27.24,6.09,2.78,12.89-5.1,16.47-2.09,2.54-1.24,5.27-.5,8,.88,3.85-2.67,5-4.41,7.24a139.8,139.8,0,0,1-39.73,10.74,9.71,9.71,0,0,1-5.31-.73,161.16,161.16,0,0,1-10.54-19.59c-1.89-4-.65-7.3,1.75-10.7,6.39-9,13.68-17.39,19.6-26.82,11.4-18.16,20.52-37.2,24.8-58.33.73-3.63,2.36-5.26,6.09-3.81a8.27,8.27,0,0,0,1.86.78c15.31,2.36,24.78,12.71,34.57,23.58,14.87,16.53,28.5,33.82,40,52.82,3.95,6.53,4.87,12.84.7,19.5a9.77,9.77,0,0,0-.18,6.66q-.78,6.09-1.57,12.19c-2,1-.65,2.79-.88,4.2-1.64,4,0,10.11-6.85,10.92-.18-.15-.47-.27-.51-.44-1.88-9.9-8.27-15.56-17.45-18.6a15.72,15.72,0,0,0-6.06-2.25c-5.51-.71-9.26,4.68-14.69,4.24C237.89,226,236.67,224.92,237.3,222.75Z"/><path class="cls-75" d="M150.59,108.92c4.21-3.82,4.49-9.22.15-12.22-5.86-4-6-9.38-13.5-10.63-3.3-.55-5.48-2.91-7.21-5.66a5.21,5.21,0,0,1,0-6.21c1.84-2.53.81-7.09,5.42-7.67,3.31,1.12,3,4.26,4.82,7.6-1.88-10.59-2.61-19,.9-27.73a6.2,6.2,0,0,1,1.2-1.54c.56-.37,1.23-1,1.77-.83,8.18,2.11,15.24-.82,22.11-4.73a2.27,2.27,0,0,1,1.34,1.27c.45,1.41-.53,2.61-.63,4.35,5.36-.41,9-3.56,12.56-7,6.09-5.78,6.45-4.77,12.13.7,9.08,8.74,9.94,19.68,10.84,31.24,2.18-1.8,2.4-4.85,5.18-5.41,5.8,1.45,4.16,6.22,4.13,9.94-.06,5.51-3.2,10-8.26,11.14-8.9,2-12.35,10.58-19.52,14.57-2.2,1.23-.69,5.06-.76,7.71,5.35,3.43,6.24,8,4.49,14-5.4,18.4-11,36.68-22.67,52.33-4.14,5.56-8.36,11.16-14.92,14.24-2.83-.44-.1-5.61-4.24-5a67.74,67.74,0,0,1-4.83-31.65,22.66,22.66,0,0,0,.07-12.85c-.78-8.9,1.61-17.31,4-25.7C145.54,110,150,111.92,150.59,108.92Z"/><path class="cls-12" d="M56.93,185.31c-.82-3.25,1.43-5,3.41-6.81q8.3-7.44,16.75-14.69c3.88-3.32,8.3-6.14,8.88-11.93.17-1.72,1.92-2.39,3.06-3.44,2.13-2,5-3.63,6.23-6.08,6.78-13.23,17.39-22,30.73-27.94a6.75,6.75,0,0,1,6.76-.23c2.34,2.65,1.26,5.62.54,8.38-5.17,19.83-4.95,39.81-2,59.91.31,2.18,2.2,5-1.36,6.4a8.85,8.85,0,0,1-8.59-5.59c-1.78-5.45-4.69-3.69-8-2.87-9.5,2.31-18.52,6.89-28.83,5.49-3.67-.5-6.07,2.55-8,5.43-1.32,2.07-1.75,4.45-2.29,6.79-.62,2.71,1.22,2.79,3.1,2.81a118.7,118.7,0,0,1,20.64,1.29c7.32.94,7.5,1.08,6.86,8.83-1.37,10.92-9.5,17.59-15.91,25.35-1.66,2-3.16,1.35-4.52,0q-13.69-14-27.29-28C56.63,200.67,57.23,193,56.93,185.31Z"/><path class="cls-76" d="M129.07,188c2-4-.11-8-.55-11.85a156.41,156.41,0,0,1,1.85-50.21c.78-3.71,1.73-7.39,2.61-11.08-.48-.25-.63-.49-.46-.72a.67.67,0,0,1,.5-.32c4.95-1.52,9.44-4.54,14.85-4.55.94,1.53-.77,2-1.18,3-1.32,9-4.57,17.65-4.23,26.89,1.14,4.1-.43,8.18-.11,12.28a93.7,93.7,0,0,0,5.43,32.71c1.56.9.13,2.92,1.46,3.91,17.28-13.25,25.7-32,32.36-51.87.57-1.71,1-3.45,1.49-5.19,2.09-7.69,6.92-15.37.14-23.11,10.3-4.14,18.47,2.7,27.46,5.31-2,.24-3.88.17-4.4,3-5.11,28.57-19,53-36.14,75.85-.81,1.08-1.84,2-2.64,3.08-10.58,14.35-10.6,14.38-.88,29.8,1.34,2.13,3.05,4,1.66,6.72-1.87,4.34-5.85,3-9.08,3.11-3.67.15-7.51.68-10.9-1.48.9-2.28.9-2.28,2.75-2.41-9.21-8.63-11.65-22-18.54-32.64-1.57-2.54-1.47-6-4.18-7.89A1.85,1.85,0,0,1,129.07,188Z"/><path class="cls-77" d="M142.64,45.49c-2.93,10.33-4.47,17.94-1.29,31-5-4.32-7.17-6.5-9.33-9.91-2-5.71-1-12.13-4.23-17.75-.49-.84.66-3.1,1.61-4.23,2.87-3.46,4.16-6.37-3-8.14,4.89-2.33,7.39-5,8.31-9.26,1-4.63,5-6,9.27-6.62.55-2.78-3.53-3.58-2.42-6.94,4.81,1.63,8.19-1.28,11.57-4.24a7.89,7.89,0,0,1,2.73-1.93c3.67-1,6.77-2.34,5.74-7.1,2.72-.95,5.37.27,8.06.31,8.59-.69,16.41,0,19.42,10.12.54,1.8,2.18,2.13,3.87,1.93,7.42-.91,10.06,3.72,12.31,9.73,2.06,5.51,3.31,11.58,8.67,16.32h-7.61c7.05,8.82,2.7,17.29,1.33,25.73-2.09,3.33-2.88,7.45-5.82,10.31-1.59-.91-1.26-2.18-1.18-3.14,1.15-13.76-3.5-25.38-12.45-35.68-3.09-3.56-4-.47-5.52,1.14-7.83,8.33-10.77,9.83-19.07,9.52-.32-2.93,4.29-3.51,3.25-6.73.31-.24.57-.54.88-.78L167,40c-3-.53-3.92,2.45-5.92,3.61-4,2.36-7.91,6-12.89,1.52-1.74-1.56-3.7.74-5.63.42-.73-.84-.46-1.55.26-2.23,0,0-.22-.16-.27-.09C142,44,141.6,44.81,142.64,45.49Z"/><path class="cls-78" d="M260.62,223.33a27.14,27.14,0,0,0,4.27,2c9.43,2.6,13.46,9,13.47,18.48,1,3.31,4.23,5.45,3.71,9.74-1.59,13.27-3.3,14.15-20.06,16a16.3,16.3,0,0,0-2.7-.22l-3-3.77c-.52-2.27,0-4.69-1-6.88-.21-1.56-.33-3.15-.67-4.68a2.69,2.69,0,0,0-3-2.12c-1.46,0-1.73,1-1.88,2.25-.27,2.33-1.06,4.61-3.31,5.54-1.75.71-2.17-1.25-2.55-2.41-.9-2.85-3.7-5.65-1-8.76a54.61,54.61,0,0,1,5.54-4.83c3.37-5.89,8.66-10.85,8.35-18.51C256.72,223.38,258.35,221.9,260.62,223.33Z"/><path class="cls-13" d="M147.51,231.68a47.46,47.46,0,0,0,20.78,0c12.93-.35,25.2-3.84,37.41-7.75,2.66-.85,5.23-2.9,8.34-1.52a3.21,3.21,0,0,1,.32.88c-.46,5,1.89,9.95.15,14.95l-.48,2.61c-1.08-1.07-.69-2.52-1-3.78-1.09-4.23-2.57-2.4-4-.15-11.92,4-23.91,7.93-36.69,7.19-19.07-1.12-37.43-4.83-53.21-16.61l-2-5c1.05-2.1,2.82-1.34,4-.62a68,68,0,0,0,24.22,8.24A3.21,3.21,0,0,1,147.51,231.68Z"/><path class="cls-12" d="M147.51,231.68c-9.35-.48-18.17-2.69-26.09-7.91-1.3-.86-2.59-1.87-4.33-1.23-6.49-3.38-5.77-7.9-2-12.89,1-3.92-.6-4,1.47-5.37-1.19-1.94-.4-3.19,1.44-4.05,3.58,1.38-5.23-1.32-.88-3.39-.41-2.66,9.6,1.89,7.89.57-.59-1.4.15-11.19,1.21-11.38,2.58-.85,4.88,9.29,6.57,11.4,2.35,0,2.59,1.95,3.38,3.57q5.7,11.77,11.64,23.43a16.78,16.78,0,0,0,5.94,6.74Z"/><path class="cls-79" d="M260.62,223.33c-2.52,0-3,1.67-2.79,3.65,1,7.9-3.56,12.65-9.39,16.7a3.1,3.1,0,0,0-.05-1.32c-1-1.41-2.19-2.59-4.06-2.75-2.22-2.52-4.27-5.21-6.69-7.52-3.25-3.13-3-6.12-.34-9.33a5.16,5.16,0,0,0,2.91,3.28c5.56-.2,9.49-4.88,14.92-5.41Z"/><path class="cls-80" d="M119.11,227.49c8.73,2.24,16,7.9,24.79,10.23,19.41,5.15,38.66,7,57.89-.52a11.17,11.17,0,0,1,7.22-.29c-1.51,3.78-5.77,2.07-8.16,4.09-28,9.17-54.48,5-79.73-9.4-.69-.92-1-2.07-1.88-2.88A1.86,1.86,0,0,1,119.11,227.49Z"/><path class="cls-81" d="M56.93,185.31a43.42,43.42,0,0,1,.06,23C55.05,200.68,55.78,193,56.93,185.31Z"/><path class="cls-82" d="M214.51,238.23c.25-5-2.33-9.94-.15-14.95C216.75,228.24,216.53,233.23,214.51,238.23Z"/><path class="cls-83" d="M126.16,246.42c-3,0-4.78-3.52-8-2.74-.13-1.5-.12-3,1.15-4.08a1.76,1.76,0,0,1,1.72-.44C123.46,241.06,126.61,242.45,126.16,246.42Z"/><path class="cls-84" d="M120.72,239.63l-1.44,0,0-10.88,1.48,1.38C122.57,233.28,123.5,236.46,120.72,239.63Z"/><path class="cls-85" d="M244.33,239.61c3.07-1.62,5-1.62,4.06,2.75C246.36,242.44,244.88,241.7,244.33,239.61Z"/><path class="cls-86" d="M285.21,232.9c-2-1.58-1.81-3.54-1-5.62l1.9,1.42C286.36,230.22,287.17,231.85,285.21,232.9Z"/><path class="cls-87" d="M146.69,112.24c.39-1,.79-2,1.18-3l2.71-.31c.45.54,2.76.45.87,1.75C150.12,111.57,148.29,111.74,146.69,112.24Z"/><path class="cls-88" d="M288,211.11l.12,2.7-.47,2.7c-2-2-1.25-4.43-.94-6.77,0-.11.37-.24.55-.22s.38.21.57.33A1.84,1.84,0,0,0,288,211.11Z"/><path class="cls-89" d="M218.44,215.17c-1.72-2.78-2.67-5.52.5-8C217.33,209.75,218.75,212.52,218.44,215.17Z"/><path class="cls-90" d="M255.3,258.69c1.57,2.11,2.14,4.37,1,6.88C253.74,263.6,255.12,261.05,255.3,258.69Z"/><path class="cls-91" d="M259.31,269.34c.21-.55.34-1.51.64-1.56,1.26-.23,1.61.88,2.06,1.78C261,270.56,260.1,270.72,259.31,269.34Z"/><path class="cls-92" d="M291.63,536a11.14,11.14,0,0,1-1-2.1c-.15-.63.27-1.54,1-1.14a3.77,3.77,0,0,1,1.38,2.08C293.24,535.39,293,536.11,291.63,536Z"/><path class="cls-13" d="M120.72,239.63c0-3.18,0-6.35,0-9.53C140.12,240.86,161,245,183,243.68c6-.35,11.72-3.08,17.87-2.68-.91,2.55-3.19,3.26-5.42,4-8,3.26-15.63,7.44-24.45,8.16-1.3-.23-3.12,0-3.81-.77-7.28-8.17-13.95-4.25-20.64.78-7.9,1.06-14.2-2.68-20.38-6.79h0Q123.45,243,120.72,239.63Z"/><path class="cls-93" d="M171,253.19,195.43,245c-7.16,5.7-15.94,7.25-24.44,9.55C171,254.11,171,253.65,171,253.19Z"/><path class="cls-93" d="M126.15,246.41c6.68,2.6,12.91,6.56,20.38,6.79a2.81,2.81,0,0,1-2.74,1.36C137.39,253,130.41,252.65,126.15,246.41Z"/><path class="cls-94" d="M255.13,220.63c-4.82,2.22-9,6.34-14.92,5.41C245.15,224.14,249.29,220,255.13,220.63Z"/><path class="cls-95" d="M248.39,193.44c-2.16,3.58-4,2.11-5.31-.56a78.94,78.94,0,0,1-2.87-7.56c-.51-1.43.15-1.67,1.37-1.35,1.5,2.94.71,7.43,5.52,8.13C248.28,191.82,249,192,248.39,193.44Z"/><path class="cls-96" d="M241.58,184l-1.36,1.35q-2.85-5.9-5.68-11.79l1.45-.78Z"/><path class="cls-97" d="M252.44,171.73q-2-4.11-4-8.23c4.71.46,4.46,4.06,5.37,6.89C253.3,170.78,253.27,171.67,252.44,171.73Z"/><path class="cls-98" d="M248.39,193.44l-1.29-1.34q2.67-5.44,5.35-10.88c.44-.67.88-.64,1.32,0Z"/><path class="cls-99" d="M184.58,212.47c1.85-2.08,3.69-4.17,5.53-6.25.09,3.32-2,4.81-4.12,6.26C185.52,213.11,185.05,213.14,184.58,212.47Z"/><path class="cls-100" d="M85.85,246.16,262.62,14a4.45,4.45,0,0,0-.85-6.24h0c-3-2.31-10.47,2.35-12.78,5.38L76.8,239.28a4.45,4.45,0,0,0,.85,6.24L79.6,247A4.46,4.46,0,0,0,85.85,246.16Z"/><path class="cls-101" d="M253.77,181.22h-1.32c0-3.16,0-6.33,0-9.49l1.37-1.34C253.8,174,253.78,177.61,253.77,181.22Z"/><path class="cls-78" d="M127.07,186.56a4.58,4.58,0,0,1,2.12,3.64v.28c.11,1.33-.09,2.13-.93,2.09-.42.13,0,.33,0,.4,1.57,4.34-4,4.31-3.48,4.71.2,1.62.63,1.2-1.31,3.88-1.55,2.14-2.62,1.79-3.19,1.66-2-.44-1.14-.58-2.9-1.5-2.73-1.24-5.79-1.27-8.57-2.31-.92-3.4-8.89,1.93-6.53,1.69-2.33,0,6.39-4.89,5.68-2.65,2.86,2.55,7.25,2.61,9.65,5.91,1,1.65,1.21,2-.12,4-1,1.53-1.63,1.35-2.43,1.3-2.8-1.62-.36-.45-2.56-2.9-1.06-1-7.64-4.12-9.2-2L98,204.22c-7.83-.73-15.61-1.51-23.48-1.29-3.29-4.07,1.41-8.12,0-12.19,2.8-5.37,7-7.83,13.21-6.75,10.69,1.85,19.5-5.31,29.6-6.38,2-.21,7.59,0,4.18,2.79C121,183.18,124.29,184.82,127.07,186.56Z"/><path class="cls-102" d="M181.81,219.23l-4.18,6.11c-.29-2.8.4-4.93,2.78-6.1C180.88,218.59,181.34,218.59,181.81,219.23Z"/><path class="cls-103" d="M181.81,219.23h-1.4c.05-3.08,3.1-4.32,4.17-6.77H186C185.93,215.55,182.89,216.78,181.81,219.23Z"/><path class="cls-104" d="M209.8,211.33c.46.43,1,.86.95.88a7.16,7.16,0,0,1-1.7,1.91c-.91.53-1.26-.31-.94-1A8.6,8.6,0,0,1,209.8,211.33Z"/><path class="cls-105" d="M175,107.16c-5.51,1.06-15-3.85-21-8.77,6.92,3.79,14.8,8.26,19.62,7.4C175.11,105.28,175.36,105.94,175,107.16Z"/><path class="cls-106" d="M142.35,151.41c-2.11-4.11-.29-8.19.11-12.28A12,12,0,0,1,142.35,151.41Z"/><path class="cls-107" d="M164.15,161.88H149.59v-.6h14.56Z"/><path class="cls-108" d="M149.24,188c-1.49-.93-1.36-2.46-1.45-3.91,1.29-1.05,3.18-3.73,2.48.86A18.56,18.56,0,0,1,149.24,188Z"/><path class="cls-109" d="M175,107.16l-1.36-1.37c1.14-1.58,2.88-1.54,4.82-1.76C178.27,106.3,176.26,106.32,175,107.16Z"/><path class="cls-110" d="M148.93,48.85c1.49-1,3.74-1,3.93-.34.49,1.77-1.31.7-2.08.9C150.31,49.53,149.68,49.1,148.93,48.85Z"/><path class="cls-111" d="M74.57,190.74c3.26,4.07-1.56,8.12,0,12.19-3.23.19-3-2-2.53-4C72.7,196.17,73.7,193.47,74.57,190.74Z"/><path class="cls-112" d="M105.78,139.13c-.63,3.75,1.27,7.18,1.4,10.84.51,1.42-.14,1.67-1.36,1.33-.45-4.05-2-8-1.35-12.15C104.89,138.51,105.33,138.47,105.78,139.13Z"/><path class="cls-113" d="M105.82,151.3l1.36-1.33c.95,2.6,1.89,5.21,3.41,9.37C106.84,156.54,107.22,153.42,105.82,151.3Z"/><path class="cls-114" d="M71.27,216.59A22,22,0,0,1,71,205.73C72.14,209.76,72,212.44,71.27,216.59Z"/><path class="cls-115" d="M105.78,139.13c-.44,0-.88,0-1.31,0a7.51,7.51,0,0,1,1.76-5.78C108.09,135.61,106.44,137.34,105.78,139.13Z"/><path class="cls-116" d="M142.64,45.49c-.88-.12-3.12,1.6-2.17-1.05.66-1.83,2.62-3.2,4.12-4.9,1.32,3-1.79,4-2.07,6.05Z"/><path class="cls-117" d="M167,40c-.34-2.57,1.34-3.82,4.3-6.21-1.37,3.45-.9,6.14-4.41,6.09Z"/><path class="cls-118" d="M104.86,198.05l-1.79-.44c3.51-2.9,5.4,1,7.9,2.35Z"/><path class="cls-119" d="M128.17,192.61c0,.12.07.24.1.36l-1.56,0c-1.49-.49-3.46-1.17-2.71-1.36S126.71,192.33,128.17,192.61Z"/><path class="cls-120" d="M266,266.12c1.75-4.24,5.22-7.75,4.53-12.9C272.22,258.64,271.37,263.19,266,266.12Z"/><path class="cls-121" d="M262,258.63c.38-3.22.34-6.53,2.26-10.42.76,4.48.77,7.79-2.26,10.43Z"/><path class="cls-122" d="M275.87,263.71v-8.18C277.55,258.18,277.55,258.18,275.87,263.71Z"/><path class="cls-123" d="M262,258.64c-.06,1.7.23,3.56-2,4.69-.62-2.32.64-3.52,2-4.7Z"/><path class="cls-124" d="M135.46,227c-2.35-.79-3.65-2.86-4.55-5.36Z"/><path class="cls-125" d="M129.59,218.21c-.58.29-1.1.68-1.22.59a5.13,5.13,0,0,1-1.71-1.8c-.29-.75.43-1.16,1.1-.68A13.76,13.76,0,0,1,129.59,218.21Z"/><path class="cls-118" d="M108.81,192.87l-1.79-.44c3.51-2.9,5.4,1,7.9,2.35Z"/><path class="cls-118" d="M112.32,189.22l-2.06-.56c3.91-3,6.22,1.33,9.14,2.88Z"/><path class="cls-119" d="M124.67,197.47a1.83,1.83,0,0,1,.08.25l-1.43-.32c-1.35-.63-3.16-1.48-2.46-1.45S123.33,197,124.67,197.47Z"/><path class="cls-105" d="M172.84,84.57c1.44-3.92-.39-11.09-2.34-17.35,5.59,12.91,7.69,13.15,6.78,15.65C173.94,84.57,173.16,83.35,172.84,84.57Z"/></g></g></svg>