<svg xmlns="http://www.w3.org/2000/svg" xmlns:xlink="http://www.w3.org/1999/xlink" viewBox="0 0 263.1 509.55"><defs><style>.cls-1{fill:#ffa08d;}.cls-2{fill:#282828;}.cls-3{fill:#ffc5b3;}.cls-4{fill:#0f0f0f;}.cls-5{fill:#fff;}.cls-6{fill:#0058d8;}.cls-7{fill:#0092ff;}.cls-8{fill:#0074ff;}.cls-9{fill:#39afc4;}.cls-10,.cls-9{opacity:0.5;}.cls-10{fill:#caffff;}.cls-11{opacity:0.46;}</style></defs><g id="Calque_2" data-name="Calque 2"><g id="Calque_1-2" data-name="Calque 1"><path class="cls-1" d="M154.46,252.37,114.1,213.51s-9.37,22.56-12.7,39.34-2.59,46.85.32,66.61c.8,5.42-1.94,18.6-2.87,32.51-1.32,19.8-1.27,41.35-1.91,46.54-1.39,11.23-6.46,15.35-8.63,17.42A117.05,117.05,0,0,1,70.56,429.4c-6.2,3.61-4.48,14.74-1.7,20.27s11.15-.84,14.67-2.14c6.23-2.3,7-7.91,14-11.86,3.37-1.9,13.31-6.56,15.67-9.21a9.72,9.72,0,0,0,1.88-10.53c-2.54-5.63,1.06-12.81,5.2-25,6.27-18.54,12.2-41.3,12.54-43.71,2-14.27-3.3-24.8-2.85-31.71S154.46,252.37,154.46,252.37Z"/><path class="cls-1" d="M101.16,74.56C96.88,71.5,93.51,65,83.47,58.63,71.38,51,57.66,47.79,48.57,42.05,46.25,40.58,38,35.18,36.3,35.23c-2.67.09-7.47,3.28-6.14,6.69,1.13,2.88,8,5.89,10,7.68,5.73,5.25,19.66,20.25,33.3,28.68C82,83.6,86.62,91.56,91.36,95.7,89,78.49,101.16,74.56,101.16,74.56Z"/><path class="cls-2" d="M139.76,92.25c-12.66-8-16.33-7.27-23.59-9.68-4.7-1.56-8.89-5.74-13.81-9.25,0,0-14.58,2.79-11.31,23.91,4.25,3.71,8.5,7.24,12.55,10.42,1.81,1.42,3.58,4.09,5.3,5.35,1.48,1.09,3.83.67,5.17,1.68,6,4.54,9.73,9.52,12.91,9.91C137.78,125.89,170.48,111.76,139.76,92.25Z"/><path class="cls-3" d="M124.22,238.16c3.69,5.07,7.75,9.54,11.45,11.09,7.16,3,23.47-3.52,32.77-7.78C155,243.43,137.42,244.18,124.22,238.16Z"/><path class="cls-3" d="M237.77,143.89A189.12,189.12,0,0,1,220,133h0a32,32,0,0,0-5.95,17.7,93,93,0,0,0,.54,11,47.15,47.15,0,0,0,11.61,5.66A102.47,102.47,0,0,0,237.77,143.89Z"/><path class="cls-1" d="M222.63,134.77,220,133s-5.3,10.39-2.61,13.76,5.23,6.42,5.23,6.42A50.33,50.33,0,0,1,222.63,134.77Z"/><path class="cls-4" d="M112.27,218.11l-3.37,9.07S116,265,136.58,271.65C144.68,266.17,158.24,256,167,253s12.47,1,14.87-1.89c-2.39-8.45-8.19-21.4-8.19-21.4s-19.74,7-41.34,1.2C116,226.5,112.27,218.11,112.27,218.11Z"/><path class="cls-2" d="M215.43,150.17A28.87,28.87,0,0,1,221.55,133s-5.88-3.11-7.23-4.18c-14.45-11.45-27.76-12.21-36.33-11.43-4.91.45-12.62-7.92-12.62-7.92l-33-7.17S118.48,119.1,113,133c-3.18,8-6.95,15.22-4,31,2.5,13.53,2.93,27.21,3.71,36,.43,5-1.74,4.12-2.24,6.21-.46,1.93,2.17,5.86,2.11,7.28-.11,3-3.61,9.69-3.61,9.69s1.16,9.41,15.32,15c30.24,11.85,53.05,0,53.05,0s-.92-5.53-1.76-10.18c-.69-3.83.43-2.08-.53-7.88-.28-1.67-3-2,.05-5,4-3.94,6.85-12.91,10.49-27.5,2.81-11.29,4.32-25.1,10.87-30.12,2.8-2.14,2.8-2.14,8.55.72,2,1,10.23,6,10.49,6.22C215.06,160.7,215.35,153.6,215.43,150.17Z"/><path class="cls-4" d="M123.54,114.13s-3-4.71-5.88-3.76c-4.58,1.54-8.76,2.63-8.76,2.63a4.9,4.9,0,0,0,5.17,1.68c3.42,2.8,5.86,5,5.86,5Z"/><path class="cls-1" d="M160.66,96.16l-25.5,5.52a39.39,39.39,0,0,1-3.55,16.75c1.65,2.42,7.13,8.79,16.71,5a36.52,36.52,0,0,0,17.05-13.93Z"/><path class="cls-3" d="M166,62c-6.66-7.39-29.52-13-39.21,5.07-2.14,4-2.06,11.71-2.3,16.12-.89,16.57,9.77,33.49,17.94,31.3,5.79-1.56,18.48-8.29,23.31-18.38C171.16,84.77,174.67,71.62,166,62Z"/><path class="cls-4" d="M126.78,67.07s2.58,8.11,10.67,9.74c8.6,1.73,20.06-3.78,20.06-3.78s4.17,6.36,3.6,9.43c5.08-1.52,7.6,5.76,7.6,5.76s5.11-7.23,2.45-18.89c-1-4.56-3.48-10.95-12.73-14.49-3.09-1.18-12.84-2.49-16.64-1.61-2.94-4.15-9.32-4.08-9.32-4.08a12.49,12.49,0,0,1-.22,7.6c-1.9-.89-6.13-1-8.13,1.31C125.61,60.48,125.42,62.41,126.78,67.07Z"/><path class="cls-4" d="M183.62,159.6c-1.3-3.14,2.22-13.86,8.61-12.77a30.76,30.76,0,0,1,10.52,3.71S188.14,156.16,183.62,159.6Z"/><path class="cls-3" d="M203.59,466.19a81.28,81.28,0,0,1-1.08-16.86c.82-18.06.18-47.81-.37-56.88-1.59-26.45-9.24-34.71-9.67-41.83s-4.78-45-5.37-60.49c-.89-22.94.34-30.22-5.22-39-9.56-15.17-48.57,0-45.3,20.55s25.71,70.32,27.35,78.87,2,28.41,2.81,34.28c2.63,19,18.79,59.09,19.29,74.11.31,9.56-8.62,24.95-11.71,32.67s-4.48,12.65-.91,15.38,10.82,4,19.05.24,7.68-8.29,9.46-15.59A73.68,73.68,0,0,0,203.59,466.19Z"/><path class="cls-4" d="M177.27,238.16c-9.87,4.76-21.9,7.84-32.52,6.79-23.27-2.3-34.35-11.49-35.2-19.53-2.32,6.58-8.85,21.29-11,29.47-3.5,13.24-3.34,59.79-3.34,59.79s4.62,6.06,17,8.92c12.18,2.82,18.91.08,24.14-4.78,1.36-6.18,2.69-13.83,4.69-22.59,1.73,5,3.31,9.55,4.32,12.35,3.34,9.29,8.59,24.12,8.59,24.12s7.14,9.88,22,5.34,20.4-11.57,20.4-11.57S191.67,255.65,177.27,238.16Z"/><path class="cls-5" d="M168.44,241.47s1.78,7.71,7.55,26c5.15,16.37,12.33,65.25,12.33,65.25l3.67-2.37s-7.4-49.81-11.54-64.16-8.32-25.83-8.32-25.83Z"/><path class="cls-5" d="M111.41,228.82s-4.79,8.64-9,24.5c-4.7,17.47-4.71,63.55-4.71,63.55a17.38,17.38,0,0,0,4.07,2.59c-.48-15.14.3-45.6,4.27-63.27,4-17.9,8.34-24,8.34-24Z"/><path class="cls-6" d="M263.1,80c0-9.07-5.52-19.62-12.33-23.55-3-1.72-5.67-1.81-7.8-.69l0-.08-13.06,7.6,16.2,34,13-7.46,0,0C261.52,88.15,263.1,84.77,263.1,80Z"/><path class="cls-7" d="M225.61,73.13c0,9.08,5.52,19.62,12.33,23.55s12.32-.24,12.32-9.32-5.51-19.61-12.32-23.55S225.61,64.06,225.61,73.13Z"/><path class="cls-8" d="M228.19,76.37c0,6.3,3.83,13.62,8.55,16.34s8.56-.16,8.56-6.46-3.83-13.62-8.56-16.35S228.19,70.07,228.19,76.37Z"/><path class="cls-7" d="M237.94,83.55a6.28,6.28,0,0,0-2.62-5,1.68,1.68,0,0,0-1.53-.15l0-.05-.26.14,0,0-27,15.22L210,101,237,85.66v0A2.27,2.27,0,0,0,237.94,83.55Z"/><path class="cls-6" d="M221.55,103.26c0-9.08-5.52-19.62-12.32-23.55-3-1.72-5.68-1.81-7.81-.69l0-.08-13.07,7.6,16.21,34,13-7.46,0,0C220,111.45,221.55,108.07,221.55,103.26Z"/><path class="cls-8" d="M184.07,96.43c0,9.08,5.52,19.62,12.32,23.55s12.33-.24,12.33-9.32S203.2,91,196.39,87.11,184.07,87.36,184.07,96.43Z"/><path class="cls-7" d="M185.52,99.48c0,6.5,3.95,14.06,8.83,16.87s8.83-.17,8.83-6.67-4-14.06-8.83-16.88S185.52,93,185.52,99.48Z"/><path class="cls-6" d="M79,25C79,15.9,73.51,5.36,66.71,1.43,63.73-.29,61-.38,58.9.74l0-.08L45.8,8.26,62,42.25l13-7.46,0,0C77.45,33.17,79,29.79,79,25Z"/><path class="cls-7" d="M41.55,18.15c0,9.08,5.52,19.62,12.32,23.55s12.33-.24,12.33-9.32S60.68,12.76,53.87,8.83,41.55,9.07,41.55,18.15Z"/><path class="cls-8" d="M44.12,21.39c0,6.3,3.83,13.62,8.56,16.34s8.55-.16,8.55-6.46S57.4,17.65,52.68,14.92,44.12,15.09,44.12,21.39Z"/><path class="cls-7" d="M53.87,28.57a6.28,6.28,0,0,0-2.61-5,1.65,1.65,0,0,0-1.53-.15l0-.05-.26.14,0,0L22.45,38.76,25.88,46,53,30.67v0A2.25,2.25,0,0,0,53.87,28.57Z"/><path class="cls-6" d="M37.48,48.28c0-9.08-5.51-19.62-12.32-23.55-3-1.72-5.67-1.81-7.8-.7l0-.07L4.26,31.56l16.2,34,13-7.46,0-.05C35.91,56.46,37.48,53.09,37.48,48.28Z"/><path class="cls-8" d="M0,41.45C0,50.53,5.52,61.07,12.32,65s12.33-.24,12.33-9.32S19.13,36.06,12.32,32.13,0,32.37,0,41.45Z"/><path class="cls-7" d="M1.45,44.5c0,6.5,4,14.06,8.83,16.87s8.83-.17,8.83-6.68-3.95-14.06-8.83-16.87S1.45,38,1.45,44.5Z"/><path class="cls-3" d="M220,164.85c2.73,1.53,6.76,4.39,9.86,5.28,3.43,1,5.9,1.1,7.9-1.07,1.82-2,7.64-10.15,8.71-24,1.14-14.61-2.65-38.1-2.27-45.06.42-7.66-16.41-2.18-16.2,2.32S222.23,133,221,144C220.2,151.77,218.78,160.32,220,164.85Z"/><path class="cls-3" d="M234.71,79.53c-3.33-2.86-7.42-3.4-9.48-1.91-4.06-.71-6.56.66-6.93,2.63-3.49,1.44-4.24,3.57-4.24,3.57a47.79,47.79,0,0,1,3.91,5.8c1.44-.76,4,1.31,3,5.11,1.42,1.74,6.64,4.76,7,7.56.54,3.88,16.2.75,16.2-3.39C244.21,95.19,239.89,84,234.71,79.53Z"/><path class="cls-1" d="M35.26,28.38a18.73,18.73,0,0,0,3.91-1.44c1.6-.84,3.45-.08,4.95,2s2.16,4.8,2.78,7.82a27.09,27.09,0,0,0,1.67,5.29s-6,3.68-7,2.37-2.71-6.48-1.34-9a9,9,0,0,0,1.34-3.53,21.33,21.33,0,0,1-1.9-2.18A3.34,3.34,0,0,1,35.26,28.38Z"/><path class="cls-1" d="M40,28.42a12,12,0,0,0-2.53-2.26,2.18,2.18,0,0,0-2.58.44s-.63-.49-1.9.44a1.28,1.28,0,0,0-.49,1,1.37,1.37,0,0,0-1.76.21,8.07,8.07,0,0,0-.67.72,33.75,33.75,0,0,1,4.3,6.65c.88.56,1.94,1,2.6.49,1-.72-.63-2.55-.63-2.55s1.88,1.68,2.89,1.08-.67-2.68-.67-2.68,2.49,1.36,3.28.64S40,28.42,40,28.42Z"/><path class="cls-1" d="M188.42,372.37s-4.13,3.83-4,9.08a24.64,24.64,0,0,0,2,9.09A17.26,17.26,0,0,0,188.42,372.37Z"/><path class="cls-4" d="M133.45,113.48l-1.84,5s-.57,6.76,10.43,8,16-3.35,20.32-7.65,6.08-6.33,6.08-6.33l-3.71-4.75s-3.64,6.68-10.27,9.46c-6,2.51-11.67,2.95-16,1.62A7.23,7.23,0,0,1,133.45,113.48Z"/><path class="cls-4" d="M170.22,224.88a82.26,82.26,0,0,1-17.63,2.39,90.11,90.11,0,0,1-14.85-1.2,26.35,26.35,0,0,0,13.62,4.78C159,231.09,168.27,227.51,170.22,224.88Z"/><path class="cls-4" d="M117.42,204.56s3.82,7.62,12,8.95,11.24,0,11.24,0a67.8,67.8,0,0,0-11.6-4.18A46.17,46.17,0,0,1,117.42,204.56Z"/><path class="cls-4" d="M117.42,216.7c.48-.19,4.06,8.91,7.89,11.17s9.56,3,9.56,3a46.33,46.33,0,0,0-7.41-7.08C123.39,220.81,117.42,216.7,117.42,216.7Z"/><path class="cls-5" d="M128.61,130.59c-1.7,3-4.18,7-5.07,10.75L146,149.71a56.71,56.71,0,0,1,4.19-11Z"/><path class="cls-9" d="M231.45,175.51c-10.49-7-19-10.25-37.18-15.91-2,2.41-3,3.72-4.39,8.25-6.15,19.83-33,16.53-50.3,10.76-17-5.69-34.83-12.78-27.84-43-.52.1-8.66-2.09-25.4,1.58-5.31,1.16-13.15,3-17.21,8.6-1.82,2.51-1.65,5.75-2,8.75-.87,7.41-3.1,9.75-8.76,14.92-5.5,5-6,14.58,1.44,19.36,3.1,2,10,5.5,14.82,10.28,4.35,4.36,5,5.66,10.07,9.19,11.89,8.29,27.24,8.46,41.14,10.37,15.4,2.12,19.55,9.25,44.38,9.25,14,0,31.05-.12,43.83-6.58,5.64-2.85,8-6.77,11.56-12,4.26-6.21,12.75-9.6,14.56-14.69C243.42,185.48,237.05,179.28,231.45,175.51Z"/><path class="cls-9" d="M87,129.29c-8.51-2-31.51.21-32.66,12.37-.45,4.84,4.31,5.53-1.17,10.79-1.87,1.8-4.81,2.35-6.74,4.25C44,159,41.76,162.82,44.9,167.36c-1-7.1,7.37-8.93,8.8-9.82.89-.55,2-.78,2.85-1.35a9.81,9.81,0,0,0,4-4.07c1.17-2.44.41-5,.65-7.52C62,135.61,66.5,132.24,87,129.29Z"/><path class="cls-9" d="M234.38,209.7c-7.2,9-10.82,18.07-22.3,21.53-10.65,3.21-28.8,4.4-38.37,2,4.79,5.74,26.42,11.61,44.48,2.22,4.11-2.14,9-1.83,11.82-5.67C234,224.46,231.21,217.6,234.38,209.7Z"/><path class="cls-9" d="M70.32,203.55A42.32,42.32,0,0,0,64,201.61c-6.05-1.67-6.37-3.43-11.69-9.24,3,4.92,0,11,6.66,13.7,2.74,1.1,5.45.68,8.3.78,7.09.26,9.84,3.91,9.84,3.91h0C77.06,208.06,75.27,205.83,70.32,203.55Z"/><path class="cls-10" d="M87.11,167.47c1.8-8.29-11.53-14.3-1.12-23.85-4,.67-8.49,2.14-9.94,6.58-1.18,3.61,1.46,8.86,2,14s-3.73,6.7-5.26,8.49c-2.72,3.19-5.17,7.57-3.36,11.84,2.77,6.59,12.37,7.42,17,12.11.81-2.17-9.13-8.84-9.38-14.75C76.83,176.21,86.27,171.37,87.11,167.47Z"/><path class="cls-10" d="M215.13,179.55c-2.81,9.71-8,9.18-11.6,10.32-6.39,2-8.93,3.63-10.37,5.3-2.93,3.43-4.11,8-7.32,11.35s-7.2,6.32-11.75,7.1c-7.31,1.27-15.1-1-21.51-2.51,19.46,12.67,38.67,3.08,43.39-2.84a45.83,45.83,0,0,0,5.22-8.58c3.11-5.65,7.84-6.21,12.16-10C216.72,186.72,217,183.47,215.13,179.55Z"/><image class="cls-11" width="200" height="200" transform="matrix(0.06, 0.01, -0.02, 0.07, 161.55, 148.01)" xlink:href="D:%5CUSG%5Ctemplate%20site%20web%5Cusg%5Cimages%5CLogo200-200.png"/></g></g></svg>