<svg xmlns="http://www.w3.org/2000/svg" viewBox="0 0 492.79 535.04"><defs><style>.cls-1{fill:#bd0000;}.cls-1,.cls-10,.cls-11,.cls-12,.cls-13,.cls-14,.cls-15,.cls-16,.cls-17,.cls-18,.cls-2,.cls-3,.cls-4,.cls-5,.cls-6,.cls-7,.cls-8,.cls-9{fill-rule:evenodd;}.cls-2{fill:#a30000;}.cls-3{fill:#f0c17d;}.cls-4{fill:#e0a95c;}.cls-5{fill:#ffdba7;}.cls-6{fill:#5c2104;}.cls-7{fill:#d8ebed;}.cls-8{fill:#072c5e;}.cls-9{fill:#05244d;}.cls-10{fill:#abc1c4;}.cls-11{fill:#052145;}.cls-12{fill:#0f4283;}.cls-13{fill:#057d8d;}.cls-14{fill:#015a6a;}.cls-15{fill:#752a05;}.cls-16{fill:#0a3873;}.cls-17{fill:#bfd6d9;}.cls-18{fill:#d10000;}</style></defs><g id="Calque_2" data-name="Calque 2"><g id="Calque_1-2" data-name="Calque 1"><path class="cls-1" d="M18.72,157.16c86.3,70.18,182,50,249.21,35.78,37.72-8,67.49-14.26,87.75-3.42l-13.95,26.17C331,210,305.86,215.27,274,222c-72.86,15.38-176.66,37.3-274-41.83l19.7-2.38Z"/><path class="cls-2" d="M326.86,213.27c-13,.32-31.42,4.2-52.89,8.74-72.86,15.38-176.66,37.3-274-41.83,33.86,6.43,94,82.67,274.5,32.37,16.43-3.46,31.07-6.56,42.86-8,4.35-8.33,4.67-13.47,5.47-20.54a13.24,13.24,0,0,1,3.59-.22C369.38,190.84,358,212.53,326.86,213.27Z"/><path class="cls-3" d="M245,365c-13.12,7.79-30.54,6.63-44.88,16.6-17.79,12.35-35.17,54.21-63.49,67.51-4.45,2.1-6.44,9.07-11,10.91l16.13,22.93c33.37-31.8,53.18-42.48,91.75-70.4,19.54-14.14,32.77-17.64,35.67-25.61,1.66-4.57-.85-11.34-8.52-21.16Z"/><path class="cls-3" d="M362.61,253.31c-25.79-25.05-30.5-21.44-44.8-13.95-23.55,12.32-28.35,35.67-30.93,58-2.37,7.85-16.21,18.21-25.59,32.11-10.76,15.95-16.27,35.67-25.63,40.7L254.37,396c9.3-3.94,10.59-4.38,14.68-8,2.16-1.93,3.8-4.39,5.26-5.35,28.54-19.12,55.15-36.48,69.56-72.08Z"/><path class="cls-4" d="M139.78,480.18l1.91,2.73c33.37-31.8,53.18-42.48,91.75-70.4,18-13,30.61-17,34.77-23.77l.84-.74c2.16-1.93,3.8-4.39,5.26-5.35,28.54-19.12,55.15-36.48,69.56-72.08l17.24-52.69c-15.1,13.8-27.61,25-28.3,25C322.17,310.44,300,349,270.14,373.81c-6.64,10.73-10.89,12-20.42,17.41-41.16,23.17-73.12,51.68-106.47,82.14A40.1,40.1,0,0,0,139.78,480.18Z"/><path class="cls-3" d="M345.91,141.52c-18.43,11.94-38.12,22.07-60,31.74l-23.1-6.43c1.87-4.17,2.54-6.16,6.17-9.14,9.23-7.58,30.85-26.19,44.58-36.78C336.71,103,344.61,106,351,110.61,358.22,115.82,357.42,134.06,345.91,141.52Z"/><path class="cls-3" d="M324.91,219.78c-11.27-10.19-20-38.89-43-58.14-6.69-5.6-6.31-9-9.74-6.56-5.28,3.75-9,7.2-10.05,12A17.46,17.46,0,0,0,265,180.79c1.08,1.64,6.1,7.86,7.88,9.3,15.83,12.68,35.3,29.53,40.53,36.95Z"/><polygon class="cls-3" points="339.27 243.5 336.58 245.58 331.68 244.49 329.43 236.58 335.78 238 339.27 243.5"/><path class="cls-3" d="M337.34,228.39a47.84,47.84,0,0,1,7.9,8.48c1.16,1.78,1.26,3.7,2,6.06,1.45,4.93.08,3.34-6.08,3.71l-.58-1.28c-1.32-1-2.38-2.52-4-3.74l-5.4-4.25-13.94-16.84,4.36-3.94C327.93,221.18,332.18,224.14,337.34,228.39Z"/><path class="cls-3" d="M335.14,232.54l7.78,14.22-14.7-.06c-4.16,0-6.38-2.35-9.78-6.7-4.82-6.14-3.88-10.42-5.66-15.29l6.23-6.33S335,232.77,335.14,232.54Z"/><path class="cls-4" d="M345.91,141.52c-18.43,11.94-38.12,22.07-60,31.74l-5.14-1.43c-.66-1-1.33-2.11-2-3.21,30.91-16.42,28.36-14.89,52.64-39.17l24.25-6.66C355.51,129.61,352.43,137.3,345.91,141.52Z"/><path class="cls-4" d="M324.91,219.78c-10.64-9.62-19-35.73-39.28-54.82l-6.88,3.66C292.06,190.81,306,200.07,320,222.86Z"/><polygon class="cls-4" points="339.26 243.5 336.57 245.58 331.68 244.49 329.43 236.58 335.78 238 339.26 243.5"/><path class="cls-4" d="M337.34,228.39a47.38,47.38,0,0,1,7.89,8.48c1.17,1.78,1.27,3.7,2,6.06,1.46,4.93.08,3.34-6.08,3.71l-.57-1.28c-1.33-1-2.39-2.52-4-3.74l-5.4-4.25-9-10.89c-1.36-2.37-2.73-4.59-4.09-6.7l3.52-3.19C327.93,221.18,332.18,224.14,337.34,228.39Z"/><path class="cls-4" d="M335.15,232.54l7.77,14.21-14.7-.05c-3.82,0-6-2-9-5.68l7.83-5.38a157.94,157.94,0,0,0-9.17-16.13l1.11-1.13S335,232.77,335.15,232.54Z"/><path class="cls-5" d="M373.48,357.43c-14.54,17-30.31,46.94-45.24,51.94l5.27,27.49,14.11-8.12c24.67-22.28,75-54.87,101.71-76.18,18.48-14.72,10.11-31.64-7.1-42.87-9.05-5.31-15.58,20.13-29,26.1C396.77,343.11,380.53,349.19,373.48,357.43Z"/><path class="cls-6" d="M310.56,40.91c1.49,37.3-3.67,45.64-30.65,39.5,20.76,24.16,50.31,29,67.07-4.19.47-.94,14.63-33.47,14.5-34.77s3-14.11,2.78-15.26C363.1,19,362.2,13.48,357.64,7.92c-9.59-11.7-31.58-10.2-41.71,2.95C309.25,19.56,310.15,30.56,310.56,40.91Z"/><path class="cls-5" d="M409.94,338.29c18,3.7,56.69-2.59,38.26-23.41C436.48,301.64,397,275.4,368.11,269c-3-8.75-3.92-9-3.24-20.94L316,235.38c-9.92,17.57-19.5,17.16-22.88,40.66C289.94,298,298,308,330,316.62c9.7,2.64,17.35,9.13,35.16,14.23C379.15,334.85,400.49,334.92,409.94,338.29Z"/><path class="cls-7" d="M111.31,486.44c-2-7.94-11.17-29.6-5.08-37.95,1.21-1.65,4.61-.82,10-.77,9.78-4.91,11.88-2.18,23.46-.58C135.74,456,134.41,464,141.84,471c4.64,4.32,4.33,3.06,4.35,6.36.05,7.75-7.3,19.63-6.3,39.26.32,6.37,2,10.64.76,14.1-.92,2.63-5.45,5.3-10.61,4.05-7.12-1.73-11.68-10.08-14.59-19.52C112.24,504.79,111.88,493.16,111.31,486.44Z"/><path class="cls-8" d="M111.31,486.44c-2-7.94-11.17-29.6-5.08-37.95,1.21-1.65,4.61-.82,10-.77h0c-3.67,9.56,0,21.28,2.81,29,1.33,3.75.8,8,.83,12,.15,19.36,5,38.26,18.26,44.79a10.59,10.59,0,0,1-8.09,1.21c-7.12-1.73-11.68-10.08-14.59-19.52C112.24,504.79,111.88,493.16,111.31,486.44Z"/><path class="cls-9" d="M139.46,510.78c-1-5.6,2.8-32.71,4.44-37.73,1.9-5.76,9.25-2.21,8.12,2.64-.61,2.62-5.77,16.87-8.56,25.11-1.74,5.11-3.2,9.75-3.69,11.05C139.64,512.19,139.62,511.64,139.46,510.78Z"/><path class="cls-10" d="M143.87,472.79c2.51,2.19,2.3,1.82,2.32,4.53.05,7.75-7.3,19.62-6.3,39.26.32,6.37,2,10.64.76,14.1-.92,2.62-5.45,5.3-10.61,4.05-3.26-.8-6-3-8.26-6,15.67-2.89,8.9-35.85,21.47-55.35Z"/><path class="cls-9" d="M128.29,524.51a25.21,25.21,0,0,0,9.84,9,10.59,10.59,0,0,1-8.09,1.21c-3.26-.8-6-3-8.26-6A10.09,10.09,0,0,0,128.29,524.51Z"/><path class="cls-8" d="M362.61,253.31c-25.79-25.05-30.5-21.44-44.8-13.95-23.55,12.32-28.35,35.67-30.93,58a16,16,0,0,1-1.83,3.55c11.36,18.63,43,21.71,53.74,19,1.83-3.45,3.53-5.46,5.08-9.3Z"/><path class="cls-11" d="M315.09,319.17c12.13,2.45,19.76,1.69,23.7.7,1.83-3.45,3.53-5.46,5.08-9.3l17.24-52.69c-15.1,13.8-27.61,25-28.3,25C327.93,298.44,318.88,309.45,315.09,319.17Z"/><path class="cls-12" d="M371.3,269.3c-1.65-.47-1.49-1-3.1-1.34-3-8.75-4-8-3.33-19.95L316,235.38c-9.92,17.57-19.5,17.17-22.88,40.66-3.16,22,4.72,32.45,36.7,41.12a47.82,47.82,0,0,1,6.85,2.51C345.15,320.89,369.76,292.87,371.3,269.3Z"/><path class="cls-3" d="M385.51,85.73C360.9,96.42,373.58,138,374.28,140.62l-34.43-34.91c6-12.88,10.15-23,10.69-39.34Z"/><path class="cls-4" d="M385.51,85.73c-14.58,6.33-16.07,23.49-14.72,37-.67,1.55-13-42.46-14.23-48,6-12.89-6.56,8-6-8.35Z"/><path class="cls-13" d="M363.36,109.58a24.24,24.24,0,0,0-35.78,3.93,30.42,30.42,0,0,0-5.25,11.35c-8.58,41.11,11.6,53.22-.24,91.36-4.19,16.11-18.76,23.68,16.68,30.71l4.25,1.16a24.32,24.32,0,0,0,30-17.42,276.86,276.86,0,0,0,7.44-41.9,24.27,24.27,0,0,1,7.79-15.54,18.79,18.79,0,0,0,5.26-6.88,24.06,24.06,0,0,0-2.71-23.78c-5.53-7.63-12.27-16.88-14.84-20.56a24.69,24.69,0,0,0-2.52-3.06C370.5,116,367,112.83,363.36,109.58Z"/><path class="cls-14" d="M364.55,253.93l1.83.5c6.85-23.81,12.19-42,14.71-73.16-25.76-21.39-52.47-66.27-49.34-35.9C335.3,179.75,364.73,197.78,364.55,253.93Z"/><path class="cls-5" d="M364.29,127.86c13.58,17.25,26.32,33.53,37,54.77l-8.22,22.53a5.93,5.93,0,0,1-2.93-1.61c-5-5.42-32.12-25.87-45.68-40.47-19.92-21.45-14.79-32.47-10.83-39.22C338.17,116.16,355.81,117.08,364.29,127.86Z"/><path class="cls-5" d="M465.05,154.77c-12.67,8.39-49.26,14.77-68.82,29-10.28,7.47-10.18,17.64-6.12,19.87,5.3,2.9,11.07,4.66,17.58,2.4,15.25-5.32,45.1-27.09,63-39.34Z"/><polygon class="cls-5" points="486.93 149.64 488.27 152.77 485.99 157.24 477.77 157.44 480.73 151.66 486.93 149.64"/><path class="cls-5" d="M471.81,147.76c3-2.2,4.8-4.7,7.34-5.56,2-.68,6.73-.29,9.19-.38,5.15-.18,5.81,2.86,2.08,6.81l-1.38.24c-1.32,1-3,1.68-4.6,2.89s-3.65,2.79-5.47,4.18l-19.77,9.31-2.73-5.2C462.48,155.08,466.41,151.69,471.81,147.76Z"/><path class="cls-5" d="M475.28,150.91l15.7-4s.89,4.83-2.14,7.13c1.88,2.69-2.17,5.5-1.71,6.56,0,2.91-1,3.22-1.7,4.06-2,2.06-2,2.06-7.08,4.28-7.15,3.13-11.07,1.16-16.23,1.67L457.55,163S475.47,151.08,475.28,150.91Z"/><path class="cls-3" d="M395.09,199.66l-2,5.5a5.93,5.93,0,0,1-2.93-1.61c-5-5.42-32.12-25.87-45.68-40.47-19.36-20.84-15.07-31.84-11.17-38.63,6,28.84,30.51,49.54,57.56,71.26A20.33,20.33,0,0,0,395.09,199.66Z"/><path class="cls-3" d="M388.34,193.68c-1.62,4.62-.6,8.64,1.77,9.95,5.3,2.9,11.07,4.66,17.58,2.4,15.25-5.32,45.1-27.09,63-39.34l-.34-.72a38.24,38.24,0,0,1-6.32-.05c-12.08,7.72-35.19,21-53,32.6-4.92,5-13.46,5.35-20.09-2.81Z"/><path class="cls-3" d="M487.13,161.63c-1.14,3.67-3.93,5.19-8.78,7.32-7.15,3.13-11.06,1.16-16.23,1.67l-1.53-2.56c1.21-.75,2.35-1.47,3.4-2.14C472.63,166.71,479.66,164.46,487.13,161.63Z"/><path class="cls-5" d="M385,91c3.71,1.91,6.78,2.89,8.47,1.16,2.17-2.2,2.33-5.66,2.6-6.7.15-.57.93-.85,2.17-1.87,2.52-2.43-.89-3.92-2.83-5.24,3.76.81,5.58,1.37,6.46-2l-1-1.1a7.08,7.08,0,0,1,.87-4c.94-1.82,5.15-1.82,5.13-5.49a21,21,0,0,1-5-11c-.47-4.55,3-7,1.8-15.77A22.85,22.85,0,0,0,392,22c-11.43-6.42-31.07-9.37-39.73-2.1-23.84,20,5.3,55,5.76,55.44C364.63,81.8,375.18,86,385,91Z"/><path class="cls-15" d="M400.7,30.06c-2.65-9-34.12-27.66-53-8.7-20.79,20.93-12.53,47.2,9.94,55,.68,3.75,4.47,7.31,7.12,8.55-2.72-2.08-5.06-12.23-5.05-15.81-2.26-2.48,1.24-4.55.46-8.55-.49-2.53-5.09-5.86-3.88-11.17.9-3.93,6.78-12.3,10.44-4.77a19.67,19.67,0,0,1,1.36,11.06.87.87,0,0,0,.22.18c5,2.44,18.08-6.48,26.28-11.14C404.62,39,410.14,38.83,400.7,30.06Z"/><path class="cls-3" d="M373.48,357.43c-14.54,17-30.31,46.94-45.24,51.94l.71,3.75a80.46,80.46,0,0,1,12.32-4.84c11.83-10.86,20.82-27.57,40.19-45.09,10.89-9.85,23.29-16.37,45.13-30-28.46-2.37-51.42-7.54-76.18-22.63-21.92,1.56-52.39-13.67-57-36.54-.11.65-.21,1.31-.31,2C289.94,298,298,308,330,316.62c9.7,2.64,17.35,9.13,35.16,14.23,13.35,3.82,33.38,4.06,43.4,7C393.77,344.29,379.87,350,373.48,357.43Z"/><path class="cls-16" d="M293.42,274c-.11.65-.21,1.31-.31,2-3.16,22,4.72,32.45,36.7,41.12a47.13,47.13,0,0,1,6.85,2.52c3.14.44,8.47-3.1,14-8.93l-.28-.17C328.49,312.14,298,296.91,293.42,274Z"/><path class="cls-12" d="M361.53,462.35c-3.26-4.67-11-30.92-11.63-36.17-.66-6,7.5-5.85,8.49-1,.53,2.63,1.76,17.75,2.63,26.4.55,5.37,1.15,10.2,1.23,11.58C362.27,463.55,362,463.07,361.53,462.35Z"/><path class="cls-7" d="M325.81,451.9c-5.14-6.39-22.45-22.29-20.38-32.41.41-2,3.85-2.67,8.75-4.85,6.86-8.52,9.9-6.91,21.11-10.27.08,9.65,2.23,17.54,11.87,20.76,6,2,5.21,1,6.6,4,3.26,7,1.51,20.88,10.56,38.32,2.95,5.67,6.22,8.87,6.55,12.52.26,2.77-2.75,7.08-8,8.08-7.2,1.39-14.82-4.31-21.38-11.69C334.28,468.2,329.12,457.77,325.81,451.9Z"/><path class="cls-12" d="M325.81,451.9c-5.14-6.39-22.45-22.29-20.38-32.41.41-2,3.85-2.67,8.75-4.85l0,0c.62,10.22,8.88,19.34,14.61,25.25,2.77,2.86,4.07,7,5.74,10.56,8.17,17.54,20.42,32.72,35.21,33.15a10.56,10.56,0,0,1-6.86,4.46c-7.2,1.39-14.82-4.31-21.38-11.69C334.28,468.2,329.12,457.77,325.81,451.9Z"/><path class="cls-17" d="M306.87,427.59c-1.31-2.89-1.94-5.66-1.44-8.1.41-2,3.85-2.67,8.75-4.85,6.86-8.53,9.9-6.92,21.11-10.27a49,49,0,0,0,.37,5.82C324.29,414.55,316,420.69,306.87,427.59Z"/><path class="cls-8" d="M306.87,427.59c-1.31-2.89-1.94-5.66-1.44-8.1.41-2,3.85-2.67,8.75-4.85l0,0a23.3,23.3,0,0,0,1.4,6.54C312.69,423.2,309.83,425.35,306.87,427.59Z"/><path class="cls-18" d="M377.85,209.5c-.71,15.32-3.43,39.87-8.39,51.88-5.26,12.77-34.79,37.06-62.4,54-50.47,31-115.66,71-122.2,190.14L174,486.36l-18.74,17.55C162.6,369.22,235.31,324.59,291.59,290c12-7.34,23.05-14.15,32.14-21.2C345.71,251.79,370.72,237.56,377.85,209.5Z"/><path class="cls-1" d="M377.85,209.5c-.71,15.32-3.43,39.87-8.39,51.88-5.26,12.77-34.79,37.06-62.4,54-50.47,31-115.66,71-122.2,190.14-5.54-113,65.66-163.06,117.47-194.86,27.62-16.95,57.15-41.25,62.41-54,3.06-7.44,5.28-19.68,6.69-31.56A59.38,59.38,0,0,0,377.85,209.5Z"/><path class="cls-1" d="M377.85,209.5c-.71,15.32-3.43,39.87-8.39,51.88a24.51,24.51,0,0,1-2.3,4.2c-.4-6.9-1.93-18.77-3.53-28.94A67.54,67.54,0,0,0,377.85,209.5Z"/></g></g></svg>