<svg xmlns="http://www.w3.org/2000/svg" viewBox="0 0 158.87 472.25"><defs><style>.cls-1{fill:#8b4300;}.cls-2{fill:#ffac74;}.cls-3{fill:#eaedfd;}.cls-4{opacity:0.05;}.cls-5{fill:#2d334d;}.cls-6{fill:#dde6fd;}.cls-7{fill:#252a40;}.cls-8{fill:#6f80be;}.cls-9{fill:#ff4c4c;}.cls-10,.cls-14{opacity:0.15;}.cls-11{fill:#962424;}.cls-12{fill:#c58357;}.cls-13{fill:#f3a26e;}.cls-15{fill:#ff9500;}.cls-16{fill:#834300;}.cls-17{fill:#42261a;opacity:0.1;}</style></defs><g id="Calque_2" data-name="Calque 2"><g id="Calque_1-2" data-name="Calque 1"><path class="cls-1" d="M112.13,95.83l-6.85-1.63,2,3.41L105.15,97a5.79,5.79,0,0,1,1.42,3l-1.34-.2,2.17,3.84-1.64-.43,1.5,5.16-2-1.24a31.37,31.37,0,0,1,2.14,16.45c2.57-2.18,6.36-2,9.66-1.34s6.7,1.72,10,.91c4.17-1,7.2-5.12,7.57-9.4a14.68,14.68,0,0,0-4.72-11.54c-5.36-5.17-13.13-5.4-19.13-9.59C111.17,93.69,111.67,94.76,112.13,95.83Z"/><path class="cls-2" d="M64.66,304.43s.43,45-.61,48.86-5.34,11.62-5.78,16.11S53.71,431,54,435.27s2.55,6,3.3,5.52,12-5.48,12-5.48-.78-10.95.86-19.42,6.43-23.6,6.43-23.6S82.32,378.15,82,370.7s1.48-11.8,1.48-11.8,7.73-44.22,8-48.44C91.52,310.46,66.76,304.57,64.66,304.43Z"/><path class="cls-3" d="M75.11,397.26c-1.12-.07-2.66-.15-4.23-.16-3.06,0-6.63-.4-9.5-2.11a14.32,14.32,0,0,0-4.9-1.45c-1.25,17.78-2.65,39.17-2.48,41.73.28,4.28,2.55,6,3.3,5.52s12-5.48,12-5.48-.78-10.95.86-19.42C71.25,410.51,73.56,402.43,75.11,397.26Z"/><path class="cls-4" d="M90.77,315.86a21.31,21.31,0,0,0-2.14-.59,42.1,42.1,0,0,0-23.9,1.61c0,3.43,0,7.27,0,11.15l1.31.61,12.19,5.65c.07,5.38.66,11.06.73,16.44a2.44,2.44,0,0,1-.17,1.14c-.63,1.27-2.52.59-3.86.11a7.42,7.42,0,0,0-8.4,2.76c3.18-.49,6.93-.79,9.09,1.59,1.81,2,1.67,5,1.43,7.7-.18,2-.5,4.19-2.14,5.29-2.27,1.51-5.85,0-7.75,2a5.54,5.54,0,0,1,5.11,5,20.25,20.25,0,0,1-.45,3.94c-.36,3.05.53,6.11.38,9.18-.14,2.83-1.17,5.53-2,8.25-3.81,12.39-3.72,25.48-2.64,38.5l1.77-.79s-.78-10.95.86-19.42,6.43-23.6,6.43-23.6S82.32,378.15,82,370.7s1.48-11.8,1.48-11.8S88.77,328.73,90.77,315.86Z"/><path class="cls-2" d="M105.33,316.71s-2.93,38.65-1.08,44.53c0,0-.11,9.49-1.16,11.87a27.32,27.32,0,0,0-1.86,8.67c-.25,3.15-.14,17.29,0,24.57s-3.06,18.46-3.81,21.15-1.57,6.93-.34,7.62,13.26,4.39,13.26,4.39,2.6-12.38,3.19-14.89,6.9-27.22,8.17-30.8,5.14-15.91,4.62-22.11-3.72-12.34-3.64-14.24,8.77-45.23,8.77-45.23Z"/><path class="cls-3" d="M101.12,399c0,2.73.06,5.31.09,7.34.13,7.29-3.06,18.46-3.81,21.15s-1.57,6.93-.34,7.62,13.26,4.39,13.26,4.39,2.6-12.38,3.19-14.89c.41-1.76,3.65-14.47,6-23.13C113.46,401.62,106.4,400.29,101.12,399Z"/><path class="cls-4" d="M129.5,318.87a40,40,0,0,0-13.8.05A53.28,53.28,0,0,0,105,321.84c-.23,3.54-.55,8.54-.81,13.81a84.89,84.89,0,0,0,13.7,2.6c-2.08,5.1-1.6,11.65.71,16.65a34.47,34.47,0,0,1-9.18-.55,3.52,3.52,0,0,0-.69,2.26,7,7,0,0,1,6.94,1.7,13,13,0,0,1,3.49,6.53,12.44,12.44,0,0,1-.15,7.52,6.61,6.61,0,0,1-5.72,4.37c2.36.11,3,3.27,2.93,5.63a154.5,154.5,0,0,1-12.41,55.09c3.3,1.06,6.55,2.06,6.55,2.06s2.6-12.38,3.19-14.89,6.9-27.22,8.17-30.8,5.14-15.91,4.62-22.11-3.72-12.34-3.64-14.24c.07-1.42,5-26.23,7.43-38.49Z"/><path class="cls-5" d="M106.14,433s-3.58-2.82-7.73-2-5.41,3-5.67,4a14.63,14.63,0,0,0,.26,3.76s.83,2.57-.06,3.72-9.68,13.61-11.8,16.26-4.18,6.36-1,9.56,12.43,5.09,16.2,3.25,7.34-2.94,8.48-7.64c0,0,.28-5.47,1.11-6.38a33,33,0,0,0,4.4-6.61s1.76-17.56-.23-17.65S106.14,433,106.14,433Z"/><path class="cls-6" d="M110.56,447.78a93.62,93.62,0,0,1-5.79,8.62c-1.59,1.78-1.13,3.46-1.61,5.26s-6.84,6.1-10.19,6.82-7.27-.16-10.76-1.74c-2.07-.94-2.2-4.27-2-6.82-1.71,2.5-2.85,5.62-.16,8.36,3.12,3.2,12.43,5.09,16.2,3.25s7.34-2.94,8.48-7.64c0,0,.28-5.47,1.11-6.38a33,33,0,0,0,4.4-6.61S110.41,449.63,110.56,447.78Z"/><path class="cls-7" d="M106.94,443.08s1.32-6,1.7-9.91c-1.4-.09-2.5-.2-2.5-.2s-3.58-2.82-7.73-2-5.41,3-5.67,4a14.63,14.63,0,0,0,.26,3.76s.83,2.57-.06,3.72c-.58.74-4.51,6.29-7.76,10.8,2,2.07,7.08,6.78,9.22,5.63,2.73-1.46,6.63-8.56,7.52-9.68S106.94,443.08,106.94,443.08Z"/><path class="cls-5" d="M65.73,431.18s-3.58-2.83-7.74-2-5.4,3-5.66,4a14.54,14.54,0,0,0,.26,3.75s.83,2.58-.06,3.72-9.68,13.61-11.8,16.27-4.18,6.35-1.06,9.55,12.43,5.09,16.21,3.25,7.34-2.94,8.48-7.64c0,0,.27-5.47,1.11-6.38a32.72,32.72,0,0,0,4.4-6.61s1.75-17.56-.23-17.65S65.73,431.18,65.73,431.18Z"/><path class="cls-6" d="M70.14,446a91.72,91.72,0,0,1-5.79,8.63c-1.58,1.77-1.12,3.45-1.6,5.25s-6.84,6.1-10.19,6.83-7.27-.17-10.76-1.75c-2.07-.94-2.2-4.27-2-6.82-1.71,2.51-2.85,5.62-.17,8.36,3.13,3.2,12.43,5.09,16.21,3.25s7.34-2.94,8.48-7.64c0,0,.27-5.47,1.11-6.38a32.72,32.72,0,0,0,4.4-6.61S70,447.84,70.14,446Z"/><path class="cls-7" d="M66.53,441.28s1.32-5.95,1.7-9.91c-1.4-.09-2.5-.19-2.5-.19s-3.58-2.83-7.74-2-5.4,3-5.66,4a14.54,14.54,0,0,0,.26,3.75s.83,2.58-.06,3.72c-.58.75-4.51,6.29-7.77,10.81,2.06,2.07,7.08,6.78,9.23,5.63,2.72-1.46,6.63-8.57,7.52-9.69S66.53,441.28,66.53,441.28Z"/><path class="cls-8" d="M132.57,142l-.21,0S135,142.09,132.57,142Z"/><path class="cls-9" d="M155.29,188.11c-.63-2.35-2-6.84-2-6.84s-4.55-7.9-7.19-12.61-8.73-21.38-8.62-23.75-1.28-4.49-2.86-3.5a6.1,6.1,0,0,1-2,.58c2.44.1-.21,0-.21,0l.21,0-5.07-.19c-9.79-.34-14.41-3.4-16.93-3.51a32.76,32.76,0,0,0-7.17,1.06c-.8.17-5.25-6.52-7.93-6.64l-2.68-.11s-2.72-13.95-4.8-19.66l-.09.16a194.71,194.71,0,0,1-13.72,27.82c.46,4.19,3.27,12.81,5.44,13.87,0,0-1.81,13.28-1.53,17.57a15.05,15.05,0,0,0,3.22,7.73A91.44,91.44,0,0,1,79.45,190c-1.14,4.22-1.23,11.57-2.36,15.55s-2.38,11.05-.21,15.42,4.56,9.69,4.53,10.4c0,.2-.11.77-.25,1.49h.22l.57.62c.59.23,1.4-.13,2,.09l0,.6c.59.22,1-.16,1.77.67.19.21.8-.16,1.19.06l0,.59c.39.22.8-.16,1.19.06l0,.59a5,5,0,0,0,2.95.73c.2,0,.38.41.57.62a5.66,5.66,0,0,1,1.79.08l0,.6c.79.23,1.6-.13,2.38.1l0,.6c1,.44,1.8-.32,3,.53.58.42,1.79.08,2.17.49,1,.64,1.78.28,2.56.52l.57.62c.79.23,1.6-.13,2.39.1l0,.6c2,.68,3.77.17,6,.46a66.4,66.4,0,0,0,28.38-.65l-.31-.19s1.56-8.48,2.41-11.52a79.83,79.83,0,0,1,3.82-11.22c1.3-2.56,3.3-21,3.3-21S155.92,190.46,155.29,188.11Z"/><path class="cls-10" d="M142.86,229.22a76.18,76.18,0,0,1,3.66-10.63c1.3-2.56,3.3-21,3.3-21s6.1-7.15,5.47-9.5-2-6.84-2-6.84-4.55-7.9-7.19-12.61-8.73-21.38-8.62-23.75-1.28-4.49-2.86-3.5a6.1,6.1,0,0,1-2,.58c2.44.1-.21,0-.21,0l.21,0-5.07-.19c-9.79-.34-14.41-3.4-16.93-3.51a23.86,23.86,0,0,0-5.42.67,34.46,34.46,0,0,0,15.42,19.4c-.15-1.12-.31-2.23-.46-3.35l5.52,4.87-3.27-5.63a12.5,12.5,0,0,0,7,2.66l-3.46-5.11a4.57,4.57,0,0,0,3.29,1.42,17.15,17.15,0,0,1,4.06.37c2.4.77,3.8,3.23,4.75,5.57a43.15,43.15,0,0,1-2.57,37.36,23.46,23.46,0,0,1-7,7.94c-5,3.37-11.8,3.59-17.4,1.29,3.92,3.44,8.61,7.11,13.74,6.21,2.91-.51,5.34-2.43,7.55-4.39a75.94,75.94,0,0,0,16.86-20.7l-2.55,12.57c-1.39,6.86-3.1,14.26-8.46,18.77l7.3-6.35c-1.56,4.17-1.95,8.55-2.29,13Z"/><path class="cls-10" d="M124.13,234.79a24.41,24.41,0,0,1-22-9.15,34.59,34.59,0,0,0,11.7,4.2,16.63,16.63,0,0,0,11.92-2.63c7-5.11,7.45-15.54,13.24-22-3.51,2.65-5.9,6.48-8.77,9.82s-6.62,6.4-11,6.53c-3.92.12-7.5-2.09-10.73-4.31-4-2.78-8.14-5.89-10.15-10.35-1.8-4-1.68-8.57-2.35-12.92s-2.08-8.43-2.47-12.75c-.86-9.69,3.62-19,8-27.66Q97,159,92.59,164.41a91.8,91.8,0,0,0,7-17.94,24.1,24.1,0,0,1-7.06,7.64c1.91-4,3.85-8.13,4.38-12.55a15.82,15.82,0,0,0-1.36-8.84h0l-2.68-.11s-.32-1.65-.83-4a15.71,15.71,0,0,0-9.66-2.69C79.78,131,77,136,74.18,140.92c.46,4.19,3.27,12.81,5.44,13.87,0,0-1.81,13.28-1.53,17.57a15.05,15.05,0,0,0,3.22,7.73A91.44,91.44,0,0,1,79.45,190c-1.14,4.22-1.23,11.57-2.36,15.55s-2.38,11.05-.21,15.42,4.56,9.69,4.53,10.4c0,.2-.11.77-.25,1.49h.22l.57.62c.59.23,1.4-.13,2,.09l0,.6c.59.22,1-.16,1.77.67.19.21.8-.16,1.19.06l0,.59c.39.22.8-.16,1.19.06l0,.59a5,5,0,0,0,2.95.73c.2,0,.38.41.57.62a5.66,5.66,0,0,1,1.79.08l0,.6c.79.23,1.6-.13,2.38.1l0,.6c1,.44,1.8-.32,3,.53.58.42,1.79.08,2.17.49,1,.64,1.78.28,2.56.52l.57.62c.79.23,1.6-.13,2.39.1l0,.6c2,.68,3.77.17,6,.46a72.08,72.08,0,0,0,15,1.19,26.06,26.06,0,0,0,7.84-4.4c5.15-4.54,6.73-11.8,8-18.54A24.4,24.4,0,0,1,124.13,234.79Z"/><path class="cls-11" d="M133,141.93l-.41.06-5.07-.19c-9.79-.34-14.41-3.4-16.93-3.51a20.1,20.1,0,0,0-4.21.42c2.14,2.93,11.85,16,13.82,16,2.21,0,6-2.9,9.51-7.54A31.2,31.2,0,0,0,133,141.93Z"/><path class="cls-12" d="M108.69,133.2l-.25,5.58s7.34,5.7,9.19,6.73S128.73,145,130,143s4.22-12.89,4.22-12.89l-.48-4.87Z"/><path class="cls-4" d="M108.69,133.2l-.11,2.46a14.3,14.3,0,0,0,3.38,3.43,12.73,12.73,0,0,0,10.29,2.07,21.76,21.76,0,0,1-1.42,4.64c3.43-.23,8.27-1.43,9.15-2.8,1.24-1.95,4.22-12.89,4.22-12.89l-.48-4.87Z"/><path class="cls-13" d="M117,102.36s-7.05,5-7.85,7.84a50.43,50.43,0,0,0-1.51,7.48c-.26,2.14-.43,7.31-.73,8.38s.08,7.76,1.81,9,3.52,3.83,9.35,3.44,10.64-2.27,11.89-3.25c3.94-3.06,7.44-7.91,7.5-9.37s-.11-3.94-.2-9.6-1.1-9.8-6.07-11.16C128.31,104.36,124.17,101.06,117,102.36Z"/><path class="cls-1" d="M109.22,106.4a11.68,11.68,0,0,0-.91,8.27l2.86-4.76c0,1.63,0,3.25,0,4.87a14.26,14.26,0,0,1,3.63-6.52l-.16,3.09,2.28-3.54,1.78,4.68c0-1.33.11-2.65.17-4a30.55,30.55,0,0,0,8.37,8.88l-1.77-5.22a9.38,9.38,0,0,0,7.3,3.63q-1.81-4.23-3.65-8.46a20,20,0,0,0-3.06-5.43,6.74,6.74,0,0,0-5.48-2.52,8.28,8.28,0,0,0-7.66.3C110.67,101,110.4,104.12,109.22,106.4Z"/><path class="cls-4" d="M137.32,118.71a6.68,6.68,0,0,0-4.83-1.64,25.11,25.11,0,0,1-8,16.93,24.81,24.81,0,0,1-7.1,4.55l.66,0c5.84-.39,10.64-2.27,11.89-3.25,3.94-3.06,7.44-7.91,7.5-9.37C137.53,124.68,137.41,122.71,137.32,118.71Z"/><path class="cls-9" d="M140.47,240.37c-2.89,3.69-10.61-.77-15.18.21a48.78,48.78,0,0,1-9.93,1.08,97.08,97.08,0,0,1-15.47-1.59L85,237.74c-1.87-.3-3.22-.36-4-2.1a79.89,79.89,0,0,1-8.86,12.92c-1.85,2.2-3.89,4.44-4.46,7.25-.48,2.36.13,4.9-.69,7.17-.36,1-1,1.85-1.34,2.83-.69,1.81-.5,3.82-.45,5.76a37.6,37.6,0,0,1-9.51,25.79c1.85,2.33,2.07,5.63,1.34,8.52A35.63,35.63,0,0,1,53.39,314a2.39,2.39,0,0,0-.4,1.4,2.31,2.31,0,0,0,1,1.36c10.46,8.51,24.43,11,37.73,13.19l5.16-7.09q1.47,4.88,2.79,9.8c14.07-2.94,29.07,4.81,42.62,0-2.73-1.69-2.4-5.69-1.74-8.82q1.41-6.68,2.83-13.35a8.86,8.86,0,0,1,4.9-6.9c-2-1.39-2.27-4.16-2.36-6.59q-.66-17.6,0-35.23c.18-4.62.26-9.76-2.8-13.23a1.53,1.53,0,0,0,.86-1.11,36.68,36.68,0,0,1-6.78-12.06"/><path class="cls-10" d="M69.36,317.08a20.14,20.14,0,0,0,9.9,1.94c-.87-1.79-3.34-1.94-5-3.1-1.77-1.28-2.3-3.63-2.71-5.78-.6-3.14-1.19-6.29-1.79-9.44l13.45,10.83c1.2,1,3,2,4.15,1a3.41,3.41,0,0,0,.88-1.64,145.51,145.51,0,0,0,4-15.93c-2.11,3.62-4.05,7.34-5.79,11.15a160.85,160.85,0,0,1-13-27.71,8.77,8.77,0,0,1-.7-3.2,9.71,9.71,0,0,1,.93-3.27A74.21,74.21,0,0,0,79,250.18a8,8,0,0,1,6.66-2.84,28.75,28.75,0,0,0-5.62-4.17l19.35-.61c-1.61-2.05-4.85-2.89-7.61-3.76L85,237.74c-1.87-.3-3.22-.36-4-2.1a79.89,79.89,0,0,1-8.86,12.92c-1.85,2.2-3.89,4.44-4.46,7.25-.48,2.36.13,4.9-.69,7.17-.36,1-1,1.85-1.34,2.83-.69,1.81-.5,3.82-.45,5.76a37.6,37.6,0,0,1-9.51,25.79c1.85,2.33,2.07,5.63,1.34,8.52A35.63,35.63,0,0,1,53.39,314a2.39,2.39,0,0,0-.4,1.4,2.31,2.31,0,0,0,1,1.36c8.65,7,19.69,9.95,30.78,12Q76.82,323.23,69.36,317.08Z"/><path class="cls-10" d="M100.44,323.76a12.89,12.89,0,0,1,.43-3.47c.61-4.22-2-8.5-1-12.66.53-2.3,2.06-4.24,2.85-6.46s.46-5.23-1.69-6.2c-.14-.74,1-1.07,1.27-1.75s-.21-1.37-.59-2c-1.18-1.89-1.33-4.22-1.4-6.45q-.24-7.12.07-14.26a194.22,194.22,0,0,0-3.48,23.63,5.56,5.56,0,0,0,.11,2.19c.2.64.62,1.18.86,1.8,1,2.47-1.1,4.95-2.1,7.39a18.94,18.94,0,0,0-1.06,4.84q-.93,7-1.84,14a20.28,20.28,0,0,1-1.34,5.48l.21,0,5.16-7.09q1.47,4.88,2.79,9.8a40.7,40.7,0,0,1,11.67-.49,26.6,26.6,0,0,0-6.09-3.61C103.11,327.52,100.74,326.1,100.44,323.76Z"/><g class="cls-14"><path d="M126.34,329c-2.45,1.93-5.77,2.17-8.87,2.54a47.46,47.46,0,0,0-4.75.77c10,1,20.14,3.72,29.56.38-2.73-1.69-2.4-5.69-1.74-8.82q1.41-6.68,2.83-13.35a8.86,8.86,0,0,1,4.9-6.9c-2-1.39-2.27-4.16-2.36-6.59q-.66-17.6,0-35.23c.18-4.62.26-9.76-2.8-13.23a1.53,1.53,0,0,0,.86-1.11,36.37,36.37,0,0,1-4.3-6.33c-1.75,1.2-4.49.74-7.31.17-6,2.09-12.9,1.61-19.32.35a100.5,100.5,0,0,1-11.19-1.24,54.67,54.67,0,0,0,34.95,10.4l-11.47,5,15.36-1.69A90.28,90.28,0,0,1,129,260.64l10-.42a156.54,156.54,0,0,0-1.47,32.08,14.18,14.18,0,0,1-.26,4.87,12.79,12.79,0,0,1-2.58,4.24,104,104,0,0,1-11.84,12.27,10.75,10.75,0,0,1-5,2.92,9.39,9.39,0,0,1-4.91-.75c-4.91-1.88-9.14-5.16-13.29-8.39L109,317.2c2,2.14,4.35,4.4,7.29,4.75,2.33.28,4.59-.72,6.72-1.69l9.37-4.26C130.25,320.36,130.14,326,126.34,329Z"/><path d="M140.47,240.37l-1.68-2.57-.52.35c.43,1,.9,2,1.42,2.95A3.16,3.16,0,0,0,140.47,240.37Z"/></g><path class="cls-11" d="M140.29,241.33s.71-3.85,1.43-7.3h0c-39,11.15-60.31-2.68-60.31-2.68,0,.71-1.24,6.36-1.24,6.36C111.49,252.87,140.29,241.33,140.29,241.33Z"/><path class="cls-2" d="M105.93,57.48a13.83,13.83,0,0,1,.2,4.44c-.12.86-1.1,5.25-.07,6.87s3,2.67,4.51,7.09,8.86,31.11,11.09,35.74,7.78,11.74,7.78,11.74,2.79,4.45,3.14,6.26,3.68,8.49,3.62,9.81a12.87,12.87,0,0,1-.24,1.87c.93.45,1.57,2,1.5,3.61-.11,2.37,6,19.05,8.62,23.75,2,3.55,5.07,8.92,6.46,11.34a20.44,20.44,0,0,0,1.19-5.46c.38-4.89-1.28-10.34,1.89-14s6.24-12.34-2.27-23.81c0,0-5-8.47-8.09-13.67s-2.64-8.34-2.61-9-2.94-10.73-7.61-18.54-16.55-25.1-16.55-25.1a9,9,0,0,0-1.57-4c-1.48-2.28,1.29-19.36.72-25.6s-.15-8.44-1.42-8.5-1.66,1.93-1.74,3.72l-.1,2.13s-.28-2.62-.69-3.07-2.78-.36-2.51,2.42c0,0,.37,5.67.47,8.68,0,0-1.75-5.2-2.75-5.77s-2.72.62-2.74,1.26a50.09,50.09,0,0,0,1.12,5c.13.56.47,3.58.78,3.83a24.65,24.65,0,0,1,1.51,3.31,3.4,3.4,0,0,1-2.08-1.12c-1.06-1.07-3.06-4.09-3.93-4.13s-2.39,2.19-1.06,4.15S105.58,56.59,105.93,57.48Z"/><path class="cls-4" d="M150.83,160.62c-7.8-10.32-10.87-23.35-13.74-36-.52-2.3-.84-5.19,1.08-6.55l-3.52.42,2.45-3c-4.32.09-8.34-2.54-11-6S121.92,102,120.43,98c-3.23-8.78-5.59-17.63-8.81-26.41l2.72-3.43a6.81,6.81,0,0,1-3.79,1.37l1.77-1.78c-1.71.59-3.6-.7-4.35-2.34a12,12,0,0,1-.62-5.34,9.71,9.71,0,0,0-.89-5.27c-.84-1.43-2.3-2.35-3.5-3.5a7.61,7.61,0,0,1-.87-1,2.92,2.92,0,0,0,.41,2.49c1.34,1.95,3.08,3.85,3.43,4.74a13.83,13.83,0,0,1,.2,4.44c-.12.86-1.1,5.25-.07,6.87s3,2.67,4.51,7.09,8.86,31.11,11.09,35.74,7.78,11.74,7.78,11.74,2.79,4.45,3.14,6.26,3.68,8.49,3.62,9.81a12.87,12.87,0,0,1-.24,1.87c.93.45,1.57,2,1.5,3.61-.11,2.37,6,19.05,8.62,23.75,1.64,2.92,4,7.06,5.57,9.79a27,27,0,0,0-4.29-19.65Z"/><path class="cls-2" d="M92.79,132.6S89.18,114.08,87.1,111c0,0-.7-9-1.11-10.49S83.72,87.42,82.8,83.27s-2.4-17.2-1.44-24.59c.1-.78.19-1.57.28-2.36a19.6,19.6,0,0,0,3.81-5.39,39.2,39.2,0,0,0,2.73-9.86c.39-2.09.56-4.18.84-6.28a1,1,0,0,0-1.72-.9,8.83,8.83,0,0,0-1.93,2.74c-.82,1.73-1.26,3.63-2,5.39v0a.58.58,0,0,1-1.11-.19A9.34,9.34,0,0,0,82,40.52a44,44,0,0,1-.36-5.36q.38-7.42.74-14.83A3,3,0,0,0,82,18.17a1.1,1.1,0,0,0-1.12-.37c-.68.18-.86,1-1,1.65Q79,26.16,78.16,32.86a1.06,1.06,0,0,1-1.81.62A2.57,2.57,0,0,1,75.81,32a69.52,69.52,0,0,1-.48-13.83,4.78,4.78,0,0,0-.1-1.69,1.48,1.48,0,0,0-1.18-1.08,1.47,1.47,0,0,0-1.32.81,4.2,4.2,0,0,0-.41,1.57,124.44,124.44,0,0,0-.95,14.44,1.53,1.53,0,0,1-2,1.55.84.84,0,0,1-.38-.17,2,2,0,0,1-.66-1.26L66.5,19.58a1.1,1.1,0,0,0-.81-.93c-.9-.22-1.3.93-1.35,1.79a51,51,0,0,0,1.19,14.63,1.3,1.3,0,0,1-2.18,1.24l-.08-.09a6.19,6.19,0,0,1-.86-2.66,9.87,9.87,0,0,0-1.78-3.86,1.27,1.27,0,0,0-2.27,1,23.11,23.11,0,0,0,1.93,6,86.14,86.14,0,0,1,3.93,8.72c.1.29.19.58.28.88a40.43,40.43,0,0,0,1.57,6.23c.58,1.29,4.07,5.77,4,6.82s-.69,15.58-.69,15.58-1.3,25.73.62,32.46a42.48,42.48,0,0,1,2,7.37c.21,2.38,2.36,21.61,2.07,24.68s3,14.15,5.49,15.36c0,0-1.81,13.28-1.53,17.57a15.05,15.05,0,0,0,3.22,7.73C83.24,178.67,85,169.9,85,169.9s6.1-19.82,8.83-27.93S92.79,132.6,92.79,132.6Z"/><path class="cls-4" d="M93.79,142c2.34-6.92-.05-8.86-.8-9.28a35,35,0,0,1-3.33,15.46l-.75-5.71c-2,.74-4.26-.21-5.7-1.76a16.26,16.26,0,0,1-2.93-5.57c-1.19-3.24-2.18-6.44-1.9-9.88a46.71,46.71,0,0,0-.69-12.49,16.68,16.68,0,0,0,6-2.74l-6.59-.6,3.1-1.62c-3.3-.65-5.78-3.57-6.88-6.75s-1.06-6.62-1-10c.16-10.42-.35-21-.19-31.44l4-1.65-2.44-.51,4.12-2.05c-3.19.84-6.62-.82-8.81-3.29s-3.39-5.64-4.55-8.73c-.55-1.47-1.09-2.94-1.64-4.4l-.07-.44a17.88,17.88,0,0,1-3.94-9,1.28,1.28,0,0,0-.42,1.16,23.11,23.11,0,0,0,1.93,6,86.14,86.14,0,0,1,3.93,8.72c.1.29.19.58.28.88a40.43,40.43,0,0,0,1.57,6.23c.58,1.29,4.07,5.77,4,6.82s-.69,15.58-.69,15.58-1.3,25.73.62,32.46a42.48,42.48,0,0,1,2,7.37c.21,2.38,2.36,21.61,2.07,24.68s3,14.15,5.49,15.36c0,0-1.81,13.28-1.53,17.57a15.05,15.05,0,0,0,3.22,7.73C83.24,178.67,85,169.9,85,169.9S91.06,150.08,93.79,142Z"/><path class="cls-9" d="M89.51,233.45a18.81,18.81,0,0,1-14.59-13.26,36.71,36.71,0,0,1-.88-9.6l0-7.54,0-7a14.28,14.28,0,0,1,.46-4.43c.35-1.06.94-2,1.37-3,1-2.43,1.66-5.21,1-7.67a2.18,2.18,0,0,1,.85-2.36c3.76-2.7,6.13-7.09,7.93-11.43,2-4.87,3.62-10,6.94-14.13-.55,12.51-.69,24.92,2.21,37.11,1.36,5.72,3.49,11.54,2.44,17.33-.69,3.77-2.68,7.22-3.28,11-.41,2.6-.14,5.26-.5,7.86S91.87,232.29,89.51,233.45Z"/><path class="cls-10" d="M89.51,233.45a18.81,18.81,0,0,1-14.59-13.26,36.71,36.71,0,0,1-.88-9.6l0-7.54,0-7a14.28,14.28,0,0,1,.46-4.43c.35-1.06.94-2,1.37-3,1-2.43,1.66-5.21,1-7.67a2.18,2.18,0,0,1,.85-2.36c3.76-2.7,6.13-7.09,7.93-11.43,2-4.87,3.62-10,6.94-14.13-.55,12.51-.69,24.92,2.21,37.11,1.36,5.72,3.49,11.54,2.44,17.33-.69,3.77-2.68,7.22-3.28,11-.41,2.6-.14,5.26-.5,7.86S91.87,232.29,89.51,233.45Z"/><path class="cls-10" d="M100,185.81c1.65,5.78,4.79,11.46,10,14.46a16.16,16.16,0,0,0,23.7-9.88c-3.89,5.86-11.92,9-18.87,7.86S101.94,192.58,100,185.81Z"/><circle class="cls-15" cx="22.38" cy="22.38" r="22.38" transform="translate(-4.31 39.39) rotate(-77.51)"/><path class="cls-16" d="M44.69,24.16c.05-.59.07-1.18.07-1.78V22.1a63.42,63.42,0,0,1-17.11,4q0-1.52,0-3h.05a6.47,6.47,0,0,0,4-1.33c4.08-3.1,6.35-7.66,7.54-10.94.28-.77.52-1.53.72-2.26a20.92,20.92,0,0,0-1.51-1.74,29.1,29.1,0,0,1-1,3.35c-1.1,3-3.19,7.26-6.9,10.08a4.64,4.64,0,0,1-3,.94,62.69,62.69,0,0,0-2.1-16.16A23.65,23.65,0,0,0,23.47,0c-.36,0-.72,0-1.09,0s-.77,0-1.15,0a19.22,19.22,0,0,1,2.5,5.61,59.1,59.1,0,0,1,2,15.31C19.47,19.24,11.64,10.54,7.59,5.59q-.72.63-1.38,1.32c4.3,5.26,12.64,14.44,19.54,16,0,1.06,0,2.18,0,3.34a59.13,59.13,0,0,1-15-1A56,56,0,0,1,0,22v.38c0,.57,0,1.14.06,1.7a57.57,57.57,0,0,0,10.23,3,61.18,61.18,0,0,0,12,1.18c1.13,0,2.25,0,3.38-.09,0,.81-.07,1.65-.11,2.5-2.68.5-6.34,2-10.95,4.33-2.86,1.47-5.49,3-7.18,4,.5.45,1,.88,1.55,1.28,4.55-2.71,11.86-6.66,16.46-7.68-.23,3.62-.61,7.63-1.17,12a17.91,17.91,0,0,0,1.95-.25q.8-6.41,1.15-12a4,4,0,0,1,.8.07c5.2,1,8.82,6.77,8.87,6.85.49-.43,1-.87,1.4-1.33-.91-1.36-4.59-6.35-9.91-7.39a5.71,5.71,0,0,0-1.05-.09c.05-.83.08-1.64.11-2.44A65.11,65.11,0,0,0,44.69,24.16Z"/><path class="cls-17" d="M22.38,0a21.61,21.61,0,0,0-3,.21,22.38,22.38,0,0,1,0,44.35,23.25,23.25,0,0,0,3,.2A22.38,22.38,0,0,0,22.38,0Z"/></g></g></svg>