<svg xmlns="http://www.w3.org/2000/svg" viewBox="0 0 458.46 281.1"><defs><style>.cls-1{fill:#00afdf;}.cls-2{fill:#cbe7f1;}.cls-3{fill:#cce7f1;}.cls-4{fill:#cde8f1;}.cls-5{fill:#cbe7f0;}.cls-6{fill:#cde7f0;}.cls-7{fill:#cae6ef;}.cls-8{fill:#feefdb;}.cls-9{fill:#cde6ee;}.cls-10{fill:#cfe8f0;}.cls-11{fill:#c4e1e9;}.cls-12{fill:#c6e2e9;}.cls-13{fill:#fbd4bc;}.cls-14{fill:#c9bfb0;}.cls-15{fill:#e83c55;}.cls-16{fill:#d0a27e;}.cls-17{fill:#b43417;}</style></defs><g id="Calque_2" data-name="Calque 2"><g id="Calque_1-2" data-name="Calque 1"><path class="cls-1" d="M388.58,81.73c1.27-4.71,5-6,9.11-5.68,3.8.32,6.8,4.9,6.92,9,.14,4.93-3.1,7.57-7,8.37s-7.8-.87-9.07-5.59A8.44,8.44,0,0,1,388.58,81.73Z"/><path class="cls-1" d="M448.74,73.76c-4.37,0-8-3.09-8.12-7-.13-4.9,2.86-7.36,9.25-7.63,3.45-.14,6.49,3.19,6.65,7.28C456.66,70.29,453,73.72,448.74,73.76Z"/><path class="cls-2" d="M390.52,76.23c1.27-4.71,5-6,9.11-5.69,3.8.33,6.8,4.91,6.92,9,.14,4.93-3.1,7.57-7,8.36s-7.8-.87-9.07-5.58A8.55,8.55,0,0,1,390.52,76.23Z"/><path class="cls-3" d="M450.68,68.25c-4.37,0-8-3.08-8.12-6.94-.13-4.9,2.86-7.36,9.25-7.63,3.45-.15,6.49,3.18,6.65,7.28C458.6,64.78,455,68.21,450.68,68.25Z"/><path class="cls-2" d="M285.37,248.17c4.67,0,7.12,2.24,7.2,6.75.06,3.41-3.38,7.06-6.8,7.19s-7.09-3.4-7.2-6.79C278.43,250.84,280.92,248.22,285.37,248.17Z"/><path class="cls-3" d="M426.53,45.57c.11,4.66-2.63,6.61-6.18,6.51s-6.06-2.18-5.85-6.43,2.08-6.25,7.41-5.92C425.54,40,426.68,42.65,426.53,45.57Z"/><path class="cls-4" d="M283.47,275.2c.34-3.59,2-5.85,5.87-6.05,4-.21,5.65,2.45,6.09,5.82.42,3.21-3,6.37-6.4,6.12S283.83,278.64,283.47,275.2Z"/><path class="cls-5" d="M308.56,260c.71-3.43,2.51-5.8,5.67-5.59,2.85.19,5.52,1.84,5.28,5.41a5.29,5.29,0,0,1-5.44,5.29C310.41,265.3,309.67,262.28,308.56,260Z"/><path class="cls-6" d="M95.64,56.25c-.29,2.27-1,4-3.92,4-2.53,0-3.69-1.26-4-3.48-.37-2.79,1.63-4.07,3.85-4.17A3.71,3.71,0,0,1,95.64,56.25Z"/><path class="cls-6" d="M399.52,104.13a3.68,3.68,0,0,1-4,3.73c-2.22,0-4.26-1.27-3.95-4.07.25-2.18,1.33-3.56,3.89-3.57C398.37,100.22,399.2,101.87,399.52,104.13Z"/><path class="cls-7" d="M381.24,111.15c-1.95-.14-2.64-1.28-2.63-3,0-1.5.67-2.7,2.23-2.75a2.94,2.94,0,0,1,3.3,2.92C384.15,109.9,382.74,110.81,381.24,111.15Z"/><path class="cls-6" d="M300.45,259.62a2.52,2.52,0,0,1-2.59,2.48c-1.69.1-3.05-.53-3.12-2.38-.05-1.54,1-2.39,2.54-2.5A2.67,2.67,0,0,1,300.45,259.62Z"/><path class="cls-1" d="M55.62,198.07c7.14-.09,10.88,3.77,11,11.36.1,5.75-5.17,11.89-10.38,12.12s-10.84-5.74-11-11.43C45,202.57,48.83,198.16,55.62,198.07Z"/><path class="cls-2" d="M49.66,186.33c7.14-.09,10.87,3.77,11,11.36.09,5.74-5.17,11.89-10.39,12.12s-10.83-5.74-11-11.44C39.05,190.83,42.86,186.41,49.66,186.33Z"/><path class="cls-4" d="M46.76,231.85c.51-6.06,3.13-9.86,9-10.19,6.18-.35,8.64,4.11,9.31,9.79.64,5.41-4.55,10.73-9.77,10.31S47.3,237.63,46.76,231.85Z"/><path class="cls-5" d="M85.1,206.27c1.08-5.77,3.84-9.77,8.66-9.41,4.35.31,8.44,3.1,8.06,9.1-.33,5.42-3.39,8.64-8.31,8.91C87.92,215.17,86.8,210.08,85.1,206.27Z"/><path class="cls-1" d="M95.81,210.21c1.07-5.77,3.83-9.77,8.66-9.42,4.35.32,8.43,3.11,8.06,9.11-.34,5.41-3.39,8.64-8.32,8.9C98.63,219.11,97.5,214,95.81,210.21Z"/><path class="cls-6" d="M72.7,205.61c-.24,2.65-1.64,4-4,4.17-2.58.17-4.66-.89-4.76-4a3.82,3.82,0,0,1,3.87-4.19C70.47,201.38,72.23,202.6,72.7,205.61Z"/><path class="cls-8" d="M216.66,215.1c6.56-1.88,13.23-.64,19.86-.7.07,0,.2.24.2.36a1.4,1.4,0,0,1-.16.46Z"/><path class="cls-9" d="M90.56,41.4c0,1.17-.56,1.89-1.8,1.7-1.05-.17-1.86-.8-1.75-1.94a1.85,1.85,0,0,1,2-1.71C90.32,39.42,90.56,40.34,90.56,41.4Z"/><path class="cls-10" d="M84.56,44.58a1.91,1.91,0,0,1,1.91,1.79c.16.91-.19,1.67-1.18,1.73C84,48.17,83,47.66,83,46.22,83,45.33,83.67,44.82,84.56,44.58Z"/><path class="cls-6" d="M33.62,87.76c-.79,6-2.73,10.64-10.41,10.74-6.73.08-9.81-3.35-10.59-9.22-1-7.43,4.31-10.81,10.21-11.08C28.12,78,33,81,33.62,87.76Z"/><path class="cls-9" d="M20.13,48.33c-.12,3.09-1.5,5-4.8,4.49-2.78-.44-4.92-2.11-4.64-5.14S13.08,43.2,16,43.13C19.49,43.05,20.11,45.5,20.13,48.33Z"/><path class="cls-10" d="M4.19,56.76c3,.09,4.56,1.93,5.06,4.75.43,2.43-.48,4.44-3.13,4.6-3.36.2-6.09-1.17-6.12-5C0,58.75,1.81,57.4,4.19,56.76Z"/><path class="cls-1" d="M51.79,95.14c-.78,6-2.73,10.64-10.4,10.73-6.73.09-9.81-3.34-10.59-9.21-1-7.43,4.31-10.81,10.2-11.08C46.3,85.34,51.16,88.37,51.79,95.14Z"/><path class="cls-1" d="M38.31,55.71c-.12,3.09-1.51,5-4.8,4.49-2.78-.44-4.92-2.11-4.65-5.14s2.4-4.49,5.3-4.55C37.66,50.43,38.29,52.88,38.31,55.71Z"/><path class="cls-1" d="M14.91,71.31c3,.1,4.56,1.94,5.06,4.75.43,2.43-.48,4.45-3.13,4.6-3.36.2-6.09-1.17-6.12-5C10.7,73.31,12.54,72,14.91,71.31Z"/><path class="cls-8" d="M100.7,205.17H93.6A6,6,0,0,1,100.7,205.17Z"/><path class="cls-8" d="M202.53,241.12a6.14,6.14,0,0,1,0-6.89Q202.54,237.68,202.53,241.12Z"/><path class="cls-11" d="M390.52,76.23v6.06A4.64,4.64,0,0,1,390.52,76.23Z"/><path class="cls-12" d="M246.65,61.31a3.43,3.43,0,0,1,0,4.9Z"/><path class="cls-8" d="M36.71,129.17a3.43,3.43,0,0,1,4.9,0Z"/><path class="cls-8" d="M201.55,226.14a3.42,3.42,0,0,1,0-4.9C201.53,222.87,201.54,224.51,201.55,226.14Z"/><path class="cls-1" d="M197.83,107.08c1.27-4.71,5-6,9.1-5.68,3.81.32,6.8,4.9,6.92,9,.14,4.93-3.1,7.57-6.95,8.37-4,.82-7.8-.87-9.07-5.59A8.44,8.44,0,0,1,197.83,107.08Z"/><path class="cls-1" d="M236.28,126.21c-4.37,0-8-3.09-8.12-6.95-.13-4.9,2.86-7.36,9.25-7.63,3.45-.15,6.49,3.19,6.65,7.28C244.2,122.73,240.55,126.17,236.28,126.21Z"/><path class="cls-1" d="M234.17,142c.11,4.67-2.63,6.61-6.18,6.51s-6.06-2.18-5.85-6.43c.21-4.4,2.08-6.24,7.41-5.92C233.18,136.33,234.32,139,234.17,142Z"/><path class="cls-1" d="M243.89,153.25a3.68,3.68,0,0,1-4,3.74c-2.22,0-4.25-1.27-3.94-4.07.24-2.19,1.32-3.57,3.89-3.57C242.74,149.34,243.58,151,243.89,153.25Z"/><path class="cls-13" d="M425,161c-2.58,2.16-6.27.19-9,2.29,1.47,2.41,6.54,2.52,5,6-1.64,3.62-5.68,2-8.46.93-8.6-3.36-14.84,2.87-22.08,5a6,6,0,0,0-4.9,0,130,130,0,0,0-23.77,8.36c-5.14,2.38-10.89,2.32-16.31,3.6a5.93,5.93,0,0,0-4.91,0c-5.83-.58-12,1.83-17.36-2.36-2.5,4.79-6.52,8.14-10.35,11.44-8.66,7.43-16.93,15.26-26.69,21.48-7.31,4.66-13.27,11.45-19.88,17.24-3.74,3.27-7.6,6.39-11.37,9.63a26,26,0,0,0-4.63,5.65c-5.72,8.64-12.22,16.62-23.33,18.65-3,.55-5.54-.77-8-2.15-1.39-.79-3.09-1.83-3-3.68.08-2.25,2.58-1.44,4.05-2.55-1-.56-1.86-1.06-2.74-1.47-2.29-1.07-4.82-3.53-3.35-5.15,2.06-2.24,1.66-7.56,6.77-6.54,1.32.27,2.92,1.08,2.81-1.16-.27-6.11,3.79-10.5,5.93-15.63s5.55-9.85,7.11-15.33a81.21,81.21,0,0,0-19.89-.12c-5.29-1.38-10.56-2.77-16.34-4.27l-.33-.09c.35,2.46.69,4.82,1,7.15.17,1.12.33,2.24.49,3.35a5.94,5.94,0,0,0,0,4.9c.32,2.7.64,5.39,1,8.09a11.52,11.52,0,0,0,0,6.9c.1,9.49-6.78,13.27-13.85,16.87-2.06,1.05-4.44,1.57-6.31,2.87-9.94,6.95-20.5,6.68-31.75,4-6.86-1.64-13.18-4.37-19.53-7.1-2.84-1.22-3.68-.85-5,2-1.51,3.3-1.64,8.39-6.94,8.59-7,.26-14-.12-17.7-8.52-5.77-13.18-12.44-26-16-40-1.69-6.59,1.61-12.38,8.2-14.63a11.6,11.6,0,0,1,7.09,0c8.3.86,16,4,24,5.92,1.92.45,3.86.92,5.73,1.56,3.12,1.07,3.16-.33,2.22-2.61-2.82-6.89-5.55-13.84-8.57-20.65-3.24-7.29-5.88-14.78-8.38-22.34-.54-1.65-1.11-3.17-2.52-4a4.64,4.64,0,0,0-1-.45,18.7,18.7,0,0,1-2.25-.84c-5.75-2.47-10.14-7-14.89-10.82-3.8-3.07-4.95-8.21-6.78-12.59-3.57-8.56-9.31-13.61-18.74-14.82a22.87,22.87,0,0,0-9.27.91c-6.19,1.76-12.38,3.45-18.71,4.71a6,6,0,0,0-4.89,0,77,77,0,0,1-23.72.16c-7.37-.93-9.29-4.46-5.44-10.62,2.61-4.22,3.28-9.35,6-13.69,1.22-2,2.3-3.84,4.4-4.28,16-3.37,30.92-9.88,46.54-14.28,6.33-1.79,12-1.35,17,3.6,6.9,6.87,15.69,11,23.9,16,4.75,2.87,9,6.27,11.78,11.17.63,1.11,1.13,1.36,1.6,1.21s1.08-1,1.69-1.36c8-5.36,16.12-10.4,26-11.92,12.85-2,24.14,2,35,8.27a44.48,44.48,0,0,1,9.08,6.93c.36.36.74.71,1.11,1,6.63,5.93,14.89,8.33,23.52,9.71a14,14,0,0,0,8.31-1c12.3-5.84,24.9-11,36.45-18.4,3.42-2.18,4.92-3.79,2.18-8q-1.35-2.09-2.61-4.21a103.32,103.32,0,0,1-12.66-33.33,6,6,0,0,0,0-4.89c-1-18.64,5.34-34.55,18.26-47.79,6.73-6.89,15.46-10.33,24.73-12,7-1.24,14.11-2,21.1-1.22a39.83,39.83,0,0,1,8.94,2.08c5.39,2,10.88,3.81,16.16,6.05,7.46,3.16,14.53,7.09,20.42,13.11a39.43,39.43,0,0,1,3.33,3.86C365,32.64,367,41,365.8,50.59A124,124,0,0,1,362,68.51c-.89,3.25-1,6.45,1.3,9.45,7.58,9.77,5.43,19.05-.65,28.9-7.39,12-17.61,18.83-33,20.78,3.21,2.86,5.5,4.73,7.62,6.8,2.89,2.85,5.17,6.2,5.22,10.4,0,2.78,1.37,3.79,3.74,4.36,5.48,1.31,10.92,2.71,16.37,4.07a8.2,8.2,0,0,0,5.93,0c12.16-2.76,23.69-7.39,35.37-11.63,1.59-.58,3.81-2.56,5.23.12s-.8,4.24-2.51,5.82c-.95.87-2.53.87-3.5,3.06,4.91-1.86,9.4-.56,13.88-.66,2.33-.06,4.53,0,4.08,3.23-.4,2.77,1.66,1.87,2.91,2,1.6.15,3.09.38,3.36,2.25S426.16,160,425,161Z"/><path class="cls-8" d="M368.51,153.26a4.6,4.6,0,0,1-5.94,0Z"/><path class="cls-8" d="M385.57,175.15a3.41,3.41,0,0,1,4.9,0Z"/><path class="cls-8" d="M340.58,187.15a3.41,3.41,0,0,1,4.91,0Z"/><path class="cls-14" d="M319.52,144.48A62.53,62.53,0,0,1,324,154.81a65,65,0,0,1,2.68,11,46.49,46.49,0,0,1,.51,5.66,31.21,31.21,0,0,1-.32,5.71,20.4,20.4,0,0,1-1.61,5.51,12.64,12.64,0,0,1-3.42,4.52l-.05-.06A17.79,17.79,0,0,0,325.38,177a48.29,48.29,0,0,0-.6-10.92c-.56-3.63-1.37-7.23-2.27-10.82S320.58,148.08,319.52,144.48Z"/><path class="cls-15" d="M201,217.89c-15.82-37.66-71.12-81.22-87.8-54.85a4.64,4.64,0,0,0-1-.45,18.7,18.7,0,0,1-2.25-.84c.19-10.42,1.66-28.29,8.69-43.31.57-.17,1.08-1,1.69-1.36,8-5.36,16.12-10.4,26-11.92,12.85-2,24.14,2,35,8.27a44.48,44.48,0,0,1,9.08,6.93c.36.36.74.71,1.11,1-.28,21.1.39,62.88,8.83,89.43l-.33-.09C200.34,213.2,200.68,215.56,201,217.89Z"/><path class="cls-14" d="M275.58,169c-3.84,3.37-7.53,6.88-11.19,10.4s-7.16,7.17-10.56,10.93-6.53,7.73-9.51,11.82a97.84,97.84,0,0,0-7.73,13.09l-.07,0a64,64,0,0,1,6.58-13.89,102.73,102.73,0,0,1,9.31-12.26,126.68,126.68,0,0,1,10.94-10.8A103.45,103.45,0,0,1,275.58,169Z"/><path class="cls-16" d="M359.59,25.44c-6.58,5.09-20,10.18-46.39,5.43,0,0-18.39.52-18.13,17.24s-16.33,9.46-17.87,8.36-18.13-6.11-14.56,19.76c2.16,15.57-.23,21.34-3.3,23.31a103.32,103.32,0,0,1-12.66-33.33,6,6,0,0,0,0-4.89c-1-18.64,5.34-34.55,18.26-47.79,6.73-6.89,15.46-10.33,24.73-12A80.94,80.94,0,0,1,310.74.34c8.59.74,25.1,8.13,25.1,8.13,7.46,3.16,14.53,7.09,20.42,13.11A39.43,39.43,0,0,1,359.59,25.44Z"/><path class="cls-14" d="M104.18,235.72a74.88,74.88,0,0,0,5.52,5.86c1.91,1.86,3.91,3.63,5.92,5.38s4.1,3.42,6.17,5.13c1,.83,2.11,1.67,3.15,2.52s2.12,1.67,3.15,2.57l0,.06c-1.23-.57-2.44-1.2-3.64-1.84s-2.35-1.37-3.48-2.12a63.24,63.24,0,0,1-6.55-4.88,49.47,49.47,0,0,1-5.8-5.78l-1.29-1.6c-.39-.56-.8-1.11-1.18-1.68A19.36,19.36,0,0,1,104.18,235.72Z"/><path class="cls-14" d="M131.8,208.82c2.37,4,4.55,7.92,7,11.72,1.23,1.88,2.53,3.7,3.91,5.48a52.7,52.7,0,0,0,4.61,5l0,.06a22,22,0,0,1-5.67-4.07,36,36,0,0,1-4.4-5.44,42.07,42.07,0,0,1-3.3-6.13A31.26,31.26,0,0,1,131.8,208.82Z"/><path class="cls-14" d="M303.07,121.25a115.54,115.54,0,0,0,13,4.23c1.09.32,2.21.49,3.31.77s2.23.43,3.35.58c2.25.38,4.52.52,6.85.77v.08a27.29,27.29,0,0,1-7,.61,32.25,32.25,0,0,1-7-1A34,34,0,0,1,309,125,25.29,25.29,0,0,1,303.07,121.25Z"/><path class="cls-1" d="M424.59,51.08c.11,4.66-2.63,6.6-6.18,6.5s-6.06-2.18-5.85-6.43,2.08-6.24,7.41-5.92C423.6,45.45,424.74,48.15,424.59,51.08Z"/><path class="cls-1" d="M397.57,109.63a3.68,3.68,0,0,1-3.95,3.74c-2.22,0-4.26-1.27-3.95-4.07.25-2.19,1.33-3.57,3.89-3.57C396.43,105.72,397.26,107.37,397.57,109.63Z"/><path class="cls-2" d="M190.34,99.32c1.27-4.72,5-6,9.1-5.69,3.81.33,6.8,4.91,6.92,9,.14,4.93-3.09,7.58-7,8.37s-7.8-.87-9.07-5.58A8.44,8.44,0,0,1,190.34,99.32Z"/><path class="cls-3" d="M228.8,118.44c-4.38,0-8-3.08-8.13-6.94-.12-4.91,2.86-7.37,9.25-7.64,3.45-.14,6.5,3.19,6.65,7.28C236.71,115,233.06,118.4,228.8,118.44Z"/><path class="cls-3" d="M226.68,134.19c.11,4.66-2.63,6.6-6.18,6.5s-6.05-2.18-5.85-6.43,2.08-6.24,7.41-5.91C225.69,128.57,226.83,131.26,226.68,134.19Z"/><path class="cls-6" d="M236.4,145.49a3.67,3.67,0,0,1-4,3.73c-2.22,0-4.26-1.27-3.95-4.07.24-2.18,1.32-3.56,3.89-3.57C235.25,141.58,236.09,143.23,236.4,145.49Z"/><path class="cls-17" d="M160.52,153.17a172.43,172.43,0,0,1,12.67,13.67c2,2.37,3.94,4.82,5.85,7.27s3.75,5,5.48,7.56a133.88,133.88,0,0,1,9.67,16,65.36,65.36,0,0,1,6.34,17.54l-.07,0c-.52-1.47-1-2.93-1.51-4.39s-1.22-2.84-1.83-4.26l-.46-1.06-.52-1-1.06-2.06-1-2.05-1.15-2c-1.49-2.7-3.14-5.31-4.77-7.93s-3.34-5.18-5.16-7.69c-3.51-5.07-7.19-10-11-14.95S164.42,158,160.52,153.17Z"/></g></g></svg>