<svg xmlns="http://www.w3.org/2000/svg" xmlns:xlink="http://www.w3.org/1999/xlink" viewBox="0 0 438.73 546.14"><defs><style>.cls-1{isolation:isolate;}.cls-17,.cls-2{fill:#ffb8a0;}.cls-3{fill:#daa394;opacity:0.29;}.cls-10,.cls-17,.cls-26,.cls-3,.cls-5{mix-blend-mode:multiply;}.cls-4{fill:#8d3030;}.cls-11,.cls-26,.cls-5{fill:#929292;}.cls-10,.cls-5{opacity:0.51;}.cls-6{fill:#e5eaee;}.cls-7{fill:#d05656;}.cls-8{fill:#a93a40;}.cls-9{fill:#3c3d38;}.cls-12{fill:#3b393d;}.cls-13{fill:#f6f6f6;}.cls-14{fill:#303030;}.cls-15{fill:#1e1e1e;}.cls-16,.cls-21{fill:#eb9982;}.cls-16{opacity:0.63;}.cls-17{opacity:0.42;}.cls-18{fill:#494949;}.cls-19{fill:#cb7662;}.cls-20{fill:#9f564a;}.cls-22{fill:#d78171;}.cls-23{fill:#c36d5f;}.cls-24{fill:#3a3a3a;}.cls-25{fill:#333;}.cls-26{opacity:0.2;}.cls-27{opacity:0.66;}</style></defs><g class="cls-1"><g id="Calque_2" data-name="Calque 2"><g id="Calque_1-2" data-name="Calque 1"><path class="cls-2" d="M291.89,544.82c-22.79,7-35.39-16-36.36-24.72-.47-4.16-4.39-8.26-9.11-12.43h0c-5.18-4.59-11.33-9.27-14.89-14.23C224.74,484,240,469.19,240,469.19s-.24-34.42-1.21-39.76c-.53-2.9-2.87-7.27-4.87-10.62a18.89,18.89,0,0,1-2.66-11.12L232.66,389l1.39-18.57.06-.79a13.61,13.61,0,0,0-2-8.22l-16.66-26.59-5-7.94s-.11-.21-.29-.6c-1.4-2.77-7.37-14.7-13-25.78-4-7.8-7.83-15.2-9.81-18.71-5.18-9.21-20-22.28-20-22.28l9.95-10.44L207.15,251l34.8,2.42s12.18,13.52,17.46,27.64c1.5,4,2.58,9.79,3.45,16.22.61,4.45,1.11,9.21,1.6,13.94.26,2.57.52,5.13.78,7.62,1,9.59,2.07,18.2,3.86,22.58a34.43,34.43,0,0,1,2,7.65.82.82,0,0,0,0,.1,74.52,74.52,0,0,1,.14,18.8,17.65,17.65,0,0,1,2.33,3.91h0a18.56,18.56,0,0,1,1.58,7.51v.26c0,3-.14,6.85-.27,11.23-.09,2.94-.19,6.13-.31,9.49C273.46,433.7,271,484.7,271,484.7c4.37,1,4.61,5.82,7.52,17.46S314.68,537.79,291.89,544.82Z"/><path class="cls-3" d="M275.21,379.41v.26c-.07,5-.29,12.33-.58,20.72-6.83-.08-11.73-2.64-11.3-9.82,1.31-22.3-15.66-31.68-15.66-31.68,6-2.91,7.86,3.56,16.79,6.14,8.55,2.48,6.85-14.43,6.69-15.84a74.52,74.52,0,0,1,.14,18.8,17.65,17.65,0,0,1,2.33,3.91h0A18.56,18.56,0,0,1,275.21,379.41Z"/><path class="cls-3" d="M275.21,379.41v.26c0,3-.14,6.85-.27,11.23l-19.86,1.93S240,390.32,232.66,389l1.39-18.57.06-.79a13.61,13.61,0,0,0-2-8.22S250.2,380,271.29,368a17.65,17.65,0,0,1,2.33,3.91h0A18.56,18.56,0,0,1,275.21,379.41Z"/><path class="cls-3" d="M265.24,318.86l-.43,0c-26.59-3.05-42.38,8.09-49.4,16l-5-7.94s-.11-.21-.29-.6c-1.4-2.77-7.37-14.7-13-25.78l32.67-5.93,33.07,2.72c.61,4.45,1.11,9.21,1.6,13.94C264.72,313.81,265,316.37,265.24,318.86Z"/><path class="cls-4" d="M264.46,311.24l-29.25,2a29.09,29.09,0,0,0-15.74,5.94l-9.32,7.14c-2.38-4.73-18.05-36-22.84-44.49a43.17,43.17,0,0,0-4-5.76,157.33,157.33,0,0,0-16-16.52l9.95-10.44L207.15,251l34.8,2.42a115.79,115.79,0,0,1,13.13,18.46,69.18,69.18,0,0,1,4.33,9.18C262,287.88,263.29,299.67,264.46,311.24Z"/><path class="cls-5" d="M255.08,271.9c-20.56-3.14-44.79-3.4-55.11-3.82-6.55-.26-12.26,3.51-16.66,8a157.33,157.33,0,0,0-16-16.52l9.95-10.44L207.15,251l34.8,2.42A115.79,115.79,0,0,1,255.08,271.9Z"/><path class="cls-6" d="M291.89,544.82c-22.79,7-35.39-16-36.36-24.72s-17.21-17.21-24-26.67S240,469.19,240,469.19s-.24-34.42-1.21-39.76c-.53-2.9-2.87-7.27-4.87-10.62a18.89,18.89,0,0,1-2.66-11.12l1.36-18.22,1.42-19c36.2,12.12,39.57,1.47,39.57,1.47h0a18.56,18.56,0,0,1,1.58,7.51v.26c0,3-.14,6.85-.27,11.23-1,32-3.9,93.8-3.9,93.8,4.37,1,4.61,5.82,7.52,17.46S314.68,537.79,291.89,544.82Z"/><path class="cls-7" d="M275.21,379.41v.26c0,1.89-.07,4.09-.14,6.55v.39c0,1.36-.08,2.79-.12,4.29-5.31,7.51-32.4,1.18-42.31-1.43l.44-6,.44-5.8.54-7.24c36.2,12.12,39.57,1.47,39.57,1.47h0A18.56,18.56,0,0,1,275.21,379.41Z"/><path class="cls-6" d="M275.21,379.67l-.14,6.55v.39c-.91,1.84-6.74,5.52-42-3.14l.44-5.8C245.28,382.13,268.31,389.22,275.21,379.67Z"/><path class="cls-8" d="M291.89,544.82c-22.79,7-35.39-16-36.36-24.72s-17.21-17.21-24-26.67c-3.32-4.61-1.37-10.51,1.49-15.33h0c.7-1.16,1.45-2.27,2.18-3.28h0a49.1,49.1,0,0,1,4.8-5.62l.73,10.21a20.77,20.77,0,0,0,4.87,11.93l1.86,2.19a6.32,6.32,0,0,0,7.65,1.57l.12-.06a13,13,0,0,1,4.29-1.26c3.72-.44,11.19-2.17,11.51-9.07a4.69,4.69,0,0,1,2.71,1.62h0a7.48,7.48,0,0,1,1,1.58h0c1.29,2.73,2.07,7.27,3.82,14.24a21.34,21.34,0,0,0,3.43,6.5c2.27,3.24,5.31,6.83,8.24,10.48h0c4.46,5.55,8.65,11.25,9.45,16C300.39,539.32,298.48,542.79,291.89,544.82Z"/><path class="cls-9" d="M290.23,519.14c-.31-.06-7.64-1.24-18.18,4.43a2.1,2.1,0,0,1-3.08-2,22.33,22.33,0,0,0-.36-6.46A15.43,15.43,0,0,0,257,503.37h0s0-4.36,6.31-6.3,12.48-2.05,11.45-9.15c1.29,2.73,2.07,7.27,3.82,14.24a21.34,21.34,0,0,0,3.43,6.5C284.26,511.9,287.3,515.49,290.23,519.14Z"/><path class="cls-5" d="M257.73,376c-8.74.51-22.34,3.61-21.35,18,1.45,21.09,9.94,17.21,9.45,48s-5.34,48.15,2.66,52.44c0,0-5.11,5.84-2.07,13.18-5.18-4.59-11.33-9.27-14.89-14.23C224.74,484,240,469.19,240,469.19s-.24-34.42-1.21-39.76c-.53-2.9-2.87-7.27-4.87-10.62a18.89,18.89,0,0,1-2.66-11.12l2.78-37.26.06-.79a13.61,13.61,0,0,0-2-8.22l-21.63-34.53s-.11-.21-.29-.6c-2.38-4.73-18.05-36-22.84-44.49-5.18-9.21-20-22.28-20-22.28l9.95-10.44s30.3,19.88,36.36,39.75,30.3,15.76,32.48,15c-1.66.61-10.51,4.07-16.28,10.23-7,7.47,0,39.71,5.86,39.71s14.06-5.61,19.15-1.71c0,0-14.54,4.14-13.09,11.17C242.86,368.8,249.35,374.63,257.73,376Z"/><path class="cls-7" d="M398.55,330c-5.82,10.91,1.21,19.64-14.06,22.06S358.55,333,358.55,333l-18.42-8.72c-72-21.14-87.72-44.38-91.16-53.37a12.7,12.7,0,0,0-5.41-6.34c-1.12-.67-2.25-1.39-3.06-2-1-.79-4.33-1-7.79-.91-4.63.06-9.53.56-9.53.56s-1,.69-14.88.13c-7.94-.32-20.09-1.05-38.67-2.55-51-4.13-43.79-43.88-51.31-55.52-7.35-11.37,1.68-15.57,2.1-15.74h0v-8.17c11.09-5.83,43.89-4.72,70.33-2.47h0l5.05.45c13.87,1.29,25.31,2.82,29.79,3.64,4,.74,6,1,7,1.45h0c2.24,1-.5,2.9,5.22,13.34a29,29,0,0,0,5.92,7.41h0c9.61,8.8,23.74,12.21,28.24,23.36,5.58,13.82,20.85,29.58,20.85,29.58,6.06,6.54,25.21,18.05,42.85,27.93s33.75,18.13,33.75,18.13a7.55,7.55,0,0,1,5.63-2.77l14.49-.38s18.18-17.7,25.46-1.7S404.37,319.14,398.55,330Z"/><path class="cls-5" d="M243.77,204.14s-29.94-13.72-48.36-14-1.21-4.85,10.18-2.18,13.33-.3-5.33-5.58c-3.59-1-4.8-2.46-4.42-4.12,13.87,1.29,25.31,2.82,29.79,3.64,13.26,2.42,4-.24,12.2,14.79A28.72,28.72,0,0,0,243.77,204.14Z"/><path class="cls-2" d="M398.55,330c-2.77,5.21-2.63,9.91-3.36,13.67,0,0,0,0,0,0-.82,4.12-2.71,7.1-10.69,8.37C369.22,354.53,358.55,333,358.55,333l-18.42-8.72c-72-21.14-87.72-44.38-91.16-53.37l-.05-.14a12,12,0,0,0-1.25-2.35,13.16,13.16,0,0,0-4.11-3.85c-1.12-.67-2.25-1.39-3.06-2a6.85,6.85,0,0,0-3-.78h0c-5.12-.49-14.3.43-14.3.43s-1,.69-14.88.13a53.39,53.39,0,0,1-.82-16.82,48.5,48.5,0,0,1,1.75-8.52c12.14-40.47,33.74-33.12,34.52-32.83h0a50.83,50.83,0,0,0,7.06,5.3c1.22.79,2.46,1.54,3.7,2.29l0,0c4.6,2.77,9.13,5.37,12.61,8.75l.23.24A20,20,0,0,1,272,227.5a67.9,67.9,0,0,0,6.63,12c2.48,3.68,5.15,7.12,7.5,10,3.77,4.58,6.72,7.62,6.72,7.62,6.06,6.54,25.21,18.05,42.85,27.93s33.75,18.13,33.75,18.13a7.55,7.55,0,0,1,5.63-2.77l14.49-.38s18.18-17.7,25.46-1.7S404.37,319.14,398.55,330Z"/><g class="cls-10"><path class="cls-11" d="M231.66,261.63h0Z"/><path class="cls-11" d="M232.15,261.62h0Z"/><path class="cls-11" d="M207.48,245.48c-8.55,9-15.06,8.14-20.17,8.93-7.72,1.19,6.91-27,7.36-27.86-10.19,12.85-33.93,27.37-48.23,16.23s-18.18-34.18,0-49c17.82-14.49,43.29-15.91,44.32-16-26.44-2.25-59.24-3.36-70.33,2.47v8.17s-9.62,4.12-2.11,15.75.32,51.39,51.31,55.52c18.58,1.5,30.73,2.23,38.67,2.55A53.69,53.69,0,0,1,207.48,245.48Z"/></g><path class="cls-5" d="M232.6,183.38c-17.35,5.8-65.55,2.19-80.29-.87-14.53-3-31.41,5.72-31.88,6v-8.17c11.09-5.83,43.89-4.72,70.33-2.47h0l5.05.45c13.87,1.29,25.31,2.82,29.79,3.64C229.67,182.67,231.62,182.94,232.6,183.38Z"/><path class="cls-3" d="M286.14,249.46c-9.25,6.14-21.68,14.7-21.68,14.7l-15.54,6.56a12,12,0,0,0-1.25-2.35,13.16,13.16,0,0,0-4.11-3.85c-1.12-.67-2.25-1.39-3.06-2l1.23-.5a10.66,10.66,0,0,0,6-6.37c2.23-6.49,7.43-18.05,16.7-20.63,12.31-3.43,4.57-12.53,2.94-14.28A20,20,0,0,1,272,227.5a67.9,67.9,0,0,0,6.63,12C281.12,243.17,283.79,246.61,286.14,249.46Z"/><path class="cls-6" d="M398.55,330c-5.82,10.91,1.21,19.64-14.06,22.06S358.55,333,358.55,333l-18.42-8.72c-47.61-14-70.61-28.88-81.72-40-5.7-5.68-8.27-10.37-9.44-13.41a12,12,0,0,0-1.3-2.49c0-.91,12.69-31.36,31-28.88A135.87,135.87,0,0,0,288.25,252c2.7,3.15,4.61,5.12,4.61,5.12,6.06,6.54,25.21,18.05,42.85,27.93s33.75,18.13,33.75,18.13a7.55,7.55,0,0,1,5.63-2.77l14.49-.38s18.18-17.7,25.46-1.7S404.37,319.14,398.55,330Z"/><path class="cls-7" d="M288.25,252a47.69,47.69,0,0,0-29.84,32.31,58.38,58.38,0,0,1-4.54-5.08,38.67,38.67,0,0,1-3.56-5.42,25.86,25.86,0,0,1-1.34-2.91,12,12,0,0,0-1.3-2.49c0-.91,12.69-31.36,31-28.88.74,1.1,1.5,2.18,2.26,3.22,1,1.35,2,2.64,2.91,3.86C285.39,248.59,286.92,250.42,288.25,252Z"/><path class="cls-6" d="M283.81,246.57c-7.05,3.36-20.94,12.24-29.94,32.62a38.67,38.67,0,0,1-3.56-5.42c3.92-9.71,12.81-25.45,30.59-31.06C281.87,244.06,282.85,245.35,283.81,246.57Z"/><path class="cls-8" d="M398.55,330c-5.8,10.87,1.17,19.58-13.91,22h-.15c-9.6,1.53-17.37-6.42-21.82-12.55a51,51,0,0,1-4.12-6.6l8.25,1.22a36.1,36.1,0,0,1-1.4-21,31.61,31.61,0,0,1,4.06-10,7.55,7.55,0,0,1,5.63-2.77l14.49-.38s8.12-7.88,15.68-8.34l.44,0H406c3.49,0,6.81,1.7,9.07,6.68h0a18.15,18.15,0,0,1,.69,1.72l.1.28C420.8,314.71,404.12,319.6,398.55,330Z"/><path class="cls-9" d="M398.55,330c-5.8,10.87,1.17,19.58-13.91,22,3.16-6,4-17.45,6.64-25.2,3.88-11.39,13.09-19.87,17.7-26.6,4-5.88,6.25-1.48,6.75-.28l.1.28C420.8,314.71,404.12,319.6,398.55,330Z"/><path class="cls-9" d="M415,298.28c-.29-.35-7.47-8.53-17.2,0-7.12,6.24-13.24,15.67-16.14,20.52a2.07,2.07,0,0,1-3.84-.81,12.37,12.37,0,0,1,.34-3.95,31.61,31.61,0,0,0-7.44,7.28,2.64,2.64,0,0,1-4.73-.76,22.87,22.87,0,0,1-.62-7.43,31.61,31.61,0,0,1,4.06-10,7.55,7.55,0,0,1,5.63-2.77l14.49-.38S407.75,282.3,415,298.28Z"/><path class="cls-5" d="M395.18,343.73c-.82,4.12-2.71,7.1-10.69,8.37C369.22,354.53,358.55,333,358.55,333l-18.42-8.72c-72-21.14-87.72-44.38-91.16-53.37a12,12,0,0,0-1.3-2.49,13.16,13.16,0,0,0-4.11-3.85c-1.12-.67-2.25-1.39-3.06-2-2.42-1.84-17.32-.35-17.32-.35s-1,.69-14.88.13a53.39,53.39,0,0,1-.82-16.82s7.81,12.57,18,8.69,23.27,5.82,34.18,18.91,26.67,8.69,48.24,24.22,51.88,32.22,56.72,27.39c0,0,1,9.23,6.07,15.78S388.17,359.34,395.18,343.73Z"/><path class="cls-6" d="M436.69,211.19s.65,7.75-2.1,9.21-11.19-17.7-11.19-17.7c-1.57,3.78-7.56-.89-7.56-.89L409.45,197a17.84,17.84,0,0,1-5.67-7.2c-8.16-19.06-13.95-19.21-13.95-19.21-54.95-18.09-42-23.91-57.21-26.33-12.54-2-27.93-7.53-32.93-9.4a10.17,10.17,0,0,0-3.49-.63h-2.6a15.66,15.66,0,0,1-7.46-1.89L267,122a6.38,6.38,0,0,0-5.11-.44L254.79,124a16.44,16.44,0,0,0-8.69,6.87c-2.63,4.21-6.91,11-12.71,20.38-2,3.3-3.59,5.92-4.72,8v0c-2.63,4.87-3.11,6.94-2.87,8.25A11.5,11.5,0,0,0,227,170c1.18,2.75-3.26,4.52-3.26,4.52,6,4.7,1.93,7.44,1.93,7.44a311.84,311.84,0,0,1-40.9-.22c-12.75-.82-24-2.05-32.42-2.7-6.64-.52-11.51-.68-13.94,0a52.17,52.17,0,0,1-17.94,1.29c-.38-3.18.18-11.22,1-19.82.18-1.88.37-3.78.57-5.66,1.21-11.43,2.61-22.19,2.61-22.19,3.18-19.88,3.64-32.9,3-41.39,0,0,0-.1,0-.19,0-.64-.1-1.25-.17-1.83l0-.32C125.94,76.73,122,75.43,122,75.43c-1.25-.67-5.74,1.19-9.15,2.8a7.25,7.25,0,0,1-3,.68,7.16,7.16,0,0,1-4.65-1.72,3.06,3.06,0,0,0-1-.59h0a3.28,3.28,0,0,0-2.86.28,3,3,0,0,0-.61.46c-7.09,7-26.71,28.27-39.1,34.47-14.23,7.1-28.44,27.47-28.44,27.47C35.1,156.4,32,162.54,25.89,166.9s-5.67-2.59-10.67-6S2.61,140.4,12.31,131.83,38.49,98.06,38.49,98.06c35.76-46.48,45.61-46.62,59-52.36h0a63.07,63.07,0,0,0,15.35-9.31c19.78-15.77,30.08-13.42,41.58-9.52l.07,0c3.05,1,6.17,2.18,9.58,3.13q5.44,1.5,9.67,2.62h.06l1.61.44c8.71,2.31,13,3.29,13,3.29l1.79.44,51.89,12.92a64.21,64.21,0,0,0,8.22,7.12c1.53,1.12,3.25,2.31,5.14,3.48a63.59,63.59,0,0,0,15.88,7.17c7.16,2.06,14.17,6.23,20,10.44l.05,0a117.53,117.53,0,0,1,12.44,10.51,16.58,16.58,0,0,0,3.91,2.82c2.61,1.35,7.26,3.8,12.5,6.71,10.62,5.9,23.68,13.72,27.26,18.3,6.3,8.09,21.66,7.28,39.27,22.31s25.86,18.75,26.67,21.81c.52,2,10.21,8.94,17.14,13.73a16.15,16.15,0,0,1,3.81,3.7l.08.1a16.06,16.06,0,0,1,3.09,9.2,143,143,0,0,0,.93,15.78C439.6,210.54,436.69,211.19,436.69,211.19Z"/><path class="cls-7" d="M247.67,107c-.43,12.49-5.9,17.24-11.64,28.22s-6.64,22.64-7.36,24v0c-2.63,4.87-3.11,6.94-2.87,8.25A11.5,11.5,0,0,0,227,170c1.18,2.75-3.26,4.52-3.26,4.52,6,4.7,1.93,7.44,1.93,7.44a311.84,311.84,0,0,1-40.9-.22c-12.75-.82-24-2.05-32.42-2.7,10.56-12.14-2.16-10.57,6.25-19.75s3.56-26.3,5.78-32.66-3.41-7.76-2.46-12.66,7.35-3,6.67-10.92-5.46-13.37,5.18-42.2c7.8-21.15,4.16-26.43,1.67-27.73,8.71,2.31,13,3.29,13,3.29l1.79.44,51.89,12.92a64.21,64.21,0,0,0,8.22,7.12c1.53,1.12,3.25,2.31,5.14,3.48C258.85,75.13,248,96.92,247.67,107Z"/><path class="cls-5" d="M291.32,78c-1-.58-17.47-10-28.76-5.32-11.64,4.82-29.24,36.2-63.22,26.44s-14.21-60.65-44.86-72.18c3.05,1,6.17,2.18,9.58,3.13q5.44,1.5,9.67,2.62h.06l1.61.44c8.71,2.31,13,3.29,13,3.29l1.79.44,51.89,12.92a64.21,64.21,0,0,0,8.22,7.12c1.53,1.12,3.25,2.31,5.14,3.48a63.59,63.59,0,0,0,15.88,7.17C278.52,69.57,285.53,73.74,291.32,78Z"/><path class="cls-5" d="M184.73,181.71c-22.81-1.46-40.86-4.25-46.36-2.69a52.17,52.17,0,0,1-17.94,1.29c-.38-3.18.18-11.22,1-19.82,1.28-13.26,3.18-27.85,3.18-27.85,3.18-19.88,3.64-32.9,3-41.39,0,0,0-.1,0-.19,0-.64-.1-1.25-.17-1.83l0-.32C125.94,76.73,122,75.43,122,75.43c-1.25-.67-5.74,1.19-9.15,2.8a7.25,7.25,0,0,1-3,.68,7.16,7.16,0,0,1-4.65-1.72,3.06,3.06,0,0,0-1-.59h0a3.28,3.28,0,0,0-2.86.28c-2-4.05-4.43-9.47-4.77-12.88,0,0,5,11.44,25.09,9.92a14.5,14.5,0,0,1,14.92,10c2.4,7.53,4.08,19.58,2,38.31C134,162.37,162.73,166.45,184.73,181.71Z"/><path class="cls-2" d="M104.17,76.59a3.3,3.3,0,0,0-3.47.74c-.64.63-1.38,1.38-2.22,2.22C90.13,88,72.88,106.16,61.6,111.8c-6.51,3.24-13,9.26-18.13,14.83a133.73,133.73,0,0,0-10.31,12.64C35.1,156.4,32,162.54,25.89,166.9c-2.57,1.82-4,1.67-5.12.62h0c-1.58-1.45-5.13,5.53-8,3.56-1.5-1-3.67-1.85-5.1-4.7l-5.51-4.69c-3.36-6.74-4.46-16.24,10.19-29.85a74.56,74.56,0,0,0,5.6-5.81c3.13-3.61,6.46-7.93,9.51-12.08,6.1-8.27,11.07-15.88,11.07-15.88C63,66.26,75.29,56.16,84.93,51.11h0c4.44-2.33,8.31-3.58,12.53-5.4C92.44,66.64,101.09,74.51,104.17,76.59Z"/><path class="cls-12" d="M43.47,126.63a133.73,133.73,0,0,0-10.31,12.64c-5.88-8.69-11.33-12.05-15.25-13.25,3.13-3.61,6.46-7.93,9.51-12.08A22,22,0,0,1,43.47,126.63Z"/><path class="cls-2" d="M436.69,211.19s.65,7.75-2.1,9.21-11.19-17.7-11.19-17.7c-1.62,4.1-7.56-.89-7.56-.89L409.45,197a17.84,17.84,0,0,1-5.67-7.2,73.17,73.17,0,0,0-6.68-12.65c-4.46-6.49-7.27-6.56-7.27-6.56l-4.68-1.56c-49.54-16.87-37.79-22.41-52.53-24.77-9.26-1.48-20.09-4.89-27.12-7.31-2.5-.87-4.5-1.6-5.81-2.09a10.41,10.41,0,0,0-2.25-.55c-.16-.31-3-6.55,9.72-19.55,8.72-8.87,9.59-13.34,13.06-16.77,3,1.67,6.19,3.48,9.31,5.34,7.92,4.71,15.38,9.67,18,13,6.3,8.09,21.66,7.28,39.27,22.31,3.56,3,6.73,5.6,9.53,7.79,11.12,8.71,16.5,11.58,17.14,14,.52,2,10.21,8.94,17.14,13.73a16.1,16.1,0,0,1,7,13,143,143,0,0,0,.93,15.78C439.6,210.54,436.69,211.19,436.69,211.19Z"/><path class="cls-12" d="M413.42,160.43c-.82,15.52-16.32,16.74-16.32,16.74-4.46-6.49-7.27-6.56-7.27-6.56l-4.68-1.56a65.74,65.74,0,0,0,11.13-22.64C407.4,155.12,412.78,158,413.42,160.43Z"/><path class="cls-13" d="M185.89,43.38s-16.91,18-8.18,38.89,45.88,25.5,53.61,2.22,9.15-35.95,9.15-35.95l-40-18.6L195.05,35Z"/><path class="cls-14" d="M250.34,56.86c-6.85,10.92-20.17,31.54-25.11,34.89-6.79,4.61-32.49,8.25-43.15-9.69-7.65-12.86-3.52-23-.56-27.77a.08.08,0,0,0,0,0,18.73,18.73,0,0,1,2.13-2.85l.7-1.56,5.87-13,.22,0,51.67,12.87a64.37,64.37,0,0,0,8.12,7Z"/><path class="cls-15" d="M250.24,56.78c-7.11,11.27-19.18,29.71-23.83,32.87-6.79,4.6-32.48,8.24-43.15-9.7-6.66-11.2-4.38-20.36-1.74-25.66a.08.08,0,0,0,0,0,24.39,24.39,0,0,1,2.83-4.41c.3-.36.48-.55.48-.55l5.61-12.42,51.67,12.87A64.37,64.37,0,0,0,250.24,56.78Z"/><path class="cls-2" d="M254.56,46.66S247.8,65,238.33,80.5c-1.25,2-2.55,4-3.89,6A53.68,53.68,0,0,1,224,98.07a10.71,10.71,0,0,1-13,0c-3.22-2.45-7.62-6.72-13.13-14.09l-2.19-.92-9.27-3.85a11.37,11.37,0,0,1-5.46-4.69,15,15,0,0,1-.91-1.9h0a17.5,17.5,0,0,1-1.1-6.32c0-7.32,3.68-14.17,3.68-14.17l1.08-.74c-1.82-4.41-2-9.17,1.08-11.51l0,0a7.29,7.29,0,0,1,3.16-1.31c.51-2.16,1-4.38,1.56-6.44.8-3.3,1.55-6.19,2.05-7.76C193.23,19,248,17.82,254.56,46.66Z"/><path class="cls-16" d="M238.33,80.5c-1.25,2-2.55,4-3.89,6a1,1,0,0,1-1.21-.19c-3.4-4.37-1.63-8.29-1.63-8.29s2,1.83,2.28,2.31,2.58.56,2.58.56Z"/><path class="cls-17" d="M216.69,100.25a10.39,10.39,0,0,1-4.74-1.5,7.74,7.74,0,0,1-1-.66c-3.22-2.45-7.62-6.72-13.13-14.09l-2.19-.92-9.27-3.85a11.37,11.37,0,0,1-5.46-4.69,15,15,0,0,1-.91-1.9h0a17.5,17.5,0,0,1-1.1-6.32c0-7.32,3.68-14.17,3.68-14.17l1.08-.74c-1.82-4.41-2-9.17,1.08-11.51l0,0a7.29,7.29,0,0,1,3.16-1.31,2.06,2.06,0,0,1,1.08-.29c1.82,0,5.66,1.83,9.41,15.81a1,1,0,0,0,1.84.22l4.6-8.82v0h.34a8.84,8.84,0,0,0,7.71-5.23,3.39,3.39,0,0,1,3.8-2c-.14.17-11.43,13.62-10.47,21.49A16.09,16.09,0,0,0,209.92,68a11.5,11.5,0,0,1,2.26,10C210.43,85.36,209.07,97,216.69,100.25Z"/><path class="cls-18" d="M257.9,43.56l0,0a12.53,12.53,0,0,1-3.31,3.06c-10.82,7-29.23-3.2-36.7-8a3.31,3.31,0,0,0-1.82-.53,3.43,3.43,0,0,0-3.13,2,8.84,8.84,0,0,1-7.71,5.23h-.34l-4.61,8.85a1,1,0,0,1-1.84-.22c-5.15-19.23-10.49-15.52-10.49-15.52.29-9.25,2.13-16.35,4.67-21.8a28,28,0,0,1,3.63-5.82h0A29.47,29.47,0,0,1,220.36,0l11.35.46A22.23,22.23,0,0,1,248,8.59C257.57,20.22,264.19,35.11,257.9,43.56Z"/><path class="cls-19" d="M193.41,56c0-.36-.06-3.26-2.16-4.8s-6.59-3.86-5.36-7.77A1.88,1.88,0,0,1,187.74,42a5.3,5.3,0,0,1,2.3.67c1.71,1,3.43,3.24,3.6,8.42A31.45,31.45,0,0,1,193.41,56Z"/><path class="cls-20" d="M193.64,51.11c-2.21-1.51-5.7-3.78-4.6-7.25a2,2,0,0,1,1-1.17C191.75,43.66,193.47,45.93,193.64,51.11Z"/><path class="cls-5" d="M133.62,50.54c-7.45,14.18-6.77,32-6.26,38.37C125.94,76.73,122,75.43,122,75.43c-1.25-.67-5.74,1.19-9.15,2.8a7.25,7.25,0,0,1-3,.68,7.16,7.16,0,0,1-4.65-1.72,3.06,3.06,0,0,0-1-.59h0a3.3,3.3,0,0,0-3.47.74c-7.09,7-26.71,28.27-39.1,34.47-14.23,7.1-28.44,27.47-28.44,27.47C32.6,129.05,54.81,103.39,68.39,98S90.2,81.57,96,76.85c3.72-3,3.55-5.35,2.94-6.64,6.66,8.8,10.1,1.24,15-9.39,5.09-11,3.39-7.85,4.12,4C118.64,74.08,129,58.11,133.62,50.54Z"/><path class="cls-5" d="M20.76,167.51c-1.58-1.45-.93-1.56-.63-5a51.45,51.45,0,0,0,1.63-7.57c-1.53,9.92,1.28,3,1.53,2.68A23.89,23.89,0,0,0,20.76,167.51Z"/><path class="cls-5" d="M436.69,211.19s.65,7.75-2.1,9.21-11.19-17.7-11.19-17.7c-2.87,4.17-7.56-.89-7.56-.89L409.45,197a17.84,17.84,0,0,1-5.67-7.2c-8.16-19.06-13.95-19.21-13.95-19.21-54.95-18.09-42-23.91-57.21-26.33-12.46-2-27.73-7.45-32.83-9.36a10.12,10.12,0,0,0-2.35-.59,10.46,10.46,0,0,0-1.24-.08h-2.6a15.66,15.66,0,0,1-7.46-1.89L267,122a6.38,6.38,0,0,0-5.11-.44L254.79,124a16.44,16.44,0,0,0-8.69,6.87c-2.63,4.21-6.91,11-12.71,20.38-10.34,16.65-7.6,16-6.43,18.75s-3.26,4.52-3.26,4.52c6,4.7,1.93,7.44,1.93,7.44-39.92,2.74-78.7-5.33-87.26-2.91a52.17,52.17,0,0,1-17.94,1.29c-.38-3.18.18-11.22,1-19.82,12.63,17,40.12,19.63,25,7.81-12.62-9.87-15.36-28.64-15.9-38.27,2.58,13.91,19.51,34.72,37.72,45.6,21.09,12.6,2.67-16.37,2.67-16.37,16.48,12.71,33.21,7.64,9.94-17.57s-40-26.33-40-26.33c14.88-8,42.66,24.39,49.36,13.72s-36-28.8-36-28.8,21.82.2,46.06,20.32,27.15,10.91,42.91,2.91c12.13-6.16,12.33-18,11.79-23.05,3.54,18.06,18,17.46,24.33,17.23,6.54-.24,14.06-14.06,14.06-14.06,1,6.06-8.25,11.88-5.58,18.62s14.35-1.68,14.35-1.68c.28,10.64,1.89,7.54,17.89,13.12,11.78,4.11,26.85,12.55,34,16.71a44.78,44.78,0,0,0,8.8,3.93c28.91,9.4,40.62,18.45,40.62,24.21,0,6.06,3.21,15.81,10.18,17.94s.06-5-.23-5.33c17.44,10.43,15.5,32.23,20.84,25.93,5.19-6.14-7.09-28.38-7.73-29.53l8.21,11.83-3.26-15.82a.35.35,0,0,1,.48-.38l3,1.42c2.66-1.77,0-5.92-.46-6.64a16.06,16.06,0,0,1,3.09,9.2,143,143,0,0,0,.93,15.78C439.6,210.54,436.69,211.19,436.69,211.19Z"/><path class="cls-2" d="M240.74,71.48V81a2.93,2.93,0,0,1-2.06,2.8,2.82,2.82,0,0,1-1.79,0,16.51,16.51,0,0,1-4.41-2.23,2.87,2.87,0,0,1-.5-4.14l5.77-7a1.65,1.65,0,0,1,1.74-.56A1.68,1.68,0,0,1,240.74,71.48Z"/><path class="cls-21" d="M187.12,55.85l-3.46-4.45c-1.82-4.41-2-9.17,1.08-11.51C184.41,40.26,179.88,45.61,187.12,55.85Z"/><path class="cls-22" d="M197.83,84l-2.19-.92-2.29-1-7-2.9a11.37,11.37,0,0,1-5.46-4.69c8.49,4.57,11.25-4.52,11.9-7.47a.09.09,0,0,1,0,0c.08-.34.13-.6.15-.74s0-.11,0-.11C192.67,73.23,196.22,81.25,197.83,84Z"/><path class="cls-22" d="M180,72.63a17.5,17.5,0,0,1-1.1-6.32c0-7.32,3.68-14.17,3.68-14.17l1.08-.74S179,65.14,180,72.63Z"/><path class="cls-23" d="M239.49,69.86s-10.11,11.8-.83,13.93h0a2.82,2.82,0,0,1-1.79,0,16.51,16.51,0,0,1-4.41-2.23,2.87,2.87,0,0,1-.5-4.14l5.77-7a1.65,1.65,0,0,1,1.74-.56Z"/><path class="cls-23" d="M197.83,84l-2.19-.92-2.29-1a36,36,0,0,1-.54-15.06.09.09,0,0,1,0,0c.06-.36.12-.6.15-.74s0-.11,0-.11C192.67,73.23,196.22,81.25,197.83,84Z"/><path class="cls-3" d="M212,98.75a7.74,7.74,0,0,1-1-.66c-3.22-2.45-7.62-6.72-13.13-14.09,0,0-9.37-15-2.1-31.35,0,0-1.64-12.17-6.73-14.38,1.82,0,5.66,1.83,9.41,15.81a1,1,0,0,0,1.84.22l4.6-8.82C204.51,46.57,194.54,78.63,212,98.75Z"/><path class="cls-24" d="M257.87,43.6a12.53,12.53,0,0,1-3.31,3.06c-10.46,6.79-28-2.54-35.92-7.46h0l-.76-.49a3.1,3.1,0,0,0-1-.42,2.89,2.89,0,0,0-.82-.11,3.43,3.43,0,0,0-3.13,2,8.84,8.84,0,0,1-7.71,5.23h-.34l-4.61,8.85a1,1,0,0,1-1.84-.22c-5.15-19.23-10.49-15.52-10.49-15.52.29-9.25,2.13-16.35,4.67-21.8A27.36,27.36,0,0,1,196,11.18l.19-.24c0,.27,0,.54.05.8h0c1.35,16.44,15.42,10.28,33.4,26.44C247.28,54,257.18,44.32,257.87,43.6Z"/><path class="cls-25" d="M216.86,38.28a2.89,2.89,0,0,0-.82-.11,3.43,3.43,0,0,0-3.13,2,8.84,8.84,0,0,1-7.71,5.23h-.34l-4.61,8.85a1,1,0,0,1-1.84-.22c-5.15-19.23-10.49-15.52-10.49-15.52.29-9.25,2.13-16.35,4.67-21.8A27.36,27.36,0,0,1,196,11.18l.24.56h0C190,22.72,210.56,34.87,216.86,38.28Z"/><path class="cls-3" d="M104.17,76.59a3.3,3.3,0,0,0-3.47.74c-.64.63-1.38,1.38-2.22,2.22C90.15,70.4,92.79,56.11,91,53,89,49.4,85.24,51,85,51.1c4.44-2.33,8.31-3.58,12.53-5.4C92.44,66.64,101.09,74.51,104.17,76.59Z"/><path class="cls-3" d="M329.53,103.35c-8.73-1.65-11.78,13.78-18.9,19.92-3.77,3.25-4.9,9-5.13,13.7-2.5-.87-4.5-1.6-5.81-2.09a10.41,10.41,0,0,0-2.25-.55c-.16-.31-3-6.55,9.72-19.55,8.72-8.87,9.59-13.34,13.06-16.77C323.22,99.68,326.41,101.49,329.53,103.35Z"/><path class="cls-5" d="M225.63,181.93a311.84,311.84,0,0,1-40.9-.22c-22.81-1.46-40.86-4.25-46.36-2.69a52.17,52.17,0,0,1-17.94,1.29c-.38-3.18.18-11.22,1-19.82.18-1.88.37-3.78.57-5.66,0,0,9.07,20.8,42,11.1s37.17,18.68,61.73,1.58A11.5,11.5,0,0,0,227,170c1.18,2.75-3.26,4.52-3.26,4.52C229.67,179.19,225.63,181.93,225.63,181.93Z"/><path class="cls-26" d="M208.3,262.3c-7.94-.32-20.09-1.05-38.67-2.55-51-4.13-43.79-43.88-51.31-55.52-7.35-11.37,1.68-15.57,2.1-15.74-.3.33-5.51,6.2,2.27,11.62,8,5.58,25.53,4.4,31.79,19S152.58,253,208.3,262.3Z"/><path class="cls-3" d="M250.83,209.44c-3-1.54-7.23-3-10.57-1.33-4.59,2.3-21.53,21.34-21.41,37.72a14.65,14.65,0,0,0,11.07,14l7.56,1.95c-5.12-.49-14.3.43-14.3.43s-1,.69-14.88.13a53.39,53.39,0,0,1-.82-16.82,48.5,48.5,0,0,1,1.75-8.52c12.14-40.47,33.74-33.12,34.52-32.83h0A50.83,50.83,0,0,0,250.83,209.44Z"/><path class="cls-5" d="M291.89,544.82c-22.79,7-35.39-16-36.36-24.72s-17.21-17.21-24-26.67c-3.32-4.61-1.37-10.51,1.49-15.33-1.53,3.56-2.06,9.87,6,18.16,12.93,13.25,16.81,12.61,20.69,24.88s32.4,31.9,40,14C300.39,539.32,298.48,542.79,291.89,544.82Z"/><path class="cls-5" d="M398.55,330c-5.8,10.87,1.17,19.58-13.91,22h-.15c-9.6,1.53-17.37-6.42-21.82-12.55,4.65-1.55,11.62-.56,17-.37,10.12.34,15.2-26.18,15.54-36.85.31-9.67,8.91-10.63,10.52-10.72H406c3.49,0,6.81,1.7,9.07,6.68h0a18.15,18.15,0,0,1,.69,1.72l.1.28C420.8,314.71,404.12,319.6,398.55,330Z"/><path class="cls-6" d="M362.31,270.56a33.57,33.57,0,0,0,4.56,1.91,35.59,35.59,0,0,1-19.24-4.66L362,270.37Z"/><path class="cls-9" d="M354.63,239.66A35.52,35.52,0,1,0,368,237.07,35.17,35.17,0,0,0,354.63,239.66Z"/><path class="cls-6" d="M339.51,288.41a26.56,26.56,0,0,1-5-4,35.78,35.78,0,0,1-1.15-19.92,32.29,32.29,0,0,1,2.43-4c.28-.4.54-.81.84-1.2l8.56,5.06v.22a66,66,0,0,0,1.37,13.67.09.09,0,0,1,0,.05l-6.63,10.4A4.63,4.63,0,0,1,339.51,288.41Z"/><path class="cls-6" d="M364.89,303.41l-16.92-3a52.52,52.52,0,0,1-5.29-7.67c-.39-.69-.82-1.36-1.15-2.08l6.62-10.39.5.12a110.75,110.75,0,0,0,12.61,2.52l.64.08,7.94,13.74c-1.38,1.94-2.77,3.86-4.2,5.77C365.41,302.8,365.16,303.1,364.89,303.41Z"/><path class="cls-6" d="M393.05,297.55a34.89,34.89,0,0,1-4.28,3.65,31.44,31.44,0,0,0-1.28-5.83L396,279.56a39.23,39.23,0,0,0,6.68-3.77,2.74,2.74,0,0,0,.67-.64A35.31,35.31,0,0,1,393.05,297.55Z"/><path class="cls-6" d="M392.67,277c.32.61.63,1.21.94,1.83l-8.19,15.27-.14,0a74.15,74.15,0,0,1-13.38,1.29l-8.17-14.13q1.9-3.54,3.78-7.1c.85-1.61,1.68-3.23,2.51-4.85l16.91-1.74A94,94,0,0,1,392.67,277Z"/><path class="cls-6" d="M389.24,258.93c-.8,2.12-1.66,4.22-2.51,6.32l-16.48,1.69c-.19-.26-.4-.52-.61-.76l-5.86-6.59.05-.06-2.37-2.36,4.59-13.81a7.76,7.76,0,0,1,1-.19c2.49-.25,5-.54,7.49-.68a35.58,35.58,0,0,1,4.62,0l11.35,12.79C390.08,256.48,389.7,257.72,389.24,258.93Z"/><path class="cls-6" d="M393.05,247.35a35.4,35.4,0,0,1,7.27,10.52,36.18,36.18,0,0,0-6.77-3.64c-.37-.15-.76-.28-1.14-.42l-11.17-12.59a12.64,12.64,0,0,0,.13-1.63A35.45,35.45,0,0,1,393.05,247.35Z"/><path class="cls-6" d="M356.58,238.93s.06.06.09.06a28.38,28.38,0,0,1,7.06,3.72l-4.28,12.91-.07,0c-.87.36-1.77.69-2.63,1.08a76.64,76.64,0,0,0-10.29,5.55l-8.46-5a2.84,2.84,0,0,1,.15-.77c.57-1.51,1.13-3,1.77-4.52a34.34,34.34,0,0,1,1.67-3.32c.41-.44.82-.88,1.25-1.31a35.16,35.16,0,0,1,13.82-8.55A.57.57,0,0,0,356.58,238.93Z"/><path class="cls-5" d="M394.59,291.82a35.36,35.36,0,0,1-48-47.49,35.63,35.63,0,0,0-5.74,5.45A35.38,35.38,0,1,0,395,295.32a34.88,34.88,0,0,0,4.38-6.58A35.41,35.41,0,0,1,394.59,291.82Z"/><image class="cls-27" width="200" height="200" transform="matrix(0.11, 0.01, -0.01, 0.11, 214.84, 111.5)" xlink:href="../Logo200-200.png"/></g></g></g></svg>