<svg xmlns="http://www.w3.org/2000/svg" viewBox="0 0 290.65 401.77"><defs><style>.cls-1{fill:#ddad7c;}.cls-2{fill:#cc9667;}.cls-3{fill:#7c411e;}.cls-4{fill:#13337a;}</style></defs><g id="Calque_2" data-name="Calque 2"><g id="Calque_1-2" data-name="Calque 1"><path class="cls-1" d="M285,121.09c-3.78-13.92-8-29.07-7.29-43.57s1.5-29.23-2.05-43.36c-1.37-5.44-1.41-17.77-4.85-21.84-7.19-8.54-7.27,6.46-7.27,10.68,0,6.5.24,13.59-3.06,19.37-4.44,7.77-10.77,9.22-4.68,18.18,4.23,6.22,8.74,10.86,9,18.73.27,7.18-3.35,14.67-4.55,21.81-2,11.86-.14,27.16,7.53,37.13-9.24-11-18.58-22.6-31.5-29.26C224.75,103,207.8,93.74,194.45,94.14c2.06,3.83,3.73,12.87,3.09,19.32-1,9.73.39,16.16,6.58,24.07a40.94,40.94,0,0,0,14.26,11.08s32.12,18.47,56.8,20.92a23,23,0,0,0,4.17.25l.88,0-.07-.07c4.81-.41,8.57-2.9,9.79-9.13C292.34,148.42,288.13,132.82,285,121.09Z"/><path class="cls-2" d="M128.42,220.82c-6.42,10.31-1.49,32.6.65,43.7,3.11,16.16,5.79,32.1,6.45,48.55.67,16.64,3.11,32.07,6.43,48.41,1.34,6.59,2.54,12.41,2.6,19.17,0,2.62,1,8.14,0,10.55-2,5-2.15,3.15-7.15,2.39-12.25-1.88-24.18,1.91-35.63,6.12,11.31,3.13,27.94,1.23,39.66,1.79,8.24.4,12.38,1.5,12.76-7.25.32-7.21.76-14.16,1.44-21.3,1.31-13.89,3.67-28,2.47-42.31-1.13-13.37-4.42-26.35-5.34-40-1.09-16.08.85-32.46-.47-48.57-.35-4.31-.56-17.14-3.7-20.53-2.5-2.71-11.6-8.72-20.21-.76Z"/><path class="cls-1" d="M136.36,228.53c-.08-.75-.13-1.5-.16-2.22s0-1.32,0-2a8.24,8.24,0,0,1,0-.86c0-.8,0-1.57.08-2.34v0a43.92,43.92,0,0,1,.49-4.72c1.33-8-.63-13.87-4.34-17.77a75.1,75.1,0,0,0-9.73,13.2c-1.1,2.28-2.12,4.74-3.17,7.48-3.72,9.84-14.51,16.42-24.93,16.86,1.52,5.68,6,11.15,8.31,16.7l-.65,2.58c10.3-12.47,29.53-.57,41.32,1.31,1.55.24,3.41.65,5.4,1C141,250.39,137.18,238.83,136.36,228.53Z"/><path class="cls-1" d="M107.91,233c-.67,8.78-3.49,17-4.29,26.29-.67,7.6.92,13.12-7.86,13.57-6.61.33-12.18-1.73-18.62,1.22-2.06-4.82-3.18-8.52-7.19-12s-9.17-4.84-13.6-7.41a36.38,36.38,0,0,1-11.6-10.45,23.27,23.27,0,0,1-4.51-14.58c1-18.22,9.06-28.06,19.62-32.55,2.73-.92,35.9-11.23,47.46,24.33A41.47,41.47,0,0,1,107.91,233Z"/><path class="cls-3" d="M91.93,189c0,6.77-8,12.26-17.78,12.26S56.37,195.76,56.37,189s8-12.26,17.78-12.26S91.93,182.22,91.93,189Z"/><path class="cls-4" d="M205.58,119c-2.89-12.29-6.12-26.4-18.84-31.64-14.23-5.86-28-3.07-33.43,12.26-5.08,14.4-4.77,28.8,2.92,41.65,5.86,9.76,10.4,18.17,6,29.53-2.86,7.3-8.57,12.23-14.79,16.62-1,.68-1.93,1.33-2.9,2v0l-.14.07c-2.53,1.72-5.08,3.41-7.47,5.16-.92.65-1.76,1.31-2.55,2a70.3,70.3,0,0,0-9.43,11.5c3,.72,6.72,2.26,8.67,5.83a31.2,31.2,0,0,1,2.53,9.55.22.22,0,0,1,0,.13c0,.88,0,1.78,0,2.69.05.69.1,1.42.16,2.14v.08A55.85,55.85,0,0,0,140,244.17a37.6,37.6,0,0,0,8.88,13.47c4.93,1,10.66,2,14.56.75,6.84-2.22,13.73-12.67,18.73-18,10.69-11.31,18.1-25.22,18.07-41.12,0-7.77-.93-14.61,2.61-21.14,3.61-6.73,7.2-11,7.71-19.15C211.49,144.39,208.75,132.57,205.58,119Z"/><path class="cls-1" d="M145.63,220.82c-6.43,10.31-1.49,32.6.64,43.7,3.12,16.16,5.8,32.1,6.46,48.55.66,16.64,3.11,32.07,6.43,48.41,1.34,6.59,2.53,12.41,2.6,19.17,0,2.62,1,8.14,0,10.55-1.95,5-2.14,3.15-7.15,2.39-12.24-1.88-24.17,1.91-35.63,6.12,11.31,3.13,28,1.23,39.67,1.79,8.23.4,12.38,1.5,12.76-7.25.31-7.21.76-14.16,1.43-21.3,1.32-13.89,3.67-28,2.47-42.31-1.12-13.37-4.41-26.35-5.33-40-1.09-16.08.84-32.46-.47-48.57-.36-4.31-.56-17.14-3.7-20.53-2.51-2.71-11.61-8.72-20.21-.76Z"/><path class="cls-1" d="M188.22,106.72a21.19,21.19,0,0,0,.29-10.44h0c0-.09,0-.2-.06-.3a1.84,1.84,0,0,0,0-.25c-.09-.46-.2-1-.33-1.46,0-.14-.07-.28-.11-.42s-.09-.33-.14-.51a56.5,56.5,0,0,0-3.36-9c-2.06-4.79-4.67-10.09-7.33-15.19A157.45,157.45,0,0,0,164.25,46l-.09-.16v0C146.8,20.11,126.53,6.08,121,2.56,108.43-6.16,94.52,9.21,83.8,21.63,69.08,38.68,56,55.16,38,68.74,21,81.59,9.15,98,1.64,118.63c-6.42,17.61,7.62,3.65,14-1.7,8-6.68,15-7.15,24.28-10.32,18.31-6.23-1.25-9.47,1.67-19,.19-.63,1-1.26,2.06-1.87,4.07-3.49,13.7-10.85,25-13.16,0,0,37-10.7,45.25-35.68,7.86,7.62,11.55,22.71,15.22,33.7h0s8.77,42,30.76,47.75h0l.22.06a19.77,19.77,0,0,0,2.46.45c4.67.67,14.5,1,21.49-6.22a12.19,12.19,0,0,0,4.15-5.93l0,0Z"/><path class="cls-3" d="M93.3,235a29.05,29.05,0,0,1,3.47.41c1,.15,7.66,1,11.18-3.12a40.79,40.79,0,0,0-.63-10.87c-11.56-35.56-44.73-25.25-47.46-24.33-10.56,4.49-18.59,14.33-19.62,32.55a23.27,23.27,0,0,0,4.51,14.58c1-1.09,1.82-1.95,2.57-2.68a9.21,9.21,0,0,1,3.4-2.81,13.78,13.78,0,0,1,6-1.17c7.66,0,16.94,3.71,22-1.28,4.2-4.16-3.57-12.77,6.41-13C90.71,223.19,97.43,229.71,93.3,235Z"/></g></g></svg>