<svg xmlns="http://www.w3.org/2000/svg" viewBox="0 0 498.71 666.43"><defs><style>.cls-1{fill:#fac9a5;}.cls-2{fill:#73250e;}.cls-3{fill:#e62e27;}.cls-4{fill:#1d1d1b;}.cls-5{fill:#121818;}.cls-6{fill:#fff;}.cls-7{fill:#283133;}.cls-8{fill:#000100;}.cls-9{fill:#88715c;}.cls-10,.cls-17{fill:none;}.cls-11{fill:#8e7560;opacity:0.76;}.cls-12{fill:#9c2417;}.cls-13{fill:#9c716b;}.cls-14{fill:#fbbe4b;}.cls-15{fill:#c2c2c2;}.cls-16{fill:#afca0b;}.cls-17{stroke:#000;stroke-miterlimit:10;}.cls-18{fill:#34698a;}.cls-19{fill:#99b4c5;}</style></defs><g id="Calque_2" data-name="Calque 2"><g id="Calque_1-2" data-name="Calque 1"><path class="cls-1" d="M389,367.15s10.21,2.3,11.23,23.74-1.53,23.88,0,27.71,5.11,23.23,5.11,23.23-.26,5.74-9.58,9.32S378,456.8,368.33,454c0,0-8.3-20.81-10.85-28.22S389,367.15,389,367.15Z"/><path class="cls-2" d="M321.24,214.22s-1.95-5.94,3-7,20.56-3.32,31.54,8,21.7,27.83,19.78,47c0,0-3.19,10.34-7.78,14.43a8.7,8.7,0,0,0-1.15,11.78s-3.07.34-3.58-1.83.13,4,2.17,4.6,1,34.49-5.49,39.7-42.12-32.55-42.12-32.55l-15.83-14.17s-2.94,9.7-11,10.47a13.8,13.8,0,0,0,8.55-12.64c.13-9.58-6.13-.51-7.66,5.74s-3.57,13.79-10.6,12.39c0,0,5.75-1.88,7.15-7.77s.26-10.23,1.66-12.15-8.42,5.49-9.7,18.13c0,0,1.28-16.72,10.85-21.58s3.7-15.06,3.83-17.1,4.73-20.3,4.73-20.3-2.3-2.81,1.53-9.45,9.7-20.68,13.53-20.42,7.15-1.5,8.94.72S321.24,214.22,321.24,214.22Z"/><path class="cls-3" d="M342.12,311.66a50.94,50.94,0,0,1,17,14.81c7,9.87,14.29,15.83,17.19,16s10.21,4.25,16.34,18.21c0,0,3.57,4.43,4.59,4.77s-.17,8.17-1.36,10.55-8.51,21.62-21.1,27.57c0,0-7.15,10.56-7.83,16.34s-6.64,12.26-10.56,13.28c0,0,.68,5.11,2.73,5.45s.51,18.21-7,24c0,0-9,11.4-10,15.66s-2.73,8.34-1.37,9.7-.51,3.23-2.55,6.47,1.19,6.47,2.55,8.34,1.37,8.51-4.59,10-16.51,7-47.15,2-76.09-42.21-74.72-45.44-.4-5.45,0-6.47,6-9.19,5.81-11.92,1.19-10,2.73-12.93-1.2-6.3-.17-8.68,5.91-2.39,4.74-4.94-3.55-10.89-1.51-14.3,3.91-10.21,3.23-14.12a437.72,437.72,0,0,1-4.93-56.35s-5.62-9.36-2.56-13.78,33.2-37.79,33.2-37.79a17.5,17.5,0,0,1,7.14,7.32c2.39,4.94,13.62,10.21,14.3,10.72s12.6,1.36,13.62-.17,4.08-6.25,11.91-3.8S342.12,311.66,342.12,311.66Z"/><path class="cls-1" d="M368.16,269.62c-1.68,4-5.48,6.12-8.12,7.37-.86.41-1.6.72-2.1,1-2,1-5.27,11.57-5.27,11.57-9.37,17-4.77,26.9-4.26,31.83s5.79,9.7,5.79,9.7c-.17,9.54-10.73,16.86-10.73,16.86s-15.48,10.55-16.68,7.14-13.27-19.23-15-20.08-9.54-11.75-9.37-16.17-6.12-9.19-6.63-10.55-.18-4.77.68-4.77c.57,0,2-6.56,2.7-11.31a25,25,0,0,0,.41-4.37v-.06c0-.11,0-.19-.05-.26a30.38,30.38,0,0,0-2.67-4.52c-.95-1.44-1.78-2.63-1.78-2.63-4.27-15.66-1.4-28.85.39-30.57s2.7-7.05,2.7-7.05c.34-8.68,3.91-12.93,4.93-13.61s8.34-12.6,9.88-11.92,9-3.74,9-3.74c7.66-1,20.08,7.15,20.08,7.15s-.34,4.76,6.81,11.57a20.8,20.8,0,0,1,6,18.89c-.68,3.24-3.58,16-.85,13.45s8.17-4.94,12.08-5.62S370.37,264.34,368.16,269.62Z"/><path class="cls-1" d="M192.33,135.49s1.53-7.49,1.53-8.51,4.08-8.51,4.94-8.51,2-4.26,3.23-7.66,6.3-8.51,10.21-9.19,6.29-.7,5.11-4.77-12.6-1.87-14.81-1.19-23,8.85-31.15,4.77-11.06,3.06-8.34,7.83,6.3,9.36,4.6,13.27.17,11.41.17,11.41Z"/><path class="cls-4" d="M166.12,130.72s3.06-3.23,5.1-2.89,16.68-.68,21.79,5.11c0,0,1,7,0,8.34s-3.18,33,.45,47.32,2.1,25.7,2.61,27.23.34,7,12.26,18.21,24.09,33.73,24.09,33.73l-22.56,24.32s-13.28.68-17.87-6.47-2.22-6.47-4.94-12.09-15.32-26.21-17-29.1-3.4-9.54-5.45-13.11-4.42-15.66-3.74-24.68.51-21.45,2.21-32.85S166.8,134.3,166.12,130.72Z"/><path class="cls-1" d="M255.92,290.36c-1.82,14.24-9.25,42.19-20,46.85s-13.14-4.47-13.14-4.47l-1.15-4.59s-12.39-17.43-16.41-20.55-9.64-18.83-9.64-18.83,4.79,1.53,11.11-1.22,22.15-17.49,22.15-17.49,2.11-2,2.17-3.89,4.6,7.85,4.79,10.28S256.06,289.31,255.92,290.36Z"/><path class="cls-1" d="M444.41,573.32s-4.42,4.21,10.39,9.49c0,0,8.17,3.91,11.57,6s32.51,10.89,32.34,12.42a3.45,3.45,0,0,1-2.72,3.07s1.88,5.31-3.1,4.52c0,0-8.58-4.15-10-4.73,0,0-.35,5.75-6.09,2.78s-9.76-5-11.38-5.21-9.1-.17-10.55-.26-4.34,2.81-9.45-.25-5.7-2.39-9.1-2.39-12.82-6.89-12.09-15.57c0,0-1.56-3.74-.7-4.72s9.93-7.47,14.46-6.1S444.41,573.32,444.41,573.32Z"/><circle class="cls-4" cx="178.29" cy="54.13" r="54.13"/><path class="cls-5" d="M208.24,618.38s-18.64.39-33.19,3.58-32.81,7.78-37.91,4.59c0,0-3.71-.14-4.22,1.08s-1.27,3.77,0,4.54,9.83,3.32,8.17,9.06-5,12.51-6.12,12.51,4.72,2.56,6.63,2.56,28.47-1.6,36.13-.8,32.3,0,35.24-1.76S208.24,618.38,208.24,618.38Z"/><path class="cls-5" d="M402.16,441.45s5.1-1.66,5.36,3.19.38,13.4,2.17,16.85,4.08,3.83,2.43,4.85.25,3.06,1.4,3.06,1.15,4.73,0,4.6,1.79,1.4,1.91,2.81,7.28,17.36,9.58,32.42,8.42,34.22,8.42,34.22,1.54,11,2.81,12.12,1.92,2.81,1.41,5.24,2.81.76,2.93,1.66,1,3.44,0,4.34S442,568,442,568a2.85,2.85,0,0,1,1,2.81c-.38,1.78,1.79,2.17,1.91,3.57a12.87,12.87,0,0,0,.51,2.55s-4.85-3.06-6.76-3.06-5.36-.51-7.53,1-6.77,4.21-6.77,5.11.13,3.19.26,4.21-2.69-1.4-2.3-2.68-1.28-2.17-1.28-2.17,1-3.32-.13-4.72-3.19-2.56-3.95-7.41c0,0-24.39-41-30-56.17s-9.83-25.53-11-31.66-5.87-19.91-7.15-20.81-2-9.57,0-8.29S402.16,441.45,402.16,441.45Z"/><path class="cls-1" d="M264.5,609.87s-5.45-10.72-35.92,1c0,0-14.21,6-25.19,7.3,0,0,8.73,23.47,7.34,36.26,0,0,42.53,2.36,51.39,0S264.5,609.87,264.5,609.87Z"/><path class="cls-5" d="M350.71,604.61s4,23.22-4.08,30.88-13.15,9.19-16,10.47-11.53,10.38-73.41,9.19c0,0-12-36.23,0-50.54s54.26-21,61.92-19.55S349.69,600.46,350.71,604.61Z"/><path class="cls-1" d="M342.29,589.15s10.85,12.66,9.83,26.37c0,0-3.92-11.43-7.58-14.24s-7.36-10.34-21.28-12.13-29.87.64-36.76,15.19c0,0-9.45,1.66-11.62,1s1-25.4,12.51-25.27S332.84,579.06,342.29,589.15Z"/><path class="cls-6" d="M338.54,578.38s8.68,17,9.19,19.92c0,0-12.25-16.17-28.93-15.49s-24.51-.34-36.94,13.28c0,0-3.74,6.29-3.92,9.53,0,0-17.36,2.55-20.25,1.19s-14.3-.9-16.34.4-9-5.68-8-9.25,66.89-51.75,86-37.28S338.54,578.38,338.54,578.38Z"/><path class="cls-5" d="M344.54,589.77c.23.48.35.79.37.85A7.72,7.72,0,0,1,344.54,589.77Z"/><path class="cls-5" d="M353.35,570.89s-4.94,15.15-7.66,15.66c-1.84.34-1.55,2.07-1.17,3.17-2.1-4.41-13.19-23.17-48.53-20-40,3.58-55.32,31.49-55.83,36.6s-10.39-9.87-10.39-9.87-11.4,3.57-15.57,3.23S178,615.8,162.65,615.52q-.5,0-1,0c-5.69-.39-14.63-11.29-23.17-25.71,12.1,1.1,17.47.77,17.47.77a16.06,16.06,0,0,0-.58-2.32l-.16-.5c-.18-.57-.29-.89-.29-.89s-11.5-2-19.16-1.81c-12.64-22.68-23.51-51.62-20.22-63l.15-.48s12.77-2,17-1.53c0,0,10.89-9,15.15-9s1.87,3.4,8,1.7,7.49-3.91,6.3-6.47,2-8,4.93-8.85,7.66-4.59,8-5.27.49,1.42,1.83,0a25.32,25.32,0,0,1,16.86-9.79s6-8.73,13.27-10.47c0,0,4.73-6.38,8.43-6.13S334.45,511,334.45,511s8.17,4.25,2.39,13.11c0,0-1.37,3.23,1,4.59s16.51,22.64,17.36,29.79A23.36,23.36,0,0,1,353.35,570.89Z"/><path class="cls-7" d="M87,528.34a17.07,17.07,0,0,0-11.07,1.19c-5.78,2.73-23.66,4.43-31.49,4.09s-19.74,6.81-26,14.81S5.26,569.36,5.26,576.34s-2.72,3.57-3.4,6.64S-.52,599.66.16,605.11s14.3,22.46,39.49,15c0,0,11.4-9.88,13.44-19.07,0,0,10.73-9.72,12.77-11.24,0,0,1,5.79,7.49,3.41s24.85-7,31.32-5.38S87,528.34,87,528.34Z"/><path class="cls-6" d="M155,586.84s-11.5-2-19.16-1.81a16.81,16.81,0,0,0-5.18.67c-.89.33-.74,1.53.15,3.29-15.34-1.47-28.5-.11-30.87-1.59a8.82,8.82,0,0,0,2.89-8.76c-1.19-5.7-12.25-35.15-17.7-43.66,0,0-3.4-6-4.76-6.3s4.68-1.36,5.78-1.36c0,0,3.92-4.34,15.58-3.4A76.4,76.4,0,0,1,115.58,522a24,24,0,0,1,6.19.54c7.07,1.79,12.34,9.2,14.81,15.24C136.58,537.79,151,574.51,155,586.84Z"/><path class="cls-6" d="M138.52,589.78c-1.78-.17-3.7-.36-5.77-.59l-2-.2c-.89-1.76-1-3-.15-3.29a16.81,16.81,0,0,1,5.18-.67Q137.15,587.46,138.52,589.78Z"/><path class="cls-6" d="M156,590.55s-5.37.33-17.47-.77q-1.36-2.32-2.72-4.75c7.66-.14,19.16,1.81,19.16,1.81s.11.32.29.89l.16.5A16.06,16.06,0,0,1,156,590.55Z"/><path class="cls-8" d="M162.65,615.52q-.5,0-1,0c-5.69-.39-14.63-11.29-23.17-25.71,12.1,1.1,17.47.77,17.47.77a16.06,16.06,0,0,0-.58-2.32C156.91,592.83,161.64,607.7,162.65,615.52Z"/><path class="cls-9" d="M338.85,285.39c2.27,0,4.09-1.55,5.33-3.23.65-.83,1.29-1.63,2-2.42s1.29-1.65,1.94-2.53l.53-.68a3.36,3.36,0,0,1,.4-.44l.13-.1.06,0,.19-.1a.86.86,0,0,1,.23-.06.77.77,0,0,1,.31,0,1,1,0,0,1,.47.2l.17.16.06.09a1.23,1.23,0,0,1,.16.5V277a.81.81,0,0,0,.32.72,2.4,2.4,0,0,0,2.42.31,4.9,4.9,0,0,0,.66-.31,5,5,0,0,1,.8-.41,7.77,7.77,0,0,1,1.67-.49,22.63,22.63,0,0,1,3.41-.28l-.12,1a6.62,6.62,0,0,0-4.56.61,4.16,4.16,0,0,0-.62.41,6.39,6.39,0,0,1-.77.5,3.84,3.84,0,0,1-3.84,0,2.6,2.6,0,0,1-1.24-2c0-.06,0,0,0,0a.83.83,0,0,0,.11.3l.05.07a1.06,1.06,0,0,0,.15.15.86.86,0,0,0,.43.18h.25a.59.59,0,0,0,.19-.05.58.58,0,0,0,.14-.07h0l0,0s-.06.09-.12.19l-.41.67a26.17,26.17,0,0,1-1.94,2.77,9.3,9.3,0,0,1-2.58,2.29,17.64,17.64,0,0,1-3.15,1.42,9.39,9.39,0,0,1-1.63.45A15.2,15.2,0,0,1,338.85,285.39Z"/><path class="cls-9" d="M299.1,236.54a28.78,28.78,0,0,1,3-3.78,19.66,19.66,0,0,1,3.69-3.2,9,9,0,0,1,2.36-1.13,4.5,4.5,0,0,1,5.27,1.91c.28.42.43.76.65,1.14a11.22,11.22,0,0,1,.55,1.16,9.66,9.66,0,0,1,.85,5.29,7.74,7.74,0,0,1-.94,2.71,9.05,9.05,0,0,1-1.76,2.13c-1.15,1.09-2.39,1.88-3.61,2.86a7.82,7.82,0,0,0-1.58,1.67,2.43,2.43,0,0,0-.53,2.15l0,.13a7.2,7.2,0,0,0-.67,3.29,3.13,3.13,0,0,0,.5,1.54,2.24,2.24,0,0,0,1.29.86l-.21.61a3.28,3.28,0,0,1-1.47-1.21,4,4,0,0,1-.56-1.76,7.91,7.91,0,0,1,.07-1.82,12.73,12.73,0,0,1,.38-1.77h0l0,.12c.29-.84.41-1.6.66-2.41a19.37,19.37,0,0,1,.92-2.35,11.42,11.42,0,0,1,3-4,5.34,5.34,0,0,0,2-3.2,7.76,7.76,0,0,0-.48-4,15.44,15.44,0,0,0-.88-2,2.75,2.75,0,0,0-1.16-1.18c-1-.47-2.44-.1-3.76.55A33.7,33.7,0,0,0,299.1,236.54Z"/><path class="cls-9" d="M321.74,229.14A1.62,1.62,0,0,1,323,228c.51-.14,1-.27,1.53-.37a23.41,23.41,0,0,1,3.12-.43,18.65,18.65,0,0,1,6.26.63,15.38,15.38,0,0,1,1.49.51l1.44.65c.46.26.89.56,1.33.84a7.54,7.54,0,0,1,1.23,1,16.32,16.32,0,0,1,3.74,4.8l-.22.14-1-1.12a7.24,7.24,0,0,0-1-1.07l-1.08-1a12.07,12.07,0,0,0-1.19-.83,13.31,13.31,0,0,0-5.2-2.1,17.82,17.82,0,0,0-5.6-.12,20.22,20.22,0,0,0-2.77.54c-.46.11-.9.25-1.35.39a1.52,1.52,0,0,1-1.53-.15Z"/><path class="cls-10" d="M299.2,292.18c-2.79-3.28-4.76-6.37-5-8.65l2.73-.56a30.38,30.38,0,0,1,2.67,4.52c0,.07,0,.15.05.26v.06A25,25,0,0,1,299.2,292.18Z"/><path class="cls-11" d="M338.85,285.39c-2.79,9.42-13.05,26-16.23,25.72-13.45-1.23-15.84-9.51-22.51-17.84a3.31,3.31,0,0,1-.7-2.54,17.33,17.33,0,0,0,.2-2.92v-.06a5.66,5.66,0,0,1,1.18-3.52C306.82,278.67,330.16,285.68,338.85,285.39Z"/><path d="M286.21,604.31c.06-.27.16-.19.24-.23l.25-.07.52-.12,1-.22a9.87,9.87,0,0,1,2.1-.17,18.48,18.48,0,0,1,4.17.59,14.63,14.63,0,0,1,3.92,1.57,10.27,10.27,0,0,1,3.12,2.74l-.07.06a8.55,8.55,0,0,0-3.32-2.26,16.68,16.68,0,0,0-3.89-.91c-1.32-.17-2.65-.27-4-.31q-1-.06-2-.21l-1-.13-.51-.06-.26,0c-.09,0-.16.07-.27-.18Z"/><path d="M288.44,604.08c0-.27.13-.2.21-.25l.25-.1.49-.17c.34-.11.67-.23,1-.33a9.71,9.71,0,0,1,2.07-.4,18.47,18.47,0,0,1,4.2.14,15,15,0,0,1,4.07,1.14,10.36,10.36,0,0,1,3.4,2.39l-.07.07a8.6,8.6,0,0,0-3.53-1.89,17.12,17.12,0,0,0-4-.49c-1.33,0-2.67,0-4,.12-.67,0-1.34,0-2,0-.34,0-.68,0-1,0h-.77c-.1,0-.16.09-.3-.15Z"/><path d="M292.13,603.46c0-.27.09-.23.15-.3l.23-.15.45-.29.92-.57a10,10,0,0,1,1.93-.91,24.65,24.65,0,0,1,4.14-1.06,26.53,26.53,0,0,1,4.26-.36,21.13,21.13,0,0,1,4.22.45l0,.09a15.58,15.58,0,0,0-4.15.07,32.87,32.87,0,0,0-4,.94c-1.32.4-2.63.82-3.93,1.27a18.51,18.51,0,0,1-2,.53l-1,.24-.51.12-.25.07c-.1,0-.14.12-.33-.08Z"/><path class="cls-6" d="M48.66,610.3a40.39,40.39,0,0,1-14.14,3.59,34.94,34.94,0,0,1-14.65-2,30.5,30.5,0,0,1-6.62-3.47,31.29,31.29,0,0,1-5.53-5,36.74,36.74,0,0,1-7-12.8l.15-.07A52,52,0,0,0,9.1,602.19a32.54,32.54,0,0,0,11.57,7.62,38.18,38.18,0,0,0,13.78,2.28,54.37,54.37,0,0,0,14.11-2Z"/><path d="M66,589c-.29,0-.25-.16-.34-.26l-.19-.32c-.13-.21-.26-.42-.4-.62-.27-.42-.56-.81-.85-1.21l-1.79-2.32a30.14,30.14,0,0,0-3.92-4.3,23.71,23.71,0,0,0-10.3-5.58l0-.09A28.78,28.78,0,0,1,54,576a24.6,24.6,0,0,1,2.74,1.32c.45.25.86.55,1.3.82a13.37,13.37,0,0,1,1.24.89,21.25,21.25,0,0,1,4.33,4.35A14.38,14.38,0,0,1,65.16,586c.21.47.41.94.58,1.42.09.24.17.48.25.72l.12.37c0,.13.15.21,0,.43Z"/><path class="cls-9" d="M441.5,584.35a50,50,0,0,0,4.78,5.08,22.07,22.07,0,0,0,2.71,2.13,16.12,16.12,0,0,0,3.05,1.53c1.08.43,2.2.75,3.31,1.3a3.34,3.34,0,0,1,1.45,1.3,2.7,2.7,0,0,1,.17,2,6.33,6.33,0,0,1-5.15,4.65l0-.08a8.38,8.38,0,0,0,2.81-1.91,6.06,6.06,0,0,0,1.57-2.84,1.89,1.89,0,0,0-.08-1.43,2.65,2.65,0,0,0-1.12-1c-1-.5-2.11-.84-3.21-1.28a14.31,14.31,0,0,1-3.17-1.66,23,23,0,0,1-2.72-2.29,38.13,38.13,0,0,1-4.55-5.37Z"/><path class="cls-9" d="M463.27,590.43c3.75,2.47,7.51,4.93,11.23,7.45,1.86,1.25,3.73,2.5,5.57,3.79.46.32.91.63,1.38,1a6.28,6.28,0,0,1,1.3,1.2,1.5,1.5,0,0,1,.2,1,4,4,0,0,1-.2.88,2.85,2.85,0,0,1-1,1.49,4,4,0,0,1-3.43.66,5.41,5.41,0,0,1-1.55-.81c-.47-.27-1-.54-1.46-.79-2-1-4-2-6-3l-6.05-3c-1-.49-2-1-3-1.54a20.58,20.58,0,0,1-2.89-1.72,20.54,20.54,0,0,0,3,1.59l3.05,1.42,6.12,2.81c2,1,4.07,1.9,6.09,2.91.5.25,1,.51,1.5.79a5.33,5.33,0,0,0,1.42.76,3.51,3.51,0,0,0,3-.56,2.33,2.33,0,0,0,.84-1.24,1.67,1.67,0,0,0,.05-1.41,6.13,6.13,0,0,0-1.17-1.07c-.43-.33-.9-.65-1.36-1l-5.52-3.85-11.07-7.67Z"/><path class="cls-9" d="M476.12,599c3.34.87,6.63,1.87,9.91,2.84,1.65.47,3.29,1,4.94,1.41a28.28,28.28,0,0,0,5,1,14.71,14.71,0,0,1-5.21-.15,48.36,48.36,0,0,1-5.06-1.21q-2.49-.74-4.92-1.65c-1.61-.6-3.21-1.27-4.77-2Z"/><path class="cls-12" d="M267.51,405.65c.11,1.76.06,3.34,0,5l-.16,4.94c-.1,3.29-.3,6.58-.48,9.87l-.61,9.86-.75,9.84c-.27,3.29-.59,6.57-.9,9.85s-.7,6.5-.86,9.73a82.25,82.25,0,0,0,0,9.68,36.1,36.1,0,0,0,1.73,9.38l-.94.54a19.36,19.36,0,0,1-2-4.73,39.89,39.89,0,0,1-1.07-4.94,59.2,59.2,0,0,1-.54-10c.12-3.34.48-6.68.86-9.91l1-9.8L265,425.31l1-9.81.51-4.9c.14-1.62.36-3.32.41-4.85Z"/><path class="cls-12" d="M289.3,437.23a27.39,27.39,0,0,1,0,3.75l-.17,3.65c-.09,2.44-.17,4.86-.2,7.29s0,4.85,0,7.26.18,4.84.33,7.25.39,4.82.62,7.21.59,4.77,1.08,7.11a58.1,58.1,0,0,0,1.71,6.94c.39,1.12.75,2.26,1.24,3.34a18.5,18.5,0,0,0,1.63,3.06l-.78.77a20.8,20.8,0,0,1-4-6.44,44.85,44.85,0,0,1-2.32-7.12,75.79,75.79,0,0,1-1.89-14.72,117.23,117.23,0,0,1,.27-14.76c.19-2.45.46-4.9.82-7.32l.58-3.64.3-1.8a14.64,14.64,0,0,0,.23-1.74Z"/><path class="cls-12" d="M306.22,441.12a3.59,3.59,0,0,1-.15,1.13l-.25,1c-.17.65-.36,1.29-.55,1.92L304.18,449c-.7,2.56-1.36,5.13-1.93,7.7a98.68,98.68,0,0,0-2.3,15.6,70.35,70.35,0,0,0,0,7.82c.07,1.3.19,2.59.36,3.88l.14,1a7.08,7.08,0,0,0,.16.8,12.59,12.59,0,0,0,.62,1.66,56.91,56.91,0,0,0,3.86,6.7c1.42,2.21,2.92,4.4,4.38,6.62l-.83.71a54.21,54.21,0,0,1-5.47-6,36.71,36.71,0,0,1-4.47-6.91,13.68,13.68,0,0,1-.79-2.07,7.88,7.88,0,0,1-.25-1.15l-.13-1c-.16-1.36-.26-2.72-.32-4.08a63.25,63.25,0,0,1,.19-8.15,84.09,84.09,0,0,1,3-15.87c.73-2.59,1.57-5.14,2.5-7.65l1.42-3.74.72-1.86.35-.93a5.64,5.64,0,0,0,.24-.83Z"/><path class="cls-12" d="M241.42,342.59a104.35,104.35,0,0,1,1.71,20.28c0,1.71-.06,3.41-.15,5.11s-.25,3.41-.45,5.11a77.68,77.68,0,0,1-1.78,10.12c-.83,3.37-1.94,6.55-2.94,9.77s-2.09,6.42-3.14,9.62c-2.15,6.4-4.35,12.78-6.78,19.1l-1-.33c1.62-6.57,3.47-13.06,5.37-19.54,1-3.23,1.92-6.47,2.93-9.69s2.07-6.44,2.93-9.61A106.64,106.64,0,0,0,241,362.8c.21-3.34.26-6.69.24-10.05s-.15-6.73-.42-10.07Z"/><path class="cls-13" d="M322,213.44a15.66,15.66,0,0,1,8.23-5.21,20.93,20.93,0,0,1,9.92-.52,25,25,0,0,1,9.11,3.9,38.23,38.23,0,0,1,7.33,6.5,74.81,74.81,0,0,1,11.15,15.78,40.57,40.57,0,0,1,3.28,9.1,27.77,27.77,0,0,1,.61,4.8c.09,1.61-.06,3.21-.1,4.81a33,33,0,0,0-1.09-9.47,40.11,40.11,0,0,0-3.63-8.75,77.67,77.67,0,0,0-11.46-15.13,38.73,38.73,0,0,0-7.12-6.07,28.05,28.05,0,0,0-4.08-2.18,28.47,28.47,0,0,0-4.38-1.37,21,21,0,0,0-9.09.24,44.11,44.11,0,0,0-8.67,3.58Z"/><path class="cls-13" d="M325.09,213.36a8.78,8.78,0,0,1,4.52-2,18.87,18.87,0,0,1,5,0,28.75,28.75,0,0,1,9.41,2.93,51.65,51.65,0,0,1,8.2,5.28,55.82,55.82,0,0,1,7.13,6.62,47.47,47.47,0,0,1,5.73,7.86,41.75,41.75,0,0,1,3.81,8.92,42.79,42.79,0,0,1,1.71,9.5c.1,1.61.11,3.22.06,4.82s-.22,3.2-.27,4.79c0-1.6.06-3.2,0-4.79s-.14-3.19-.33-4.77a44.82,44.82,0,0,0-2.07-9.26,43.94,43.94,0,0,0-9.79-16,56.66,56.66,0,0,0-7.07-6.24,50.09,50.09,0,0,0-8-4.94,31.84,31.84,0,0,0-8.77-3,22.77,22.77,0,0,0-4.59-.25,25.38,25.38,0,0,0-4.66.55Z"/><path class="cls-13" d="M328.9,214.28a3.26,3.26,0,0,1,1.86-1,6.05,6.05,0,0,1,2.08,0,13.42,13.42,0,0,1,3.9,1.16,24.7,24.7,0,0,1,6.5,4.51,53.29,53.29,0,0,1,10,11.92A42.7,42.7,0,0,1,359.48,253c0,1.29,0,2.57-.13,3.85s-.26,2.56-.3,3.84c0-1.29.06-2.57.07-3.85s0-2.55-.08-3.82a45.46,45.46,0,0,0-1.07-7.55,43.43,43.43,0,0,0-5.9-13.9,51,51,0,0,0-10-11.29,32.89,32.89,0,0,0-6.16-4.11,15.6,15.6,0,0,0-3.36-1.28c-.29-.06-.58-.09-.87-.17s-.59-.11-.88-.14c-.6-.12-1.18-.21-1.89-.29Z"/><path class="cls-13" d="M359.51,278a38.56,38.56,0,0,1-1.74,6.08,59.45,59.45,0,0,0-1.57,6,55.27,55.27,0,0,0-.86,6.12,42.66,42.66,0,0,0,.06,6.19,92.49,92.49,0,0,0,2,12.39c.45,2.06.95,4.11,1.44,6.16l.69,3.1a18.6,18.6,0,0,1,.47,3.14,48.34,48.34,0,0,0-1.74-6.08q-1-3-1.87-6.06a83.24,83.24,0,0,1-2.7-12.48,37,37,0,0,1,.55-12.88,39,39,0,0,1,1.89-6.18A13.76,13.76,0,0,1,359.5,278Z"/><path class="cls-13" d="M351.87,292.18a22.22,22.22,0,0,1-.34,4.17c-.21,1.34-.27,2.71-.37,4.08-.12,2.73-.19,5.48-.07,8.24a20.31,20.31,0,0,0,1.49,7.91,12.55,12.55,0,0,0,2.21,3.38c.44.53.93,1.05,1.36,1.63a3.08,3.08,0,0,1,.71,2c-.23-1.44-1.52-2.2-2.54-3.15a13.85,13.85,0,0,1-2.74-3.33,20.32,20.32,0,0,1-2.27-8.31,48.23,48.23,0,0,1-.08-8.5,30.48,30.48,0,0,1,.66-4.23,6.74,6.74,0,0,1,2-3.87Z"/><path class="cls-13" d="M356.52,230.44c2.45,1.07,4.24,3.24,5.71,5.44a25.08,25.08,0,0,1,3.18,7.34c.35,1.29.59,2.56.88,3.84s.57,2.55.75,3.87a55.37,55.37,0,0,1,.2,7.91l-1.09.11c-.15-1.31-.28-2.63-.38-3.94a23.14,23.14,0,0,0-.41-3.76c-.49-2.49-1.08-5.07-1.66-7.58a32.58,32.58,0,0,0-2.47-7.22,16.39,16.39,0,0,0-4.71-6Z"/><path class="cls-13" d="M365.73,273.2a56.5,56.5,0,0,1-2.65,6.45,52.16,52.16,0,0,0-2.35,6.43c-1.21,4.33-1.86,9-.58,13.2l.53,1.66c.16.58.32,1.16.45,1.74a33.24,33.24,0,0,1,.61,3.52,45.36,45.36,0,0,1,.26,7.08c-.1,2.34-.33,4.68-.64,7s-.79,4.6-.95,6.92a25.58,25.58,0,0,1,.09-3.5l.22-3.48c.14-2.32.22-4.64.16-6.94a52,52,0,0,0-.59-6.86,31.39,31.39,0,0,0-.74-3.33c-.14-.54-.32-1.08-.5-1.62s-.39-1-.59-1.64a19.53,19.53,0,0,1-.9-7.23,28.57,28.57,0,0,1,1.31-7.07,41.52,41.52,0,0,1,2.7-6.58,17.74,17.74,0,0,1,4.14-5.74Z"/><path class="cls-14" d="M91.39,614s11.92-10.64,17.62-2.3S90.44,614.74,91.39,614Z"/><path class="cls-15" d="M83.73,625.87l-13.36-11s-14.72,17.52-12.85,23.73,6.47,6,10.64,6.55S83.73,625.87,83.73,625.87Z"/><path class="cls-14" d="M88,612.39s-1.44-11.5-10.09-5.16c-.47.34-9.32,5.78-8.72,11.57s12.34,8.69,12.34,8.69Z"/><path class="cls-8" d="M117.52,618.8s-4.3-8.16-10.38-8-14.56,2.76-16,6S117.52,618.8,117.52,618.8Z"/><path class="cls-5" d="M140.41,650.38c-1.7,3.24-15,9.19-18.72,9.71-2.44.33-7-.63-9.94-1.35-1.57-.39-2.66-.7-2.66-.7s-2.46-2.46-8.91-4.49a64.22,64.22,0,0,0-17.81-2.66C62.28,650.38,61.6,641,61.6,641l1.53-4.42,5.62.74,8.51-12.15-2.38-6.81L78.79,613c1.88-11.13,16.34,2.49,16.34,2.49,31-.82,40.67,12.05,40.67,12.05C145.83,626.89,142.11,647.15,140.41,650.38Z"/><path class="cls-16" d="M129.6,624.34s4.94,9.11-3.23,8.09c0,0-14,1.94-16.25.08s-9.62-2.81-9.2-4.6-2.55-11.26-4.17-11.82,8.09-.35,9.54,2.29,6.46,5.11,6.46,5.11S129.27,623.66,129.6,624.34Z"/><path class="cls-16" d="M80.13,613l-4.84,6.53,2.42,5S81.72,619.17,80.13,613Z"/><path class="cls-16" d="M68.75,637.34l-4.89.57-1.92,4.39S67.14,643.15,68.75,637.34Z"/><path class="cls-16" d="M115,655a18.24,18.24,0,0,1-3.24,3.72c-1.57-.39-2.66-.7-2.66-.7s-2.46-2.46-8.91-4.49a7.63,7.63,0,0,0-5.81-4.15c-5.49-.76-11.49-5.74-9.45-6.38s10,6.51,15.32,5.62S116.45,652.6,115,655Z"/><path class="cls-17" d="M124.84,652.51s-4.6,12.34,1.45,12.77,6.63-.6,8.59.34,7.66.17,1.36-8.34-10.21-8.43-10.72-6.9-1.19-2.29-1.19-2.29,9.61,8.3,17.27,8.92"/><path d="M128.13,630.1c-.66,2.41-1.44,4.79-2.31,7.14s-1.82,4.66-2.92,6.91a45,45,0,0,1-3.75,6.53,18.65,18.65,0,0,1-2.47,2.86,6.66,6.66,0,0,1-3.32,1.78l0-.17a6.3,6.3,0,0,0,3.08-1.89,19.5,19.5,0,0,0,2.3-2.88,51.46,51.46,0,0,0,3.57-6.52c1-2.25,2-4.53,2.93-6.86s1.79-4.64,2.63-7Z"/><path d="M111.14,652.85a91,91,0,0,0,7.24-11c1.05-1.92,2.06-3.86,2.94-5.86a19.7,19.7,0,0,0,1.76-6.27h.18a16.33,16.33,0,0,1-1.37,6.5,33.62,33.62,0,0,1-3,5.93A95.21,95.21,0,0,1,111.14,652.85Z"/><path d="M106.43,651.47l3.19-5.2c1-1.76,2.13-3.47,3.13-5.24s2-3.52,2.91-5.33a28.54,28.54,0,0,0,1.28-2.75,10.86,10.86,0,0,0,.83-2.89h.06a15.24,15.24,0,0,1-1.62,5.91,55.91,55.91,0,0,1-2.88,5.41c-1.06,1.75-2.13,3.49-3.29,5.16S107.7,649.88,106.43,651.47Z"/><path d="M102.06,650.42q1.53-2.35,3-4.72c1-1.57,2-3.17,3-4.76s1.9-3.21,2.74-4.88a23.27,23.27,0,0,0,1.11-2.56,10.14,10.14,0,0,0,.39-1.33,3.13,3.13,0,0,0,.12-.68l0-.34,0-.17c0-.05.07-.11-.22-.16l.7,0c-.3.07-.24.12-.25.18l0,.18,0,.36a2.7,2.7,0,0,1-.12.7,10.13,10.13,0,0,1-.39,1.36c-.31.89-.67,1.76-1,2.62a55,55,0,0,1-2.61,5c-1,1.62-2,3.17-3,4.73S103.23,649,102.06,650.42Z"/><path d="M97,649.17l3.14-4.81c1-1.6,2.08-3.21,3.07-4.84s2-3.27,2.83-5A26,26,0,0,0,107.2,632a9.22,9.22,0,0,0,.71-2.7h.32a13.93,13.93,0,0,1-1.63,5.57c-.83,1.75-1.82,3.4-2.81,5s-2.1,3.22-3.22,4.78-2.29,3.08-3.53,4.55Z"/><path d="M92.16,648l3.15-5c1.07-1.65,2.08-3.32,3.1-5s2-3.38,2.87-5.12c.42-.87.85-1.75,1.19-2.66a9.74,9.74,0,0,0,.73-2.79h.22a15,15,0,0,1-1.64,5.69C101,635,100,636.7,99,638.41s-2.08,3.34-3.16,5-2.27,3.21-3.5,4.75Z"/><path class="cls-18" d="M227,30.46a1.43,1.43,0,0,0-.13-.28A54.26,54.26,0,0,0,178.33,0h-.06a53.66,53.66,0,0,0-22.71,5,54.22,54.22,0,0,0-24.18,76.28l0,0a53.75,53.75,0,0,0,15.69,17.17,54.42,54.42,0,0,0,27.61,9.76h0c1.2.08,2.42.12,3.63.12a54.22,54.22,0,0,0,46.88-27.09l0-.06a53.7,53.7,0,0,0,7-22.17A54.45,54.45,0,0,0,227,30.46Z"/><path class="cls-6" d="M135.08,25.75c0,.16,0,.32,0,.48,0,.48,0,.95,0,1.4,0,1.11,0,2.21.06,3.31,0,.37,0,.74.06,1.11,0,.73.07,1.46.12,2.19,0,.44.08.88.12,1.32.06.65.11,1.31.18,2,.05.47.12.94.18,1.42s.15,1.22.24,1.83.16,1,.24,1.47.19,1.18.3,1.76.2,1,.3,1.49.23,1.14.35,1.72l.36,1.48c.14.57.27,1.13.42,1.69s.27,1,.41,1.48.31,1.11.47,1.66.32,1,.47,1.47.35,1.09.53,1.63.35,1,.53,1.46.38,1.08.59,1.61.38,1,.58,1.44.42,1.06.65,1.59.42.94.63,1.41.46,1.05.71,1.57.45.93.68,1.39.51,1,.77,1.55l.73,1.35c.28.52.55,1,.84,1.53s.51.89.77,1.33.59,1,.9,1.51.55.87.82,1.3.49.76.74,1.13a51.75,51.75,0,0,0,8.46-3.9l.17-.1c.43-.25.86-.5,1.28-.77l.4-.25,1.09-.7c.46-.31.92-.62,1.37-.94l.34-.25,1.38-1,.09-.07c-.18-.27-.35-.54-.53-.8s-.5-.75-.74-1.13l-.76-1.22c-.24-.38-.47-.76-.7-1.14s-.48-.84-.71-1.26-.44-.76-.65-1.15-.45-.86-.67-1.29-.4-.77-.59-1.16-.42-.88-.62-1.32-.37-.78-.54-1.17-.39-.9-.58-1.36-.34-.78-.49-1.18-.36-.92-.53-1.38-.3-.79-.44-1.18-.32-.94-.48-1.42-.27-.79-.4-1.19-.28-1-.42-1.44-.24-.79-.35-1.19-.25-1-.37-1.47-.21-.8-.3-1.2-.21-1-.32-1.5-.17-.79-.25-1.19-.18-1-.27-1.55-.14-.78-.2-1.17-.14-1.06-.21-1.59-.11-.77-.15-1.15c-.06-.55-.11-1.11-.16-1.66,0-.37-.08-.74-.1-1.1-.05-.62-.08-1.25-.11-1.87,0-.3,0-.61-.05-.91,0-.93,0-1.87,0-2.8s0-1.78,0-2.67c0-.29,0-.58,0-.87,0-.6.06-1.2.1-1.79l.09-1c0-.54.1-1.08.16-1.62,0-.36.08-.73.13-1.09.06-.52.13-1,.21-1.55s.11-.74.17-1.11.17-1,.26-1.53l.21-1.1.33-1.53.24-1.07c.13-.53.27-1.05.41-1.58.08-.33.17-.66.26-1l.06-.26A52.43,52.43,0,0,0,135.1,24.94C135.09,25.21,135.09,25.48,135.08,25.75Z"/><path class="cls-19" d="M134.73,79.78h0l1.78-.11.24,0,1.49-.16.48,0,1.14-.16.78-.12.62-.11a50.89,50.89,0,0,0,6.58-1.6,90.88,90.88,0,0,1-14.77-49.28,52.25,52.25,0,0,0-.27,51.67Q133.79,79.82,134.73,79.78Z"/><path class="cls-19" d="M165.93,67.51l.12-.09c.5-.43,1-.86,1.48-1.31l.08-.07c1.06-1,2.07-2,3-3l.06-.07q.67-.74,1.32-1.5l.15-.17A53.48,53.48,0,0,0,176,56.2l.19-.29c.29-.46.59-.93.87-1.41l.17-.28c-.7-1.24-1.34-2.51-1.94-3.8,0-.06-.07-.13-.1-.2q-1-2.17-1.79-4.42l-.06-.16q-.79-2.28-1.4-4.64h0c-.2-.77-.38-1.55-.54-2.33l0-.14c-.3-1.49-.54-3-.72-4.49,0-.21,0-.42-.07-.63-.06-.49-.1-1-.14-1.47l-.06-.79c0-.59-.07-1.19-.09-1.79s0-.92,0-1.38c0-.11,0-.23,0-.34s0-.14,0-.22a54,54,0,0,1,1-10.29c.07-.34.15-.67.22-1l0-.15c.31-1.41.68-2.8,1.1-4.17.07-.24.15-.48.22-.72s.2-.61.31-.92.26-.77.4-1.15c.08-.2.15-.41.23-.61a53.13,53.13,0,0,1,2.88-6.34,51.78,51.78,0,0,0-19.83,4.61,70.92,70.92,0,0,0,9.14,60.85Z"/><path class="cls-6" d="M180.8,102.62c.57-.37,1.15-.74,1.72-1.13.4-.27.79-.55,1.18-.83l1.51-1.06,1.22-.94c.46-.35.93-.69,1.39-1l1.21-1,1.32-1.09c.4-.34.79-.69,1.18-1s.85-.74,1.26-1.12.78-.74,1.16-1.11.81-.76,1.2-1.15.75-.76,1.13-1.14l1.15-1.19,1.08-1.19,1.11-1.23,1-1.23c.36-.42.72-.84,1.06-1.27s.66-.84,1-1.26.69-.87,1-1.32.63-.86.94-1.29.65-.9,1-1.36.59-.88.89-1.32.63-.93.93-1.41.56-.89.83-1.34.6-1,.89-1.46.52-.91.78-1.36.57-1,.84-1.51.48-.92.72-1.38l.61-1.19a52.84,52.84,0,0,0-7.6-5.37l-.18-.11-1.3-.72-.42-.22-1.16-.59-1.53-.73-.38-.17L198,59.09l-.12-.05c-.14.29-.29.57-.43.86l-.6,1.2c-.22.43-.45.85-.68,1.28s-.42.78-.64,1.16l-.73,1.25c-.22.38-.45.76-.68,1.14s-.51.81-.78,1.22l-.71,1.09c-.27.41-.55.8-.83,1.2s-.49.71-.75,1.06-.58.78-.87,1.17l-.78,1c-.31.39-.62.76-.93,1.14l-.81,1-1,1.11-.84.94-1,1.08c-.29.3-.58.61-.88.91l-1.06,1c-.31.29-.6.59-.91.87s-.74.68-1.12,1-.61.56-.93.83-.78.66-1.17,1l-.95.79c-.41.32-.82.64-1.24,1l-.95.74-1.33.94-.93.66c-.5.34-1,.67-1.52,1l-.81.53c-.79.49-1.58,1-2.39,1.44s-1.56.88-2.34,1.29l-.78.4c-.53.27-1.06.55-1.6.81l-.94.44c-.49.23-1,.46-1.48.67l-1,.44-1.45.59-1.05.41-1.45.53-1.06.37c-.49.17-1,.32-1.49.48l-1,.33-1.56.44-1,.27-.25.07a52.26,52.26,0,0,0,24.45,8.13l.77-.41.37-.21,1.21-.68c1-.56,1.9-1.13,2.84-1.71Z"/><path class="cls-19" d="M223.26,80.84l0,0c-.3-.51-.61-1-.93-1.51a1.74,1.74,0,0,1-.11-.18l-.89-1.32-.21-.31-.81-1.12-.33-.44c-.23-.31-.46-.6-.7-.9s-.32-.41-.48-.6-.31-.38-.47-.56A53,53,0,0,0,213.67,69a90.87,90.87,0,0,1-35.29,37.44h0a52.27,52.27,0,0,0,44.88-25.61Z"/><path class="cls-19" d="M147.9,96.67a70.74,70.74,0,0,0,19.73-7.74A70.3,70.3,0,0,0,196,58.33l-.14,0c-.62-.22-1.25-.44-1.88-.64l-.09,0c-1.37-.43-2.76-.81-4.16-1.12l-.09,0c-.65-.15-1.31-.28-2-.4l-.21,0a52.56,52.56,0,0,0-6.27-.73l-.32,0-1.71,0h-.3A54.26,54.26,0,0,1,134,81.8,51.65,51.65,0,0,0,147.9,96.67Z"/><path class="cls-6" d="M224.57,31l-.36-.22L223,30.07c-.9-.52-1.81-1-2.73-1.52l-.85-.43c-.64-.33-1.29-.67-1.94-1l-1-.47-1.88-.86-1-.43c-.64-.28-1.28-.55-1.93-.81l-.94-.37q-1-.4-2.07-.78l-.83-.3-2.31-.77-.62-.2c-.91-.28-1.83-.55-2.74-.81l-.22-.06a89.3,89.3,0,0,0-12.63-2.51l-.17,0c-1-.12-2-.22-2.94-.31l-.46,0-2.64-.18-.66,0c-.81,0-1.61-.06-2.42-.08h-.85c-.7,0-1.4,0-2.1,0l-1.22,0-1.84.08-1,.05a51.89,51.89,0,0,0-.32,16.64h.21c.83-.07,1.65-.12,2.48-.15h.42q1.29-.06,2.58-.06a72.77,72.77,0,0,1,36.31,9.76q1.15.68,2.28,1.38l.74.48c.51.32,1,.64,1.5,1,.29.19.57.4.85.6.45.31.89.62,1.32.94s.59.44.89.66l1.23,1c.3.23.59.47.88.71s.79.65,1.18,1l.86.73,1.15,1c.27.25.55.49.81.75l1.16,1.12.74.74.19.18a52.4,52.4,0,0,0-5.18-25.24Z"/><path class="cls-18" d="M227,30.46a1.43,1.43,0,0,0-.13-.28A54.26,54.26,0,0,0,178.33,0h-.06a53.66,53.66,0,0,0-22.71,5,54.22,54.22,0,0,0-24.18,76.28l0,0a53.75,53.75,0,0,0,15.69,17.17,54.42,54.42,0,0,0,27.61,9.76h0c1.2.08,2.42.12,3.63.12a54.22,54.22,0,0,0,46.88-27.09l0-.06a53.7,53.7,0,0,0,7-22.17A54.45,54.45,0,0,0,227,30.46Zm3.46,26.23-.19-.18-.74-.74-1.16-1.12c-.26-.26-.54-.5-.81-.75l-1.15-1-.86-.73c-.39-.34-.78-.67-1.18-1s-.58-.48-.88-.71l-1.23-1c-.3-.22-.59-.45-.89-.66s-.87-.63-1.32-.94c-.28-.2-.56-.41-.85-.6-.5-.34-1-.66-1.5-1l-.74-.48q-1.12-.7-2.28-1.38a72.77,72.77,0,0,0-36.31-9.76q-1.29,0-2.58.06h-.42c-.83,0-1.65.08-2.48.15h-.21A51.89,51.89,0,0,1,173,18.26l1-.05,1.84-.08,1.22,0c.7,0,1.4,0,2.1,0h.85c.81,0,1.61,0,2.42.08l.66,0,2.64.18.46,0c1,.09,2,.19,2.94.31l.17,0A89.3,89.3,0,0,1,202,21.28l.22.06c.91.26,1.83.53,2.74.81l.62.2,2.31.77.83.3q1,.38,2.07.78l.94.37c.65.26,1.29.53,1.93.81l1,.43,1.88.86,1,.47c.65.31,1.3.65,1.94,1l.85.43c.92.49,1.83,1,2.73,1.52l1.21.71.36.22.74.45A52.4,52.4,0,0,1,230.49,56.69Zm-25.07,3.82a54.21,54.21,0,0,0-26.52-7.26A52.48,52.48,0,0,1,173,36.86a70.88,70.88,0,0,1,57.27,22.51,51.7,51.7,0,0,1-5.92,19.48A54.13,54.13,0,0,0,205.42,60.51Zm-29.71,45.18-.37.21-.77.41a52.26,52.26,0,0,1-24.45-8.13l.25-.07,1-.27,1.56-.44,1-.33c.5-.16,1-.31,1.49-.48l1.06-.37,1.45-.53,1.05-.41,1.45-.59,1-.44c.49-.21,1-.44,1.48-.67l.94-.44c.54-.26,1.07-.54,1.6-.81l.78-.4q1.17-.62,2.34-1.29c.81-.46,1.6-1,2.39-1.44l.81-.53c.51-.33,1-.66,1.52-1l.93-.66,1.33-.94.95-.74c.42-.31.83-.63,1.24-1l.95-.79c.39-.32.79-.64,1.17-1s.62-.55.93-.83.75-.66,1.12-1,.6-.58.91-.87l1.06-1c.3-.3.59-.61.88-.91l1-1.08.84-.94,1-1.11.81-1c.31-.38.62-.75.93-1.14l.78-1c.29-.39.59-.77.87-1.17s.5-.7.75-1.06.56-.79.83-1.2l.71-1.09c.27-.41.53-.81.78-1.22s.46-.76.68-1.14l.73-1.25c.22-.38.43-.77.64-1.16s.46-.85.68-1.28l.6-1.2c.14-.29.29-.57.43-.86l.12.05,1.55.65.38.17,1.53.73,1.16.59.42.22,1.3.72.18.11a52.84,52.84,0,0,1,7.6,5.37l-.61,1.19c-.24.46-.47.93-.72,1.38s-.56,1-.84,1.51-.51.91-.78,1.36-.59,1-.89,1.46-.55.9-.83,1.34-.62.94-.93,1.41-.58.88-.89,1.32-.65.91-1,1.36-.62.87-.94,1.29-.68.88-1,1.32-.65.84-1,1.26-.7.85-1.06,1.27l-1,1.23-1.11,1.23-1.08,1.19L196.28,90c-.38.38-.75.77-1.13,1.14s-.8.77-1.2,1.15-.77.75-1.16,1.11-.84.74-1.26,1.12-.78.7-1.18,1L189,96.61l-1.21,1c-.46.36-.93.7-1.39,1l-1.22.94-1.51,1.06c-.39.28-.78.56-1.18.83-.57.39-1.15.76-1.72,1.13l-1,.68c-.94.58-1.88,1.15-2.84,1.71Zm-18.92-99a51.78,51.78,0,0,1,19.83-4.61,53.13,53.13,0,0,0-2.88,6.34c-.08.2-.15.41-.23.61-.14.38-.27.77-.4,1.15s-.21.61-.31.92-.15.48-.22.72c-.42,1.37-.79,2.76-1.1,4.17l0,.15c-.07.34-.15.67-.22,1a54,54,0,0,0-1,10.29c0,.08,0,.15,0,.22s0,.23,0,.34c0,.46,0,.92,0,1.38s0,1.2.09,1.79l.06.79c0,.49.08,1,.14,1.47,0,.21,0,.42.07.63.18,1.51.42,3,.72,4.49l0,.14c.16.78.34,1.56.54,2.33h0q.6,2.36,1.4,4.64l.06.16q.79,2.25,1.79,4.42c0,.07.07.14.1.2.6,1.29,1.24,2.56,1.94,3.8l-.17.28c-.28.48-.58,1-.87,1.41l-.19.29a53.48,53.48,0,0,1-3.76,5.06l-.15.17q-.64.76-1.32,1.5l-.06.07c-1,1-2,2.06-3,3l-.08.07c-.49.45-1,.88-1.48,1.31l-.12.09a70.92,70.92,0,0,1-9.14-60.85Zm21.63,9.44c-1.65,0-3.32,0-5,.14A52,52,0,0,1,178.91,2a52.3,52.3,0,0,1,44.62,26.06A91.3,91.3,0,0,0,178.42,16.1Zm-24-8.27-.06.26c-.09.33-.18.66-.26,1-.14.53-.28,1.05-.41,1.58l-.24,1.07-.33,1.53-.21,1.1c-.09.51-.18,1-.26,1.53s-.12.74-.17,1.11-.15,1-.21,1.55c-.05.36-.09.73-.13,1.09-.06.54-.11,1.08-.16,1.62l-.09,1c0,.59-.07,1.19-.1,1.79,0,.29,0,.58,0,.87,0,.89,0,1.78,0,2.67s0,1.87,0,2.8c0,.3,0,.61.05.91,0,.62.06,1.25.11,1.87,0,.36.07.73.1,1.1,0,.55.1,1.11.16,1.66,0,.38.1.76.15,1.15s.13,1.06.21,1.59.14.78.2,1.17.17,1,.27,1.55.17.79.25,1.19.21,1,.32,1.5.2.8.3,1.2.24,1,.37,1.47.23.79.35,1.19.28,1,.42,1.44.27.8.4,1.19.31,1,.48,1.42.29.79.44,1.18.34.93.53,1.38.32.79.49,1.18.38.91.58,1.36.36.78.54,1.17.41.88.62,1.32.39.77.59,1.16.44.86.67,1.29.43.77.65,1.15.47.84.71,1.26.46.76.7,1.14l.76,1.22c.24.38.49.75.74,1.13s.35.53.53.8l-.09.07-1.38,1-.34.25c-.45.32-.91.63-1.37.94l-1.09.7-.4.25c-.42.27-.85.52-1.28.77l-.17.1a51.75,51.75,0,0,1-8.46,3.9c-.25-.37-.49-.75-.74-1.13s-.55-.86-.82-1.3-.6-1-.9-1.51-.52-.88-.77-1.33-.56-1-.84-1.53L145,68.64c-.26-.52-.51-1-.77-1.55s-.46-.93-.68-1.39-.48-1-.71-1.57-.43-.94-.63-1.41-.44-1.06-.65-1.59-.4-1-.58-1.44-.4-1.07-.59-1.61-.36-1-.53-1.46-.35-1.08-.53-1.63-.32-1-.47-1.47-.31-1.1-.47-1.66-.28-1-.41-1.48-.28-1.12-.42-1.69l-.36-1.48c-.12-.58-.23-1.15-.35-1.72s-.21-1-.3-1.49-.2-1.17-.3-1.76-.17-1-.24-1.47-.16-1.22-.24-1.83-.13-.95-.18-1.42c-.07-.65-.12-1.31-.18-2,0-.44-.09-.88-.12-1.32-.05-.73-.08-1.46-.12-2.19,0-.37-.05-.74-.06-1.11,0-1.1-.06-2.2-.06-3.31,0-.45,0-.92,0-1.4,0-.16,0-.32,0-.48s0-.54,0-.81A52.43,52.43,0,0,1,154.37,7.83ZM133.08,28.17a90.88,90.88,0,0,0,14.77,49.28,50.89,50.89,0,0,1-6.58,1.6l-.62.11-.78.12-1.14.16-.48,0-1.49.16-.24,0-1.78.11h0q-.94,0-1.92.06a52.25,52.25,0,0,1,.27-51.67Zm26.26,46.39a54.15,54.15,0,0,0,19.55-19.33h.3l1.71,0,.32,0a52.56,52.56,0,0,1,6.27.73l.21,0c.65.12,1.31.25,2,.4l.09,0c1.4.31,2.79.69,4.16,1.12l.09,0c.63.2,1.26.42,1.88.64l.14,0a70.3,70.3,0,0,1-28.39,30.6,70.74,70.74,0,0,1-19.73,7.74A51.65,51.65,0,0,1,134,81.8,54.17,54.17,0,0,0,159.34,74.56Zm19,31.89A90.87,90.87,0,0,0,213.67,69a53,53,0,0,1,4.63,4.85c.16.18.32.37.47.56s.32.4.48.6.47.59.7.9l.33.44.81,1.12.21.31.89,1.32a1.74,1.74,0,0,0,.11.18c.32.5.63,1,.93,1.51l0,0a52.27,52.27,0,0,1-44.88,25.61Z"/><path class="cls-19" d="M204.43,9a52.18,52.18,0,0,0-25.52-7,52,52,0,0,0-5.47,14.22c1.66-.09,3.33-.14,5-.14a91.3,91.3,0,0,1,45.11,12A52,52,0,0,0,204.43,9Z"/><path class="cls-19" d="M230.29,59.37A70.88,70.88,0,0,0,173,36.86a52.48,52.48,0,0,0,5.88,16.39,54.24,54.24,0,0,1,45.47,25.6A51.7,51.7,0,0,0,230.29,59.37Z"/></g></g></svg>