<svg xmlns="http://www.w3.org/2000/svg" xmlns:xlink="http://www.w3.org/1999/xlink" viewBox="0 0 328.37 507.13"><defs><style>.cls-1{fill:#342673;}.cls-2{fill:#faa;}.cls-3{fill:#2a1c5d;}.cls-4{fill:url(#linear-gradient);}.cls-5{fill:#ffbda5;}.cls-6{fill:#e23838;}.cls-7{fill:#ffc5b2;}.cls-8{opacity:0.2;}.cls-9{fill:#d13434;}.cls-10{fill:url(#linear-gradient-2);}.cls-11{fill:url(#linear-gradient-3);}.cls-12{opacity:0.09;}.cls-13{fill:#9a2323;}.cls-14{fill:#e06c6c;}.cls-15{fill:url(#linear-gradient-4);}.cls-16{fill:#ff4b4b;}.cls-17{fill:url(#linear-gradient-5);}.cls-18{fill:#45465c;}.cls-19{fill:#f88;}.cls-20{fill:url(#linear-gradient-6);}.cls-21{fill:#ffd3bf;}.cls-22{fill:url(#linear-gradient-7);}.cls-23{fill:#ffb69b;}.cls-24{fill:#3c3e52;}.cls-25{fill:url(#linear-gradient-8);}.cls-26{fill:#ffedd0;}</style><linearGradient id="linear-gradient" x1="1056.9" y1="-15650.89" x2="1150.16" y2="-15650.89" gradientTransform="translate(433.08 -15671.62) rotate(176.55)" gradientUnits="userSpaceOnUse"><stop offset="0.1" stop-color="#45465c"/><stop offset="1" stop-color="#646593"/></linearGradient><linearGradient id="linear-gradient-2" x1="1113.53" y1="-15775.52" x2="1113.53" y2="-15814.52" gradientTransform="translate(433.08 -15671.62) rotate(176.55)" gradientUnits="userSpaceOnUse"><stop offset="0" stop-color="#ffbda5"/><stop offset="1" stop-color="#ea9677"/></linearGradient><linearGradient id="linear-gradient-3" x1="1101.4" y1="-15777.56" x2="1149.39" y2="-15777.56" xlink:href="#linear-gradient-2"/><linearGradient id="linear-gradient-4" x1="1293.48" y1="-15887.32" x2="1196.88" y2="-15887.32" xlink:href="#linear-gradient-2"/><linearGradient id="linear-gradient-5" x1="1234.24" y1="-15720.71" x2="1301.12" y2="-15720.71" xlink:href="#linear-gradient-2"/><linearGradient id="linear-gradient-6" x1="1065.44" y1="-15714.84" x2="1065.44" y2="-15675.56" gradientTransform="translate(433.08 -15671.62) rotate(176.55)" gradientUnits="userSpaceOnUse"><stop offset="0" stop-color="#ff4b4b"/><stop offset="0.94" stop-color="#ab2929"/></linearGradient><linearGradient id="linear-gradient-7" x1="1173.87" y1="-15699.55" x2="1201.73" y2="-15699.55" xlink:href="#linear-gradient-2"/><linearGradient id="linear-gradient-8" x1="736" y1="-15212.83" x2="738.39" y2="-15212.83" gradientTransform="matrix(-0.45, 0.89, -0.89, -0.45, -13040.16, -7529.7)" xlink:href="#linear-gradient-2"/></defs><g id="Calque_2" data-name="Calque 2"><g id="Calque_1-2" data-name="Calque 1"><path class="cls-1" d="M125.05,375l9.93-4.29,12.25,3.89s4.33,9.76-1.8,16-7.81,11-8.49,18.82-11.43,17.4-24,18.48l3.85-21.5,0-17.4-4.35-3.5Z"/><path class="cls-2" d="M134,397.5c.6-4.5,3.36-5.09,8.12-8.82,4.16-3.26,3.59-7,2.76-14.83l2.34.75s4.33,9.76-1.8,16-7.81,11-8.49,18.82-11.43,17.4-24,18.48l.77-4.31c4.09-1.25,9.88-3.26,13.81-5.61C134.14,414,133.4,402,134,397.5Z"/><path class="cls-3" d="M116.47,408l6.86-1.36.4-2.5,3.84-.23A25.69,25.69,0,0,1,126.1,414c-1.42,3.61-8.45,6-12,7Z"/><path class="cls-1" d="M264.36,453l9.05-5.87,12.75,1.81s5.94,8.91,1,16.1S281.35,477.17,282,485s-8.27,19-20.51,22.18l.09-21.82-3-17.15-4.88-2.74Z"/><path class="cls-2" d="M277.07,473.65c-.18-4.52,2.43-5.56,6.49-10,3.53-3.89,2.33-7.49.15-15.06l2.45.34s5.94,8.91,1,16.1S281.35,477.17,282,485s-8.27,19-20.51,22.18l0-4.37c3.81-1.91,9.17-4.84,12.64-7.81C280.05,489.92,277.24,478.18,277.07,473.65Z"/><path class="cls-3" d="M261.59,486.9l6.53-2.47,0-2.53,3.75-.86a25.59,25.59,0,0,1,.29,10.21c-.77,3.8-7.29,7.31-10.58,8.87Z"/><path class="cls-4" d="M226,27.44s3.85-10.36,7.9-16.2c3.51-5.08,11.79-12,22.22-11.17s9.23,8.54,11.07,11.6c2.56,4.26,7.21,5.29,14.74.27,6.29-4.2,10.28-6.87,13.83-4.35s5.05,10.34,10.73,8.93S318,11.85,318.6,13.27s-10.54,9-15.17,9.8c-8.42,1.53-9.75-5.41-14.81-1.95S275.4,32.12,270,31.5,264.4,21,259.86,23.24s-8.78,16.22-14.3,14S226,27.44,226,27.44Z"/><path class="cls-5" d="M154.49,284.26l29.42,75.58a18.25,18.25,0,0,0,2.33,4.24l72.32,98.34a7.26,7.26,0,0,0,11,.67c3.64-3.77,6.92-9.35,4.33-16C253.59,432.67,234,361,211.36,347.72c-3.79-41.09-9-78.09-9-78.09Z"/><path class="cls-6" d="M213.24,248.07s-5.78,23.06-4.47,27.58,8.81,7.1,9.16,10.39-3.54,4.52-1.93,6.86,9.34,11,7.6,13.64-8.4-2.81-17.08-2.87-35.54,2.67-50.83-4.62l-9.38-28.34Z"/><path class="cls-7" d="M188.39,360c2.47,4.59,7.11,7,10.36,5.28s3.88-6.75,1.41-11.35-7.1-6.95-10.36-5.28S185.92,355.43,188.39,360Z"/><path class="cls-8" d="M161,301.07a38.35,38.35,0,0,1-5.34-2l-9.38-28.34L182,258.64l28.87-.18h0l-36,78.12Z"/><path class="cls-9" d="M235.09,147.17c.61,5.21,16.61.17,23.63-5.75s-21.54-17-21.54-17L233.83,138Z"/><path class="cls-10" d="M259.29,115.41l29,23c6-16.46,5.82-43.9,5.82-43.9L287,84.77l.16-6.37,16.58,4.31L308.32,98c1.72,14.13,3.56,57.72-.73,69.19-4.1,10.95-14.8,7.91-20,4.23S233.65,131,227.05,126.36Z"/><path class="cls-11" d="M283.37,168.34c-10.82-8-37.74-28.27-50.35-37.61l6.42-8.58,2-.66Z"/><path class="cls-1" d="M280.52,132.24l7.81,6.18a71.76,71.76,0,0,0,2.74-10c8.22,12.53,19.13,8.83,19.15,8.82,0,12.77-.68,24.7-2.63,29.94-4.1,10.95-14.8,7.91-20,4.23-1.76-1.24-8.49-6.26-16.86-12.52C267.91,141.27,280.52,132.24,280.52,132.24Z"/><path class="cls-12" d="M270.71,158.9a30.6,30.6,0,0,1-.37-5.11l13,14.55C280.24,166,275.78,162.69,270.71,158.9Z"/><path class="cls-13" d="M163.21,299.32s-13.22-9.42-22.45-28L174.39,259Z"/><path class="cls-14" d="M127.78,182.1s6.41,9.36,15.15,11.65l6.73-14.2Z"/><polygon class="cls-5" points="139.56 180.15 137.81 200.09 190.54 195.68 139.56 180.15"/><path class="cls-5" d="M165.17,223.88l-35.19-6S74.29,244,64.54,255.26,57.32,278.68,68.25,294c9.94,13.92,36.22,60.6,47.78,87.15a7.36,7.36,0,0,0,11.48,2.6,22.63,22.63,0,0,0,7.47-13c-20.59-37.39-21.33-88.66-38.32-92.62,27.24-1.39,56.58,5,73.89-5.75C181.86,265.32,165.17,223.88,165.17,223.88Z"/><path class="cls-15" d="M159,244.42l14.11,5.36c2,9.87,2.42,19.5-2.52,22.56-10.76,6.68-26.17,6.74-42.83,6.16-.47,0-.94,0-1.41-.05l-7-.26C102.29,277,89.93,271.53,91.62,264,93.52,255.48,159,244.42,159,244.42Z"/><path class="cls-6" d="M183.36,196.28s-41.79,2-49.37,2.91,2,4.12.51,8.24-.37,17.84-.37,17.84l50.51-8.15Z"/><path class="cls-16" d="M204.29,199.3c14.67,9.19,21.12,31.59,16.67,45.36-5.41,16.81-26,21.31-30.56,26.18s-1.05,9.26-5.51,10.82-10.09-1.56-13.07,2.49-1.76,14.34-8.61,15.17c1.26-10.42-9.15-60.55-35.4-81.29,0,0,35.66-16.66,45-20C184.5,193.84,198.06,195.39,204.29,199.3Z"/><path class="cls-12" d="M138.93,187.26l.63-7.12,50.76,15.48c5.74.32,10.81,1.69,14,3.68a36.5,36.5,0,0,1,12.48,14C187.2,216.27,151,193.84,138.93,187.26Z"/><path class="cls-5" d="M147.12,84.71l-15-10.33-34.92-1.6L28,37.3s0-11.55-3.58-13.06-14.2-1.53-14.2-1.53S-1,30.91.07,33.87,16.9,42.36,16.9,42.36l63,49.34,50.58,12.54Z"/><polygon class="cls-17" points="145.38 86.76 130.47 104.24 79.89 91.7 78.61 90.69 78.61 90.69 145.38 86.76"/><path class="cls-12" d="M141.92,81.12c-3.46,8.62-7.69,18-11.51,23.1l-9-2.22c-3.46-12.76,2.51-23.51,5.5-27.86l5.23.24Z"/><path class="cls-16" d="M178.24,75.77l-46.08-1.39s-10.73,11.85-9.55,23.85,4.55,13,9.55,10.15,15,12.77,15,12.77l28.11-30.33Z"/><path class="cls-8" d="M122.61,98.23A23.81,23.81,0,0,1,124.09,88l44.72-2.63-14.16,27.7-7.49,8.07s-10-15.58-15-12.77S123.79,110.24,122.61,98.23Z"/><path class="cls-18" d="M187.19,37.35l-1-5.53s.41-7.91-1.3-10.17-7.36-7.73-3.09-11,23.83,4.38,30.34,4,22,2.79,28.6,17,3.66,36-25.27,39.09Z"/><path class="cls-19" d="M243.72,101.23s-18-15-35.16-19.78a174.27,174.27,0,0,0-30.32-5.68s-10.88,9.11-19.33,15.07-15.49,11.27-15.24,22.47,1.35,31.54-1,40.45-7.75,19.29-14.85,28.34c0,0,18.12,4,47.27,15.79,15.32,6.18,35.56,4.69,35.56,4.69s-5.06-5.07-2.28-8.34c3.29-3.87,5-8.71,4.63-13.14s-8.89-15.14-6.3-25.5,16.54-22.54,21.67-22.84Z"/><path class="cls-16" d="M188.38,77.06a189.91,189.91,0,0,1,20.18,4.39A65.49,65.49,0,0,1,218,85s-27.29,14.79-41.28,16.54C165.19,103,182.14,83.77,188.38,77.06Z"/><path class="cls-16" d="M264.81,119.25s-12.33-11.5-21.09-18-25,5.93-25.6,15.6,3.21,14.34,7.9,16.58,6.5,12.25,9.39,14.65C235.41,148.06,232.85,122.72,264.81,119.25Z"/><ellipse class="cls-16" cx="300.98" cy="61.74" rx="27.39" ry="26.8"/><path class="cls-20" d="M321.53,60.53A27.09,27.09,0,0,0,296,35.42a28.9,28.9,0,0,1,3.38-.43c15.1-.89,28.08,10.36,29,25.14S317.73,87.6,302.63,88.49a29.78,29.78,0,0,1-3.41,0A26.92,26.92,0,0,0,321.53,60.53Z"/><path class="cls-21" d="M26.22,41.5c-.24-2-1.57-7.56-4.39-8.69S5.77,31.5,5.77,31.5s1.12,3.92,8.36,5.11c0,0,1.09,7,4.19,9C20.39,47,26.9,47.28,26.22,41.5Z"/><path class="cls-5" d="M198.82,20.12s-2.58,15.76,9,23.11c0,0,7-2.83,9.85-.2,4.5,4.16,1.3,16.41-9.19,16.24l7,11.42-.11,13.12s-24.29,9.28-28.43,7.48S190.77,83,191,78.91s-1-11-1-11-12.69,2.18-14.3-1.51c-.78-2.44-.8-6.36-2.47-8.72-.62-.87,2.16-1.76,2.16-2.76,0-.64-1.69-1.43-2.51-2.42a1.32,1.32,0,0,1,.13-1.82c1.61-1.37,2-4.69,2-4.69s-4.09-1.15-3.78-2.36c2.6-2.25,9.68-6.64,11.46-9.27C186.35,25.17,189,22.9,198.82,20.12Z"/><path class="cls-22" d="M176.78,67.49c22.63-2.71,27.46-7.71,27.46-7.71A35.09,35.09,0,0,1,190.09,81.6h0a7.08,7.08,0,0,0,.91-2.69c.23-4.11-1-11-1-11S181.6,69.35,176.78,67.49Z"/><path class="cls-23" d="M183.85,42.73c.15,2.42,3.29,4.2,7,4s6.63-2.35,6.48-4.77-3.29-4.2-7-4S183.7,40.32,183.85,42.73Z"/><path class="cls-24" d="M196.86,35.12c-.73-1.84-2-4-3.79-4.13s-7.38,1.15-7.38,1.15l-.83-1.06,1.57,3.23s5-1.69,7.34-1.33C195.13,33.18,196.86,35.12,196.86,35.12Z"/><path class="cls-25" d="M175.07,46s2.92-1.21,1.05-1.6c-3.6,1-3.6-1.53-4.94-.76C171.18,45.24,175.07,46,175.07,46Z"/><path class="cls-5" d="M308.13,98s-6.87.41-6.74-7c.07-4.27,15.79-11.8,15.79-11.8L321.76,75s1.51-6.58,5.83-6.84l-1.79,8-4.2,8.08Z"/><path class="cls-26" d="M243.24,396.41c10.37,21.57,20.43,43.4,30.69,50.67,2.72,7-1.05,12.82-4.91,16.59a6.79,6.79,0,0,1-10.16-.84l-36.11-49.11A65.71,65.71,0,0,0,243.24,396.41Z"/><path class="cls-26" d="M111.19,300.46c6,19.25,11.18,47.35,23.79,70.25a22.64,22.64,0,0,1-9.32,14.47,6,6,0,0,1-9-2.5c-8.19-19.23-24.93-50.25-37.29-71.06C91.3,303.47,104.94,301.12,111.19,300.46Z"/><path class="cls-7" d="M63.52,266.79c-.51,5.46,2.27,10.18,6.22,10.54s7.58-3.78,8.09-9.24-2.26-10.17-6.22-10.53S64,261.34,63.52,266.79Z"/><path class="cls-8" d="M213.86,143.26h0c-3.34,3.83-6.17,8.21-7.2,12.33-.1.4-.15.8-.22,1.21h0c-4.46,9.19-12.59,20.25-9.06,23.92s13.13-.83,12.4-7.66h0c1.54,3.41,3,6.24,3.2,8,.42,4.43-1.34,9.27-4.63,13.14-2.78,3.27,2.28,8.34,2.28,8.34s-20.24,1.49-35.56-4.69c-6.65-2.68-12.71-5-18.13-6.88C178.48,176.37,213.86,143.26,213.86,143.26Z"/><path class="cls-8" d="M134.65,172h0a74.89,74.89,0,0,0,8-18.27c1-3.78,1.4-9.63,1.49-16l12.65-7.73S143.09,158.48,134.65,172Z"/><path class="cls-2" d="M143.67,113.31c-.16-7.09,2.61-11.81,6.8-15.84-3.52,4.14-3.57,15.36,4.54,18.33,5.28,1.93,11.89-.13,15.47.67,2.81.62-17.5,11.29-26.35,15.85C144.07,125.38,143.78,118.4,143.67,113.31Z"/><path class="cls-19" d="M218.2,216.25c.24.56.48,1.11.71,1.68-13.86,13.9-49.39,27.9-67.11,34.3-.22-.53-.45-1-.69-1.58C169,244.21,205.28,230,218.2,216.25Z"/><path class="cls-19" d="M215.65,211.3c.33.54.62,1.1.92,1.65-10.79,13-49.15,28.05-66.93,34.52-.24-.51-.5-1-.75-1.52C174.14,236.86,207.2,222.23,215.65,211.3Z"/></g></g></svg>