<svg xmlns="http://www.w3.org/2000/svg" xmlns:xlink="http://www.w3.org/1999/xlink" viewBox="0 0 564.52 338.34"><defs><style>.cls-1{fill:#071327;}.cls-2{fill:#040f22;}.cls-3{fill:#95a2b0;}.cls-4{fill:#768578;}.cls-5{fill:#687d77;}.cls-6{fill:#96a89b;}.cls-7{fill:#708ea6;}.cls-8{fill:#7ca0b7;}.cls-9{fill:#a8bb5d;}.cls-10{fill:#0b2b6f;}.cls-11{fill:#5e8bb1;}.cls-12{fill:#7696a9;}.cls-13{fill:#83aebf;}.cls-14{fill:#628cb6;}.cls-15{fill:#7299b8;}.cls-16{fill:#679dbe;}.cls-17{fill:#7996af;}.cls-18{fill:#dfedeb;}.cls-19{fill:#d3e2e5;}.cls-20{fill:#537eaa;}.cls-21{fill:#77a1c7;}.cls-22{fill:#7795ad;}.cls-23{fill:#94b7cd;}.cls-24{fill:#d4e6e0;}.cls-25{fill:#6c9ac4;}.cls-26{fill:#93b9d7;}.cls-27{fill:#d4e6e1;}.cls-28{fill:#80b2ce;}.cls-29{fill:#a9c9d2;}.cls-30{fill:#81a8c6;}.cls-31{fill:#76b1d3;}.cls-32{fill:#528cc3;}.cls-33{fill:#9fb8cd;}.cls-34{fill:#11313b;}.cls-35{fill:#abcfd4;}.cls-36{fill:#c1d4de;}.cls-37{fill:#83b2d1;}.cls-38{fill:#619ebc;}.cls-39{fill:#4a87be;}.cls-40{fill:#6492c8;}.cls-41{fill:#8ab3c6;}.cls-42{fill:#799cc7;}.cls-43{fill:#7cb4db;}.cls-44{fill:#bcdbe2;}.cls-45{fill:#5285c9;}.cls-46{fill:#77a9d1;}.cls-47{fill:#a5c7da;}.cls-48{fill:#0e243e;}.cls-49{fill:#639ac4;}.cls-50{fill:#608a93;}.cls-51{fill:#5397c5;}.cls-52{fill:#5da8ca;}.cls-53{fill:#549cc5;}.cls-54{fill:#638bac;}.cls-55{fill:#017fcd;}.cls-56{fill:#6193b2;}.cls-57{fill:#5e99c1;}.cls-58{fill:#4f97ca;}.cls-59{fill:#66a2b0;}.cls-60{fill:#606254;}.cls-61{fill:#97917c;}.cls-62{fill:#514e43;}.cls-63{fill:#8b9575;}.cls-64{fill:#e0ede4;}.cls-65{fill:#0035a1;}.cls-66{fill:#3f2e11;}.cls-67{fill:#475e58;}.cls-68{fill:#6d796d;}.cls-69{fill:#1a353d;}.cls-70{fill:#9aa394;}.cls-71{fill:#39504c;}.cls-72{fill:#89aeb4;}.cls-73{fill:#6e93a3;}.cls-74{fill:#93aea5;}.cls-75{fill:#83b3cd;}.cls-76{fill:#081882;}.cls-77{fill:#78a0a6;}.cls-78{fill:#8aa7a6;}.cls-79{fill:#8fb1a6;}.cls-80{fill:#608b91;}.cls-81{fill:#8ba9ac;}.cls-82{fill:#5c7b8e;}.cls-83{fill:#808d9f;}.cls-84{fill:#161e3c;}.cls-85{fill:#191b40;}.cls-86{fill:#1a2442;}.cls-87{fill:#333c56;}.cls-88{fill:#6e7888;}.cls-89{fill:#5b657a;}.cls-90{fill:#15214d;}.cls-91{fill:#373a4e;}.cls-92{fill:#84aac7;}.cls-93{fill:#759bb6;}.cls-94{fill:#659ec7;}.cls-95{fill:#9d917b;}.cls-96{fill:#050b15;}.cls-97{fill:#3a4a42;}.cls-98{fill:#040a18;}.cls-99{fill:#7e7765;}.cls-100{fill:#68675a;}.cls-101{fill:#3b483c;}.cls-102{fill:#33383e;}.cls-103{fill:#7c909f;}.cls-104{fill:#5a6887;}.cls-105{fill:#3e5a66;}.cls-106{fill:#2f4248;}.cls-107{fill:#2d3e44;}.cls-108{fill:#4e574e;}.cls-109{fill:#979b87;}.cls-110{fill:#5c6e5e;}.cls-111{fill:#8db252;}.cls-112{fill:#5b9696;}.cls-113{fill:#588eb0;}.cls-114{fill:#4893b1;}.cls-115{fill:#a4c353;}.cls-116{fill:#5196c8;}.cls-117{fill:#5692c1;}.cls-118{fill:#b39e80;}.cls-119{fill:#a1876a;}.cls-120{fill:#795f4f;}.cls-121{fill:#3c3e38;}.cls-122{fill:#3e312b;}.cls-123{fill:#272421;}.cls-124{fill:#4e3313;}.cls-125{fill:#0f1d2f;}.cls-126{fill:#5e5f49;}.cls-127{fill:#6b796f;}.cls-128{fill:#879086;}.cls-129{fill:#8d917c;}.cls-130{fill:#080d61;}.cls-131{fill:#627858;}.cls-132{fill:#596c41;}.cls-133{fill:#9fa9b9;}.cls-134{fill:#9c8261;}.cls-135{fill:#33433d;}.cls-136{fill:#90836f;}.cls-137{fill:#806f56;}.cls-138{fill:#1b2b2d;}.cls-139{fill:#73644d;}.cls-140{fill:#28302c;}.cls-141{fill:#242721;}.cls-142{fill:#546908;}.cls-143{fill:#5a4f3d;}.cls-144{fill:#798b06;}.cls-145{fill:#a0a82a;}.cls-146{fill:#a4b634;}.cls-147{fill:#4a6384;}.cls-148{fill:#242628;}.cls-149{fill:#191e1e;}.cls-150{fill:#6d777c;}.cls-151{fill:#314045;}.cls-152{fill:#454240;}.cls-153{fill:#9b9894;}.cls-154{fill:#3f4d48;}.cls-155{fill:#0d2270;}.cls-156{fill:#2e5791;}.cls-157{fill:#1f3d8a;}.cls-158{fill:#8c714f;}.cls-159{fill:#3f5c71;}.cls-160{fill:#695d4d;}.cls-161{fill:#5b7371;}.cls-162{fill:#0d2a58;}.cls-163{fill:#122647;}.cls-164{fill:#113f83;}.cls-165{fill:#6d7265;}.cls-166{fill:#a18461;}.cls-167{fill:#78321d;}.cls-168{fill:#b7b958;}.cls-169{fill:#c9cdc5;}.cls-170{fill:#192226;}.cls-171{fill:#4d5d50;}.cls-172{fill:#57694f;}.cls-173{fill:#7f6a4e;}.cls-174{fill:#7a7664;}.cls-175{fill:#7c7b72;}.cls-176{fill:#1d3946;}.cls-177{fill:#3d4a45;}.cls-178{fill:#454e43;}.cls-179{fill:#566064;}.cls-180{fill:#5c6154;}.cls-181{fill:#55504c;}.cls-182{fill:#3568a4;}.cls-183{fill:#a2afaa;}.cls-184{fill:#1e5082;}.cls-185{fill:#61624f;}.cls-186{fill:#4174ac;}.cls-187{fill:#35557b;}.cls-188{fill:#5e6150;}.cls-189{fill:#a65c30;}.cls-190{fill:#08142d;}.cls-191{fill:#5e563c;}.cls-192{fill:#264d84;}.cls-193{fill:#5b8ac7;}.cls-194{fill:#2159a3;}.cls-195{opacity:0.46;}</style></defs><g id="Calque_2" data-name="Calque 2"><g id="Calque_1-2" data-name="Calque 1"><path class="cls-1" d="M219.28,101.41a4.71,4.71,0,0,0,.64.19c1.68.69,3.43,1.29,3.89,3.38-.87,1.69.46,1.56,1.43,1.73a14.24,14.24,0,0,1,.43,9.05,10.5,10.5,0,0,1-7.1,6.21c-1.13.2-2,1-3,1.45-1.76.4-1.81,2.43-3.11,3.28-2.08,1-3.08.15-3-1.94.07-1.31.12-2.47-.83-3.46-1.64-2.22-2.56-5-4.95-6.61-3.88-1.23-7.07.34-9.88,2.69a48.93,48.93,0,0,0-7.52,8.09,6.14,6.14,0,0,1-4.24,2.18c-6.07-2-10.29-10.29-8.26-16.27a40.57,40.57,0,0,1,1.82-4.9c1.05-2.14,2.14-4.14-.16-6.29-.94-.87-.39-1.93.72-2.56,2.2-1.28,4.3.2,6.45.3,5.54.24,11,1.6,16.61.94a5.65,5.65,0,0,1,3.7.7c.61,1.92,1.54,1.31,2.52.3,2.73-1.24,5.14-1.62,8.11.13C214.94,100.8,217.52,100.11,219.28,101.41Z"/><path class="cls-2" d="M203.87,69.85l.78-.62c2.24.7,3.89-2.54,6.27-.94,4.2.16,4.94,3.62,6.25,6.54-1,.91-.34,2.7-1.72,3.45-.91,1.87-3.17,1.55-4.85,2.76,2.28,1,4.08-1.17,6-.19-.35,1.86-.49,3.67.94,5.22,1.84,2-1.14,3.2-.87,5-.62,1-1.57,1.17-2.3.39-1.71-1.81-3.71-1.5-5.79-1.14a6.5,6.5,0,0,1-2.74-.06c-4.08-1.06-4.08-1.06-5.43,2.81a8,8,0,0,1-.67,1.59c-1.57,4.26-2.16,4.51-6.64,4.44-5.34-.08-9.59-3.39-14.52-4.68a23.63,23.63,0,0,1-5.51-2.16c-2.88-1.45-5.27-3.79-8.51-4.57a2.78,2.78,0,0,1-.82-.58c-1.26-3.12.93-4.09,3.17-4.52a57.17,57.17,0,0,1,11.76-1.47c3.85.07,7.47.18,10.15-3.25a4.25,4.25,0,0,1,2.18-1c1.91.09,2.94-1.64,4.54-2.21,1.76.38,2,1.33,1.07,2.7,0-.05.12-.09.16-.12,2.51-1.25,4.88-2.43,4.7-5.89C201.39,69.91,203.13,70.47,203.87,69.85Z"/><path class="cls-3" d="M332.26,105.9c-2.5,1.3-3,3.9-4.14,6.13,3.34,2.57,5.65-.41,8.18-1.61.86-.4,1.92-1.28,2.22-.36.48,1.47,2.52,1.68,2.34,3.27-.11,1.08-.87,1.31-2,.88-1.4-.52-3.19-1.48-3.85,1.07-.78,1.16-2,.82-3.11,1-.22,0-.45-.06-.68-.08-.39,0-.41.06-.06.28,2.43,1.49,4.25,4,7.45,4.21,1.77.09,2.79,2.2,4.74,1.8.86-.62,1-1.85,2.07-2.29a.75.75,0,0,1,.72.46,20.7,20.7,0,0,0,1.77,1.62c4.3,3.07,7.51,6.83,8,12.35.62.67.25,1.61.64,2.35.07,1.06-.54,2.35-1.43,1.64-2.21-1.77-5.05-.65-7.23-2a5.18,5.18,0,0,1-1-1.06c-.81-1.8-1.74-3.42-4.17-2.83a8.25,8.25,0,0,0-5.65-.16c-2.41-1.42-5.23-1.66-7.78-2.71a1.72,1.72,0,0,1-.37-.85c-.52-.42,1.28-1.09-.17-1.4a20.43,20.43,0,0,0-2.1.34,14.8,14.8,0,0,1-4.44.57c-2.61-1.79-4.57-.51-6.41,1.36a13.31,13.31,0,0,1-6.25,2.8c-3.77.84-4.4.43-5.14-3.29-1.48-.09-3.23,2.86-4.45-.38a3.4,3.4,0,0,1,1.09-2.47c1.77-1.91,3.93-3.6,3.06-6.74-.09-.33.61-.62,1-.79,2.4-.29,4.83-.38,6.44-2.68.88-1.26,2.53-.9,3.77-1.43,2.94-1.06,5.46-3.94,9.39-1.91-1.31-3.32.07-4.85,3.16-5.19.37-1.08.47-2.34,1.73-2.84S332,103.81,332.26,105.9Z"/><path class="cls-4" d="M199.05,93.85c.71-1.5.21-3.47,1.48-4.65.85-.78.14-2.89,1.06-2.39,1.18.64,3,.12,3.49,1.36.73,1.79,1.68,1.28,3,1,2.69-.64,5.62-1.82,7.11,2.07.27.71,1,0,1.49-.18.44.07,1.07,0,1.27.25.56.7,0,1.09-.64,1-2.33-.2-1.8,1.14-1.26,2.34,1,2.28,2.16,4.51,3.25,6.77-2.47-.52-5,.15-7.51-1-2-1-4.3.25-6.47.4-.54-.58-1.52-.07-2-.8C199.28,99.15,198.84,98.51,199.05,93.85Z"/><path class="cls-5" d="M236.25,142.77c0,3.8,0,7.59,0,11.39-1.27,2.51-3.32,1-5.09,1a10.27,10.27,0,0,0-7.44-.07,29.61,29.61,0,0,0-7.58,1.86,5.44,5.44,0,0,1-3.67.28,2,2,0,0,1-1.07-1.22,1.43,1.43,0,0,1,.18-1,26.7,26.7,0,0,1,16.89-3.92c5.41.57,6.21-.21,4.7-5.6-1.8-6.45-5.6-11.26-10.94-15.25-2.67-2-6.07-3.42-7.52-6.84a1.77,1.77,0,0,1,.4-.93c1-.4,1.7-1.3,2.85-1.26a31.82,31.82,0,0,0,5.25,1.6c1.55.4,2.64,1.17.92,3,3.33.33,6.67.47,8.64,3.63C235.14,133.57,235.29,138.28,236.25,142.77Z"/><path class="cls-6" d="M232.75,129.45c-3.12-2.28-7.37-1.38-10.51-3.68.51-.74,1.67-.29,2.09-1.5-2-1.26-5.63.57-6.39-3.07a13.68,13.68,0,0,0,7-5.87c2.25-2.11,2.61-.36,2.94,1.44Z"/><path class="cls-7" d="M240.32,109.19c2.11,1.21,4.89.14,6.85,2,.34.34,1.53-.26,1.07-.67-1.54-1.4-.38-3.28.24-3.17,1.63.29,3.55-.66,4.87.65,1,1,3.12,2,2.18,3.56-1.29,2.16-4.41,1.91-6,1.27a6,6,0,0,0-5.31.48c-2.09,1.34-3.12.18-4.74-.42.67-1.54,2-.57,2.8-1.17-.64-.87-2.18-1.09-1.95-2.6Z"/><path class="cls-8" d="M257.09,83.85l4.9.38c.49,3.34-2.21,5.37-5.51,4.15-1.52-.56-1.45-.56-1.5,1.08s-1.7,1.55-2,.78c-.77-1.76-2-.07-3.22-.9Z"/><path class="cls-9" d="M331.52,115.42a5.61,5.61,0,0,1,3.46-.14l5.48,1.72c2.05.66,4.27,1.07,5.09,3.52l-1.16,4.24c-3.82-2.53-7.19-5.76-11.56-7.44A2,2,0,0,1,331.52,115.42Z"/><path class="cls-10" d="M227.84,116.77c-.75-.94-1.18-2.54-2.94-1.44.75-2.74-.38-5.51.15-8.25-1.18-.17-1.9-.73-1.73-2-.37-1.89-2.58-2-3.4-3.44,2.83-.1,4.38,2.23,6.48,3.48,3,1.8,1.58,4.4.78,6.57C226.46,113.63,229.3,114.89,227.84,116.77Z"/><path class="cls-11" d="M248.1,94.52c.14,1.61,3.17,2.08,2,4-1.43,2.2-2.69-.74-4.22-.61s-3.07-.88-2.63-2.38S244.79,92,247.29,93A1.34,1.34,0,0,1,248.1,94.52Z"/><path class="cls-12" d="M257.78,103.27c-1.1-.29-2.2-.6-3.31-.85s-3.24,1-3.42-.9c-.17-1.71,2.17-1.73,3.42-2.4,1.45-.77,3.17-1.3,4.18.68.48,1,1.69,1.82,1.05,3.09C259.33,103.6,258.49,103.36,257.78,103.27Z"/><path class="cls-7" d="M240.34,109.17c-.78-.37-2,.26-1.58-1.86.64-3.61,2.27-5,5.51-3.78,1.44.55,2.52,1.7,4.39-.25-.44,3.06-1.94,3-3.48,3-2.21,0-4,.59-4.86,2.89Z"/><path class="cls-13" d="M216.59,80.85c-2,.7-3.49,3-6.16,1.82-.82-.37-2.38.39-2.29-1.22a2.63,2.63,0,0,1,2.27-2.36c1.67-.31,3.36-.55,5.05-.81Z"/><path class="cls-14" d="M265.83,134.13c-.36,1.72.46,2.8,1.75,2.54s2.2-1.19,1-2.82c-.49-.67.15-1.7,1.06-1.77s.95.88.83,1.53c-.34,2,.14,4.37-2.63,5.22-1.75.54-3.43.4-4.28-1.11C262.55,135.88,264.48,135.25,265.83,134.13Z"/><path class="cls-15" d="M262,93a5.37,5.37,0,0,0,1.37-.24c1.49-.68,3,.11,3.07,1.18s-1.43,2.16-3,2c-1.92-.16-3.77-.91-5.76-.49a.92.92,0,0,1-1.07-1.06c.07-.4.48-.74.74-1.1C259,94.66,260.29,91.45,262,93Z"/><path class="cls-16" d="M223.77,80.58l2.48,1.31c2.16,0,3.62.89,4.56,3.53C227.61,84.33,223.23,86.13,223.77,80.58Z"/><path class="cls-17" d="M254,115.1c0-1.46,1-1.81,2.1-1.74,1.44.1,3,1.27,3,2.3-.08,2.16-2.52.59-3.83,1.58C254.23,118,254.86,115.63,254,115.1Z"/><path class="cls-18" d="M299.16,84.88a5.74,5.74,0,0,0-.25,1.7,1.66,1.66,0,0,1-1.26,2.11,2.09,2.09,0,0,1-2.22-.62c-1.2-1.27.78-1.56.87-2.5l-2-.22C295.8,84.13,297.49,84.66,299.16,84.88Z"/><path class="cls-19" d="M331.43,103c-2.69,2.72-2.88,2.69-5.62-.79C327.82,101.49,329.87,100.46,331.43,103Z"/><path class="cls-20" d="M276.08,137.22a2.59,2.59,0,0,1-2.4,1.93c-1.39,0-2-1.17-2.2-2.28s.68-2.32,1.7-2.07C274.47,135.11,273.57,137.92,276.08,137.22Z"/><path class="cls-21" d="M282.41,96.81a3,3,0,0,0-.13,3.61c.37.68-.87,1.13-1.71.53s-.93-4.46.05-5.21a1.89,1.89,0,0,1,1.27-.3C282.43,95.52,282.47,96.05,282.41,96.81Z"/><path class="cls-22" d="M259.5,121.41a1.37,1.37,0,0,1-1.87,1c-1.05-.26-2.55-.16-2.48-1.79,0-.92,1-1.16,1.85-1.24C258,119.29,259.55,120.65,259.5,121.41Z"/><path class="cls-23" d="M271.56,82.58c.35-.79,1.06-.69,1.72-.73,1.16.15,2.58.29,2.4,1.79-.17,1.33-1.59.89-2.56,1C271.23,85,271.46,83.74,271.56,82.58Z"/><path class="cls-24" d="M356.74,98.79c0,.46-.18,1,0,1.36.64,1,.44,1.87-.61,2.16-1.55.42-.58-1.3-1.05-1.54-1.42-.72-1.17-1.71-.76-2.83A2,2,0,0,1,356.74,98.79Z"/><path class="cls-25" d="M265.88,87.68c-.2,1.33-1.51,1.29-2.33,1.62s-1.51-.68-1.44-1.41c.11-1.16,1.17-1.62,2.23-1.72S265.68,86.84,265.88,87.68Z"/><path class="cls-26" d="M279.37,131.92c-.34-1.39-2.46-2.37-.78-4.07.52-.53,1.57-.82,1.84-.38C281.47,129.16,280,130.43,279.37,131.92Z"/><path class="cls-27" d="M362.48,102.23c-.56,3-2.91-.41-4.05,2.15.12-2.56.49-3.74,2.29-3.79Z"/><path class="cls-28" d="M266.05,104.36c-1.05-.29-2.51.33-3-1.09-.22-.68.84-1.5,1.27-1.07,1.27,1.24,3.78-.16,4.15,1.45C268.8,105,266.87,103.93,266.05,104.36Z"/><path class="cls-29" d="M274.89,89.73c-1.2-.78-3.18-.71-3.07-2.88C276.4,87.2,276.51,87.3,274.89,89.73Z"/><path class="cls-30" d="M305.4,95.45c.89.8.55,1.36.21,1.79-.65.84,1.11,2.09-.49,2.66-.19.07-.69-.22-.78-.46-.48-1.14-1.12-2.35.19-3.4C304.78,95.84,305.06,95.68,305.4,95.45Z"/><path class="cls-31" d="M343,117.28c.07-1.19.2-2.71,1.8-2.13,1.33.49,1.13,1.93.39,3.09C344,119,343.5,118.21,343,117.28Z"/><path class="cls-32" d="M286.66,77.45l.63-1.14c1.79-1.15,3.21-1.29,3.61,1.33l.66.73C289.68,79.39,288.25,78,286.66,77.45Z"/><path class="cls-33" d="M255.72,125.88c1,.17,1.59.74,1.58,1.59s-.94,1.21-1.72,1.31-1.26-.49-1.24-1.25A1.66,1.66,0,0,1,255.72,125.88Z"/><path class="cls-34" d="M343,117.28a3.22,3.22,0,0,0,2.19,1c.29.8.59,1.59.88,2.39a1,1,0,0,0-.56-.11q-2.54-1.77-5.09-3.52Z"/><path class="cls-35" d="M248.1,94.52a1.59,1.59,0,0,1-.81-1.5c1.1-.8,2.57-1.37,3.05.18C250.73,94.44,249,94.31,248.1,94.52Z"/><path class="cls-36" d="M323.7,107.11c-.19-.82-.95-1.7.11-2.39a1.33,1.33,0,0,1,1.21,0c1.07.71.56,1.51,0,2.26Z"/><path class="cls-37" d="M250.49,95.76c.64-1.42,1.52-2,2.8-1.79.18,0,.47.65.38.84C253.06,96.07,252,96.05,250.49,95.76Z"/><path class="cls-38" d="M219.27,80.36c0,.52.09,1,.13,1.54-.52.56-1.2.89-1.79.29-.82-.83-.39-1.7.27-2.46Z"/><path class="cls-39" d="M237.75,96.76c.69.2,1.45.37,1.45,1.23s-.7.79-1.26.66-1.51-.2-1.5-1.07C236.44,96.88,237.22,96.89,237.75,96.76Z"/><path class="cls-40" d="M268.13,128.28a2.21,2.21,0,0,1-1.62,1.6.65.65,0,0,1-.91-.69c0-1,.84-1.35,1.6-1.62C267.64,127.41,268.11,127.61,268.13,128.28Z"/><path class="cls-41" d="M304.39,94.18c1.38-1.25,2.19-2,3.78-1.7C307.6,94.3,306.52,94.56,304.39,94.18Z"/><path class="cls-42" d="M261.35,133.05c-.45-.09-1.24.07-1.21-.73,0-1.06,1-1,1.77-1.2s1.18.27,1.07.93S262.14,133,261.35,133.05Z"/><path class="cls-43" d="M364.91,136.41a8.66,8.66,0,0,1,5.06-1.95C368.72,136.2,367.46,136.83,364.91,136.41Z"/><path class="cls-44" d="M352.56,98.73c-.65,1.23-.83,3.2-3.06,1.94C350.29,99.66,350.88,98.34,352.56,98.73Z"/><path class="cls-45" d="M307.11,101.86a3.5,3.5,0,0,1,1.31-3.75C309.11,100.08,307.2,100.58,307.11,101.86Z"/><path class="cls-46" d="M296.67,112.82c.6.06,1.26.2,1.3.87s-.45,1-1.12,1a1,1,0,0,1-1-.74C295.59,113.25,296,113,296.67,112.82Z"/><path class="cls-47" d="M322.64,100.24c.06.07.17.15.17.22s-.13.13-.2.19-.16-.15-.16-.22S322.57,100.3,322.64,100.24Z"/><path class="cls-48" d="M153.36,64.4c4.42,2.15,7.65,5.85,11.45,8.81.63.49,1.25,1,1.87,1.5,7.54,5.17,14.83,2.26,22.13-.66.23-.09.63.22.95.35a3.4,3.4,0,0,1,2.84-.13c2.73,2.37-.87,2.53-1.32,3.79a7.19,7.19,0,0,0-3.27,2.3c-1.61,2.14-4.52,2.55-7.11,2.3-2.42-.23-4.51-.66-7,.69-1.33.72-3.92-.42-5.89.15-1.73.49-4.24.23-4,3.23-.82,2.11-2.49,1.45-3.82,1-5.84-2.2-11.95-3.72-17.51-6.65-2.81-1.82-6.11-2.77-8.8-4.84-7.32-4.82-14.33-10-20.12-16.7a12.26,12.26,0,0,0-3.51-2.85,48.73,48.73,0,0,1-5-5.7c-.78-1-1.53-2.06-1-3.46-.39-1.35.18-2.23,1.51-1.83,2.44.72,5,.13,7.62.77-1.64.93-3.47-.2-4.8,1a51.31,51.31,0,0,0,8.22,7.07c3,2.47,6.25,4.69,9.38,7a85.39,85.39,0,0,0,38.47,16,17.31,17.31,0,0,0-4.64-4.3,35.75,35.75,0,0,1-5.91-5.42C153.38,66.86,152.48,65.82,153.36,64.4Z"/><path class="cls-48" d="M195.46,77.55c.48-.86,1.89-1.68.15-2.67a.69.69,0,0,1-1,.05,1.32,1.32,0,0,1-.05-1.52c3.11-1.14,5.87-3.17,9.27-3.56-.33.87-2.79,1-.74,2.72,1.19,1,.32,1.78-.84,2.22-.39.15-1.86,0-.39.91.63.4,1.32.85.84,1.57a1.57,1.57,0,0,1-2.2.28c-1.64-1.2-2.73-.68-3.65.86C196.09,78.66,195.66,78.3,195.46,77.55Z"/><path class="cls-49" d="M228.07,69.22c-1.47,1.6-2.65,3.84-4.42,4.47-1.3.47-3.37-1.7-3.6-3.34-.48-3.51,2.71-3,4.79-3.53C226.73,66.33,227,68.14,228.07,69.22Z"/><path class="cls-50" d="M210.92,68.29c-1.16.69-3.43-.36-3.13,2.68.14,1.4-1.86.61-2.93.42-.13-1.26,1.36-.92,1.42-1.9l-1.63-.26C207,66.09,209.18,65.77,210.92,68.29Z"/><path class="cls-51" d="M191.56,67.56c.7-.87,1.29-.64,1.83-.67,1.08-.06,2.24-.84,3.2.22a.76.76,0,0,1-.22,1.18c-1.16.48-2.36.84-3.56.06Z"/><path class="cls-52" d="M194.6,73.41l.63,1.38a1.67,1.67,0,0,1-2.43,0,3,3,0,0,1-3-.41C191,72.31,192.72,72.43,194.6,73.41Z"/><path class="cls-53" d="M227.5,75.54c-1.51.41-2,2.81-4,2.15C223.93,75.32,225.34,74.71,227.5,75.54Z"/><path class="cls-54" d="M190,34.3c-.48,1.1-1,2-2.44,2.14-3,.29-4,2.24-3.47,6.08-1.81-3.37-7.09-3.79-3.93-8.42.88-2.71,3.53-1.36,5.13-2.27C188.37,30,188.26,33.77,190,34.3Z"/><path class="cls-55" d="M195.5,23.66c-.44,1.95-1.26,2.65-3.44,1.8-1.89-.73-4.06-.71-6.11-1-.95-.14-2.49.25-2.35-1.2.1-1.08,2-2.22,2.53-1.88,2.61,1.59,2-.76,2.3-1.73.25-.75.1-1.63.91-2.13.49,1,1.41,1.69,1.59,2.82s1.18,1.1,2,1.35C193.73,22.38,195.51,21.85,195.5,23.66Z"/><path class="cls-56" d="M168.24,19.33c1.74-2.12,3.35-4.5,6.71-3.4a16.1,16.1,0,0,1,1.45.9c.7.54,1.77.93,1.41,2.08-.26.85-1.18,1.08-1.94,1.24-2.07.45-4.15.13-6.24,1.39C168.09,22.48,168.43,20.31,168.24,19.33Z"/><path class="cls-55" d="M186.41,11.84c-.45,2.77-.45,2.77-6.62,3,.7-1.38,2.8-.72,3.08-2.33h0c1.18-.16,2.12-1.57,3.51-.68Z"/><path class="cls-57" d="M193.23,45.56c.33,1.27.41,2.52-1,3.16-1.14.52-1.89-.16-2.38-1.18A4.34,4.34,0,0,1,193.23,45.56Z"/><path class="cls-58" d="M183,45.47c0,1.91-.62,3.21-2.89,2.74C180.22,46.39,180.63,44.9,183,45.47Z"/><path class="cls-59" d="M183.13,1.88a5.49,5.49,0,0,1-3,.78c-.12-1.57.2-2.75,2.18-2.65C183.92.08,183.45,1,183.13,1.88Z"/><path class="cls-60" d="M554.77,268.94c-.75.14-1.73-1.09-2.18.05-.3.75.62,1.27,1.46,1.38-1.7,3.85-4.46,3.85-8,2.52s-7.13.36-9.63,3.83c-.69,1-1.69.38-2.54.51-4.54.69-9.23.63-13.43,2.9-2.33-.21-4.72.06-7-.66l-1.44,0c-1,.63-2-.28-3,0-3.16-.37-5.67-2-8-4-11.05-4.75-21.81-10.12-32.65-15.34-3.08-2.07-7-2.45-9.92-4.86-4.12-2.22-7-6.25-11.44-8A219.73,219.73,0,0,0,419.39,237c-1.34-.05-2.6-.28-3.38-1.55.15-2.46,2.13-2.09,3.63-2.16a17.29,17.29,0,0,1,6.86,1.09c5.31,2,11,1.93,16.36,3.49a18.89,18.89,0,0,1,6.83,3.36,13.93,13.93,0,0,0,5.55,2.85,2.34,2.34,0,0,0,2.56-.68,1.78,1.78,0,0,0-.23-2.27c-3.46-4.69-5.78-10.23-9.61-14.56-3.08-3.49-7.78-4.47-12.56-3.78-.81.12-1.68.37-1.75,1.39,0,.84.72,1.11,1.33,1.43,2.89,1.52,6.06,2.44,8.84,4.19a8.14,8.14,0,0,1,2.7,2.16,3.74,3.74,0,0,1,.25,4.28c-.89,1.46-2.37,1.42-3.75,1-8.23-2.67-17.13-3.27-24.51-8.66a19.28,19.28,0,0,0-10.58-3.22,25.61,25.61,0,0,1-8.75-2.3c-3.76-1.54-7.33-3.49-11.27-4.7-4.28-1.32-6-4.93-6.53-9.13-.7-5.19-1.22-5.85-6.43-7-3.27-.72-6.27-1.7-8.19-4.74-.73-1.14-1.32-2.2-.57-3.53a1.26,1.26,0,0,1,1.62-.06c3.89,3.75,9.24,4.09,13.93,5.92,4.24,1.65,5.24,3,4.52,7.55-.47,3,1.11,4.9,3.43,6.27,6.09,3.58,12.49,6.24,19.73,6.27,3.18,0,6.18,1.07,9.25,1.75a11.81,11.81,0,0,0,8.43-1c5.13-2.66,10.84-3.6,16.5-3.81,5.31-.21,8.49,3.74,11.39,7.63a6.12,6.12,0,0,1,1.27,2.48c1.4,9,9.42,13.21,14.38,19.6a8.27,8.27,0,0,0,8.87,2.74c4.15-1,6.12-.07,8.05,3.81.45.9.32,2.09,1.51,2.85,1.61-2.7,3.44-5.22,3.67-8.48a5.19,5.19,0,0,1,3.79-3.75A29.82,29.82,0,0,0,505,239c3.89-2.75,8.2-2.57,12.57-1.35.65,2.53-1.49,2.92-2.85,2.88-6.66-.16-11.07,4.53-16.4,7.22-.64.33-1.46.82-1.34,1.48.67,3.53-2,6.43-1.8,10.84,3.12-3.63,7-3,10.53-3.41,4.75-.59,7.22,1.94,6.89,6.78-.13,1.88-1,3.6-1.21,5.45s.09,3.14,2.42,3.77c3.87,1.06,7.55,2.33,11.51.4,1.68-.82,3.42.11,5.13.31s3.14.41,2.75-2.15a2.28,2.28,0,0,1,2.7-2.8c3,1,5-.83,7.46-1.51a11.73,11.73,0,0,1,2.73-.56c3.69.77,6.47-1.8,9.73-2.63,1.07-.27,2-1.14,3.25-.65,1.68,1.23,2.6,3,1.6,4.79C559.34,270.29,556.85,269.05,554.77,268.94Z"/><path class="cls-61" d="M393.65,188.32c.88,1.3,3,1.12,3.53,2.82-.57,1.7,1.06,1.45,1.78,1.89,3.8,2.32,4.52,3.76,3.16,7.93-.73,2.26.08,3.42,1.88,4.54,1.29.82,3.51,1.05,2.91,3.52-3.53,1.27-9.73-1.82-10.63-5.49-.33-1.33-.6-2.4-1.95-2.91-4.21-3.4-9.35-4.57-14.37-6a17,17,0,0,1-4-1.24,84.28,84.28,0,0,0-12.06-6.12,4.84,4.84,0,0,1-3.26-5.26c.26-2.26.87-4.41,3.63-4.88,2.93.19,5.36,2.29,8.36,2.2a5.1,5.1,0,0,1,3.64-.3,2.8,2.8,0,0,1,2,1.66l6.35,2.58Z"/><path class="cls-62" d="M546.41,267.44c-2.15.58-4.68.13-6,2.84-.53,1.13-1.67.33-2.35-.31-1.06-1-2.23-.68-3.26-.23-1.49.64-.5,1.91-.27,2.74.67,2.44-.3,3.07-2.44,2.45-3.34-1-6.56-1.24-9.76.58a4.9,4.9,0,0,1-4.1-.05c-1.31-.48-2.62-1-3.92-1.49-1.48-.57-3.88.6-4.43-1.18a9.9,9.9,0,0,1,.66-6.43,9.74,9.74,0,0,0,.81-4.07c-.11-3.68-1.75-5-5.4-4.37a24.22,24.22,0,0,1-4.15.41c-2.36,0-4.42.42-5.54,2.82-.36.76-.89,1.49-1.88,1.13a1.64,1.64,0,0,1-.95-2.31c.72-2.14-.12-4.73,2-6.52a1.9,1.9,0,0,0,.31-2.3c-1.52-2.86.13-3.89,2.46-4.9a20.2,20.2,0,0,0,5-3.09c3.19-2.76,6.91-3.68,11-3.71a4.87,4.87,0,0,0,3.5-1.34c1.56-2,4-2.62,6.11-3.54,1.13-.49,2.94-.26,2.3,2l-.08.09c-1.57.9-2.49,2.59-4.14,3.38l-1.32.13c-1.48.41-.77,1.75-1.12,2.65a4.86,4.86,0,0,1-3.17,2c-2.93.9-4.79,3.22-6.95,5.13-.43.38-.93.83-.44,1.46s1.2.57,1.81.06c.79-.68,1.43-1.52,2.25-2.19a5.14,5.14,0,0,1,5.16-1.19c2.94.91,6.48-2.38,6.22-5.68,0-.8.52-1.18,1.09-1.55h2c6.62,3.84,13.8,6.26,21.09,8.39a6.37,6.37,0,0,1,3.62,1.91c1.89,2.28,4.43,3.2,7.2,3.8a10.13,10.13,0,0,1,3.5,1.42c2.36,1.63,2.18,2.85-.41,4.07l-4.11,0a26.78,26.78,0,0,1-3.07,1.13,2.46,2.46,0,0,1-1-.2c-3.11-3-6.33-5.56-11-5.68-2.17-.06-3.27-2.4-5.11-3.32-3.12-.42-5.33,1.81-7.33,3.32-5,3.76-9.18,8.5-14.8,11.69,4.45,3.46,9.39,2.72,14.29,2.77.63-1.06-.69-2.09-.32-3.21a3.14,3.14,0,0,1,4.45-2.12c2.73,1.18,5.36,1,8.15.74C544,265.46,546.07,265,546.41,267.44Z"/><path class="cls-63" d="M555.65,261.06c.37-2.6,1.72-.71,2.69-.59.16,1.3,1.22,1.94,2.07,2.69,1.4,1.22,2.51,2.62,1.81,4.52s-2.67,1.93-4.45,1.89a4.51,4.51,0,0,1-3-.63,12.45,12.45,0,0,0,1.37-.06c1.28-.18,3.19.63,3.62-1.05.39-1.53.41-3.47-1.34-4.64C557,263.19,555.78,262.8,555.65,261.06Z"/><path class="cls-64" d="M296.26,69.84c-3.33.34-2.73-2-2.73-4,1.67-.7,2.91.15,3.86,1.31C298.55,68.59,295.73,68.55,296.26,69.84Z"/><path class="cls-65" d="M360.74,143.88c0-1-.24-2.07.79-2.7.1-.05.6.31.7.56C362.73,143.05,362,143.55,360.74,143.88Z"/><path class="cls-66" d="M176,98.71c-.5.78.11,1.07.64,1.25,2.77.9,2.48,3,1.43,4.75-1.45,2.44-1.94,5.23-3.16,7.7a5.92,5.92,0,0,0,.52,6.5c2,3,3.35,6.42,6.88,8a1.69,1.69,0,0,1-.32,1.65c-4.05,4-8.59,7.26-14.18,8.82-1.4-1.26-.44-2.31.37-3.29a27.45,27.45,0,0,1,2.59-2.35,4.49,4.49,0,0,0,.61-6.23c-1.87-2.42-9.9-5-12.78-3.87a42.08,42.08,0,0,1-12.3,2.41c-2.48.17-3.29,1.17-3.27,3.43a19.46,19.46,0,0,0,.89,6.88c.62,1.64,1.53,3.55-.43,5.09-1.84-.47-2.42-1.92-3-3.53-2.44-7.37-3.49-15.08-5.58-22.53a125.69,125.69,0,0,1-3.32-17.72c-.37-2.87.31-4.37,3.09-4.81a63.08,63.08,0,0,1,21.15-.12c5.47,1,10.6,2.2,15,5.72.87.69,2,.33,3.07.33C175,97.07,176,97.28,176,98.71Z"/><path class="cls-67" d="M204.55,113.56l5,6.82c1.52,2.92.25,5.69-.87,8.21a30.34,30.34,0,0,1-4.06,6.76c-8,8.64-15.45,17.66-19.59,28.93-4.91,4.06-10.32,6.91-16.89,6.92-.7-.54-1.16-1.33-.7-2.1,2.25-3.76,1.13-8.41,3.27-12.18a106.46,106.46,0,0,1,5.47-11.64,20.84,20.84,0,0,1,8.76-8.25c7.22-3.78,12.59-9.8,18-15.73a4,4,0,0,0,1-4.19A3.09,3.09,0,0,1,204.55,113.56Z"/><path class="cls-68" d="M204.55,113.56c0,.7-.15,1.57.19,2.06,2.18,3.18.49,5.6-1.64,7.65-5.49,5.29-10.33,11.45-17.36,14.83a21.21,21.21,0,0,0-8.73,8.15,24,24,0,0,0-1.87,4.12,33.9,33.9,0,0,1-3.44,6.46,14.28,14.28,0,0,1-11,5.88,9.24,9.24,0,0,0-5.86,2.66c-3.93,3.7-8.2,6.79-13.61,8.08A20.22,20.22,0,0,0,135,176.5c-1.23.81-1.69,1.78-1,3.16-.56,1.24-1.67,1.24-2.77,1.28-2.54-.37-3.63-1.91-2.31-4.09,2.29-3.8,5.94-6.59,8.17-10.5.2-.36.81-.37,1.26-.43a6,6,0,0,0,5.79-1.53,49.37,49.37,0,0,1,17.2-9.67c3.95-1.33,6.23-4.25,7-8.37.88-4.52,4.53-7.07,8.11-8.45a60.81,60.81,0,0,0,14.8-8.77c1.94-1.48,4-2.87,4.55-5.8a37.81,37.81,0,0,0-7.66,1.53,2.1,2.1,0,0,1-2.41-.26,35.37,35.37,0,0,1,6.69-8C195.92,113.73,199.78,111.65,204.55,113.56Z"/><path class="cls-69" d="M203.89,134.9a18.64,18.64,0,0,1,3-5.84,11.47,11.47,0,0,0,2.66-8.68,3.77,3.77,0,0,1,1,4.29c-.57,1.86.36,1.94,1.75,1.32,3.41.62,6.69,4,6.65,7.3,0,4.22-.6,8.29-4,11.47-1.94,1.81-3.62,3.93-5.82,5.46-1.7,1.19-3.52,1.94-5.26-.05A33,33,0,0,1,203.89,134.9Z"/><path class="cls-70" d="M185.8,124.6l2.06-.73c1-.17,2.09.11,3.13,0,1.27-.11,2.35.2,2.79,1.54s-.33,2.21-1.32,2.94c-5,3.68-9.6,8.13-15.94,9.66a3,3,0,0,0-1.24.63c-5.56,4.77-12.39,7.83-17.59,13.12a16.12,16.12,0,0,1-8.33,4.83c-2.66.55-4.45,2.87-6.73,4.24-1.3.79-2.58,2.38-4.21.46-.36-1.79.92-2.71,2-3.68,2.61-2.24,5.4-4.25,8.13-6.34,1.82-1.6,3.92-2.83,5.83-4.3a69.44,69.44,0,0,0,7.5-5.58c1.78-1.79,3.54-3.6,6.11-4.24,4.46-3.81,10.23-5.79,14.24-10.21Z"/><path class="cls-71" d="M204.61,150.52c2.63.43,3.87-1.66,5.56-3,4.5-3.6,7.67-7.88,7.62-14,0-3.88-3.24-5.35-5.49-7.56.44-1.57.78-3.21,2.79-3.53,0,.23,0,.46,0,.69.59,3.63,4.22,4.54,6.27,6.88,4.57,5.25,3.34,15.88-2.81,19.21a19.52,19.52,0,0,0-6.93,6.09l0,.18a7.31,7.31,0,0,1-8,.81C202.26,154.1,202,152.06,204.61,150.52Z"/><path class="cls-72" d="M203.22,100.79l.95-.83c.51-.3.9-1.28,1.6-.6.47.45-.23,1-.47,1.42-1.16,1,1.91,1.64.36,2.26-1.21.49-3.41.62-4-.09C200.39,101.59,202.83,101.7,203.22,100.79Z"/><path class="cls-73" d="M223.32,105c.41.82,1.6,1,1.73,2a5.54,5.54,0,0,1-1.21.62c-1.14.27-2.72.54-3-.81C220.65,105.71,222,105.05,223.32,105Z"/><path class="cls-74" d="M220.52,104.75l-3.47.26c-.62,0-1.51.46-1.55-.6,0-.71,1.06-1.46,1.31-1.27C217.89,103.94,219.66,102.75,220.52,104.75Z"/><path class="cls-75" d="M271.76,69.9c1,0,2,.12,1.48,1.57,0,.11-.11.28-.19.29-1.95.26-1,3.83-3,3.18s.27-2.79-.31-4.21Z"/><path class="cls-76" d="M231.14,153.83c1.7,0,3.33,1.14,5.09.33,7.2,2.77,14.7,4.46,22.18,6.25.66,1,1.6.9,2.66,1s2.69.78.86,2.33c-2.46,2.65-7.51,3.23-11.42,1.27-.51-.26-.93-.67-1.47-.89-7.06-3.72-14.61-4.34-22.38-3.51-.72,3.12-2.55,3.38-5,2-1.93-.49-3.44.84-5.16,1.24-2.07.14-3.66,1.23-5.28,2.41-1.2.87-2.7,1.63-4.12.41s-.27-2.55.3-3.73c.86-1.76,2.1-3.31,2.89-5.12a2.15,2.15,0,0,1,2.18-.92c3.64-1.37,7.22-3,11.21-3.09A38.26,38.26,0,0,1,231.14,153.83Z"/><path class="cls-77" d="M203.2,85.26c-2.09-.14-4.5,0-4.39-2.34.09-2.1,2.56-1.92,4.21-2s3.49.81,3.48,2.27C206.49,84.14,205.07,86.25,203.2,85.26Z"/><path class="cls-78" d="M215.28,87.42a15.22,15.22,0,0,1-5.91-1.18c-.47-.19-.87-.55-.68-1a1.33,1.33,0,0,1,1-.75C211.73,84.69,214.12,84.25,215.28,87.42Z"/><path class="cls-48" d="M166.9,88.29l-2.34-1.42c3.66-.34,5.57,3,8.54,4.08C170.77,90.69,168.54,90.16,166.9,88.29Z"/><path class="cls-79" d="M192.8,74.81l2.43,0a2.62,2.62,0,0,0,.38.09c-.64,2.16-2.29,2.94-4.33,3.18C191,76.6,193.64,76.52,192.8,74.81Z"/><path class="cls-80" d="M195.46,77.55l1.43.86c.18,1.33-.66,1.81-1.74,1.94a1.17,1.17,0,0,1-1-.67C194,78.68,194.71,78.07,195.46,77.55Z"/><path class="cls-81" d="M211,72.05c.63,0,1.27.14,1.21.86s-.86,1-1.56,1.1-1.22-.23-1.19-.91C209.49,72.22,210.27,72.11,211,72.05Z"/><path class="cls-82" d="M352,137.48s9.29,5.06-2.41,31.11-7.83-27.41-7.83-27.41Z"/><path class="cls-83" d="M299.79,129.45l.74-.7c2,1.86,2.29-1.16,3.66-1.27.66-.06,1.12-1.42,2-.77s.15,1.45-.08,2.19c-1,3.12-.74,3.36,2.56,2.61a16.7,16.7,0,0,0,6.68-2.67,15,15,0,0,1,7.07-.74c1.22-1,2.84-.77,4.22-1.27a3,3,0,0,0,2.83,2.67c1.38-1.29,3.42,1.73,4.77-.75.22-.41.74.67.8,1.13a1.8,1.8,0,0,0,2.07,1.79c1.23,1,2.9,1,4.22,1.91,1.12.8.36-1.38,1.35-1.27.92-.16-.13-2.55,1.21-1.51,1.15.9,4,.36,3.37,3.18-.06.29.15.64.23,1-.06,2.9-.16,5.82,3,7.4,1.26,1.49,3,2.93.6,4.88a33.73,33.73,0,0,0-9.63-7.16c-3.33-1.7-6.89-3.64-10.95-3.43a19.1,19.1,0,0,1-6.49-.9,16.31,16.31,0,0,0-6.89-.93c1.23.62,3.46-1.37,4.44,1.21-1.81,1.38-4,1-6,1.12a40.68,40.68,0,0,0-8.13,1.71c-3,.86-4.46,2.74-4.14,5.89-.67,2.73-2.84,4.18-4.89,5.73a2.68,2.68,0,0,1-2.09-.26,2.6,2.6,0,0,1-.67-3.08c.7-1.72-.14-2.49-1.56-3-2.19-2.89-.1-4.85,1.51-6.91C296.48,134.31,298.43,132,299.79,129.45Z"/><path class="cls-83" d="M356,137.24a18.91,18.91,0,0,1,0,10.85c-.37,1.36-.94,2.95-2.86,3.08-1.19-.45-1.19-1.56-1.41-2.54,1.16-2.87.63-5.13-2.35-6.51-2.16-1.85-3.06-3.87-.9-6.33.63.17,1.52.7,1.85.46,2.24-1.61,3.41-.48,4.56,1.4C355.32,138.42,355.75,137.85,356,137.24Z"/><path class="cls-84" d="M331.52,115.42c5.34,1.67,9.28,5.26,12.87,9.34-2.56.23-3.46-2.62-5.78-3a72.6,72.6,0,0,1-7.23-2.06c.72-.72,1.53.59,2.32-.29-1-1.38-3-1.35-4.16-2.53-.71-.72-2.67-1-1.51-2.45.88-1.11,2.08-.25,3,.6A5.56,5.56,0,0,0,331.52,115.42Z"/><path class="cls-85" d="M333.57,123.28c2.07-.81,4.13-2.26,5.33,1.34.29.88,2.42,1.08,3.64,1.72,2.65,1.41,5.81,1.9,7.86,4.53-5.47-3.14-12.08-2.55-17.54-5.68C332.42,124.3,334.14,124.21,333.57,123.28Z"/><path class="cls-86" d="M342.7,132.31c-.31,1.48.66,2.67,1.22,5.08-2.57-2.37-4.76-3.89-7.37-4.54.19-.4.39-.79.58-1.18C339.21,130,341.13,129.61,342.7,132.31Z"/><path class="cls-87" d="M322.44,128.1c.27.87.72,2.29-.85,1.61-2.08-.88-3.81-1.17-5.73.2-.27.2-.49-.61-.49-1.07a11.74,11.74,0,0,0,1.32-1.11C318.78,125.37,320.7,125.19,322.44,128.1Z"/><path class="cls-88" d="M333.57,123.28c.61,1.69,3.75-1.26,3.25,1.44-.47,2.55-2.7-.66-4,.47-.11,0-.24,0-.33-.06-1.41-.94-4.83-.9-4.14-2.4C329.44,120.44,331.8,122.72,333.57,123.28Z"/><path class="cls-89" d="M318.47,119.8c3.07-.86,5-.57,6.8.59.51.31,1.11.47,1,1.17-.19.91-1,1-1.63.75C322.8,121.65,321.05,120.87,318.47,119.8Z"/><path class="cls-90" d="M348.44,135.79c-.4,2.43-.64,4.82,1.9,6.38.11.62-.12.9-.76.77-2.85-2.1-4.68-4.48-2.07-8Z"/><path class="cls-91" d="M329.49,129.5c-.7,2.22-1.82.53-2.58.16-1.48-.7-1.07-1.8-.25-2.83.64-.08,1.23-.7,1.91-.13s.32,1.38.66,2Z"/><path class="cls-83" d="M329.23,128.71a1.34,1.34,0,0,1-.66-2c1-.65,2.16-.58,2.52.56C331.58,128.83,329.41,127.62,329.23,128.71Z"/><path class="cls-83" d="M313.73,127.68c-1.34,1.25-2.2,1.71-3.67,1.62A3.32,3.32,0,0,1,313.73,127.68Z"/><path class="cls-92" d="M287.49,72c-.48.87-.62,2-1.69,2.42-1.51-.15-.12,2.11-1.94,2.14-1.33,0-2.67,1.63-4,0-.63-.77.8-5.82,1.61-5.69C283.47,71.22,285.94,69.38,287.49,72Z"/><path class="cls-93" d="M289.92,72a8.38,8.38,0,0,1,3.07,3.1,4.68,4.68,0,0,1-1.24.5c-1.28.14-2.66.25-3.46-1s1.32-1.48,1-2.61A4,4,0,0,1,289.92,72Z"/><path class="cls-94" d="M243.74,80.29a1.35,1.35,0,0,0-.46-.46c-.72-1.18-.58-2,1-2.12,1.06-.12,2,.15,2,1.31C246.26,80.86,244.82,80.33,243.74,80.29Z"/><path class="cls-95" d="M249.65,163.17c4,2.4,8.13,1.7,12.28.58,4.78-.44,9.61-1.54,14.18,1,2.14,1.89,1.91,4.46,2,6.93-.06.92-.36,1.8-.5,2.71-.09.6-.69,1.44-.94,1.29-3.47-2-4.95,1.87-7.52,2.45a35.18,35.18,0,0,0-7.81,2.74,4,4,0,0,1-5-1.15c-2-2.36-4.63-2.81-7.51-2.4a81.84,81.84,0,0,1-8.27.56c-1.59-.23-3,.44-4.38,1-1.77.71-1.85,1.72-.75,3.23,3.16,4.36,1.55,9.74-3.49,12a223.84,223.84,0,0,0-24.91,12.63c-2.72,1.65-4.89,4-7.59,5.59a78.71,78.71,0,0,1-18.06,10.25c-4.19,1.78-8.91,2.5-12.56,5.59a3.67,3.67,0,0,1-4.81.44c-.55-3.32,2.61-3.64,4.21-5.22,3.24-2.05,6.64-3.9,9-7a46.9,46.9,0,0,1,7.16-5.31,19.88,19.88,0,0,0,4.63-4.52c1-1,2.17-2,3.22-3,1.46-1.65,2.79-3.55,4.73-4.6,4.58-2.48,7.39-6.31,10-10.75,5.75-9.88,14.58-15.42,26-16.63a4.18,4.18,0,0,0,2-.38c4.11-2.93,9-4.23,13.37-6.65C248.84,164.05,249.06,163.44,249.65,163.17Z"/><path class="cls-96" d="M276.84,172.16c-.25-2.48-.49-4.95-.73-7.43,0-1.36,0-2.73.11-4.09a3.09,3.09,0,0,1,3.28-3.2,3.76,3.76,0,0,1,2-.28c7.18-.13,7.36,0,8.24,7.38.3,2.73.56,5.44,2.82,7.48a2,2,0,0,1,.31,3.06c-.44.6-1.82.06-1.68,1.24s1.26,1.06,2.13,1.19a18.36,18.36,0,0,1,5.46,2.76c1.18.73,2.71,1.62,1.36,3.48-.84.44-1.69.05-2.54,0-.63,0-1.66-.28-.64.86a39.87,39.87,0,0,0,8.68,7.34c3,1.83,4.4,4.32,3.42,7.86-.93,2.37-1.6,4.87-3.45,6.77-1.65,1.69-3.4,2-5.07.08a26.7,26.7,0,0,0-8.21-6.25c-7.89-5-13.24-11.8-15.19-21.07-.13-1-.29-2.07-.36-3.11A6.87,6.87,0,0,0,276.84,172.16Z"/><path class="cls-97" d="M343.9,192.37l.73-.59c3-2,6.31-1.87,9.66-1,.94.06,1.89,0,2.82.13a19.46,19.46,0,0,1,11.29,8.74,8.12,8.12,0,0,0,5.38,3.52c5.81,1.42,7.1,4.69,3.72,9.68-1.28,1.89-.91,2.86.88,3.81a43.19,43.19,0,0,0,8.9,3.95,19,19,0,0,1,2.67.77c1.28.56,2.95,1.14,2.61,2.8-.39,1.9-2,1.32-3.43,1.05a13.79,13.79,0,0,0-5.2.1c-4.36,0-8.13-2-11.89-3.77-4.36-2-9-2.35-13.56-3-2.31-.31-4.19,1-5.72,2.22-5.17,4.19-11.22,7-16.48,11-4.84,2.25-9.06,5.51-13.49,8.42-4.21,2.07-7.11,5.9-11.16,8.18a3.37,3.37,0,0,1-1,.4c-2.21-.09-4.14,2.18-6.5.76-.81-1.22.16-1.95.8-2.71,5-6,10.07-11.66,17.23-15.48s13-9.37,19.15-14.48c3.77-3.12,7.87-5.81,11.37-9.25,4.87-4.77,3.48-10.44-3.1-12.44a19,19,0,0,1-5.2-2A1.7,1.7,0,0,1,343.9,192.37Z"/><path class="cls-98" d="M292.18,165.2c-2.24-5.2-2-10,2.06-14.33.62-.66,1-1.54,2.18-1.24l2,.14a6.61,6.61,0,0,1,2.86-1,20.8,20.8,0,0,1,10.67.71c2.47,2.34,5.86,3.12,8.58,5a22.28,22.28,0,0,0,8.82,3.4c3,.47,6.07.68,9.1,1,3.31.43,5.55,2.74,8.05,4.58a4.61,4.61,0,0,1,2.25,2.45l1.41,1.18c1.9.11,3.91-.5,5.59.92a2.22,2.22,0,0,1,.84,3.4c-2.68,1.82-3.93,4.92-6.29,7-2.77.77-.23,3.91-1,3.88-1.47,0-2.82-2-4.58-.36-2.45,2.28-4.78,4.8-8.58,4.58-1.32-.13-2.66.12-4-.07a4.69,4.69,0,0,1-3.26-.89c-2.39-2.09-3.33-4.85-3.83-7.89-.4-2.46-.41-5.07-2.13-7.14-4.45-3.15-8.44-1.48-12.34,1.19-1.8.59-3,2.11-4.71,2.88-4.51,2-7.28,1.59-10.5-2.12C293.57,170.51,291.92,168.23,292.18,165.2Z"/><path class="cls-99" d="M429.41,217.73c-4.17,1.14-8.3,1.85-12.69.9-6.45-1.4-13.17-.83-19.62-2.84-3.69-1.16-6.26-3.4-8.8-6-1.25-1.25-.24-2.36.26-3.49,1.78-4.05.95-5.72-3.44-6.85-2.94-.76-5.86-1.57-8.73-2.54-4.83-1.63-9.52-3-12.06-7.43a4.21,4.21,0,0,0-2.6-1.68c-2.2-.65-5.4-.47-2.63-4.36.72-1-.36-2.36-1.93-1.55-1.09.57-14.37,11.88-15.55,11.84-2.1-2.49.53-16.11.75-16.64,2.25-5.28,16.23-2.07,21.91,0-4.25,5.67-3.31,8.54,3.52,10.31a11.59,11.59,0,0,1,4.62,2.25,19.92,19.92,0,0,0,8.12,3.68c5.13,1.31,10.43,2.48,14.6,6.16a2.15,2.15,0,0,1,.48.92c.55,6.77,5.7,8.39,11,9.93a74.46,74.46,0,0,0,15.73,2.86,44.83,44.83,0,0,0,4.37,1.92C427.89,215.61,429.49,215.87,429.41,217.73Z"/><path class="cls-100" d="M357.3,191.83l-2.8,0a1.15,1.15,0,0,1-.34-.84c.24-1-.1-1.45-1.17-1.63-1.45-.25-3.07-.24-4-1.7.13-3.13,3.57-3,4.88-4.91.67-.46,1.32-1,2-1.38,2.22-1.26,3.82-.49,4.28,2,.18,1-.16,2,.9,2.82,7,5.63,14.57,10.06,23.6,11.86,5.57,1.11,6.63,3.22,5.25,8.77-.51,2,.45,3.09,1.65,4.21,4.39,4.09,10.08,4.61,15.58,5.2,3.57.38,7.17.63,10.73,1.19a28.56,28.56,0,0,0,11.38-.7,68.1,68.1,0,0,1,13.22-1,16,16,0,0,1,15.22,10.84c.67,1.75,1.08,3.57,1.71,5.33a6.16,6.16,0,0,0,1.33,2.44,102.05,102.05,0,0,0,14.54,11.33,3.65,3.65,0,0,0,3.07.2c3.57-1,6.34.27,8.81,2.82.87.91,1.59,2.56,3.41,1.57,1.32-.49,1.4-2.74,3.32-2.36,0,3.54-2.77,6.09-3.42,9.42-.2,1-1.36,1.19-2.35,1s-1.2-1-1.19-1.88a6.77,6.77,0,0,0-1.63-4.84c-1.33-1.52-2.39-2.28-4.69-1.1-4.16,2.14-10.37-.65-13.36-5.45-.67-1.08-1.22-2.41-2.19-3.1-5.07-3.58-8-8.39-9.82-14.32-1.32-4.34-4.6-7.36-9-9.18-3-1.24-5.78.07-8.58.3A23.45,23.45,0,0,0,427.45,222c-2.37,1.42-4.69,2.15-7.25,1.3C413,220.92,405.12,222,398,219.12a68.72,68.72,0,0,1-9.73-4.61c-2.75-1.65-4.61-4.5-3.28-7.7,2-4.69-2.18-5.24-5.69-6.61a48.44,48.44,0,0,0-6.12-1.85c-2.83-.7-4.65-2.79-6.81-4.43a2.25,2.25,0,0,1-1.88-.63C362.43,191.15,359.93,191.17,357.3,191.83Z"/><path class="cls-101" d="M336.31,185.56c3.07-.54,5.68-2.16,8.4-3.5-1.83,2.2-2.45,5-3.31,7.58-.7,2.12.28,3.08,2.5,2.73l.11.24c-3.44,4.65-6.82,9.59-12.14,12.08-5.7,2.65-9.85,6.86-14,11.23-1.24,1.3-2.52,2.91-4.77,2.13a20.74,20.74,0,0,1-3.71-6.53,4,4,0,0,1,1.52-2,8.27,8.27,0,0,1,3.7-.79,5.09,5.09,0,0,0,2.7-.59c5.77-4.15,10.85-8.92,13.41-15.8C331.49,189.16,333.1,186.69,336.31,185.56Z"/><path class="cls-102" d="M301.44,149.65l-3,.12c.81-2.13,3.32-2.82,4.19-4.91,1.13-4,4.61-4.48,7.9-5.25A72.7,72.7,0,0,1,327.78,143c1.09.37,2.17.89,3.36.35,7.15-.13,12.14,3.72,16.37,8.93a3.32,3.32,0,0,1,.58,2.64l.13,1.25c.5.91.58,1.86-.4,2.43a2.32,2.32,0,0,1-2.88-.57c-1.07-1-1.79-2.46-3.3-3a53.87,53.87,0,0,0-19-8.72c-2.59-.66-5.27-.81-7.89-1.3C309.43,143.93,305.41,146.73,301.44,149.65Z"/><path class="cls-103" d="M348.09,154.87c-4.1-5.84-9.32-9.93-16.69-10.65a1.29,1.29,0,0,1-.12-1c1.34-1.66,1.63-4.3,4.39-4.62,3.55,1.31,7.49,2.07,9,6.33a32,32,0,0,1,4.62,5.53C350.38,152.45,350.39,153.91,348.09,154.87Z"/><path class="cls-104" d="M344.64,145c-2.73-2.4-6.07-3.81-9.14-5.64-4.9-.16-9.42-1.76-13.89-3.59-1.88-1.14-4.1-.24-6.9-1.12a43.89,43.89,0,0,1,9.5.05c2.58.34,5.13,1.6,7.81.26.79-.39,1.57.22,2.23.7a7.52,7.52,0,0,0,5.69,1.78c2.6-.3,3.67,2.81,5.7,4.1s3.61,3.58,5.38,5.42a3.87,3.87,0,0,1,1.34,1.5c.25.92.49,1.84.74,2.76-.62,1.51-1.06.68-1.35-.15a18.14,18.14,0,0,0-4.05-6.27C346.49,143.4,345.59,143.87,344.64,145Z"/><path class="cls-105" d="M341.88,153.92c1.78.32,2.62,1.73,3.63,3,1.47,1.85,2.42,1.58,2.71-.79,1.68,1.72.68,5.29,4.19,5.8-1.16,1.53-3,2.28-3.65,4.09a4.88,4.88,0,0,1-2.64-1.43,14.57,14.57,0,0,0-7.84-7.87c-1.44-.64-4.07-1.36-3.19-3.28s3.05-.55,4.54.27A2.12,2.12,0,0,0,341.88,153.92Z"/><path class="cls-99" d="M349,187.63l5.36.67c.86.11,2-.09,2,1.22,0,1.15-.91,1.43-1.85,1.6-2.56-.27-5.17-.06-7.69-.78Z"/><path class="cls-106" d="M350.3,178.54a26.52,26.52,0,0,0,1.14-2.49c.85-2.52,1.59-5.11,5.15-4.54C355.71,174.94,353.79,177.44,350.3,178.54Z"/><path class="cls-107" d="M355.75,168.11a3.75,3.75,0,0,0-1,0c-2.86.79-2.85.8-4.59-.89.52-2.45,2.4-2.2,4.08-1.86C355.62,165.6,356.56,166.47,355.75,168.11Z"/><path class="cls-108" d="M346.8,190.34c2.56.32,5.23-.46,7.69.78,0,.23,0,.46,0,.68-3.29-.46-6.58-1-9.87,0A2.88,2.88,0,0,1,346.8,190.34Z"/><path class="cls-109" d="M212.44,156.87l-1.59,1.26c-2,3-4,5.85-5.33,9.24a4.92,4.92,0,0,1-3.18,3c-4.12,1.81-8.27,2.82-12.81,1.31-2-.66-4.13.2-6.15.82-3.36,1-6.76,1.82-10.31,1.24-2.4-.39-4.31.68-6.09,2.07a6.12,6.12,0,0,1-7.19.59c-1.21-.66-2.16-1.53-1.1-3.06,2.95-1.62,5.87-3.33,9.46-2.62,5.75-1.31,10.94-3.95,16.07-6.72a7.77,7.77,0,0,1,3.68-3c4.09-1.6,8.15-3.26,12.24-4.86,1.31-.52,2.64-.9,4-.15a24.63,24.63,0,0,1,7.46-.5C211.89,156,212.16,156.42,212.44,156.87Z"/><path class="cls-110" d="M211.58,155.33c-.13-3.45,1.86-5.27,4.81-6.52,4.58-1.93,8.35-11.05,6-15.35-1.14-2.12-3.29-3.75-5.13-5.43-1.48-1.36-3-2.58-2.25-4.88a82.24,82.24,0,0,0,8.86,6.65c6.25,4.26,9.58,10.58,11.38,17.73.89,3.52-1,5.58-4.52,5a29.16,29.16,0,0,0-14.46,1.6C214.78,154.68,213.16,154.94,211.58,155.33Z"/><path class="cls-110" d="M231.14,153.83l-7.5-.05A13,13,0,0,1,231.14,153.83Z"/><path class="cls-111" d="M116.31,55.41c-2.71-2.5-6.78-3.68-7.65-7.95,5.54-.32,10.78,1,16,2.7A191.06,191.06,0,0,1,144,57.63a36.23,36.23,0,0,1,4.6,3c2.16.56,3,2.78,4.84,3.79l-.11,0c1.35,3,3.94,4.81,6.3,6.83,1.59,1.36,3.32,2.55,4.87,4,1,.89,3.11,1.57,2.57,2.86-.65,1.56-2.68.75-4.13.52a83.27,83.27,0,0,1-37.72-16.22,1.67,1.67,0,0,1,1.41-.86c1.43-.13,2.88-.29,3.21-2a4.56,4.56,0,0,0-1.65-4.33,15.17,15.17,0,0,0-6.46-3.2c-2.44-.68-4.93-1.18-7.68-1.9C114.5,52.15,117.44,53,116.31,55.41Z"/><path class="cls-48" d="M153.47,64.42c-2.28-.41-3.37-2.35-4.84-3.79,1.76-.86,2.16,1.28,3.4,1.55Z"/><path class="cls-112" d="M181,8.07c-.72,0-1.79.1-1.66-.73a2.16,2.16,0,0,1,2.09-1.89c.84,0,1.82.43,1.84,1.23C183.34,8.17,181.83,7.69,181,8.07Z"/><path class="cls-113" d="M205.33,54.55c-.78-2-.78-2-4.28.34.59-1.93,0-4.26,2.08-4.9,2.57-.77,5.57-2.32,7.7,1-2.05,1-1.16,2,.41,2.88A6,6,0,0,1,205.33,54.55Z"/><path class="cls-114" d="M194.74,58.84a2.89,2.89,0,0,1,2.23-.73,3.86,3.86,0,0,1,0,.68c-.19,1,.42,2.75-1.07,2.78S194.92,59.87,194.74,58.84Z"/><path class="cls-115" d="M116.31,55.41c-.81-1.89-2.57-2.95-3.88-4.39-.44-.49-1.42-.73-1.13-1.56a1.64,1.64,0,0,1,2-1c5.25,1.7,11.08,1.81,15.63,5.42,2.13,1.7,3.24,4,2.2,6.72-1.15,3-3.62,2.18-5.89,1.75C122.22,60.1,118.91,58.21,116.31,55.41Z"/><path class="cls-116" d="M184.18,54.13c-1.42,2.1-2.32,4.39-5.42,4C180.06,55.59,180.54,55.23,184.18,54.13Z"/><path class="cls-117" d="M191.89,54.13a1.76,1.76,0,0,1,1.27,2,1.3,1.3,0,0,1-1.74,1.15c-.56-.12-1.17-.44-1-1.12A3.37,3.37,0,0,1,191.89,54.13Z"/><path class="cls-118" d="M419.61,199.63c5.19,3.48,11.15,5.27,16.85,7.62l2.19,1.3c-.26,2.64-2.27,2.92-4.1,2.53a50.38,50.38,0,0,0-17.28-.33c-3.4.44-7.19.26-10.25-2.12-1-.58-2-1.2-3-1.73-4.42-2.3-4.76-2.84-2.66-7.13,1.34-2.75-.24-3.8-2.11-5-.88-.54-1.73-1.12-2.62-1.66-.64-.39-1.89-.38-1.61-1.43s1.39-.48,2.15-.59A101.66,101.66,0,0,1,419.61,199.63Z"/><path class="cls-99" d="M493.85,247.83l-2.07,3.5c-2.74-1.7-3.11-4.83-4.46-7.37-.23-1.17-.92-2.2-1-3.41-.13-3.35-2.82-5.06-4.88-6.94-6.15-5.65-12-11.82-20.06-14.91a3.39,3.39,0,0,1-.91-.41c-.86-1-2.26-1.67-1.61-3.35a36.11,36.11,0,0,1,16.43,6.93c5.86,4.25,11.71,8.68,16.71,14,3.86,3,5.21,5.13,9.43,2.06.89-.65,3.82-1.3,5.79-1.41a46.8,46.8,0,0,0,15.54-2.8c1.52-.59,3-.88,4.18.37,1,1.06.22,1.88-.8,2.46-.83-2.11-2.11-1.28-3.35-.5-1.56,1-3,2.26-5.06,2s-4.41.22-6.58-.47c-1.52-.48-2.64.45-3.78,1.3-3.41,2.58-6.6,5.54-11.1,6.23A2.86,2.86,0,0,0,493.85,247.83Z"/><path class="cls-119" d="M458.83,214.94l2.09,2.8c-.77.82-1.65.53-2.53.27a8.49,8.49,0,0,0-4.2-.58c-8-2.54-16.46-1.75-24.62-3.21-2.35-.42-4.75,1.09-7.14,0-6.32.66-12.25-1.32-18.11-3.08-3-.89-5.78-2.93-8.23-5-2-1.65-.71-4.41-.95-6.67a4.09,4.09,0,0,1,1.88,2c2,5.12,4.79,7.07,10,7.11,6.91,1.2,13.82,0,20.73.05a27.79,27.79,0,0,1,6.51,1,3.86,3.86,0,0,0,4.38-1.16Z"/><path class="cls-120" d="M548.54,249.24c-8-.46-15.12-2.91-21.08-8.39,2.26-.42,4.16.72,5.93,1.72a48.17,48.17,0,0,0,10.71,4A13.16,13.16,0,0,1,548.54,249.24Z"/><path class="cls-120" d="M519.06,242.27c-.6-1.49.11-2,1.51-2.09-.53,1.26.3,1.4,1.17,1.3,1.23-.14,2.46-.41,3.68-.63l-.75,1.36C522.82,244.08,521,244.08,519.06,242.27Z"/><path class="cls-99" d="M521.89,240.05c1.19-1.36,2.15-3,4.14-3.38C524.88,238.09,524,239.86,521.89,240.05Z"/><path class="cls-108" d="M416.27,235l-.77.15c-4.16-.82-8.5-.75-12.47-2.56-1.16-.53-2.43-.85-2.88-2.25l-6.3-2.1c-1.64-.59-3.41-.26-5-.67-2-.52-4.37-.77-5-3.41a15.6,15.6,0,0,1,8.3.83c-.8-2.32-2.35-2.46-3.53-2.66-4.36-.74-8.06-2.94-11.82-5-3.06-1.68-3.13-2.47-.65-4.82,1.55-1.46,2.68-3.15,1.95-5.25s-2.7-2.73-4.81-2.79a5,5,0,0,1-4.49-2.31c-2.54-4.94-6.85-7.76-11.47-10.29,3.38-3.19,5.24-2.76,9.1,2.09,1,3.58,3.06,5.92,6.9,6.44a33.35,33.35,0,0,1,3.42.68c4.43,1.09,5.56,2.54,5.82,7.41.29,5.3,2.93,8,8.15,9.39,3,.79,5.74,2.43,8.57,3.73a26.6,26.6,0,0,0,10.09,2.51,23.76,23.76,0,0,1,11.1,3.85c5.34,3.23,10.74,6,17.22,6,1.93,0,3.39,1.52,5.2,1.94,1.07.25,2.54,1.61,3.21-.4a2.86,2.86,0,0,0-1.54-3.82c-3.36-1.54-6.7-3.11-10.08-4.62-1.48-.66-3.41-1.15-3-3.21s2.31-2.48,4.14-2.53c6.61-.21,12.38,1.19,15.85,7.69a68.16,68.16,0,0,0,7.2,11.07c.9,1.11,2.34,2.73.9,4.37a4.65,4.65,0,0,1-5.19,1.09,10.19,10.19,0,0,1-4.05-2c-4.79-5-11.23-5.08-17.33-6-3.5-.53-6.66-2.17-10.23-2.5C420.57,234.77,418.45,234.29,416.27,235Z"/><path class="cls-121" d="M555.65,261.06l2.77,2.13c-3.67,2.35-7,5.58-12,4.25a3.42,3.42,0,0,0-2.63-.67c-3.4.17-6.9,1.77-10.08-1-.73-.63-1.86,0-2.51.69-1,1,.27,1.59.68,2.31.5.89,1.45,1.79.63,2.82s-2.08.83-3.14.13a3.09,3.09,0,0,0-2.63-.42c-2.8.67-5.52.69-8-1.16a4.79,4.79,0,0,0-1.3-.48c-1.22-.45-3.28.67-3.63-1.12-.38-1.95,1.76-2.61,3.09-3.33,4.87-2.62,8.13-7.22,12.58-10.14,2.58-1.69,4.91-5.68,9.2-3.72,2.77,5.09,8.33,6.13,12.79,8.75,1,.59,2.24.52,3.28,1.05Z"/><path class="cls-122" d="M519.06,242.27l5.61-.06c2.7,2.12,2.68,2.66-.16,4.19-.21.11-.55.1-.64.25-1.77,3.1-3.47,5.32-7.44,2.21-1.07-.83-3.11,1.48-4.25,3-1.89,2.53-4,2.34-5.52-.42-.46-.84-.51-1.44.43-2C511.07,247,514.23,243.25,519.06,242.27Z"/><path class="cls-123" d="M554.76,261.16a3.89,3.89,0,0,1-.94.41c-4.06.65-14.25-5.7-15.48-9.64,0-.14.22-.38.35-.57A12.07,12.07,0,0,0,547,255C550.8,255.08,553,258.08,554.76,261.16Z"/><path class="cls-124" d="M168,137.17c-1.33,2.09-3.54,3.19-5.35,4.73-4.71,3.15-10.07,3.11-15.37,2.88-3.26-.14-4.32-2.06-3.64-5.47-.47-4.22-2.78-8.06-2.17-12.55.4-2.94,1-4.19,4.48-4.09a25.7,25.7,0,0,0,11.17-2c3.81-1.71,13,.65,15.51,4,1.95,2.58,1.21,6.15-1.16,8.42C170.23,134.26,167.61,134.52,168,137.17Z"/><path class="cls-125" d="M143.66,139.31c.35,3.22,2,4.58,5.35,4.23,4.56-.49,9.16-.65,13.66-1.64a23,23,0,0,1-7.54,5.73c-2.37-.81-4.82-.57-7.26-.56-2.71,0-4.17-1.09-5.25-3.94-2.81-7.37-4.74-15-7.51-22.38-.77-2-.39-4.13-.83-6.19-1.82-8.48-4.22-16.89-4-25.69l1.48-.77c11.14-.32,22.3-.36,32.85,3.83a22.83,22.83,0,0,1,9.23,6c-1.27,0-2.64.3-3.71-.61-5.46-4.65-12.17-5-18.84-5.77-5.73-.7-11.29.38-16.93.61-2.35.1-1.87,1.59-1.75,2.91a97.4,97.4,0,0,0,4,20.47c2,6.41,2.41,13.19,4.77,19.52A11.3,11.3,0,0,0,143.66,139.31Z"/><path class="cls-126" d="M168.15,170.73c-3,1.1-5.76,2.85-9.06,3-5.39,4.07-11.93,4.84-18.24,6.17-2.3.48-4.79,1.54-6.94-.57-2.28.07-2.65-.82-1.24-2.54a14.69,14.69,0,0,1,8.07-4.56c5.53-1.41,9.81-4.54,13.78-8.39,1.56-1.51,3.13-2.68,5.78-2.38s5.19-.95,7.47-2.49c1.23-.84,2.33-2,3.93-2.16C170,161.33,171.12,166.55,168.15,170.73Z"/><path class="cls-127" d="M138.72,166.61c-.5.25-1.4.44-1.46.76-.7,4.4-4.57,6.43-7,9.49-1.36,1.68-1.36,2.62.9,3.08a6.19,6.19,0,0,1,4.24,5.45c.33,2.3,1.62,3.23,3.95,2.15,3.38-1.57,7.18-1.89,10.51-3.71,2.57-1.41,4.67,0,6.48,1.89,3.57,3.73,7.34,4,10-.36,4.71-7.75,13-8.83,20.07-12.29a3.09,3.09,0,0,1,1.69-.38c4.81.73,9.34-.36,13.79-2,1.4,2.75-.79,4.34-2,6.25-2.81,2.32-5.11,5.29-8.56,6.83-3.32,1-6.67,1.95-10.09,2.67-4.72,1-8,4.53-11.5,7.62a14,14,0,0,1-11.14,4c-3-.28-6.19.93-9.09-1.06-.69-.47-1.44.44-2.09.95-7,5.48-16.14,2.55-18.9-6.13-1.56-4.9-1.62-10.05-2-15.14a8,8,0,0,1,1.31-3.34c.31-1.56,1.52-2.54,2.38-3.74a3.72,3.72,0,0,1,1-1.07c1.64-.75,2.26-2.27,2.88-3.8a4.24,4.24,0,0,1,2.76-1.84C139.87,163.27,140.1,163.73,138.72,166.61Z"/><path class="cls-128" d="M201.83,170.8c-3.59,2.57-7.23,4.21-12,3.11-2.82-.65-5.64,1.1-8.2,2.49a18.55,18.55,0,0,1-4.76,2.11,11.44,11.44,0,0,0-8.29,6.35c-1.42,2.85-4.08,4.11-6.8,5.17s-4.41-.74-5.9-2.62c-3-3.74-3.18-3.64-7.39-1.49-3.39,1.73-7.3,2.13-10.85,3.63-2.13.9-3.33-1-3.44-2.84a10.8,10.8,0,0,0-3.1-6.77c1,0,2,.12,2.78-.59,7.58-.21,14.66-2.72,21.84-4.76,1.11-.32,2.23-.56,3.34-.84,1.36,2.34,4.51,3.23,6.31,1.52a9.87,9.87,0,0,1,9.49-2.74c2.52.49,5.28-.3,7.78-1.3,3.25-1.31,6.63-1.79,9.83-.38,3.79,1.66,6.68-1.25,10.06-1.41C202.93,170.22,203,170.84,201.83,170.8Z"/><path class="cls-129" d="M138.72,166.61c.07-1.62.52-3.54-2.29-2.77-.45-1.58.43-2.34,1.76-2.8a1.6,1.6,0,0,1,.53.09c3.39-.13,5-3.2,7.63-4.67,1.2-.67,2.07-1.39,3.66-1.41,3.14,0,5.12-2.63,7.14-4.56a31.29,31.29,0,0,1,5-4.19c6.26-3.92,12.12-8.36,19.2-11.07,4.06-1.55,7.43-5,10.93-7.88,1.65-1.34.84-2.47-1.07-2.7a7.77,7.77,0,0,1-3.35-.78c2.57-1,5.44-1.05,7.9-2.47a1.51,1.51,0,0,1,1.91,2.28c-.93,1.46-1.62,3.32-2.94,4.25-5.84,4.09-11.2,8.78-18.26,11.21-3.16,1.08-6.75,3.76-7.08,8.66a8.63,8.63,0,0,1-6.06,7.51,60,60,0,0,0-19.9,11.17C142.05,167.64,140.35,169,138.72,166.61Z"/><path class="cls-130" d="M201.83,170.8l.73-1.36a57.73,57.73,0,0,0,5.37-8.45,6.35,6.35,0,0,1,2.91-2.86c.19,2.43-2.19,3.63-2.74,5.72-.21.78-1.61,1.51-.38,2.35a2.09,2.09,0,0,0,2.54-.63,12.07,12.07,0,0,1,3.2-2.56,2.33,2.33,0,0,1,2.9.15c2.32.58,4.45.65,5.54-2.07l3.33,2c-.6-1.5-.83-2.71.4-3.51,1.91.16,3.64.83,5.71.75a34,34,0,0,1,18.74,4.35c-1.3,2.19-3.79,2.33-5.8,3.2-2.67,1.17-5.44,2.1-7.6,4.19a3.53,3.53,0,0,1-2.55.9c-12.92.37-21.45,7.51-27.35,18.27-1.63,3-3.35,5.43-6.4,7s-5.07,4.09-7.52,6.24c-3-.76-2.08-3.06-1.83-4.94.69-5.11,2.19-10.06,3.34-15.07.3-3.4,3.28-5.28,4.58-8.11C200,174.56,201.33,172.9,201.83,170.8Z"/><path class="cls-131" d="M250.08,164.7c-4.45-1.08-8.86-2.41-13.36-3.15a28.19,28.19,0,0,0-9.12,0c-2.27.38-2-.6-2-2,.4-.41.85-1.2,1.18-1.15,7.68,1.22,15.81.35,22.84,4.72C249.79,163.68,249.94,164.19,250.08,164.7Z"/><path class="cls-132" d="M221.9,161.09c.07,1.15,1.79,2.32-.32,3.44-2.31,1.24-3.89.65-5.22-1.37C217.9,161.64,219.59,160.54,221.9,161.09Z"/><path class="cls-133" d="M321.61,135.72a21.15,21.15,0,0,1,10.23,2.45c1.3.76,3.5-2.07,3.66,1.14-2.08.67-1.59,3.83-4,4.15l-.33-.36c-1-3.32-4.31-3.42-6.76-4.67-.82-.42-1.86-.13-2.58-.44,1.34.35,3,.23,4.36,1.16.48.32,1.14.56,1,1.24s-.9,1.05-1.61,1c-1.27,0-2.53-.38-3.83-.37-3.81-.51-7.61-1.24-11.46-.37a26.82,26.82,0,0,0-7.66,4.18c-1.2-3.78,0-5.8,3.55-7.15C311.19,135.81,316.37,135.64,321.61,135.72Z"/><path class="cls-82" d="M352.36,148.41l-1.34-1.5c1-1.85-.35-2.87-1.44-4l.76-.77C353.18,143.55,354.47,145.43,352.36,148.41Z"/><path class="cls-134" d="M164.07,228.24a5.26,5.26,0,0,0,5-1.87c1.33-1.59,3.38-1.72,5.16-2.47,5.57-2.33,11.5-3.91,16.58-7.4,2.65-1.82,5.48-3.39,8.24-5.07,1.35.37,1.59,1.47,1.87,2.65a20.37,20.37,0,0,1-.17,11c-.34,3-3.16,3.78-4.94,5.48a7.14,7.14,0,0,1-4.71.9c-8.8-1.2-16.57,1.42-23.42,6.76-4.68,3.67-10.07,5.86-15.54,7.66-4.75,1.56-9.78.27-14.67-.38-1.26-1.65,0-2.82.88-3.92a44.06,44.06,0,0,1,6.09-6,25.63,25.63,0,0,1,7.92-2.43,7.1,7.1,0,0,0,3.52-1.34A29.9,29.9,0,0,0,161,229C161.85,228.38,162.79,227.5,164.07,228.24Z"/><path class="cls-135" d="M126.19,214.85a3.77,3.77,0,0,1-3.56-2c.21-1.66,1.36-1.26,2.35-1,8,2.09,15.92,1,23.86-.15,3.35-.48,6.74-.3,10.1-.52,6.2-.4,11.67-3,17.45-4.74,7.39-2.21,12.67-6,13.63-14.29.25-2.12,1.62-4.09,2.68-6,.6-1.12,1.17-2.37,2.84-2-1,5.42-2.92,10.64-3.25,16.2-.09,1.47-.78,2.95.57,4.2a6.68,6.68,0,0,1-3,2.65c-8.24,5.71-17.67,8.51-27.31,10.33-6.62,1.25-13.42-.43-20.15-.6A115.87,115.87,0,0,1,126.19,214.85Z"/><path class="cls-136" d="M199.71,225.41c.56-4.7,1.27-9.41-.69-14,5.5-5.53,12.24-9.21,19.26-12.29,4.78-2.09,9.11-5,14.15-6.71,4.15-1.39,4.78-7.14,1.49-9.76-1.74-1.39-1.3-2.59.06-3.69a11.74,11.74,0,0,1,6.37-2.55c-2.08,2.82-1.85,5.57-.75,8.88.71,2.13-.86,5,1.6,6.89,3,.81,6,1.66,7.19,5.11,0,.18,0,.35,0,.53a1.21,1.21,0,0,1-.71.74C237.8,196.47,229,200,220.39,204c-3.79,1.74-8,2.55-11.46,5.06a24.39,24.39,0,0,0-3.36,2.47c-2,2.13-3.52,4.34-1.83,7.42a4.34,4.34,0,0,1,.44,3.06C203.64,224.28,202.7,226.2,199.71,225.41Z"/><path class="cls-137" d="M240.46,193.14c-1.68-2-4.19-3.68-1.8-6.85.77-1-.13-2.27-.89-3.16-2.31-2.69-1.65-4.55,1.48-5.86a5.36,5.36,0,0,0,1.1-.84c3-.11,6-.22,8.93-.59,3.15-.39,6.31-.21,8.14,3.12,1,1.77,2.42,1.37,3.9.91a1.45,1.45,0,0,1,.41.9,20.73,20.73,0,0,1-11.69,8.1c-2.92.86-5.74,1.48-7.95,3.71C241.68,193,241,192.94,240.46,193.14Z"/><path class="cls-138" d="M126.19,214.85c3.61-.63,7,1.09,10.51,1.14,9.14.15,18.33,2.36,27.39.25,5.7-1.33,11.11-3.88,16.7-5.71,3.08-1,5.82-2.87,9.06-3.38-3.22,4.15-7.59,6.95-11.79,9.95a167.5,167.5,0,0,1-50-1.53A10.72,10.72,0,0,1,126.19,214.85Z"/><path class="cls-139" d="M261.35,180.63l0-.76a10.55,10.55,0,0,1,5.33-2.47,11.15,11.15,0,0,0,7.91-5.49c1.42.45,1.2,1.88,1.9,3,.14-1,.26-1.87.38-2.72a9.08,9.08,0,0,1,.62,4.25c.17.18.36.43.28.59C275.24,182,265.39,184.18,261.35,180.63Z"/><path class="cls-140" d="M311.08,210.15a1.6,1.6,0,0,1-1.47,1.37,2.51,2.51,0,0,1-2.75,1c-2.48-.61-5-.19-7.48-.52-1.94-1.43-3.78-3.19-6.4-1.12-.49.38-1.35.18-2.05.08-4.67-.72-7.59.83-9.37,5.31-1.18,3-3.18,4.07-6.26,3.83-6.1-.49-11.77,1.27-17.24,3.66-2.55,1.11-4.79,2.85-7.64,3.37A3.2,3.2,0,0,0,248,229.4c-.42,1.2-.75,2.48-1.94,3.24-1.73.28-2.46-1-3.26-2.12s-1.45-2.38-2.27-3.51c-2.24-3.06-4.88-3.52-8.07-1.42a16.93,16.93,0,0,1-3.92,2.24c-3.8,1.26-5.09.17-4.54-3.83,1.05-3.18,3.73-4.39,6.59-5.1a22.28,22.28,0,0,0,10-5.46c5.42-5,11.87-8.76,17.46-13.58a2.12,2.12,0,0,0-.15-2.94c-1.72-1.51-4.85-2-4.33-5.2s3.5-2.66,5.51-3.38c3.15-1.12,5.49-3.42,8.29-5,3.43-2,7.25-2.84,10.91-4.17,2.19,8.76,7.28,15.4,14.74,20.31,2.61,3,6.45,4.68,8.9,7.92.51.68,1.46.43,2.26.48C306.65,208,309.17,208.18,311.08,210.15Z"/><path class="cls-141" d="M336.31,185.56c-2.15,1.88-3.24,4.55-5,6.74-2,2.74-4.83.69-7.2,1.27-2.18-.17-4.37.33-6.55-.09-2.51-.85-4.89-2.08-7.48-2.73a3.87,3.87,0,0,1-1-.29c-2.34-1.28-4.68-2.57-6.91-4-1.06-.69-2.66-1.16-2.29-3-1.13-3.33-4.85-3-7-4.91-1-1-1.92-2-.8-3.46.67-.69.89-1.66,0-2-3.85-1.49-3-4.91-3.46-7.84h3.54c1.14,1.18,1.66,2.75,2.51,4.1,3.61,5.76,6,6.87,11.48,3.83,1.4-.77,2.52-2.07,4.2-2.34,1.61,2.23.08,4.18-.64,6.14-.58,1.56-1,2.88,1,3.62a21.21,21.21,0,0,0,5.23,2.52c4.62,1.52,5.6.93,6.3-3.71a12.29,12.29,0,0,0,0-5.53,3.73,3.73,0,0,1,1.45-4.33c2.06,2.42,2,5.56,2.67,8.41a18,18,0,0,0,2.9,6.92c.25,2.52,1.46,1.79,2.75.82Z"/><path class="cls-142" d="M323.68,192.7l7.64-.4c1.29,1.41.37,2.62-.43,3.74a101.52,101.52,0,0,1-10.3,11.72c-2.62,2.66-6.16,2.3-9.51,2.39-7.92.17-12.8-5.34-18.23-9.81-.12-.09.09-.58.14-.89a25.19,25.19,0,0,1,8.41,6.64c1.24,1.64,2.36,1.26,3.27-.22,1.27-2.07,2.41-4.21,3.6-6.33,2.69-1.21,5.45-.79,8.21-.36a9.24,9.24,0,0,0,3.8.21c1.66-.44,3.06-1.14,1.12-3-.72-.69-1.89-1.38-1.06-2.56.69-1,1.91-.57,2.93-.48.29,0,.56.2.86.16A.69.69,0,0,1,323.68,192.7Z"/><path class="cls-143" d="M278.25,179.14c-.37,1.63-1.31,3-3,2.79-4.25-.57-7,2.25-9.86,4.36a20.74,20.74,0,0,1-9,4.12c-1,.17-1.92.26-1.92,1.51a2.29,2.29,0,0,0,1.5,2.49,4.71,4.71,0,0,1,3.28,2.3c.51,1.5.76,2.85-1.57,2.69-2.09-3.69-2.13-3.69-7.23-1.12a2.7,2.7,0,0,1-2.44-.79,12,12,0,0,0-7.55-4.35c2.24-2.45,3.73-5.64,8.19-5.12,2.36.27,4.7-1.65,6.77-3.17s4-2.81,5.93-4.22c4.43.69,9,1.83,12.41-2.39,1.07-1.33,3-.15,3.7-1.83C278.16,177.2,278.07,178.21,278.25,179.14Z"/><path class="cls-144" d="M323.68,192.7l3.2.88v.47h-6.71c1.93,1.64,5.11,1.39,3.93,4.29-1.07,2.62-3.46,2.78-5.91,2.55-3.1-.29-6.19-2-9.36,0-.41.26-.42-.87-.56-1.38.66-3.21-.69-5.34-3.55-6.71-3.65-1.75-6.18-4.83-8.91-7.65-.82-.85-2.68-1.72-1.87-2.92s2.59-.35,3.86.32a44.3,44.3,0,0,0,11.91,7.12l0,0c2.54.79,4.78,2.54,7.61,2.39Z"/><path class="cls-145" d="M292.13,175.06c-.42,1.31,1.31,2.13.8,3.46-2,.62-2.63-.83-3.3-2.23-.43-.89-.77-1.89.18-2.51C291.18,172.89,291.55,174.27,292.13,175.06Z"/><path class="cls-146" d="M309.71,189.7a22,22,0,0,1-11.91-7.12l2.1.84C302.69,186.26,306.6,187.36,309.71,189.7Z"/><path class="cls-147" d="M290.66,153.84c-.77-.32-1-.68-.63-1.16.61-.92-1.6-1.71-.13-2.6.42-.25.88.08,1.12.51A2.48,2.48,0,0,1,290.66,153.84Z"/><path class="cls-140" d="M304.07,249.21l-2.11.7c-1.57-1.82-.61-3.63.38-5.11,2.36-3.51,4.24-6.92,1.25-11a2.68,2.68,0,0,1-.09-2c1.84-4.18,5.29-7.41,6.93-11.74a3.16,3.16,0,0,1,2.8-2.25c3.85-2,6.35-5.36,9-8.53a9.34,9.34,0,0,1,3.76-2.95,27.46,27.46,0,0,0,13.17-9.92,8.55,8.55,0,0,1,4.8-3.75c4,.7,8.11.92,11,4.32,3.09,3.64,3.2,7.52-.21,10.56a181.33,181.33,0,0,1-15.57,12.81c-4.15,2.93-7.52,6.8-12.1,9.28-2.46,1.33-4.58,3.52-7.23,4.75-4.48,2.06-7.74,5.51-10.5,9.43A28.68,28.68,0,0,1,304.07,249.21Z"/><path class="cls-148" d="M317.49,157.45c1.42.9.79,1.88-.14,2.45-4,2.45-6.23,6.59-9.55,9.68-1.69,1.57-3.89,2-5.81,3.09a2.39,2.39,0,0,1-2.83-.8c-2.05-2.1-3.76-4.39-4.14-7.42,1.69-1.36,2-3.28,2.34-5.27,1-5.77,2.58-6.49,7.64-3.65a14.71,14.71,0,0,0,2.28,1.2c.71-.74.29-2.34,1.76-2.6a3,3,0,0,1,2.78,1.14C313.39,156.92,315.38,157.3,317.49,157.45Z"/><path class="cls-149" d="M331.33,183.44c-3.82-4.28-2.81-8.36,2.69-11.41.87-.48,2.73.05,2.51-1.76-.19-1.57-1.79-1.63-2.92-2.11a12.36,12.36,0,0,0-1.66-.54c-2.09-.59-3.83-1.64-3.22-4.12s2.95-1.93,4.64-1.61c4.4.83,8.66,2.14,12,5.38-.21,5.66-4.05,9.29-7.41,13.17C336.24,182.44,334.17,183.82,331.33,183.44Z"/><path class="cls-150" d="M341.88,153.92l1,2.07c-2.84-.16-4.68-2.39-7.84-2.66,4.49,3.57,11.57,3.79,11.07,11.25l-7.78-4.92a4.28,4.28,0,0,1-2.77-1.18c-4.9-3.75-10.14-6.41-16.58-5.36-2-.67-4.25-.79-6-2.17.16-1.53,1.57-1.51,2.53-2.1,0-.15-.19-.21-.46-.3-1.26-.42-3.43-.35-3.17-2s2.38-1.67,3.86-1.34c2.44.53,4.81.93,7.17-.25A45,45,0,0,1,341.88,153.92Z"/><path class="cls-151" d="M323.7,169.5c-1,3.07.11,6.15,0,9.23-.22,6.17-2.6,7.8-8.44,5.49,3.87-2.26,4.79-6.15,5.53-9.94-.39,1.35-.64,3.37-2.69,3.15-2.37-.25-1.51-2.63-1.9-4.11-2.66,2.2-3.34,5.79-5.91,8-2.75-.47-3.1-2.42-2.05-4.34a28.26,28.26,0,0,0,2.13-6.2C314.43,166.42,319,167.06,323.7,169.5Z"/><path class="cls-152" d="M317.49,157.45c-2.07,2.29-3.92.81-5.72-.4-1-.65-1.35-2.91-2.74-1.91s.6,2.13.91,3.26a3.14,3.14,0,0,1-.09.9c-2.93-.61-5.22-2.47-7.62-3.9-2.08-1.24-2.68-.49-3,1.34-.31,1.58-.58,3.18-.76,4.79-.23,2.09-1.17,3.23-3.41,2.92a10.9,10.9,0,0,1-.69-4.09c.45-5.79,2.94-8.5,8.85-8.34A22,22,0,0,1,317.49,157.45Z"/><path class="cls-153" d="M322.91,145c-2.8,4.11-6.79.53-10.57,1.67,2.49.55,4.64.71,6.56,2-1.72,1.61-3.81,1.64-5.78,2l-.35.16a75.68,75.68,0,0,0-11.33-1.16A11.42,11.42,0,0,1,312,143.33C315.69,143.44,319.26,144.46,322.91,145Z"/><path class="cls-154" d="M331.33,183.44c6.78-2.77,9.79-8.93,13.24-14.7.29-.48.54-1,.81-1.47,3.25,3,3.4,4.71,1.4,8.47-2.69,5.09-7.24,7.2-12.51,8.32A3.26,3.26,0,0,1,331.33,183.44Z"/><path class="cls-155" d="M312.77,150.81a.42.42,0,0,1,.35-.16l6.09,1.25c5.13.37,9.67,2.77,14.48,4.25a9.5,9.5,0,0,1,2.79,2l1.86,1.55c-3.09.64-6.08,0-9.07-.7-2.61-2.31-5.94-2.77-9.16-3.49C317.71,153.84,314.34,153.74,312.77,150.81Z"/><path class="cls-156" d="M320.11,155.47c.17-.55.33-1.32,1-1.11,2.84.85,5.69,1.69,8.43,2.8,1.28.51.93,1.38-.3,1.8C325.77,159,322.91,157.3,320.11,155.47Z"/><path class="cls-157" d="M322.92,165.85c-1.25-.19-2.55-.66-2.7-2.09s1.15-1.88,2.28-2c1.5-.22,1.92.94,2.17,2.11C325,165.17,324.2,165.7,322.92,165.85Z"/><path class="cls-101" d="M332,185.65c.54,2.5-1.53,1.63-2.59,1.92-.6.17-1.56.2-1.77-.6-.32-1.23.44-1.9,1.61-2.14Z"/><path class="cls-158" d="M422.43,214.25c4.29-2.25,8.72-1.35,13.18-.74,6.36.86,13,.11,19,2.83,1.51.64,3.15.9,4.63,1.62,3.78,2.11,5.52,5.89,7.32,9.47,3.34,6.66,8.42,10.88,15.71,12.4a8.73,8.73,0,0,1,6,3.83,26.39,26.39,0,0,1,3.5,7.67c-1.86,1.9-3.18,1.52-4.72-.63-2.2-3-4.76-5.14-9.17-3.39-3.23,1.28-5.68-1.56-7.85-3.48a45.23,45.23,0,0,0-7.18-5.47,10.57,10.57,0,0,1-5.18-7.14c-3-14-11.71-15.08-22.73-13.94a54,54,0,0,1-5.54.45C427.11,216.52,424.39,216.14,422.43,214.25Z"/><path class="cls-159" d="M313.23,217.76c-1.05,2.68-4.3,4.53-3.06,8.08a.43.43,0,0,1-.08.31c-3.89-.11-3.18,4.65-6,5.66-3.59,1.05-6-.62-6.08-4.13,0-1.55.67-2.94.91-4.43.5-3-.36-4.33-3.11-4.58-2-.18-3.74-.72-4.29-2.85-.44-1.73-.38-3.61,1-4.9,1.64-1.52,3.57-1.39,5.47-.26a3.87,3.87,0,0,1,1.17.7c3.51-2,7,.33,10.44.16C311.75,213.06,313.31,214.93,313.23,217.76Z"/><path class="cls-160" d="M310.27,140.68c3.88-2.2,7.93-.78,11.93-.54,2.1.35,4.1,1.11,6.32.88,1.51-.16,2.45,1,2.92,2.41l0,0-.06.76c-2.67,1.8-5-.38-7.13-1.11C319.66,141.47,314.91,141.56,310.27,140.68Z"/><path class="cls-161" d="M121.18,211.48c-1.9-1.22-2.62-3.43-4.2-4.92,0-.45.11-1-.12-1.35-3.79-5.44-2.65-10.82.15-16.19-1-1.74.47-2.55,1.36-3.5,2-2.14,4.18-4.06,5.57-6.68.81-1.36,1.56-2.83,3.56-2.53,1.32,4.74.73,9.75,2.08,14.5s6.64,8.87,11.58,8.73a6.13,6.13,0,0,0,5.32-2.77c1.46-2.11,3.19-2.73,5.08-.43a2.35,2.35,0,0,0,2.12,1c7.35-.68,14.43-1.39,19.51-8.22,1.82-2.46,5.51-4,9.22-4.39,3-.29,5.89-1.3,8.84-2-.09,4.62-3.77,5.77-7.1,6.88-6.33,2.12-11.88,5.26-16,10.63a35.82,35.82,0,0,1-2.95,3c-6,6.09-13.75,7.47-21.66,8.48-3.92.5-7.89.44-11.81,1.09C128.09,213.37,124.75,211.49,121.18,211.48Z"/><path class="cls-162" d="M82.8,320a97.8,97.8,0,0,0-19,5.46l-1.21.12L60.33,325c-3.25-.64-4-3.42-5-6a3.14,3.14,0,0,1,.92-3.6c2-.78,2.65.58,3.24,2.07,1.91,4.88,3.23,5.42,7.68,3a40.66,40.66,0,0,1,6.27-2.94,5,5,0,0,0,3.43-3.13c.33-1,.82-2.17,2-2.14s1.32,1.39,1.62,2.34a1.58,1.58,0,0,0,.78,1.08c1.65.21,3.14-.74,4.76-.59,1.27.12,2.54.25,3.22,1.59-.14,1.73-1.47,2.06-2.82,2.44C85.21,319.5,83.92,319.39,82.8,320Z"/><path class="cls-163" d="M110.23,290.49c.72,4.38-2,6.94-5,9.33l-.67-.26a3.35,3.35,0,0,1-.52-2.65c.25-3.8-.93-5.52-4.63-6.09-2.17-.34-2.14-2.2-3-3.45a66.68,66.68,0,0,0-5.89-8.2c-.88-.95-2.5-2-1.22-3.48,1.07-1.25,2.55-.66,3.79.2,2.31,2.18,4.7,4.32,4.88,6.88.15-1.46-1.14-3.62-1.51-6-.27-1.72-1.13-3.78,1.63-4.46,4.16.56,6.58,3.36,8.62,6.66C108.24,282.73,110.6,286.19,110.23,290.49Z"/><path class="cls-164" d="M98.76,305.21l-.6.11c-1.14-2.68-3-5.3-.78-8.29-.53,0-1.08.22-1.58-.15a29,29,0,0,0-11.44-11c-2-1.11-1.9-2.43-.44-3.92.25-.25.58-.4.82-.65,4.11-4.16,4.5-4.08,8.21.73,1.38,1.78,2,4.25,4.48,5.09.46.9.91,1.81,1.55,3.06,1.13-2.47,2.26-2.45,3.44-.22.5,1,.56,2.49,2.65,1.85.83-.25.67,1.8.63,2.64a27.76,27.76,0,0,1-1.12,5.07c-1.19.15-2.46.18-2.94,1.63C102.39,303.76,100.7,304.57,98.76,305.21Z"/><path class="cls-165" d="M125.54,279.41,124,280c-1.44-2.2.21-3.24,1.71-4.1,4.63-2.65,9.31-5.3,14.14-7.48,4.57-2.06,8.7-4.9,13.37-6.8,3.78-1.53,7.59-2.92,11.44-4.26,2.62-.16,5.21-2.37,7.88-.16.16,2.32-1.78,3-3.18,4.16-2.68,2.21-6.21,3-8.81,5.35-8,4.31-16.11,8.21-25.31,9.16-2.42.7-5.07.81-7,2.82C127.36,278.78,126.28,278.45,125.54,279.41Z"/><path class="cls-166" d="M488.28,243.66c-3.14-1.89-7.09-1.84-10.09-3.37-5.26-2.67-10.44-6-12.83-12.18a25.88,25.88,0,0,0-6.52-9.67.93.93,0,0,1,.05-1.41l2,.71,0,0c6.76,3.51,11.42,9.41,16.56,14.74,1.33,1.38,2.49,2.69,4.46,3.1,2.6.54,4,2.64,5.56,4.54C487.78,241.31,488,242.48,488.28,243.66Z"/><path class="cls-119" d="M487.54,240.14c-2.68-1.29-4.74-3.86-8.07-3.81a1.58,1.58,0,0,1-1.18-.67c-3.06-5.53-9-8.38-12.5-13.47-1.3-1.91-3.49-2.67-4.83-4.43,3.56.17,6.67,2.1,9,4.16,5.46,4.75,11.75,8.67,15.94,14.81A7.39,7.39,0,0,1,487.54,240.14Z"/><path class="cls-99" d="M458.89,217c0,.47,0,.94-.05,1.41a8.27,8.27,0,0,1-4.19-2.1A7.83,7.83,0,0,1,458.89,217Z"/><path class="cls-167" d="M.08,315c.33-1.83,2.14-2,3.27-3,.79.51.61,1.36.8,2.09.12.32.23.82.52.86,3.19.35,6.34,2,9.4,1.71,6.07-.59,12.19-.87,18.22-1.88a11.7,11.7,0,0,0,2.54-1.05c1.16-.48,2.38-1.27,3.32.37-.07,1.48-1.18,2.2-2.22,2.9a106.32,106.32,0,0,0-16,13.12,4.47,4.47,0,0,1-4.06,1.41c-3.25.27-6.5.36-9.75.49-4.32.18-6.23-1.85-5.88-6C.51,322.31-.24,318.65.08,315Z"/><path class="cls-168" d="M2.75,313.73c.32-.53.78-1,.6-1.71,6.75-2.91,14-2.86,21.13-3.85,1.35-.18,2.9.25,3.48-1.57,1.85-1,3.43,1,5.25.46a9.44,9.44,0,0,1,3.3,1.09c2.5,2.12,2.45,3.33-.15,4.91a18.62,18.62,0,0,1-7.55,2.36c-7.67.95-15.33,2.09-23,.4C4.41,315.52,2.86,315.71,2.75,313.73Z"/><path class="cls-169" d="M47.81,331.93c-.31,5.12-4.27,5.36-7.05,5.94-6.23,1.31-12.45-.39-18.55-1.7-2.25-.48-3.82-2.54-5.33-4.32,0-.18.06-.36.08-.54a97.28,97.28,0,0,1,20.87-17.05,5.51,5.51,0,0,1,2.92-3.54c4.35-1.71,8.21-4.7,13.11-5,5.07,2.89,5.15,7.26,0,10.23-3.1,1.81-6.31,3.36-8.84,6-3.42,3.62-3.65,4.54-1.55,9.18.54,1.14,1.22.83,4.29.73"/><path class="cls-170" d="M267,252.26c-2.45,2.46-22.38-1.91-26.56-2.31l-1.61-.7c-2.91.36-4.33-2.16-6.39-3.39a20.4,20.4,0,0,1-4.74-4.4c-1.83-2.14-4.84-3.49-4.64-7,.75-1.41,1.94-.94,2.58-.2,2.2,2.57,5.51,3.77,7.51,6.65,2.31,3.32,3.66,3.19,6.69.31a18.68,18.68,0,0,0,3.9-5.72,6.48,6.48,0,0,1,2.18-3.08c.29-4.16,2-6.09,6.53-7.42s8.8-4.48,13.8-5.35c3.29-.57,6.45-1.72,9.94-.76a3,3,0,0,0,4-2.77c.65-4.3,4.68-5.44,7.33-7.87,3.06,3.11,6.88-.5,10.15,1.15.91.46,2.64,0,1.46,1.94a17.75,17.75,0,0,1-2.42-.11c-3.23-.55-5.08,1.33-4.34,4.54a2,2,0,0,0,2.31,1.62c5.33-.13,7,2.15,5.43,7.35-1.65,5.44-1.65,5.44,3.94,7.05.78,1.65,1,3.47,2.38,5s.44,3.22-.6,4.72c-1.78,2.58-3.7,5.11-3.91,8.42l-1.26.15c-2.07,1.1-4.34,1.67-6.48,2.56l-4.12,1.79c-.38.28-.57.74-1,1-1.39.38-2.79.73-3.95-.55-12.45,1.85-18.08-.82-16.19-1.64"/><path class="cls-97" d="M294.22,252.62a11.89,11.89,0,0,1,6.47-2.56C299.1,252.33,296.51,252.09,294.22,252.62Z"/><path class="cls-171" d="M121.18,211.48a2.28,2.28,0,0,1,2.57-.68c5.27,2.56,10.44-.37,15.68-.21,4.6.14,9.18-1,13.7-2,5.94-1.37,10.48-5,14.17-9.58A30.64,30.64,0,0,1,183,188.59a15.12,15.12,0,0,0,8.27-5.86l7.7-6.35c-.39,2.9-2.2,5.18-3.41,7.72a25,25,0,0,0-4.76,10.18c-1.23,5.88-3.44,10.41-10,11.75a33.67,33.67,0,0,0-7.77,3.06,37.4,37.4,0,0,1-15.84,3.6c-6.53.12-12.95,1-19.41,1.67-4.61.45-8.86-.63-13.2-1.65-.7-.16-1.31-.48-1.92.1Z"/><path class="cls-161" d="M131.66,169.37c.53-1.65,1.84-2.73,2.91-4C134.88,167.65,133.31,168.54,131.66,169.37Z"/><path class="cls-172" d="M212.06,169.47a42.88,42.88,0,0,1-4.05,1.91.94.94,0,0,1-1.3-1.09,4.48,4.48,0,0,1,3.07-3C210.94,167,211.53,168.12,212.06,169.47Z"/><path class="cls-103" d="M331.44,143.43c-2.76-2-6.35-1.67-9.24-3.29l4.26.28c-2-2.48-5.28-1.28-7.92-3,4.86-.35,8.83,1.38,12.84,2.56C333.37,140.52,331.93,142.23,331.44,143.43Z"/><path class="cls-173" d="M105.8,279.39A22.54,22.54,0,0,0,98.14,273c-.9-.67-2.51-.52-2.51-2.21,2.6-3.83,6.71-5.51,10.65-7.45,3,.18,4.74-2.08,6.71-3.75,4.41-3.73,8.71-7.59,13.62-10.7,2.56-1.63,5.5-2.43,8.1-4a2.43,2.43,0,0,1,2.65.08c3.56-.23,7.07-.87,10.7.14,1.8.5,3.8-.58,5.7-1.24,6.8-2.36,12.32-6.94,18.51-10.33,5.75-3.16,12-5,18.8-3.45,1.6.37,3-.26,4.46-.52,2.53-.52,4.61-3.1,7.57-1.66a1.69,1.69,0,0,1-.53,2.44c-3.47,2.91-6.74,6.24-11.49,7-4.31.66-8.49,2.55-13,1a5.28,5.28,0,0,0-4.37.68c-3.42,2.42-6.91,4.72-10.44,7-7.15,4.56-15.61,5.4-23,9-4,2-8.71,2.61-12,6.11-1.44,1.53-2.41,3.44-4.07,4.77-3.42,2.33-5.29,6.07-8.15,8.91a45.3,45.3,0,0,1-5,4.83C109.25,280.89,107.41,281.54,105.8,279.39Z"/><path class="cls-174" d="M203.2,228.25c-2.53.63-5,1.76-7.67,1.39,1.08-1.72,3.36-2.25,4.18-4.23,2.7-1.1,4.31-2.67,3-5.89-1.76-4.32-.71-8.32,3.69-10.56,8.1-4.12,16-8.91,25.23-10.25a5.62,5.62,0,0,0,2.32-.7c4.75-3.21,9.41-1.55,14.1.11.18.17,0,0,0,0,0-.22,0-.43,0-.64l2.84-.12c1.2-.6,2.31-1.79,3.81-.78a2,2,0,0,1,.83,2.14c-.36,2-3.56,4.11-5.62,3.72a7.69,7.69,0,0,1-2.27-.87,10.32,10.32,0,0,0-8.78-.26c-7.93,2.92-15.93,5.73-23.26,10.09-2.24,1.34-3,3.38-3.31,5.79-.53,3.71-1.25,7.38-4.75,9.67C206.2,227.74,205.19,229.55,203.2,228.25Z"/><path class="cls-175" d="M137.36,245c-6,3.26-12.39,5.66-17.54,10.61a95.19,95.19,0,0,1-11,8.8c-1,.73-1.81,1-2.3-.49s.42-2.15,1.26-2.89c3.44-3,6.69-6.29,10.45-9,1.86.22,3-1,4.23-2.07,6.34-5.12,12.65-10.33,20.51-13.07.65-.22,1.35-.32,2-.48A43.6,43.6,0,0,0,137.36,245Z"/><path class="cls-176" d="M245.93,232.44c-.57,5.34-3.83,9-7.82,12.1-1.93,1.49-4.44-.09-6.66-3.38-2-2.93-5.23-4.47-7.91-6.64-1.8.18-3.43-1.31-5.29-.56-1.38-.39-2.21.29-2.8,1.45-.93.92-1.95,1.45-3.25.77a2,2,0,0,1-.55-.92c.69-3.82,9.83-11.55,13.26-11.21.23,1-.67,2-.13,3,3,.43,5.05-1.2,7.19-2.77,3.41-2.52,7.42-1.71,9.76,1.9C243.09,228.28,243.93,230.75,245.93,232.44Z"/><path class="cls-177" d="M224.91,224.05c-4.48,3.4-9.22,6.5-12.62,11.14-1.84,2.09-4.74,3-6.09,5.66-.83,1.36-2.42,1.86-3.4,3.06-1.43.89-2.9,1.61-4.61.7-1.28-1.64-.47-3.1.48-4.46a20.61,20.61,0,0,1,7-6.25A29.09,29.09,0,0,0,217.88,221a14.5,14.5,0,0,1,6.9-7.05c5.22-2.58,10.48-5.1,15.44-8.19,1.29-.81,2.76-1.64,4.26-1.39,4,.66,7.2-.84,10.22-3.28,1.22-1,2.78-1.8,4.5-.83-1.75,3.05-5.22,4.11-7.75,6.19-4.27,3.51-8.58,7.05-13,10.45a16.87,16.87,0,0,1-7,3.07C228.86,220.51,226.34,221.44,224.91,224.05Z"/><path class="cls-178" d="M259.2,200.23a9.26,9.26,0,0,0-4.11,1.84c-3.21,2.44-6.4,4.68-10.8,3.41a3.44,3.44,0,0,0-2.29.7c-6.12,3.84-12.65,6.91-19.08,10.14-2.76,1.38-3.18,4.49-4.76,6.74-3.54,5-7.08,9.87-12.93,12.72-3.38,1.65-6.29,4.39-6.91,8.6-.7,3.1-3,3.51-5.61,3.27-2.64-1.9-1.78-4.16-.23-6,4.27-5.17,8.07-10.93,14.88-13.28a5.94,5.94,0,0,0,1.71-1.18c3.28-2.1,6.06-4.35,6.77-8.69.61-3.78,3.33-6.37,7-7.59a44.89,44.89,0,0,0,12.8-6.89,12.88,12.88,0,0,1,11.86-2.27c3.1.95,5.41.36,7.44-2.06.73-.87,1.55-1.89,2.9-.84,1.85.22,1.2-1.24,1.42-2.11C260.4,197.9,259.79,199.07,259.2,200.23Z"/><path class="cls-179" d="M310.29,181.33c.3-4.4,3.54-7.14,5.92-10.35a1.39,1.39,0,0,1,1.85-.54c1,.6.41,1.38,0,2.11a4.54,4.54,0,0,0-.62,1.59c-.07.86-.55,2.16.61,2.41,1.32.29,1.22-1.07,1.36-1.93a11.45,11.45,0,0,1,2.29-5.12c1.28,4-.56,7.24-1.21,10.61-.61,3.14-2.21,4.41-5.27,4.11C313.64,183.2,311.26,183.48,310.29,181.33Z"/><path class="cls-146" d="M317.27,192.06c-3,.78-5.3-.86-7.61-2.39C312.43,189.75,314.6,191.7,317.27,192.06Z"/><path class="cls-180" d="M257.83,198.82a3.8,3.8,0,0,0-2.6,1.6,7.34,7.34,0,0,1-7.26,2.52c-5.53-1.27-10,.43-14.08,3.94-3,2.56-6.55,4-10.21,5.07-3.86,1.18-6.51,3.77-6.8,7.59-.38,5-3.95,6.64-7.38,8.7-2,.78-2.69-.26-2.76-2.08,3-2.33,3.87-5.72,4.12-9.23s1.82-5.57,4.89-7.33c6.57-3.76,13.72-6.08,20.61-9,4.18-1.77,8.59-2.61,12.89.36,1.74,1.2,4.68-.23,5.33-2.23.53-1.61-.55-2-3.73-1.35a4.7,4.7,0,0,1,5.09-1.93C257.75,195.77,258.87,196.76,257.83,198.82Z"/><path class="cls-181" d="M336.48,158.11l-17.27-6.21c5.9-1.31,10.54,2.29,15.63,4.1C335.55,156.26,335.94,157.39,336.48,158.11Z"/><path class="cls-182" d="M96,296.88c1.64-.49,2.36-2.13,3.63-3.14a4.62,4.62,0,0,1,.42.68c-3.65,3.11-1.69,7.2-1.92,10.9l0,0c-1.82,1.27-2.64-.79-4.2-1.32-.85,2.81.66,6.62-3.11,8.11-1.48.58-2.74,0-3.68-1.66-.92,4-4,5.48-7.24,6.78-2.44-.78.59-2.85-1-3.61-2.45,6.72-9.84,6.57-15,9.74-2.14,1.32-5.14-1.44-5.67-4.54-.22-1.23,0-2.61-1.39-3.33-1.51-1.39.27-2.14.62-3.16a15.49,15.49,0,0,1,2.87-4.94,15.91,15.91,0,0,1,9.4-3.38c4.9,1.77,9.51-.47,14.06-1.32-1.27-1.91-.72-3.87,2-6.2A2.61,2.61,0,0,1,90,297c2,2.83,3.69,2,5.53,0Z"/><path class="cls-183" d="M60.52,308.4c.23,2-1.72,2.85-2.47,4.35-.44.89-1.52,1.48-1.16,2.72-1.08,1.1-.78,2.44-.64,3.75-1.2,2.67-3.8,3.86-5.94,5.5-2.35,1.81-4.94,3.32-6.76,5.75-.37.36-.21,1-.63,1.32l-.2.14c-3.13-5-2.9-6.38,1.1-10.6a25.46,25.46,0,0,1,8.81-6.06A13.18,13.18,0,0,0,56,312.92c.93-.78,1.13-2.54.41-2.69-2.23-.47-1.33-2.64-2.43-3.59C56.21,304.09,58.71,304.76,60.52,308.4Z"/><path class="cls-184" d="M80,317.21c1.25-1.84,3.68-2.38,4.76-4.42.27-.49,1-.86,1.06-1.34.41-3.58.83-5.53,3-.55.42,1,2.31.7,3.07-.8a5.76,5.76,0,0,0,.33-4.71,2.63,2.63,0,0,1,1.45-3.47c1.41-.75,1.61.92,2.15,1.61a3.6,3.6,0,0,0,2.42,1.77c0,2.61-1.78,4.08-3.6,5.38-.14.36-1.31.36-1.68.84-.6.79-1.73.58-1.62,2.07,0,.8-.55,1.05-.9,2-.57,1,.32-.07-1.34,1.61C86,315.37,83,317.28,80,317.21Z"/><path class="cls-185" d="M105.8,279.39c2.08.93,3.66.29,5.22-1.28a108.8,108.8,0,0,0,10-10.95c.64-.85,1.16-1.73,2.36-1.78,1,2.26-.62,3.69-1.74,5.25s-2.49,2.71-2.73,4.63a2.32,2.32,0,0,0,2.48-.32c6.5-4,13.88-6.43,20.11-11,4.79-3.51,10.64-5.11,15.75-8.1a4.76,4.76,0,0,1,3-.65c2.16.1,4.51-.08,4.44,3.15-2.94,2.18-6.63,2.52-9.87,4.1-9.66,4.74-19.18,9.74-28.73,14.68-1.31.68-2.08,1.39-2,2.86a52.27,52.27,0,0,0-13.81,10.51C108.17,287,107.44,283,105.8,279.39Z"/><path class="cls-186" d="M89,273.21l2.17-.61c1.3.57,2.64,1.13,2.88,2.75.17,1.14-.11,1.93-1.52,1.27-.92-.44-1.81-1.09-3.39-.23,3.9,2.9,6,6.91,8.27,10.77-.85,2-1.35,1.14-2.23-.11-1.73-2.47-3.71-4.76-5.57-7.14-.64-.83-1.67-1.57-2.14-.34a6.71,6.71,0,0,1-3.43,3.88c-1.23.68.47,1.18,1.2,1.6,3.75,2.14,7.36,4.44,9.76,8.23a5.61,5.61,0,0,1,1,3.6l0,0c-1.29,2.36-2.89,2.29-4.79.69-1.68-1.42-3.18-3.05-4.72-4.6-3.29-3.31-7.69-4.14-11.5-5.62,2.91,1.8,6.71,2.45,9.64,4.82,1.09.88,2.59,1.74,2,3.29s-1.19,3.12-3.27,3.07a4.66,4.66,0,0,0-4.72-2.78,2.15,2.15,0,0,0-1.7.21,20.65,20.65,0,0,1-6.23-.65c-.85,1.13-.1,3.34-2.24,3.55s-2.86-1.6-3.78-3.07c-.69-1.11-.65-2.43-1.11-3.62-.36,2.53-2.24,2.47-4,2.28-2.09-.22-4-1.2-6-1.84s-2-2.27-.09-4.67c-1.5,1.58-4.42,2.24-3.44,5.43a3.36,3.36,0,0,1,0,1.05,5.75,5.75,0,0,1-2,4.34c-2.46,2.15-4.7,4.53-7.17,6.65-1.37,1.17-2.81,1.76-4.29.12-1.23-2.26-.31-4.26.79-6.21,2.77-4.94,5.4-10,8.6-14.64.7-.77,1.22-1.72,2.31-2,1.41-.2,2,2.21,3.95,1A3.13,3.13,0,0,0,54,280.52c0-1.51.91-2.86,2.32-1.63,2.29,2,4.62,1,7.06,1.16,3.55.24,3.86-2.74,5.62-4.26C75.55,273.9,82.28,273.54,89,273.21Z"/><path class="cls-187" d="M92.55,276.62c1.06-.25.91-.8.4-1.49s-1.17-1.69-1.76-2.53c1.54-.78,3-1.86,4.86-1.59l2.09,2c-1.76,1.5-.66,3.16-.06,4.6.92,2.22.85,4.37.63,7.35Z"/><path class="cls-188" d="M164.68,258.34c-1-2.12-2.92-2.19-4.89-2.08-.47-1.33.53-2,1.36-2.51,3.47-2.17,6.28-5.17,9.63-7.51,4.62-3.23,4.59-3.29,2.33-8.2,2.45-1.31,4.84-.94,7.58-.66A25.7,25.7,0,0,0,195,234.52c3-1.58,5.5-4.15,8.23-6.28,1.57,0,2.26-1.56,3.54-2.08.87.77,1.31,2.09,2.76,2.08-6.77,3.18-11.62,8.49-16.13,14.26-1.24,1.59-1.67,3-.63,4.71-6.36,4.35-13.63,6.9-20.43,10.37C169.66,256.85,167.3,258.91,164.68,258.34Z"/><path class="cls-189" d="M35.65,308.8c.33-.51.67-1,1-1.52,1.61-.44,2.44.9,3.58,1.56a2.24,2.24,0,0,1,.8,2.79c-1.1.84-1.61,2.4-3.21,2.63-2.49-.87-3.86,1.8-6.35,1.84-5.49.1-11,1.44-16.45,1.56-3.84.08-7.72-1-11.55-1.66-1-.2-2.54-.87-.73-2.27.93,1.28,2.37,1.35,3.75,1.53A63.07,63.07,0,0,0,35,312.7c1.11-.37,2.32-.92,2.51-2.18S36.2,309.49,35.65,308.8Z"/><path class="cls-190" d="M41,311.63a3.62,3.62,0,0,0-1.71-2.42c-.7-1.38.4-1.8,1.23-1.66,3.2.53,5.55-1.06,7.93-2.74a4.13,4.13,0,0,1,3.73-.65c-.22-3.62-3.09-6.42-2.93-10.07l-.3-1c-.15-2.14,1-3,2.73-2s4,1.79,5.32,3.82c2.62,4,6.17,6.16,11.23,5.43a11.91,11.91,0,0,1,5.88.4c1.3.48,2.33,1.33,2.1,2.84-.27,1.82-1.63,1.57-3,1.37a4.78,4.78,0,0,0-3.07.23c-3.59-.05-6.58,1.75-9.69,3.16-2.16-.59-3.69-3.52-6.49-1.76C49.22,307.07,45.51,310.34,41,311.63Z"/><path class="cls-191" d="M173.11,238c4.5,2.52,4.54,4.9.31,8-4.6,3.34-9.09,6.83-13.63,10.26-6.44,3.06-13.21,5.53-19,9.71-6.16,4.39-13.48,6.54-19.76,10.68-1.17.77-2.89,1.22-3.9.16s.41-2.32.89-3.4c1.34-3,4.45-4.77,5.38-8,3.09-7,9.71-9.08,16.06-11.55,4.42-1.72,9-3,13.48-4.49a56.45,56.45,0,0,0,17.33-9.49C171.12,239.11,171.82,238.12,173.11,238Z"/><path class="cls-136" d="M248,198.13a1.36,1.36,0,0,1,.35,0c1.14.27,2.6-.66,3.4.84.08.15-.23.7-.48.82-1.76.81-2.47-.54-3.26-1.68Z"/><path class="cls-140" d="M212.35,236l-3.52,2.16c-1,.95-1.49,2.84-3.52,2.17a9.7,9.7,0,0,1,7-5.17Z"/><path class="cls-140" d="M217.88,233.1a4.45,4.45,0,0,1-2.78,1.43C215.21,232.62,215.68,232.38,217.88,233.1Z"/><path class="cls-164" d="M70.2,305.24c.88-.75,2-.52,3-.65s2.4.26,2.25-1.37c-.13-1.3-1.39-1.4-2.44-1.43a27.67,27.67,0,0,0-5.9,0c-5.71,1.15-8.69-2.45-11.48-6.32A11,11,0,0,0,52,292c-1.46-.77-2.43-.36-3,1.17-1.44-3.48,1.79-4.28,3.5-5.82.88-.79,2.3-1,3.48-1.41l.82.84c-1.12.86-2.3,1.65-3.34,2.6s-.89,2.25.47,2.32c2,.11,3.67,1,5.49,1.56,2.92.92,3.68-.11,3.38-4.92,1.43,3.05,2.57,5.4,3.65,7.77.43.95.7,2.26,2,1.89s.82-1.73.84-2.71-.95-2.13-.24-3.37c1.44.52,1,2.06,1.8,2.84,1.85,2.15,4,2,6.24.73,0-1.06.55-1.07,1.29-.59,1.35,1.63,3.86,1.56,5.06,3.41,3.57-2.85,3.53-2.8-.1-5.46s-9-3-12-7.45c4.2-1,7.71,4.21,12.33,2,.19.73-.65,2.11.89,2.87,3,1.46,5.19,3.85,7.32,6.3,1.29,1.49,2.61,1.71,4.11.36a8.15,8.15,0,0,1-.88,1.83c-2.43,2.84-3.24,2.78-5.43-.05-.64-.83-1-2.78-2.34-2-1.48.92-2.52,2.63-3.55,4.14-.35.52.53.84,1,1.11,1.28.69,2.3,1.56,1.74,3.6-2.38-2.12-4.78-1.87-7.25-.41C76.37,306.86,73.26,305.28,70.2,305.24Z"/><path class="cls-192" d="M49.29,294.09c1,3.14,4.38,5.25,3.79,9.14-.14,1,1.43,0,2.2.86-1.13.88-1.78,2.47-3.62,1.05-1-.75-1.78.1-2.46.63-2.74,2.12-5.38,4.46-9.26,2.7-.08,0-.4.48-.61.74-1.22-.18-1.71-1.38-2.67-1.93,0-.78-.19-1.59.68-2.07,2.5,1.69,3.06-1.09,3.91-2.06C43.92,300.12,48.38,298.64,49.29,294.09Z"/><path class="cls-193" d="M54,276.56a5.45,5.45,0,0,0,6-.2c2.62-1.63,5.82.1,8.77.28-.15,3.22-.91,5.73-5,4.31a.45.45,0,0,0-.34,0c-3.23,1.93-6.07,1.83-8.55-2.23,3.67,7.83-4.34,4.93-5.87,7.8-.13-1.27,1.58-2.63-.43-3.57.84-1.9.63-4.69,4.41-3.47C54.56,280,53.7,277.61,54,276.56Z"/><path class="cls-194" d="M77.12,295.45c-.54,3.07-3.24,2.27-5,2.35-1.59.07-1.21-1.86-1.25-3.08A8.1,8.1,0,0,1,77.12,295.45Z"/><path class="cls-194" d="M83.47,298.27c-1.84.7-3-1.53-5-1.11-.87.18-.27-1.47-.09-2.3C83.66,294.7,83.88,294.85,83.47,298.27Z"/><image class="cls-195" width="200" height="200" transform="matrix(0.02, 0.01, -0.02, 0.05, 349.99, 149.95)" xlink:href="../Logo200-200.png"/></g></g></svg>