<svg xmlns="http://www.w3.org/2000/svg" xmlns:xlink="http://www.w3.org/1999/xlink" viewBox="0 0 466.28 457.9"><defs><style>.cls-1{fill:#dfdfdf;}.cls-2{fill:#4cc5f2;}.cls-3{fill:#070505;}.cls-4{fill:#98ddf7;}.cls-5{fill:#61ccf4;}.cls-6{fill:#77d3f5;}.cls-7{fill:#9cdbf5;}.cls-8{fill:#7e6550;}.cls-9{fill:#583029;}.cls-10{fill:#e2602c;}.cls-11{fill:#e1f3f7;}.cls-12{fill:#783f32;}.cls-13{fill:#2cb9ef;}.cls-14{fill:#2f1913;}.cls-15{fill:#9bdcf5;}.cls-16{fill:#bce8f8;}.cls-17{fill:#efb787;}.cls-18{fill:#9a5f37;}.cls-19{fill:#767777;}.cls-20{fill:#edeff5;}.cls-21{fill:#d96b33;}.cls-22{fill:#d7ac81;}.cls-23{fill:#78d9f5;}.cls-24{fill:#6c9dd2;}.cls-25{fill:#9ee2f8;}.cls-26{fill:#b8e8f8;}.cls-27{fill:#fcfdfd;}.cls-28{fill:#f7c191;}.cls-29{fill:#42231c;}.cls-30{fill:#dedde6;}.cls-31{fill:#0e4a82;}.cls-32{fill:#f9d0bd;}.cls-33{fill:#e0a980;}.cls-34{fill:#e6cab3;}.cls-35{fill:#425975;}.cls-36{fill:#dee0e2;}.cls-37{fill:#1c4f83;}.cls-38{fill:#fac390;}.cls-39{fill:#d79468;}.cls-40{fill:#385887;}.cls-41{fill:#c57b56;}.cls-42{fill:#d7a486;}.cls-43{fill:#e0a37b;}.cls-44{fill:#d28c61;}.cls-45{fill:#e8a57c;}.cls-46{fill:#f1ba9b;}.cls-47{fill:#e4e6e8;}.cls-48{fill:#488ec5;}.cls-49{fill:#2d3392;}.cls-50{fill:#97999c;}.cls-51{fill:#f9f8f5;}.cls-52{fill:#61503c;}.cls-53{fill:#dcddde;}.cls-54{fill:#6f79be;}.cls-55{fill:#a9aaac;}.cls-56{fill:#c5c5c6;}.cls-57{fill:#323c90;}.cls-58{fill:#96582c;}.cls-59{fill:#2bbaf0;}.cls-60{fill:#6965ac;}.cls-61{fill:#0591d5;}.cls-62{fill:#e39866;}.cls-63{fill:#1b171a;}.cls-64{fill:#d27a46;}.cls-65{fill:#7ed6f6;}.cls-66{fill:#0d91d6;}.cls-67{fill:#1875bf;}.cls-68{fill:#3d57a5;}.cls-69{fill:#b07956;}.cls-70{fill:#23a9e1;}.cls-71{fill:#42bdf0;}.cls-72{fill:#0d8ace;}.cls-73{fill:#48bef1;}.cls-74{fill:#1c54a6;}.cls-75{fill:#74c2e8;}.cls-76{fill:#da3e2b;}.cls-77{fill:#6dcaf2;}.cls-78{fill:#f7bf96;}.cls-79{fill:#eec39d;}.cls-80{fill:#0393d9;}.cls-81{fill:#72d7f9;}.cls-82{fill:#44a0d3;}.cls-83{fill:#67aedb;}.cls-84{fill:#7cdafa;}.cls-85{fill:#35a8e0;}.cls-86{fill:#bcbdbf;}.cls-87{fill:#c1c2c3;}.cls-88{fill:#c1c2c4;}.cls-89{fill:#fdfdfd;}.cls-90{fill:#ad674d;}.cls-91{fill:#ddddde;}.cls-92{fill:#787978;}.cls-93{fill:#788891;}.cls-94{fill:#8e8f90;}.cls-95{fill:#e2dddb;}.cls-96{fill:#f4f6f6;}.cls-97{fill:#f6bb89;}.cls-98{fill:#7f402b;}.cls-99{fill:#c3703d;}.cls-100{fill:#7e4332;}.cls-101{fill:#c0683e;}.cls-102{fill:#ca7f58;}.cls-103{fill:#d1d3d4;}.cls-104{fill:#d0d1d3;}.cls-105{fill:#2d5585;}.cls-106{fill:#c68858;}.cls-107{fill:#ba7645;}.cls-108{fill:#95979a;}.cls-109{fill:#214da6;}.cls-110{fill:#2d3292;}.cls-111{fill:#9e9fa3;}.cls-112{fill:#c1c4c6;}.cls-113{fill:#bebfc0;}.cls-114{fill:#9ea0a3;}.cls-115{fill:#96979a;}.cls-116{fill:#4f52a1;}.cls-117{fill:#a3a5a8;}.cls-118{fill:#040405;}.cls-119{fill:#a4a6a8;}.cls-120{fill:#48499e;}.cls-121{fill:#99572c;}.cls-122{fill:#dddede;}.cls-123{fill:#1f489c;}.cls-124{fill:#8d4f24;}.cls-125{fill:#efde97;}.cls-126{fill:#105da9;}.cls-127{fill:#f4f2b1;}.cls-128{fill:#086cb1;}.cls-129{fill:#aeafb1;}.cls-130{fill:#a9abad;}.cls-131{fill:#dc763e;}.cls-132{fill:#403529;}.cls-133{fill:#bdbebe;}.cls-134{fill:#03a6e8;}.cls-135{fill:#0494da;}.cls-136{fill:#1466b6;}.cls-137{fill:#1d1912;}.cls-138{fill:#2375bc;}.cls-139{fill:#0ca4e1;}.cls-140{fill:#a73926;}.cls-141{fill:#f6bb99;}.cls-142{fill:#2b3493;}.cls-143{fill:#1f50a8;}.cls-144{fill:#b22c32;}.cls-145{fill:#3bbaec;}.cls-146{fill:#0e65a9;}.cls-147{fill:#186cbd;}.cls-148{fill:#1e82bf;}.cls-149{fill:#0569ae;}.cls-150{fill:#3ea3db;}.cls-151{fill:#1088d0;}.cls-152{fill:#be7235;}.cls-153{fill:#a3a3a6;}.cls-154{fill:#f8c492;}.cls-155{fill:#8a8e8f;}.cls-156{fill:#c46d41;}.cls-157{fill:#a65e3f;}.cls-158{fill:#c6845e;}.cls-159{fill:#c68a61;}.cls-160{fill:#5a5966;}.cls-161{fill:#cc9250;}.cls-162{fill:#ddb36f;}.cls-163{fill:#ce8f64;}.cls-164{fill:#be7a5a;}.cls-165{fill:#a9aab2;}.cls-166{fill:#5978bd;}.cls-167{fill:#e1b694;}.cls-168{fill:#5864a8;}.cls-169{fill:#747678;}.cls-170{fill:#060607;}.cls-171{fill:#423b3b;}.cls-172{fill:#156ebf;}.cls-173{fill:#8e2e34;}.cls-174{fill:#e22024;}.cls-175{fill:#e45436;}.cls-176{fill:#595a5c;}.cls-177{fill:#39393b;}.cls-178{fill:#1f2021;}.cls-179{fill:#8d0c10;}.cls-180{fill:#bb1415;}.cls-181{fill:#3961ae;}.cls-182{fill:#dddcdd;}.cls-183{fill:#d9af76;}.cls-184{fill:#5757aa;}.cls-185{fill:#0c8cd0;}.cls-186{fill:#7179be;}.cls-187{fill:#1e77bf;}.cls-188{fill:#c1c4c5;}.cls-189{fill:#c5c6c7;}.cls-190{fill:#f4ad76;}.cls-191{fill:#98734f;}.cls-192{fill:#e5bb95;}.cls-193{fill:#5b676d;}.cls-194{fill:#137bc5;}.cls-195{fill:#1965b8;}.cls-196{fill:#0c98db;}.cls-197{fill:#2c4796;}.cls-198{fill:#79797d;}.cls-199{fill:#b2704f;}.cls-200{fill:#a05d3e;}.cls-201{fill:#4c56a2;}.cls-202{fill:#615758;}.cls-203{fill:#444346;}.cls-204{fill:#4f55a3;}.cls-205{fill:#98121a;}.cls-206{fill:#060505;}.cls-207{fill:#d83131;}.cls-208{fill:#2b2f31;}.cls-209{fill:#231c5e;}.cls-210{opacity:0.66;}</style></defs><g id="Calque_2" data-name="Calque 2"><g id="Calque_1-2" data-name="Calque 1"><path class="cls-1" d="M84.39,122.87c5.38,0,8.42-3.64,11.59-7.29,6.29-7.24,13.26-14,19-21.59,10-13.26,24.49-18.3,39.3-23,1.3,1.56.55,3.35.57,5.06a55.44,55.44,0,0,0-2.1,14.26c-.56,4.35-3.2,7.3-6.54,9.8a25.8,25.8,0,0,0-4.69,3.84,59,59,0,0,1-7.23,5.87c-2.95,2.77-6.52,4.83-9.14,8-10.67,10.77-11.06,10.88-28.82,8.13a25.24,25.24,0,0,0,10.15,4.56c14.4,3.23,24.45,12.56,33.59,23.32,10.46,12.33,19,26,27.54,39.66,2.89,4.62,8.09,7.17,10,12.46a4,4,0,0,1-.15,1.68,3.75,3.75,0,0,1-1.74,1.86,4.31,4.31,0,0,1-2.51.18c-7.07-4.1-11.84-10.52-16.55-16.91-6.49-8.81-10.48-19.21-17.32-27.78-8.86-11.13-18.82-21-32.95-25.24-4.63-1.4-8.79-3.85-13.26-5.62a7,7,0,0,1-3.1-2.38C88.37,128.6,84.91,126.68,84.39,122.87Z"/><path class="cls-2" d="M174.4,36a24.1,24.1,0,0,1,6.87-10.73c2.13-1,4-.28,5.68,1,12.23,9.25,26.42,15.62,38,25.87a2.5,2.5,0,0,0,.92.62c14.88,3.61,24.39,15.88,37.07,23.12,12,6.85,24,14.05,34.85,22.75,1.77,1.41,4.46.86,5.77,3a14.55,14.55,0,0,1,.14,10.57c-2.66,3.59-5.8,2.63-8.72.6-18.9-13.21-38.79-24.88-57.9-37.76-1.28-.86-2.5-1.54-4.08-1.25-2.68-.13-3.5-2.44-4.81-4.14-7.25-9.44-16.33-15.34-28.71-14.87-2.63,0-5.44.42-6.61-2.88.64-1.83,2.8-3.63-.78-5.15-2.31-1-3.7-3.53-5.87-5-3-2-5.42-5.1-9.8-3.57C175.33,38.59,173.73,37.89,174.4,36Z"/><path class="cls-3" d="M84.39,122.87a28.22,28.22,0,0,1,7,8.1c.07,1.27-.81,1.82-1.74,2.33-3.77,1.6-1.77,3.46-.44,5.6s3.72,5.06-1.35,6A8.18,8.18,0,0,1,84.42,143a28.73,28.73,0,0,0-14.81-3.33c-4.69.19-7.78,3.06-9.16,7.63a11.52,11.52,0,0,0,3.24,12.17,5.13,5.13,0,0,0,3.58,1.14c1.9,0,3.73.22,4.74,2.19,1.22,5.92-1,9.93-7.1,12.35A27.47,27.47,0,0,1,54.63,177c-8.27.82-10.82-5.46-13.85-11.16-1.34-7.54-3.59-15-2.34-22.8a6,6,0,0,1,.52-1.77c2.95-5.78,6.47-11.19,11.49-15.39,9.09-7.6,19.14-10.73,30.71-6.17C82.47,120.54,82.63,122.53,84.39,122.87Z"/><path class="cls-4" d="M267.81,32.9c.29,2-1.76,3.55-1,5.61,4.08,2.31,8,5,12.72,6,4.21,2.27,8.57,4.24,12.81,6.47,1.83,1.09,3.85,1.93,5.35,3.48,1.71,1.76,2.08,3.68.09,5.57-3.19,1.12-5.31-1.87-8.79-2.15,1.13,1.57,2.61,2.44,3.31,3.85,2.3,6.89,8.37,10.1,13.76,13.9,1.64,1.16,3.71,1.71,3.28,4.32-4.95,4.34-8.26,4.32-12-.65-2.44-3.25-6.11-4-9.35-5.61-2.68-1.31-5.57-2.09-6.65-5.36a4.07,4.07,0,0,0-2.4-2.17c-16.7-8.12-31.78-18.79-46.62-29.83-2.43-1.8-5.42-2.38-8-3.9-1.5-.91-3.82-1.83-1-4,5.93-2.43,12,.08,18-.6,5.52-.71,9.93,2.14,14.48,4.53.67.27,1.26.75,1.93,1,1.53.57,3.39,2.64,4.51-.18.71-1.8,1.07-4.35-1.44-5.18-4.36-1.45-3.37-3.92-1.8-6.77.95-1.7,2.08-3.35,2.36-5.51-2.72-.11-4.64,1.92-7.1,1.61-4.19-.82-6-4.13-7.72-7.48,4.56-4.44,10.17-4.71,15.88-3.61,3.57.69,5.36,3.44,6.05,7,.91,4.8,0,9.49-.4,14.23C268,29.3,267,31.05,267.81,32.9Z"/><path class="cls-5" d="M302.31,100.78c-1.47.57-2.38,3-4.61.69C290,93.53,280,89,270.92,82.9,260.64,76,250.12,69.5,239.8,62.68a19,19,0,0,1-4.15-4.41c-1.59-2.06-3.14-3.47-6.06-2.39-2.39.87-4.26-.72-5.94-2.2-7.61-6.74-16.34-11.68-25-16.94-4-2.44-9-4.6-12.14-8.66-1.4-1.82-3.59-1.79-5.27-2.86,1.34-2.08,2.86-3.94,5.43-4.55,4.7-1,8.39.61,12.21,3.52,15.92,12.14,33.43,21.91,50.15,32.86,15.46,10.14,30.91,20.3,46.79,29.8,2.76,1.65,5.67,3.35,7.81,6C304.59,95.7,305,98.5,302.31,100.78Z"/><path class="cls-6" d="M302.62,92c-1.25-.22-2.84,1-3.7-.17-4.59-6.31-12.1-8.17-18.2-12.16C263,68.12,245.27,56.47,227.29,45.26,216.2,38.35,205,31.66,195,23.23c-2.44-2.05-5.93-.39-8.27-2.56,3.32-2.47,7.28-3.25,11.17-4.25a8.17,8.17,0,0,1,1.21,1c6.45,6,14.7,9.16,21.75,14.27,21.9,15.88,45.21,29.64,67.64,44.74a38.44,38.44,0,0,1,6.37,5.35c2.49,2.59,5.26,4.6,8.93,5.24a12,12,0,0,1,6.75,3.65c2.05,2.19,4.42,2.37,7.08,2,4.38,2.4,3.95,6.85,4.64,10.83A8.47,8.47,0,0,1,323,107c-.06,3.69.26,7.39-.22,11.07a3.65,3.65,0,0,1-.85,1.51c-3,.78-3.24-1.71-3.37-3.4-.27-3.66-2.25-5.89-5.22-7.54-2-1.58-2.83-3.87-3.56-6.15C308.4,98.26,305.58,95.12,302.62,92Z"/><path class="cls-7" d="M361.42,105.27c.47,2.33.85,4.68,2.15,6.74a2.34,2.34,0,0,1,.72,1.47c-.31,2.17.33,4.55-1.4,6.41-2.46,1.48-4.16-.12-5.9-1.49-2.47-1.94-4.21-4.63-6.72-6.53-3.89-11.75-12.3-20.15-21-28.36-.95-.9-.88-1-.22-2.94,4.25-.18,8.42,1.28,12.72.51,2.38-.43,4,1.19,4.85,3A74.7,74.7,0,0,0,361.42,105.27Z"/><path class="cls-8" d="M193,51c1.65,3,4.65,1.38,7,2,1.26,1.91,6.21.06,4.78,4.7a5.82,5.82,0,0,1-5.15,1.51c-15.27-1.88-27.86,3.81-39.14,13.49-1.95,1.67-3.78,4.48-7.14,2.52.32-1.42.63-2.85.95-4.27,1.37-7.13,5.91-11.9,11.62-15.9,1.75-1.22,4-1.92,5-4.07C176.1,47.41,188.15,47.4,193,51Z"/><path class="cls-9" d="M37.72,170.87c-4.46-2.2-7-6.32-9.9-10.05,1.05-4.13.86-8.29.95-12.52C29,137,33,127.2,41.73,119.6c1.7-1.5,4.33-2.43,3.9-5.49,7.79-1.66,14.95-7.36,23.64-3.4,1.49.68,3.21.75,4.12,2.36a1.37,1.37,0,0,1-1,1.64c-7.78,2.09-15.05,5.44-22.25,9-6.33,1.19-8.7,6.7-11.1,11.37a37.31,37.31,0,0,0-4.07,18c.11,3.92,2.44,7.21,3,11C38.3,166.39,39.59,168.66,37.72,170.87Z"/><path class="cls-10" d="M329.06,80.57c6.3,6.71,13.56,12.48,18.39,20.65,1.89,3.21,1.58,7,3.84,9.83,3.3,6.19,3.15,9.47-.63,13.62-5.7-1.86-8.2-7.06-11.66-11.26a23.67,23.67,0,0,1-2.64-9.07c-1.42-5.59-4.84-10.12-7.7-15-1.56-2.67-4.28-5.34-1.75-8.91C327.67,79.72,328.37,80,329.06,80.57Z"/><path class="cls-11" d="M267.81,32.9c-2.16-5.34-.67-10.89-.89-16.34-.31-7.4-2.53-9.92-9.63-8.87-3.56.52-7.31,1-10.53,3a3.26,3.26,0,0,1-2.21,1.52c-6.1.86-10.32-1.88-13.29-7A120.18,120.18,0,0,1,251,.29a17.05,17.05,0,0,1,20.1,17.52A41,41,0,0,1,267.81,32.9Z"/><path class="cls-12" d="M45.63,114.11c1.56.29,3.92.14,2,2.79a19.33,19.33,0,0,1-3.47,3.53c-9.85,8-14.22,18.2-13.28,30.89.25,3.32,1.88,7.62-3.06,9.5-6-6.24-3.73-13.94-2.79-20.9a36.77,36.77,0,0,1,3.77-11.31C33,122.11,37.68,116.23,45.63,114.11Z"/><path class="cls-13" d="M193,51A135.77,135.77,0,0,0,171,51a25.66,25.66,0,0,1,3.45-15,15.13,15.13,0,0,0,1.16,1c4.95-4.62,7.53.56,10.71,2.67,4.58,3,8.16,7.37,13.83,9.54C197.44,51.51,195.08,50.36,193,51Z"/><path class="cls-14" d="M50,121.94c5.11-3.51,11.09-5.1,16.64-7.62,2.37-1.08,4.61-.52,6.8-1.25,4.83-.38,5.22,4.39,7.77,6.66-5,.12-10-.3-14.94.46-11.12,1.73-18.07,9.35-23.77,18.32-.77,1.22-1,2.78-2.52,3.45-2.65-2.58-1.79-5.45-.39-8.11A31,31,0,0,1,50,121.94Z"/><path class="cls-15" d="M197.92,17.37c0-.32,0-.63,0-.95A149.13,149.13,0,0,1,216.8,9.64c4.95,1.74,9.79,3.6,11.56,9.3-3.33,4.55-8.29,5.68-13.47,6.35A77.84,77.84,0,0,0,197.92,17.37Z"/><path class="cls-16" d="M228,18.52c-3.65-3-8.17-5-11.18-8.88a53.43,53.43,0,0,1,14.46-4.46c4.89,1,7.7,7,13.54,5.72.17,1.56-.93,2.31-2,3.09-1.52.91-3.12,1.68-4.71,2.48-2.85,1.12-5.63,2.52-8.77,2.71A2.25,2.25,0,0,1,228,18.52Z"/><path class="cls-7" d="M326.91,80.46c0,4.55,3.6,7.33,5.54,10.92,2.24,4.12,5.07,8,5.48,12.86-4.34,2.91-6.47-2.22-9.89-2.71A6.56,6.56,0,0,1,326.16,98c-1.68-5.27-4.33-10.08-6.94-14.91-1.12-2.07-2.6-4.06-2.12-6.65,1.21-2.67,3.1-2.81,5.38-1.44C324,76.74,324.05,79.75,326.91,80.46Z"/><path class="cls-17" d="M296.86,59.61c1.82-1.6,1.74-3.2-.45-4.14a26.47,26.47,0,0,1-5.3-3.57c2.61-5.15,6.43-6.08,14.72-3.59.32.09.64.2.95.32,2,3.43-2.07,4.88-2.41,7.63,1.69.77,3.71,1.24,4.4,3.41s-.78,3.72-1.62,5.45a8.89,8.89,0,0,1-4.66,3.74c-.35.08-.72.09-1.06.19a6.62,6.62,0,0,1-7-1.83c-1.89-2.16.1-4.38,1.13-6.44A7.48,7.48,0,0,1,296.86,59.61Z"/><path class="cls-18" d="M305.79,64.12c.49-1.56,2.34-2.44,2.13-4.35-.58-3.33-.83-6.53,3.37-7.79,7.59,2.53,13.07,13.52,10.82,21.69-2.42,1-4-.77-5.81-1.78-1.08-1.29-1.81-2.91-3.46-3.67a6,6,0,0,1-1.6-1.54C310.23,64.12,307.22,65.78,305.79,64.12Z"/><path class="cls-19" d="M305.83,48.31c-2,.35-4.1,1.38-5.84.91-3.73-1-6.3.55-8.88,2.68-4.1-2-8.85-2.83-12.07-6.5,2.62-4.16,7-2.19,10.56-2.88,3.39-.66,7,.34,10.43-.47C303.18,43,304.61,45.56,305.83,48.31Z"/><path class="cls-20" d="M300,42.05c-3.77,2.16-8,.39-11.86,1.24-3.05.66-6.08,1.4-9.12,2.11-5.64.47-9.39-2.38-12.21-6.89a20,20,0,0,1,10.26,1.55c4.67,2.08,9.69,2.13,14.7,1.59A19.86,19.86,0,0,1,300,42.05Z"/><path class="cls-21" d="M311.29,52c-2.55,2-1.41,5.55-3.37,7.79-2-1.91-4-3.43-6.77.58.78-5.49,4-8.19,5.63-11.72C309.7,47.84,309.87,50.75,311.29,52Z"/><path class="cls-22" d="M316.56,72.34c2.45-2,3.77.6,5.55,1.34.12.43.25.86.38,1.3-2,.08-4,.26-4.71,2.63a4.43,4.43,0,0,1-4.41,1.83,3,3,0,0,1-2.54-3A5.42,5.42,0,0,1,316.56,72.34Z"/><path class="cls-23" d="M395.54,265.57l7.21,13.17q6.57,15,13.15,30.08a140.49,140.49,0,0,0,16.78,34.46,22.18,22.18,0,0,0,1.83,4c2.84,3.9,2.3,7-1.85,9.49-1.05-.38-1.28-3.87-3.32-.81-.4.59-1.67.29-2.52-.1-2-5.12-5.74-8.56-10.58-11a5,5,0,0,1-3.1-3.56c.95-2.86-1-4.88-2.2-7.05-2.63-4.84-5.75-9.4-8.17-14.36-1-2-2-3.95-1.92-6.26-1.57-8-5.15-15.36-8.34-22.78-7.51-17.45-13-35.32-12.62-54.58,0-2.08-.63-4.57,2.5-5.19C385.47,243.07,387.88,255.32,395.54,265.57Z"/><path class="cls-24" d="M382.39,231.07c-.49,9.69-.41,19.36,1.81,28.86,2.94,12.61,8.14,24.42,12.79,36.45,2.22,5.73,5.55,11.32,5.27,17.86-1.88.28-2.64-1.13-3.34-2.39-8-14.39-18.24-27.42-25.71-42.15-.67-10.39.69-20.7,1-31,2-9.3.58-18.79,1.56-28.14.3-2.89-.42-6,2.19-8.27,2,3.81,2.16,8,2.23,12.11C380.31,220,381.86,225.48,382.39,231.07Z"/><path class="cls-25" d="M378,202.24a318.68,318.68,0,0,1-2.09,36.54c-4.2.82-3.7-2.34-3.88-4.71-.46-6.4.76-12.88-1-19.19-1.23-4.5-.9-9.31-2.68-13.67-.6-.4-1.06-.15-1.46.37-.82,1.66-.18,3.67-1.27,5.18-1.59,2.2-3.41,2.36-5.28.24-1.62-3.29-1.22-6.82-1.18-10.27.09-7.88-.19-15.75-.47-23.61.72-4,1.64-7.81,5.25-10.28,2.14.09,2.42,2,3.12,3.37s1.15,3.36,3.23,3.3,1.5-2.24,2.31-3.35a2.88,2.88,0,0,1,1.19-1.08c.94,11.4,3.06,22.69,3.23,34.16C377,200.36,376.94,201.47,378,202.24Z"/><path class="cls-26" d="M373.78,165.08a16.11,16.11,0,0,1-.26,3.27c-.35,1.3,1.2,4.08-1.55,3.59-2-.36-5.16,1-6-2.44-.5-2.13-.87-4.29-1.3-6.43a4.31,4.31,0,0,1-1.7-4.36c.83-4.54-.27-9-.05-13.56-1.06-7.23.25-14.62-1.51-21.82a4.07,4.07,0,0,1,1-3.57c.3-2.24-.53-4.62.87-6.72,6.89,2.58,6.83,8.61,7.16,14.44A183.81,183.81,0,0,1,373.78,165.08Z"/><path class="cls-27" d="M100.16,281.91c-3.75-7.16-8.91-13.26-14.43-19.07C77.59,252.57,71.06,241.61,70.5,228c-.15-3.51-.54-7,.64-10.42a143.85,143.85,0,0,0,.18-21.17c-.15-3.58.42-6.52,3.61-8.54,4.22-1.67,8-.14,11.81,1.56,3.83,3,7.69,6,8.92,11.11.14,5.15-1.64,9.88-3.82,14.34a40.21,40.21,0,0,0-4.18,20.39A17.33,17.33,0,0,1,85.85,245c-2.15,1.21-2.85-.79-2.83-1.89.15-8-3.62-15.87-.86-24.05a43.69,43.69,0,0,1,4.09-8.42c2.68-4.47,1.75-10-1.9-12.49-2.64-1.83-5.16-1.2-5.28,1.94-.54,14.29-3.62,28.78,2.73,42.66.81,1.77,1.16,3.69,3.78,2.61,2-3.22,2.22-7,3.59-10.48a19.63,19.63,0,0,1,1.83-4c1.39-2,3-4.21,5.72-3.67,3.06.59,2.9,3.52,3,5.86.3,7.2-1.91,14.32-.75,21.61,1-.59,1.16-1.78,1.93-2.51,3.17-3,6.28-2.21,7.35,2.1.89,3.66.18,7.36-.16,11.06-.84,8.86-1.41,17.74,3.71,25.8a104.11,104.11,0,0,1-.14-20.58,17,17,0,0,1,4.12-10.14c1.41-1.56,3-3,5.32-1.91,2.1.95,2,2.91,1.72,4.81-.81,6.47-1.09,12.89.61,19.3a45.94,45.94,0,0,0,10.4,19.33c-1.8-10-7.08-17.75-6.59-26.91-.16-5.54-1.8-11.46,4-15.47,3.68-.24,3.36,2.26,2.64,4.4-3.27,9.75,3.19,15.83,7.71,23.29,1.89-2,1-3.45.86-4.76a36.3,36.3,0,0,1-.77-6c.12-3.65.63-7.45,4.8-8.43s5.89,2.38,7.26,5.48A75.4,75.4,0,0,0,161.28,287a62.17,62.17,0,0,0-3.19-10.23,33.45,33.45,0,0,1-1.88-16.91c.36-2.48,1.22-5.23,4.62-2.34,1.73,3.15,1.77,6.71,2.36,10.13.95,5.48,2.43,10.73,5.5,15.44,1.75,3.88,3.73,7.61,7.33,10.17,3.58,3,2.1,5.92-1.28,6.38-13.59,1.85-24.53,9.89-36.78,14.82-7.54,3-14.1,1-19.82-4.41-2.29-2.16-4-4.81-6-7.22-1.12-2.71-5.85-2.31-5.46-6.32.58-1.21,1.52-2.16.35-3.8C104.53,289.25,102.42,285.53,100.16,281.91Z"/><path class="cls-28" d="M86.73,191c-3.7-.91-7.33-2.22-11.22-2.2a4,4,0,0,1-3.46-2.25l-13.44-6.86c-1.54-1.27-5.65,0-4.14-4.26,4-.64,8.1-.59,11.66-2.7s6.53-4.66,5-9.5c-1-5.54-1.32-10.63,4.35-14.43,1.55-1,.9-4.65,3.36-6,4.15,2.69,6.32,6.41,6,11.43a59.25,59.25,0,0,0-3.2,14.32c.9,1.72,2.56,2.54,4.14,3.46,2.6,2.05,5.66,3.6,7.36,6.65a13,13,0,0,1,.61,4.88c.06,1.93.32,3.7,2.52,4.37s4.31.9,6-1.21a15.21,15.21,0,0,1,1.54-1.57c1.81-1.74,3.29-4.35,6.4-3.18s4.41,3.67,4.46,6.91c-.28,2.86-2.68,3.86-4.61,5.27a38.74,38.74,0,0,1-3.36,2c-2.37.68-4.52-1-6.87-.61C94.8,195.94,90.75,193.49,86.73,191Z"/><path class="cls-29" d="M54.47,175.39c.25,2.52,3,2.59,4.14,4.26-7.58-1.47-16.41.06-20.89-8.78-1.61-4.48-1.93-9.27-3.79-13.77-3.81-9.19,5-30.78,13.83-34.91a6.79,6.79,0,0,1,2.19-.25c-2.6,3.53-5.28,7-7.77,10.61A13.1,13.1,0,0,0,39.93,142h0c-3.64,8.56-1.45,16.58,2.27,24.46,2.19,1.3,3.12,3.62,4.38,5.62C48.49,175.08,50.94,176.39,54.47,175.39Z"/><path class="cls-30" d="M72.05,186.51c1.71-.11,3.19.14,3.46,2.25-2.17,2.64-2.81,5.34-2.46,9a59.82,59.82,0,0,1-1.91,19.84c.52-5.72-1.65-11.18-1.63-16.86C69.53,195.85,69,190.86,72.05,186.51Z"/><path class="cls-31" d="M136.71,435.6q-18.42,3.34-36.82,6.72c-5.57,1-11.12,2.16-16.68,3.25L65.43,448c-3.86-.15-7.11,3.3-11.18,1.92l-19.81,3.5c-2.91-.35-.92-1.82-.68-2.9,2.29-2.73,6-3,8.68-5.09A39.22,39.22,0,0,1,59.2,442.4c6.42.39,8.6-4.82,11.81-8.71,5.65-2.74,11.9-2.61,17.88-3.41,15.06-2,29.65-6.32,44.63-8.67a30.67,30.67,0,0,1,5.48-.7c8.19,1,15.88.39,21.55-6.74a5.24,5.24,0,0,1,3.34-1.77c3.06.1,5.47,2,8.17,3.09,3.49,1.39,3.13,4,.86,6.57,1.89.74,3.63.43,5.19,1.06,1.74.7,3.71,1.45,3.48,3.71s-2.33,2.71-4.21,2.62c-7.61-.36-15.12.75-22.59,1.78A73.1,73.1,0,0,0,136.71,435.6Z"/><path class="cls-32" d="M18.82,433.45c9.87-5.52,18.72-12.51,27.72-19.27,2.19,2.49.64,4.62-1,6.32-3,3.06-3.61,6.65-3.5,10.68s.26,8.2-2.8,11.52c-4.37,4.2-9.11,7.76-15.25,8.94-8.67-.52-13.21-8.86-8.79-16.14Z"/><path class="cls-33" d="M15.2,435.5c.1,2.17.08,4.36.31,6.52.58,5.26,3.43,7.8,8.88,8.11,0,3.06-3.25,2.68-4.52,4.4-3.78,1-7.45,2.51-11.47,2.2-2.52.13-3.77-1.07-3.64-3.6.14-2.72-.2-5.73,1.2-8,1.67-2.75,1.5-5.51,1.43-8.39C9.77,434.86,12.58,435.76,15.2,435.5Z"/><path class="cls-34" d="M7.39,436.7c1.3,2.69,4.28,4.63.54,8.48-1.5,1.54-3.53,6.91-.24,10.48-.47,2.67-2,1.64-3.39.94-4.92-2.64-5.59-6.15-2.15-10.52C4.38,443.23,4.3,439.08,7.39,436.7Z"/><path class="cls-35" d="M4.3,456.6c1.19-.1,2.53.34,3.39-.94,4.35.29,8.22-2.5,12.61-2,4.77-.42,8.94-4.46,14.13-2.35-.31.71-1,1.41,0,2.12-8.63,3.13-17.61,4.17-26.72,4.43A3.68,3.68,0,0,1,4.3,456.6Z"/><path class="cls-36" d="M106.66,296.53l6.61,4.57c-5.88,6.92-11.59,14-16.81,19.5,4.68-1.12,10.27-5.83,17.39-3.43,3.4,3.83,8.81,6.43,8,12.88-1.14,2.17-3.29,2.89-5.38,3.61-14,4.8-27.07,11-36.85,20.81,3.11-1.45,7.43-3.06,11.56-5.12a68.25,68.25,0,0,1,13.06-4.62,26.31,26.31,0,0,1,10.44-.87c1.49.22,3,.61,3.58,2.22.64,1.85-.46,3.19-1.74,4.34-1.82,1.65-4.14,2.4-6.36,3.32a286.86,286.86,0,0,0-35.21,17.59,31.48,31.48,0,0,0-9.28,7.8c9.85-2.63,17.8-6.89,26.2-9.95,5.52-2,10.78-5,16.93-4.67,3.79,2.14,1.92,5.11.9,7.69-2.91,7.33-5.79,14.68-9.5,23,5.35-3.1,8.45-6.85,11.49-10.59a173.62,173.62,0,0,0,13.18-19.06c1.21-2,2.08-4.5,5.19-4.18.51-.78.95,2.26,1.82-.15a81.56,81.56,0,0,1,15.8-27c2.54-2.83,5.13-6.5,10-5.76,1.62,3.17-1.09,4.69-2.71,6.34a69.26,69.26,0,0,0-10.27,12.7c-4,8.62-7.47,17.59-14.59,24.36-5.48,5.23-9.11,11.84-13.35,18-3.93,8-8.39,15.69-12.34,23.67-1.75,3.79-4.87,5.08-8.87,5.28-8.64.44-16.76-1.12-24.21-5.63-4.72-6.76-12.22-7.37-19.37-8.76.69-1.95.36-3.52-1.68-4.44-.89-2.63-.12-4.91,1.07-7.33,4.44-9,9.49-17.68,13.06-27.09,5.9-12.09,10-25,16.83-36.66,4.83-6.68,11.09-12.22,14.12-20.34C97.27,303.31,103,300.65,106.66,296.53Z"/><path class="cls-37" d="M136.71,435.6c.19-1.18.79-2.45,1.91-2.47,6.52-.13,12-4.56,18.67-4.21,7.72.4,15.23-1.94,23.05-1.7-2.41-3.74-6.07-2.34-9.24-2.75-1.33-.17-3.41.69-3.59-1.45-.13-1.56,1.65-1.66,2.92-1.93,1.5-.32,3.22-.92,3-2.62-.15-1.31-1.92-1.7-3.2-1.71-2.85,0-4-3.36-6.83-3.33,0-.33-.05-.66-.08-1,1.53-2.35,4.09-2.31,6.42-2.69,25.58-4.11,51.28-7.37,77-10.8,4-.53,8-1.52,12.15-1.08,5.71.68,11.41,1,17.08-.31a23.8,23.8,0,0,1,5.53-.29c4.08,0,8.75-.4,10.57,4.2s.77,9.52-2.31,13.61-7.09,7.37-12.68,8.15c-2.47.34-5.2.59-7.17,2.61a15.81,15.81,0,0,1-6.21,2,231.24,231.24,0,0,1-31.41,3.23,181.89,181.89,0,0,1-38.24,1,179.28,179.28,0,0,0-52.91,3.4A23.3,23.3,0,0,1,136.71,435.6Z"/><path class="cls-38" d="M465,435.47c-3.71,3.67-7.61,7.08-12.55,9.07-3.83-.71-7.48.88-11.25.85-1.63,0-3.49-.35-3.81-2.34s.88-3,2.85-3.11c5.34-2.74,11.6-3.09,16.15-6-4,1.05-8.16,5.63-13.54,1.57-.44-1.06-.87-2.13-1.31-3.19-2.76-2.37-2-5.86-2.84-8.84-.9-5-3.88-9.07-6.34-13.35-3.92-4.24-6.53-9.53-10.89-13.42-2.6-3.26-7.32-4.09-9.28-8.08,2.69-4.46,5-9.21,9.63-12.15,4.15,3.74,9,6.38,13.85,9.08,1.2.67,1.78,1.56,2.76-.9,1.17-2.94,4.75-2.05,7.46-1.55s5.38,1.55,6.07,4.83a22.7,22.7,0,0,1,.43,5.51,17.58,17.58,0,0,0,3.87,11.85c4.19,5.3,7.58,10.93,7.3,18-.09,2.39,1.37,4.11,2.53,6C466.8,431.57,465.51,433.46,465,435.47Z"/><path class="cls-39" d="M422.44,395.68c5.2,3.12,6.61,9.41,11.07,13.15-2.59,5.62-5.87,10.94-7.42,17-2.73,4.89-4.29,10.69-10.08,13.27l-2.38.88c-1.9-1.92-4.38-2.2-6.87-2.7-4.55-.9-9.4-.88-13.29-4,0-.71,0-1.43,0-2.15,2.37-7,5.82-13.79,5.37-21.53,0-.28.85-.61,1.3-.92,2.34-1.21,3.3.57,4.35,2.05,2.25,3.18,5.32,5.53,8.18,8.07,2.57,2.29,4.39,2.26,5-1.79.47-3,0-5.83-.08-8.75C417.16,403.3,416.61,398.25,422.44,395.68Z"/><path class="cls-40" d="M416,439.12c3.84-3.95,5.38-9.37,8.76-13.62,4.71-3.14,9.42-6.24,15.43-3.32,1.54,3.24.91,6.75,1.29,10.14C433.42,436.14,424.42,436.54,416,439.12Z"/><path class="cls-41" d="M393.47,433.31c6.31-.44,12.1,2.67,18.41,2.63,2.17,0,1.58,2.49,1.75,4.07l0,.13c-4.64,4-10.1,3.69-15,1.57-2.4-1-7,1-7.3-3.95C391.27,435.91,391.73,434.31,393.47,433.31Z"/><path class="cls-42" d="M391.34,437.76c7.24,2.67,14.52,4.91,22.32,2.37-1.08,3.22-3.41,4.49-6.69,4.43-4.56-.07-9.12,0-13.69-.07-2,0-4.37.5-4.92-2.19C387.91,440.08,389.1,438.46,391.34,437.76Z"/><path class="cls-43" d="M442.8,435.51c6.91,1.18,12.12-3.18,18.09-6-2,6.57-12.73,11.76-20.7,10.43Z"/><path class="cls-44" d="M458.16,398.11c0,3.64,2.07,6.46,4.06,9.07a12.75,12.75,0,0,1,2.77,7.3V427a1.17,1.17,0,0,1-.4,1.81c-3.08-9.75-6.66-19.22-13.08-27.41-1.47-1.87-1.16-4.56-1.17-7,0-9.65-.8-10.32-11-9.67-1.12,2.11,2,2.22,1.87,3.88-7-.07-18.59-7-19.93-11.9-1.63-3-1-5,2.42-5.88l5.36,2.58c3.19,3.69,7.52,3.25,11.73,3.2,9-.1,10.52,1.21,13,9.82C454.9,390.4,455.32,394.73,458.16,398.11Z"/><path class="cls-45" d="M51.92,404.39c5.86-3.54,17.25,1.23,19.31,8.1,1.77,5-1.94,8.41-3.66,12.4a16.11,16.11,0,0,0-3.59,5.9c-.68,1.88-1.47,3.86-4.19,2.84-3.5-3-3.57,2.12-5.68,2.42a4.13,4.13,0,0,1-1.54.44,2.81,2.81,0,0,1-2.14-.93c-.8-4.85-3.93-9.61-.64-14.65a1.55,1.55,0,0,0,.16-1.58c-3.29-4.63.18-8.63,1.12-12.87C51.35,405.77,51.63,405.08,51.92,404.39Z"/><path class="cls-46" d="M51.07,406.46c-.14,2,.26,4.3-.56,6-1,2.15-.66,3.47.86,4.85.82.74,2.31,1.89,1.54,2.58-5.29,4.76,0,10.63-1.9,15.67-3.8,3.51-7.4,7.4-13.31,6.71,3-3.21,2.39-7.25,2.18-11-.29-5,.28-9.53,4.8-12.68a4.36,4.36,0,0,0,1.86-4.35A25.44,25.44,0,0,1,51.07,406.46Z"/><path class="cls-47" d="M423.71,370.8a9.86,9.86,0,0,0-2.42,5.88c-.93,5.46-4.64,8.93-8.69,12.17-.93,3.23-3.85,3.84-6.45,4.86a23.77,23.77,0,0,0-4.16,1.08c-6.25.25-11.91-.89-15.57-6.66,1.3-4.13,4.14-2,6.29-1.31,3.87,1.21,7.56,1.57,11.21-.5,1.64-.93,3.29-2.06,3.19-4.15-.11-2.36-2.34-2.71-4-3.16-7.3-1.93-14.85-2.88-21.93-5.6-1.8-.69-4.71-.53-4.09-3.89,2.92-2.37,6.67-1.23,9.88-2.37,11.91-3,23.2-7.25,33.51-16-4.32.69-7.61,2.1-11.11,1.66-1.87-.23-3.79-.56-4.55-2.58s1.54-2.58,2.6-4c-7.52.6-14.28,4-21.65,4.32-4.38-.22-8.79.48-13.14-.49-4.33-4.83.71-4.81,3.16-6.14,5.67-.84,10.82-3.12,17.23-6.11-8.59-3.52-15.9-6.77-23.95-8.09-5.31-.87-11.23-.52-13.7-7.16-.58-1.55-2.76-1.71-4.38-2-5.83-1.11-11.66-2-17.52-.11a6,6,0,0,1-1.74.09c-3.62,0-7.24,0-10.86,0-.88,0-1.77,0-2.65,0C301,316.63,284.42,311,269.73,301c-8.85-6-17.54-12.27-26.37-18.31a22,22,0,0,1-3.89-3.11c-2.92-3.16-2.52-4.52,1.92-6.65,7.28,1.32,13.21,5.66,19.48,9.11,8,4.4,16.61,6,25.47,6.92a125.68,125.68,0,0,1,17.72,2.57c7.51.94,15,2,22,4.05a58.89,58.89,0,0,0-9.12-6.18,78.36,78.36,0,0,0-10.61-4.8c-3.77-1.54-7.65-2.79-11.49-4.15-7-2.67-14.71-2.95-21.56-6.19a4.32,4.32,0,0,1-1.64-3.13c1.16-4.7,5.53-5.88,8.93-8.12,4.08-1.31,8.36-.63,12.52-1.25,5-.74,10.11-.92,14-4.8,4.2.64,4.28,5,6.68,7.31,8.78,11.93,19.22,22.54,27.56,34.81,1.53,2.25,4.48,4.34,2.08,7.73-4.67,3.51-10.11,2.65-15.15,2.69,3,.59,6.27.32,9.41,1,3.53.74,5-.81,5.87-3.81.17-.08.42-.28.48-.23,6.09,4.66,13.57,4.6,20.58,6.16a12.84,12.84,0,0,1,7.51,5.33,15.23,15.23,0,0,0,6.41,5c5.53,1.81,11.14,3.43,16.53,5.66,4.78,2.77,9.69,5.28,14.51,8,1.84,1,4.23,1.7,4.43,4.44,2.8,1.95,5.53,4,8.41,5.82,3.24,2,4.86,4.81,4.62,8.64,1.65,2.43.56,4.6-.63,6.76C425.48,365.08,424.59,367.94,423.71,370.8Z"/><path class="cls-48" d="M426.36,362.21a9.48,9.48,0,0,1,.63-6.76c1.95.16,5-4.29,5.67,1.3A10.23,10.23,0,0,1,426.36,362.21Z"/><path class="cls-49" d="M173.37,208.59l2.23-.3c2.79,2.71.68,5.67,0,8.25-.92,3.61.13,6.54,1.82,9.37.79,1.31,2,3,3.94,2.54,2.19-.5,2.57-2.51,2.55-4.39a74.7,74.7,0,0,1,1.25-16.49c.92-4.27,3.13-8.29,2.41-12.86.92-4.65,3.57-8.5,6-12.34,5.07-7.86,6.21-16.18,5-25.36-1.09-7.92-2.74-16.07.95-23.89,2.38-1.7,4,0,5.65,1.29,3.23,3.81,5.18,7.8,3.52,13.14-.84,2.72.29,5.85,0,9,1.17-1.81.91-4.58,3.3-4.93,2.64-.38,2.7,2.5,4,3.9,5.84,6.37,9.25,14.12,13,21.75a13.64,13.64,0,0,1-.3,13.69,141,141,0,0,1-12.71,19.45,9.54,9.54,0,0,1-2.35,2.35c-8.08,5.27-14.47,12-18,21.13-5.61,4.07-10.3,9.55-17.41,11.32a4.57,4.57,0,0,1-1.53-.49c-10.08-5-9.34-14.66-9.94-24-2.52,3.18-2.34,6.51-2.47,9.8-.11,2.7.32,5.57-2,7.74a4.25,4.25,0,0,1-4,.25c-2.89-1.89-1.87-5.11-2.64-7.84-.78,1.2-.68,2.69-1.57,3.74-1.44,1.46-3.08,2.08-4.85.67-1.49-1.18-1.53-2.89-.89-4.51a3.92,3.92,0,0,0-.27-3.65c-1-2.33-.22-4.63.19-7-1.48,0-2.5,1.4-4,1.16a3.56,3.56,0,0,1-2.27-1c-1.26-2.33.23-4,1.42-5.65a12.85,12.85,0,0,1,5.93-4c4.06-.75,8.24-.45,12.3-1.31,1.65-.37,3.44.11,5-.78A12.15,12.15,0,0,1,173.37,208.59Z"/><path class="cls-50" d="M176.81,206.51c-15.39-14.68-23.34-34.85-37.38-50.6-9.49-10.65-19-20.61-33.7-23.83-5.28-1.16-10.56-3.11-14.51-8.94,5.48.86,9.93,1.67,14.42,2.25,6,.79,11.36-.26,15.13-5.71.91-1.32,2.45-2.21,3.7-3.3,4.9,0,6.85,3.07,7.68,7.32-.06,1.43-.89,2.68-1.09,4.09,1.45.71,2.47-.55,3.68-.5,3.33-.34,5.54,1.67,7.6,3.79,3.19,3.29,6.45,6.54,8.72,10.59-1.81,12.94,5.55,23.08,10.38,34-2.1-6.84-5.48-13.34-5.22-20.78,2-4.39,3.71-5,7.32-2.39a30.35,30.35,0,0,1,7.28,7.5,46.58,46.58,0,0,0,9.11,10.32c4.37,3.5,6.85,7.6,6.25,13.31a12.68,12.68,0,0,0,1,5.4c1,2.1.58,4.45,1.16,6.63-.19,4.26-.78,8.36-4.32,11.35C181.52,208.07,179.17,207.28,176.81,206.51Z"/><path class="cls-51" d="M173.37,208.59c-2.11.86-4.26,1.49-6.57.89-2.82.07-4.18-2-5.73-3.84-9.53-9.86-15.6-21.92-21.75-34A40.5,40.5,0,0,0,129,158.76c-7.64-8.41-17.24-13.23-28.3-15.35a6.46,6.46,0,0,1-1.53-.59c-2.68-2.87-7.17-4.7-5.72-9.94,6.91,2.61,14,4.74,20.67,7.91,14.19,6.76,24.36,18,32.18,31.35C153.94,185.31,161.63,198.44,173.37,208.59Z"/><path class="cls-52" d="M153.37,75.21c4.91-1.91,8.09-6.16,12.32-9,9.77-6.66,20.21-10.34,32.15-9,2.2.24,4.44.15,6.65.22,5.83-.73,8.86,1.48,9.33,6.83-2.32,2.34-5.1,1.7-7.78,1-18.42-4.45-32.79,2.51-44.83,15.9-5.14,5.71-5.86,12.89-6.19,20.16-.12,2.61,1.07,5.66-2,7.55-3.8-3.63-4.56-8-3-12.85.6-1.85,2.28-3.45,1.23-5.66C151.27,85.2,150.73,80,153.37,75.21Z"/><path class="cls-53" d="M151.3,90.35a3.82,3.82,0,0,1,.78,3.66c-2.28,5.21-.07,10,1.1,14.87,1.58.83,1.71,2.3,1.71,3.83-.21,2.64-2.11,3.68-4.24,4.56a25.35,25.35,0,0,0-7,4.36c-2.45,3.07-4.85,6.21-9,7.06-2,.84-4.3,4.06-5.94,2.17-2-2.25,1.23-4.64,2.4-6.89,1.58-3.49,2.82-7.17,5.75-9.88a36.5,36.5,0,0,0,4.06-3.61c1.69-1.51,4.75-2.41,4.27-5.1-.39-2.21-3.76-.53-5.07-2.29C143.53,98.6,150.26,97,151.3,90.35Z"/><path class="cls-54" d="M183.38,206.49c2.53-3.29,3.27-7.32,4.53-11.12l.37-.38.47.24c1.11,1.51.84,3,.33,4.73a75.91,75.91,0,0,0-3.45,24.6c.08,2.63,0,5.73-2.71,6.76s-4.72-1.59-6.41-3.46c-2.8-3.09-3.27-6.93-2.62-10.91.47-2.9,1.13-5.78,1.71-8.66l.73-.74c4.2-1.37,3.57,1.69,3.56,4,0,3.07-1.63,6.1-.13,9.85C181.21,216.09,178.88,210.39,183.38,206.49Z"/><path class="cls-55" d="M137.76,115.23c-2.62,2.61-3.24,6.77-6.71,8.74-.91-3.65-3.93-5.46-6.58-7.59,2.17-3.5,5.88-5.25,8.89-7.81C137.77,108.84,139.8,110.69,137.76,115.23Z"/><path class="cls-56" d="M137.76,115.23c.31-3.39-2-5-4.4-6.66l6.7-5.48c1.23-.34,2.45-.76,3.71-1a3.53,3.53,0,0,1,4,2.11c.91,1.68.09,2.83-1.1,3.81C143.76,110.45,140.75,112.83,137.76,115.23Z"/><path class="cls-57" d="M183.38,206.49a82.45,82.45,0,0,0-1.22,15.92c0,1.25.17,2.88-1.43,3.2s-2.14-1.11-2.79-2.25c-2.27-4-.38-7.92.08-11.86.19-1.68,1.6-3.8-1.69-3.95l.48-1C179,205,181.19,206.22,183.38,206.49Z"/><path class="cls-58" d="M93.4,132.88a24.05,24.05,0,0,0,6.74,9c-3.36,3.6-6.8,2.23-9.19-.73-1.94-2.42-7.14-4.89-2-9.16l2.43-1Z"/><path class="cls-59" d="M233.41,73.19c.44-1.14-.19-4.42,2.4-1.89,6.56,6.39,15.2,9.6,22.26,15.13,12,9.4,26.55,15,38,25.23,1.9,1.69,4.1,1.32,6.28,1.34,3.63,3,1.63,7,1.72,10.62-.45,3.36.06,7-2.92,9.61-2.9-.61-4.87-3-7.66-3.89-1.34-.93-1.46-2.72-2.64-3.76-8.12-3.65-15.32-8.82-22.58-13.84-8-5.56-16.66-10.17-24.69-15.71-1.33-.91-2.56-2.06-4.26-.16-3.35,3.75-3.81.39-4-2a34.64,34.64,0,0,0-1.23-8.16C234.5,81.51,230.67,77.52,233.41,73.19Z"/><path class="cls-60" d="M233.41,73.19c1,4.44,2.92,8.69,2.69,13.37.53,4.69.25,9.36,1.27,14.12,1.15,5.3-2.17,10.63-2.14,16.15-.16,2.87-.75,5.56-3.11,7.51-2.76,1.34-4.28-.22-4.51-2.6-.27-2.67-2.26-3.35-3.89-4.59-.85-1.28-.74-2.73-.79-4.16,0-6.77,2.6-13.28,1.79-20.17-.32-2.79-.47-5.46-2.22-7.77a27.72,27.72,0,0,1-1.83-6.58c-.16-3.53-2.56-5.92-4.35-8.63-1.19-1.8-2.93-3.31-3-5.7-1.37-4.31-5.67-4.82-8.84-6.77-.12-2.87-4.34-1.54-4.48-4.38,14.14-.49,24,6.42,31.16,18C231.79,72,232.27,72.86,233.41,73.19Z"/><path class="cls-61" d="M302.48,124.22c-.05-3.74-.09-7.48-.14-11.22l0-12.22q.17-4.38.31-8.74c4.6-.06,6.08,3.5,7.59,6.8,1.3,2.8,2.21,5.78,3.28,8.68a3.24,3.24,0,0,1,.94,3.21,26.68,26.68,0,0,1-7.34,11.92C305.81,123.86,304.67,125.62,302.48,124.22Z"/><path class="cls-62" d="M83.3,154.1c1.19-4.63-4.36-6.71-4.15-11,1.48-4.32,4.1-1.61,6.37-1l2.33,2c3.3.31,5.1,2.24,7.05,5a216.29,216.29,0,0,0,20,24.6c2,4.91,2.28,9.83.12,14.77a1.35,1.35,0,0,1-1.74.27c-.42-2.45-1.11-4.86-3.78-5.65-2.42-.73-3.13,1.77-4,3.05-2.54,3.63-5.46,5.36-9.81,3.5-4.64-2-4.41-5.76-3.56-9.76a5.87,5.87,0,0,0,0-1.11c2.17-1.92,1.75-5.43,4.36-7.08,1.27-.67,3.25.86,4-.82.65-1.52-.93-2.64-1.82-3.75a80.27,80.27,0,0,0-9.19-9.43c-.41-.2-.8-.44-1.19-.65-1.25-.68-2.62,0-3.9-.36C83.46,156,84,154.83,83.3,154.1Z"/><path class="cls-63" d="M85.52,142.09c-2,1.33-4.51-1-6.37,1a6.76,6.76,0,0,0-.55,1.56c-.56,5.36-1.48,10.41-9.17,10.12,2.14,2.58,4.25,1.31,6.47,2.53l-4.76,5.85c-.44-.32-1-1-1.3-.91-7,2.77-9.4-2.58-11.37-7.13-2.13-4.91-.61-10.12,3-13.81a12.41,12.41,0,0,1,15.23-2.56C79.56,140.25,83.67,138.18,85.52,142.09Z"/><path class="cls-64" d="M113.2,173.2c-9-6.74-15-16.06-20.89-25.31-1.25-2-3.46-2-4.47-3.76,2.64.26,3-.71,1.48-2.71-1.23-1.57-3-2.93-3.64-4.7-.81-2.42-2-6,3.24-4.78-1.33,6.52,3.73,11,11.22,9.89l-.08,0c5.28,7.78,12.8,14.26,14.24,24.28C114.65,168.53,115.71,171.16,113.2,173.2Z"/><path class="cls-14" d="M42.2,166.42c-7.35-6-7.93-19.47-2.27-24.46C38.83,150.29,41.86,158.23,42.2,166.42Z"/><path class="cls-65" d="M197.92,17.37c7.11-1.44,12.1,2.4,16.87,6.79,2.82,1.41,6.81,1.21,7.55,5.49,12.51,3.8,21.1,14,32.4,19.86,8.87,4.61,15.8,12.69,26.12,14.86a3,3,0,0,1,2,1.74c1.8,7.57,9.5,5.91,14.09,9.08.65.45,1.84-.07,2.4.93,3.24,5.74,3.24,5.73,8.87,3.63a4.37,4.37,0,0,1,1.1-.12,2.25,2.25,0,0,1,2.42-.42c3.64,3.77,7.23,7.56,5.34,13.52-1.4,3.52-3.21,4.33-5.9,1-2.53-3.1-5.55-5.39-9.86-5.28a5.55,5.55,0,0,1-3.9-1.93C282,71.86,262.91,62.5,245.46,50.79,230.75,40.93,216.68,30.05,201,21.68A5,5,0,0,1,197.92,17.37Z"/><path class="cls-66" d="M237.84,15c1.18-1.35,2.85-1.7,4.46-2.15,2.84-1.35,5.47-1.16,7.12,1.72,1.31,2.28,3.18,2.05,5.19,1.89l9.72-5.1c.41,6.18-3.66,9.69-5.46,14.14,1.54,1.71,4.83-1.94,5.41,1.32a30.81,30.81,0,0,1-.25,9.28c-.23,1.67-1.95,1.44-3.15.87-1.79-.87-3.48-1.94-5.21-2.93-2.32-2.86-6.51-3.89-7.52-8.12-.31-1.31-2.21-1-3.46-.89a9.64,9.64,0,0,1-5.8-1.22C234.44,21.2,234.14,18.81,237.84,15Z"/><path class="cls-67" d="M237.84,15c.36,1.87-3.22,3.32-.72,5.3,2.19,1.74,4.15,4.26,7.68,2.79,1.38-.58,3.76-1.9,4.43,0,1.46,4.14,4.38,7.26,6.44,11-4.34-2-8.45-4.56-13.42-4.7-9.36-1.07-12.25-3.45-13.18-10.81A28.2,28.2,0,0,1,237.84,15Z"/><path class="cls-68" d="M229.07,18.55a22,22,0,0,0,13.18,10.81l-19.91.29c-2.06-2.46-5.87-2.51-7.55-5.49A69.75,69.75,0,0,0,228,18.52,5.68,5.68,0,0,0,229.07,18.55Z"/><path class="cls-69" d="M311.47,79.81l-2.19-.18c-5.45-3.37-10.81-6.8-15.35-11.48-1.83-1.87-3.05-3.47-2.68-6.07,1.35-2.41,3.54-1.89,5.66-1.6a2.41,2.41,0,0,1-.05.54c-2.25,7.27-2.08,7.46,5.89,6.34,1,2.37,2.47,2.12,4.33,1,1.61-1,3-2.91,5.32-2l1,1.1c1,2-.7,3.05-1.81,3.94-2.14,1.72-1.51,3.32-.33,5.1l2.16,2.24C313.6,80.44,312.64,80.3,311.47,79.81Z"/><path class="cls-70" d="M296.91,60.48c-1.57,1.64-3.67,1.42-5.66,1.6l-3.09-2.26c-1.36-1-4.17-1.39-2.87-3.7,1-1.73,3.37-.84,5-.15,2.3,1,4.91,1.47,6.55,3.64C296.88,59.9,296.89,60.19,296.91,60.48Z"/><path class="cls-71" d="M254.61,16.48c-2.41,2-4.75,3.09-6.38-.79-1.17-2.75-3.52-2.8-5.93-2.82l2.5-2,2-.25C251,10.43,251.19,15.61,254.61,16.48Z"/><path class="cls-72" d="M311.47,79.81c.65-.4,1.69-.1,1.94-1.15l4.37-1c4.41,6.15,8.21,12.6,10.13,20-.47,4.44-2.45,7.17-7.39,6.58-.39-4-1.07-8-3.47-11.47C316.29,88,313.21,84.16,311.47,79.81Z"/><path class="cls-73" d="M313.41,110.85l.09-3.33c4.94.7,7.56,3.21,6.78,8.52a4.43,4.43,0,0,0,.87,3.64c1.9,1.42.71,3.31.78,5-.35,5.26-2.65,9.88-5,14.43-.95,1.83-2.24,4-5.08,2.59-2.15-4.07-.55-8.11,0-12.17,1.67-4.95.13-10.07.77-15.08C312.82,113.22,312.58,111.94,313.41,110.85Z"/><path class="cls-74" d="M320.51,124.22c.21-1.52.43-3,.64-4.54.1-.39.21-.78.32-1.16a39.34,39.34,0,0,0,.08-12.11c-.34-.74-.69-1.47-1-2.21,2.51-2.14,6.3-2.85,7.39-6.58.51,1-.28,2.54,1.11,3.29,3.49,3.63,4,7.88,2.59,12.52-2.45,3.85-6.32,6.55-8.66,10.53A1.65,1.65,0,0,1,320.51,124.22Z"/><path class="cls-72" d="M321.55,106.41a17.18,17.18,0,0,1-.08,12.11Q321.5,112.46,321.55,106.41Z"/><path class="cls-75" d="M362.46,119.76c3,8.32,2.11,17,2.23,25.57-3.23,2.19-5.67.24-6.84-2.23-2.55-5.41-6.82-9.6-9.71-14.74-.37-1.59-.35-3.06,1.15-4.12,4-3.89,1.32-8.8,2-13.19C355.78,113,357.47,118.48,362.46,119.76Z"/><path class="cls-76" d="M349.29,124.24c0,1.46,0,2.92.08,4.38,2.39,4.65,1,8.95-1.17,13.19-1.75,2-3.32,4.27-5.81,5.54-4.89,1.29-7.32-1.94-9.72-5.26-1.48-4.22.7-7.8,2-11.54,1.45-1.85,1.55-4,1.74-6.26.33-4,.57-8.16,3.69-11.31C342.77,117.06,348.28,118.81,349.29,124.24Z"/><path class="cls-77" d="M340.1,113c-.72,4.87-1.46,9.72-2.16,14.59-.21,1.5-.53,2.89-2.06,3.62-1.24-.59-1.82-2.2-3.61-2-2.92.3-3.47-1.95-4-4.12-.45-3.89-.57-7.71,2.07-11,.59-4.48-.38-8.8-1.31-13.13,1.66.71,4.52-1.89,5.1,2.14.22,1.55,2.46.94,3.81,1.19Z"/><path class="cls-78" d="M312.4,66.28c-2.19,1.67-4.3,3.47-6.6,5-1.45,1-3.4,1.15-4.57-.3-1.35-1.68,1-2.39,1.52-3.61a7.6,7.6,0,0,0,3-3.24C308,64.77,312.47,58.57,312.4,66.28Z"/><path class="cls-79" d="M311.25,76.42c-1.75-.37-4.14-.32-4.56-2.27-.35-1.64,2-2.32,3.09-3.46s2.4-2.22,3.61-3.31c3.88-.34,4-.23,3.18,5Z"/><path class="cls-80" d="M414,341c-6.47-3.75-13.52-6.48-19.52-11.05C380.2,320.33,372,306.1,364.61,291.2c-2.12-4.29-2.1-8.87-1.63-13.5-.49-8.28-.43-16.56-.57-24.84-.07-4.72-4.72-7.94-4.46-12.83,1.72-14,6.38-27.45,8.89-41.33a1.56,1.56,0,0,1,2.21-.86,153.65,153.65,0,0,1,.65,45c-.5,3.73.51,6.86,1.06,10.23.92,5.62.9,11.36,2.16,16.93,0,3.53.91,7,.86,10.19.89-2.7-2.38-6.33,1.05-9.12,3.7,1.47,4.08,5.34,5.9,8.18,5.34,8.31,10.78,16.56,16,24.93,2,3.24,3.68,6.73,5.5,10.1,2.87,8.22,8.58,14.9,12.28,22.67C415.23,338.36,417.41,340.1,414,341Z"/><path class="cls-81" d="M374.83,271v10.85c-2.57-3.34-3-7.13-3.56-10.89-.11-11.5-2.61-22.91-.68-34.52.94-5.59.14-11.4.26-17.11,0-2.15-.5-4.5,1.62-6.12,2.53,6.56.57,13.38,1.2,20,.19,2-.91,4.62,2.21,5.49C376.61,249.56,374,260.24,374.83,271Z"/><path class="cls-82" d="M346.69,141.81c.77-4.42,3.08-8.53,2.68-13.19,3.82,3.52,7.65,6.89,9.1,12.31a5.86,5.86,0,0,0,6.22,4.4c1.52,5.91.33,11.82,0,17.74l-4.5,8.9a1.85,1.85,0,0,1-1.53.44c-5.69-2.41-8.95-7.23-12-12.23C345,154.06,344.07,147.93,346.69,141.81Z"/><path class="cls-83" d="M359.23,172a5.21,5.21,0,0,0,1-.06c1.81,11.82,1.1,23.72,1.2,35.59.28,1.12-.36,1.44-1.3,1.52-6.46-3.38-8.22-10-10.86-16-.33-2.66.87-4.9,1.91-7.19,1.4-3.3,2.17-6.86,4-10C356.12,174.25,356.92,172.34,359.23,172Z"/><path class="cls-84" d="M360.28,208.74c.37-.4.75-.79,1.12-1.18,2.69.17,3.41-1.37,3.31-3.71-.09-2,0-4,2.13-5.15.45,9.17-1.78,18-3.88,26.76-1.17,4.85-2.29,9.71-3.43,14.56-.25,4,.5,8.07-.59,12-.63,2.28-.9,4.8-3.54,5.87-2.5-.93-2.23-3.14-2.31-5.13-.22-5,.51-9.94.94-14.91,1.84-6.74,1.58-13.81,3.15-20.59C357.87,214.32,357.54,211,360.28,208.74Z"/><path class="cls-85" d="M372.47,213.24c.88,19.28-1.73,38.48-1.2,57.75-2-5.05-1.08-10.48-2-15.71-3.26-19.1,1.78-38.3-.24-57.44C372.1,202.55,370.81,208.22,372.47,213.24Z"/><path class="cls-86" d="M108.87,365.46c-13.5,3.35-25.82,9.84-38.81,14.53-2.39.86-6,2.84-7.05,1.17-1.82-2.88,2-4.61,3.91-6.3,7.34-6.66,16.43-10.55,25.15-14.92,6.93-3.47,14.17-6.32,21.25-9.48,1.68-.75,4.08-1.62,3.75-3.58-.41-2.46-3.06-1.38-4.71-1.35-8.33.12-15.86,3.22-23.16,6.84-5.06,2.52-10.55,3.87-15.31,7.09l-1.09-1.68c4-3.44,8-7,12.09-10.3,9.52-7.66,20.75-11.94,32.09-16,1.38-.5,2.75-1.05,4.13-1.57,1.74-3.9,7.07-3,9.2-7-5.31-3.15-12.17-1-17-5.13-7.45.29-14,3.58-21.24,5.65,7.78-6.78,11.34-17.47,21.22-22.35,1.72,2.16,3.33,4.42,5.19,6.44,6.4,7,12.75,8.22,21.33,4.2,4.84-2.26,9.63-4.63,14.34-7.15,5.88-3.15,11.78-6,18.69-6.06,1.59,0,3.4-.53,4-2.28.1-.26-1.58-1.18-2.43-1.79,2.86-4.63,1.79-9.74,1.8-14.73a13.1,13.1,0,0,1,.23-2.58,3.26,3.26,0,0,1,3.23-2.55c3.72,1.61,5.2,6.19,9.52,7.07,12.16,2.5,24.29,4.95,35.26-3.74,4.53-.27,7.56,1.46,8.27,6.24-1.37,2.37-3.86,2.79-6.16,3.24-7.07,1.39-13.12,4.74-18.92,8.85-7.24,5.12-14.65,10-21.94,15-7.05,4.74-14.25,9.23-20.56,15-1.76,1.62-3.68,3.9-6.75,2.64-6.59,1.66-10.15,6.91-13.78,11.94-4.42,6.15-7.68,13-11.08,19.74-.69,1.37-1,4.16-3.51,1.56-4.25-.26-7.89,2.16-12,2.75C115,365.36,112,366,108.87,365.46Z"/><path class="cls-87" d="M128.75,275.28c.84,8.76,4.94,16.58,7.17,24.94.45,1.68,2,3.78-.35,4.87-2,1-3.42-1.07-4.44-2.5-8-11.32-13.34-23.43-10.18-37.8.2-.9.2-1.84.38-2.74.2-1.1.59-2.28-.77-2.85s-2.14.37-2.81,1.23a19.13,19.13,0,0,0-4.36,11.72c0,6.82-.83,13.67.93,20.43a6.25,6.25,0,0,1-.78,5.11c-4.53-6.21-7.62-12.38-8.05-19.9-.4-7.07,1.16-14,1.21-21,0-1.94.7-4.73-1.78-5.25-2.83-.59-3.41,2.1-3.89,4.32a8.89,8.89,0,0,1-.68,2.1c-.53,1.12-.85,2.75-2.53,2.37-1.36-.3-1.12-1.77-1.11-2.81,0-5.54-.32-11.08.48-16.61a86.23,86.23,0,0,0,.64-9.38c0-1.21.45-2.9-1.23-3.27-1.4-.31-2.2,1.11-3.1,2-2.12,2.09-2.22,5-3.1,7.6-1,3-1.57,6.17-4.91,7.62l0-.08c-.2-11.64-.88-23.26,5.54-34,2-3.35,2.32-7.73,3.41-11.64,2.25-1.66,3.91-.09,5.27,1.27,2.23,2.24,5,3.72,7.45,5.59,1,2.75,4.45,3.65,5,6.73.12,2-1,3.5-2.11,5-3,4.94-5.4,10.06-4,16.1.18,2.34-.06,4.84,2.39,6.33a8.62,8.62,0,0,1,1,1.09c1.77,3.14,4,5.64,8,5.56,2-.73,2-2.82,3.06-4.22,1.18-1.63,2.33-3.23,4.74-2.67,6.15,4.67,6.93,8.49,2.39,14.19-1.44,1.82-1.06,3.33-.72,5.1C127,265.07,125.16,270.51,128.75,275.28Z"/><path class="cls-88" d="M159.89,257.74c-2.93-.89-1.8,1.48-1.95,2.58-1.19,8.41,2.14,15.92,4.66,23.62.79,2.42,3.64,6.09.73,7.37-3.59,1.59-3.89-3.32-5.4-5.53a57.12,57.12,0,0,1-6.4-12.85c-.74-2.06-1.84-4.47-4.59-3.9-2.47.52-3.22,2.88-3.48,5.16-.43,3.94,1,7.64,1.63,11.45.25,1.57,1.28,3.57-.47,4.53s-3.24-.89-4.19-2c-6.23-7.27-12-14.79-7.93-25.32.39-1,1-2.07-.23-3-.27-2.8,2-3.53,3.48-2.63,3.32,2.08-.43,4.38-.2,6.09,1.28-3,3.3-6.43,2-10.55a4.93,4.93,0,0,1,.88-3.92c6.93,2.83,13.32.23,19.77-1.92a4.33,4.33,0,0,1,4.19.45c1.61,3.34-1,6.1-1.24,9.19A2.69,2.69,0,0,1,159.89,257.74Z"/><path class="cls-89" d="M85.49,245.48c-2.3,3-4.22,2.78-5.42-.81-3.41-10.18-5.84-20.42-3.64-31.37.85-4.27.26-8.85.2-13.28a5,5,0,0,1,3.31-5.17c2.4-1,4.18-.26,6,1.41,5.12,4.72,5.33,11.2,1.41,16.93-3.28,4.8-6.41,10-3.41,16.49,1,2.17.3,5.09.52,7.65s-.84,5.57,1,8.07Z"/><path class="cls-90" d="M159.89,257.74l.36-1.4c2.48-6.58,4.22-7.78,9.2-6.35,1.52,2.86.05,5.77.12,8.66.79,2.47-.32,5.12.74,7.56a9.07,9.07,0,0,1,.35,3.23c-.16,4.91,4.31,5.81,7.07,8.2l0,2.09c-3.36,6.22-4.69,6.85-10.36,4.92C161.07,276.75,161.23,267,159.89,257.74Z"/><path class="cls-91" d="M106.73,207.44c-3.26-.2-5.42-2.17-7.46-4.46-1.3-1.47-2.61-3.08-4.86-3.18L86.73,191,101,194.11a256.1,256.1,0,0,1,24.37,15.18,8,8,0,0,1,2.28,2.4c.72,1.15,1.19,2.38.29,3.6a2.69,2.69,0,0,1-3,.85C118.3,214.44,111.94,212.15,106.73,207.44Z"/><path class="cls-92" d="M139,253.12c1.19.6,2.65,1.42,1.57,2.85-3.25,4.3-3.74,9.71-6.11,15.2-2.71-5.14.2-8.9,1.46-12.88-2-.63-2.86.4-3.69,1.59-4.54,4.36-3.32,10.05-3.52,15.4-4.71-1.09-4.27-4.92-4.23-8.32a52.22,52.22,0,0,1,1-7.09C127.19,253.25,132.72,250.48,139,253.12Z"/><path class="cls-93" d="M167.4,284.65c4.69,1,6.86-3.38,10.36-4.92-.2,3.65,1.53,7.17.47,10.93-.61,2.18-1.24,3.81-3.8,3.8C170.66,292.21,169,288.46,167.4,284.65Z"/><path class="cls-89" d="M93.12,243c.92,3.61-.78,7.25,1.67,10.59,1,1.35-.93,2.1-2.08,2.53a4.12,4.12,0,0,1-5.24-1.83c-1.14-1.74-1.18-3.69.6-4.89C90.45,247.81,92.34,246.05,93.12,243Z"/><path class="cls-94" d="M106.73,207.44c7,1.73,12.9,6.26,21.71,7.92-8.24-9.85-20.28-12.52-27.42-21.25,2.29-1.75,3.64,1.58,5.7,1.06,1.94-.84,3.61,0,5.24.89,10.38,5.57,19.9,12.67,30.79,17.33a3.29,3.29,0,0,1,1.78,2c-.79,1.47-1.57,2.94-2.36,4.4a2.55,2.55,0,0,1-2.8,1.78C132.62,220.06,126,218,119,217.4c-3.29-.26-6.11-1.16-7.72-4.32C109.88,211.12,106.41,210.82,106.73,207.44Z"/><path class="cls-95" d="M113.32,188.72l1.13-.25c2-1.34,3.58-.07,5.08.91A139.82,139.82,0,0,0,156.31,206c2.51.74,5.64,1.14,6.18,4.69a42.09,42.09,0,0,1-13.65,1c-5.9.71-10.84-1.94-15.47-4.89-7.15-4.55-14.16-9.27-22.29-12a3.72,3.72,0,0,1-2.08-1.73C110.08,191.34,113.17,191.45,113.32,188.72Z"/><path class="cls-96" d="M109,193.17c5.76,0,10.85,2.58,15.25,5.63a107.93,107.93,0,0,0,24.59,13l-4.31,3.65c-10.93-2.81-19.53-10.07-29.22-15.27-2.91-1.56-5.73-3.31-8.59-5C106.87,193.8,107.8,193.33,109,193.17Z"/><path class="cls-97" d="M90.09,156.08c4.18,3.12,7.54,7,11,10.86,1.72,1.88,3.27,4.14,1.51,6.3-2.05,2.5-4.24.23-6.2-1-2.09,1.74-4.21.83-6.22-.09a4.62,4.62,0,0,0-5.57.84,12.61,12.61,0,0,1-4.72-3.42,1.55,1.55,0,0,1,.85-1.83C85.89,165.45,89.21,161.74,90.09,156.08Z"/><path class="cls-98" d="M90.09,156.08c.06,1.6-.27,3.13.3,4.82,1,3,0,5-3.48,5.83-2.42.55-4.65,1.89-7,2.87-.1-5.43,1.77-10.43,3.36-15.5,1.23.33,1.07,1.42,1.26,2.31,1.41,1.69,3,.77,4.51.27Z"/><path class="cls-99" d="M84.66,173c-1.44-3.76-.21-4.87,3.55-3.66,2.77.89,5,3.22,8.24,2.91-.35,2-.69,3.93-1.06,5.89-.56,3-1.91,1.79-3.25.59Z"/><path class="cls-100" d="M70.14,180.74c.24-1.1,2.22-1,2.11-2.64-2.54.28-4.45,2.49-7.18,2.34,2.83-4.37,9.39-7.94,12.29-6.75s3,2.38,1.35,7.74C76,177.28,72.82,184.82,70.14,180.74Z"/><path class="cls-101" d="M66.7,424.72l4.49,9.75c-.69,7-5.44,10.41-12.59,9.84-5.65-.44-10.67,2.07-16.08,2.5-1.06.71-2.15.77-2.79-.4-.9-1.66.23-2.81,1.44-3.65a80.43,80.43,0,0,1,12.1-7.17h0c2.42-.76,3.37-4.43,6.7-3.36,2.68,1.24,2-1.08,2.16-2.18C62.54,427.25,63.67,425.21,66.7,424.72Z"/><path class="cls-102" d="M53.27,435.59a36.21,36.21,0,0,1-10.52,8.11c-1.52.76-4.2,1.78-.24,3.11-2,2.65-5.43,2.94-8.08,4.53-4.62,1.36-8.95,4.44-14.14,2.35-.56-3.41,3.23-1.81,4.1-3.56,4.86-1.92,9.08-4.9,13.31-7.88,4.68-1.76,8.31-5.6,13.31-6.71Z"/><path class="cls-37" d="M140.11,422.47a40.33,40.33,0,0,0,16.61-6.9c1.63-2.47,3.37-4.62,6.64-2.27l.08.13c-.93,1.11-2.4,2.1-2.7,3.37-1,4-3.61,4.69-7.07,4.35-2.53-.24-4.58,1.17-6.8,2S142.22,424.12,140.11,422.47Z"/><path class="cls-103" d="M108.87,365.46c6.93-1.94,13.6-5.49,21.17-3.28-4.4,3.5-6.14,8.89-9.29,13.29-5.16,7.21-10.35,14.34-17.1,20.14-1.4,1.2-3.29,3.61-5.07,2.34-2-1.42,0-3.68.75-5.48,3.11-7.47,6.32-14.91,9.33-22.43C109.2,368.67,110.54,367.05,108.87,365.46Z"/><path class="cls-104" d="M113.29,317.8l16.89,2.2c1.55.2,3,.79,3.4,2.36.41,1.73-1.25,2.53-2.33,3.42-2.93,2.43-6.73,2.82-10.14,4.14C120.62,324.51,115,322.4,113.29,317.8Z"/><path class="cls-105" d="M295.78,394.46a6.5,6.5,0,0,0,1.08,0c1.94-2.2,4.68.55,6.71-1.07l5.5-.2,68-10c4.61-1.24,7.72.67,9.79,4.71,4.61,3.39,9.62,5.64,15.49,5.45,2.17,4.37,1.19,8.08-2.33,11.28-5.52,3.6-12.08,3-18.12,4C346,414.1,310,419.12,274.05,424.29a48.75,48.75,0,0,1-5,.23c2.34-3.48,6.34-2.33,9.55-3.32,7.89-2.45,12.84-10.53,12.52-18.31-.08-1.74-1.43-2.38-2.88-3a16.82,16.82,0,0,0-9.85-.85c-6.45,1.35-12.9.76-19.35.95,6.79-2.66,14.19-1.58,21.12-3.4A62.84,62.84,0,0,1,295.78,394.46Z"/><path class="cls-106" d="M400,404.58q1.16-5.64,2.33-11.28a3.6,3.6,0,0,1,3.53-1c.61,4.93,4.16,7.78,7.55,10.75a53.37,53.37,0,0,1,5.71,5.84c2.17,4.13.45,8.37-.23,12.35-.64,3.76-4.09,2.09-5.56.66-4-3.85-9.47-6.32-11.43-12.1-.17-.51-1.19-.73-1.82-1.09C400.07,407.33,400.05,406,400,404.58Z"/><path class="cls-107" d="M419.14,408.89c-6.25-1.53-9.22-7.34-13.89-10.93-1.46-1.12-.39-3.82.63-5.66l6.72-3.45c3.88,1.41,7.4,3.35,9.84,6.83A18.85,18.85,0,0,0,419.14,408.89Z"/><path class="cls-102" d="M60,432.23c-2.13,1.32-4,3.19-6.7,3.36.85-1.35,1.74-2.66,2.54-4C57.83,428.1,59.11,428.8,60,432.23Z"/><path class="cls-108" d="M262.41,312.05a6.15,6.15,0,0,0-1-.11,29.15,29.15,0,0,1-9.61-7.23,135.24,135.24,0,0,0-14.88-14c-2.09-1.7-4.49-3.36-4.71-6.51a10.79,10.79,0,0,0-7.65-5.36c-4.29,2.63-6.88-.08-9.21-3.08-1.34-1.72-1.91-3.94-3.14-5.77-1.61-7,.35-12.82,5.63-17.59,4-2.6,8.75-3.24,13.17-4.77a10.58,10.58,0,0,1,8.85,6.72c.59,4.16,2.43,8,2.88,12.24.29,2.75.79,5.51-1.6,7.69-2.15.73-4.34,1.5-1.13,3.79,24.11,17.19,48,34.9,77.93,40.94a64.8,64.8,0,0,1,25.66,14.31,6.84,6.84,0,0,0,1.74,1.36c12.89,5.49,22.73,15.48,34.17,23.12,2.63,1.75,5.62,2.82,8.28,4.46,3.1,1.92,4.3,4.23.24,6.58-3.5,1.94-7.35.78-11,1.26-1.46,1.6-3.33,1.17-5.15,1.08a48.09,48.09,0,0,1-13.54-2.4,299.9,299.9,0,0,1-38.65-16c-7.45-9-18-13.92-27.33-20.38-7.56-5.23-15.07-10.6-23.37-14.7C266.41,316.41,265.5,312.91,262.41,312.05Z"/><path class="cls-109" d="M364.65,278.8c-.87,11.8,6.08,20.46,11.88,29.57,5.05,7.95,11.82,14.49,17.91,21.57-5.3-2.31-11.28-2.59-16.37-5.52a38.38,38.38,0,0,1-10.79-13c-10.24-19-22.66-36.71-34-55.07-7.55-12.27-14.72-24.77-22.63-36.82-2.55-3.89-2.36-9-5.75-12.86-1.88-2.13-3.39-4.73-5.53-6.75-1-2-1-4.3-2.27-6.15-1.3-3.19-4.09-6.13-1.71-9.94,5.23-.61,9.68-4.33,15.18-3.84,2.46,1.44,4.48,3.74,7.61,3.94.72,0,1.82.54,1.82,1,0,7.57,8.73,8.5,10.81,14.43.3.85,1.1,1.45,1.5,2.28a6.43,6.43,0,0,1,.49,1.54,7.68,7.68,0,0,1-2.1,6.64c-3.1,3.08-2.42,5.87-.33,9.35,6.8,11.4,14.77,22.09,20.73,34a15.59,15.59,0,0,1,1.9,7.34c.07,1.31.16,2.82,1.39,3.43C360.58,267.08,363.24,272.5,364.65,278.8Z"/><path class="cls-110" d="M300.33,199.8c2.89.6,5.25,1.68,5.6,5.15a4.23,4.23,0,0,0,2.82,3.8c1.09.38,2.42,1.09,2.21,2.19-1.71,8.76,5.56,13.56,9,19.86,7.1,12.9,15.18,25.28,23,37.79,7,11.21,14.55,22.09,21.13,33.53,4.39,7.62,9.3,14.87,14,22.3a8.23,8.23,0,0,1-6.29-3.88c-3.3-5.81-8.57-7.12-14.43-7.2s-10.84-1.15-13.71-6.84l.06.05c-3.55-7.37-9.07-13.34-14-19.7-5.65-7.25-11.48-14.36-17.23-21.53a6.58,6.58,0,0,1-1-4.22c1.73-13.54-3.64-26.12-5.16-39.22-.59-5.09-2.57-9.53-7.11-12.45C297.82,206,297.25,202.68,300.33,199.8Z"/><path class="cls-111" d="M388.08,368.81c2.09-2.41,1.88-4.34-1.3-5.37-6.46-2.08-11-7.23-16.65-10.33-7.85-4.34-12.84-12.87-22.3-14.64a9.89,9.89,0,0,1-4.62-2.94c-7-7-15.71-11-24.45-15.14-.39-.18-.52-.93-.77-1.41h2.31a35.68,35.68,0,0,0,12.11-.05,2.92,2.92,0,0,1,1.1-.13c9.14-1.26,16.42,1.93,23.53,7.84,4.64,3.86,8.51,9.3,15.07,10.73a10.14,10.14,0,0,1,5.16,3.14c1.56,1.67,2.4,3.44-.29,4.92-1.32,1.37-5.06-.29-4.42,3.53,4.8.63,9.6,1,14.4-.09,6.28-1.53,12.56-3.1,18.86-4.58,2.13-.5,5.17-1.48,5.95,1,.86,2.68-2.72,2.18-4.22,3.26a17.86,17.86,0,0,1-2.07,1.05c6.13,4.56,12.32-2.65,18.86.85C413.74,360.25,401.38,365.42,388.08,368.81Z"/><path class="cls-112" d="M320.2,351.11c18.52,7.63,36.28,17.51,56.86,19,8.26,3.16,16.91,4.83,25.51,6.68,3,.64,6.95.78,7.35,4.66.38,3.73-2.7,5.76-5.84,7.26a13.92,13.92,0,0,1-11.77.15c-1.69-.68-3.25-2.94-5.45-1l-9.79-4.71c-18-10.69-37.85-17.34-56.42-26.76-7.06-3.59-14.12-7.16-20.47-12,1-3.92,3.68-1.94,5.64-1.36C311.2,344.64,315.3,348.61,320.2,351.11Z"/><path class="cls-113" d="M241.19,274.25c.48-5.15-.85-10-2.14-14.94-.42-1.64-1.81-3.36,0-5,4.15-1.34,6.83,2.08,10.24,3.15,2.79,1.25,5.19,3.18,7.93,4.52,2,1,3.58,2.67,5.67,3.53,2.23,1.36,4.11,3.2,6.35,4.55,1.07.28,2.32,0,3.17,1l1.14,2.16c2.21,4.55,5.68,8.12,9.1,11.75,1.57,1.66,3.91,3.06,3.13,6-14.86-.25-27-7.81-39.55-14.49C244.6,275.56,243.11,274.43,241.19,274.25Z"/><path class="cls-114" d="M377,345.42c1.88-4.22-2.18-5.16-4.13-5.61-8.29-1.89-12.17-9.43-18.57-13.47-6.2-3.91-12.71-8.23-20.77-7.55,7.1-2.08,14.18-1.23,21.2.37,1.65.38,3.55,1.74,3.59,3.17.13,4.92,3.51,4.26,6.64,4.64,11.1,1.35,21.28,5.55,32.76,10.89C390.37,341.46,384.07,344.39,377,345.42Z"/><path class="cls-115" d="M308.16,258c-7.86,8.45-18.37,5.31-27.93,6.35-2.62-1.54-4.85-3.37-4.94-6.77a4.77,4.77,0,0,1,2.84-2.44c5-2.27,5.05-2.36,1-6.44a128.3,128.3,0,0,1-9.07-10.43c-1-1.28-2.29-2.78-1.32-4.47,1.2-2.1,3.26-1.07,5-.73,6,1.17,11,5.1,17,6.31,2,.8,2.09,2.89,3.05,4.4.84,2.13,1.44,4.35,2.34,6.46,1.59,3.78,3.44,7,8.52,5.13a3.08,3.08,0,0,1,3.46,1.15A1.86,1.86,0,0,1,308.16,258Z"/><path class="cls-116" d="M300.54,209.81c3.63-.41,5.56,1.5,6.21,4.82,2.61,13.32,5.24,26.63,7.68,40,.67,3.7-2.63,6.89-2,10.71L308.16,258a.9.9,0,0,0,.34-.49c-4.15-9.39-8-18.82-7.91-29.39,0-2.68-1.13-5.35-2.14-7.93C298.13,216.51,296.91,212.67,300.54,209.81Z"/><path class="cls-117" d="M285.78,290.92c-3.53-4.66-8.45-8.06-11.61-13.07-1-1.57-2.55-2.82-.62-4.68,7.42,1.92,15.13,2.69,22.25,5.77,2.12,3.12,4.47,6.06,6.76,9.05,1.16,1.5,2.94,2.82,2.09,5.16Z"/><path class="cls-108" d="M304.65,293.15c-3-4.71-9-7.55-8.85-14.21,12.34,3.94,24.54,8.15,33.95,17.49l-.51,1.4Z"/><path class="cls-118" d="M275.53,257.87c1.21,2.42,5.33,2.72,4.7,6.47-1.73,3.26-5.92,3.62-7.82,6.67-1.09.32-1.87,1.76-3.27.89-3.81-6.37-7.77-12.66-11.23-19.24-1-1.88-1.68-3.66-.05-5.52C263.82,246.11,271.85,251,275.53,257.87Z"/><path class="cls-119" d="M343.64,306.5c.44,1.39.84,2.8,1.33,4.18s.29,2.51-1.2,2.27c-7.23-1.12-14.88,0-21.65-4.5l21.58-1.9Z"/><path class="cls-114" d="M387,348.86c-4.79,2.41-9.6,1.27-14.4.09Z"/><path class="cls-114" d="M332.41,318.92a16.16,16.16,0,0,1-12.11.05Z"/><path class="cls-120" d="M224.61,117.46c1.81.07,2-1.94,3.28-2.64,3.09,2.44-1.29,7.44,3.19,9.34,2.14,1.54,2,3.69,1.58,5.9-1.1,2.3-2.29,4.6-1.12,7.42,3-.09,5.36-4.5,8.73-2.11,2.22,1.57,1.61,4.26.94,6.63-2.34,3.91-1.88,8.53-3.18,12.72-.57,1.81.59,3.17,2.6,3.49a7,7,0,0,1,4.46,3.36c1,3.22-1.07,5.62-2.29,8.23-.76,1.62-2.2,3.07-.48,5a4.91,4.91,0,0,0,5.48,1.44c2.35-.64,4.56-1.37,6-3.57s3.25-3.86,5.93-2.32c2.52,1.43,2.21,4,1.75,6.42-.65,3.35-3.37,6.18-2.49,9.92.26,2.45-1.25,4.27-2.44,6.05a214.52,214.52,0,0,1-16.24,21.72c-5.5,3.38-11,6.66-17.34,8.35-3,.8-6.45,2.1-8.74-.87-2.53-3.29,0-6.2,1.87-8.93,2.57-2.49-1.11-2.15-1.51-3.29,4.34-6.83,8.79-13.6,12.95-20.53,2.11-3.52,2.5-7.24-.41-10.79-2.6-3.18-3.41-7.34-5-11-2.41-5.62-8.87-8.19-9.77-14.76-1.73,3.3-.84,7.51-4.7,10-1.79-4-1.12-8.05-.78-11.86.48-5.5.81-10.75-2.38-15.6-1-3.8,1-4.88,4.34-4.77,3.74,3.85,1.23,8.79,2.63,14.18,1.92-7,5.21-12.42,7.15-18.47C219.74,122.64,220.5,118.85,224.61,117.46Z"/><path class="cls-121" d="M162.49,210.73a11.05,11.05,0,0,0-2.36-1.37,161.84,161.84,0,0,1-45.67-20.89,43.66,43.66,0,0,0-1.26-15.27c-.25-8.95-2.88-16.93-9.83-23-2.68-2.33-2.41-5.56-3.31-8.45,12,1.37,22.1,6.32,29.75,15.86-1.85,6-.47,11.88.79,17.8,1.06,5-2.77,10.66-7.44,11.79,9.84,5.16,20.6,8.36,30.91,12.66a22.84,22.84,0,0,1,8.32,5.3,11.34,11.34,0,0,1,4.41,4.28C165.81,211.44,164,210.6,162.49,210.73Z"/><path class="cls-122" d="M188.75,195.23a1.29,1.29,0,0,0-.84.14c-1.63-1.5-1.78-3.62-2.34-5.57-.11-6.76-2.14-13.54.25-20.26,2-3.31,3.51-6.91,5.38-10.31,1.56-2.85.66-4.83-1.63-6.73s-4.37-1.23-6.34.62c-2.29,2.15-4.63,4.25-6,7.16-1.25,1.39-2.64,2.9-4.63,1.95-1.83-.86-2.06-2.87-2.15-4.72a14.4,14.4,0,0,1,1.22-6.37c2-5,7-8.42,7.18-14.4,0-1.35,1.72-1.8,3-1.85a12.54,12.54,0,0,0,5.25-1.28,25.68,25.68,0,0,1,5.49-2.09c2.57.62,5.84-2.26,7.77,1.54a96,96,0,0,0,.84,28.11c1.23,7.08-.73,13.48-4.37,19.55C194,185.47,191.43,190.39,188.75,195.23Z"/><path class="cls-123" d="M140.3,221l1.87-1.2,2.42.12c2.31,2.78.43,5.24-.68,7.69-1.48,3.23-2.62,6.4-.5,10.69,2.62-4.14.74-9.71,5.58-11.84,2.56.78,2.43,2.32,1.26,4.24-2.64,4.34,0,4.12,3.07,3.52,2.11,1.22,1.53,3.58,2.3,5.4,1.14-.29,1.17-1.79,2.3-2.07l4.32,0c3.51,6,10.52,3.82,15.42,6.58a5.14,5.14,0,0,1,.42.38c-.83,4.37-4.06,5.14-7.76,5.21-2.43-2.15-5.58-.64-8.25-1.6-4.12.21-7.79,2.07-11.55,3.43-4.69,1.69-8.59,1.4-11.65-2.88-3.39-2-4.31-5.42-4.91-9a14,14,0,0,1-.09-5.28,16.1,16.1,0,0,1,3.48-11.67A3.58,3.58,0,0,1,140.3,221Z"/><path class="cls-124" d="M200.36,133.06l-8-.38c1.08-8.89,4.56-16.19,13.68-19.24,3.14-1,4.12-3.25,5-5.94.68-2.15.24-5,3.2-5.86,2.15.85,1.81,4,4.19,4.62a7,7,0,0,1,3.31,6.79c.59,4-.68,7.63-2.76,11-2.18,2.28-3.72,5.05-5.68,7.51a3.72,3.72,0,0,1-4.24-.47c-2.7,0-3.73,1.9-4.56,4C202.59,135.53,202.2,132.84,200.36,133.06Z"/><path class="cls-125" d="M170.22,248.76c2.86-.94,5.81-1.74,7.86-4.21l16.49-11.33c3.8-4.29,7.82-8.3,13.23-10.58a8.11,8.11,0,0,1,2.68.6c4,1.7,4.37,3.61.94,6.28s-6.86,5.5-10.32,8.22a20.67,20.67,0,0,1-6.48,5.9c-6.14,3.4-11.62,7.73-17.05,12.15-2.76,2.25-5.55,5.13-9.75,3a17.42,17.42,0,0,1,1.21-8.83C169,249.13,169.72,249,170.22,248.76Z"/><path class="cls-126" d="M177.66,244.17c-2.77,0-5.54,0-8.31.13-4.84.3-7.41-1.65-7.11-6.71.37-6.16-1.26-12.57,2.42-18.31.87-1.37,1.66-3.37,3.44-2.82,1.59.49.94,2.6.89,4a48.36,48.36,0,0,0,2.06,16.73C172.24,241,176.36,241.05,177.66,244.17Z"/><path class="cls-127" d="M207.91,223.15c-3.73,4.32-8.48,7.27-13.34,10.07,2.43-11.45,11.64-17.13,20-23.53,2.39-.53,4.75-1.43,7.3-.55-.29,2.75-3,2.4-4.25,3.8-2,1.85-3.24,4.28-4.66,6.57C211.83,221.38,210.36,223,207.91,223.15Z"/><path class="cls-128" d="M149,226.47c-1.12,3.48-2.71,6.81-2.35,10.68.12,1.35.91,4.23-1.39,3.84-1.8-.31-4.82-.61-5.23-4a18.1,18.1,0,0,1,2.89-12,9.17,9.17,0,0,0,1.68-5.11c2.76.17,2-5.89,5.36-3.54,2.79,1.94-.53,4.51-.77,6.85C149.08,224.31,149.05,225.4,149,226.47Z"/><path class="cls-126" d="M157.92,237.56c-.72,2.18,1.44,6.26-2.3,6.24s-1.73-4-2.2-6.26a18.18,18.18,0,0,1-.1-3.31c.71-2.78-1.54-7.92,2.63-7.8s1.07,5.12,1.88,7.82A12.14,12.14,0,0,1,157.92,237.56Z"/><path class="cls-129" d="M173.45,150.89c-.86,3.43-2,6.85-.63,10.45,2.23.13,2.37-2.26,3.9-2.7,1.44-2.35,3.49-2.69,5.73-1.46,3.12,1.72,6.08,3.75,6.34,7.79a6.45,6.45,0,0,1-.88,3.72c-2.55,6.84-2.47,14-2.34,21.11.62-10.44-5.63-17.16-12.34-24-3.83-3.89-6.91-8.54-11-12.23-2.71-2.44-4.19-1.71-4.51,1.83-3.17-.87-2.85-3.47-2.46-5.7,1-5.66,4.11-9.53,9.95-10.82C171.66,141.64,174.32,145.51,173.45,150.89Z"/><path class="cls-122" d="M165.61,139.72c-8.75,6.17-10.05,8.77-7.91,15.72.82,8.67,4.58,16.5,7.77,25-3.35,0-4.56-2.19-5.45-3.87-4.06-7.63-8.12-15.3-10.53-23.67a16.72,16.72,0,0,1,.64-10.85c.68-3.34,3.13-5.25,5.71-7.05,3.27-2.06,6.19-4.68,9.83-6.17a5.12,5.12,0,0,1,2.49,0,5.75,5.75,0,0,1,4.06,4.13C172.21,137.35,169.11,138.72,165.61,139.72Z"/><path class="cls-130" d="M156.6,136.29,150.13,142l-10-10.54c-1.51-1.6-3-3.16-5.54-2.8l7.67-7.87c.28-.25.63-.56,1-.49C148,121.36,156.26,131.24,156.6,136.29Z"/><path class="cls-131" d="M162.39,205.2c-15.08-6-30.4-11.41-45.78-18.54,3.62-2.35,6.9-.63,10.19-1.69-.41-1.66-3.37-4.14.8-4.93,2.46-.47,2.05-1.94,1.48-3.72a56.54,56.54,0,0,1-2.49-13,5.21,5.21,0,0,1,3.22-5.69c5.71,3.43,9.27,8.85,11.88,14.59A152.47,152.47,0,0,0,162.39,205.2Z"/><path class="cls-132" d="M213.34,64.14c4.29,3.56,7.71,7.7,8.92,13.32-2.9,1.72-5-.47-7-1.76-18.27-11.57-45.12-3-54.2,17.66-2.45,5.56-2.79,11.44-3,17.34-.09,2.23.28,4.51-2.07,5.89-3.09.28-1.37-2.63-2.46-3.68-.09-1.34-.19-2.68-.29-4,.16-5.36-.29-10.82.61-16.06,2.45-14.32,13.07-21.6,25.06-27.38,9.4-4.53,19.07-4.86,29-1.65C209.52,64.34,211.5,64,213.34,64.14Z"/><path class="cls-133" d="M153.47,112.91l2,3.67c4,3.74,7.75,7.69,10.26,12.64-2.13,3.53-5.89,5-9.13,7.07a62.11,62.11,0,0,0-14.34-15.47c2.58-2.6,5.1-5.31,9.09-5.66C152.7,115.05,153.11,114,153.47,112.91Z"/><path class="cls-134" d="M233.54,117.46c.32-10.35,3.23-20.48,2.56-30.9,1.47,3,.12,6.23,1.3,10.51.33-7.07,2.46-6,6.4-3.38,14.39,9.67,29.08,18.91,43.69,28.25a34.09,34.09,0,0,0,5,2.2c-.23,5.47-2.39,10.35-4.7,15.19-4.72,9.91-16.06,11-22.91,2.11-1.23-1.6-2.74-3.19-3.3-5.07-1.14-3.83-4.25-4.65-7.29-4.78-8.26-.34-13.73-5-18.36-11.09A27.76,27.76,0,0,0,233.54,117.46Z"/><path class="cls-135" d="M233.54,117.46c1.26.15,3.18-.38,3.58.85,1.38,4.25,5.68,5.34,8,7.91,3.71,4.11,7.6,2.91,11.43,3.6,5.63,1,7.18,5.82,9.14,9.77,3,6.12,9.21,4.9,13.88,6.26,3.51,1,5.08-4,6.62-7.09,2.36-4.76,3-10.25,6.27-14.62,1.43,1.2,1,2.87,1.11,4.41a6,6,0,0,1,1.29,6.23c-5.58,7.72-10.84,15.67-15.64,23.91-4.25,7.3-12,5.14-19.35.7a12.65,12.65,0,0,1-5.63-7.92c-.83-4.75,2.62-8.2,3.93-12.87-2.64,1.38-4.36,3.44-6.61,4.69-6.94,3.08-9.74,1.7-10.25-5.38-.24-3.28-1.3-4.1-4.51-3.16s-5.91.25-5.67-4.07c0-2.17,0-4.35,0-6.52Z"/><path class="cls-136" d="M313.41,110.85c1.31,6.36,2.5,12.73.3,19.14-4.38.12-5.92,3.73-8,6.61-1.28,1.77-1.81,4-3.15,5.75s-2.73,3.73-5.24,1.43c-.59-3.95.05-7.54,3-10.5,2.18-2.67,0-6.4,2.19-9.06,3.64-3.39,7.89-6.31,9-11.65A2.25,2.25,0,0,1,313.41,110.85Z"/><path class="cls-134" d="M300.29,133.28c.49,3.91-1.64,7.24-2.38,10.88,0,4.55-1.78,7.68-6.74,8.15-2.24-1.44-1.56-3.52-1.22-5.54,1.48-3.71,1.19-8,3.54-11.41q0-3.41.08-6.81C296.8,128.72,300.88,127.69,300.29,133.28Z"/><path class="cls-137" d="M165.73,129.22c-4.25-3.54-8.76-6.86-10.26-12.64,1.62-4.73.72-9.71,1-14.52.66-10.76,12.82-28.64,28.08-31.34,3.06-.54,5.79-2,9-2.3,10.95-1,19.91,3.56,28.68,9q.63,3.18,1.25,6.38c.71,1,.06,1.57-.76,2-4.2.7-6.72-2.57-9.84-4.31-18.19-10.13-40.76-3.37-47.43,18.12-2.58,8.29-1.69,16.79,1.44,25,.64,1.67,2,3.23.89,5.19Z"/><path class="cls-138" d="M217.69,124c-.06-3.83,3.47-6.82,2.51-10.86a1.6,1.6,0,0,1,1.94-.57c.38,2.36,1.68-.46,2.33.41.05,1.49.09,3,.14,4.47a213.63,213.63,0,0,0-11.23,28.07c-.47,1.45-.83,3.25-2.48,3.22-2.43-.06-1.85-2.34-1.88-3.83-.07-4.6,0-9.21.06-13.81l4.25-.42A30.48,30.48,0,0,0,217.69,124Z"/><path class="cls-139" d="M224.47,113c-.86.76-1.81,2.4-2.32-.24-3.19-6.69-1.53-13.73-1.51-20.66-.4-2.57-.42-5,1.91-6.83l1-1.42c6.1,6.64,3.32,14.49,2.45,21.83C225.68,108,224.79,110.5,224.47,113Z"/><path class="cls-140" d="M103.24,178.73a6.63,6.63,0,0,1-.33,2.58c-1.42,2.32-2.5,5.13-5.37,6-2,.58-2.06-1.3,0-3.61.86-1,1.79-1.85,2.65-2.8.72-.8,1.38-1.64,2.07-2.46Z"/><path class="cls-141" d="M89.07,156.68a3.15,3.15,0,0,1-.2,1c-.92,1.61-1.41,4.56-3.54,3.91s-.73-3.38-.77-5.22c1.14-.81,1.43-2.85,3-2.75S88.7,155.59,89.07,156.68Z"/><path class="cls-142" d="M330.33,114q-.09,6-.17,12.1c.37,7.35-.88,14.29-5.08,20.49-9.4,14.94-22.24,26.46-36.45,36.63a12.41,12.41,0,0,1-6.12,2.54,16.64,16.64,0,0,1-3.31,0c-4.27-.57-5.18-2.35-2.7-5.88,3.28-4.66,7.13-9,9.94-13.94,5.65-10,15.35-16.81,20.83-26.91.61-1.12,1.55-2.24,3-2,3,.46.39,3.82,2.43,4.82,4.48-5,5.69-11.55,7.77-17.66C323.53,120.58,325.16,115.6,330.33,114Z"/><path class="cls-143" d="M312.74,141.88c-1.81-.53-1.14-2.58-2.13-3.53-11.42,14.82-23.48,29.15-34.05,45,1.54,1.75,3.88.54,5.89.88-2.46,3.49-5.33,3.81-10.89,1.25-3.24-3.63-1.05-7.11.89-10,5.56-8.38,11.21-16.74,18.86-23.47,3.42-1.56,4.37-5.22,6.6-7.8,2.58-.43,3.69-2.55,4.25-4.58,1.34-4.86,4.86-8.05,8.12-11.43,2.81-2.9,3.11-.32,3.43,1.84C313.89,134,311.56,137.8,312.74,141.88Z"/><path class="cls-144" d="M333.46,141.64c3.2,1,4.5,5.55,8.71,4.75,2.32,3.13-.35,5.79-.81,8.67a32.28,32.28,0,0,1-4.86,5.58c-1.53,1.08-2.86,2.58-4.95,2.59-2.43-.14-3.7-1.57-3.58-3.86.13-2.53-.9-4.54-2.12-6.57a6.07,6.07,0,0,1,0-4.14C328.29,146.21,328.67,141.53,333.46,141.64Z"/><path class="cls-145" d="M333.46,141.64c-3,1.82-3.36,5.84-6.38,7.66a4.46,4.46,0,0,1-3.77-3c3.87-6.19,4.35-13.53,6.85-20.19,2.67,5.24,2.82-1,4.47-1,1.94,1.63.74,4,1.25,6C336.81,135.07,332.72,137.79,333.46,141.64Z"/><path class="cls-146" d="M340,155.13a18.14,18.14,0,0,1,2.16-8.74c1-2.07,1.93-4.12,4.52-4.58l1.47,19c1.65,2.42,2.61,5.24,4.44,7.58,1.09,1.41,1.44,3.23,0,4.49s-2.9.09-3.84-1C344.45,167,340.68,161.88,340,155.13Z"/><path class="cls-147" d="M364.65,278.8c-2.94-1.78-2.46-5.65-4.88-7.85-1.86-1.69-2.87-4.14-5.67-5-2.13-.64-2.85-2.74-2.69-5a6.08,6.08,0,0,1,1.71-.85c1.06-.76,1.66-2,2.62-2.81q1.9-8.65,3.79-17.31c1.12,2.59.75,5.83,4,7.46,1.58.79,1.17,3,1.16,4.63Q364.7,265.46,364.65,278.8Z"/><path class="cls-148" d="M340,155.13c4.28,5.39,5.89,12.59,12.26,17.73-.78-4.81-4.06-8-4.11-12.05L359.23,172l-6.67,14.46a1.7,1.7,0,0,1-1.58.16,65.4,65.4,0,0,1-16.71-14.71c0-4.22-1.37-8.6,1.5-12.46A5.37,5.37,0,0,1,340,155.13Z"/><path class="cls-149" d="M335.92,173c6.75,3,10.86,9.26,16.64,13.46-.77,2.21-1.53,4.42-2.3,6.62a5.92,5.92,0,0,1-1.51,4.46c-4.76,4-6.53,4.08-10.72-.24-4.43-4.57-7.49-10.06-10.56-16.72,3,5.71,3.54,11.07,4.71,16.26.4,1.78.89,3.68-.86,5.15-4-3.22-5.7-9.05-12-9.67-1.82-.18-2.19-2.12-.66-3.87,2.22-2.54.44-3.12-1.82-3.11-3,0-5.69-.27-5.52-4.29-.09-1.16.07-2.48,1-3,6-3.64,9.84-10,16.51-12.73,3.41-.48,5,1.26,5.27,4.46C334.25,171.11,333.76,172.82,335.92,173Z"/><path class="cls-150" d="M348.05,196.45c.74-1.11,1.48-2.22,2.21-3.34,3.53,5.09,5.78,11,10,15.63a233.54,233.54,0,0,1-4.39,28.93c-2.51-5.23-5.46-10.36-6.16-16.19-.78-6.59-1.43-13.19-2.65-19.72A6.92,6.92,0,0,1,348.05,196.45Z"/><path class="cls-151" d="M348.05,196.45c1.44,7.39,3.17,14.71,3.49,22.31.16,3.72.43,7.67,3.24,10.86,2,2.28.58,5.37,1.11,8,.55,6.56-2.64,13.09-.15,19.67,0,1.9.34,4-2.14,4.75-2.65-6.67-4.68-13.53-4.2-20.78.41-6.21-1.69-11.35-4.84-16.58-4.35-7.22-10.18-13.55-13.11-21.62,0-.36-.08-.72-.13-1.09-1.61-8.64-3.5-17.22-5.4-26,3,4.79,6.08,9.53,9,14.38a45.32,45.32,0,0,0,3.9,5.34C341.72,199.32,344.6,200.59,348.05,196.45Z"/><path class="cls-152" d="M177.73,277.64c-6.71,0-8-1.19-8.71-7.81,8.41-7.23,18.21-12.64,26.53-20,1.25-1.11,2.82-1.88,2.84-3.8.06-4.79,3.4-7.17,6.93-9.3a97.54,97.54,0,0,1,24.51-10.95c3.54,1.18,2.88,3.59,1.78,6.11-1.44,3.29-3.53,6.35-3.36,10.18-2.14,4.8-6.11,7.19-11,8.38-3,.54-5.83,1.51-8.76,2.18a4.92,4.92,0,0,0-5.53,3.09c-.91,1.93-2.82,3.18-4.07,4.92-6,5.29-11.49,11.12-18.71,14.81C178.7,275.42,178.17,276.48,177.73,277.64Z"/><path class="cls-153" d="M180.19,275.42c4.95-6.22,11.5-10.66,17.56-15.64,4.07-1.23,3.78,1.91,3.82,4.13.06,3.13-.37,6.26-.54,9.4-.27,5,2.69,5.69,6.62,6,4.48.32,4-2.75,4.17-5.48a8.44,8.44,0,0,1,.46-2.72,3,3,0,0,1,1.2-1.21c2.52,1.06,2.21,4,3.94,5.74,2.08,2,4.15,3.56,7.19,3.19-4.86,5.81-10.87,8-18.5,6.9-5.77-.81-11.77.2-17.39-2.07C184.78,282.05,180.6,280.68,180.19,275.42Z"/><path class="cls-154" d="M140.3,221l-1.78,2.1c-6.77,1.44-13.71,2-19.92,5.82-3.62,2.23-5.61-2.41-8.5-3.62-2.12-2.21-2.07-4.79-1.28-7.49l2.48-4.74c7.46,3.55,16,2.4,23.62,5.41C136.78,219.23,138.91,219.28,140.3,221Z"/><path class="cls-155" d="M135.81,239.75l3.06,9c0,1.47.11,2.94.17,4.41-5.56.13-10.25,2-13.49,6.75-1.46-1.57-1.81-4-.43-5,6.85-5,3-9.31-.56-13.73C127,236.89,130.13,236.5,135.81,239.75Z"/><path class="cls-156" d="M135.81,239.75c-3.68,1-7.78-1.32-11.25,1.4-3,1.37-3.39,4.37-4.41,6.95-.5,1.25-.36,3.1-2.55,1.72-2.54-6.41.19-15.59,5.22-17.53,4.31-.07,8.79-1.35,12.64,1.78C135.58,236,135.69,237.86,135.81,239.75Z"/><path class="cls-157" d="M108.82,217.82l2.2,6.52a19,19,0,0,1,5.43,8.61,3.59,3.59,0,0,1-.35,2.3,2.84,2.84,0,0,1-1.22.87c-2,.21-2.41,1.84-3.16,3.26-.82,1.57-1.6,3.34-4,2.8l-.08-.08c-1.78-2.68-1.53-5.38.14-8.28.35-.27-.92-.55-.33-.1.1.07,0,.2-.27.45-.74.76-1.4,1.67-2.67,1.11C102.34,228.57,104.7,223,108.82,217.82Z"/><path class="cls-158" d="M107.77,242.18c2.66-1.3,2.52-4.23,3.62-6.41s1.92-1.61,3.12-.39c1.63,1.87,1,3.93.74,5.63.69-1.57.14-3.65.41-5.64l-.24-2c2.53-1.9,5-3.15,6.78.83-.88.14-2.56.17-2.34.9,1.57,5.32-3.62,9.51-2.26,14.71C113.19,248.73,109.39,246.86,107.77,242.18Z"/><path class="cls-159" d="M104.56,235.28l4.38-7.37c3.08,5.26-2.64,9.46-1.25,14.19C105.08,240.54,104.23,238.18,104.56,235.28Z"/><path class="cls-160" d="M170.22,248.76,169,249.92c-4.24.34-6.4,3.54-8.78,6.42-.48-3,.45-5.63,1.82-8.18C165,245.16,167.68,246.19,170.22,248.76Z"/><path class="cls-161" d="M229,226.5c-1.47,2.34-2.66,4.87-6.4,3.55-1.09-.39-2.82.59-4.1,1.25-4.23,2.22-8.47,4.45-12.56,6.94-3.15,1.91-6.06,3.94-6.06,8.5,0,3.92-4.34,4.7-6.6,7-6.25,6.36-14.56,10.06-21.24,15.9a2.46,2.46,0,0,1-3.06.21c-.05-1.07-.09-2.13-.14-3.19,3-5.84,9.27-8.19,13.71-12.5a20.51,20.51,0,0,1,5-3.47,26.33,26.33,0,0,0,12.52-13.4c7.59-3.71,13.76-9.74,21.57-13.1,2.76-1.18,5.08-3.9,8.59-2.35C231.29,223.76,230.31,225.17,229,226.5Z"/><path class="cls-162" d="M200.13,237.69c-.37,7.34-5.27,10.76-11.09,14.18-7.16,4.21-12.93,10.53-20.16,14.78-1.69-2.46-1-5.22-1.06-7.9,5.35-.6,8.87-4.43,12.44-7.69,6.13-5.59,14.48-8.09,19.81-14.68a.85.85,0,0,1,.33.86Q200.27,237.69,200.13,237.69Z"/><path class="cls-163" d="M262.35,367.32c1.94-7.1,6.11-13.1,9.6-19.44.61-1.11,1.63-2,1.34-3.46l1.26-3c3.3-2,6.8-.77,10.23-.65,3.75,2.92,5.2,8.8,3.16,12.56a3.59,3.59,0,0,1-4.09,2.06c-5.67-1.23-6.44,3.64-8.53,6.76-2.35,3.51,1.79,4.53,2.85,6.74-4.34,4.47-7.27,10.35-13.16,13.29-1.52.54-3.23,1.51-4.59.17-1.56-1.56-.5-3.49.2-5.1C262,374.08,263.4,370.93,262.35,367.32Z"/><path class="cls-164" d="M278.17,368.92c-7.05-.89-8-2.82-4.16-8.69,1.2-1.85,2.21-3.83,3.46-5.64,1.08-1.57,2.59-3.11,4.59-1.79,4.6,3,4.89.21,4.8-3.31-.07-2.36.43-4.83-1.1-7,1.74-2.17,3.54-2.1,5.38-.14,1.74,3.4,3.49,6.79,5.21,10.2,3.82,7.58.35,13.91-8.13,13.93C284.5,366.51,281.73,369.12,278.17,368.92Z"/><path class="cls-165" d="M320.2,351.11c-6.5.37-10.43-5.35-16.17-6.87-1.45-.39-2.61-1.25-3.85.18-2.2-1.13-4-3.08-6.56-3.49a8.48,8.48,0,0,1-2.77-1.13c-7.6-6.41-15.59-12.36-22.4-19.67a9.41,9.41,0,0,1-2.6-3.66l-3.44-4.42c.55-.6,1.3-.92,1.94-.43,13.72,10.46,29.14,18.34,43,28.57C312,343.56,316.9,346.31,320.2,351.11Z"/><path class="cls-166" d="M265.85,316.47l3.18,2.28a18.72,18.72,0,0,1,1.75,8.05c-.08,4.57,2.44,7,6.36,8.73,4.83,2.08,10,2.5,15.07,3.38l1.41,2-2.48,1.45-5.38.14-11.21-1.07c-.05-.18,0-.46-.14-.52C264.5,335.24,265.17,325.85,265.85,316.47Z"/><path class="cls-167" d="M262.35,367.32c1.13,4.5,2.36-1.14,4,.56a103.73,103.73,0,0,1-4.28,10.32c-2.08,3.89-.31,4.32,2.92,4-2.75,1.77-5.35,3.86-8.3,5.19-2.08.93-5,1.32-6.25-1.44-1.08-2.47,1.48-3.48,3.12-4.29,3.56-1.75,4.74-4.78,5.23-8.35C260.2,371.44,260.4,368.87,262.35,367.32Z"/><path class="cls-168" d="M295.78,394.46a54.23,54.23,0,0,1-15.61,2.15C285,392.79,290.25,392.85,295.78,394.46Z"/><path class="cls-168" d="M303.57,393.36c-2,1.71-4.44.91-6.71,1.08C298.21,388.53,301.54,395,303.57,393.36Z"/><path class="cls-169" d="M248.93,258.9l-9.88-4.63-8-5.7c-3.2-3-.77-7.13-2.1-10.5.52-1.93.84-4,2.75-5.16,3,1,2.9,5.67,6.74,5.67,1.63.85,3.66,1,4.81,2.69,1.12,4.17,4.42,7.15,6.1,11C250.28,254.41,252.38,256.91,248.93,258.9Z"/><path class="cls-170" d="M213.48,269.88a1,1,0,0,0-.17.93c-.7.79.05,2.41-1.55,2.68-4.47-6.28-8-12.83-6.32-21a10.49,10.49,0,0,1,2.16-1.36c3.07-.79,5.81-2.86,9.21-2.36,1.8,1,3.18,2.17,2.37,4.52C214.38,257.84,212.73,263.45,213.48,269.88Z"/><path class="cls-171" d="M219.18,253.32l-2.37-4.52a16.72,16.72,0,0,0,10-6.87c1.47-1.16,0-4.57,3.34-4.31,1.92,3.52.83,7.29.94,10.95C228,252.54,222.81,250.91,219.18,253.32Z"/><path class="cls-172" d="M331.45,203.11c7.05,6.74,11.12,15.57,16.59,23.42A19.38,19.38,0,0,1,351.42,239c-.36,7.75.75,15.43,2.18,23l-2.19-1.1c-.76-7.41-4.73-13.5-8.93-19.14-5.75-7.75-9.4-16.76-15.47-24.28-2.13-2.65-1.56-5.75,1.31-7.8A7.12,7.12,0,0,0,331.45,203.11Z"/><path class="cls-173" d="M329.19,166.41l-17.85,14.67c-5.34,1.24-10.41,3.82-16.12,3.29a1.7,1.7,0,0,1-1-1.17c0-.77.23-1.63.95-1.87,12.94-4.24,19-15.58,26.38-25.54,1.24-1.66,2.25-4.09,5.17-2.84,2.46,1.14,5.11,2,2.87,5.73-1,1.66,0,3.06,2,3.44C332.92,164.74,330.29,165.15,329.19,166.41Z"/><path class="cls-174" d="M300.54,209.81q-.07,5.49-.13,11a1.49,1.49,0,0,1,0,1.62c-1.43,4.93-.31,10.33-2.93,15.07-1.41,2.55-2,5.62-5.12,6.91-.7-1.5-1.39-3-2.09-4.48-4.47-3.15-3.39-7.5-2.55-11.8.32-1.06,1.54-1.93,1.44-2.93-.75-7.66,4.68-13.85,4.87-21.32.1-3.75,2.15-7,5.05-9.5,2,1.44.42,3.72,1.25,5.43Z"/><path class="cls-175" d="M299.08,194.37c-3.66,6.69-1.85,15.06-6.55,21.42-1.59,2.15-1,4.57-1.24,6.92-.15,1.89.64,4.28-2.3,4.86a3.78,3.78,0,0,1-1.46-2.71,193.15,193.15,0,0,1-.24-33.15,21.37,21.37,0,0,1,2.12-7.78c1.59-1.56,3.23-2.58,5.15-.49l.66.92Z"/><path class="cls-176" d="M248.93,258.9c1.36-4.32-1.83-7-3.73-10.12-1.33-2.17-2.7-4.19-2.82-6.81,3-2.4,5.49-1.21,7.89,1,.65,5,3.47,9.05,5.76,13.34,1.21,2.25,2.61,4.47.75,7C253.83,262.43,251.47,260.5,248.93,258.9Z"/><path class="cls-177" d="M256.78,263.32c-.77-5.48-4.34-9.62-6.84-14.26-1-1.87-2.38-3.56.48-4.95,2.47-1.36,4.26-.42,5.71,1.68,0,6,4.5,10.16,6.39,15.4.67,1.88,2.76,3.84-.26,5.56C260.08,266.18,258.5,264.64,256.78,263.32Z"/><path class="cls-178" d="M262.26,266.75c-.71-6-4.55-10.65-6.62-16.05-.49-1.28-3.09-3,.17-4.23,1.12-.75,1.87-.52,2.21.83.05,3.89,2.44,6.72,4.32,9.83,2.81,4.65,6.54,8.93,6.8,14.77C266.37,270.82,264.5,268.54,262.26,266.75Z"/><path class="cls-47" d="M258,247.3c-.52-.87-1.39-.79-2.21-.83l-5.39-2.36a15.46,15.46,0,0,0-8-2.14l-4.2-2a4.12,4.12,0,0,1,1.25-3.38c1.5-1.64,3.13-3.16,4.58-4.85,5.43-5.28,11.07-10.4,13.25-18.09a5.45,5.45,0,0,1,2.72-3.39,5.09,5.09,0,0,1,4,.21,12.7,12.7,0,0,1,3.58,1.95c5,3.47,10.91,5.11,16.08,8.22,2,1.18,4.59,1.73,4.72,4.75.2.72.41,1.44.62,2.16a35,35,0,0,0,1.28,12.35c-1.44,3.15-3.06.51-4.26-.07-5.29-2.56-10.59-4.93-17.29-6.09,4.09,5.89,8.79,10.06,13,14.67,5.34,5.9,5.11,6.5-2.53,8.18a30.75,30.75,0,0,0-3.64,1.26c-4.42-2-7.28-6-11.38-8.41A13.81,13.81,0,0,0,258,247.3Z"/><path class="cls-179" d="M300.05,222.09l.36-1.29c.5,1.74,1.4,3.47,1.44,5.23.21,9.27,3,17.81,6.77,26.16a5.57,5.57,0,0,1-.12,5.3,3.43,3.43,0,0,0-4.54-.41c-5.34,3.61-6.84-.12-8.3-4.12-.25-.68-.46-1.38-.69-2.07,2.87-7.21,3.63-14.8,4.13-22.44C299.24,226.31,298.54,224,300.05,222.09Z"/><path class="cls-180" d="M300.05,222.09c-.52,7.9,1.78,15.92-1.58,23.77-.9,2.11,2.14,6.27-3.5,5-2-1.72-1.8-4.3-2.61-6.49,2.48-6.71,6.5-13,5.84-20.59C298.11,222.82,299.12,222.33,300.05,222.09Z"/><path class="cls-181" d="M271.29,184.23c3.72.82,7.44,2.32,11.16,0l5.4-2.23a2.48,2.48,0,0,1,1.77,2.92c-.49,3.84-3.87,3.13-6.26,4.12a19,19,0,0,1-11.26,1.44,27.23,27.23,0,0,1-3.37-.31c-2.85-.58-4.63-3.42-7.65-3.64a5.44,5.44,0,0,1-2.63.09c-1.75-.29-2.7-.83-1.66-2.93a49.06,49.06,0,0,0,3.2-8.15c.41-1.44.73-3.53-1.39-4.25-1.9-.65-2.28.95-3.07,2.28-3.64,6.1-11.61,6.83-16,1.67-1.11-1.3-1.76-2.6-.32-3.82,3-2.51,3.43-6.38,5.44-9.39.77-2.28,2.1-3.52,4.64-2.5,3,6.38,3,6.38,10.31,5.51,6-.73,8.33,3,6.26,10.28-1.79,2.35-1.43,4.27,1.18,5.7A15.29,15.29,0,0,1,271.29,184.23Z"/><path class="cls-182" d="M258.45,186.6l1.68-1c2.36,2.26,1.05,4.71.29,7.07s-1.34,4.51-2,6.78c-2.59,11.31-10.2,19.18-18.29,26.73-1.41,1.36-2.71,2.89-4.92,2.89-3.54-4.27.67-6.95,2.07-10.21,1.33-1.68,1-4,2.31-5.72Q249.05,199.9,258.45,186.6Z"/><path class="cls-183" d="M239.63,213.17c.47,2.19,1.33,4.41-.69,6.32-3.27-.33-5.18,4-8.79,2.56a161.24,161.24,0,0,0-22.51,12.79c-2.24,1.58-4.51,3.2-7.51,2.84l-.06-1.29c3.17-2.58,6.26-5.27,9.56-7.67,1-.73,2.86-1,2.82-2.3-.08-2.2-2.22-1.1-3.44-1.56-.51-.2-.74-1.12-1.1-1.71,3.3-3.34,5.67-7.58,9.72-10.21-.29,3-5.12,5.33-2.37,8.25,2.35,2.5,5.92-.19,8.88-.85C229.79,219.07,234.6,215.84,239.63,213.17Z"/><path class="cls-184" d="M249,159.74,244.64,162l-4.58-2.3c-1.53-4,1.63-6.48,3.13-9.5,2.14-3.28,6.2-4.68,8.05-8.25,2-3.27,6.68-4,7.39-9.5,2.17,3.86,1.75,6.53.59,9.26-1.27,3-3.56,5.56-3.59,9C253.52,153.82,253.38,158.34,249,159.74Z"/><path class="cls-185" d="M251.24,142c1,5.38-4.63,5.79-6.67,8.89-5.24-.2-6.41-2.51-4.58-9.06,0-1.95.66-4-.59-6.19-2.32,1.82-5.58,1.71-6.56,5.3-.39,1.41-3.23,1.45-3.39-.19-.33-3.36-2.29-7.3,1.68-10,1.43,3.2,3.84,3.5,6.82,2.39,3.29-1.24,4.5-.2,4.52,3.45C242.53,143.7,244.2,144.59,251.24,142Z"/><path class="cls-186" d="M219.58,218.66c7.7-9,16.06-17.37,26.16-23.8C239.57,205.52,232.59,215.31,219.58,218.66Z"/><path class="cls-187" d="M240,141.79c.17,3.7.22,7.47,4.58,9.06q-2.25,4.43-4.51,8.86c-1.77-.08-4.12.51-4.26-2.22C235.5,151.84,237.43,146.71,240,141.79Z"/><path d="M222.55,85.26c-.14,2.32-.29,4.63-.43,6.95-1,1-2.27,1.54-3.16,2.62-2.46,1.81-1.55,5.75-4.54,7.22-1.63,1.65-.78,3.85-1.29,5.74-1,3.9-1.79,7.26-7.43,7.72s-8.29,5.79-9.66,10.74a15.23,15.23,0,0,1-3.63,6.43l-4.54,2.7c-3.55,1.14-7.27.11-10.91,1.07-2.59.68-4.35-1.49-5.66-3.63l-3.49-3c-12-18.73-5.05-44.12,14.5-52.23,12.23-5.08,24.21-3.46,35.13,4.42C219.07,83.19,220.84,84.18,222.55,85.26Z"/><path class="cls-188" d="M187.91,168.69c-.66-7.52-5.23-11.63-11.19-10.05,1.19-4.17,4.77-6.38,7.7-9,2.52-2.26,4.9-.52,6.53,1.62s5.63,2.89,2.83,7C191.51,161.49,189.84,165.18,187.91,168.69Z"/><path class="cls-189" d="M171.3,132.82c5.19,3,10.91,2.58,16.57,2.56a4.75,4.75,0,0,1-4.08,1.1c-2.71-.21-3.73-.13-3.58,3.64.17,4.29-4.77,6.93-6.76,10.77-.22-5.4-5.61-7.18-7.83-11.17C166.62,136.69,171.17,136.57,171.3,132.82Z"/><path class="cls-190" d="M122.2,234.22c-2-2.11-4.61.16-6.78-.83-2.75-2.39-2.3-6.34-4.4-9,1.26.72,2.88,1.16,3.7,2.22,1.83,2.38,2.92,1.17,4.84,0,5.8-3.54,12-6.09,19-3.44-1.59,3.5-3.47,6.91-3.07,11Z"/><path class="cls-191" d="M217.93,93c1.06-2,2.77-.66,4.19-.8l0,20.54-2,.4c.21-2.69-.63-4.76-3.38-5.69-2.31-3.81-.54-7.42.68-11C217.91,95.29,218.92,94.33,217.93,93Z"/><path class="cls-192" d="M217.93,93c1.75.06,4.58-.35,2.14,2.62-2.92,3.57-2.66,7.76-3.25,11.83-4-.39-1.92-3.47-2.4-5.41C215.07,98.83,215.52,95.54,217.93,93Z"/><path class="cls-193" d="M217.69,124c.34,3.4-.81,5.83-4.36,6.68A6.78,6.78,0,0,1,217.69,124Z"/><path class="cls-194" d="M249,159.74c2.14-3.05,2.45-7.44,6.62-9,2.56,7.52,9.13,9.55,15.79,11.06,3.4.78,5.12-2.14,6.73-4.68,3.73-5.84,6.48-12.29,11-17.64,1.31-1.54,2.47-3.18,4.32-4.14-.08,4.17.72,8.51-2.19,12.17-5.58,8.69-12.11,16.68-18.15,25a10.71,10.71,0,0,1-4.48,4c-1.59.64-3.52,1.69-4.1-1.26a32.75,32.75,0,0,0,.69-3.79c.26-4.16-2.45-6.13-6.32-4.65C251,169.91,248.53,168.13,249,159.74Z"/><path class="cls-195" d="M264.57,175.32c3.42,1.57,4.9-1,6.58-3.1,6-7.41,10.57-16,17.57-22.64.79-.75,1.72-1.37,2.58-2.05-.06,1.48-1,3,0,4.43-.25,6-6.26,8-8.85,12.56-3.77,6.54-10.25,11.53-11.17,19.71-3.34.45-6.05-1.46-8.14-3.33C261.65,179.56,261.34,176.5,264.57,175.32Z"/><path class="cls-196" d="M289.12,184.42,287.86,182c9.74-7.79,19.5-15.56,27.61-25.12,2.83-3.33,5.24-7,7.84-10.53,2,.06,3.57.63,3.77,3q-.19,1.85-.39,3.66c-4.2,3.48-6.19,8.62-9.58,12.69-6.26,7.5-12.19,15.46-22.54,17.8-1.81-.82-3.14.14-4.44,1.21A.68.68,0,0,1,289.12,184.42Z"/><path class="cls-197" d="M329.19,166.41c-.06-1.91,2.6-2.3,2.39-4.29,2,0,2.18-2.74,4.19-2.64l.15,13.55c-.41,1.25.57,3-1.93,4.14a57.15,57.15,0,0,1-1.47-7.37C332.36,167.47,331.38,166.48,329.19,166.41Z"/><path class="cls-198" d="M212.34,273.21l1-2.4a18,18,0,0,1,.24,2.73c-.16,2.85.7,6.53-2.66,7.76s-6.8-.23-10.14-.91c-1.62-.33-1.73-2.23-1.72-3.72,0-3.83-.43-7.68.54-11.5.53-2.07,1.37-4.47-1.82-5.39,3.49-2.64,3.39-9.38,9.85-8.63l-1,.92c-2,1.36-2.23,3-1.42,5.29,2,5.56,4.13,11.05,5.91,16.69,0,.17,0,.93.41.51S211.91,273.59,212.34,273.21Z"/><path class="cls-199" d="M230.15,222.05c2.9-.94,4.74-5.57,8.79-2.56-1,3.1-4.75,5.13-3.51,9.09.76.58.5,1.25.19,1.94-1,1-1.73,2.37-3.28,2.75q-1.11,2.17-2.23,4.35l-3.34,4.31c-.75-4.14,1.49-7.42,3.26-10.77,1.09-2,2.05-3.67-1-4.66A7.9,7.9,0,0,1,230.15,222.05Z"/><path class="cls-200" d="M115.66,235.37c2.45,3.2.2,6.31-.21,9.45-.13,1-.49,2.4-2,1.84a1.93,1.93,0,0,1-.84-2.82,15.92,15.92,0,0,0,1.9-8.46Z"/><path class="cls-201" d="M292.21,338.91c-14.55,4.73-25.4-4.7-23.18-20.16Z"/><path class="cls-202" d="M232.34,233.27a3.2,3.2,0,0,1,2.48-3.23c2.91,1.79,4.43,4.57,5.49,7.69L238.18,240C233.78,239.88,232.08,237.43,232.34,233.27Z"/><path class="cls-203" d="M212.34,273.21a6.67,6.67,0,0,1-.76,4.76c-2.7-7.24-5.35-14.09-7.77-21-.83-2.37-.26-4.47,2.79-4.88-1.77,2.52-.51,5.05.29,7.37C208.51,264.1,210.5,268.63,212.34,273.21Z"/><path class="cls-204" d="M288.37,225.41a105.37,105.37,0,0,0-17.7-9c-1.54-.61-3.87-.47-4.1-3,1.68-5.46,3.34-10.94,5.31-16.3,2.38-6.46,10.63-9.53,16.92-6.54C289,202.21,289.15,213.81,288.37,225.41Z"/><path class="cls-205" d="M288.8,190.6c-2.8.86-5.7-.14-8.63.88-7,2.41-7.27,8.7-8.84,14.21-.88,3.11-.87,6.57-4.76,7.75l-3.06-1.69c0-8.56,2.92-16.12,7.76-23.05,5.59.54,10.8-1.45,16.16-2.41a2,2,0,0,0,1.69-1.87,1.33,1.33,0,0,1,1,.23C290.59,186.83,289.67,188.71,288.8,190.6Z"/><path class="cls-206" d="M239.06,225.44c7.31-7.65,14.8-15.18,17.91-25.75,1.75-1.13,3.41-1.19,4.91.45.94,3.86-.44,7.3-1.95,10.71-2.13,9.44-7.66,16.61-15.08,22.5C239.5,233.22,239.53,229.15,239.06,225.44Z"/><path class="cls-207" d="M259.93,210.85c-2.48-3.89,1.5-7,1.22-10.68.07-5.16,1.27-9.66,6.69-11.78l3.43.31c-1.77,8-4.83,15.48-7.76,23.05Z"/><path class="cls-208" d="M239.06,225.44c3.54,1.46,1.72,6.84,5.79,7.91a12.79,12.79,0,0,1-4.54,4.38c-3.67-1.26-4.47-4.55-5.49-7.69.2-.49.41-1,.61-1.46Z"/><path class="cls-209" d="M267.84,188.39c-3.19,3.38-4.13,8-6.69,11.78l-4.18-.48c-.55-5.05,3.38-9.09,3.16-14.06.3-1.78,1-2.77,2.77-1.29Z"/><image class="cls-210" width="200" height="200" transform="matrix(0.06, -0.06, 0.05, 0.05, 173.43, 148.07)" xlink:href="../Logo200-200.png"/></g></g></svg>