<svg xmlns="http://www.w3.org/2000/svg" viewBox="0 0 586.61 281.56"><defs><style>.cls-1,.cls-21{fill:#b6def6;}.cls-12,.cls-2{fill:#e1edf8;}.cls-3{fill:#e19e78;}.cls-4{fill:#c28765;}.cls-5{fill:#eead8d;}.cls-6{fill:#a67556;}.cls-7{fill:#835c42;}.cls-8{fill:#bb8261;}.cls-9{fill:#d49571;}.cls-10{fill:#da9070;}.cls-11{fill:#d18a6b;}.cls-12,.cls-14{opacity:0.7;}.cls-13,.cls-14{fill:#75d0f6;}.cls-15{fill:#eff4fb;}.cls-16{fill:#9c6d50;}.cls-17{fill:#77523a;}.cls-18{fill:#694732;}.cls-19{fill:#f3c2ae;}.cls-20{fill:#288db0;}.cls-21{opacity:0.8;}.cls-22{opacity:0.9;}.cls-23{fill:#9f6e52;}.cls-24{fill:#b8ced3;}.cls-25{fill:#395962;}.cls-26{fill:#bce4ec;}.cls-27{fill:#9cbec5;}.cls-28{fill:#8cb5bf;}.cls-29{fill:#daf0f5;}.cls-30{fill:#27424b;}.cls-31{fill:#a0b4b9;}.cls-32{fill:#d5eaef;}.cls-33{fill:#4b6f7b;}.cls-34{fill:#0f2930;}.cls-35{fill:#be1e2d;}.cls-36{fill:#a01623;}.cls-37{fill:#91111d;}.cls-38{fill:#840b17;}.cls-39{fill:#e74256;}</style></defs><g id="Calque_2" data-name="Calque 2"><g id="Calque_1-2" data-name="Calque 1"><path class="cls-1" d="M101.55,230.88c1.63-.12,3.6,1.56,6.71.61s7,.38,7,.38,6-.56,4.7,1.44-7,3.43-3,4.22,8.7-2.11,8.79-.74-1.67,4.39,1.25,2.88,3-4.22,5.17-4.21,7.17,1.22,5.23,1.51-2.11,1.62,1.05,2.3,6.06,3.52,8.1,2.43,1.26-3.36,6-1.93,5.35,4.78,6.61,1.41-1.08-4.21,4-3.55,8.35.56,7.07,2-4.09,2.18.15,3,7.52-1.45,9.35-.94-2.17,0,1.83,2.68,5.53,1.27,7.33,2.06.8.1,4,.52,2.23,1.66,5.49,3.71,8.23,7.61,8.85,5,1.6-3.86-2.5-5.76-9-4.17-5.54-5.35,2.56,1.16,6.23,2.18,5.82,3.21,7.28.42-.81-4.18,1.2-5,2.44,0,5.14.13,3.25-2,5.62-1.43,6,4.05,6,4.05-5.87-.78-4.46,2.94,3.26,6.13,5.07,4.74-1.69-5.65,1.28-5.53,5.74-.33,4.63,2,.93,5.29,2.28,3.29,2.54-4.82,3.32-2.55-5.26,2.84.79,2.28-.85,2.33,4.63,2,1.21-.93,5.95-1.93,3.64,1.29,4.75-1-1.41-3.71,2-4.63.76-3.7,5.14-3.94,4,2.44,7.94,1.59,2.43-4,5.9-3.57,4.48-1,9.54,1.8,8.65.33,7.81-3.59.17-5.41-4.34-6.27-5.31-5-6.91-5.26-3.22-2.32-7.64-1.82-7.91.32-6.7,3.47,3.64,5.36.9,5.54-8.93,1.82-9.38-1,.83-4.23-1.57-4.55-5.8-1.31-2.09-2.72,6-4.64,2.24-4.59,10.44,1.1,12.95.62,10.68,1.4,11.91,2.38a42.26,42.26,0,0,0,8.58,4.93c2.6.89,4.19,3.27,5,1.2s1.58-5.76,5.39-1.73,5.23,7.75,9.91,7.28,2.05-3.26,6.36-3,4.63,2,7.3,2.32,5.13,2.3,8.4,2.19,5.69-2,2.33-3.22-6.66-3.06-6.79-4.16-9.26-3.93-10.59-4.11-2.35-2.76.12-3,8.35.55,10.31,2.17,2.42,2.22,8,3.23,8,3.22,10.66,3.58,6.11,1.07,7.05.11,1.13-4.47,5.92-5.74,5.16,2,8.27,1.09,3.18-1.48,3.5-3.89-2.76-1.72-1.07-4.21,3.57-4.42,3.17-5.56-1.72-1.31.35-2.67,4.34-4,2.11-5.69-3.9-1.33-5.36-2.61a13.85,13.85,0,0,1-4.1-6c-1-2.85-2.23-5.73-.69-7.15s-.09-1.37-1.34-4.25-3.14-9.11-2.4-10.64,3-6.13-1.26-7-4.69,2.64-2.57,5.1,1.62,2.11,1.65,4-1,1,.41,3.05,1.71,3.48.61,3.61-1.71.59-.55,2.1,1.74,5.39-.88,2.6-1.82-2.69-4.64-6-7.21-5-10.4-3.55-5.63,3.61,0,6,8.54,1.13,8.9,2.53-.52,4-1.59,3.87,1.72-2.76-2.57-1.16-2.28-3.28-6.83-1.71-5.76,2.5-7.92.31-2.4-.31-4.56-2.5a52.18,52.18,0,0,0-6.31-5.72c-2.95-2.29-6-4.05-7.35-4a4.75,4.75,0,0,1-4.69-3.61c-.71-2.81,5-1,6.05-.56s4.32-5.95-.31-7.92-7.76-2.92-8.28-1.09,1,4.75.06,5.71.27,0-2.47.22a2.94,2.94,0,0,0-3,2.32s-1.53,3.33-2.9,3.42.11-4.88-1.23-5.05-7.67-1.55-5.21.4,3.85,3.76,2.78,3.62-3.44-.72-3.44-.72a1.86,1.86,0,0,1-1.88,1.92c-1.9,0-1.09-2-4.38.24s-4.92,2.34-5.06,3.41-1.58,1.69-2.45,2.12-5.86,1.13-5.45.1.87-4.51-2.11-4.63-6.21-.27-5.29,3.11-.19,3.5-1.26,3.36-3.41-5.06-4.74-5.24-5-1.2-5.79.6,2.2,1.92-2.45,2.12-6.33-1.38-6.51-.05-2.22,2.43-2.22,2.43a12.54,12.54,0,0,0-2.85-3.09c-1.27-.71-8-1.06-5.66,1.7s4.47,1.13,2.36,2.75-1.55,1.43-3.42,1.18-4.78,1.27-5.64-.47.32-2.4-2.83-1.19-1.79,3.3-3.93,3-1-.93-3.1-1.22-2,1.09-4.87-.1-4.9-2-6.8-2-6,0-9.34,2.84-2.32,3.23-4.64,4.28-2.81.72-4,1.91a9.38,9.38,0,0,1-3.82,2.22,29.69,29.69,0,0,0-4,1.64c-1.44.62-3.65.88-4.79,1.27s-3.91.84-5.21.4-3,1.78-2.79-1.46a18.4,18.4,0,0,1,1.07-6.1c.37-.77.14-5.14-2.37-4.66s-2.62,1.28-1.56,3.6,2.37.58,1.71,3.48-1.1,4.2-1.1,4.2l-.74,1.53-5.18.14s-4.34,0-5.09,1.5-2.87,1.25-2,3.26a9.91,9.91,0,0,1,.5,4.41s1,.94-.62,2.64-.62,2.63-3.86,2.47-2.06-.81-4.84-.36-3.44,1.44-6.38,1.06-2.49-1.69-3.86-1.6-6.85.46-6.91-1.18-.33-5.75-2.89-6.9-3.72,1.41-4.17-1.36-.88-3.65-1.71-3.49.22-3.77-1.44-5.62-6.8-2-5.62,1.44,1.57.47,1.18,3.41-3.38.91-3.12,3.12-.92,2.87-1.83,3.56.59,1.71-1.31,1.73-7.16.69-3.19,1.48,7.94,1.59,5.47,1.81-5.91-.51-3.68,1.14,7,.11,6.46,2.48-4.28,5.69.24,4.38,7.72-.88,6.37,1.11-5.49,2.54-6.22,1.9a7.28,7.28,0,0,0-6-2.15c-3.31.38-1,1.23-3.29,2.29s-4.43-1.4-4.21,1.07S92.23,231.56,101.55,230.88Z"/><path class="cls-2" d="M83.46,217.7s-2.95,1.78-2.33,3.22,1.54.75,2.2,1.92-1.09,2-1.09,2-2.27.78-1.35,2a6,6,0,0,1,1,3.12s.29,1.94,3.4,1,5.36-1.47,3.86-2.48-2.25-3.56-.84-3.92S93.08,223,93.08,223s2-2.73-.35-3.58S86,217.21,83.46,217.7Z"/><path class="cls-2" d="M101.92,223.93c-.84,1.06-2.82,2.89.68,3.08s3-.42,5.57,1,2.34.85,4.65-.2,7.11-.42,6.37,1.11-2.52,2.66-.42,3.21A31.05,31.05,0,0,1,125,234c2.57,1.15,3.7.76,5.68.2s3.67,1,5.61.74,1.84-1.66,5.28-.93,6.35,3.28,6.74.34,6-2.19,6.94-3.16-4-.52.49-3.74,7.27-3.65,5.81-4.93-6.32-3.55-7.26-2.59-3.42,1.18-2.26,2.69,1.61,4.29-1.26,3.36-5.91-4.58-5.5-1.53,2.31,5.19-.4,5.1a33,33,0,0,0-6.51,0c-3.58.35-6.58.49-5.81-1.31s1.8-3.29-.27-4.11-3.43-.72-3.88.58-2.68,1.82-2.13-.28,3.18-1.48.79-4-6-4.05-5.73-1.84.08,3.54-2.66,3.72-3.71-.76-6.32.53S102.9,222.7,101.92,223.93Z"/><path class="cls-2" d="M51.14,221.86c-1,.44-5.34-.71-5.2,2.3s5.2,1.77,5.2,1.77.3-.23,1.46,1.28,2.33.85,3.65-.87-.18-2.75-1.29-2.62S54,220.61,51.14,221.86Z"/><path class="cls-2" d="M172.33,213.11c-2.81.54-5.71.06-6,2.2s-1,3.67.66,5.25,3.61,5.63,4.71,5.51a1.81,1.81,0,0,0,1-3.14c-1.47-1.28-1.75-3.22.11-3s3.19,2.59,3.85,3.77-.52,4,3.42,2.89,5.95.24,5,.93-2.75,2.36,1.41,3.72,8.12.25,9.42.7-.32,2.4,4.22,3,2.87.92,6.25,0,1.51-1.16,7,.38,8.88.62,6.92-1,.56-4.27-3.52-4.27-7.29,1.76-9,.44-3.9-1.32-2.78-3.62-.29-1.94-1.91-4-1.41-3.72-1.59-6.46-2.49-7.93-5.19-8-6.42,1.33-4.14,4.62,4.8,6.88,2.23,5.72-3.35-3.43-4.88-4.17-5.5-1.54-5.91-.51-1.88,1.93.65,3.35,6.11,5.15,2,3.52-4.83-2.54-6.25-4.08-2.09-2.72-4.4-1.67S176.51,212.3,172.33,213.11Z"/><path class="cls-2" d="M189.89,238.51c-1.18-.22-2.38,1.59-.65,2.9s2.92,2.56,4.67,1.7S195.2,239.48,189.89,238.51Z"/><path class="cls-2" d="M196.29,245.6c-1.92-.25-3.11,1,0,2.17s2.62,2.79,6.09,3.24,9.36-.94,2.79-2.61S198.43,245.88,196.29,245.6Z"/><path class="cls-2" d="M214.62,242.58c-2.42-.58-6.28.26-4.89,2.07S219.62,243.78,214.62,242.58Z"/><path class="cls-2" d="M224.72,205.07c3.59,0,1.06-3.93,1.61-6s1.84-5.73,2.16-4.06,1.32,2.35-.06,4.61-3,2.32-.76,3.7,3.55,4,2,3.79-3.62.61-3,1.78,3.3,1.79,1.82,2.68-6.4-.84-5.93-2.41S222.55,205.06,224.72,205.07Z"/><path class="cls-2" d="M217,220.62c.76-2.91-3.68-5.1-4.87-6.35s-2-5.15.46-3.47,2.49,1.69,3.31,3.7,1.32,2.35,2.17,0,5.07-3.4,4.18-.8-3.52,2-2.36,3.49,1.76,1.05,3.74.49,4.73,1.17,2.76,1.72-4.78,1.27-3,2.05,3.16,2.86,5,1.47,3.84-4.38,5-4.77,4.71,1.43,3.09,3.39-1.74.86-3.45,1.45-2.76,2.35-4.39,2.41-1.8-.79-4.4-1.67-5.43-2.07-6.14-.81S215.87,224.82,217,220.62Z"/><path class="cls-2" d="M226.45,231.1c2.8,1-1.42,2.53,6.15,4.88s6.48,4.39,8.27,1.1-4.47-5.21-6-6,2.15-1.89,6.35-.8,6.26,1.91,3.84-.31-1.53-.74-2.42-2.22-1.38-4,1.81-1.39.84,3.92,4.19,3.27a8.68,8.68,0,0,1,7.36,1.79c1.73,1.31,6,0,5.43,2.07s.81,4.18,2.18,4.09,1.94-.29,5.36-1.47,8.18-.28,5.46,1.81,1,2.57-4.82,1.53-7.61.09-9.25.14-2,.56-3.26,2,.11-.8-4.16-1.36-1.47-5.36-4.62-4.14-2.7-.09-2,3,5.51,5.61,6.31,5.72,3.15-1.22,3.84-.31,1.39,1.81-1.85,1.66-7.08.15-8.47-1.66-1.07-4.22-4.49-3-5.34-.7-8.2-1.62-4.1-1.9-6.43-2.75-3.42-2.89-4.15-3.53S222.55,229.77,226.45,231.1Z"/><path class="cls-2" d="M251.22,222.42c1.28-1.68-1.64-4-.2-4.65s4.89-2.07,3.84-.31-2.65,1.56-1.05,1.77,3.26-2,4.58.33,1,.67-.92,2.86,2.33.85.75,2.55a5.1,5.1,0,0,1-5.89,1.39c-2.33-.85-3.47-.45-5.2-1.77s-1.89-2.15-3.88-3.5-2-3.51-.65-3.34,1.7,1.58,4.15,3.53S249.91,224.14,251.22,222.42Z"/><path class="cls-2" d="M334.54,218.73c2.53,1.45,2.63-3.46,5.25-.67s1.18,3.41.31,3.84,3.1,1.23.55,2-7-2.29-7-2.29-10.41-1.37-8.06-2.69S330.25,216.26,334.54,218.73Z"/><path class="cls-2" d="M344.17,211.58c3.49-.4,4.29-1.61,4.91-4.25s-1-4.48-2.89-2.82-2.6-.89-5-1.47-.4-1.14-2.37-.58,1.71-.59-2.57-1.15-7.4-1.53-4.68.46.9,1.48,3.8,2.13,6,1.62,3.56,1.83-7.92.32-3.75,1.68,6.72-1.56,6.14.81-.68,1-.59,2.36S342,211.83,344.17,211.58Z"/><path class="cls-2" d="M329.47,193.34c2.18-1.32.26-4-1.91-4.05S324.07,191,325.3,192s-1.78,1.13-.32,2.4S326.52,195.13,329.47,193.34Z"/><path class="cls-2" d="M293.9,193.27c-.66-2.34-.87-9.89,1.21-7.17s2,3.25,1.31,4.52S294.45,195.25,293.9,193.27Z"/><path class="cls-2" d="M302.88,193.1c-2.14-1.76,6-2.2,5-.7A3.21,3.21,0,0,1,302.88,193.1Z"/><path class="cls-2" d="M297.86,200.31c-2.89-.38,4.8-3.44,4.52-1.3S300.53,200.67,297.86,200.31Z"/><path class="cls-2" d="M252.21,208.7c-2-.77-4.91-3.91-1.75-3.22S256.61,210.36,252.21,208.7Z"/><path class="cls-2" d="M289.41,215c3.38.44,4.63,2,4.63,2s0-.27,2.07.82,2.61-1.29,2,1.08-3.59,2.51-4.29,1.61-.79-2.28-4-2.7S283.54,214.18,289.41,215Z"/><path class="cls-2" d="M349.54,214.18c2.52.94,2.69-4,4.13-4.61s2.6.88,1.25,2.88-1.13,4.47.42,3,4.3-3.78,3.87-.58-.45,3.48-3.69,3.32-4.46,2.94-6.62.76-1.11-4-3-3.93S343.84,212.07,349.54,214.18Z"/><path class="cls-2" d="M182.38,235.75a1.48,1.48,0,1,1-1.27-1.66A1.49,1.49,0,0,1,182.38,235.75Z"/><path class="cls-2" d="M176.61,232.14a2,2,0,1,1-1.76-2.13A2,2,0,0,1,176.61,232.14Z"/><path class="cls-2" d="M164.8,233.17c-.15,1.1-1.52,1.83-3.07,1.63s-2.68-1.27-2.54-2.37,1.52-1.84,3.07-1.64S165,232.06,164.8,233.17Z"/><path class="cls-2" d="M276.31,232a1.65,1.65,0,1,1-1.43-1.55A1.51,1.51,0,0,1,276.31,232Z"/><path class="cls-2" d="M282.28,229.9a1.46,1.46,0,0,1-1.76,1c-.88-.11-1.53-.75-1.44-1.41a1.46,1.46,0,0,1,1.76-1C281.72,228.61,282.37,229.24,282.28,229.9Z"/><path class="cls-2" d="M284.21,235.86c-.06.52-.84.84-1.72.73s-1.55-.63-1.48-1.15.84-.84,1.73-.72S284.28,235.34,284.21,235.86Z"/><path class="cls-2" d="M257.8,199.25a1.77,1.77,0,1,1-1.47-2.23A1.89,1.89,0,0,1,257.8,199.25Z"/><path class="cls-2" d="M254.45,195.82c-.08.66-.57,1.15-1.09,1.08a1.26,1.26,0,1,1,1.09-1.08Z"/><path class="cls-2" d="M242.89,197c-.07.52-.84.84-1.72.72s-1.55-.63-1.48-1.14.84-.84,1.72-.72S243,196.5,242.89,197Z"/><path class="cls-2" d="M245.29,207.65a1.08,1.08,0,1,1-.94-1.08A1,1,0,0,1,245.29,207.65Z"/><path class="cls-2" d="M248.72,216.65a1.49,1.49,0,1,1-1.26-1.79A1.54,1.54,0,0,1,248.72,216.65Z"/><path class="cls-2" d="M45.82,233.38c-.1.74-1.08,1.22-2.18,1.07s-1.93-.86-1.83-1.6,1.07-1.22,2.18-1.07S45.91,232.64,45.82,233.38Z"/><path class="cls-2" d="M51.35,230.58c-.06.44-.77.71-1.58.6s-1.42-.55-1.36-1,.76-.71,1.57-.61S51.4,230.13,51.35,230.58Z"/><path class="cls-2" d="M76.14,244.43a1.33,1.33,0,0,1-1.61.88c-.81-.11-1.41-.67-1.33-1.26s.8-1,1.61-.88S76.21,243.85,76.14,244.43Z"/><path class="cls-2" d="M113,249.16c-.12,1-1.36,1.58-2.76,1.4s-2.44-1.11-2.31-2.07,1.36-1.59,2.76-1.4S113.12,248.19,113,249.16Z"/><path class="cls-2" d="M178.74,240.7a1.35,1.35,0,1,1-1.17-1.37A1.28,1.28,0,0,1,178.74,240.7Z"/><path class="cls-2" d="M186.76,247.87a1.49,1.49,0,1,1-1.26-1.79A1.55,1.55,0,0,1,186.76,247.87Z"/><path class="cls-2" d="M16.44,225.43c-.11.89-1.22,1.47-2.48,1.31s-2.17-1-2.05-1.9,1.22-1.47,2.48-1.31S16.56,224.55,16.44,225.43Z"/><path class="cls-2" d="M18,230c0,.29-.67.45-1.41.36s-1.3-.42-1.26-.71.67-.46,1.4-.36S18.06,229.69,18,230Z"/><path class="cls-2" d="M36.12,224.5a1.48,1.48,0,1,1-1.26-1.8A1.55,1.55,0,0,1,36.12,224.5Z"/><path class="cls-2" d="M82.47,235.49c-.1.74-1.13,1.21-2.31,1s-2-.87-2-1.61,1.13-1.21,2.31-1.05S82.57,234.75,82.47,235.49Z"/><path class="cls-2" d="M189.77,206.45a2.07,2.07,0,1,1-1.79-1.87A1.84,1.84,0,0,1,189.77,206.45Z"/><path class="cls-2" d="M183.41,209.41c-.06.44-.76.71-1.58.61s-1.42-.56-1.36-1,.77-.71,1.58-.61S183.47,209,183.41,209.41Z"/><path class="cls-2" d="M217.29,259.36a1.89,1.89,0,1,1-1.64-2A1.81,1.81,0,0,1,217.29,259.36Z"/><path class="cls-2" d="M226.17,270.31c-.09.66-1,1.09-2,1s-1.8-.79-1.71-1.45,1-1.09,2-1S226.26,269.65,226.17,270.31Z"/><path class="cls-2" d="M240.11,263.46a2.16,2.16,0,1,1-1.83-2.55A2.21,2.21,0,0,1,240.11,263.46Z"/><path class="cls-2" d="M244.07,260.18a1.46,1.46,0,0,1-1.76,1c-.88-.12-1.53-.75-1.44-1.42a1.47,1.47,0,0,1,1.76-1C243.52,258.88,244.16,259.51,244.07,260.18Z"/><path class="cls-2" d="M255,259.71a1.21,1.21,0,1,1-1-1.36A1.22,1.22,0,0,1,255,259.71Z"/><path class="cls-2" d="M126.92,269.18a1.77,1.77,0,1,1-1.54-1.69A1.63,1.63,0,0,1,126.92,269.18Z"/><path class="cls-2" d="M132,269.59a1.35,1.35,0,1,1-1.14-1.65A1.44,1.44,0,0,1,132,269.59Z"/><path class="cls-2" d="M132.85,251a1.08,1.08,0,1,1-.94-1.07A1,1,0,0,1,132.85,251Z"/><path class="cls-2" d="M89.76,256.41a1.63,1.63,0,0,1-1.92,1.25,1.5,1.5,0,1,1,.38-2.94A1.62,1.62,0,0,1,89.76,256.41Z"/><path class="cls-2" d="M97.32,252.65a2.17,2.17,0,1,1-1.89-2.14A2,2,0,0,1,97.32,252.65Z"/><path class="cls-2" d="M348.34,278.93a1.38,1.38,0,0,1-2.67-.35,1.22,1.22,0,0,1,1.47-.89A1.24,1.24,0,0,1,348.34,278.93Z"/><path class="cls-2" d="M358.48,280.27c-.12.89-1.41,1.45-2.88,1.25s-2.57-1.07-2.46-1.95,1.41-1.45,2.88-1.25S358.6,279.39,358.48,280.27Z"/><path class="cls-2" d="M367.07,279c-.07.59-1,1-2.14.8s-1.94-.74-1.86-1.33,1-.95,2.14-.8S367.15,278.37,367.07,279Z"/><path class="cls-2" d="M381.05,273.87c-.13,1-1.3,1.6-2.63,1.43s-2.3-1.1-2.17-2.06,1.3-1.59,2.63-1.42S381.18,272.92,381.05,273.87Z"/><path class="cls-2" d="M291.35,247.66c-.07.52-.78.85-1.59.74s-1.42-.61-1.35-1.12.78-.85,1.59-.74S291.42,247.15,291.35,247.66Z"/><path class="cls-2" d="M295.19,237a2.63,2.63,0,1,1-2.27-2.34A2.33,2.33,0,0,1,295.19,237Z"/><path class="cls-2" d="M303,225a1.46,1.46,0,0,1-1.76,1c-.88-.12-1.53-.75-1.44-1.41a1.46,1.46,0,0,1,1.76-1C302.46,223.74,303.11,224.37,303,225Z"/><path class="cls-2" d="M310,219.57a1.59,1.59,0,0,1-1.91,1.1c-1-.12-1.66-.83-1.56-1.56a1.59,1.59,0,0,1,1.91-1.11C309.39,218.13,310.09,218.83,310,219.57Z"/><path class="cls-2" d="M361.77,187.28a1.08,1.08,0,1,1-.93-1.21A1.09,1.09,0,0,1,361.77,187.28Z"/><path class="cls-2" d="M366.11,195.59a1.62,1.62,0,1,1-1.38-2A1.69,1.69,0,0,1,366.11,195.59Z"/><path class="cls-2" d="M366.89,171.11a2.44,2.44,0,1,1-2.13-2.45A2.3,2.3,0,0,1,366.89,171.11Z"/><path class="cls-2" d="M379.67,208.1c-.12.89-.63,1.55-1.15,1.48s-.84-.84-.72-1.72.63-1.55,1.14-1.48S379.78,207.22,379.67,208.1Z"/><path class="cls-2" d="M372.41,219.91c-.12.89-1.23,1.47-2.48,1.31s-2.18-1-2.06-1.91,1.23-1.46,2.48-1.3S372.52,219,372.41,219.91Z"/><path class="cls-2" d="M319.06,206.37c-.1.73-1,1.22-2,1.09s-1.8-.85-1.7-1.59,1-1.22,2.05-1.08S319.16,205.63,319.06,206.37Z"/><path class="cls-3" d="M321.69,225.83s7.12-9.31,9.58-14.24,6.57-12.6,10.13-20.54,15.88-32.58,18.07-38.06a45.34,45.34,0,0,1,9.31-13.69c2.2-1.92,4.66-5.75,6.3-8.21s9.31-10.14,13.15-11.78,6.57-3.29,11.22-3,7.4.27,7.95-1.65a67.07,67.07,0,0,0,1.5-13c-.27-6,3.15-2.88,5.34-1s7.67,15.61,11.78,21.08,14.51,18.9,20.81,23.83,11.5,7.94,18.62,9,24.37-25.75,27.66-32.32,5.75-4.38,8.21-2.74,4.38,9.31,3.83,16.71a126.84,126.84,0,0,0,0,20.26c.55,7.94.55,12.6,1.92,15.88s-4.93,13.15-11.77,15.89-14,6.84-17,11.5-3.29,6.29-12.6,7.39-15.33.82-22.18,4.38-8.76,6.3-17.52,9.86-7.67,8.49-29.85,10.13-32.31,1.64-37.24.82-19.72-1.09-24.65-.82S311,233.77,321.69,225.83Z"/><path class="cls-4" d="M427.16,126.67a38.88,38.88,0,0,1-5.57-4c-2.47-2.19.64,2.91,4.47,7.56s11.23,12.05,10.68,13.69-2.46,3.29-6.57-2.19-6.85-12.87-13.42-17.25-6.66-6.7-12.24-7.82c-5.11-1-13.23-.39-19.25,4.26s-10.13,8.76-7.12,8.22,3.29-.82.82,1.37-2.46,4.65-5.48,6-15.06,13.15-17.79,23,0,17,.27,22.46-1.92,24.91-2.19,30.94.55,18.34,1.37,19.44,4.65,1.1,4.65,1.1a125.49,125.49,0,0,1-2.73-16.16c-1.1-9.86,0-17.8.27-24.92s1.92-12.59,2.46-17.25,3.56-7.67,4.11-14.24,4.66-17.8,9.58-21.9,7.12-8.49,10.14-8.77,17.52-6.3,25.46,1.1,5.21,13.14,1.65,17.52-12.33,14.52-13.15,21.64-3.28,15.6-4.1,27.65-6.3,35.05-6.3,35.05,24.37-.82,33.68-6.84,13.42-6,18.07-9,7.94-5.48,13.69-6.57,12.6-1.92,17.25-3.29,6.3-2.19,10.41-6.57,11.77-7.39,17-11.23,7.94-6.84,8.76-10.13,1.1-4.38.27-9.86-2.19-12.87-1.91-18.07a166.41,166.41,0,0,0,.27-16.7c-.27-5.75-1.37-11.78-4.38-14.24s-4.11-3.29-7.94,1.37-9,16.15-12.32,19.71-8.49,9.31-11.23,11.5-3.83,3-9,.83-16.09-9.93-21.84-17.6S428.8,126.67,427.16,126.67Z"/><path class="cls-5" d="M391.56,133s6,2.47,2.46,11.23-9.31,20-16.7,26.56-10.68,9.31-12.6,16.16-4.38,14-4.65,18.07-3.84,2.73-1.65-11.78,3.56-22.18,6.3-29.57S372.66,133.79,391.56,133Z"/><path class="cls-6" d="M415.66,125s2.19,2.74,4.92,6.3,9.31,12.59,12.87,14,3.29,0,3.29-1.37-6.57-9.85-7.67-11.77-.27-1.64,3,2.46S443.59,147.48,448,150s14.51,9.58,22.73,6.84,12-3,13.69-6.29,5.75-3.29,7.39-9.31S494,126.13,495.07,128s.82,3-.82,12.6-.83,12.59-.28,23.55,3.84,20.26,2.74,23.27-1.92,3.84-5.75,5.75a45.56,45.56,0,0,0-10.68,7.67c-3.56,3.28-7.12,7.12-12.87,7.67s-14.24,1.09-19.72,3,13.42-5.75,5.21-14.51-9-9.59-12-12.6-2.47-5.48-6.57-7.12-6-3.29-5.75,1.64-.55,10.68-2.2,6.85-1.09-10.68-6.29-8.21-7.4,1.36-10.68,10.4-6.58,23.82-9.86,30.12-3.56,11.23-4.66,11.78.55-1.92,2.19-11,6.85-22.73,7.67-29.84-3.56-12.05,0-19.72.82-6.3,6.3-12,6.85-7.39,6.57-13.14-2.74-9.59-.55-7.12,4.66,4.93,5.48,9.58,2.19,8.49,1.37.55-3.29-12.6-5.2-14.51S413.19,125.85,415.66,125Z"/><path class="cls-7" d="M483.29,150s-.55,4.38-4.65,5.48-1.1,2.46-9.59,1.91-7.94,1.92-13.42-1.91-10.4-9.86-9.58-6.58.82,2.19,4.66,6.3,7.94,3.29,7.94,9.86.82,8.76,3.83,14.24,6.85,7.39,7.12,14,.55,10.95-.55,12.32-1.09,3.56,2.47,2.19,8.76-6.57,11.5-9,5.47.55,4.11-4.38-3.84-10.68-4.66-17.53-5.2-8.21-1.92-12.59,5.48-7.67,7.67-11S491.23,134.34,483.29,150Z"/><path class="cls-5" d="M349.11,182.54s-3,14.78-5.2,22.17-3.83,16.43-3.83,20.27,1.91,6-2.74,6.57-9.86,1.09-12.32,0-4.11-1.64.54-7.12,5.48-8.49,11.78-18.35a89.23,89.23,0,0,0,9.86-22.72C347.74,181.44,349.94,175.69,349.11,182.54Z"/><path class="cls-6" d="M411.46,190.87s0,29.57-4,38.7c0,0,6.57.73,8.4-1.46s.73-1.09-.37-7.3-.36-11.68-.73-19S413.65,178.09,411.46,190.87Z"/><path class="cls-3" d="M510,55.67a83.43,83.43,0,0,1,.52,10.59c-.26,3.36-1.29,6.2-1,8s-.52,8-1.55,9.82-3.62,3.62-4.92,7.76-.26,5.68,1.55,8.53,4.66,6.2,2.33,8-6.2,2.84-6.46,4.39-1,1.81,1,4.39,1.29,4.91-.26,7.24-5.94,2.84-6.46,5.43,0,9-.77,11.89-2.07,8-8.79,8.26a7.69,7.69,0,0,0-2.84,3.37c-1,2.32-5.43,5.42-9.82,5.68a27.87,27.87,0,0,1-10.85-1.29c-3.11-1-13.44-7-17.84-13.7s-16.54-15.25-19.38-19.38-14.47-16-15.51-27.65c0,0-1.55-3.88,3.36-4.14a42.18,42.18,0,0,0,19.9-6.2c7.5-4.65,33.08-14.22,42.39-19.13s14.21-4.39,19.12-5.94S509.18,53.6,510,55.67Z"/><path class="cls-8" d="M483.85,63.42s.26,5.43-3.62,8.79-5.94,3.36-4.91,6.46,2.59,3.1-2.07,5.17-3.1,4.13-9.56,3.61S442.76,81,441.21,82.8s-8.79,7.75-8.79,7.75a6.34,6.34,0,0,0,1.29,3.11c1,1-.26,1,.78,2.58s2.58,4.91,1.81,5.94c0,0,3.1,1.81,1.81-1.55s-1.81-4.13-.52-5.94,1.55-2.07,2.84-3.88.52-2.32,4.4-1.81,3.61,1.3,7.49,4.14,4.91,7,7,5.43,1-2.59,3.87-1.55,5.69,7.75,2.59,13.18-.26,9.82-7.76,9.56-10.33,2.07-9,7.75,6.46,9.56-1.81,8-14.47-3.62-11.89-.77,9.82,10.85,11.63,13.44,10.34,8.27,13.44,9.56,11.12,2.07,14.22,1,6.12-2.57,7.67-4.9,2.9-3.65,4.47-3.63c3,.05,6.18-3,7.52-8.8,1.54-6.66-.66-11.54,1.27-12.65,2.83-1.62,9.66-5.59,7.07-10.76,0,0-3.82-3.68-1.75-5s9.67-3.38,6.05-9.58-5.43-7.76-3.88-11.63,5.69-6.46,6.21-9.82-.26-4.91.52-9.57,1.8-11.11.25-16.79c0,0-13.18,4.13-17.57,4.91S483.59,63.16,483.85,63.42Z"/><path class="cls-6" d="M481.27,144.83s1.29,5.16,3.87,5.16c0,0-2.58,2.59-2.84,3.37s0-2.07-.52-3.37S480.23,145.08,481.27,144.83Z"/><path class="cls-6" d="M437.59,137.59s9.3,6.46,14.47,10.6,10.34,6.2,13.44,6.2,2.84-2.07,5.17-4.14,3.88-2.58,5.43-.26,2.58,6.21,4.65,4.92c0,0-4.14,4.91-10.34,4.65S459,159,450.77,151.8A90,90,0,0,1,437.59,137.59Z"/><path class="cls-9" d="M428.8,112.26s0,6.72,2.59,8-.52-1.81,1.81-1.81,1.55.77,4.65,3.61,7.23,1.56-.78-10.59c0,0,.26-.52-3.36-.26S428.29,111.49,428.8,112.26Z"/><path class="cls-10" d="M415.11,94.69s1.81,7,4.65,10.34,9.3,7.49,11.37,7.75,4.39-.26,4.91-2.84,1.29-3.36-.78-4.91-3.61-2.59-1.81-3.1,3.88-2.85,1-4.66-2.84-2.32-2.84-3.35a23.27,23.27,0,0,0-1-4.14Z"/><path class="cls-6" d="M429.58,92.36l-8.27,3.11,1.81,2.58a14.4,14.4,0,0,1,3.1.52,21,21,0,0,1,4.65,2.06s4.39,0,2.58-1.55S429.06,95.21,429.58,92.36Z"/><path class="cls-11" d="M429.58,101.41s1.55,2.84-1.55,2.32-7.24-2.84-3.1-.51,9.3,4.65,10.85,3.1a19.6,19.6,0,0,0-1.55-1.81,4.42,4.42,0,0,1-.78-2.58Z"/><path class="cls-11" d="M436.3,108.39s-1.55,3.62-4.91,2.32-7.76-2.06-9.56-3.62,4.9,4.66,7,5.17,3.62,1.55,5.95.26S436.3,108.39,436.3,108.39Z"/><path class="cls-2" d="M327.39,159.59s-.66,2.84.87,4.15,3.06-.22,2.84-2S329.13,157.62,327.39,159.59Z"/><path class="cls-2" d="M334.81,170.73c-1.53-.41-3.05,1.31-3.93,1.75s-2.84-.88-3.93-.22-2.4,1.74-.65,2.84,3.05-.44,5-.66,2.62,0,5,.44S338.09,171.6,334.81,170.73Z"/><path class="cls-2" d="M306.86,126.83s-3.71,2.62-2.62,4.37,2,3.28,4.15,2.62,3.28-1.31,3.49-3.49S308,125.09,306.86,126.83Z"/><path class="cls-2" d="M328,146.71c-1.21,1-1.52,2.62.22,3.71s3.5,1.31,4.37.22-.22-2.19,1.75-2,2.62.66,2.62,1.75-1.31,2,.87,2.18,2.62-2.4,3.71-.87.44,3.05,2,3.49,2.4.44,2.4-.87,1.09-2.84-.44-3.5-3.49-1.3-4.14-1.09,0,1.09-2.63-1.31-2.83-2.84-3.93-2.4a6.42,6.42,0,0,1-3.49.22A3.11,3.11,0,0,0,328,146.71Z"/><path class="cls-2" d="M317.12,138.41s-3.05-2.62-3.71-1.75-3.49,1.09-1.53,2.4,3.28.22,3.28,1.53-.22,2.19,1.31,1.75,1.75,0,3.71.22,4.37-.44,2.19-1.75S320.18,138.19,317.12,138.41Z"/><path class="cls-2" d="M317.34,165.92c-1.26-.42-3.27-.43-3.27,1.1s-.22,2.62,1.52,2.84,2.63,1.52,3.28-.22S319.31,166.58,317.34,165.92Z"/><path class="cls-2" d="M310.14,169.86c-.79-.1-.88,2.4.21,3.27s2.84,1.75,3.72.44S313.63,170.29,310.14,169.86Z"/><path class="cls-2" d="M288.3,142.12s-2.62,2-1.31,2.84,3.06,2.4,3.71.87S291.57,141.9,288.3,142.12Z"/><path class="cls-2" d="M301.4,140.59c-1.36.23-3.71,2.19-.87,2.62S304,140.15,301.4,140.59Z"/><path class="cls-2" d="M295.72,171.38c-1,.49-2.4,2-.87,2.84s2.4,0,2.62.66-1.75.43-.44,1.52.66,2.19,2.19,0,2-4.14,1.31-4.14S298.78,169.86,295.72,171.38Z"/><path class="cls-2" d="M333.07,110.24c1-3.09-3.5-3.93-6.77-4.81s-3.06,1.31-6.55-1.31-1.75-3.71-5.68-3.49a41.6,41.6,0,0,0-5.68.43c-3.28.44-4.15-.21-5.9.44s-5.46,2.18-6.11,3.28-2.4,2.62-1.09,3,1.09,1.09,2.18-1.31-2.18-1.53,1.09-2.4,5-1.09,6.77-1.53a14.2,14.2,0,0,1,3.06-.43s-2,2.18,0,2,2-2.62,4.37-1.53,2.62.66,1.53,2.19-3.5,3-1.32,3.27,2-.87,3.5-2.4,2-.44,2.62.44,1.31-.66,5,.43,5,1.53,5.68,2.4S332.63,111.55,333.07,110.24Z"/><path class="cls-2" d="M320.18,113.51c-.3-1.51-4.15.44-3.06,2.19S320.62,115.7,320.18,113.51Z"/><path class="cls-2" d="M298.13,114.6c-.93,0-5,1.53-2.41,2.62s2.84,2.63,3.5.88S301.18,114.6,298.13,114.6Z"/><path class="cls-2" d="M285.9,128.14c-.77-.61-3.06,2.84-.88,2.84S287,129,285.9,128.14Z"/><path class="cls-2" d="M290.26,130.76s-.43,3.72.88,3.28S293.54,130.33,290.26,130.76Z"/><path class="cls-2" d="M295.72,129.89c-.6-.51-2.62,2.84-.87,3.06S298.56,132.29,295.72,129.89Z"/><path class="cls-2" d="M332,132.51c-1.31-1.15-3.05.44-1.31,1.31S333.72,134,332,132.51Z"/><path class="cls-2" d="M335.25,138c-1.71.43-2.4,2-.87,2.4s-.66,2,1.53.44S338.74,137.1,335.25,138Z"/><path class="cls-2" d="M309.7,160c-1.91-.64-5,2-3.93,2.4s.65.87,2.84.22S312.32,160.9,309.7,160Z"/><path class="cls-2" d="M282.62,172.69c-1,.1-2.84,2.84-.44,3.28S284.8,172.48,282.62,172.69Z"/><path class="cls-2" d="M339.4,165.27c-.26,1.57-3.49-2-4.15-1.75s-2.18.87-1.53,2,0,.65,1.75.87,2,1.09,2,1.75,1.1,2.18,1.75,1.53,1.53-2.41,2-.88-.66,4.15,1.31,3.06,3.49-.87,2-2-2.18-2.41-.22-2.84,5-3.28,2-2.84-3.28,1.31-4.37.65S340.05,161.34,339.4,165.27Z"/><path class="cls-2" d="M272.57,126.4c-.91,1.06-4.36,1.31-2.62,3.93s3.5,4.15,2.62,1.09.66-2.62,1.1-4.15S273.88,124.87,272.57,126.4Z"/><path class="cls-2" d="M210.55,159.37s-.43-.43,1.31-.43,3.28.43,4.37-.44,1.75-4.59,1.75-4.59-2.84-1.09-3.71-.87-2.62.65-2.84,1.53a5.78,5.78,0,0,1-1.31,2s-1.31-.87-2.19-.43-1.09,3.49-2,2.62l-2.62-2.62s-2.19,1.31-1.53,3.05,3.06,2.62,0,2.84-4.15,2.4-1.53,3.06,4.15,2.4,5.24-.44,0-3.71,2-3.93A5.41,5.41,0,0,0,210.55,159.37Z"/><path class="cls-2" d="M213.18,164.39c1.11,1.68.21,3.5,3.49,2s5.68-2.18,3.71-3.27S211.43,161.77,213.18,164.39Z"/><path class="cls-2" d="M222.13,158.5c-1.11.55-2,1.09.87,2.4s5.68,3.06,5.24.87S224.75,157.19,222.13,158.5Z"/><path class="cls-2" d="M229.55,154.13c-.74,1.87-2.84,4.15-.87,3.71s-.44-.65,2.18-1.53,4.37-2,3.93-2.83S230.43,152,229.55,154.13Z"/><path class="cls-2" d="M214.7,179.46c-1.08-1.51-5.24,2-2.62,3.5S216.89,182.52,214.7,179.46Z"/><path class="cls-2" d="M258.6,177.72c-1.25.25-2.62,3.71-.44,3.49s2.4.22,2.84-1.31S260.78,177.28,258.6,177.72Z"/><path class="cls-2" d="M226.71,185.36c-.66.19-1.52,2.84,1.1,2.4S230.43,184.27,226.71,185.36Z"/><path class="cls-2" d="M224.53,178.15a17.88,17.88,0,0,0-2.84,2.41c-1.09,1.09,0,3.49,1.09,1.74s2.19-1.31,3.28-2.62S227.81,176,224.53,178.15Z"/><path class="cls-2" d="M230.21,171.6c-1.06-.25-3.28,2.19-.44,3.06S233.92,172.48,230.21,171.6Z"/><path class="cls-2" d="M220.16,199.34c-.73,2-5.68-1.31-4.36-.22s.65-.66,2.18,1.31,1.31,2.18,0,2.4-3.28,2.62-.66,2.4,3.06-2.18,5-2.62,3.06-2.62,2-2.4S221,196.93,220.16,199.34Z"/><path class="cls-2" d="M227.37,192.57c-1,.13-2.4,3.27.22,2.84S230.43,192.13,227.37,192.57Z"/><path class="cls-2" d="M197.45,177.06c-1.56.29.44,3.06-2.4,3.28s-3.71.22-3.06,1.53,2.4,1.09.66,1.31-2-1.31-3.5-.44-3.93.88-2.4,2.62.87,2.18,3.06.66,2.18-.22,4.8,0,2.41-.88,2.19-1.75-3.06.22.65-2S202.26,176.19,197.45,177.06Z"/><path class="cls-2" d="M202.69,184.92c-.69,0-5.46,2.84-1.31,2.62S204.66,184.92,202.69,184.92Z"/><path class="cls-2" d="M204.88,192.57a1.47,1.47,0,0,0,.65,2.84c2.19,0,3.06,3.71,3.71.87S207.93,191.47,204.88,192.57Z"/><path class="cls-2" d="M135.21,128.8s-3.27,2.84-.22,3.27S138.49,128.58,135.21,128.8Z"/><path class="cls-2" d="M145.26,125.09c-.76.61,0,3.49,1.53,2.18S147.66,123.12,145.26,125.09Z"/><path class="cls-2" d="M161.42,142.78c-2.36-1.32-4.37,3.05-2.19,3.27S163.38,143.87,161.42,142.78Z"/><path class="cls-2" d="M166.88,146.27c-1.36.34-2,3.06.22,2.84S169.5,145.61,166.88,146.27Z"/><path class="cls-2" d="M163.82,165.05c-.28,2,0,.66-1.75,1.75s-3.49,4.8,1.09,4.15,1.32-3.06,2-4.15-.22-1.75,1.09-2.84S164.26,162,163.82,165.05Z"/><path class="cls-2" d="M175,168.76c-.91.61-2.62,3.93,0,3.93s1.09-1.74,1.53-2.62S176.92,167.45,175,168.76Z"/><path class="cls-2" d="M220.16,144.74c-1.18.71-3.71,2.4-3.49,3.28s.87,1.74,2.4.87.87-2,3.5-2,4.36,1.09,5.46.65,3.27-2,3.71-.87.87,2.62,2.4,1.31,3.71.43,4.8-.88.66-.21,1.75-2.84,2.4-6.33,1.31-5.24-.43,2.19-2.62,3.5-3.06.22-4.59,1.09-4.14.44-4.14.44-.22.43-2.84.65S221.25,144.09,220.16,144.74Z"/><path class="cls-2" d="M232.17,124.43c-1.85,0-3,2.62-.65,2.4S234.79,124.43,232.17,124.43Z"/><path class="cls-2" d="M248.12,129.24c-2.49-.16-4.81,2-3.06,2.4s2.4,3.27,3.27,1.74S251.61,129.45,248.12,129.24Z"/><path class="cls-2" d="M274.54,114.82c-1.86-.17-3.71,2.62-2,3.28S276.94,115,274.54,114.82Z"/><path class="cls-2" d="M278,118.32c-1.69.18-1.3,3.49-.21,2.62S280,118.1,278,118.32Z"/><path class="cls-2" d="M284.15,118.32c-1.39.19-3.28,2.62-.66,2.62s1.75,2.18,2.62,0S287.21,117.88,284.15,118.32Z"/><path class="cls-2" d="M254.67,114.6c-2.69-.27-3.28,1.31-1.31,1.75S256.85,114.82,254.67,114.6Z"/><path class="cls-2" d="M274.1,141c-1.26-.18-1.52,2.62,0,2.62s2.41.22,2.41,1.53,1.31,2.84,3.27,1.31,2.84-3.28.88-3.5S275.63,141.25,274.1,141Z"/><path class="cls-2" d="M268.43,144.74c-2.3-.51-2.84,3.28-.22,2.62S270.39,145.18,268.43,144.74Z"/><path class="cls-2" d="M271.92,152.6c-2.11.45-1.75,3.28-.44,3.06s2.19-.22,2.84-1.53S275,152,271.92,152.6Z"/><path class="cls-2" d="M248.77,160c-3.05-.31-5.89,1.09-3.49,2.62s-.44,3.06,2.4,2.62,3.93-2.4,3.06-2.4S251,160.25,248.77,160Z"/><path class="cls-2" d="M240.47,195c-2,.28-4.36-.66-2.4.87s4.15,1.31,4.81,2.4-1.53.44-1.32,1.53-1.52,1.75.22,1.1.66-.66,2.62-1.53,1.1-2.41,0-2.62S242,194.75,240.47,195Z"/><path class="cls-2" d="M272.79,208.29c1.63-.68.44-.87,3.06-.22s1.75-.65,3.93-.44,4.15.88,2,1.75-3.5.22-4.59.66S270.17,209.38,272.79,208.29Z"/><path class="cls-2" d="M266,199.56c-1.87,0-2.84,3.49-.43,3.27S268,199.56,266,199.56Z"/><path class="cls-2" d="M124.51,177.94c-3,.37-4.58,1.52-3.06,3.71s1.53,3.49,2.84,1.53S126.26,177.72,124.51,177.94Z"/><path class="cls-2" d="M135.21,167.67c.36,2-1.31,3.71.44,3.28s2.18-2.4,3.49-1.31,4.15,1.09,2.62-.22-1.09.44-1.52-1.31,0-4.15-1.1-3.28S134.34,162.87,135.21,167.67Z"/><path class="cls-2" d="M140,153c-1.38.49-1.31,4.58,1.31,3.49S143.07,152,140,153Z"/><path class="cls-2" d="M180.2,152.71a2.43,2.43,0,1,1-2.4-2.07A2.26,2.26,0,0,1,180.2,152.71Z"/><path class="cls-2" d="M195.27,164.72a1.47,1.47,0,1,1-1.42-1.85A1.69,1.69,0,0,1,195.27,164.72Z"/><path class="cls-2" d="M259.25,158.94a1.31,1.31,0,0,1-2.62,0,1.31,1.31,0,1,1,2.62,0Z"/><path class="cls-2" d="M261.87,163.3c0,.85-.48,1.53-1.09,1.53s-1.09-.68-1.09-1.53.49-1.53,1.09-1.53S261.87,162.46,261.87,163.3Z"/><path class="cls-2" d="M257.72,164.18a1.31,1.31,0,1,1-1.31-1.31A1.31,1.31,0,0,1,257.72,164.18Z"/><path class="cls-2" d="M261.66,171.93a1,1,0,1,1-1-1A1,1,0,0,1,261.66,171.93Z"/><path class="cls-2" d="M269.3,178.81c0,.72-.34,1.31-.76,1.31s-.77-.59-.77-1.31.34-1.31.77-1.31S269.3,178.08,269.3,178.81Z"/><path class="cls-2" d="M276.72,181.1a1.75,1.75,0,1,1-1.74-1.64A1.69,1.69,0,0,1,276.72,181.1Z"/><path class="cls-2" d="M274.76,184.92a2,2,0,1,1-2-1.53A1.79,1.79,0,0,1,274.76,184.92Z"/><path class="cls-2" d="M280.66,183.62c0,.72-.35,1.3-.77,1.3s-.76-.58-.76-1.3.34-1.32.76-1.32S280.66,182.89,280.66,183.62Z"/><path class="cls-2" d="M273.23,191.26a1.09,1.09,0,1,1-1.09-1.09A1.09,1.09,0,0,1,273.23,191.26Z"/><path class="cls-2" d="M263.62,186.23c0,1-1.17,1.75-2.62,1.75s-2.62-.78-2.62-1.75,1.17-1.74,2.62-1.74S263.62,185.27,263.62,186.23Z"/><path class="cls-2" d="M263,192.46c0,.66-.83,1.2-1.86,1.2s-1.86-.54-1.86-1.2.83-1.2,1.86-1.2S263,191.8,263,192.46Z"/><path class="cls-2" d="M235.89,184.27a1.11,1.11,0,1,1-1.1-1.31A1.22,1.22,0,0,1,235.89,184.27Z"/><path class="cls-2" d="M252.05,187.54a1.68,1.68,0,1,1-1.64-1.31A1.51,1.51,0,0,1,252.05,187.54Z"/><path class="cls-2" d="M226.5,124.87c0,.36-1,.65-2.3.65s-2.29-.29-2.29-.65,1-.66,2.29-.66S226.5,124.51,226.5,124.87Z"/><path class="cls-2" d="M208.37,131.75a1.75,1.75,0,1,1-1.75-1.64A1.69,1.69,0,0,1,208.37,131.75Z"/><path class="cls-2" d="M213.61,140.59c0,1-.39,1.75-.87,1.75s-.88-.78-.88-1.75.4-1.75.88-1.75S213.61,139.63,213.61,140.59Z"/><path class="cls-2" d="M204.66,140.48a1.58,1.58,0,1,1-1.53-1.2A1.39,1.39,0,0,1,204.66,140.48Z"/><path class="cls-2" d="M212.74,146.49a1,1,0,0,1-2,0,1,1,0,0,1,2,0Z"/><path class="cls-2" d="M270.39,109.8a1.24,1.24,0,1,1-1.2-1.53A1.4,1.4,0,0,1,270.39,109.8Z"/><path class="cls-2" d="M289,113.08a.87.87,0,1,1-.87-.88A.87.87,0,0,1,289,113.08Z"/><path class="cls-2" d="M295.29,112.75a1,1,0,1,1-1-1.2A1.11,1.11,0,0,1,295.29,112.75Z"/><path class="cls-2" d="M150.72,159.48a1.53,1.53,0,1,1-1.53-1.42A1.48,1.48,0,0,1,150.72,159.48Z"/><path class="cls-2" d="M150.28,154.13a1.09,1.09,0,1,1-1.09-1.09A1.09,1.09,0,0,1,150.28,154.13Z"/><path class="cls-2" d="M211.65,169.42a1.33,1.33,0,1,1-1.31-1.53A1.44,1.44,0,0,1,211.65,169.42Z"/><path class="cls-2" d="M219.94,172.58a1.22,1.22,0,1,1-1.2-1A1.1,1.1,0,0,1,219.94,172.58Z"/><path class="cls-2" d="M188.28,172.91a1.53,1.53,0,1,1-1.53-1.53A1.52,1.52,0,0,1,188.28,172.91Z"/><path class="cls-2" d="M197.45,172.15a1.75,1.75,0,1,1-1.75-1.64A1.7,1.7,0,0,1,197.45,172.15Z"/><path class="cls-12" d="M478.54,219.93s-2.86-1.81-3.55-1.41-1.15,1.3-1.28-.23,1.21-2.67.9-4.19-.6-2.69-1.49-2.62-2.82-1.29-3.63-.19-1.2,2.84,1.07,2,3.56-.65,2.8,1-1.34,1.31-2.08,1,.37.13-1.63,0-1.61.13-2.48.55-2.5-1.84-2.5-1.84a7.4,7.4,0,0,1-2.81-1.13c-1.34-.91-2.12-1.53-1.25-1.94s-.16-1.88.88-2.31,4-.17,3.48-1.5-.47-3.39-1.8-2.07-.47,3-1.78,2.38-.4-2.54-1.12-2.48-1.55-1.23-1-1.62,2.42-1.24,2.33-2.26-.39-2.37.76-3.66,1-3.18,2.44-3.13,4.32-.21,3.68-1.35-1.91-3.26-3.26-2.12-.7,2.29-2.09,2.93-1.46-.22-1.34-.91,1.2-2.85.58-3.66-2.13-1.7-2.43,1.07,1,2.83,0,3.78-2.61,1.08-3.34,3-1.23,2.51-2.12,2.58-2.09.87-3.54.83a4.14,4.14,0,0,1-3.39-1.6c-.63-1-.15-1.7-.25-2.89s-1.58-3.64-2.67-1.66-.88.25.19,2.22,1.48,2.44.61,2.86a3.56,3.56,0,0,1-2.17,0,13.85,13.85,0,0,1-1-1.63c-.43-.82-1.85-2.58-2.29-3.57s.46-5-.82-5.25-2.68-1.82-2.95,1.29.2,2.38,1.77,3.79.79.79,2.07,3.08,1.37,3.31.64,3.2-1.52-.9-2.75-.45-4.08,2.93-2.56,3.82,3.47.39,3.17,1.1-4.92,1.63-4.92,1.63a3.78,3.78,0,0,1-2.13-1.7c-.46-1.17-.73-.11-1.79-1.91s-.31-1.51-1.06-1.79-1.55-1.24-2.61-1-2.13.35-2.43,1.06a1.84,1.84,0,0,1-3.08-.07c-.85-1.47,0-2.74-.68-3.72a1.81,1.81,0,0,0-3.2.62c-.56,1.77-.19,1.91.82,3.19s1.42,3.82.91,4.21-1.05.43-2-.17-.4-2.54-1.67-.54-1.36,1-1.13,3.69-1.61,2.2,2.15,6,9.84,7.38,13.28,13.77,10.59,11.77,14.46,12.63,13.86,3.77,17,2.3S478.54,219.93,478.54,219.93Z"/><path class="cls-2" d="M485,192.71s-2.38-.34-3.34,1,.39,2.49,1.81,2.19S486.77,194,485,192.71Z"/><path class="cls-2" d="M476.42,199.59c.23-1.29-1.29-2.41-1.71-3.1s.51-2.39-.1-3.24-1.61-1.85-2.38-.33.58,2.47.9,4.07a11.75,11.75,0,0,1,0,4.15C472.94,203.14,475.93,202.34,476.42,199.59Z"/><path class="cls-2" d="M464.93,175.32c0-.9-.12-3.42-1.67-2.56s-1.82-.21-1.47,1.75.32,1.59,1.13,2.61S464.89,177,464.93,175.32Z"/><path class="cls-2" d="M455,183c-.42-1.13-2.56-2.48-3.33-1s-.16,2.36.93,2.44S455.66,185,455,183Z"/><path class="cls-2" d="M452.36,190.67c-1.22.42-3.05-1.9-2.9-.11a2.45,2.45,0,0,0,1.46,2.22,1.38,1.38,0,0,0,.16,1.79c.8,1,3.57,1.67,3.1.45s-2.43-1.05-.92-2.26S453.06,190.43,452.36,190.67Z"/><path class="cls-2" d="M434.91,170.52c-.13-1.54-3.1-2.44-3.87-.93S435.08,172.49,434.91,170.52Z"/><path class="cls-2" d="M433.3,185.28c-.64-.94-2.24-.89-1.38.66S434.13,186.47,433.3,185.28Z"/><path class="cls-2" d="M429.86,191.35s-2.35-2.14-2,.17S430.24,193.67,429.86,191.35Z"/><path class="cls-2" d="M495.64,192.33a1.73,1.73,0,0,0-3,.44c-.78,1.52-.83,3,.13,3.6s1.77-.33,1.73,1.3-.35,2.19-1.24,2.27-1.71-.94-1.74.87,2.16,2,1,3-2.48.58-2.73,1.87-.19,2,.89,1.91,2.4.69,2.83-.61.83-3,.6-3.48-.89.08.89-2.25,2.13-2.53,1.69-3.39a5.36,5.36,0,0,1-.42-2.85A2.59,2.59,0,0,0,495.64,192.33Z"/><path class="cls-2" d="M475.38,179.29c0-.65-2-.55-2.67.41s-1.23,2.45-.09,3.08S475.27,182.18,475.38,179.29Z"/><path class="cls-2" d="M464.55,183.47c-2.18-.12-1.31-2.59-2.12-1.62s-2.9-.11-3.1,1.72,1.09,2.25,2.35,2.14,1.3.43,2.08,1.08,1.44,2,2.25,1.07S467.09,183.62,464.55,183.47Z"/><path class="cls-2" d="M481.22,203c-1.3-.11,1.37-3,1.14-3.53s-.87-1.73-1.72-1.11-.54,0-.59,1.49-.76,1.69-1.3,1.74-1.71,1.05-1.13,1.54,2.09,1.08.86,1.55-3.45-.24-2.41,1.29,1,2.81,1.75,1.47,1.81-2,2.31-.38,3.05,3.89,2.47,1.41-1.31-2.59-.85-3.53S484.49,203.22,481.22,203Z"/><path class="cls-13" d="M446.75,232.13a5.58,5.58,0,0,0-2.34,0c-1.24.29-1.18,1-1.3-.43s-.86-1.55-2-.55-1.66,1.59-1.63,0,.64-3.13-1-2.81a5.32,5.32,0,0,1-3.84-.57c-.58-.49-1-.64-1.29-2.41s.51-6.54,1.4-4.64-.19,2,1.43,4,.29,5.39,1.62,2,.84-5,1.33-3.37-.2,1.82,1.18,3.15.87,1.73,2.53,2.13S446.79,230.5,446.75,232.13Z"/><path class="cls-13" d="M442.74,208.83c1.37,3.7-2.05,5.41-3.29,5.7s-1.59-1.67-2.87.25-1,3.15-2.47,2.74-1.72-1.12-3.43-.06-2.81,1-3.39.47-1.68-.58-1.72-1.11a5.85,5.85,0,0,0,0-2.17c-.3-1.42.71-6.38,1.5-3.56s.55,4.28,2.16,4.14,2.9.12,2.55-1.84-.32-5.75,1.31-3.54,1.89,5.07,3,2.81-.56-2.3,1.07-2.26,1.74-.69,2.61-1.13S442,206.9,442.74,208.83Z"/><path class="cls-13" d="M467.75,224.53a2.88,2.88,0,0,1-4.17,1.81c-1.33-.79.19.16-2.75,1.68s-3.19.64-4.46.57-1.75,2.67-2.8,1-.83-5.34-2-2.71-2.67,2.58-2.42,1.29-.56-2.29-1.8-2-.94-.46-1.2-1.34-1.34-2.95-2.23-2.87-2.24,1.27-2.73-.31-1.47-4.38.85-2.6,2.66-.59,3.95,1.82,1.27,4.22,2,2.72,1.78-4.49,2-1.62-.67,4.75,1,3.7,1.46-1.94,2.46-.76,3.37,3.5,2.57.5.67-4.75,1.56-2.84,2,2.71,3.11,2.62,1.56-2.85,3.27-1.91S468.46,222.3,467.75,224.53Z"/><path class="cls-13" d="M422.55,213.29c-.84-1.49,0-2-.44-3s-1.56-3.48-2.54-2.31-2.17,0-2.47.76-.47.76.52,1.76,1.06,1.89,2.7,4.09S423.83,215.52,422.55,213.29Z"/><path class="cls-13" d="M450.42,204c-.7.06-1.24.47-1.2.91s.64.76,1.34.7,1.25-.47,1.21-.92S451.13,203.91,450.42,204Z"/><path class="cls-13" d="M447,214.42a1,1,0,0,1-.18-2,1,1,0,0,1,.18,2Z"/><path class="cls-13" d="M457.57,209.85c-.34,0-.65-.4-.7-1s.19-1,.52-1.06.64.4.69,1S457.9,209.82,457.57,209.85Z"/><path class="cls-13" d="M457.82,212.8a.79.79,0,0,1-.93-.59c0-.38.33-.71.82-.75a.8.8,0,0,1,.93.59C458.67,212.43,458.31,212.76,457.82,212.8Z"/><path class="cls-13" d="M425.5,206.13c-.52,0-1-.49-1.05-1.2s.31-1.31.83-1.35,1,.48,1.05,1.19S426,206.08,425.5,206.13Z"/><path class="cls-13" d="M456.57,237.41a1.14,1.14,0,1,1,1-1.24A1.14,1.14,0,0,1,456.57,237.41Z"/><path class="cls-13" d="M451,239.92c-.3,0-.57-.28-.61-.69s.18-.76.48-.78.56.28.6.69S451.33,239.9,451,239.92Z"/><path class="cls-13" d="M464.38,231.46a1.15,1.15,0,0,1-.2-2.29,1.15,1.15,0,0,1,.2,2.29Z"/><path class="cls-13" d="M449.31,234.12a.94.94,0,0,1-.16-1.88.94.94,0,0,1,1,.85A1,1,0,0,1,449.31,234.12Z"/><path class="cls-13" d="M444.3,218.44a1.09,1.09,0,0,1-.19-2.15,1,1,0,0,1,1,1A1,1,0,0,1,444.3,218.44Z"/><path class="cls-13" d="M461.14,185.44a1,1,0,1,1,.78-1.08A1,1,0,0,1,461.14,185.44Z"/><path class="cls-13" d="M477.83,185.89a1.24,1.24,0,1,1,.9-1.3A1.13,1.13,0,0,1,477.83,185.89Z"/><path class="cls-13" d="M474.66,200.92a1,1,0,1,1,.79-1.08A1,1,0,0,1,474.66,200.92Z"/><path class="cls-13" d="M454.82,155.53a.81.81,0,0,1-.88-.74.82.82,0,0,1,.74-.87.81.81,0,1,1,.14,1.61Z"/><path class="cls-13" d="M494.55,196.08a1.08,1.08,0,1,1-.19-2.15,1.13,1.13,0,0,1,1.24,1A1.11,1.11,0,0,1,494.55,196.08Z"/><path class="cls-13" d="M506.54,176a1.63,1.63,0,1,1,1.34-1.75A1.55,1.55,0,0,1,506.54,176Z"/><path class="cls-14" d="M540,178c-2.31.07-1.93,0-2.65-1.21s-.42-2.62,1.29-4.44-.21-2.82-2.22-2.7-2.28.2-3,0-1.08-1.49-2.73-2.56-.15-1.6-.07-2.85.57-.43,2.36-.9.74-1.84.51-2.19-2.35-1.15-2.88-2.1,0,0-.37-.87-.65-.92-2.23-1.73-1.49-1-1.49-1-5.82,1.27-7.82.43,0,0-2.6,0-1.09,0-2.19-.51-1.25-.08-2.91.36-1.67-.65-2.75-1.59-.65-.92-2.58-1-1,.81-1.28,1.85-2,.12-3.34.33-1-.56-2.39-1.82-.63-1.34-2.13-2.86a2.49,2.49,0,0,0-4.19.7c-.68,1.55,1.24,3.64,3.22,3.39s1.8.07,3.09.82a8.84,8.84,0,0,1,2.93,2.78c1.05,1.36,1.88,1.41,3.3,2.13s.84.6.31,1.7.06,1.76-.85,3-3.61,1.37-4.88,2.25-.63,2.77-1.83,3.9-1.44.25-3.3.47-.6-1.21-1-2.07.25-.61.14-1.54.66-1.14,1.83-1.86,1.1-1.52,1.8-2,1.61.4,3.38-1.17-2.19-3.11-2.76-2.69a29.94,29.94,0,0,1-3,2.16,7,7,0,0,0-2.47,2.57,8.52,8.52,0,0,1-2.87,3.09c-1.72,1.27-.41.52-2.42,1.19s-.95-1-1.82-1.71-1.79-1.58-3-.85,1.14,1.74,1.85,1.83,2.42.86,2.2,1.6-2.28-.35-3.51-.84-1.94-1.13-2.1-1.77-1.1-.53-2-.71-1.67-.1-2.17-1.48-2.68-1.34-3.92-.33-.21,3.34-.71,4-.56,1.52-1,2.33a12.34,12.34,0,0,1-2.27,2.24c-1,.94-.11,1.67-.7,2.51s-.83.5-1.88,1.18,0,1.93-.77,2.26-1.08.56-1.77,2.11-1.15.3-1.77-.49-1.32-.33-1.94-1.13.5-1.22.27-1.57a5,5,0,0,1,.28-2.54c.25-.61,1-.82,1.79-1s.82-.49.3-.9a6.38,6.38,0,0,1-.94-1l-.76-1.85s.26-1.58-.55-2a6.8,6.8,0,0,0-3.56-.56c-1.64,0-1.33,1.71-.26,2.12s1.06.4,1.08,1.49.68,1.05,1.37,2.09-.27,1-1.64,1.54.08,1.34-.27,1.57a2.66,2.66,0,0,0-.84,2c.08.8,2.39.74,2.17,1.48s.66,1.46,1.14,1.2,1.12,1.62,2.05,2.06-.05.83-.26,1.57-1.83.35-1.74-.36-.31-1.15-1.93-.58-.16,2.5.17,3.23,1.42.72,1.42.72-.4,1.07-.92.66a6,6,0,0,0-3.6-.69c-1,.27,3.27,2,3.27,2a14.48,14.48,0,0,0,.39,2.49c.3,1.15-.54.55-1.62,1.12s-2.12-.26-3.69,0-2,.55-3.36.76-1.63,0-2.27.19-.74.33-1.12.43.31,1.7.81,2.53.88,1.27,1.78,1a5.48,5.48,0,0,0,2.59-2.06c.82-1,1.79-.47,3.17-1s.8-.08,1.89.45,1-.4,1.69-.86,1.43.72,1.57,1.78-.57,1-1.16,1.81,1.07,1.49.79,2-1.85.76-2.38,1.31-2,.13-2.92.36,0,0-.24,1.16.73,1.18,1,1.53.7.08,2.34.06,1.48.43,2.7.38a2.24,2.24,0,0,0,1.87-1.18c.32-.36.76-.75,2.14-.71s.82,1,1.69,1.74.28,1.57.23,2.41-.72,1.42-1.69,2.91-.32,2.41-.32,2.41l-.33,1.32,3.19,2.81a8,8,0,0,0,4.67-1.38,27.88,27.88,0,0,0,4.88-3.79,20.57,20.57,0,0,1,6-4.37c4.44-1.87,8.58-.2,12.84,1.34,4.46,1.6,10.26,3.1,14.77.87A8.63,8.63,0,0,0,514,206a5,5,0,0,1,3.1-3.14,6.17,6.17,0,0,1,3.89.39,6.05,6.05,0,0,0,.58-1.94c.23-2.25.88-1.88.7-3.06s-.51-1.92.47-2.86a9.18,9.18,0,0,0,2.15-2.76c.93-1.61,2-1.88,2.62-2.47s1.79-.47,2.11-.83,2-1.89,2.33-3.08,1.81-3,1.9-3.66,1.74-1.69,3-2.15,1.71.78,3.29,1S542.33,178,540,178Zm-44.51-4.34a3.71,3.71,0,0,1,3-.39c1.1.53,1.38,2.1.71,2.68s-1.38,2-3,.11C495.92,175.67,494.91,174,495.51,173.7Zm12.74,16.05c-1.34,1.17-.85,1.45-1.5,3.13s.16,2.15-.82,3.09-.5.68-.19,2.38,1.27,1.71.21,3.91-2,1.63-3.65.15-1.53-1.1-3.23-1.34-.91-1.39-.71-2.68.49-1.77-.46-3.3-.37-.86.19-2.37,1.24-1,1.52-1.5-1.67-2.16-1.67-2.16a5,5,0,0,0,.19-2.38c-.27-1-1.16-.78-.47-1.78s-.36-2.92-.36-2.92c3.23,1.88,4.08-1.62,5.84-1.68s1.27,1.17,2.9,1.14,1.3,1.3,1.8,2.67.37.86,2,2.76S509.57,188.58,508.25,189.75Z"/><path class="cls-15" d="M474.84,214.47s.6-1.35,1.84-1.2,3.59.48,2.85-.52-2.24-2.15-.39-1.93,2.28.48,2.63-.45.86-.83,1.07-1.37,2.05-.42,2.05-.42-.44-1.2-.78-1.11a2.44,2.44,0,0,0-1.56.42c-.81.57-1.75,1.54-2.43,1.24s-.74-1-1.21-.52-.24.9-1.7.34-2-.79-1.39-1.19a3.37,3.37,0,0,1,2.54-.32c.9.24.73.05,1.26-.21s1.1.54,1.68,0a8.6,8.6,0,0,1,1.78-1.43c.64-.29,1.66.4,1.56-.89s.5-4.44-.08-3.45-.93,1.92-1.78,1.43-1.83-.59-.77-1.11,2.39-1.83,2.92-1.61,1.5.68,2.29,1,1.29-.11,1.27-1.06-2.09-1.59-.64-2,2.38-.51,2.4-.88.71-1.38-.72-1.36-1.81-1-1.53-1.27,1.23.15,1.28-.58-.16-1-1-1.64-1.56-1.38-1.4-2.14-.95-1.78.28-2.1,2.18-.34,2.17-1.3,0-1,2-.53.68.3,2,.42,1.56-1.37.28-2.11-1.54.06-2.43.29a8.43,8.43,0,0,1-2.52,0c-.48,0-2,.17-2.37-.33s-.31-.27.07-1.09-1.48-2-.74-2.8,2.45-1.6,2.88-.88.8,1.7,1.4,1.66.74,1,2.05.53,2-1.37,1.18-1.86-1.79.47-2.44-.19-2.66-1.45-1.49-2a2.29,2.29,0,0,1,2.41.08c.31.27,1.74,2.05,1.84,1.07s.56-2-.87-2.4-2.46-.67-2.54-1-.11-1.77-.42-2.05.41-.7.65-1.13,1-1.33.93-1.92a14,14,0,0,1,.21-2.8c.16-.77.26-1.27.9-1.56a16.17,16.17,0,0,0,2.28-1.8s0-.84-1.63-.28-1.81.83-2,1.85l-.42,2c-.21,1-.8,1.05-.65,1.61a1.32,1.32,0,0,1-.79,1.52c-.73.44-1.42,1-1.35,1.68s-.1,1-.55,1.1a10.28,10.28,0,0,0-1.39.61,2,2,0,0,0-.83,1.41c0,.85.14,1.4-1,1.7s-4.25.65-2.42,1.72.81,1.22,2,.19.85,1,.85,1-1.32,1.31-.42,1.55.05,2-.45,2.39-.85.83.11,1.29,2.5.41,2.59.75.72,1.36-1.44,1.34-3-.16-2.93-1.14a5.62,5.62,0,0,0,.05-2c-.15-1,.66-1.13-.14-1.88s.09-1.45-1.1-2.34-2.81-.68-1.59-1.49a5,5,0,0,0,1.75-1.54c.83-.93,1.55-.89,1.91-1.34s-.61-1.4.87-2.14,2.15-.45,2.56-1.16,1-2.43.05-2.53-2.12.56-2.83.16-1.73.22-2.62-.87-1.5-3-2.28-2.74a7.08,7.08,0,0,1-1.88.14s-.81-2.18-1.48-2-1,.49-.69,1,1.61,1.13,1.14,1.61a7.51,7.51,0,0,1-1.64,1s-2.4.88-1.35,1.68,1.21,1.83,2.15.86,1.84-.72,1.82.12-1,1.58-.37,1.77,1.83.59,1.73,1.1.72.88-.92.6-3.23-.46-3.92.08-1.4.61.09.82,3,.15,3.66.7,1.12.18.18,1.15a9.11,9.11,0,0,1-2.41,1.71c-1,.64-2.28,1.33-1.93,2.19s.63,1.51,2,1.26,2.6-1,3-.07a4.14,4.14,0,0,1,.31,2.55c-.21.54-1,1.33-1.78,1s-.66-1.14-1.75-.73-1.11.77-2,.53a4.74,4.74,0,0,0-2.36-.33c-1,.16-3.08.1-2,.65s-.62-.08,2.08.16,3.33-.52,2.95.77-1.54,1.85-.37,1.3.73-1.75,2.08-1.63,2.6-.09,2.28.47-.54,1.58-.87,2.15-2.58.2-2.39,1.35a5.2,5.2,0,0,1-.44,2.87c-.3.67-2.59,3.31-1.59,4.37s2.41,1.87,3.88.64,1.46-1.7,1-3,.22-2.81.79-2,.34.38.47,1.78,1.33,1,1.35,1.92a2.41,2.41,0,0,0,.3,1.59c.41,1.09.36,1.82-.44,2.39s-3.59,2.27-3.16,1.2,1-2.76-.48-2.27-1.73.22-2.75,1.33-3.83.9-3.33,2.8.37,2.29,2.71,1.19,2.21-2,3-1.16a1.32,1.32,0,0,1,0,1.79s-2.51.9-1.94,1.71,2.23,1.21.34,2.18S471.61,213.54,474.84,214.47Z"/><path class="cls-15" d="M462.67,193.76s.76-.74.9.31-2.41,1.74-1.05,2.74,0,1.51.55,2.59a6.51,6.51,0,0,1,.67,2l-.53,1.1a1.85,1.85,0,0,1-.3,1.45,8.3,8.3,0,0,1-1.3,1.3s.07-1.8-1-1.65a8.4,8.4,0,0,0-1.92.5s-1.85-1.29-.86-1.68,1.83-.35,1.88-1.18,1.14-.86,1.12-1.94-.34-1.28-.35-2.37-1.59-1.36-1.59-1.36l-.83.49s-.52-.95-1-.69a4.58,4.58,0,0,1-1.79.48c-.67,0-3.72-.11-3.72-.11a3.67,3.67,0,0,1-1.8,2c-1.25.47-3-.57-1.69-1.19s3.59-2.46,4.82-2,5.19,0,5.54-.23a9.23,9.23,0,0,1,1.73-.73C461.28,193.17,463.07,192.7,462.67,193.76Z"/><path class="cls-15" d="M464.06,190.25c-1.3-.27-.87-.18-2.14.16s-3.13,1.1-1.84-.75,2.17-2.63,2.29-3.2a1.86,1.86,0,0,0-.34-1.83,5.44,5.44,0,0,1-1.09-2c-.37-.86-.91-.86-1.57-1.78s-1.71-.78-1.79-2.12,1.11-3,1.28-2.39,0,.67,0,1.63,1.78,3.09,2.33,3.63,1.19,2.42,2.12,2.31,1.29.2,2.1-1.38,2.06-1.5,2.54-1.77,3-1.19,3-1.19-3.14,0-2.48-1.12,1-1.78,2.61-1,3.51.85,2.86,2-1.37,1-2.64,1.93-3.93,1.18-4.33,2.24-.34.77.59.67,1.58.81.46,1.24-4.11,2.05-2.31,1.57,4.15-.82,2.11.26a28.76,28.76,0,0,1-3.28,1.55S466.09,190.67,464.06,190.25Z"/><path class="cls-15" d="M502.36,175.31a2.42,2.42,0,0,1,2.68.79c.29.61,1.77.49,2.47.58s1.45,2.35.66,3-1.93,2-2.91.91-1-2.62-2.33-1.57-1,1.23-2.61,1.51-1.42,1.88-1.57.28-.92-1.95.33-1.87,2.54.29,2.17-.57S500.06,175.92,502.36,175.31Z"/><path class="cls-15" d="M501.52,172.66c1.19.11,1.67-.44,1.17-1.82s-1.53-1.64.13-2.08,2.3-.61,2.54-1.22,1.54-.41,2.17-1.13-1.27-1.16.62-1.8,1.66.1,2.54-1.22.87-1.87,2.82-2.26,2.36.61,4-.25,3.35-1.84,1.29-1.84-2.2.45-3.39.62-1.29-.2-1.26-.62-1.9-2.51-2.68-1.34-.35.23-.33,1.87.05,1.21-.67,2.09-2,1.63-2.46,1.06.24-1.7.71-2.51-1.54-4.25-2.16-3-.18,1.42,0,2.06.56,1.08.38,1.95a7.65,7.65,0,0,1-.45,1.9c-.46,1.35.4,1-.71,2s-.66,1.13-1.77,1.57-2.05.54-2.81,1.29-1.55,1.37-1,1.9S498.86,172.41,501.52,172.66Z"/><path class="cls-15" d="M495.73,150.8l.13,2s-2.75.46-1.79,1,2.17.93,2.6,0S497.73,151.64,495.73,150.8Z"/><path class="cls-15" d="M523.76,159.51c2.07-.55,2.18.52,3.33.21s1.6-.69,2.44-.1,2,1.68,1.25,2.14-1.29-.21-1.9-.46-.9.24-2.51-.15S521.58,160.09,523.76,159.51Z"/><path class="cls-15" d="M490.83,203.34c.11-.32-.57-.72,1.06-1.82s2.2-.78,2.54-2,.52-1.29.86-2.53-.46-2.48.33-2.78,1.93-.32,1.52.65-.53,1.29.13,1.22,1-1.15,1.67-.93,1.8.59,1,1.18a6.41,6.41,0,0,1-2.17.87s.89.82,1.18.84a2.28,2.28,0,0,0,1.65-1.4,1.78,1.78,0,0,0-.76-2.49c-.95-.33-1.64-.05-1.93-1.13s-1.11-2-.15-2.36,1.8-.86,1.94.06.21,1.87.57,1.77.48-1.08,1.16-.69.86,0,.72,1.26-.23,2.75.28,2.52,1.17,1.13,1.81-.1-.65-2.42.11-3.2,1.61-.81,1.35,0-.75,2.6.43,1.61a9.55,9.55,0,0,0,2.45-2.38c.91-1.3.3-1,1.1-2s1.23-2.25,1.4-1.24-.15,2.35.68,1.46,1.28-1.3,1.49-.88.8.46-.12,1-2.56.88-2.75,1.6-.06.5-1.47,1.35-1.72,2.19-.92,1.59,1.53-1.84,2.14-1.34,1.35,1.09.39,1.83-1.79.85-1.2,1.28,1.86,1.91,2.09,1,.53-2.35,1.21-2,1.83,1.44,1.49,2-1.11.49-.44,1.56-.91,2.75-1,3.54.09,3.24-.24,4.19-2,2.65-1.94,3.21.27,1.38-1.28,1.31-2-.81-2.24-.08-1.63.72-2,.52-.42-.85-.78-.37-1.36,1-1.73.36a1.55,1.55,0,0,0-1.09-.86c-.43-.18-2.39-1-2-1.49s.86-1.09,1.68-.54,1.65.43,1.35-.36-1.12-1.33-.45-1.7.82-.89,2.15-1,1,1.57,2.11,1.08,1.13-.11,1.34-1.13,1.08-1.73.42-2a3.45,3.45,0,0,0-2.17-.2c-1.12.11-.36-.29-1.12.11s-.4.68-1.18,1-.46-.26-1.22.13-1.75.66-1.24,0,.61-1.31-.32-1.55-1.77-1.26-1.35-1.47-.3-.78.39-1.06,1.83-1.45,1.83-.39.64,2.81,1.09.87,2.06-2.76,2-1.88.35,2.41.68,1.84,1.5-1.26,1.48-.59.67.69.54-.14-.82-.94-1.21-1.31a3.12,3.12,0,0,0-1.91-.65c-.35.09.39.37-1.07.28s-2.28-.26-3,.7-3.41,1.29-2.38,2.26.84,2.09,1.42,2.13.86,0,.42.85,0,.2,0,.85-1.92,1.48-1.92,1.48-.42.59.14.92a1.18,1.18,0,0,1,.35,1.64c-.38.39-.58.73-1.37.65a5.82,5.82,0,0,1-2.44-1.57C494.3,208.09,490.83,203.34,490.83,203.34Z"/><path class="cls-15" d="M531.27,184.26a2,2,0,1,1-2.5-1.45A2.05,2.05,0,0,1,531.27,184.26Z"/><path class="cls-15" d="M522.79,180.63a1.66,1.66,0,1,1-2-1A1.59,1.59,0,0,1,522.79,180.63Z"/><path class="cls-15" d="M518.57,184.83a1.54,1.54,0,0,1-1.17,1.81,1.46,1.46,0,1,1,1.17-1.81Z"/><path class="cls-15" d="M517.76,190a1.27,1.27,0,0,1-.89,1.54,1.26,1.26,0,1,1,.89-1.54Z"/><path class="cls-15" d="M522.28,192.12a1.19,1.19,0,0,1-2.3.61,1.15,1.15,0,0,1,.86-1.39A1.16,1.16,0,0,1,522.28,192.12Z"/><path class="cls-15" d="M524,189.21a.74.74,0,1,1-1.41.37.74.74,0,1,1,1.41-.37Z"/><path class="cls-15" d="M518.81,198.64c.16.6-.37,1.26-1.18,1.48a1.37,1.37,0,0,1-1.76-.7c-.16-.6.37-1.26,1.18-1.47A1.37,1.37,0,0,1,518.81,198.64Z"/><path class="cls-15" d="M531.66,174.38a1.85,1.85,0,0,1-3.58,1,1.85,1.85,0,1,1,3.58-1Z"/><path class="cls-15" d="M511.38,169.57a1.42,1.42,0,0,1-2.69.71,1.42,1.42,0,0,1,2.69-.71Z"/><path class="cls-15" d="M512.31,166.38c.15.56-.36,1.19-1.14,1.39a1.29,1.29,0,0,1-1.67-.65c-.15-.56.35-1.18,1.13-1.39A1.3,1.3,0,0,1,512.31,166.38Z"/><path class="cls-16" d="M479,222.6a126.62,126.62,0,0,0,12.59-7.49c4.2-3.1,7.67-5.29,8.77-8s.18-4.2,2.92-9.49,6.75-7.3,11-11,3.29-1.09,6.75-2.73a70.84,70.84,0,0,0,9.86-6,26.44,26.44,0,0,0,5.11-4.57c1.28-1.45,4.93-2.73,6.21,0a9,9,0,0,1,.18,6.58,58.78,58.78,0,0,1,9.13-7.3c4.75-2.92,7.12-4,8.95-5.12s4.74-2.37,6.38-1.46,2.93,2.92,1.1,5.11-4,5.12-4,5.12a26.4,26.4,0,0,1,5.84-2.38,13.28,13.28,0,0,1,6,0c1.64.37,5.66,2.92,2,5.3s-7.49,5.29-10.23,6.75,1.47.37,4-1.09,5.66-2.92,7.12-3.84,4.2-2.19,6.21-1.09,2.74,3.65-.18,5.84-9.32,5.84-11.14,7.12c0,0,8.22-4.75,9.68-4.38s4.19,4.38-1.47,7.85-4.93,4.56-4.93,4.56a5.5,5.5,0,0,1-2.37,5.48c-3.1,2.19-5.47,2.37-8.21,2.92s-6.76,1.82-9.49,2.37-5.12,1.46-10.78.73-5.65-1.64-9.31-.54A39,39,0,0,1,526.43,214c-4.75.36-7.85.18-9.86,1.09s-8.94,1.1-12.41,2.37a12.2,12.2,0,0,1-6.94.73c-2.19-.18-6.21.92-8.4,1.65s-4.92,2-4.92,2S476.41,224.42,479,222.6Z"/><path class="cls-3" d="M582.48,195.21s-3.66.19-3.11-.91-.36-1.28,1.83-2.74S587.22,189.92,582.48,195.21Z"/><path class="cls-3" d="M584.67,185.72s-2.92,2.56-3.66.91,0-3.28-.91-3.28-1.09.54-3.1,1.82-6.21,1.83-5.11,3.11,3.1.91,1.46,2-4.38,3.47-6,3.65-1.09-2.55-2.74-2.19-3.47,1.1-2.55,2.56,1.64,1.46-1.64,2.37-4.93.55-5.3,1.46.92-1.64-.36.92.36,2.74-2.74,2.55-3.65.73-5.85,0-5.1.19-3.83,1.1,5.66,4.19,1.83,3.28-4.93-3.83-6.39-1.82-3.65,3.65-4.75,3.65-4.74-1.83-4.56-3.65-1.64-2.92,1.28-1.28,4.38,2.92,4.92.73,2.2-2.92,4.2-3.1-.18-2.38,4-2.56,4.38,1.1,6.21-.91.18-1.64,3.28-2.74a37.57,37.57,0,0,0,7.67-3.47c2-1.28,3.65-2.56,5.11-2.92s7.3-3.65,9.68-4.75,5.47-3.83,7.3-3.83S589.23,182.07,584.67,185.72Z"/><path class="cls-3" d="M574.26,180.61s-3.1.91-4-1.28-1.27-2-3.65-.73-5.11,1.83-6,2.56-3.29,3.46-.18,1.64,5.47-2,3.65-.55a20,20,0,0,1-4.57,2.56c-1.46.73-2.55.36-4.74,1.46s-5.84.55-2.19,1.09,7.3.73,4,1.46-4.2.73-5.84,1.28a15,15,0,0,1-5.48,1.28c-2.37,0-6.39.18-6.39.18s-.36,4-2.37,4.75a19.8,19.8,0,0,1-4.93.73c-1.09.18-1.64,1.09-3.1,1.46s-1.46,1.64-3.65.55-2.38-5.12-4-4.93-3.47-.91,0-1.65,4.2.92,6.57.55,2.92-1.82,5.66-2.37,3.47-.91,2,.18-6.21,3.84-2.19,2.38,3.65-3.66,6.39-5.12,2.74-2,5.29-3.1,6.76-3.1,8.76-3.65a30.84,30.84,0,0,0,4.93-2.19c1.65-.73,4.75-2.19,7.49-3.29s5.48-2.37,7.67-2.37,4.56.55,4.93,1.82S581,177.32,574.26,180.61Z"/><path class="cls-3" d="M568.24,169.47a17.47,17.47,0,0,1-2.93,4.2c-1.45,1.28-1.46,1.83-3.28,1.46a7.47,7.47,0,0,1-2.92-.91c-.55-.37-4.38-1.1-1.83.18s5.11,2.56,2.92,2.74-2,.91-3.46,1.46a14.2,14.2,0,0,1-4.57.37c-.73,0-2.37,1.82-5.29,3.83a64.43,64.43,0,0,1-7.12,4,4.12,4.12,0,0,0-.37-2.74c-.73-1.46.55-2.56-1.28-3.47s-3.1-.91-3.65-.55,2.19.55,3.29,1.83.91,3.65-.18,3.83-2.38,0-3.84-1.64-2.19-2.92-3.28-2.92-.73.73-3.84,2-1.82,1.28-4.2,2.19-5.84,3.11-6.93,3.47-4,3.47-5.66,5.48-3.11,4.93-.92,4.75,3.47.36,3.47,1.46.19,2.92.19,4-3.11,2-3.11,2.93-.36,1.27-1.46.91-4.74-1.83-4.93-1.1-4.38,2.19-2.55,3.29,3.83,3.65,2.37,3.28-.37,2-1.1,2.19-4-.36-5.47-.54a50.31,50.31,0,0,0-6,.18s9-5.66,9.31-7.3,2-9.31,4-12.6,4.75-4.93,7.12-6.94,3.65-4.2,6.39-4.74a21.76,21.76,0,0,0,7.85-2.92c2.56-1.65,4.93-2.74,7.85-5.12s4.2-5.11,6-4.74,3.84.55,3.84,2.74-.37,5.66.36,4.74a43.59,43.59,0,0,1,7.3-6,66.77,66.77,0,0,1,10-5.3,15.2,15.2,0,0,1,6.38-1.46C567.69,166,569.7,167.83,568.24,169.47Z"/><path class="cls-17" d="M577.55,190.47a53.73,53.73,0,0,1-7.12,5.29c-2.74,1.46-1.83,3.29-.55,2.37s3.47-2.55,3.65-1.64-5.84,4.57-3.65,4.2,4.38,0,4.2.73.18,1.64-2.19,2.74-12.42,5.29-9.86,5.11a50.05,50.05,0,0,0,7.12-1.28c1.64-.36,3.28-.18,4-2.19s2.2-4.93,2.2-4.93a4.92,4.92,0,0,0-.74-1.82c-.54-.73.37-1.46,1.47-2.38a4.55,4.55,0,0,0,1.82-3.28c.37-1.83,2.92-3.11,2.92-3.11S581.93,186.82,577.55,190.47Z"/><path class="cls-18" d="M559.84,201.79a44.76,44.76,0,0,1-5.11,3.46c-1.83.92-2.38.73-4.39,1.65s-7.85,3.46-4.2,2.74,3.66-.92,6-1.47,1.82-.91,3.29-1.82,4.93-2.74,5.66-3.47S562.39,201.06,559.84,201.79Z"/><path class="cls-18" d="M569.33,182.8a37.94,37.94,0,0,0-3.65,2.55c-1.28,1.1-1.64.92-3.29,1.83s-1.46,2-4,2.74-5.12.36-4.93,1.28-4.57,4.38-2.19,3.46,4.93-1.45,7.12-2.55,5.48-3.47,6.75-4.2.73-1.46,2.37-2a26.89,26.89,0,0,0,5.3-3.1C573.53,182.25,571.89,180.43,569.33,182.8Z"/><path class="cls-18" d="M534.46,210.36c2.38-.89,2.19-2.37,5.11-2.73s2.92.18,4.93-.73,7.3-4.57,5.48-2.56-2.92,3.29-5.66,4.38a38.78,38.78,0,0,1-6.75,2C536.47,210.91,533,210.91,534.46,210.36Z"/><path class="cls-18" d="M552.17,210.36c-1.55-.77,1.28-1.28,3.29-2.19s5.84-3.83,5.29-2.19.55,2.19-1.46,3.11S554.73,211.64,552.17,210.36Z"/><path class="cls-19" d="M568.24,167.83a4.39,4.39,0,0,1-3.47,3.28c-2.92.55-2.19-.54-4.38-.54s-1.28.36-4.2,1.46-3.65,2.19-2.74,2.37,3.1.73,1.09,1.46-1.46-.91-2.92.18a7.52,7.52,0,0,1-2.92,1.65c-1.82.73-3.65.18-2-1.28s5.85-4,6.76-4.93,4.74-3.65,6.94-4,4.56-1.82,5.66-1.64S568.78,166.19,568.24,167.83Z"/><path class="cls-19" d="M576.27,177c-1.64,1.17-2.19-1.46-3.29-1.28s-1.64.73-2.92.91-3.47-.54-.73-1.46,2.74-1.46,4.75-1.28S577.54,176,576.27,177Z"/><path class="cls-19" d="M558.74,180.79c-1.37.2-1.64,1.28-3.83,2.37s-5.3-.36-4.38.92,2.19,1.28-.73,1.46-5.3,1.64-3.11,1.64,1.65-.36-.91,1.1-5.11,3.83-.55,1.46,1.64-2.56,4.75-3.11,2.19-.91,4.2-1.64a8.28,8.28,0,0,0,3.1-1.83C558,182.62,561.3,180.43,558.74,180.79Z"/><path class="cls-19" d="M573,185.54s-2.19,2-3.65,2.19-2.92.54-3.47,1.28-4.38,2.37-4.93,2.92-2,2.55.37,1.28,3.28-2,4.38-2.56,2.92-1.64,3.47-2S572.62,186.82,573,185.54Z"/><path class="cls-19" d="M529.72,195.76c-2-.56-5.85,1.46-3.29,1.46S532.27,196.49,529.72,195.76Z"/><path class="cls-19" d="M543.23,194.12c-2.74-.23-5.12.91-3.29,1.64s2.37,1.09,3.29.37S545.42,194.3,543.23,194.12Z"/><path class="cls-19" d="M519.68,204.34s-2.56,1.28-.55,1.83S521,206,519.68,204.34Z"/><path class="cls-19" d="M539.76,172.76A23.79,23.79,0,0,0,539,176c-.19,1.47-.73,2.2-2,1.83s-1.28-1.1-3.1,0-2.56.36-.92-.73S537.93,170.93,539.76,172.76Z"/><path class="cls-20" d="M.42,265.24A3.77,3.77,0,0,1,3.3,266c1.64,1.07,2.05,2,1.23,2.13a2.57,2.57,0,0,1-2.27-.37C1.65,267.19-1,265.41.42,265.24Z"/><path class="cls-20" d="M8,267.22a1,1,0,1,1-.21,1.94C6.58,269,5,266.85,8,267.22Z"/><path class="cls-20" d="M16.48,266c-2.23.37-2.06.34-3.09.86s-2.48,1.23-1.66,1.94-1,.87,2.67.89,7,0,5-.85A12.33,12.33,0,0,0,15,268S17.51,265.86,16.48,266Z"/><path class="cls-20" d="M21.23,264.46c-1.5,0-3.31,1.75-.63,1.59s3.71-.86,3.09.55-1.46,2.11,1.22,2.12,1,.36,4.53-.33,5.78-1,3.31-1.4a32.17,32.17,0,0,0-6.59.15s2.47.18.82-.71S24.32,264.48,21.23,264.46Z"/><path class="cls-20" d="M35.23,263.83c-2.66,2.27-4.53.68-2.06,1.23s2.46,2.3,4.52,2.14-.82-.89,1-1.23,1.24.89,3.71.9,7,0,3.5-.87.22-1.41-2.67-1.77A49.75,49.75,0,0,0,35.23,263.83Z"/><path class="cls-20" d="M52.75,261.63c-.65.06-6,.49-5.36,1s-1,.7,2.06.54,3.7-.16,4.74-.69S54.4,261.46,52.75,261.63Z"/><path class="cls-20" d="M55.62,264.11c-3.77.39-6.38-.38-3.71.69a11.89,11.89,0,0,0,6.17.73C59.32,265.37,57.27,263.94,55.62,264.11Z"/><path class="cls-20" d="M66.13,262.22c-3.64,0-5.56,1.56-1.86,1.23s4.33-.69,5.36-.15,5.35.91,3.3,0-4.73-1.44-1.85-1.6,1.45-1.05,5.15-.85,1.65.71,3.71.19,4.32.2,4.32,1.08,1.85.72,1.85-.34.42-.71,1.87-1.76,1.86-2.28-.41-1.76-4.33.85-5.56,1-2.26-.9-6,0S67,262.23,66.13,262.22Z"/><path class="cls-20" d="M91.67,262.36c2.06.18,1.85,1.42,3.3-.16s1.25-2.82,2.89-2.64,3.3.37,3.29.9-1,1.06,1.85,1.43,3.5.54,4.12,0-2.06-.53-1.64-1.24,0-1.23,3.09-.86,2.67,1.78,4.74.37,2.48-2.1,1.24-2.29.22-2.46-2-1.77-4.33,1.57-6.39,1.55-2.88-.72-4.73-.55-3.3-.37-4.95.33a8.36,8.36,0,0,0-2.89,2.28S87.55,262,91.67,262.36Z"/><path class="cls-20" d="M105.51,254.84c2,1.28,4.12-.51,5.56-.15s1.64,1.07,4.11.91,4.75-1.21,3.51-1.22-2.88-.9-4.11-.73-3.09-.19-4.12,0S104.69,254.3,105.51,254.84Z"/><path class="cls-20" d="M118.46,258.43c1.05.78,1,1.77,3.91,1.61s.2.53,2.88-.16,4.95-1.38,1.24-1.23-3.28-1.6-4.52-1.43S117,257.37,118.46,258.43Z"/><path class="cls-20" d="M131.44,258.85c1.3,0,1,1.24,2.88.55s3.28,1.61,5.76,1.09,4.12-1.22,2.68-1.58-2.47.34-4.11-1.08-1.64-2.3-3.29-1.6S130.2,258.85,131.44,258.85Z"/><path class="cls-20" d="M125.49,254.94c3.3,0,2.05-.17,5.56-.32s6.38,0,4.94-.68-1.64-1.25-4.11-.91-4.53.16-5.77.33S120.75,254.91,125.49,254.94Z"/><path class="cls-20" d="M142,254.5c1.65,1.11.21.53,3.09.72s3.91-.16,4.52,1.08-2.47,1.22,1.64,1.24,5.57-.85,4.13-1.21-.41-.53-2.47-1.25-1-1.77-4.52-1.43S140.11,253.25,142,254.5Z"/><path class="cls-20" d="M159.88,255.29c1.16,1-3.1,2.11-1.25,2.47s2.66,2.13,4.93,1.44.42-.89-.19-2.3-2.05-2.31,2.27-1.93,3.7,2.31,4.94,1.09-.4-1.07-.61-1.77-2.05-2.13-3.28-1.78-2.26-1.07-.61-1.24,4.32,0,5.14.91-.62.88,2.67.54,8.24.57,5.16-1-6.18-.74-3.08-1.61,5.76.38,5.36-1.38,1.46-3.35-2.26-2.13-6,1.91-7,1.73-4.73-1.26-4.32-.38.2,1.59-1,1.58-1-.71-1.85-1.06a5.1,5.1,0,0,0-3.91.15c-1.45.7-4.13,1.75-4.13,1.75a22.89,22.89,0,0,0-4.12.51c-.83.34-2.89,1.22.2,1.23s4.93,1.79,5.35,1.26-3.08-2.31.21-1.94,2.27,0,3.3-.86,1.86-1.22,2.48-.16-1.86.87-1.66,1.93-.63,1.4-1.25,1.58S159.06,254.58,159.88,255.29Z"/><path class="cls-20" d="M156,248.21c.6.52,2.27-.16,4.53-.68s4.13-2.27,1.86-1.58S155.38,247.68,156,248.21Z"/><path class="cls-20" d="M178.41,255c1.34.58,1.44.53,3.5.37s7.42-.32,5-1a17.17,17.17,0,0,0-5.15-.55S177.59,254.68,178.41,255Z"/><path class="cls-20" d="M175.11,256.61c1.4.77,4.11,2,3.49,1.07s-1.63-2.12-2.25-2S172.85,255.36,175.11,256.61Z"/><path class="cls-20" d="M190.35,257c3.46-.48,3.3-1.4,5-1.56s.41-.53,2.47-.17,0,1.24,3.29.55,4.75-1.39,2.07-1.58-6,.15-7.41,0-4.33-.9-4.53-.37-3.72,2.45-3.11,2.62S189.11,257.21,190.35,257Z"/><path class="cls-20" d="M199.2,258.32c2.2-1.4,1.43,1.24,5.14.56s5.78-2.09,3.31-1.93-7.83-.39-8.45.66-4.95,1.56-2.49,2.64,3.5,1.25,4.53,1.08,5.34,2,6.58,1.62,7.42-.66,7.42-.66-2.26-.55-3.5-.73-3.91-.19-3.91-.19-2.26-1.08-3.29-.9-5.56,0-5.56,0S197.54,259.37,199.2,258.32Z"/><path class="cls-20" d="M194.72,247.89c1.82.34,4.52,1.78,4.74-.51s4.53-1,4.53-1-3.48-2.67-.4-2.13,3.91,1.79,4.94.91,1.85.36,3.71-.68.43-2.65,3.31-1.93,3.69,2.14,2.88.72-2.26-1.42,1-1.05,2.26.54,3.3-.51,7-2.62,3.1-2.11-3.92.16-6.6.85-5.15.68-6.59,1.38a9.21,9.21,0,0,1-3.92,1.21,12.86,12.86,0,0,0-3.71.16c-1,.35-4.53,0-4.74.68s-1.45,1.23-2.27,1.4-3.3.52-3.3.52S191.84,247.34,194.72,247.89Z"/><path class="cls-20" d="M215.48,254.52c2-.56,1.45-.87,2.89-.51s0,0,2.68,0,3.51-1.39,3.71-.51-2.07,2.11-2.07,2.11a25.4,25.4,0,0,1-3.71.15C216.3,255.76,213.63,255,215.48,254.52Z"/><path class="cls-20" d="M235.25,256.21c.84,0,1.23.72.4,1.06S232.57,256.37,235.25,256.21Z"/><path class="cls-20" d="M233.58,259.56c-.36.46,3.29,1.07,3.5.37S234.41,258.5,233.58,259.56Z"/><path class="cls-20" d="M243.48,257c1.46,0,1.86-1.23.42-1.23S241.42,257,243.48,257Z"/><path class="cls-20" d="M241.65,252.71c1.58-.44,4.73,1.09,5.15.38s-3.3,0-1-1.59,2.28-2.1.22-1.94-6.6,2.08-7.22,2.08-1.85-.71-3.29.16-1.66,1.76.4,1.41S240.41,253.06,241.65,252.71Z"/><path class="cls-20" d="M251.72,256.82c2.44-.3.63-1.76,2.89-1.74s2.26,1.24,3.91.72,4.93,3.56,5.14,1.44-.23-2.31-2.66-2.84a11.49,11.49,0,0,0-4.53-.37c-3.09.16-7,0-7.62.31S249,257.17,251.72,256.82Z"/><path class="cls-20" d="M268.8,259.74c.89.44-2.46-1.78,2.07-1.4s5.76.91,5.14-.33-2.87-1.78-4.31-1.26S263.87,257.24,268.8,259.74Z"/><path class="cls-20" d="M267.8,254.44a19.77,19.77,0,0,0,4.94-1s0-1.59-4.32-.9S265.53,254.43,267.8,254.44Z"/><path class="cls-20" d="M255.86,252.43l-2.47-.54a1.83,1.83,0,0,1,2.07-1C257.1,251,261.22,251.76,255.86,252.43Z"/><path class="cls-20" d="M296.19,260.23c.65,0,.62-.18,2.06-.87s1.65-1.23-.41-1.06-3.29-.37-4.94.5S293.51,260,296.19,260.23Z"/><path class="cls-20" d="M305.23,264.16c2.56-1.15,2.06.19,4.54-.86s5.78-3,4.74-1.21-1,1.41-3.52,2.63S301.72,265.73,305.23,264.16Z"/><path class="cls-20" d="M282,262.81c-1.89-.09-4.94,1-1,1.22S286.29,263,282,262.81Z"/><path class="cls-20" d="M265.48,264.13c-.65.06-3.49-1.6-1.85-1.42S271.46,263.63,265.48,264.13Z"/><path class="cls-20" d="M309.4,254c2.5-.17,1.23.35,2.07-1.23s.83-3.35-.4-2.65-1.66,1.58-2.7,2.28-1.84.17-2.06,1.23S306.93,254.11,309.4,254Z"/><path class="cls-20" d="M318.88,252.94c1.95-.55-1-1.07,1.24-1.76s6-2.09,3.51-2.1-2.87-2-3.49-1.79-4.74,1.75-2.28,2.11,1,.71-.82,1.23,1.22,2-1.05,2.29S315.17,254,318.88,252.94Z"/><path class="cls-20" d="M330,253.17c1.78-.88,2.27-.34,3.71-.69s.21-1.06,1.86-1.93,2.68-1.75.22-1.59-8.25,1.73-6.19,1.91,1,1.24-.84,1.59-4.73.5-4.73.5S327.52,254.39,330,253.17Z"/><path class="cls-20" d="M355.1,257.89c2.1,0,5.15-.33,6.59-.32s4.12-.16,5.14,1.08,1.23,2-.42,1.76-3.28-1.78-3.29-1.07.19,4.06-.84,3.17-.39-3.18-2.25-3-2.47,1.4-4.53.68S351.39,257.87,355.1,257.89Z"/><path class="cls-20" d="M357.79,254.19c.46-.39-3.08-.19-3.08-.19l2.89-1.57s.62-.35,3.29.19a28.62,28.62,0,0,1,5.14,1.62s.62.88-1.85.52a9,9,0,0,1-3.5-1.08A20.1,20.1,0,0,1,357.79,254.19Z"/><path class="cls-20" d="M358.32,271.32l-6.79.49s-.62-.89-3.92-.37-3.29-.2-5.35.32a11.51,11.51,0,0,1-4.12.33c-1.65,0-6.39,1.21-3.72,1.4s4.12-.16,6.18-.15,3.51-.51,5.36-.32,3.5-.52,5.76.2,2.06,1.25,3.92.55a6.54,6.54,0,0,1,4.53-.51,57.07,57.07,0,0,0,7.82.05c.83,0,3.49,1.78,6,.56s3.1-2.46,2.28-2.81a4.15,4.15,0,0,1-2.46-2c-.61-1.24-1.42-3.71,2.28-3s.4,1.76,1.84,2.3a20.06,20.06,0,0,1,2.88,1.07c1,.53.4,2.12,2.87,2s6-2.8,3.52-2.46-2.88-.36-3.7-1.43-1.23-.89-2.26-1.07.83-1.76-3.08-1.25-5.36.86-7.42,1-2.68.16-.62.88,3.07,2.67,1,2.83-6-.38-6.59.14a28.51,28.51,0,0,1-4.54,1.74S362,272,358.32,271.32Z"/><path class="cls-20" d="M389.88,262c2.26-.22,3.51-1.57,4.13-1.39s2.66,2.83,3.28,2.31-.2-1.41,1.86-1.76.21-.17,3.09,0,2.88,1.25,3.91.72-2.26-.89,1.87-1.57,5.15-1,1.65-1.41-1.22-2.47-3.5-1.43-2.48,2.29-3.71,1.4-2-2.31-2.87-1.43a2.82,2.82,0,0,1-3.51.87c-1.64-.72-6.18-.74-4.74,0s2.47,1.07,0,1.24-5.15-.56-4.12.15S384.73,262.45,389.88,262Z"/><path class="cls-20" d="M398.5,269.05c2.87.29,4.54-1.74,3.3-1.75S394.79,268.68,398.5,269.05Z"/><path class="cls-20" d="M408.38,268.75c1.44.2,3.92-1,2.28-1.4S404.47,268.2,408.38,268.75Z"/><path class="cls-20" d="M426.32,265c1.86,0,.21-1.41.21-1.41s-2.67-1.07-3.7-.9S420.34,265.11,426.32,265Z"/><path class="cls-20" d="M441.53,269.63c1.25-.15,1.85.53,1,.88s-4.12,1.22-1.86,1.4,3.7,1.09,4.12-.15,0-3.18-.81-3.36a35.62,35.62,0,0,0-6.18,0C435.57,268.54,437.21,270.13,441.53,269.63Z"/><path class="cls-20" d="M457.81,268.3c1.24-.15.84-2.29,1.46-2.64s-2.47-1.07-4.12-.73-4.33,2.45-1.86,2.11S454.93,268.64,457.81,268.3Z"/><path class="cls-20" d="M480.85,273.36c1.24.36.42-2.12,1.46-2.64s.22-2.83,2.07-2.64,3.29.19,3.08,1.08-2.88.87-1.24,1.4-1,2.11,1.63,2.48a5.15,5.15,0,0,0,4.55-1.21c1-.7,3.91-1,3.08.19s-5.57,1.56-1.86,1.58,4.94.91,4.95-.68,2.07-2.46,3.71-2.1-.21,1.94-.21,1.94,1.64,1.25,2.67.72,2.68-1,3.71-.33,2.05,1.42-.63,1.58a38.54,38.54,0,0,0-6.18,1c-1.65.34-2.88-.72-4.32-.2s-4.75,2.1-4.95,1.21-1.24-1.06-2.88-.72-3.92.86-4.33-.2-1.64-.89-3.08-.37a9.92,9.92,0,0,1-4.95.51c-1.23-.36-4.31-2.15-5.14-1.79S468.51,269.77,480.85,273.36Z"/><path class="cls-20" d="M439.78,250.21c2.47,0,5.15-.51,6-.15s3.29.72,1.22,1.24-2.87-1.43-4.11,0a3.76,3.76,0,0,1-3.93,1.22l-3.49-1.26A8.51,8.51,0,0,1,439.78,250.21Z"/><path class="cls-20" d="M454.82,248.52c1.86.18,1.64,1.42,3.91,1.08s2.9-2.11,2.07-1.94-1.43-1.06-4.32-.72S451.12,248.15,454.82,248.52Z"/><path class="cls-20" d="M419.19,248.68c-1.1.12,3.09.55.41.89s-4.12.69-4.94.33-3.49-2.31-.61-2.12,5.77-1,6.39-1S425.58,248,419.19,248.68Z"/><path class="cls-20" d="M389.56,245.18c.36.95-1.44-.71-2.06-.36s-1.86,1.75-2.68.87-3.08-2.31-.82-2.13S388.54,242.53,389.56,245.18Z"/><path class="cls-21" d="M311.06,244.54c1.12-.15,2.59.77,4.69.07a10.75,10.75,0,0,1,4.88-.09s4.16-.6,3.35.65-4.62,2.35-1.82,2.65,5.9-1.64,6-.83-.89,2.69,1,1.66,1.82-2.65,3.33-2.73,5.05.41,3.72.66-1.37,1.06.87,1.33,4.42,1.83,5.77,1.09.66-2.06,4-1.41,4,2.61,4.67.55-1-2.46,2.55-2.29,5.82,0,5,.89-2.7,1.48.29,1.79,5.13-1.2,6.43-1-1.5.08,1.43,1.52,3.92.51,5.21.89.56,0,2.81.14,1.65.89,4,2,6.18,4.17,6.45,2.57.87-2.37-2.09-3.32-6.47-2.09-4.17-2.94,1.84.57,4.45,1,4.24,1.66,5.07-.07-.82-2.45.53-3,1.69-.08,3.57-.15,2.13-1.34,3.81-1.09,4.4,2.14,4.4,2.14-4.12-.2-2.91,1.95,2.64,3.51,3.81,2.6-1.52-3.29.54-3.35,4-.45,3.34,1,1,3.1,1.78,1.85,1.46-3,2.15-1.66-3.48,1.92.68,1.32-.44,1.43,3.33,1,.79-.6,4-1.41,2.6.61,3.23-.81-1.21-2.15,1.08-2.84.29-2.24,3.31-2.57,3,1.27,5.61.59,1.43-2.5,3.87-2.38,3-.81,6.72.65,6-.18,5.2-2.47-.22-3.23-3.4-3.55-4-2.77-5.11-2.83-2.38-1.24-5.41-.74-5.47.53-4.44,2.35,2.86,3,1,3.27-6.08,1.47-6.56-.17.31-2.55-1.38-2.64-4.1-.52-1.61-1.52,3.91-3,1.27-2.84,7.31.2,9-.2a23.66,23.66,0,0,1,8.4.9,32.21,32.21,0,0,0,6.26,2.56c1.85.41,3.1,1.76,3.54.5s.74-3.51,3.63-1.27,4.1,4.38,7.32,3.89,1.22-2,4.23-2,3.33,1,5.2,1.06,3.7,1.15,6,.94,3.83-1.42,1.42-2-4.81-1.53-5-2.18-6.67-1.94-7.6-2-1.8-1.54-.1-1.77,5.82,0,7.28.84,1.81,1.21,5.74,1.56,5.74,1.57,7.61,1.67,4.3.37,4.9-.25.51-2.7,3.75-3.67,3.7,1,5.8.28,2.11-1,2.19-2.46-2-.91-1-2.47,2.21-2.78,1.86-3.44-1.28-.71.08-1.61,2.75-2.6,1.11-3.48-2.79-.62-3.88-1.32a9,9,0,0,1-3.21-3.37c-.86-1.66-1.9-3.32-.92-4.23s-.15-.81-1.19-2.47-2.75-5.29-2.32-6.23,1.68-3.78-1.3-4.09-3.1,1.78-1.47,3.15,1.25,1.19,1.38,2.32-.59.61.48,1.79,1.4,2,.65,2.12-1.15.43-.25,1.28,1.53,3.13-.46,1.58-1.43-1.51-3.59-3.39-5.31-2.67-7.42-1.65-3.69,2.39.38,3.56,6,.29,6.33,1.11-.11,2.41-.87,2.37,1-1.72-1.84-.57-1.79-1.86-4.85-.72-3.84,1.74-5.47.53-1.69-.08-3.32-1.29a37.5,37.5,0,0,0-4.72-3.12c-2.2-1.24-4.4-2.15-5.35-2a3.42,3.42,0,0,1-3.47-1.94c-.67-1.64,3.42-.79,4.16-.6s2.63-3.73-.71-4.7-5.56-1.4-5.8-.28,1,2.78.39,3.4.19,0-1.7.24-2,1.51-2,1.51-.85,2-1.79,2.16-.24-2.91-1.17-2.95-5.42-.59-3.59.46,2.9,2.08,2.15,2-2.43-.28-2.43-.28a1.13,1.13,0,0,1-1.18,1.23c-1.32.09-.89-1.17-3,.33s-3.28,1.61-3.31,2.25-1,1.08-1.57,1.38-4,.92-3.77.29.33-2.72-1.74-2.66-4.32.11-3.48,2.08.08,2.1-.67,2.06-2.67-2.87-3.61-2.91-3.54-.5-4,.61,1.64,1-1.57,1.37-4.48-.54-4.52.26-1.39,1.54-1.39,1.54A8.54,8.54,0,0,0,408,207.8c-.92-.36-5.62-.27-3.81,1.26s3.17.48,1.8,1.54-1,.92-2.3.85-3.23,1-3.94,0,.07-1.44-2-.58-1,2-2.54,2-.73-.51-2.22-.59-1.36.74-3.39.16a14.85,14.85,0,0,0-4.84-.89,10.73,10.73,0,0,0-6.3,2.11c-2.15,1.82-1.41,2-3,2.75s-1.9.55-2.69,1.31a6.61,6.61,0,0,1-2.52,1.49,22.93,22.93,0,0,0-2.68,1.15c-1,.44-2.47.69-3.24,1a8.89,8.89,0,0,1-3.59.47c-.93-.21-1.93,1.19-2-.75a9.5,9.5,0,0,1,.37-3.68c.21-.47-.22-3.07-1.93-2.67s-1.74.88-.86,2.21,1.68.25,1.4,2a22.51,22.51,0,0,1-.5,2.55l-.42,1-3.58.3s-3,.18-3.44,1.12-1.92.87-1.22,2a5.28,5.28,0,0,1,.62,2.61s.72.51-.27,1.59-.27,1.6-2.52,1.65-1.48-.4-3.38,0-2.3,1-4.36.91-1.83-.89-2.78-.78-4.72.58-4.86-.4-.58-3.4-2.43-4-2.49,1-3-.63-.84-2.13-1.41-2-.07-2.25-1.34-3.28-4.84-.88-3.81,1.1,1.12.22,1,2-2.28.69-2,2-.46,1.75-1.05,2.21.51,1-.81,1.08-4.91.73-2.11,1,5.6.59,3.9.83-4.13,0-2.48.84,4.89-.24,4.63,1.2-2.61,3.57.44,2.59,5.3-.86,4.49.38-3.66,1.75-4.2,1.41a5.69,5.69,0,0,0-4.27-1c-2.27.37-.6.78-2.14,1.5s-3.16-.63-2.86.83S304.63,245.35,311.06,244.54Z"/><path class="cls-2" d="M296.14,241.37s-1.93,1.19-1.41,2,1.11.37,1.64,1-.63,1.26-.63,1.26-1.52.57-.81,1.25a3.32,3.32,0,0,1,.85,1.81s.32,1.14,2.42.44,3.62-1.11,2.52-1.65-1.78-2-.82-2.29,3.24-1.13,3.24-1.13,1.22-1.71-.46-2.11S297.85,241,296.14,241.37Z"/><path class="cls-2" d="M309.33,244.27c-.51.66-1.78,1.84.66,1.8s2.09-.38,3.93.35,1.67.41,3.21-.32,4.9-.57,4.48.38-1.58,1.69-.09,1.92a25.92,25.92,0,0,1,4.46.87,5.32,5.32,0,0,0,3.95-.13c1.33-.42,2.6.45,3.93.19s1.18-1.06,3.61-.79,4.61,1.68,4.7-.08,4-1.58,4.61-2.19-2.81-.14.11-2.25,4.82-2.5,3.72-3.19-4.6-1.84-5.19-1.22-2.3.85-1.4,1.7,1.38,2.48-.67,2.05-4.38-2.46-3.9-.67,1.91,3,0,3.06A26.46,26.46,0,0,0,335,246c-2.45.36-4.53.58-4.1-.52s1-2-.44-2.44-2.43-.28-2.66.51-1.75,1.2-1.49-.07,2.11-1,.3-2.4-4.4-2.14-4.09-.84.27,2.1-1.62,2.33-2.61-.29-4.34.59S309.93,243.49,309.33,244.27Z"/><path class="cls-2" d="M274,245.26c-.68.31-3.75-.18-3.46,1.6s3.72.83,3.72.83.19-.15,1.09.7,1.67.4,2.47-.69-.29-1.62-1.05-1.5S275.91,244.39,274,245.26Z"/><path class="cls-2" d="M357.48,234.73c-1.91.45-4,.29-4,1.57s-.48,2.23.79,3.1,2.85,3.19,3.6,3.07,1.57-1.21.47-1.91-1.41-1.83-.1-1.77,2.37,1.4,2.9,2.07-.12,2.41,2.56,1.57,4.13-.11,3.55.34-1.77,1.52,1.2,2.15,5.65-.2,6.57,0-.07,1.45,3.12,1.61,2,.42,4.33-.28,1-.75,4.88-.08,6.2,0,4.74-.89.13-2.57-2.7-2.39-4.95,1.37-6.23.66-2.78-.62-2.15-2-.32-1.14-1.57-2.33-1.21-2.15-1.51-3.78-2.21-4.61-4.09-4.54-4.37,1.07-2.59,2.93,3.75,3.88,1.91,3.31-2.54-1.89-3.65-2.27-3.91-.68-4.12,0-1.19,1.22.65,2,4.56,2.8,1.59,2-3.5-1.3-4.59-2.16-1.61-1.52-3.15-.8S360.33,234.07,357.48,234.73Z"/><path class="cls-2" d="M371.23,249.08c-.83-.07-1.55,1-.27,1.76s2.18,1.39,3.34.81S375,249.43,371.23,249.08Z"/><path class="cls-2" d="M376.11,253c-1.35-.06-2.1.7.12,1.29s2,1.55,4.43,1.67,6.43-1,1.77-1.68S377.6,253.1,376.11,253Z"/><path class="cls-2" d="M388.62,250.42c-1.7-.24-4.33.43-3.26,1.45S392.17,250.92,388.62,250.42Z"/><path class="cls-2" d="M393.31,227.64c2.5-.14.5-2.38.75-3.66s.92-3.49,1.25-2.51,1.06,1.34.24,2.75-1.95,1.51-.3,2.23,2.71,2.23,1.58,2.17-2.47.52-1.93,1.19,2.39.93,1.42,1.52-4.49-.22-4.26-1.17S391.81,227.73,393.31,227.64Z"/><path class="cls-2" d="M388.9,237.24c.35-1.77-2.86-2.87-3.77-3.56s-1.73-3,.11-2.09,1.83.89,2.52,2.06,1.06,1.34,1.51-.09,3.3-2.25,2.85-.66-2.32,1.33-1.43,2.18,1.29.54,2.63.13,3.35.48,2,.9-3.24,1-1.95,1.35,2.37,1.57,3.54.66,2.38-2.78,3.15-3.06,3.35.65,2.35,1.88-1.16.59-2.3,1-1.77,1.52-2.9,1.62-1.3-.38-3.15-.8-3.9-1-4.31-.21S388.4,239.79,388.9,237.24Z"/><path class="cls-2" d="M396.12,243.07c2,.44-.83,1.56,4.56,2.63s4.77,2.33,5.81.29-3.42-2.9-4.53-3.28,1.37-1.22,4.35-.75,4.47.86,2.65-.35-1.11-.38-1.82-1.22-1.2-2.31,1.17-.91.83,2.3,3.11,1.76a7,7,0,0,1,5.22.74c1.28.71,4.14-.27,3.89,1a1.93,1.93,0,0,0,1.76,2.34,14.36,14.36,0,0,0,3.62-1.11c2.3-.85,5.66-.53,3.9.84s.87,1.49-3.24,1.12a17.89,17.89,0,0,0-6.41.49c-1.13.11-1.33.42-2.13,1.34s0-.48-3-.62-1.35-3.13-3.46-2.26-1.88.06-1.22,1.87,4.17,3.1,4.73,3.12,2.11-.86,2.65-.35,1.07,1-1.18,1.07-4.9.4-6-.62-1-2.46-3.3-1.6-3.74-.19-5.79-.61-3-.95-4.63-1.36a7.75,7.75,0,0,1-3.09-1.92C393.24,244.37,393.34,242.45,396.12,243.07Z"/><path class="cls-2" d="M412.76,236.81c.78-1.06-1.39-2.32-.43-2.76s3.27-1.45,2.65-.35-1.74,1-.62,1.09,2.13-1.34,3.19,0,.74.36-.46,1.75,1.67.4.68,1.48a3.86,3.86,0,0,1-4,1.09c-1.67-.41-2.43-.12-3.71-.83s-1.44-1.19-2.91-1.91-1.59-2-.65-2,1.27.86,3.09,1.92S412,237.89,412.76,236.81Z"/><path class="cls-2" d="M470.31,231c1.84.75,1.6-2.17,3.59-.63s1,2,.45,2.28,2.23.59.51,1.15-5-1.05-5-1.05-7.31-.36-5.76-1.25A6,6,0,0,1,470.31,231Z"/><path class="cls-2" d="M476.54,226.27c2.4-.39,2.88-1.14,3.14-2.74s-1-2.62-2.17-1.56-1.86-.41-3.54-.65-.34-.66-1.68-.25,1.15-.42-1.84-.57-5.23-.58-3.22.49.71.83,2.76,1.1,4.29.69,2.58.93-5.46.54-2.49,1.16,4.56-1.22,4.31.22-.41.62-.26,1.43S475,226.52,476.54,226.27Z"/><path class="cls-2" d="M465.22,216.06c1.43-.88-.07-2.42-1.58-2.33s-2.3,1.18-1.39,1.7-1.17.75-.07,1.45S463.28,217.25,465.22,216.06Z"/><path class="cls-2" d="M440.55,217.58c-.6-1.37-1.21-5.85.4-4.32s1.6,1.85,1.19,2.63S441.06,218.73,440.55,217.58Z"/><path class="cls-2" d="M446.77,217.09c-1.59-1,4-1.58,3.41-.64A2.43,2.43,0,0,1,446.77,217.09Z"/><path class="cls-2" d="M443.73,221.6c-2-.1,3.12-2.26,3.06-1S445.61,221.69,443.73,221.6Z"/><path class="cls-2" d="M412.6,228.59c-1.45-.36-3.65-2.11-1.41-1.83S415.75,229.39,412.6,228.59Z"/><path class="cls-2" d="M438.78,230.69a5.63,5.63,0,0,1,3.33,1s0-.15,1.49.4,1.73-.88,1.47.56-2.33,1.65-2.87,1.14a3.15,3.15,0,0,0-2.94-1.43C437,232.21,434.66,230.48,438.78,230.69Z"/><path class="cls-2" d="M480.42,227.59c1.81.44,1.63-2.5,2.59-2.93s1.85.41,1,1.66-.51,2.71.48,1.79,2.74-2.44,2.65-.51-.1,2.09-2.36,2.13-2.91,2-4.54.75-1-2.31-2.33-2.21S476.34,226.58,480.42,227.59Z"/><path class="cls-2" d="M365.85,247.77a1,1,0,0,1-2.06-.1,1,1,0,0,1,1.08-.83A1,1,0,0,1,365.85,247.77Z"/><path class="cls-2" d="M361.63,245.87a1.44,1.44,0,1,1-1.35-1.19A1.3,1.3,0,0,1,361.63,245.87Z"/><path class="cls-2" d="M353.5,247c0,.67-.94,1.16-2,1.11s-1.94-.64-1.9-1.3.94-1.16,2-1.11S353.53,246.34,353.5,247Z"/><path class="cls-2" d="M430.74,241.39c0,.44-.54.78-1.16.75s-1.1-.42-1.08-.86.54-.78,1.16-.75S430.77,241,430.74,241.39Z"/><path class="cls-2" d="M434.76,239.9c0,.4-.54.7-1.16.67s-1.11-.38-1.09-.78.54-.7,1.16-.67S434.78,239.5,434.76,239.9Z"/><path class="cls-2" d="M436.47,243.36c0,.31-.53.54-1.15.51s-1.11-.31-1.1-.62.53-.54,1.15-.51S436.48,243.05,436.47,243.36Z"/><path class="cls-2" d="M415.9,222.72a1.22,1.22,0,0,1-2.44-.12,1.22,1.22,0,0,1,2.44.12Z"/><path class="cls-2" d="M413.36,220.83a.69.69,0,0,1-.69.69.73.73,0,1,1,.69-.69Z"/><path class="cls-2" d="M405.42,222.05c0,.31-.53.53-1.16.5s-1.11-.3-1.09-.61.53-.54,1.15-.51S405.43,221.74,405.42,222.05Z"/><path class="cls-2" d="M407.74,228.28a.68.68,0,0,1-.78.52c-.41,0-.74-.29-.72-.6s.36-.54.77-.53S407.75,228,407.74,228.28Z"/><path class="cls-2" d="M410.67,233.49a1,1,0,0,1-1.08.91,1,1,0,1,1,.1-1.93A1,1,0,0,1,410.67,233.49Z"/><path class="cls-2" d="M271,252.35c0,.45-.67.78-1.44.74s-1.39-.43-1.37-.87.67-.78,1.45-.74S271,251.91,271,252.35Z"/><path class="cls-2" d="M274.67,250.44c0,.27-.48.46-1.05.44s-1-.27-1-.54.49-.45,1.06-.43S274.68,250.18,274.67,250.44Z"/><path class="cls-2" d="M292.72,257.61c0,.35-.5.62-1.06.59s-1-.34-1-.7.49-.62,1.06-.59S292.73,257.25,292.72,257.61Z"/><path class="cls-2" d="M318.57,258.8c0,.57-.85,1-1.83.95s-1.76-.55-1.73-1.13.84-1,1.83-.95S318.59,258.22,318.57,258.8Z"/><path class="cls-2" d="M363.63,250.88a.85.85,0,0,1-1,.68c-.51,0-.92-.37-.9-.77a.85.85,0,0,1,1-.68C363.25,250.14,363.65,250.48,363.63,250.88Z"/><path class="cls-2" d="M369.64,254.79a1,1,0,0,1-1.08.92,1,1,0,1,1,.09-1.93A1,1,0,0,1,369.64,254.79Z"/><path class="cls-2" d="M250.15,248.92c0,.53-.75.92-1.63.88s-1.57-.51-1.55-1,.76-.93,1.64-.89S250.18,248.38,250.15,248.92Z"/><path class="cls-2" d="M251.53,251.56c0,.17-.44.3-1,.27s-.92-.19-.92-.36.44-.31,1-.28S251.53,251.38,251.53,251.56Z"/><path class="cls-2" d="M263.74,247.49a1,1,0,0,1-1.08.91,1,1,0,0,1-1-1,1,1,0,0,1,2.06.1Z"/><path class="cls-2" d="M296.56,252c0,.45-.71.77-1.54.73s-1.48-.43-1.46-.87.71-.77,1.54-.73S296.58,251.56,296.56,252Z"/><path class="cls-2" d="M369.17,230c0,.53-.68.93-1.45.89s-1.39-.5-1.36-1,.67-.93,1.45-.89S369.19,229.46,369.17,230Z"/><path class="cls-2" d="M364.94,232c0,.27-.49.46-1.06.43s-1-.26-1-.53.48-.46,1.05-.43S365,231.77,364.94,232Z"/><path class="cls-2" d="M391.52,260.29a1.35,1.35,0,1,1-1.26-1.1A1.2,1.2,0,0,1,391.52,260.29Z"/><path class="cls-2" d="M398.35,266.42c0,.4-.62.69-1.35.66s-1.29-.39-1.27-.79.62-.69,1.35-.65S398.37,266,398.35,266.42Z"/><path class="cls-2" d="M407.59,261.73a1.5,1.5,0,1,1-1.43-1.44A1.43,1.43,0,0,1,407.59,261.73Z"/><path class="cls-2" d="M410.14,259.6c0,.4-.54.7-1.16.67s-1.11-.38-1.09-.78.54-.7,1.16-.67S410.16,259.2,410.14,259.6Z"/><path class="cls-2" d="M417.69,258.85a.86.86,0,1,1-.81-.77A.81.81,0,0,1,417.69,258.85Z"/><path class="cls-2" d="M329.46,270.11c0,.49-.59.86-1.26.82s-1.2-.45-1.17-.94.58-.86,1.26-.82S329.48,269.62,329.46,270.11Z"/><path class="cls-2" d="M333,270.13a.94.94,0,1,1-.9-.93A.92.92,0,0,1,333,270.13Z"/><path class="cls-2" d="M332.45,259c0,.31-.36.54-.78.52s-.74-.29-.72-.6.36-.54.78-.52A.68.68,0,0,1,332.45,259Z"/><path class="cls-2" d="M302.91,264.14c0,.49-.59.85-1.26.82s-1.2-.45-1.18-.94.59-.86,1.26-.82S302.93,263.65,302.91,264.14Z"/><path class="cls-2" d="M307.91,261.57a1.35,1.35,0,0,1-1.55,1.05c-.82,0-1.47-.58-1.44-1.2a1.36,1.36,0,0,1,1.55-1.05C307.3,260.41,307.94,261,307.91,261.57Z"/><path class="cls-2" d="M483.59,266.19c0,.36-.45.62-1,.6s-.92-.34-.9-.69.45-.62,1-.59S483.61,265.84,483.59,266.19Z"/><path class="cls-2" d="M490.71,266.54c0,.54-.89.92-1.92.87s-1.85-.52-1.83-1.05.89-.92,1.92-.87S490.73,266,490.71,266.54Z"/><path class="cls-2" d="M496.58,265.38c0,.36-.66.61-1.43.58s-1.39-.36-1.37-.72.66-.61,1.43-.57S496.6,265,496.58,265.38Z"/><path class="cls-2" d="M506,261.74c0,.58-.81,1-1.73,1s-1.67-.55-1.64-1.12.81-1,1.74-1S506,261.17,506,261.74Z"/><path class="cls-2" d="M442.14,250.08c0,.31-.48.53-1.05.51s-1-.31-1-.61.48-.54,1.05-.52S442.16,249.77,442.14,250.08Z"/><path class="cls-2" d="M444.15,243.58c0,.66-.85,1.16-1.83,1.12s-1.76-.63-1.73-1.3.86-1.16,1.84-1.11S444.19,242.91,444.15,243.58Z"/><path class="cls-2" d="M448.84,236.09c0,.4-.54.7-1.16.67s-1.11-.38-1.09-.78.54-.7,1.16-.67S448.86,235.69,448.84,236.09Z"/><path class="cls-2" d="M453.33,232.53c0,.44-.58.77-1.25.74s-1.2-.42-1.18-.86.58-.78,1.26-.74S453.36,232.09,453.33,232.53Z"/><path class="cls-2" d="M487.24,211a.75.75,0,1,1-.71-.68A.69.69,0,0,1,487.24,211Z"/><path class="cls-2" d="M490.76,215.79a1.12,1.12,0,1,1-1.07-1.1A1.08,1.08,0,0,1,490.76,215.79Z"/><path class="cls-2" d="M489.79,201.18a1.75,1.75,0,1,1-1.62-1.36C489.1,199.86,489.83,200.47,489.79,201.18Z"/><path class="cls-2" d="M500.94,222.65c0,.53-.34.94-.7.93s-.64-.47-.61-1,.34-1,.7-.93S501,222.11,500.94,222.65Z"/><path class="cls-2" d="M496.64,230c0,.53-.76.92-1.64.88s-1.57-.51-1.55-1,.76-.93,1.64-.89S496.66,229.46,496.64,230Z"/><path class="cls-2" d="M458.81,224.27c0,.45-.63.77-1.35.74s-1.3-.42-1.27-.87.62-.77,1.35-.73S458.83,223.83,458.81,224.27Z"/><g class="cls-22"><path class="cls-21" d="M571.35,229.28c-1.08-.09-1.81.66-3.24.91a18.45,18.45,0,0,1-5.48.26,23.68,23.68,0,0,1-4.9-.43c-3.79-.57-4.87-1.67-6.87-1.81s-2.13-1.26-4.07-.77-4.17-.17-6.1.32-2.89-.44-5.3.13-.38.41-3.53.71-2.55-.54-6.66-.08-4.3-.33-7.12-.14-4.12-.47-6.88.36-.7.51-5.24.76-6-.14-8.28.3a40.54,40.54,0,0,1-6.58.4c-.93,0-4.1-.62-5.18-.62s-2.5.08-.15-1.11,3.21.33,5.45-2.13-.9-1.22,2.23-2.46,2.58-1.63,3.66-3.64.33-3.21,2.44-3.82,1.68-.83,3-1.41,7.31-2.16,8.79-2.71,1.74-.2,3.2-1.69a8.61,8.61,0,0,1,4-2.51c2-.78,3.72-3,4.71-2.39s-1.6,2.4.64,2,1.7-3,3.95-2.51,2.83,1.83,4.11,1.55-.69-.57,1.79-1.59,4.44-.57,6.87-.2,1.43-.25,2.24,1.58.25,1.43,2,.14,4-2.81,4-2.81.35-.26-.16-1,1.28-2.3,0-2.81a16.31,16.31,0,0,1-3.18-1.56c-1.43-.84-2.51,1.17-4.07.16s-2.48-2.08-.82-2.76,1.43-2.27,4.08-.32.9,2.31,2.66,2,2.76-.83,4.58-.55,5.35,1.58,5.45,3,1.18,4.53-1.38,5.07-5.74-.09-5.61-1.93-1-1.7-.87-.44.92,2.15.61,3.19,1.16.49,2.53.7,2.51.84,3.71.09,4.47.21,4.31,1.27-3.22.76-1.59,1.31,4.15,1.25,3.76,1.81-2.89.65-2.25,1.53-.52.39,2.17,1.1,4.1-.46,4.24-1.37-.51-3.81.56-4.73,4.43-.58,4.4.66.82,2.77-1.11,3.25-2.67.22-2.83,1.28-1.28,1.21-1.52,1.79-2.95,0-3.33,1.51-2.33,1,.58,1.33,1.21.19,4.17,2.19,3.84.26,4.76,1.34.17,3,.17,3,3.5.53,2.67.87-3-.92-1.79.5.08.49.18,1.9S574,229.52,571.35,229.28Z"/><path class="cls-2" d="M533.88,210.12s-3,.62-2.83,1.28.9,1.22,0,1.86-2.87.5-1.34,1.67,1,.91.4,1.45,2.69.72.27,1.29-2.84,2.36-1.43,2.27,3.12.93,1.53,1.16-1.13-1.73-2.34.11-1.6,1.31-2,.94-2.61.84-3.37.73-.37-2.69-2.11-1.41,2.07,1.72-2.51,1.18-3.84-.27-5.8.36-3.07,1.87-3.17,2.48a1.52,1.52,0,0,1-1.7,1,12.34,12.34,0,0,0-3.48.41c-1.91.33-5.91,1.12-3.71-.1s-.45-.07,2.21-1.22,5.2.48,2.65-1.15-4.69-1.8-1.41-1.92,7.4.34,5.1-.94-3.67-2.42-1.22-2.2,1.33,2.53,3.36,1.44,2-2,3.16-1.39,0-.3,1.84.12,2.26.5,3.15-.29-.94-2-1.94-1.54-2.55-1.63-1.22-2.2,2.9-1.74,3-.63-.72,2.69,1.12,2.81a14.12,14.12,0,0,0,3.74-.06c1.74-.2,1.87,0,2.66-1.15s-.36-1.76-.77-2.13.28-1.82.91-1.88,1.06.16,1.18-.6.56-.69,1.33-1.66S532.94,208.11,533.88,210.12Z"/><path class="cls-2" d="M548.87,222.94a2.07,2.07,0,1,1-1.73-2.44A2.11,2.11,0,0,1,548.87,222.94Z"/><path class="cls-2" d="M547.1,218.17a1.12,1.12,0,0,1-1.17,1.06,1.25,1.25,0,1,1,1.17-1.06Z"/><path class="cls-2" d="M552.23,215.06a1.23,1.23,0,1,1-1-1.4A1.24,1.24,0,0,1,552.23,215.06Z"/><path class="cls-2" d="M563.1,221.21a1.17,1.17,0,0,1-1.38.88,1.09,1.09,0,1,1,1.38-.88Z"/><path class="cls-2" d="M554.63,223.81a1.15,1.15,0,1,1-1-1.23A1.11,1.11,0,0,1,554.63,223.81Z"/><path class="cls-2" d="M543.09,210.81a.84.84,0,1,1-.71-1A.85.85,0,0,1,543.09,210.81Z"/><path class="cls-2" d="M540.52,208.33a1,1,0,1,1-.85-1.07A1,1,0,0,1,540.52,208.33Z"/></g><path class="cls-23" d="M509,79.38s-3.11,8.93-5.05,12a10.08,10.08,0,0,0,1.17,11.65s2.33,4.66-3.5,5-5.43,1.56-4.27,3.5,6.21,7,3.5,8.15-4.66,1.94-8.55,3.5-6.6,6.21-2.71,5.82,4.47,1.79,3.7,4.9-1.64,2.11-5.13,1c-4.66-5.82-6.69-2.56-2.42-8a30.19,30.19,0,0,1,11.61-8.72c2.33-1.17,1.94-3.11-2.72-5.82s-8.15-5-3.88-5.83,13.2.39,10.87-3.88,1.56-9.32-5.43-7.77-6.6,6.6-12.43,5.44-17.08-7-11.65-11.26,7.77-9.71,16.31-4.27,10.87,7.76,12,5.43S502.35,75.11,509,79.38Z"/><path class="cls-24" d="M439.92,86.42l9,2.07s3.62,3.87,7.24,2.58c0,0,1.8,1.81,5.94,1.29,0,0,2.59,3.62,4.91,3.62s2.07,0,3.88,1.29,9.82,3.88,12.4,3.88,6.47-.75,14-7.46c0,0,4.35,0,5.13,1.78a3.42,3.42,0,0,0,3.1-.78c1.55-1.29,6.82-4.37,7.75-9.56.87-4.81,1-5.87.05-7.26a13.52,13.52,0,0,0-2.89-2.56s-1.29-1.81-2.07-.78-1.29,4.91-3.36,6.2-3.62,2.33-4.13,4.91,0,4.4-1.81,3.11-.78-2.33-2.85-3.88S493.67,81.25,488,82s-7.76,2.58-11.38,2.84-9.82,0-10.33,1.29-1.72,1.76-3.11.7a10.06,10.06,0,0,0-4.91-1.73,9.82,9.82,0,0,1-4.39-.78c-1.29-.77-5.43-2.58-5.43-2.58Z"/><path class="cls-25" d="M465.09,88a8.4,8.4,0,0,0,.83-1.25c.42-.74.42-1.41,1.25-1.49s5.48-.33,7.81-.42a22.56,22.56,0,0,0,7.48-1.82c2.32-1,5.89-1.17,7.22-1.25s2.91-.17,5.4,1.91,2.41,2.24,2.83,3.07,1.49,2.08,2,2.08.58.17.66-1.41.67-4.32,2.25-5.4,3.4-1.91,4.07-4.07,1.16-2.9,1.25-3.31a.74.74,0,0,1,1.31-.41c.76.64,2.92,2.47,3.75,3.3s1.17,4.41.75,6.4-3.24,8.47-6.64,10.38-4.3,1.84-5.55.68c0,0-2.58-1.67-4.83,0s-3,3-6,4.78c-2.81,1.66-6.48,1.66-10.55,1.08s-8.76-2.59-9.53-3.52a4.39,4.39,0,0,0-3.51-1.31c-1.5,0-3.08-.24-3.83-2.15A28.89,28.89,0,0,1,465.09,88Z"/><path class="cls-26" d="M490.31,85.64,480,89.26c-4.39,1.55-6.72,4.4-4.13,7s7.24,4.39,9.56,4.39,5.69-.25,9.05-4.65c0,0,5.42-4.39,8-.51,0,0,2.58.77,6.2-2.85s5.95-7.49,4.91-14.47c0,0-1.81.52-5.68,5.94s-2.07,8.27-5.95,7S495.48,85.39,490.31,85.64Z"/><path class="cls-27" d="M488.76,87.2s-3.88,2.58-5.17,5.42-1,6.21,2.59,7-.78,1-.78,1-3.88-1-4.39-3.36.77-5.42.77-5.42a34.25,34.25,0,0,0-5.94.77C474.55,93.14,481,87.2,488.76,87.2Z"/><path class="cls-27" d="M493.41,87.2s5.69,2.58-1.81,11.62C491.6,98.82,497,91.07,493.41,87.2Z"/><path class="cls-28" d="M510.47,81.51S506.33,89,508.15,89s3.87-1.8,5.16-3.87c0,0-3.88,7.49-6.72,9s-5.17,2.07-3.36-3.36S510.47,81.51,510.47,81.51Z"/><path class="cls-29" d="M475.83,94.2s2.74,2.37,4,2.74.91,1.64,2,2.55C481.86,99.49,476.2,97.85,475.83,94.2Z"/><path class="cls-29" d="M513.26,80.87a13.26,13.26,0,0,0-3.84,5.48S510.88,79.23,513.26,80.87Z"/><path class="cls-30" d="M474.46,94.11a26,26,0,0,1-5.88,2,6.46,6.46,0,0,1,2.27,1.24c1.15.95,7.45,4.24,14.84,3.69C485.69,101.09,475.15,100.27,474.46,94.11Z"/><path class="cls-30" d="M508.83,74.12a23.45,23.45,0,0,1,4.36,3.45S509.79,80,509.52,81s-1.65,2.47-3.43,4-3.15,3.29-3.15,4-1.09,1.1-.82-.68-1-3.29,1.1-4.93,4.38-2.74,4.79-4.52S507.05,77,508.83,74.12Z"/><path class="cls-30" d="M496.1,85.89s-.69.27.68,1.64S498.83,90,499.66,90s.25-.18-.56-1.25-1.91-3-1.91-3S496.23,85.21,496.1,85.89Z"/><path class="cls-30" d="M494.59,83.7s0,2.74-.82,2.6a10.86,10.86,0,0,0-4.38-.14c-1.78.42-6.71,2.06-8.9,2.88s-1.65,2.33-5.34,1.23-5.34-2-6.85-2.19-2.87-.82-1.64-1a11.71,11.71,0,0,1,4.38.55c2.33.55,2.33.69,4.79-.41s2.6-2.74,4.79-3.7,10.57-3.79,14.46.16"/><path class="cls-31" d="M463.88,87.38l-.46,3.8a4.67,4.67,0,0,1-2.33,1.24,9.57,9.57,0,0,1-3.28-.55,8.75,8.75,0,0,0,2.6-.55c.68-.41,1.09-2.19,1-3a9.53,9.53,0,0,0-.55-1.78A4.59,4.59,0,0,1,463.88,87.38Z"/><path class="cls-31" d="M447.26,82.56l-7.52,3.8,6.83,1.57s-.13-4,1.38-4.82S448.63,82,447.26,82.56Z"/><path class="cls-32" d="M463.88,87.38s-4.29-2.08-5.94-2.22C457.94,85.16,459.4,86.73,463.88,87.38Z"/><path class="cls-32" d="M451.4,85l-.41,3.7S449.62,85.56,451.4,85Z"/><path class="cls-30" d="M450.82,83.79a3.66,3.66,0,0,0-1.09,2.47,30.34,30.34,0,0,1,0,3.56,7.41,7.41,0,0,1-1.92-1.1c-.27-.41,0-1.1-.14-2.46s.14-1.92.69-2.2a11.49,11.49,0,0,1,3.56-1C452.47,83.24,453.15,83.93,450.82,83.79Z"/><path class="cls-30" d="M454.79,84.75a5,5,0,0,1,.69,2.33c0,1.23-.14,2.46-.14,2.46a2.46,2.46,0,0,1-1.91,1.23c-1.37.14-3.47-1.55-3.47-1.55s-1.19-.5-.23.6A9.79,9.79,0,0,0,453,91.73s2.49.18,3.37-.73a7.66,7.66,0,0,0,1.29-3.1s-.14-2.47-1-3a37.15,37.15,0,0,0-4.79-1.78s-.2.29.52.72A12.26,12.26,0,0,0,454.79,84.75Z"/><path class="cls-33" d="M449.73,84.89v2l-2.06-.68s-.13-1.1.28-1.51S449.73,84.89,449.73,84.89Z"/><path class="cls-34" d="M457.4,86.39s-.83-.54-1,.55-.82,4.52-1.37,4.66C455.07,91.6,458.08,90.36,457.4,86.39Z"/><path class="cls-35" d="M408.05,97.48a27.43,27.43,0,0,0-.82-8.21c-1.09-3.56-6.57-20.26-7.12-29.3A58.86,58.86,0,0,1,402,41.9a36.85,36.85,0,0,1,3-8.77c1.64-3.56,6-13.14,9-18.07S425.3,3,433.24,2.19,441.73,0,447.48,0,459.26,2.19,462,2.74s7.66,3.56,10.68,5.75,7.39,4.65,10.68,6.84,13.69,9.31,17.8,16.16,10.13,16.43,9.85,20a4.16,4.16,0,0,0,.28,4.11c1.37,2.19.27,1.37-1.1,2.74a33.43,33.43,0,0,1-10.4,5.47c-3.29.82-14,3.56-21.09,6S456,80,450.5,83.25,435.16,92,430,94.47s-12,4.11-14.79,3.84S408.05,97.48,408.05,97.48Z"/><path class="cls-36" d="M489.65,20.26s4.11,11-3.83,12.05-4.38,7.4-18.07,13.42-24.92,11-27.39,19.72S439,80.51,437.63,84.89s.27,6.3,4.1,3.28,13.42-7.12,18.62-9.85,15.34-7.67,20-8.77,15.06-4.1,18.35-5.2,12.32-4.93,13.14-7.12c0,0,.83-.18-.82-3.28,0,0-.54-1.65,0-2.47s.37-3.38-1.46-6.48-4.19-7.85-7.12-12.23S492.21,21.82,489.65,20.26Z"/><path class="cls-37" d="M443.1,2.28s-6.93,4.2-8.4,5.3,1.28-2.38-.18-1.65-4.75,3.29-6.39,4.38a7.56,7.56,0,0,1,3.11-3.65C433.61,5.2,439.45,1.19,443.1,2.28Z"/><path class="cls-37" d="M457.34,3.56S446.57,7,443.83,9.4s-.73-2-4.2-.18-10,6.21-6.75,2.92,11.32-9,13.87-9.68S459.9,3.19,457.34,3.56Z"/><path class="cls-37" d="M469.57,7s-5.47-2.37-9.13-2.37S444.75,9.22,440.36,16c0,0,0,1.1,3.65-1.27s6.39-4.57,8-4.39-2.56,2.74-2.92,4.2,1.46,0,3.1-1.64a10.74,10.74,0,0,1,6.21-3.47C461.72,8.67,471.4,7.94,469.57,7Z"/><path class="cls-37" d="M476.69,12s-10-.55-14.06.73-15.51,7.48-14.78,8.76,6-1.64,10.59-3.65,4.92,0,8.58-1.1,10.22-2.92,13-2.92A6.26,6.26,0,0,0,476.69,12Z"/><path class="cls-37" d="M486.55,17.8a14.87,14.87,0,0,0-5.66-1.46c-2.74,0-13.14,2.55-16.06,3.28s-10,7.12-7.67,6.21a67.71,67.71,0,0,1,8.4-2.37,49.74,49.74,0,0,0,6.75-1.83,17.16,17.16,0,0,1,7.12-1.27c3.29,0,6.21-.55,7.12.18s1.83,1.28-.37,1.46-6.57-.37-9.31,1.46-8.94,6-4.38,5.11,7.31-2.19,10.77-3.29,5.84-.36,6.21-1.27S490.93,21.09,486.55,17.8Z"/><path class="cls-37" d="M492.57,22.91s1.1,4.38-.36,5.66-.36,2.56-2.37,3.65-8,4-3.47,3.29,9.86-1.28,10,1.09,1.09,9.13-2.19,11.32-8.4,5.66-8.4,8.4.73,4.75-1.46,5.66-3.65,4.93-.37,4.38a39.47,39.47,0,0,0,8-1.83c4.74-1.46,7.85-1.64,11-3.28s4.38-2.92,6.21-3.65,1.09,2,1.82-.73-.73-3.47,0-5.39,0-3.38-1.46-6.48-6.2-12.41-8.94-15.52A38.55,38.55,0,0,0,492.57,22.91Z"/><path class="cls-38" d="M498.05,31.13a6.63,6.63,0,0,0-.18,3.83c.55,2,2.37,2.37,3.47,5.66s-.19,3.65-.92,6,2.19,4.2.19,5.11-3.84,3.47,1.27,4,7.49,3.29,8,.91,1.1-1.64.18-5.84,1.1-3.1-1.64-8.76S497.69,26,496.59,25.83s-2.37,0-.73,1.46S498.6,30.4,498.05,31.13Z"/><path class="cls-39" d="M424.85,9.4s-3.29,2.38-4,5.48-1.83,6,.73,4.93,1.1-1.1,5.66-.19,4.75,1.65,7.85-2,10.4-9,11.68-9.13a9.21,9.21,0,0,1-1.82,2c-1.28,1.09-6.76,5.66-5.84,6.75s.73,2.56-.37,4-.91,6.2,2.92,2.55S455,11.78,457,11,467.2,9.58,469.39,10s1.28.73-1.46.73-9.49,2-12.23,3.47-8.58,6.21-9.13,7.48-5.48,6.21-1.28,5.11,7.49-3.28,10-4.56,13.51-6.21,17-6.75c0,0,.73.73-1.82,1.46s-9.86,3.83-13.88,7.66S452.05,29.66,455,30s4.75,1.46,8.94-1.46,7.31-5.48,9.31-6.21a28.45,28.45,0,0,1,7.85-1.46c2.19,0,1.46.19-1.82.73s-9.13,4.57-10,6-13,13-5.11,10,8.57-2.19,11.13-4.57,5.48-3.28,7.12-4.38,4.75-3.65,5.3-2.74.18,3.11-3.84,5.3S480,37,473.59,39s-9.86,5.29-15.7,6.57a155.15,155.15,0,0,0-22.09,6.93c-8.4,3.29-20.08,6.39-25.38,12.6s-4.92,6.94-4.74,8.76-1.28,1.65-2.56-4.74-3.83-21.73.37-32.5,8.94-19.53,10.59-21.54,8-10.41,14.24-11.87c0,0,4.56-.91,3.46.19S426.85,8.67,424.85,9.4Z"/></g></g></svg>