<svg xmlns="http://www.w3.org/2000/svg" viewBox="0 0 452.93 304.95"><defs><style>.cls-1,.cls-2{fill:none;stroke-miterlimit:10;}.cls-1{stroke:#00a551;}.cls-2{stroke:#00adee;}.cls-3{fill:#f6921e;}.cls-4{fill:#f9a952;}.cls-5{fill:#0a152c;}.cls-6{fill:#1c2740;}.cls-7{fill:#f37721;}.cls-8{fill:#223b74;}.cls-9{fill:#707e9a;}.cls-10{fill:#172b5c;}.cls-11{fill:#1b6495;}.cls-12{fill:#154679;}.cls-13{fill:#2a3c56;}.cls-14{fill:#1c2b46;}.cls-15{fill:#36455b;}.cls-16{fill:#dff0f3;}.cls-17{fill:#38687d;}.cls-18{fill:#326281;}.cls-19{fill:#1f465f;}.cls-20{fill:#2c5669;}.cls-21{fill:#222f48;}.cls-22{fill:#374154;}</style></defs><g id="Calque_2" data-name="Calque 2"><g id="Calque_1-2" data-name="Calque 1"><path class="cls-1" d="M76.92,151.7a64.75,64.75,0,0,1-7.38-6c-3.53-3.37-4.91-5.22-10-10s-16-14.6-20.59-19.2S23.76,98.85,20.54,94.7,14.24,86.25,12.09,84s-3.54-2.15-1.23,1.53,10.29,14.44,12,17.67,10.76,17.51,16.59,23.51,13.06,13.05,19.51,17.2S74.92,152.31,76.92,151.7Z"/><path class="cls-1" d="M69.7,136.33a20.77,20.77,0,0,0-4.15-9.67c-3.53-4.31-19.66-23.51-23.2-28.89S33,81,25.76,74.27,12.24,62,12.24,62s-1.54-1.84-3.53.92-1.85,3.84-.46,5.38,12,10.9,15.05,14S33,93.93,36.36,98.39s5.22,7.83,3.23,6.3S30.68,94.24,26.68,89.94,12.39,75.19,10.09,73.65s-4.61-2.15-2.61.77S12.09,79,16.7,83.49s14,16.13,18.12,22.12,18.59,21.51,21.67,24.89,8.91,9.83,10.6,8.91A5.57,5.57,0,0,0,69.7,136.33Z"/><path class="cls-2" d="M85.52,94.85s-24.43-.92-33-2.15-30-5.22-33.64-5.22-9.37.92-10.76,2.46-1.23,2.61,1.85,2.61,11.83,1.08,19.66,1.08,14.44.15,20.59.46,7.37.61,12.9,1.07S85.06,95.93,85.52,94.85Z"/><path class="cls-2" d="M5,94.85s.77,2.31,4.46,2.46,14.13-.15,21,0,9.53.77,11.83.46,4.15.31,1.38.31-16.89,0-23.19.15-11.37-.15-12.91-.15a27,27,0,0,0-5.07.77,2.88,2.88,0,0,0,2-1.23C5,96.85,3.33,94.09,5,94.85Z"/><path class="cls-2" d="M136.52,86.1s.31,3.53.31,4.3-1.54,1.23-1.69,0-.15-3.23-.15-3.23S135.45,85.48,136.52,86.1Z"/><path class="cls-2" d="M141,86.41a20.08,20.08,0,0,1,.31,3.84c-.16,1.07-1.54,1.53-1.54-.62a12.83,12.83,0,0,0-.31-3.22S140.21,85.18,141,86.41Z"/><path class="cls-2" d="M145,86.25s-.15,3.07-.15,4.3,1.54,1.08,1.69-.61a11.61,11.61,0,0,0,0-2.61S146.36,85.79,145,86.25Z"/><path class="cls-2" d="M99.35,96.85A45.41,45.41,0,0,1,97.5,101c-.77,1.38-.46.46-2.46.31s-4-.16-5.06-.16S87.21,99.62,91.2,99s3.85,1.23,5.38-1.07S100,95.47,99.35,96.85Z"/><path class="cls-3" d="M157,90.32a2.93,2.93,0,0,0-1.85-3.39c-2.45-1.07-12.9-2.91-20.43-2.3S118.12,86.47,113.2,88s-6.14,2.61-11.67,2.46S75,88.62,65.43,88.32s-35.64-.77-42.1-.92S11.2,87.7,9.2,88.93s-1.07,2.15-2.92,3.69S4,95.08,4.9,96.31s-2.15,1.53-3.23,2.76-3.38,3.69.46,5.07,6.61,1.69,10.76,2.61,6.76,2.61,10.44,2.92,11.53,2.77,16,2.77,26.89.3,34.57,0,20.89.46,25.81-.62,10.6-1.23,13.21-2.92,5.68-1.07,8.29-1.84,6.76.61,8.45-1.84,2.61-4.92,5.84-6.46S154.84,93.08,157,90.32Z"/><path class="cls-4" d="M142,92.07s-10.76-.92-17.52.61-16,5.23-19.66,6.76S94.36,101.9,79,102.21s-63.29-1.54-70.67-1.85-2.46-4.3.31-6.14S21.85,89,31.38,89s37.79.62,48.85,1.85,18.13,1.84,23.66,1.53,5.83-2.76,14.44-4,23-4,31-1.84S150,93.3,142,92.07Z"/><path class="cls-5" d="M452.33,182.26c-2.3-7.61-5.76-11.75-17.28-12.68s-15.44,1.85-19.82,5.77c0,0-.92-1.16-4.15-1.39S397.26,173,391,174s-7.37.23-15,.23-15.67-.23-26.73-.23-17.29,1.16-24,2.08a116.42,116.42,0,0,1-13.82,1.38c-5.31.23-8.07-.69-14.75-.92s-15.9,0-21.2,1.15-10.37,1.61-18.9,1.15S239.41,177,227,177s-18-.46-20-1.38-2.77,1.61-4.38-3.92-5.3-18.2-13.37-27.42-12.67-14.75-15-19.59-3.22-7.14-5.07-8.53-2.53-1.38-3.68-3.45-1.85-4.38-4.61-6a18.32,18.32,0,0,0-12.21-2.08c-4.84.92-9.91,3.69-12,4.15s-2.07,1.15-.69,2.07,4.61,1.85,7.61,5.53,5.3,6.23,6.68,8.53.69,2.54,2.3,5.07,6,5.76,8.3,10.6,6,12.67,7.6,17,4.15,11.75,6.69,17.29,2.3,7.14,3.45,9.44,2.54,4.38,2.54,5.07.23,1.85-3.23-.69-11.75-6-17.51-8.29a64.69,64.69,0,0,1-12.22-6.23c-2.76-1.84-4.6-5.07-6.22-5.07s-3.68.23-5.3-.69-2.07-6.22-6.45-7.14-18.9-.69-24.43.46-6.68,6.45-5.76,8.06,1.85.7,4.15,2.31,6.45,5.76,11.29,8.76,6.22,4.61,11.06,6.45,10.14,2.77,14.52,5.3,18,11.52,26.73,17.74,15.21,12.45,20.51,16.82,9.68,6.92,14.52,7.38A153.3,153.3,0,0,0,238,233.19c15.2-2.54,40.55-7.61,45.39-8.76s6.91.23,9.68.69,6.45,1.15,6.45,3.46-.46,4.37-.23,5.76-3.69,1.38-5.53,2.07-4.15,1.38-1.84,2.54,4.84-.46,6.45-1.16.92.46,1.84,2.31,2.31,8.29,7.15,9,5.3-1.39,7.6-1.85a25.54,25.54,0,0,1,7.15-.23c1.61.23,2.07,1.15.92,2.54s-4.15,3.68-6.46,5.76-4.6,3.91-7.14,4.61-3.23,1.61-2.76,2.3,1.84.46,1.84,1.15-.46,2.31,3.46,1.61,4.37-1.84,4.6-3.22,1.39-3.92,3.23-.92,2.07,3.68,3.23,1.84,7.6-7.83,8.75-8.76,1.85-1.38,2.31,1.16a11.73,11.73,0,0,0,1.61,4.38c.69,1.38-1.84,2.07-1.84,4.37s-.46,3.46.69,3.92,3-.92,4.61.69.46,3.69.23,4.84-1.85.92-1.85,2.31A6.49,6.49,0,0,0,339,279c.69,1.15,1.38,1.62,5.76,1.62s7.14,1.61,9.91-.93.69-3,3.22-5.07,3.23-1.84,3.23-3.91-1.84-2.54,1.84-3,5.53-1.15,7.38-4.15,3.45-9.45,6.68-10.14,3.92,2.54,6.45-.92,2.77-3.69,5.07-4.38a4.17,4.17,0,0,0,2.77-4.14c0-1.16,0-2.31-2.54-2.31s-3.92,0-2.3-2.07,1.61-2.77,2.53-5.07,1.15-2.31,3.23-3.23,12.9-8.75,14.52-10.83.69-1.61,3.45-1.38a6,6,0,0,1,4.15,2.07s2.07-.46.23-1.84-.69-.92.69-1.84,1.15-1.85,2.54,0,3.68,3.45,6.68,2.07,5.76-4.15,8.29-4.84a26.74,26.74,0,0,1,5.07-.92c1.85-.23,3-1.15,4.61-4.61s2.54-6,3.92-7.83,2.54-3.46,3.23-4.15C449.57,197.24,454.64,189.87,452.33,182.26Zm-242,25.81c-1.61.69-2.3,2.3-3.45.92s-1.62-3.23-2.77-4.15c0,0,3.69,1.85,5.76,1.85h4.15S212,207.38,210.37,208.07Zm130,53.46c-1.15.23-1.84-1.15-1.61-3.23s-1.39-.23.69-3.22a14.09,14.09,0,0,1,2.07,3.91C341.72,260.38,341.49,261.3,340.34,261.53Zm16.82-18.67c-1.84,2.31-3.46,4.15-3.46,4.15s-1.15-.69.7-3.46,1.61-3.22,2.3-4.37,1.84-2.54,3.23-.46A25.79,25.79,0,0,1,357.16,242.86Z"/><path class="cls-6" d="M138.86,112.13a11.6,11.6,0,0,0,4.15-1.38,17,17,0,0,1,8.45-2.15c4.15-.16,6.76,1.07,9.22-.31s4-3.07,3.07-5.07a30,30,0,0,1-2.15-5.84,15.21,15.21,0,0,0-1.08-3.84c-.46-.77-1.69-3.22-3.53-3.22s-6.61.15-9.07,2.3-3.07,3.07-5.68,3.38-5.84,0-9.22,1.38-4.3,3.07-6.14,3.69-2.77-1.69-3.23.46-.61,2.92,1.69,2.76,4.61,0,2.31.77-8,1.23-8.61,1.54.77.77,4.15,1.38,4.15.62,6.61,1.54S137,112.59,138.86,112.13Z"/><path class="cls-6" d="M136.71,92.77a46.35,46.35,0,0,0-9.83,1.08c-4,1.07-14.9,4.45-20.13,6.14a78.62,78.62,0,0,1-19.66,3.69c-7.07.31-43.32,1.23-51.62.92a161.86,161.86,0,0,1-16.74-1.38c-3.38-.46-13.68-.77-15.21-.92s-4.15-.31-2.92.61,8.14,3.38,10.14,3.54,6.76-.47,12-.47,11.83.62,21.2.31,36.72-1.07,45-1.38a61,61,0,0,0,15.83-2.61c3.68-.92,19.2-7.22,23.5-7.22s8.14.15,8.14.15S138.71,93.54,136.71,92.77Z"/><path class="cls-6" d="M85.25,94.77s-24.43-.92-33-2.15-30-5.22-33.65-5.22-9.37.92-10.75,2.45-1.23,2.62,1.84,2.62,11.83,1.07,19.67,1.07,14.44.15,20.58.46,7.38.62,12.91,1.08S84.78,95.85,85.25,94.77Z"/><path class="cls-6" d="M4.75,94.77s.76,2.3,4.45,2.46,14.13-.16,21.05,0,9.52.77,11.83.46,4.14.31,1.38.31-16.9,0-23.2.15S8.89,98,7.36,98a27.14,27.14,0,0,0-5.07.76,2.9,2.9,0,0,0,2-1.23C4.75,96.77,3.06,94,4.75,94.77Z"/><path class="cls-6" d="M136.25,86s.31,3.54.31,4.3-1.54,1.23-1.69,0a32.09,32.09,0,0,1-.16-3.22S135.17,85.4,136.25,86Z"/><path class="cls-6" d="M140.7,86.32a19.35,19.35,0,0,1,.31,3.84c-.15,1.08-1.54,1.54-1.54-.61a13.38,13.38,0,0,0-.3-3.23S139.94,85.09,140.7,86.32Z"/><path class="cls-6" d="M144.7,86.17s-.16,3.07-.16,4.3,1.54,1.07,1.69-.62a10.89,10.89,0,0,0,0-2.61S146.08,85.71,144.7,86.17Z"/><path class="cls-6" d="M99.07,96.77a44.58,44.58,0,0,1-1.84,4.14c-.77,1.39-.46.47-2.46.31s-4-.15-5.07-.15-2.77-1.54,1.23-2.15,3.84,1.23,5.38-1.08S99.69,95.38,99.07,96.77Z"/><path class="cls-6" d="M101.53,170.81s.61.31,1.38-1.84-.61-3.38,2.77-4.3a134.35,134.35,0,0,1,13.67-2.31c4.46-.61,3.69-1.38,7.37.16s7.84,4.3,9.07,3.22,1.38-3.22,1.38-4.14,2.3.46,4.3,1.38,3.53,2.15,5.22.61a4.38,4.38,0,0,0,1.54-3.38s.46-1.38-2.92-2.61-8.75-2.46-12.9-5.07a35.86,35.86,0,0,0-9.53-4.61c-3.68-1.23-8.14-2.15-10.75-2.92s-6.3-1.38-7.07.16,2.46,4.45-1.69,3.84.46,1.69-6.45-2.61-15.67-6.61-20.74-9.83-8.29-10.76-12.6-15.37S41,93.08,36.39,85.86,27.64,69.73,25.18,66.5s-2.61-4.91-1.69-5.83a2.76,2.76,0,0,1,2.15-.77l-4.76-6.46a25.86,25.86,0,0,0-4-.15c-1.23.15-4,2-4.91,2.15S.91,63.28,1.83,66.35a41.78,41.78,0,0,0,2.3,5.84A8.49,8.49,0,0,0,4,76.64a28.24,28.24,0,0,0,4.15,7.68c1.38,1.69,8.6,10.3,11.06,15.06s8.29,14.29,11.21,18.74,15.06,20.28,24.73,25.66,14.29,8.75,19.05,9.67,5.38,1.08,8.3,2.62a47.82,47.82,0,0,1,10.45,7.68C95.54,166.51,99.53,171.27,101.53,170.81Z"/><path class="cls-7" d="M76.64,151.61a64.7,64.7,0,0,1-7.37-6c-3.54-3.38-4.92-5.22-10-10s-16-14.59-20.58-19.2S23.49,98.76,20.26,94.62,14,86.17,11.81,83.86s-3.53-2.15-1.23,1.54,10.3,14.44,12,17.67,10.75,17.51,16.59,23.5,13.06,13.06,19.51,17.21S74.65,152.23,76.64,151.61Z"/><path class="cls-7" d="M69.42,136.25a20.67,20.67,0,0,0-4.15-9.68c-3.53-4.3-19.66-23.5-23.19-28.88s-9.37-16.75-16.6-23.51S12,61.89,12,61.89s-1.54-1.84-3.54.93S6.59,66.66,8,68.19,20,79.1,23,82.17,32.71,93.85,36.09,98.3s5.22,7.84,3.22,6.3S30.4,94.16,26.41,89.85,12.12,75.11,9.82,73.57s-4.61-2.15-2.62.77S11.81,79,16.42,83.4s14,16.13,18.13,22.12S53.14,127,56.21,130.41s8.91,9.83,10.6,8.91A5.47,5.47,0,0,0,69.42,136.25Z"/><path class="cls-7" d="M127.19,149.15s-2-2.61-7.84-5.07-8-2.45-13.36-5.22S92.62,133,87.55,129.64,66,112,59.59,103.83,36.24,75.11,33.93,71.73s-4-4.15-4-5.38-2.3-6.3-4.3-6.45-4,1.23-2.46,3.68,11.68,20.28,15.21,25.2,14.59,18.59,17.82,23,8.45,10.6,10,12.6,5.68,9.83,8.45,11.52,10.9,5.38,14.9,7.07,9.52,5.22,10.6,5.68,1.84.16,3.22.31,2.31,1.38,1.85-1.69,2-3.69,4.76-2.92Z"/><path class="cls-8" d="M429.34,232.92s2.61,1.53,4.77.15,7.06-5.53,7.83-8.45a3.66,3.66,0,0,0-.77-1.84,36.56,36.56,0,0,0-3.07-2.3s-.77-3.85-3.69-3.85c0,0-1.23.47-1.07-.76s1.07-1.08-.31-3.38-2.76-3.69-2.3-6.46.92-1.53.92-3.53,0-3.23-1.38-1.38S425.81,211,426,214.79c0,0,.16,1.38.16,2.3s-.46,1.85-.46,2.46,1.38,2-.46,2.92a3.57,3.57,0,0,0-1.85,4.76c.92,1.69,2.62,3.08,3.69,2.77,0,0-3.23,9.37-8.6,11.37s-16.29-.77-19.21-14.6l-1.53.92s.46,6.15,4.3,10.6a17.15,17.15,0,0,0,14.59,5.84C421.81,243.67,425.35,240.6,429.34,232.92Z"/><path class="cls-9" d="M431.34,200.66a3.54,3.54,0,0,1,.15,3.38c-.92,1.69-1.22,1.84-1.22,2.61s-.77,1.53-.77.46-1.54.31-1.23-1.38S431.49,199.74,431.34,200.66Z"/><path class="cls-9" d="M427,209s.46,2.92,1.07,2.15.93-1.69,1.69-.46,1.54,2.77,1.54,2.77,1.54,1.23-.31.92-2.15-1.23-2.46,0-2,2.15-2,1.23-.46-1.38.31-1.69,1.68-.31.76-.92a11.35,11.35,0,0,1-1.53-1.23S426.89,208,427,209Z"/><path class="cls-9" d="M437,220.31c-.4.93-1.9,1.18-3.34.56s-2.28-1.89-1.87-2.83,1.9-1.18,3.34-.55S437.4,219.38,437,220.31Z"/><path class="cls-10" d="M426.42,217.86s.31,2.31,1.54,3.23,2-.61,2.46.15a1.7,1.7,0,0,1,.15,1.69c-.15.46-.15,2.46,1.23,1.84s4-2.3,5.07-1.22.16,1.07-.61,1.38-4.92,3.07-5.23,3.69.16,3.07,2.15,1.07,5.07-4.3,5.69-3.23,1.07,2.46-2.31,4.77-5.37,2.92-6.29,1.84-7.69-3.84-7.53-7.22,2.91-3.07,3.07-3.69a10.67,10.67,0,0,0,.15-1.84S425.5,218,426.42,217.86Z"/><path class="cls-8" d="M424.58,170.09s.46-2.31,1.84-2.62,2,.77,2.15-.61-1.84-.92.16-1.38a18.36,18.36,0,0,1,3.69-.46s-.47,2.45.46,2.61,1.84.61,1.84,1.23-.92,1.38-.61,2-.31,2,.76,5.69,4.61,9.68,4.77,12.75a1.25,1.25,0,0,1,1.38,1.23c.15,1.38.92.15.15,1.38s-1.53,1.54.31,1.54,6.15,1.07,7.37,4.76a9.27,9.27,0,0,1-.77,8.45c-1.38,2.46-1.84,3.23-3.84,4s-2,1.38-2.45,2.61-2,3.84-4,.93a17.78,17.78,0,0,1-.46-4c.15-1.23-.92-2.3-1.38-3.07s-1.23-4.46-.62-6.3.16-2.3,0-4.15-.61-1.53-.46-3.22a12.89,12.89,0,0,0-.15-5.38c-.61-2.77-1.08-5.53-1.54-9.06s.62-6.15-.92-6.46-3.22-1.07-4.15-.61-2.3.61-2.76-.31S424.27,171,424.58,170.09Z"/><path class="cls-10" d="M439,193.13s-2,.46-2,1.69,1.85,3.23,3.54,1.84a2.08,2.08,0,0,1-.31,2.92c-1.54,1.54-2.46,4.46-.46,3.07s4.3-2.91,4.92-3.38,2.3.77.3,1.69-7.06,3.23-4.3,2.92,4.61-1.07,4.46.77-2.77,4-.93,3.07,3.69-1.69,3.69-6.76c0,0,1.38-1.38,1.69,1.08,0,0-.31,6.76-5.38,8.6a3.64,3.64,0,0,0-1.84,1.85c-.61,1.38-1.54,2.92-2.61,3.07s-2.61-.46-2.77-3.07,0-3.54-.76-4.46a8.28,8.28,0,0,1-1.39-5.07c.16-1.84.77-4,.46-5.53s-.46-2.61-.46-2.61-2.15-.31,0-1.38S440.1,192.21,439,193.13Z"/><path class="cls-10" d="M427.81,167.78s.76,1.08-.31,1.54a16.49,16.49,0,0,1-2.92.77S425.19,166.86,427.81,167.78Z"/><path class="cls-11" d="M439.6,203.78a26.5,26.5,0,0,1,5-2.89c1.83-.59,4.52-.39,3.34,2.89s-3.34,4.45-4.33,4.52-.59-.33-.06-1.12,1.7-3.67.06-3.34S439,205.42,439.6,203.78Z"/><path class="cls-12" d="M425.49,171.82c-4.45-2.46-9.68-1.38-11.67-.77s-2.77-.46-4.15-.77a3.87,3.87,0,0,0-2.61,0c-1.08.31-.62-.46-2.46-.46s-1.54.16-2.3,1.54.15,1.54-1.23,2-2,1.38-2,4.61,5.68,5.83,5.68,5.83a17.16,17.16,0,0,1,2.77,2.31c4.92,9.52,1.38,16.28.77,18.43s4.76,3.69,4.76,3.69c6.91-11.83-.77-24.89-1.23-26.42s.15-1.39.62-1.54a6.39,6.39,0,0,0,2.61-2.76c.92-1.69,1.38-2.77,1.38-2.77,4.45.46,6.76,7.22,6.61,14s-6,16.74-9.84,21.2-24.12,14.59-24.12,14.59a18.69,18.69,0,0,0-2.45,3.54c15.05-5.23,36.87-19.66,43.93-32.26S430,174.28,425.49,171.82Zm-7.06,34.57c14.74-22.74.46-33.65.46-33.65C445.62,181.35,418.43,206.39,418.43,206.39Z"/><path class="cls-10" d="M404.14,171.36s1.54,3.69,2,4.92,1.53,1.84,1.84,1.07-.61-1.23.92-.92,2.31.15,2.92.92,1.84,2.15,1.84,2.15-2,1.85-1.84,2.31-3.38-1.39-4.15.15-.92,3.23-1.84,2.46a17.23,17.23,0,0,0-2.92-1.69s1.38.46.61-1.38-2.91-4.15-2-4.77,2.3-.76,1.84-1.69a12.07,12.07,0,0,0-1.38-2S402.3,168.9,404.14,171.36Z"/><path class="cls-10" d="M416.43,174.74a16.28,16.28,0,0,0-2,.15c-1.07.16-.61-1.38-2-.92s-.62-.92.92-1.23.76-1.38,2.76-1.38A18.36,18.36,0,0,1,428,175.51c4.46,3.84,2.61,14,1.23,15.82,0,0,2.61-7.68-.77-12.75s-10.29-6.14-10.29-6.14-3.69-.62-2,.3S422,176.43,423,181s3.53,12.9-8.76,28.11c0,0,10.91-14.29,8-25.81C422.27,183.34,421.81,176.58,416.43,174.74Z"/><path class="cls-10" d="M412.59,184s-5.38.3-3.69.77a9,9,0,0,0,3.07.3,1,1,0,0,1-.92,1.39c-1.38.15-1.53,1.53,1.69,1.53,0,0,3.07,1.38.62,2s-4.77.92-2,1.23,5.07,1.23,2.46,1.53-4.15.77-1.85,1.23,3.84,1.69,2,1.85-4.15.61-2.15.76,3.69,1.85,2.3,2-2.91.15-1.53.77,2.76,1.54,1.38,1.69-2.92.77-2.15,1.23,2.92,1.53,2,1.69.3,2.3.3,2.3S419.2,196.09,412.59,184Z"/><path class="cls-10" d="M387.85,226.51s20.44-9.52,29.81-16.59c0,0-20.44,15.21-30.27,17.82C387.39,227.74,386.93,227.74,387.85,226.51Z"/><path class="cls-13" d="M383.59,202.43a19.33,19.33,0,0,0,2.77-5.3,13.5,13.5,0,0,1,6-7.6c3-1.62,6.22-2.77,10.14-1.16s9,7.84,5.76,14.52S396,214.18,392.81,216.72s-6,9.44-7.84,10.6-3.22,1.15-3,2.3,2.53,2.07,0,3.69-7.15.92-8.76,1.38-6.22-.92-7.14-4.84-1.39-4.38,3.45-10.14S381.06,204.5,383.59,202.43Z"/><path class="cls-14" d="M369.3,187.91s-4.15,8.53-4.84,15.9-1.38,19.13,0,16.13,3.23-7.37,6-10.37a27.13,27.13,0,0,0,5.54-8.75,29.52,29.52,0,0,0,1.15-3.69S369.07,185.38,369.3,187.91Z"/><path class="cls-14" d="M361.24,184.92s-17.75,21.2-19.13,29.26-1.84.46-1.61-2.53-1.61-7.15-2.54-9.22-3.22-3.92-.92-6,.23-1.38-.69-2.54-5.53-1.38-1.38-3.91,6.45-6.92,11.29-9,7.6-3,5.07-3.46-3.46-3.22-6.22-2.07-5.53-.69-5.53-.69l5.3-3.46s1.61,2.77,2.76,2.31.23-2.54.23-2.54,1.39-2.07,2.31.46,1.84,4.61,3.22,3-2.76-2.77,1.39-1.62,9,3.92,6.45,4.15-5.3-1.61-4.84-.23,0,3.69-1.15,4.38-16.82,15.9-12.45,12a49.13,49.13,0,0,1,12-8.06C357.55,184,364.23,183.3,361.24,184.92Z"/><path class="cls-15" d="M353.17,217.18l-5.3.92a19,19,0,0,1,.46,4.15c0,2.3-1.15,7.37.23,6.91s7.61-1.61,7.61-1.61,1.61.69-1.62,1.61S349,231,349,231s-2.53.46-2.53-4.84a44.82,44.82,0,0,0-.69-8.52,15.62,15.62,0,0,1,5.53-2.08c2.53-.23,5.07.93,6,5.07s1.61,7.61,2.77,8.76,2.53,2.3,1.15,2.54-5.07-4.61-5.07-8.07l-1.62.23v2.3l-5.06,1.16s.23-4.84.46-6,2.07-.93,3.45-.93S353.86,218.1,353.17,217.18Z"/><path class="cls-14" d="M347.87,251.28a1.74,1.74,0,0,0-.46,3c1.85,1.84,4.15,1.61,1.85,1.84s-4.15-.92-3.92-2.53S346.26,250.82,347.87,251.28Z"/><path class="cls-8" d="M343.26,263.49s-1.38-.46-1.15,1.85-1.61,5.07-1.61,5.07-.92,3.92-1.15,4.84,3.22,4.14,2.07,7.37a98.55,98.55,0,0,1-4.15,9s-3.45,12-8.06,13.13-11.52-2.53-10.14-8.52,3.69-6.23,4.15-8.76.92-6.68,3-9.45a8.65,8.65,0,0,1,6-3.68c2.08-.47,3.23-3,3.69-3.92s1.61.92,2.54,0a5.25,5.25,0,0,0,1.15-4.15c-.23-1.38,1.38-3.69,2.07-4.15S344.88,260,343.26,263.49Z"/><path class="cls-10" d="M334.28,276.4s5.53,3.22,2.53,9-2.07,5.07-5.53,4.6-4.84,0-3,.7,3.69,2.3,3.46,4.14-2.76,6.46-4.61,6.69-10.6-2.77-6.91-8.76c0,0,2.77-3.23,3-5.3s.23-6.68,3-9.45S332,274.33,334.28,276.4Z"/><path class="cls-14" d="M378.75,247.36s-6.22,9-4.84,9a5.87,5.87,0,0,0,3-1.38S382.44,247.59,378.75,247.36Z"/><path class="cls-15" d="M318.61,234.46a6.78,6.78,0,0,0-1.39,4.15,3.48,3.48,0,0,0,2.54,3.22s2.3,0,3-1.38,1.84,1.84.46,2.31a5.92,5.92,0,0,1-5.3,0c-2.77-1.16-2.31-4.38-1.16-8.07C316.76,234.69,318.84,233.08,318.61,234.46Z"/><path class="cls-14" d="M286.81,178.46s-6.46,1.62-10.37,3.92-13.83,6.92-19.82,9.45-22.58,9.91-26.27,11.29-12.67,4.15-12.67,4.15,3.45-.46,6.22-.92,15.21-5.07,22.12-7.84,18.9-8.52,23-9,12.68,6.45,17.29,6.91,14.51,1.38,9.44,2.76-37.33,10.14-47.47,12-13.59,1.15-10.83,3.22,9.91,10.37,13.37,9.45,21.43-3.92,30.19-5.3S295.79,216,303.63,217s14.52,3.68,15.21,2.07-.23-4.61-.46-10.83.23-8.76,1.38-10.83,2.3-2.76-1.61-2.76-10.83,1.38-14.29,1.15-12.21-5.07-9.68-9.45,6-8.53,9.68-8.3S297.87,175.7,286.81,178.46Z"/><path class="cls-14" d="M201.08,203.35s-13.59-11.06-21-14.29-6-1.38-12.9-3.91-13.6-4.84-15.44-5.3a106.42,106.42,0,0,0-13.6-1.85,49.78,49.78,0,0,1-11.29-2.07c-3.68-.92-6.68-1.61-2.53.23s6.45,3,12.67,3,8.53.23,15.9,2.3,12.68,5.07,15.21,5.53,7.38,1.38,10.6,3.23S200.85,204,201.08,203.35Z"/><path class="cls-14" d="M169.74,117.4s3,7.6,6.69,12,19.12,22.58,21.89,33.18.92,9-1.15,11.3-7.15,9-2.31,6.22,10.37-6.45,7.15-3.92-4.38,4.61-.24,3,4.38-1.85,7.61-1.62,13.13,1.16,14.29.92-1.85.7-4.61.93-5.76-2.08-12.91,0-9.68,4.37-9.21,3.22-1.62-1.84-4.15-.23-.69,1.85-4.38-3.68-5.3-9.91-3.46-10.37,14.75,3.22,7.15-9.91-8.53-18.67-12.68-21.9-6.91-4.14-9.91-6.91-5.07-5.07-6.91-4.84-2.76-.46.46-2.07S169.28,118.32,169.74,117.4Z"/><path class="cls-8" d="M390.72,174.53a4,4,0,0,0,1.15-2.77c.23-2.07-.46-2.07-.23-3s.46-3.46.46-3.46a13.75,13.75,0,0,1,2.08-2.07c1.38-1.16,2.53-1.39,1.84-3s-3-2.3-3-2.3h3.46s-3.92-2.77-4.61-3.46a39.69,39.69,0,0,1-2.76-5.07,33.94,33.94,0,0,0,3,3c1.39,1.15,3.46,2.3,4.38,3.45s1.15,3,2.77,3,1.61,1.84,1.61,1.84a13.69,13.69,0,0,0,2.53,2.31,9.35,9.35,0,0,0,3.69.92c2.08.23,3.46.92,3.69,3.68l.23,2.77a7.27,7.27,0,0,1-3.69,1.15c-2.53.23-4.38.92-5.3,2.08S391.18,174.53,390.72,174.53Z"/><path class="cls-10" d="M400.63,163.47a4.14,4.14,0,0,0-2.31-.69c-1.38,0-3,1.61-.69,1.84s5.07,1.84,2.54,2.07-7.61,0-4.15.92,4.84.23,3.46.93a19,19,0,0,1-3.92,1.15s1.61,4.84.46,5.07a10.84,10.84,0,0,0,4.61-.23c2.07-.69,3.69-.92,3.23-2.31l7.14-1.84s.23-2.07-.23-2.77-.23-.92-2.31-1.15-3.22-.46-4.83-.69S401.55,163.93,400.63,163.47Z"/><path class="cls-16" d="M391.64,168.77s-.93.23-2.31,2.07-4.15,4.61-6,5.07-115.34,1.38-118.8,1.38-7.38-.69-8.54-2.76-2.07-12-2.07-18.67.49-18.32,7.15-18.43c4.84-.09,112.8,3.45,115.8,3.91s8.77,2.54,11.54,7.15,2.3,9.91,4.61,9.45,6.23,8.29-.46,10.83"/><path class="cls-17" d="M263.75,157.28c0,10.46-2.23,19.75-5.19,19.75-4.3,0-5.53-9.29-5.53-19.75s2.4-18.93,5.36-18.93S263.75,146.83,263.75,157.28Z"/><path class="cls-18" d="M391.41,166.46h-5.76c-3.46,0-9.22.23-12.67-.23s-4.61-4.61-8.53-3-5.07,2.76-10.37,1.84-10.6-2.3-13.36-2.3-4.84,1.15-6.46-.93-9.21-.92-15.9-.92-9-1.38-12.67-.46-2.77.92-11.52.92a126.18,126.18,0,0,1-18.44-1.15c-2.53-.46-12.21-1.84-12.21-.46s-1.61,11.75-2.77,13.13-3,1.39-4.6-2.3a3.87,3.87,0,0,0,0,3.92c1.15,2.3,1.61,2.3,8.52,2.76s117.87-.88,117.87-.88a15.74,15.74,0,0,0,5.68-3.53C390.76,170.34,392.33,167.38,391.41,166.46Z"/><path class="cls-19" d="M379.43,172.45s-38-2.76-56-4.14-37.56-2.08-44-2.08-15-.92-15.44.69a16.9,16.9,0,0,1-3.23,6c-1.61,1.85-3.19,1.2-4.8-1.11s-.92,3.54.92,4.92,6.84,1.61,14.44,1.38S367,176.8,373,176.57,384.5,174.3,379.43,172.45Z"/><path class="cls-20" d="M259.37,140.65s-3.46,6-3.46,15.9C255.91,156.55,254.76,142.27,259.37,140.65Z"/><path class="cls-21" d="M364.22,176.6s2.77-26-.69-35.26l-2.08-.69s.7-.92,3.23-.92a74.8,74.8,0,0,1,7.6.46c2.08.23,4.61,15.21,2.08,36.87C374.36,177.06,364,177.29,364.22,176.6Z"/><path class="cls-22" d="M375.51,155.17s-.23,4.15-3.69,4.15-6.22-1.38-6.68-7.14-.23-9.22-1.61-10.84-3-1.38.23-1.61,8.52-.69,9.91,3.23S375.51,155.17,375.51,155.17Z"/><path class="cls-5" d="M364.22,176.6a62.68,62.68,0,0,0,1.15-6.22c0-1.15,8.07-3,9.45,0a48.19,48.19,0,0,1-.46,6.68S363.76,178,364.22,176.6Z"/><path class="cls-16" d="M372.42,116.83s0-3.22-1.84-3.22-1.61-1.62-3-1.62-3.68-.46-2.3-1.38,3-4.15,5.76-1.38l.23,2.07s2.07-1.15,2.53.92S372.65,116.37,372.42,116.83Z"/><path class="cls-16" d="M349.84,75.58s2.53,2.08,3.69,1.39,2.53-2.77,2.07-3.92-1.61,1.61-2.54,1.84S347.76,74,349.84,75.58Z"/><path class="cls-16" d="M354.68,70.28a4.58,4.58,0,0,0-4.61-4.84s-3-1.61-4.61-.23-1.61,1.62-2.76.46-3.23-3.68-6.46-1.61a4,4,0,0,0-5.07,1.15s-2.76.23-1.84.93,2.77,2.53,3.46,2.07.69-1.38,2.53-.92,1.61,2.76,2.54,1.84-.69-2.53,1.84-.92.69,2.3,2.53,1.61-.69-.46-1.84.69-2.53,2.54-.23,2.08,4.15-2.77,5.3-2.08a7.51,7.51,0,0,0,4.38,1.39c2.07,0,2.53-.93.69-1.16s-4.84-.92-3.23-1.61,5.53-.46,6.23,1.38S354.68,70.28,354.68,70.28Z"/><path class="cls-16" d="M340.85,81.58c0-.84-1.84-1.85-1.84-1.85s-2.31.69-1.38,2.31.69,2.3-.23,3.45-1.16,3.69.69,2.08S339,85,341.54,84.8s6.69-1.61,4.84-2.53S340.85,83.88,340.85,81.58Z"/><path class="cls-16" d="M316.89,70.28a4.43,4.43,0,0,1-2.54,0c-.92-.46-3.22-1.15-4.61-.23s-.46-.23,2.31-1.84S315.5,67.75,316.89,70.28Z"/><path class="cls-16" d="M317.58,73.28s.23-1.84,2.53-1.15,2.77,3.45,2.77,3.45S318.73,73.05,317.58,73.28Z"/><path class="cls-16" d="M355.37,107.84s-2.54-2.3-3.69-1.84-3,.69-2.07,1.84S353.3,106.92,355.37,107.84Z"/><path class="cls-16" d="M286.47,19.82s1.61-3.92,5.3-2.08,4.15,4.38,3.22,3.92-1.61-1.84-3.68-1.38-4.15,2.07-2.54,2.07,3.23-1.84,5.07.23-.46,1.85-2.07,1.85S289.7,26.5,289,26s.23-.23-1.38-2.3S283.93,21,286.47,19.82Z"/><path class="cls-16" d="M304.9,31.57c1.24-2.26-3.22-2.53-1.61-2.53s1.38,1.61,1.61,0,.69-1.39-1.84-2.08-3.69-1.38-2.77-2.53,1.16-3.69,2.54-2.77,0,.23.23,1.61-2.07.47.23,1.39,1.84,1.38,3,2.3,3.22,3,2.76,3.69.23,3.45.23,3.45,1.38,1.39-1.15,1.16S303.52,34.1,304.9,31.57Z"/><path class="cls-16" d="M303.29,38c-1.61,1.62-1.84-4.84-2.53-3.45s.88,2.9-.23,3.45c-2.31,1.15-3.92,3.69-1.62,3.46s1.85-3.23,3.46-1.84.46,1.15,1.15,3.22-2.07,7.38.69,6,1.62-2.07,1.38-3.68-1.84-1.62-.23-3.46A6.11,6.11,0,0,0,307,38S304.44,36.87,303.29,38Z"/><path class="cls-16" d="M301.68,58.76s-.23.23.23,1.38-.69,3,.69,3.46,1.15,3.46,2.53,2.31-1.84-1.62-.46-3,2.08-3.46.92-3.92S303.75,56.69,301.68,58.76Z"/><path class="cls-16" d="M309.51,72.13c-.63.28-3.45-.69-3,.46S308.13,74,310,73.74s.69-2.77,1.85-.23S311.13,76,313,76s1.61,1.62,3,1.39,3.23-.23.93-1.62-.93-1.84-2.54-3S313.66,70.28,309.51,72.13Z"/><path class="cls-16" d="M406.76,159.92c-.75-1.5-1.85-2.53-3-2.53s-2.76-.23-2.76,1.15,1.15,1.61,2.07,1.61-1.15-1.61.92,0,.92,2.31,2.08,1.62S407.68,161.77,406.76,159.92Z"/><path class="cls-16" d="M409.52,162.92c-.66.3-.69.69.92,1.61s1.85.92,2.08,0S411.6,162,409.52,162.92Z"/><path class="cls-16" d="M398.92,139.88s-2.53.69-.23,1.84.69,2.07,2.31,1.15S402.38,137.57,398.92,139.88Z"/><path class="cls-16" d="M361.59,123.51c-1.14.5-.46-.69-2.76.23s-3.46,2.54-1.62,2.54.93-.46,3-.46,3.22-.23,3.92-.23S366.89,121.21,361.59,123.51Z"/><path class="cls-16" d="M331.4,95.4c-1.73.25-3.45,2.54-1.84,2.77s1.38-.46,3.46-.23S334.63,94.94,331.4,95.4Z"/><path class="cls-16" d="M295.69,7.37c.29-2.61-1.57-3.38-5.07-3-2.08.23-1.39-2.54-4.38-2.77s-5.53,2.77-5.53,2.77a2.25,2.25,0,0,0,2.76,1.15c1.85-.69,3.69-1.61,3.92-.46s1.61,3,2.54,2.07.92-2.07,2.07-.92S295.46,9.45,295.69,7.37Z"/><path class="cls-16" d="M304.9,7.37c1.12-.74.69-.92,3.69-.69a33.44,33.44,0,0,0,5.3,0s-.92-3-3.69-2.76S306.52,6,305.13,5.07s-1.61-2.3-3.45-.92-1.39,2.07.23,2.07S302.83,8.76,304.9,7.37Z"/><path class="cls-16" d="M302.14,16.13c-1.71-.57-.23-1.61-2.31-1.84S296.38,12.67,298,12s3.46.23,3.46.92-2.31,0,0,.7S304.21,16.82,302.14,16.13Z"/><path class="cls-16" d="M306.75,20.05s2.07-5.07,4.61-1.15l-3,.69S307.21,21.89,306.75,20.05Z"/><path class="cls-16" d="M294.07,34.22c0,.45-.72.81-1.61.81s-1.61-.36-1.61-.81.72-.81,1.61-.81S294.07,33.77,294.07,34.22Z"/><path class="cls-16" d="M294.3,30.3a.53.53,0,0,1-.46.58.53.53,0,0,1-.46-.58.52.52,0,0,1,.46-.57A.52.52,0,0,1,294.3,30.3Z"/><path class="cls-16" d="M297.3,33.07c0,.32-.16.57-.35.57s-.34-.25-.34-.57.15-.58.34-.58S297.3,32.75,297.3,33.07Z"/><path class="cls-16" d="M298.45,30a.81.81,0,1,1-.81-.92A.87.87,0,0,1,298.45,30Z"/><path class="cls-16" d="M296.15,39.17a.82.82,0,1,1-.81-.69A.76.76,0,0,1,296.15,39.17Z"/><path class="cls-16" d="M296.15,44c0,.51-.31.93-.69.93s-.7-.42-.7-.93.31-.92.7-.92S296.15,43.5,296.15,44Z"/><path class="cls-16" d="M301.91,44.47a1.28,1.28,0,1,1-1.27-1.15A1.22,1.22,0,0,1,301.91,44.47Z"/><path class="cls-16" d="M311.59,43.78c0,.51-.26.92-.58.92s-.58-.41-.58-.92.26-.92.58-.92S311.59,43.27,311.59,43.78Z"/><path class="cls-16" d="M310.2,39.52a.7.7,0,1,1-.69-.58A.64.64,0,0,1,310.2,39.52Z"/><path class="cls-16" d="M311.59,35.83c0,.58-.31,1-.7,1s-.69-.46-.69-1,.31-1,.69-1S311.59,35.26,311.59,35.83Z"/><path class="cls-16" d="M313.2,32.49a.59.59,0,1,1-.58-.46A.53.53,0,0,1,313.2,32.49Z"/><path class="cls-16" d="M315.27,29.15c0,.32-.46.58-1,.58s-1-.26-1-.58.46-.58,1-.58S315.27,28.83,315.27,29.15Z"/><path class="cls-16" d="M315.73,26.27c0,.26-.41.46-.92.46s-.92-.2-.92-.46.41-.46.92-.46S315.73,26,315.73,26.27Z"/><path class="cls-16" d="M309.74,25.12a1,1,0,1,1-1-.92A1,1,0,0,1,309.74,25.12Z"/><path class="cls-16" d="M313.66,23.16c0,.32-.15.58-.35.58s-.34-.26-.34-.58.15-.58.34-.58S313.66,22.84,313.66,23.16Z"/><path class="cls-16" d="M280.48,12.67c0,.77-.47,1.39-1,1.39s-1-.62-1-1.39.47-1.38,1-1.38S280.48,11.91,280.48,12.67Z"/><path class="cls-16" d="M282.78,16.71c0,.44-.51.8-1.15.8s-1.15-.36-1.15-.8.51-.81,1.15-.81S282.78,16.26,282.78,16.71Z"/><path class="cls-16" d="M283.93,14.4a.57.57,0,0,1-.57.58.58.58,0,0,1-.58-.58.57.57,0,0,1,.58-.57A.56.56,0,0,1,283.93,14.4Z"/><path class="cls-16" d="M281.4,20.74c0,.51-.31.92-.69.92s-.69-.41-.69-.92.31-.92.69-.92S281.4,20.23,281.4,20.74Z"/><path class="cls-16" d="M277.94,18.44c0,.5-.26.92-.57.92s-.58-.42-.58-.92.26-.93.58-.93S277.94,17.93,277.94,18.44Z"/><path class="cls-16" d="M275.87,14.06a.47.47,0,0,1-.46.46.46.46,0,0,1-.46-.46.45.45,0,0,1,.46-.46A.46.46,0,0,1,275.87,14.06Z"/><path class="cls-16" d="M277,9.1a1,1,0,1,1-2.07,0,1,1,0,0,1,2.07,0Z"/><path class="cls-16" d="M279.79,7.6c0,.51-.26.93-.58.93s-.58-.42-.58-.93.26-.92.58-.92S279.79,7.1,279.79,7.6Z"/><path class="cls-16" d="M284.86,10.83a1.16,1.16,0,1,1-1.16-1.15A1.15,1.15,0,0,1,284.86,10.83Z"/><path class="cls-16" d="M290.16,13.13A1.16,1.16,0,1,1,289,12,1.16,1.16,0,0,1,290.16,13.13Z"/><path class="cls-16" d="M292.23,47.24c0,.51-.31.92-.69.92s-.69-.41-.69-.92.31-.92.69-.92S292.23,46.73,292.23,47.24Z"/><path class="cls-16" d="M297.3,48.51a1.16,1.16,0,1,1-1.15-1A1.1,1.1,0,0,1,297.3,48.51Z"/><path class="cls-16" d="M295.23,51.73c0,.58-.31,1-.7,1s-.69-.46-.69-1,.31-1,.69-1S295.23,51.16,295.23,51.73Z"/><path class="cls-16" d="M292.46,52a.93.93,0,1,1-.92-1A1,1,0,0,1,292.46,52Z"/><path class="cls-16" d="M291.54,43.44a1.16,1.16,0,1,1-1.15-1A1.1,1.1,0,0,1,291.54,43.44Z"/><path class="cls-16" d="M292.92,41a.69.69,0,1,1-.69-.69A.69.69,0,0,1,292.92,41Z"/><path class="cls-16" d="M288.77,40.21a.7.7,0,0,1-1.38,0,.7.7,0,0,1,1.38,0Z"/><path class="cls-16" d="M287.16,45.28A1.16,1.16,0,1,1,286,44,1.22,1.22,0,0,1,287.16,45.28Z"/><path class="cls-16" d="M287.85,48.62a.59.59,0,1,1-.58-.46A.53.53,0,0,1,287.85,48.62Z"/><path class="cls-16" d="M295.69,68.79c0,.7-.78,1.26-1.73,1.26s-1.73-.56-1.73-1.26.77-1.27,1.73-1.27S295.69,68.09,295.69,68.79Z"/><path class="cls-16" d="M300.06,72.13a1,1,0,1,1-1-.92A1,1,0,0,1,300.06,72.13Z"/><path class="cls-16" d="M296.38,74.43c0,.51-.31.92-.69.92s-.7-.41-.7-.92.31-.92.7-.92S296.38,73.92,296.38,74.43Z"/><path class="cls-16" d="M293.38,73.28c0,.38-.41.69-.92.69s-.92-.31-.92-.69.41-.69.92-.69S293.38,72.9,293.38,73.28Z"/><path class="cls-16" d="M312.05,85.26c0,.51-1,.92-2.19.92s-2.19-.41-2.19-.92,1-.92,2.19-.92S312.05,84.75,312.05,85.26Z"/><path class="cls-16" d="M310.2,81.92c0,.32-.56.58-1.26.58s-1.27-.26-1.27-.58.57-.58,1.27-.58S310.2,81.6,310.2,81.92Z"/><path class="cls-16" d="M308.36,78.81a.58.58,0,1,1-.58-.69A.64.64,0,0,1,308.36,78.81Z"/><path class="cls-16" d="M305.59,75.81c0,.51-.67.93-1.49.93s-1.5-.42-1.5-.93.67-.92,1.5-.92S305.59,75.31,305.59,75.81Z"/><path class="cls-16" d="M309.51,76.39c0,.19-.51.35-1.15.35s-1.15-.16-1.15-.35.51-.35,1.15-.35S309.51,76.2,309.51,76.39Z"/><path class="cls-16" d="M319.42,82.61c0,.45-.62.81-1.38.81s-1.38-.36-1.38-.81.61-.8,1.38-.8S319.42,82.17,319.42,82.61Z"/><path class="cls-16" d="M327.49,84.23c0,.82-1,1.49-2.31,1.49s-2.3-.67-2.3-1.49,1-1.5,2.3-1.5S327.49,83.4,327.49,84.23Z"/><path class="cls-16" d="M330.71,83.53a1.07,1.07,0,1,1-1-.8A.94.94,0,0,1,330.71,83.53Z"/><path class="cls-16" d="M326.57,79.85a.35.35,0,0,1-.7,0,.35.35,0,1,1,.7,0Z"/><path class="cls-16" d="M337.4,108.77c0,.51-.62.92-1.39.92s-1.38-.41-1.38-.92.62-.93,1.38-.93S337.4,108.26,337.4,108.77Z"/><path class="cls-16" d="M342,108.54a.69.69,0,1,1-.69-.7A.69.69,0,0,1,342,108.54Z"/><path class="cls-16" d="M336,103.7a.69.69,0,1,1-.69-.69A.69.69,0,0,1,336,103.7Z"/><path class="cls-16" d="M342,101.51c0,.57-.82,1-1.84,1s-1.84-.46-1.84-1,.82-1,1.84-1S342,100.94,342,101.51Z"/><path class="cls-16" d="M339.93,97.71a.59.59,0,1,1-.58-.47A.53.53,0,0,1,339.93,97.71Z"/><path class="cls-16" d="M343.85,96.9a.81.81,0,1,1-.81-.81A.81.81,0,0,1,343.85,96.9Z"/><path class="cls-16" d="M339.24,93.1c0,.38-.47.69-1,.69s-1-.31-1-.69.46-.69,1-.69S339.24,92.72,339.24,93.1Z"/><path class="cls-16" d="M343.39,91.94a1.19,1.19,0,1,1-1.16-.92A1.07,1.07,0,0,1,343.39,91.94Z"/><path class="cls-16" d="M347.3,91.94a.92.92,0,1,1-.92-.92A.93.93,0,0,1,347.3,91.94Z"/><path class="cls-16" d="M340.39,115.68c0,.38-.41.69-.92.69s-.92-.31-.92-.69.41-.69.92-.69S340.39,115.3,340.39,115.68Z"/><path class="cls-16" d="M345.23,115.22c0,.38-.52.69-1.15.69s-1.15-.31-1.15-.69.51-.69,1.15-.69S345.23,114.84,345.23,115.22Z"/><path class="cls-16" d="M342.93,119.71a.7.7,0,1,1-.7-.8A.76.76,0,0,1,342.93,119.71Z"/><path class="cls-16" d="M336.7,119.83c0,.25-.36.46-.8.46s-.81-.21-.81-.46.36-.46.81-.46S336.7,119.57,336.7,119.83Z"/><path class="cls-16" d="M350.3,118.44c0,.39-.41.7-.92.7s-.92-.31-.92-.7.41-.69.92-.69S350.3,118.06,350.3,118.44Z"/><path class="cls-16" d="M356.06,116.26c0,.44-.93.8-2.07.8s-2.08-.36-2.08-.8.93-.81,2.08-.81S356.06,115.81,356.06,116.26Z"/><path class="cls-16" d="M358.37,119.83c0,.25-.32.46-.7.46s-.69-.21-.69-.46.31-.46.69-.46S358.37,119.57,358.37,119.83Z"/><path class="cls-16" d="M348.92,113.72a.53.53,0,0,1-.46.58.6.6,0,0,1,0-1.16A.53.53,0,0,1,348.92,113.72Z"/><path class="cls-16" d="M346.84,110.61c0,.25-.41.46-.92.46s-.92-.21-.92-.46.41-.46.92-.46S346.84,110.36,346.84,110.61Z"/><path class="cls-16" d="M342.23,111.76a.52.52,0,0,1-.57.46.53.53,0,0,1-.58-.46.53.53,0,0,1,.58-.46A.52.52,0,0,1,342.23,111.76Z"/><path class="cls-16" d="M338.32,111.88a.71.71,0,0,1-1.39,0,.71.71,0,0,1,1.39,0Z"/><path class="cls-16" d="M369.89,129.28c0,.5-.67.92-1.5.92s-1.5-.42-1.5-.92.67-.93,1.5-.93S369.89,128.77,369.89,129.28Z"/><path class="cls-16" d="M375,128.47c0,.32-.57.58-1.27.58s-1.27-.26-1.27-.58.57-.58,1.27-.58S375,128.15,375,128.47Z"/><path class="cls-16" d="M385.33,128.24c0,.44-.67.81-1.5.81s-1.5-.37-1.5-.81.67-.81,1.5-.81S385.33,127.79,385.33,128.24Z"/><path class="cls-16" d="M378.64,127.09c0,.44-.2.8-.46.8s-.46-.36-.46-.8.21-.81.46-.81S378.64,126.64,378.64,127.09Z"/><path class="cls-16" d="M373.8,124.67a.46.46,0,0,1-.46.46.47.47,0,0,1-.46-.46.46.46,0,0,1,.46-.46A.45.45,0,0,1,373.8,124.67Z"/><path class="cls-16" d="M371.5,125.24a1.29,1.29,0,1,1-1.27-1A1.17,1.17,0,0,1,371.5,125.24Z"/><path class="cls-16" d="M368.74,120.75a.7.7,0,1,1-.7-.69A.69.69,0,0,1,368.74,120.75Z"/><path class="cls-16" d="M362.74,128.7a.7.7,0,1,1-.69-.58A.64.64,0,0,1,362.74,128.7Z"/><path class="cls-16" d="M366.2,133a.46.46,0,0,1-.46.46.45.45,0,0,1-.46-.46.46.46,0,0,1,.46-.46A.47.47,0,0,1,366.2,133Z"/><path class="cls-16" d="M370.35,134a.53.53,0,0,1-.46.58.6.6,0,0,1,0-1.16A.53.53,0,0,1,370.35,134Z"/><path class="cls-16" d="M376.8,138c0,.38-.41.69-.92.69s-.92-.31-.92-.69.41-.69.92-.69S376.8,137.65,376.8,138Z"/><path class="cls-16" d="M383.25,135.73a.81.81,0,1,1-.8-.69A.75.75,0,0,1,383.25,135.73Z"/><path class="cls-16" d="M387.4,135.73c0,.25-.46.46-1,.46s-1-.21-1-.46.46-.46,1-.46S387.4,135.47,387.4,135.73Z"/><path class="cls-16" d="M391.55,131.23c0,.32-.41.58-.92.58s-.93-.26-.93-.58.42-.57.93-.57S391.55,130.92,391.55,131.23Z"/><path class="cls-16" d="M393.62,127.89c0,.38-.51.69-1.15.69s-1.15-.31-1.15-.69.51-.69,1.15-.69S393.62,127.51,393.62,127.89Z"/><path class="cls-16" d="M263.42,4.49c0,.58-.77,1-1.72,1s-1.73-.46-1.73-1,.77-1,1.73-1S263.42,3.92,263.42,4.49Z"/><path class="cls-16" d="M265.73,7.26c0,.32-.41.57-.92.57s-.92-.25-.92-.57.41-.58.92-.58S265.73,6.94,265.73,7.26Z"/><path class="cls-16" d="M268.73,10.37c0,.25-.37.46-.81.46s-.81-.21-.81-.46.36-.46.81-.46S268.73,10.11,268.73,10.37Z"/><path class="cls-16" d="M266,11.87a.58.58,0,0,1-1.15,0,.58.58,0,1,1,1.15,0Z"/><path class="cls-16" d="M269.65,14.63c0,.19-.31.35-.69.35s-.7-.16-.7-.35.31-.34.7-.34S269.65,14.44,269.65,14.63Z"/><path class="cls-16" d="M265.5,15.79a.93.93,0,1,1-.92-1A1,1,0,0,1,265.5,15.79Z"/><path class="cls-16" d="M260.43,17.86c0,.32-.36.58-.81.58s-.8-.26-.8-.58.36-.58.8-.58S260.43,17.54,260.43,17.86Z"/><path class="cls-16" d="M258.82,20.05a.59.59,0,1,1-.58-.69A.64.64,0,0,1,258.82,20.05Z"/><path class="cls-16" d="M257.2,23.39a.7.7,0,1,1-.69-.81A.76.76,0,0,1,257.2,23.39Z"/><path class="cls-16" d="M261.35,24.31c0,.32-.15.58-.35.58s-.34-.26-.34-.58.15-.57.34-.57S261.35,24,261.35,24.31Z"/><path class="cls-16" d="M267.8,26.62c0,.31-.72.57-1.61.57s-1.61-.26-1.61-.57.72-.58,1.61-.58S267.8,26.3,267.8,26.62Z"/><path class="cls-16" d="M272.64,23.85c0,.32-.41.58-.92.58s-.92-.26-.92-.58.41-.58.92-.58S272.64,23.53,272.64,23.85Z"/><path class="cls-16" d="M278.63,26.38a.7.7,0,1,1-.69-.8A.76.76,0,0,1,278.63,26.38Z"/><path class="cls-16" d="M281.63,25.46a.93.93,0,1,1-.92-.8A.87.87,0,0,1,281.63,25.46Z"/><path class="cls-16" d="M284.86,24.77a.71.71,0,0,1-1.39,0,.71.71,0,0,1,1.39,0Z"/><path class="cls-16" d="M283.7,30.19c0,.38-.82.69-1.84.69s-1.84-.31-1.84-.69.82-.69,1.84-.69S283.7,29.81,283.7,30.19Z"/><path class="cls-16" d="M287.62,28.69c0,.32-.46.58-1,.58s-1-.26-1-.58.46-.58,1-.58S287.62,28.37,287.62,28.69Z"/><path class="cls-16" d="M289.46,29.5A.46.46,0,0,1,289,30a.47.47,0,0,1-.46-.46A.46.46,0,0,1,289,29,.45.45,0,0,1,289.46,29.5Z"/><path class="cls-16" d="M276.79,1.84c0,.77-1,1.39-2.3,1.39s-2.31-.62-2.31-1.39,1-1.38,2.31-1.38S276.79,1.08,276.79,1.84Z"/><path class="cls-16" d="M280.48,1.15c0,.13-.21.23-.46.23s-.46-.1-.46-.23.2-.23.46-.23S280.48,1,280.48,1.15Z"/><path class="cls-16" d="M274,6c0,.51-.77.92-1.72.92s-1.73-.41-1.73-.92.77-.92,1.73-.92S274,5.48,274,6Z"/><ellipse class="cls-16" cx="306.4" cy="11.75" rx="2.42" ry="1.15"/><path class="cls-16" d="M310.43,14.86c0,.19-.36.35-.8.35s-.81-.16-.81-.35.36-.34.81-.34S310.43,14.67,310.43,14.86Z"/><path class="cls-16" d="M313.89,12.79c0,.32-.67.58-1.5.58s-1.5-.26-1.5-.58.68-.58,1.5-.58S313.89,12.47,313.89,12.79Z"/><path class="cls-16" d="M316.2,10.14c0,.13-.57.23-1.27.23s-1.27-.1-1.27-.23.57-.23,1.27-.23S316.2,10,316.2,10.14Z"/><path class="cls-16" d="M318.73,13.13c0,.26-.41.47-.92.47s-.92-.21-.92-.47.41-.46.92-.46S318.73,12.88,318.73,13.13Z"/><path class="cls-16" d="M317.35,16.94c0,.19-.62.34-1.39.34s-1.38-.15-1.38-.34.62-.35,1.38-.35S317.35,16.75,317.35,16.94Z"/><path class="cls-16" d="M256.28,30.07c0,.32-.41.58-.92.58s-.92-.26-.92-.58.41-.57.92-.57S256.28,29.75,256.28,30.07Z"/><path class="cls-16" d="M262.73,33.76c0,.32-.36.58-.8.58s-.81-.26-.81-.58.36-.58.81-.58S262.73,33.44,262.73,33.76Z"/><path class="cls-16" d="M270.8,32.84c0,.44-.72.8-1.61.8s-1.62-.36-1.62-.8.72-.81,1.62-.81S270.8,32.39,270.8,32.84Z"/><path class="cls-16" d="M272,84.57a.81.81,0,1,1-.81-.69A.76.76,0,0,1,272,84.57Z"/><path class="cls-16" d="M287.62,103.93a.69.69,0,1,1-.69-.69A.69.69,0,0,1,287.62,103.93Z"/><path class="cls-16" d="M275.18,96.09a.6.6,0,0,1-1.16,0,.6.6,0,0,1,1.16,0Z"/><path class="cls-16" d="M275.87,109.92c0,.64-.36,1.15-.81,1.15s-.8-.51-.8-1.15.36-1.15.8-1.15S275.87,109.28,275.87,109.92Z"/><path class="cls-16" d="M301.91,84.34a.82.82,0,1,1-.81-.69A.76.76,0,0,1,301.91,84.34Z"/><path class="cls-16" d="M300.06,79.73a.52.52,0,0,1-.57.46.53.53,0,0,1-.58-.46.53.53,0,0,1,.58-.46A.52.52,0,0,1,300.06,79.73Z"/><path class="cls-16" d="M296.84,81.34a.65.65,0,0,1-.58.7.71.71,0,1,1,.58-.7Z"/><path class="cls-16" d="M291.31,80.08a.7.7,0,1,1-.69-.81A.75.75,0,0,1,291.31,80.08Z"/><path class="cls-16" d="M294.3,77.89c0,.25-.41.46-.92.46s-.92-.21-.92-.46.41-.46.92-.46S294.3,77.63,294.3,77.89Z"/><path class="cls-16" d="M294.3,84.46a.93.93,0,1,1-.92-.81A.87.87,0,0,1,294.3,84.46Z"/><path class="cls-16" d="M299.14,88.49a.46.46,0,0,1-.46.46.47.47,0,0,1-.46-.46.46.46,0,0,1,.46-.46A.45.45,0,0,1,299.14,88.49Z"/><path class="cls-16" d="M302.83,69a.7.7,0,1,1-.69-.58A.64.64,0,0,1,302.83,69Z"/><path class="cls-16" d="M300.06,65.1a.93.93,0,1,1-.92-.81A.87.87,0,0,1,300.06,65.1Z"/><path class="cls-16" d="M296.38,63.14a.82.82,0,1,1-.81-.69A.76.76,0,0,1,296.38,63.14Z"/><path class="cls-16" d="M297.53,57.15c0,.38-.16.69-.35.69s-.34-.31-.34-.69.15-.69.34-.69S297.53,56.77,297.53,57.15Z"/><path class="cls-16" d="M302.14,53.92a.69.69,0,1,1-.69-.69A.69.69,0,0,1,302.14,53.92Z"/><path class="cls-16" d="M309.05,54.5a1.07,1.07,0,0,1-2.07,0,1.07,1.07,0,0,1,2.07,0Z"/><path class="cls-16" d="M301.91,49.43c0,.44-.52.81-1.15.81s-1.16-.37-1.16-.81.52-.81,1.16-.81S301.91,49,301.91,49.43Z"/><path class="cls-16" d="M322,39.52c0,.57-.73,1-1.62,1s-1.61-.47-1.61-1,.72-1,1.61-1S322,39,322,39.52Z"/><path class="cls-16" d="M316.66,37.45c0,.19-.26.34-.58.34s-.58-.15-.58-.34.26-.35.58-.35S316.66,37.25,316.66,37.45Z"/><path class="cls-16" d="M317.81,33.87a.53.53,0,0,1-.58.47.47.47,0,1,1,0-.93A.53.53,0,0,1,317.81,33.87Z"/><path class="cls-16" d="M278.17,42.29c0,.19-.67.34-1.49.34s-1.5-.15-1.5-.34.67-.35,1.5-.35S278.17,42.09,278.17,42.29Z"/><path class="cls-16" d="M278.86,37c0,.19-.31.34-.69.34s-.69-.15-.69-.34.31-.35.69-.35S278.86,36.79,278.86,37Z"/><path class="cls-16" d="M284.39,36.75a.94.94,0,0,1-1,.81.83.83,0,1,1,0-1.61A.94.94,0,0,1,284.39,36.75Z"/><path class="cls-16" d="M288.54,36.52a1.07,1.07,0,1,1-1-.8A.94.94,0,0,1,288.54,36.52Z"/><path class="cls-16" d="M281.63,42.86c0,.26-.41.46-.92.46s-.92-.2-.92-.46.41-.46.92-.46S281.63,42.61,281.63,42.86Z"/><path class="cls-16" d="M281.86,47.24a.59.59,0,0,1-1.15,0,.59.59,0,0,1,1.15,0Z"/><path class="cls-16" d="M286.47,51c0,.45-.57.81-1.27.81s-1.27-.36-1.27-.81.57-.8,1.27-.8S286.47,50.6,286.47,51Z"/><path class="cls-16" d="M287.62,54.61c0,.39-.82.7-1.84.7s-1.85-.31-1.85-.7.83-.69,1.85-.69S287.62,54.23,287.62,54.61Z"/><path class="cls-16" d="M292.69,56.34c0,.32-.41.58-.92.58s-.92-.26-.92-.58.41-.57.92-.57S292.69,56,292.69,56.34Z"/><path class="cls-16" d="M245.45,25.46c0,.32-.62.58-1.38.58s-1.38-.26-1.38-.58.61-.57,1.38-.57S245.45,25.14,245.45,25.46Z"/><path class="cls-16" d="M247.76,22.81c0,.38-.78.69-1.73.69s-1.73-.31-1.73-.69.77-.69,1.73-.69S247.76,22.43,247.76,22.81Z"/><path class="cls-16" d="M250.75,21.32c0,.31-.51.57-1.15.57s-1.15-.26-1.15-.57.51-.58,1.15-.58S250.75,21,250.75,21.32Z"/><path class="cls-16" d="M249.83,17.17c0,.32-.41.57-.92.57s-.92-.25-.92-.57.41-.58.92-.58S249.83,16.85,249.83,17.17Z"/><path class="cls-16" d="M252.82,15.9a.23.23,0,0,1-.23.23.23.23,0,0,1,0-.46A.23.23,0,0,1,252.82,15.9Z"/><path class="cls-16" d="M244.76,12.56a.93.93,0,1,1-.92-.81A.87.87,0,0,1,244.76,12.56Z"/><path class="cls-16" d="M250.06,9.68c0,.25-.57.46-1.27.46s-1.27-.21-1.27-.46.57-.46,1.27-.46S250.06,9.42,250.06,9.68Z"/><path class="cls-16" d="M245.68,6.34c0,.32-.46.57-1,.57s-1-.25-1-.57.46-.58,1-.58S245.68,6,245.68,6.34Z"/><path class="cls-16" d="M249.37,3.57c0,.19-.47.35-1,.35s-1-.16-1-.35.47-.34,1-.34S249.37,3.38,249.37,3.57Z"/><path class="cls-16" d="M254.44,6.68c0,.13-.52.23-1.15.23s-1.16-.1-1.16-.23.52-.23,1.16-.23S254.44,6.56,254.44,6.68Z"/><path class="cls-16" d="M254.9,3.23a.53.53,0,0,1-.58.46.52.52,0,0,1-.57-.46.52.52,0,0,1,.57-.46A.53.53,0,0,1,254.9,3.23Z"/><path class="cls-16" d="M258.59,9.22a1.16,1.16,0,1,1-1.16-1.15A1.16,1.16,0,0,1,258.59,9.22Z"/><path class="cls-16" d="M258.12,5.88c0,.19-.2.34-.46.34s-.46-.15-.46-.34.21-.35.46-.35A.42.42,0,0,1,258.12,5.88Z"/><ellipse class="cls-16" cx="259.62" cy="0.35" rx="1.27" ry="0.35"/><path class="cls-16" d="M267.8,1.38a1.55,1.55,0,0,1-3,0,1.55,1.55,0,0,1,3,0Z"/><path class="cls-16" d="M270.8.23c0,.13-.26.23-.58.23s-.57-.1-.57-.23.25-.23.57-.23S270.8.1,270.8.23Z"/><path class="cls-16" d="M321.5,101.39c0,.64-.83,1.15-1.85,1.15s-1.84-.51-1.84-1.15.82-1.15,1.84-1.15S321.5,100.76,321.5,101.39Z"/><path class="cls-16" d="M324.49,97.59c0,.19-.31.35-.69.35s-.69-.16-.69-.35.31-.35.69-.35S324.49,97.4,324.49,97.59Z"/><path class="cls-16" d="M327,100.93c0,.26-.31.46-.7.46s-.69-.2-.69-.46.31-.46.69-.46S327,100.68,327,100.93Z"/><path class="cls-16" d="M325,91.94c0,.26-.36.47-.8.47s-.81-.21-.81-.47.36-.46.81-.46S325,91.69,325,91.94Z"/><path class="cls-16" d="M333.94,71.21c0,.63-1.6,1.15-3.57,1.15s-3.58-.52-3.58-1.15,1.6-1.16,3.58-1.16S333.94,70.57,333.94,71.21Z"/><path class="cls-16" d="M335.32,75.24c0,.19-.46.34-1,.34s-1-.15-1-.34.46-.35,1-.35S335.32,75.05,335.32,75.24Z"/><path class="cls-16" d="M331.17,76.27a.81.81,0,1,1-.8-.69A.75.75,0,0,1,331.17,76.27Z"/><path class="cls-16" d="M329.33,75.7c0,.44-.67.8-1.5.8s-1.5-.36-1.5-.8.67-.81,1.5-.81S329.33,75.25,329.33,75.7Z"/><path class="cls-16" d="M333.94,79.73a.64.64,0,0,1-.58.69.7.7,0,0,1,0-1.38A.64.64,0,0,1,333.94,79.73Z"/><path class="cls-16" d="M314.12,90.1a.81.81,0,1,1-.81-.69A.76.76,0,0,1,314.12,90.1Z"/><path class="cls-16" d="M319.42,90.22c0,.44-.51.8-1.15.8s-1.15-.36-1.15-.8.51-.81,1.15-.81S319.42,89.77,319.42,90.22Z"/><path class="cls-16" d="M319,95.29a.93.93,0,1,1-.92-.81A.87.87,0,0,1,319,95.29Z"/><path class="cls-16" d="M324.49,89c0,.13-.36.23-.81.23s-.8-.1-.8-.23.36-.23.8-.23S324.49,88.82,324.49,89Z"/><path class="cls-16" d="M330,90.68a1,1,0,1,1-1-1A1,1,0,0,1,330,90.68Z"/><path class="cls-16" d="M331.63,86.41c0,.13-.2.23-.46.23s-.46-.1-.46-.23.21-.23.46-.23S331.63,86.29,331.63,86.41Z"/><path class="cls-16" d="M335.55,90.22a.81.81,0,1,1-.81-.81A.8.8,0,0,1,335.55,90.22Z"/><path class="cls-16" d="M347.53,124.9a1.18,1.18,0,1,1-1.15-.92A1.05,1.05,0,0,1,347.53,124.9Z"/><path class="cls-16" d="M351.68,128c0,.32-.41.57-.92.57s-.92-.25-.92-.57.41-.58.92-.58S351.68,127.69,351.68,128Z"/><path class="cls-16" d="M350.76,124.09c0,.19-.31.35-.69.35s-.69-.16-.69-.35.31-.35.69-.35S350.76,123.9,350.76,124.09Z"/><path class="cls-16" d="M356.52,131.12c0,.25-.46.46-1,.46s-1-.21-1-.46.46-.46,1-.46S356.52,130.86,356.52,131.12Z"/></g></g></svg>