<svg xmlns="http://www.w3.org/2000/svg" viewBox="0 0 452.98 390.71"><defs><style>.cls-1{fill:#b8538a;}.cls-2{fill:#d8b294;}.cls-3{fill:#e79eac;}.cls-4{fill:#c75966;}.cls-5{fill:#f2edf3;}.cls-6{fill:#42699c;}.cls-7{fill:#5b243f;}.cls-8{fill:#d3719d;}.cls-9{fill:#779bb6;}.cls-10{fill:#79240a;}.cls-11{fill:#b51d06;}</style></defs><g id="Calque_2" data-name="Calque 2"><g id="Calque_1-2" data-name="Calque 1"><path class="cls-1" d="M406.38,52.83c-2.6-5.7-6.66-10.59-11-15.13a30,30,0,0,0-6.89-5.79,17.67,17.67,0,0,0-6.49-2,49.48,49.48,0,0,1,11,7.81c6.71,6.23,12.26,15,10.78,24.06A27.14,27.14,0,0,1,400.1,71c-6.35,10.82-16.67,19.46-28.75,22.87-5.16,1.45-10.56,2-15.68,3.57-9.08,2.83-16.77,8.91-23.75,15.37-6.54,6-12.7,12.59-19.91,17.8a8.7,8.7,0,0,0,2.28,1.09c3.58-1.06,6.95-3.86,9.58-6.5a175.9,175.9,0,0,1,14.67-13.16,32.87,32.87,0,0,1,7.94-5.1c14.87-6.07,31.36-9.43,45-17.87,7.11-4.4,14.2-10,16.67-18C410,65.12,409,58.52,406.38,52.83Z"/><path class="cls-2" d="M346.48,107a32.87,32.87,0,0,0-7.94,5.1,175.9,175.9,0,0,0-14.67,13.16c-2.63,2.64-6,5.44-9.58,6.5a7.26,7.26,0,0,1-3.63-2.34c-.88-1.17-1.38-4-.2-4.86A126.68,126.68,0,0,0,332,104.11c1.94-2.33,3.86-4.88,4.29-7.88.4-2.79-.55-5.64-.05-8.41a15.24,15.24,0,0,1,3.43-7.59c.08-5.18,0-10.76,1.78-15.61a41.17,41.17,0,0,1,5.16-9q2.58-3.69,5.31-7.28c4.42-5.83,9.27-11.56,15.63-15.17s14.56-4.75,21-1.22a30,30,0,0,1,6.89,5.79c4.31,4.54,8.37,9.43,11,15.13S410,65.12,408.17,71.1c-2.47,8-9.56,13.6-16.67,18C377.84,97.54,361.35,100.9,346.48,107Z"/><path class="cls-3" d="M284.42,119l9.18,3.11c3.17,0,7.11.13,9.21-2.25-.27-1.74,2-3.47,3.5-4.39l7-4.26a26.16,26.16,0,0,1,3.91-1.57c3.78-1.55,11.32,2.83,14.52,4.16a3.65,3.65,0,0,1,2.24,1.76c.66,1.77-1.6,3.24-3.48,3.41-3.75.33-5.8,1.77-9.16.08.74,7.4-3.52,12.74-8.88,17.91a51.25,51.25,0,0,0-6.1,7.5c-3.54,5-10,6.84-16,8.3-4.42-1.88-9.87-5.22-12.61-9.15a72.79,72.79,0,0,1-6.64-12.75,5,5,0,0,1-.55-2,4.52,4.52,0,0,1,1.13-2.53,21.17,21.17,0,0,1,8.38-6.55C281.07,119.32,283.42,119.46,284.42,119Z"/><path class="cls-4" d="M315,117.67c.34,3.72-4.18,6.22-4.77,9.92-.13.8-.06,1.63-.22,2.43a5.73,5.73,0,0,1-2.71,3.64,12.21,12.21,0,0,1-4.41,1.46,15.62,15.62,0,0,0,5.24,4.59,77.21,77.21,0,0,1,7.23-10.4c3.31-3.79,7.6-7.15,9.45-12,1.17-3.07.1-3.51-2.37-1.89C321.93,115.79,315.13,118.8,315,117.67Z"/><path class="cls-4" d="M330.82,126.35a20.67,20.67,0,0,1-3.74,4.9c-2.31,2-5.37,2.9-8.33,3.73L311.37,137a2.22,2.22,0,0,1-1.11.11c-1.12-.3-1-2-.45-3a16.06,16.06,0,0,1,6.53-6.33,47.9,47.9,0,0,1,8.53-3.45c1.83-.61,6.86-3.23,8.43-2.18A31.92,31.92,0,0,1,330.82,126.35Z"/><path class="cls-4" d="M301.43,121.37a22.67,22.67,0,0,1-2.22,6.24c-2,3.65-8.2,3.88-9.22,7.92a27.49,27.49,0,0,1,8.38-3.56A68.6,68.6,0,0,0,287,144.7a2.72,2.72,0,0,1-1.09,1.09,2.61,2.61,0,0,1-1.91-.17,23.44,23.44,0,0,1-8.77-6,45.74,45.74,0,0,0,2.47,4c2.74,3.93,8.19,7.27,12.61,9.15,6-1.46,12.48-3.27,16-8.3a51.25,51.25,0,0,1,6.1-7.5l.33-.32a21.24,21.24,0,0,1-6.48-3.69C303,130.1,300.77,125.7,301.43,121.37Z"/><path class="cls-3" d="M291,147a1.64,1.64,0,0,0,1.83-.12,4.86,4.86,0,0,0,1.22-1.51c1.06-1.74,5.51-6.77,3.71-8.72C296.51,137.24,289.06,145.62,291,147Z"/><path class="cls-3" d="M207.85,233.69c-13.4-4.66-27.56-9.39-41.5-6.76l-3.3-.25c-8.25,9.5-11.38,22.28-14.24,34.54a177,177,0,0,0-4,20.89c-1.79,16.14.85,32.51-.72,48.67a94,94,0,0,1-4.51,21c-.54,1.59-1.13,3.28-.72,4.91.7,2.78,3.89,4.07,6.72,4.55,4.25.72,9.22.32,11.94-3,3.3-4.05,1.62-10,1.65-15.2,0-12.56,10.61-22.53,13.92-34.64,2.19-8,1.08-16.5,1.51-24.79s3-17.35,10.09-21.71c3.4-2.1,7.44-2.85,11.23-4.13A41,41,0,0,0,217.19,241C215.81,237.66,211.28,234.88,207.85,233.69Z"/><path class="cls-3" d="M395.2,356.54c-10-19.39-35.28-25.71-48.55-43.05-1.73-2.27-3.28-4.75-5.54-6.5-2.66-2.07-6-2.93-9.21-4a53.39,53.39,0,0,1-24.09-17.19c-4-5.11-7.14-11-11.82-15.5-6.39-6.17-15.7-9.91-19.14-18.1,1.82-2.93,4-7.47,5.79-10.4,3.42-5.47,7.1-11.2,12.83-14.16,4.37-2.25,9.44-2.63,14.35-2.95,7.87,7.9,11.72,19.58,16.43,29.69a85.79,85.79,0,0,0,27.45,33.18c6.9,5,14.6,9,20.5,15.1,3.69,3.83,6.55,8.36,9.56,12.74a190.63,190.63,0,0,0,32.35,36.07c1.27,1.1,2.65,2.37,2.76,4a5.21,5.21,0,0,1-1.88,3.82C410.9,365.2,399.09,364.08,395.2,356.54Z"/><path class="cls-3" d="M207.85,233.69c-13.4-4.66-27.56-9.39-41.5-6.76l-3.3-.25c-8.25,9.5-11.38,22.28-14.24,34.54a177,177,0,0,0-4,20.89c-1.79,16.14.85,32.51-.72,48.67-.19,1.94-.44,3.86-.75,5.78a39.67,39.67,0,0,0,16.55.76c2.44-10,10.41-18.73,13.2-29,2.19-8,1.08-16.5,1.51-24.79s3-17.35,10.09-21.71c3.4-2.1,7.44-2.85,11.23-4.13A41,41,0,0,0,217.19,241C215.81,237.66,211.28,234.88,207.85,233.69Z"/><path class="cls-3" d="M399.7,335.43a191.49,191.49,0,0,1-15.94-20.07c-3-4.38-5.87-8.91-9.56-12.74-5.9-6.12-13.6-10.12-20.5-15.1a85.79,85.79,0,0,1-27.45-33.18c-4.71-10.11-8.56-21.79-16.43-29.69-4.91.32-10,.7-14.35,2.95-5.73,3-9.41,8.69-12.83,14.16-1.82,2.93-4,7.47-5.79,10.4,3.44,8.19,12.75,11.93,19.14,18.1,4.68,4.52,7.79,10.39,11.82,15.5A53.39,53.39,0,0,0,331.9,303c3.18,1.11,6.55,2,9.21,4,2.26,1.75,3.81,4.23,5.54,6.5,10.11,13.21,27.18,20,39.16,31.11C391.21,342.5,396.2,339.66,399.7,335.43Z"/><path class="cls-4" d="M207.85,233.69c-13.4-4.66-27.56-9.39-41.5-6.76l-3.3-.25a42.05,42.05,0,0,0-3.92,5.34,27.79,27.79,0,0,1,10.43,2.14c5.4,2.2,10.14,5.75,14.61,9.49,2.11,1.76,4.33,3.86,4.61,6.6s-1.59,5.39-3.37,7.61c-2.35,3-5.35,6.21-9.12,5.9-3.29-.28-5.62-3.18-8.38-5A13.93,13.93,0,0,0,156.65,257c-.54.75,0,1.86.86,2.3a19.46,19.46,0,0,0,2.65.84,4.51,4.51,0,0,1,2.69,5.08c-.88,3.76-6.2,5.09-7.16,8.83a7.87,7.87,0,0,0,8.31,2c1.11-.42,2.24-1.1,3.4-.85s1.75,2.19.61,2.54c-2.71,6.5-6.58,13.12-9.36,19.6-5.61,13.08-5.47,27.77-6.9,41.93a83.88,83.88,0,0,1-4.89,22.12c3.93.43,8.19-.19,10.64-3.2,3.3-4.05,1.62-10,1.65-15.2,0-12.56,10.61-22.53,13.92-34.64,2.19-8,1.08-16.5,1.51-24.79s3-17.35,10.09-21.71c3.4-2.1,7.44-2.85,11.23-4.13A41,41,0,0,0,217.19,241C215.81,237.66,211.28,234.88,207.85,233.69Z"/><path class="cls-4" d="M377.51,329.3c-9.08-7.11-21.66-11.82-25-22.85-.86-2.88-1-6-2.35-8.66s-4.65-4.78-7.33-3.43a25.22,25.22,0,0,0,5.95,8.36,10.58,10.58,0,0,1-10.61-5.12c-1.86-3.32-2.1-7.89-5.38-9.81-2.05-1.2-4.61-.89-7-1.14-8.77-.94-14.43-9.46-18.82-17.11-3.54-6.17-7.18-12.62-7.62-19.72-.57-9.23,4.24-17.58,9.93-25.14-4.76.32-9.63.74-13.86,2.92-5.73,3-9.41,8.69-12.83,14.16-1.82,2.93-4,7.47-5.79,10.4,3.44,8.19,12.75,11.93,19.14,18.1,4.68,4.52,7.79,10.39,11.82,15.5A53.39,53.39,0,0,0,331.9,303c3.18,1.11,6.55,2,9.21,4,2.26,1.75,3.81,4.23,5.54,6.5,13.27,17.34,38.53,23.66,48.55,43.05a11.77,11.77,0,0,0,6.41,5.53q-1.62-2.76-3.22-5.52C392.59,346.6,386.58,336.4,377.51,329.3Z"/><path class="cls-5" d="M193,184.63c-2.13,2.66-5.07,4.52-7.76,6.62-9,7-15.44,16.78-21.67,26.36-2.79,4.28-5.62,8.68-6.72,13.66a38,38,0,0,1,33.88,12.65c4.26,5,7.31,11.21,12.78,14.84a5.46,5.46,0,0,0,3.6,1.17,6.36,6.36,0,0,0,2.66-1.24l25.15-16.85c8.66,2.85,15.37,7.36,23.11,12.18s16.33,9.08,25.45,8.91c-1.95-9,2.69-18.58,10.05-24.09s16.95-7.38,26.13-6.92c-1.28-13.18-21.43-16.91-22.37-30.12-.19-2.68.51-5.53-.6-8a11.7,11.7,0,0,0-3.41-3.88l-11.84-10a13.69,13.69,0,0,0-4.37-2.83,13.9,13.9,0,0,0-5.75-.22C246.11,179.51,218.23,182,193,184.63Z"/><path class="cls-6" d="M241.81,199.92c7.56.39,15.18.24,22.64,1.57s14.89,4.3,20,9.91c-7.23-3.62-15.75-3-23.84-2.75a208.29,208.29,0,0,1-33.86-1.75c-3.18-.43-31.94-7.94-26.34-13.91,1.65-1.76,16.81,3.75,19.67,4.3A157.64,157.64,0,0,0,241.81,199.92Z"/><path class="cls-6" d="M292.76,204c.59,0,1.38-.31,1.31-.91a21.22,21.22,0,0,1-7.13-6.12,12.46,12.46,0,0,0-3.08-3.45c-1.84-1.15-4.19-.93-6.35-.66l-9,1.1c-2.22.27-4.58.51-6.33,1.58C271.87,198.28,282.47,204.59,292.76,204Z"/><path class="cls-3" d="M141.62,108.87,126.33,118a46.56,46.56,0,0,1-8.56,4.35,46.7,46.7,0,0,1-9.11,1.83A173.71,173.71,0,0,1,89.89,126c-17.94.37-37-4.9-54.91-3.88-4.88,4-12.32,2.88-17.89,5.91-3,1.65-5.28,4.41-7.82,6.75A4.94,4.94,0,0,1,7.33,136c-.74.21-2.53,0-3-.65a4,4,0,0,1-1.65.18,1.39,1.39,0,0,1-1.18-1A2,2,0,0,1,2,133.14a42.7,42.7,0,0,1,9.12-9.57c-3,1.48-7,4.09-9,6.81-.77.1-1.38-.69-1.59-1.44a5.78,5.78,0,0,1,1.38-5.1,17.32,17.32,0,0,1,4.33-3.35c2.2-1.35,4.28-2.7,6.48-4l-9.44,4c-.86.37-2.58.71-3-.12-.77-1.46.47-3.14,1.7-4.23a30.89,30.89,0,0,1,12.67-6.72c3.27-.85,6.89-2.16,9.16-4.66-1.78-1.24-3-3-4.74-4.2a5.9,5.9,0,0,1-5.87-1.87,2.49,2.49,0,0,1-.7-2.12c.19-.75,1.75-1.19,2.39-.76A9.14,9.14,0,0,0,19,97l4.35.52c2.91.35,5.89.71,8.51,2,3.29,1.68,5.6,6,9.29,6.24q11.65.69,23.33.77a59.8,59.8,0,0,0,10.79-.61c8.88-1.55,17-6.77,26-7.19,4.18-.2,8.46.65,12.51-.39a27.35,27.35,0,0,0,7.59-3.73C129,98.29,135.76,102.66,141.62,108.87Z"/><path class="cls-4" d="M18.61,113a14.82,14.82,0,0,0-5.3.5c-3.12.91-5.79,2.89-8.46,4.73a37.35,37.35,0,0,1-4.13,2.56,4,4,0,0,0,2.53-.28l5-2.12.41-.23C12,116.31,15.23,114.78,18.61,113Z"/><path class="cls-4" d="M6.91,124c-2,1.94-3.74,4.21-5.81,6a1.18,1.18,0,0,0,1,.39A24,24,0,0,1,9,124.73a73.15,73.15,0,0,1,12.46-8.14A27.58,27.58,0,0,0,6.91,124Z"/><path class="cls-4" d="M23.44,111c2.27,1.39,5,1.72,7.65,2-2.54-1-4.06-3.51-5.62-5.75A18.33,18.33,0,0,0,23.55,105a14.25,14.25,0,0,1-4.89,3.11,11.26,11.26,0,0,1,1.86.87C21.54,109.57,22.42,110.39,23.44,111Z"/><path class="cls-4" d="M15,124.32a26,26,0,0,0-6.92,4.61c-2,2.07-3.57,4.85-5.88,6.45a1.72,1.72,0,0,0,.48.17,4,4,0,0,0,1.65-.18l0,0A51.36,51.36,0,0,1,15,124.32Z"/><path class="cls-4" d="M122.39,95.14q.63,2.86,1.25,5.71c.5,2.26,1,4.75-.15,6.78-1.84,3.35-6.72,3.44-9.52,6A13.64,13.64,0,0,0,122,116c-1.52,3.69-5.85,5.49-9.85,5.61s-7.92-1-11.9-1.43c-7-.69-14,1-20.92,2a143.47,143.47,0,0,1-19.88,1.3c10.22,1.23,20.48,2.74,30.4,2.54a173.71,173.71,0,0,0,18.77-1.78,46.7,46.7,0,0,0,9.11-1.83,46.56,46.56,0,0,0,8.56-4.35l15.29-9.15A65,65,0,0,0,122.39,95.14Z"/><path class="cls-4" d="M21.81,124C15.86,126.2,11.4,131.05,7.33,136h0a4.94,4.94,0,0,0,1.94-1.26c2.54-2.34,4.79-5.1,7.82-6.75,5.57-3,13-1.87,17.89-5.91,2.08-.12,4.17-.15,6.27-.12-3-.75-6-1.49-9.07-2.22C29.35,122.24,25.33,122.64,21.81,124Z"/><path class="cls-5" d="M206.69,56.79a104.56,104.56,0,0,0-23.09,4.67C172.66,65,160.45,66,151.41,73.12c-2.65,2.09-5.1,4.43-7.9,6.32-8.17,5.49-18.8,6.78-26.35,13.1,6,11,12.27,22.67,23.48,28.28,2.4-1.37,4.31-3.44,6.71-4.8,2.12-1.21,4.32-2.45,6.75-2.62,5.59-.41,10,4.79,12.25,9.9,3.49,7.8,4.58,16.45,7.56,24.46,4.48,12,13.24,22.58,15.06,35.3-1.43,1.07-2.16,4.09-1.13,5.55a9.7,9.7,0,0,0,4.39,2.95c24,10.08,51,9,77,7.68,5.8-.29,12-.72,16.59-4.26s6.22-11.44,1.64-15c-1-5-3.44-11-5-15.86q-5.22-16-10.45-32c5.67-5.77,13.5-10.1,21.58-10-2.79-4.18-3.87-10.38-5.6-15.11q-2.42-6.58-4.82-13.19c-2.81-7.7-6-15.88-12.73-20.55a20,20,0,0,0-5.55-2.67,73.09,73.09,0,0,1-16.08-7.24,60.72,60.72,0,0,0-10.52-5.2C228.55,54.67,217,55.87,206.69,56.79Z"/><path class="cls-6" d="M259,110.29c-1.27-3.88-1-8.54,1.82-11.53,2.37-2.56,6-3.42,9.42-4.15a14.26,14.26,0,0,0-15.14,6.76c0-8.06,4.58-16.55,10.89-21.57-6.12.83-10.58,6.42-12.73,12.22s-2.67,12.08-4.67,17.93c-5.63,16.42-22.41,27-39.49,30.07,7.36,1.3,15.6,1.73,22.22-1.73,8.33-4.35,14.09-12.29,19.53-19.95-1.43,4.89-2.81,10-4.24,14.86-1.09,3.75-2.22,7.57-4.38,10.82s-5.54,5.94-9.44,6.27-7.69-1.55-11.26-.26a65.69,65.69,0,0,1,17,10c4.61,3.75,11.09,4.54,17,5.18a34,34,0,0,1-21.29-2.93c-5.93-2.94-11.18-7.69-17.73-8.6,3.94,1.47,6.64,5,9.81,7.8a28.32,28.32,0,0,0,17.51,6.86,134.93,134.93,0,0,1-27.33-.2c9.57,2.46,19.43,5.06,27.28,11.07,2.54,1.95,4.85,4.24,7.71,5.68,4.76,2.39,10.41,2.09,15.67,1.19s10.48-2.33,15.8-2.05l-12.74-1.35a32,32,0,0,1-9.07-1.87c-2.86-1.21-5.46-3.42-6.36-6.38,1.59,1.88,4.36,2.23,6.82,2s4.95-.77,7.36-.24c3,.66,5.88,3,8.75,1.95a52.24,52.24,0,0,1-8.26-4.22c-2.16-1.36-4.4-3.14-4.81-5.66a8.5,8.5,0,0,1,.36-3.57,29,29,0,0,1,5.64-10.85c2.12,5.33,7,9,10.89,13.13,1.12,1.19,2.17,2.43,3.21,3.69-.81-2.31-1.64-4.57-2.31-6.62q-5.22-16-10.45-32c-1.23-3.89-4.11-8.23-6.64-11.43S260.27,114.16,259,110.29Z"/><path class="cls-6" d="M211.4,82.73c3,1.17,6.47,1.2,9.33,2.73a59,59,0,0,0-10.41,6.23,88.84,88.84,0,0,1-20.15,11.78c2.83,1.86,6.66,1.45,9.71,0s5.53-3.87,8.16-6a59.09,59.09,0,0,1,10-6.55c-6,6.63-12.15,14.93-18.17,21.56a30.27,30.27,0,0,1-5.11,4.82c-3.43,2.34-7.93,3.38-10.33,6.77-.93,1.32-.74,3.92.86,3.71,3-4.35,9.18-4.79,13.49-7.81a25.38,25.38,0,0,0,4.24-4l29-32.38c-.28,4-.29,4.34,1.07.18,1.62-4.9,4.46-9.37,5.69-14.38a29.13,29.13,0,0,0,.44-10.81l-.95-.36c-9.75-3.47-21.31-2.27-31.61-1.35l-.8.08a21.67,21.67,0,0,0-3.53,9.63C201.71,73.12,205.2,80.32,211.4,82.73Z"/><path class="cls-6" d="M205.32,181.66c-14.58-11.42-22.07-29.58-34.29-43.46a99.18,99.18,0,0,0,2.88,9.56c4.48,12,13.24,22.58,15.06,35.3-1.43,1.07-2.16,4.09-1.13,5.55a9.7,9.7,0,0,0,4.39,2.95c24,10.08,51,9,77,7.68a60.93,60.93,0,0,0,8.3-.83c-4.94,0-9.9-.32-14.78-.67C242.63,196.32,221.23,194.12,205.32,181.66Z"/><path class="cls-6" d="M163.53,94.36a41.78,41.78,0,0,0-4.62,16.24,19.91,19.91,0,0,1-5.85-11.83c-.25-2.19-.14-4.4-.28-6.59a29.28,29.28,0,0,0-1.56-7.8c1,2.79-.57,5.78-1.33,8.66a15.63,15.63,0,0,0,4.77,15.41c-9.49-2.07-19.42-4.35-26.75-10.72,2.3,5.11,8.09,7.49,13.35,9.4,3.7,1.34,6.5,3.47,10.21,4.82l-16.1-2.38a43.5,43.5,0,0,0,9.9,4.29c-5,.11-10.21.14-14.42-2.45a28.56,28.56,0,0,1-5.8-5.41c4.12,6.13,9,11.52,15.59,14.82,2.4-1.37,4.31-3.44,6.71-4.8,2.12-1.21,4.32-2.45,6.75-2.62,5.59-.41,10,4.79,12.25,9.9.51,1.15,1,2.31,1.39,3.49,1.25-5.21,2.62-10.41,2.7-15.75C170.54,104.79,168.52,98.12,163.53,94.36Z"/><path class="cls-4" d="M251.25,34.35a32,32,0,0,1,.06-3.53,21.29,21.29,0,0,1,1.34-4.38c1.2-3.31,1.87-7.11.3-10.26-1.78-3.59-5.85-5.29-9-7.72-2.82-2.15-5.14-5.05-8.39-6.45-5.49-2.38-11.89.18-17.79-.81C215.8.88,213.93.17,212,0c-4.6-.34-8.77,2.43-12.54,5.07a5.57,5.57,0,0,1,4.71.49c-6,1.29-9.08,9.06-15.15,9.73-3.62.41-7.74-1.84-10.68.32,3.47,1.78,5.23,5.64,7.32,8.93s5.53,6.53,9.36,5.78a7.54,7.54,0,0,1-6.26,1.93,13.71,13.71,0,0,0,6.84,9.19,66.4,66.4,0,0,1-11.5,8.34c2.49-1.11,5,1.27,7.07,3.06,5.09,4.39,11.93,6,18.49,7.48,4.89,1.09,9.87,2.18,14.88,1.91s10.15-2.08,13.39-5.91c2.75-3.25,4.68-6.64,7.72-9.65A17.67,17.67,0,0,0,251.25,34.35Z"/><path class="cls-3" d="M223.78,79.78c2.89.16,5.6-1.6,7.4-3.86a34.18,34.18,0,0,0,4-7.63,87.56,87.56,0,0,1,6.65-12.18,12,12,0,0,0,1.64-3.1c.54-1.89.06-4.44-.44-6.33a11.93,11.93,0,0,0,2.73-6.62,23.41,23.41,0,0,0-.21-4.5c-.17-1.6-.6-3.48-.77-5.09a13,13,0,0,0-8.08,1.45c-4.38-2.92-10-3.57-15.16-4.39a1.35,1.35,0,0,0-.89,0,1.29,1.29,0,0,0-.46.59,14.1,14.1,0,0,0-1.31,3.93,2.24,2.24,0,0,1-.28.92c-.59.9-2,.46-3,.38a5,5,0,0,0-4.28,2.3,15,15,0,0,0-1.94,4.65l-1.51,5.22c.36-4.07.27-9.5-2.22-12.75-1.14-1.48-3.18-2.6-4.88-1.81a4.09,4.09,0,0,0-2,3.77,30.72,30.72,0,0,0,.64,4.46c.27,2,.1,4,.58,5.95s1.92,3.86,3.91,4a96.56,96.56,0,0,0-.49,12.5c.05,5.88-1.33,12.24,3,16.19S218.69,82.71,223.78,79.78Z"/><path class="cls-4" d="M217.53,75.93a33.44,33.44,0,0,1-11-23.45c.25,6.81.59,13.92,4,19.82a13.85,13.85,0,0,0,4.63,5c2.55,1.56,5.64,2.09,8.6,2.44a7.64,7.64,0,0,0,4.07-1C225.62,75.7,221,74.3,217.53,75.93Z"/><path class="cls-7" d="M233.42,59.34a2.53,2.53,0,0,1-2.85.9,4.83,4.83,0,0,1-1.79-1.39A5.39,5.39,0,0,0,227,57.41a1.78,1.78,0,0,0-2.08.4,4.64,4.64,0,0,0,2.81,1.7,8.52,8.52,0,0,0,.39,2c.24.63.64,1.31,1.31,1.42s1.37-.49,1.86-1S232.81,60,233.42,59.34Z"/><path class="cls-8" d="M218.92,64.41a2.53,2.53,0,0,1,1.49-.37l4.34-.19A8.48,8.48,0,0,1,227,64a2.88,2.88,0,0,1,1.85,1.19c.81-.22,1.81-.36,2.36.28a2.21,2.21,0,0,1,.37.79c.22.68.45,1.36.67,2-.19-.06-.55.35-.67.51a4.69,4.69,0,0,1-6.67,1,17.62,17.62,0,0,1-2.85-2.45A15.36,15.36,0,0,0,218.92,64.41Z"/><path class="cls-7" d="M220.67,64.78c1.21-.11,2.42-.16,3.63-.16a4,4,0,0,1,2.53.6.91.91,0,0,1,.79.37,1.55,1.55,0,0,0,1.24.61,4.54,4.54,0,0,0,1.41-.24c.54.33,1.2.85,1.29,1.48a7.48,7.48,0,0,0-3,.47,5.53,5.53,0,0,1-2.07-.3C224.64,66.76,222.69,65.15,220.67,64.78Z"/><path class="cls-4" d="M226.93,71.05a6.52,6.52,0,0,0-5.81.07,2.63,2.63,0,0,1,1.86.59c.49.38.91.85,1.42,1.2a3.82,3.82,0,0,0,4.18,0A4.69,4.69,0,0,0,226.93,71.05Z"/><path class="cls-7" d="M232.55,44.18a2.09,2.09,0,0,1-2,.47,6,6,0,0,1-1.9-1A25.59,25.59,0,0,0,224,41a8.43,8.43,0,0,0-5.21-.57,7.64,7.64,0,0,1,7.21-.62C228.46,40.71,230.55,42.55,232.55,44.18Z"/><path class="cls-7" d="M244.68,44.87c-3.2-.53-6.55,1.69-9.6.59C237.76,43.65,241.51,44.18,244.68,44.87Z"/><path class="cls-6" d="M193.64,148.18c2.9,4.21,5.49,8.82,9.6,11.86,4.37,3.24,10,4.32,15.41,4.58A19.4,19.4,0,0,1,205.89,156c-1.21-1.91-2.07-4-3.21-6-3.89-6.66-11.65-11.77-19.47-11.89C186.56,141.61,190.69,143.9,193.64,148.18Z"/><path class="cls-6" d="M258.11,247c2.54-1.77,7.15,2.89,8.48-3.58a28,28,0,0,1-14.4.17c6.52-1.46,13.31-3.05,18.49-7.28,4.74-3.86,8.16-9.91,14.1-11.34-8.69,0-14.5,9.76-23,11.4a26.4,26.4,0,0,1-8.27-.16l-14.17-1.79a60,60,0,0,1,29.18-16.49c-12.92-.31-24.57,8.55-37.49,9-5.88.22-11.68-1.32-17.36-2.85l-25-6.71a199.56,199.56,0,0,0,43.74,19.18c-5,1.35-9.77,4-14.93,3.82-9.49-.38-16.79-10.31-26.28-10,11,3,18,15.53,29.36,17.13a21,21,0,0,1-14.71,1c-10.73-3.27-17.53-14.67-28.34-17.64-4.57-1.25-9.23-.85-13.92,0a38.12,38.12,0,0,1,27.22,13c4.26,5,7.31,11.21,12.78,14.84a5.46,5.46,0,0,0,3.6,1.17,6.36,6.36,0,0,0,2.66-1.24l25.15-16.85c8.66,2.85,15.37,7.36,23.11,12.18s16.33,9.08,25.45,8.91a19.88,19.88,0,0,1-.44-4.6l-1.21-.7C274.26,253.41,265.79,251,258.11,247Z"/><path class="cls-6" d="M239.13,210.7a40.42,40.42,0,0,1-16.88,3.55,62.06,62.06,0,0,1-10.48-1.54,57.24,57.24,0,0,1-7-1.62c3.43-2,12.39.49,16.65.55C226.49,211.72,234.45,212.65,239.13,210.7Z"/><path class="cls-6" d="M254.34,215.63a69.6,69.6,0,0,1,11.88-2.28c-18.27-2.87-36.5,9.32-54.7,6.08,6.91,1.1,14.19,2.71,21.18,1.89C240.18,220.45,247.16,217.67,254.34,215.63Z"/><path class="cls-9" d="M302.81,119.85a5.38,5.38,0,0,0-1.31,3.92,15.81,15.81,0,0,0,.91,4.16,22.9,22.9,0,0,0,2.82,6.44A8,8,0,0,0,311,138c-.56,1.35-.64,2.57-1.69,3.59a3,3,0,0,1-1.19.8,3.28,3.28,0,0,1-1.78-.12c-3.62-1-7.28-2.82-9-6.15a14.57,14.57,0,0,1-1.28-6.24c-.08-2.84.2-6,2.19-8C299.55,121.5,301.56,120.19,302.81,119.85Z"/><path class="cls-3" d="M336.54,111.07a6.81,6.81,0,0,0-1.56,1.61,2.35,2.35,0,0,0-.26,2.16,2.69,2.69,0,0,0,2.25,1.3,5.54,5.54,0,0,0,4.63-1.81c1.09-1.22,2.22-4,.57-5.18S337.8,110,336.54,111.07Z"/><path class="cls-3" d="M324.14,131.47a5.94,5.94,0,0,1-4.1-.27,18.72,18.72,0,0,1-4.81-2.57c-1.2-.88-2.4-2.31-1.87-3.71a2.68,2.68,0,0,1,2.77-1.45,10.07,10.07,0,0,1,3.17,1.07c1.78.78,5.84.91,7.17,2.32C328.06,128.54,326,130.74,324.14,131.47Z"/><path class="cls-5" d="M356.66,90.58c-3.81-3-7.41-6.36-10.94-9.67q-.56-5.61-1-11.23a22,22,0,0,1,.29-7,21.24,21.24,0,0,1,3.17-6.26c5.45-8.26,11.83-16.53,20.9-20.49,8.14-3.56,18.39,1.27,24.91,7.3s9.67,16,6.22,24.24c-1.78,4.24-5.07,7.64-8.44,10.76q-3.17,2.94-6.52,5.67a34.47,34.47,0,0,1-8.91,5.7C370.25,92,363.2,91.4,356.66,90.58Z"/><path class="cls-1" d="M345.72,80.91c3.53,3.31,7.13,6.67,10.93,9.67a70.34,70.34,0,0,0,10.48.7q-11.25-9.59-22.2-19.51Q345.28,76.35,345.72,80.91Z"/><path class="cls-10" d="M344.23,89.73c-1.87.51-3.94,1.12-5.81,1.63-.69-.27-.82-1.19-.77-1.94a13.37,13.37,0,0,1,2.73-7.24C341.57,84.49,343.21,87.34,344.23,89.73Z"/><path class="cls-10" d="M343.59,100.21c1.6-2.87,3-6,4.59-8.85-.48-.32-1.37-.8-1.91-.61a68.58,68.58,0,0,0-7.41,3.1c0,.86,0,1.3,0,2.15C340,97,342.45,99.18,343.59,100.21Z"/><path class="cls-10" d="M354.54,95a6.22,6.22,0,0,0-5-1.74,9.87,9.87,0,0,0-1.66,5.1C350.24,97.23,352.11,95.79,354.54,95Z"/><path class="cls-10" d="M369.55,41.88a1.4,1.4,0,0,0,0,2.79A1.4,1.4,0,0,0,369.55,41.88Z"/><path class="cls-10" d="M363.74,43.51h-.23a1.4,1.4,0,0,0-1.39,1.39,1.42,1.42,0,0,0,1.39,1.4h.23a1.4,1.4,0,1,0,0-2.79Z"/><path class="cls-10" d="M359.79,46.76a1.4,1.4,0,0,0,0,2.79A1.4,1.4,0,0,0,359.79,46.76Z"/><path class="cls-10" d="M356.08,50.71h-.24a1.4,1.4,0,0,0,0,2.79h.24a1.4,1.4,0,0,0,0-2.79Z"/><path class="cls-10" d="M352.36,54.43a1.39,1.39,0,0,0,0,2.78A1.39,1.39,0,0,0,352.36,54.43Z"/><path class="cls-10" d="M349.81,62.79a1.42,1.42,0,0,0-1.4,1.39v.23a1.4,1.4,0,1,0,2.79,0v-.23A1.4,1.4,0,0,0,349.81,62.79Z"/><path class="cls-10" d="M353.75,58.61a1.39,1.39,0,0,0,0,2.78A1.39,1.39,0,0,0,353.75,58.61Z"/><path class="cls-10" d="M358.17,54.43a1.39,1.39,0,0,0,0,2.78A1.39,1.39,0,0,0,358.17,54.43Z"/><path class="cls-10" d="M362.12,50.71h-.24a1.4,1.4,0,0,0,0,2.79h.24a1.4,1.4,0,0,0,0-2.79Z"/><path class="cls-10" d="M366.76,46.06a1.4,1.4,0,0,0,0,2.79A1.4,1.4,0,0,0,366.76,46.06Z"/><path class="cls-10" d="M376.52,42.58h-.24a1.4,1.4,0,0,0,0,2.79h.24a1.4,1.4,0,0,0,0-2.79Z"/><path class="cls-10" d="M373.26,45.83a1.4,1.4,0,0,0,0,2.79A1.4,1.4,0,0,0,373.26,45.83Z"/><path class="cls-10" d="M370,49.32a1.39,1.39,0,0,0,0,2.78A1.39,1.39,0,0,0,370,49.32Z"/><path class="cls-10" d="M366.06,52.57a1.4,1.4,0,0,0,0,2.79A1.4,1.4,0,0,0,366.06,52.57Z"/><path class="cls-10" d="M363.69,56.84a1.41,1.41,0,0,0-1.71-1l-.21.06a1.39,1.39,0,0,0-1,1,1.57,1.57,0,0,0,.38,1.49,1.57,1.57,0,0,0,2.16,0,1.36,1.36,0,0,0,.41-1,.13.13,0,0,0,0-.06A1.15,1.15,0,0,0,363.69,56.84Z"/><path class="cls-10" d="M358.17,61.63a1.39,1.39,0,0,0,0,2.78A1.39,1.39,0,0,0,358.17,61.63Z"/><path class="cls-10" d="M354.45,65.57a1.4,1.4,0,0,0,0,2.79A1.4,1.4,0,0,0,354.45,65.57Z"/><path class="cls-10" d="M351.66,71.61a1.41,1.41,0,0,0-1.39-1.39,2,2,0,0,0-1.45.64,1.52,1.52,0,0,0-.41,1,1.39,1.39,0,0,0,.41,1,1.44,1.44,0,0,0,1.88.09A1.35,1.35,0,0,0,351.66,71.61Z"/><path class="cls-10" d="M354,73.24h-.24a1.4,1.4,0,0,0,0,2.79H354a1.4,1.4,0,0,0,0-2.79Z"/><path class="cls-10" d="M358.4,68.13a1.4,1.4,0,0,0,0,2.79A1.4,1.4,0,0,0,358.4,68.13Z"/><path class="cls-10" d="M362.12,64.18a1.42,1.42,0,0,0-1.4,1.39v.24a1.4,1.4,0,0,0,2.79,0v-.24A1.41,1.41,0,0,0,362.12,64.18Z"/><path class="cls-10" d="M365.83,59.77a1.4,1.4,0,0,0,0,2.79A1.4,1.4,0,0,0,365.83,59.77Z"/><path class="cls-10" d="M370,55.12h-.23a1.4,1.4,0,0,0,0,2.79H370a1.42,1.42,0,0,0,1.4-1.39A1.43,1.43,0,0,0,370,55.12Z"/><path class="cls-10" d="M373.26,51.64a1.4,1.4,0,0,0,0,2.79A1.4,1.4,0,0,0,373.26,51.64Z"/><path class="cls-10" d="M377,48.39h-.14a1.39,1.39,0,1,0,0,2.78H377a1.39,1.39,0,0,0,0-2.78Z"/><path class="cls-10" d="M381.45,45.31a1.42,1.42,0,0,0-2,0l-.23.23a1.39,1.39,0,0,0,2,2l.23-.23A1.41,1.41,0,0,0,381.45,45.31Z"/><path class="cls-10" d="M383.25,48.62a1.4,1.4,0,0,0,0,2.79A1.4,1.4,0,0,0,383.25,48.62Z"/><path class="cls-10" d="M379.54,52.34a1.39,1.39,0,0,0,0,2.78A1.39,1.39,0,0,0,379.54,52.34Z"/><path class="cls-10" d="M376.52,56.52a1.39,1.39,0,0,0,0,2.78A1.39,1.39,0,0,0,376.52,56.52Z"/><path class="cls-10" d="M373.5,60a1.42,1.42,0,0,0-1.4,1.39v.24a1.4,1.4,0,0,0,2.79,0v-.24A1.41,1.41,0,0,0,373.5,60Z"/><path class="cls-10" d="M368.62,65.11a1.41,1.41,0,0,0-1.39,1.39v.24a1.39,1.39,0,1,0,2.78,0V66.5A1.41,1.41,0,0,0,368.62,65.11Z"/><path class="cls-10" d="M364.67,69.29a1.4,1.4,0,0,0,0,2.79A1.4,1.4,0,0,0,364.67,69.29Z"/><path class="cls-10" d="M360.72,73a1.41,1.41,0,0,0-1.39,1.39v.23a1.42,1.42,0,0,0,1.39,1.4,1.43,1.43,0,0,0,1.4-1.4V74.4A1.41,1.41,0,0,0,360.72,73Z"/><path class="cls-10" d="M356.77,77.42h-.23a1.4,1.4,0,0,0-1.39,1.39,1.42,1.42,0,0,0,1.39,1.4h.23a1.4,1.4,0,1,0,0-2.79Z"/><path class="cls-10" d="M363.28,80.67H363a1.4,1.4,0,0,0,0,2.79h.24a1.4,1.4,0,0,0,0-2.79Z"/><path class="cls-10" d="M366.76,77.42h-.23a1.4,1.4,0,0,0-1.39,1.39,1.42,1.42,0,0,0,1.39,1.4h.23a1.4,1.4,0,0,0,0-2.79Z"/><path class="cls-10" d="M372.1,72.77a1.4,1.4,0,0,0,0,2.79A1.4,1.4,0,0,0,372.1,72.77Z"/><path class="cls-10" d="M375.82,68.83a1.39,1.39,0,0,0,0,2.78A1.39,1.39,0,0,0,375.82,68.83Z"/><path class="cls-10" d="M380.46,64.41h-.23a1.4,1.4,0,0,0,0,2.79h.23a1.4,1.4,0,1,0,0-2.79Z"/><path class="cls-10" d="M385.11,61.86a1.44,1.44,0,0,0-1.39-1.4,1.51,1.51,0,0,0-1.56,1.94,1.39,1.39,0,0,0,1,1l.22,0a1.4,1.4,0,0,0,1.71-1,1.29,1.29,0,0,0,0-.39A1.49,1.49,0,0,0,385.11,61.86Z"/><path class="cls-10" d="M386.74,56.52a1.39,1.39,0,0,0,0,2.78A1.39,1.39,0,0,0,386.74,56.52Z"/><path class="cls-10" d="M389.75,53a1.4,1.4,0,0,0,0,2.79A1.4,1.4,0,0,0,389.75,53Z"/><path class="cls-10" d="M393.47,57a1.41,1.41,0,0,0-1.39,1.39v.24a1.39,1.39,0,0,0,2.78,0v-.24A1.41,1.41,0,0,0,393.47,57Z"/><path class="cls-10" d="M391.15,61.16a1.42,1.42,0,0,0-1.4,1.4v.23a1.4,1.4,0,0,0,2.79,0v-.23A1.42,1.42,0,0,0,391.15,61.16Z"/><path class="cls-10" d="M386.74,65.81a1.39,1.39,0,0,0,0,2.78A1.39,1.39,0,0,0,386.74,65.81Z"/><path class="cls-10" d="M381.63,70.68a1.43,1.43,0,0,0-1.4,1.4v.23a1.4,1.4,0,0,0,2.79,0v-.23A1.42,1.42,0,0,0,381.63,70.68Z"/><path class="cls-10" d="M376.52,76.49a1.42,1.42,0,0,0-1.4,1.39v.24a1.4,1.4,0,0,0,2.79,0v-.24A1.41,1.41,0,0,0,376.52,76.49Z"/><path class="cls-10" d="M373,80.21h-.23a1.39,1.39,0,1,0,0,2.78H373a1.39,1.39,0,1,0,0-2.78Z"/><path class="cls-10" d="M368.85,83.92a1.4,1.4,0,0,0,0,2.79A1.4,1.4,0,0,0,368.85,83.92Z"/><path class="cls-10" d="M377,83.23A1.39,1.39,0,0,0,377,86,1.39,1.39,0,0,0,377,83.23Z"/><path class="cls-10" d="M382.79,77.19a1.42,1.42,0,0,0-1.4,1.39v.23a1.4,1.4,0,1,0,2.79,0v-.23A1.4,1.4,0,0,0,382.79,77.19Z"/><path class="cls-10" d="M389.1,73a1.43,1.43,0,0,0-1.91-.5l-.46.23a1.41,1.41,0,0,0-.5,1.91,1.43,1.43,0,0,0,1.91.5l.46-.23A1.41,1.41,0,0,0,389.1,73Z"/><path class="cls-10" d="M392.49,69.62a1.42,1.42,0,0,0-1.71-1l-.19,0a1.36,1.36,0,0,0-1,1l-.05.19a1.41,1.41,0,0,0,1,1.71,1.45,1.45,0,0,0,1.48-.5A1.37,1.37,0,0,0,392.49,69.62Z"/><path class="cls-10" d="M396.31,64.82l-.23-.23a1.4,1.4,0,0,0-2,0,1.42,1.42,0,0,0,0,2l.23.23a1.39,1.39,0,1,0,2-2Z"/><path class="cls-4" d="M203.16,34.47a2.14,2.14,0,0,1,1.71,1.79c.13,1-.44,1.91-.52,2.9a4.93,4.93,0,0,0,.8,2.72c.31.54.59,1.35,0,1.65a1.06,1.06,0,0,1-.42.12,2.83,2.83,0,0,0-2.18,2.69,10.1,10.1,0,0,1-.56-3.73,2.62,2.62,0,0,1,.34-1.36,1.05,1.05,0,0,1,1.23-.45c-.41-1.15-.79-2.51-.1-3.51a2.39,2.39,0,0,0,.34-.51,1.14,1.14,0,0,0-.87-1.39c-.62-.16-1.14.07-1.7-.17A1.88,1.88,0,0,1,203.16,34.47Z"/><path class="cls-5" d="M143.32,336.56a94.55,94.55,0,0,1-3.76,15.2c-.54,1.59-1.13,3.28-.72,4.91.7,2.78,3.89,4.07,6.72,4.55,4.25.72,9.22.32,11.94-3,3.3-4.05,1.62-10,1.65-15.2a24.35,24.35,0,0,1,.72-5.68A39.67,39.67,0,0,1,143.32,336.56Z"/><path class="cls-5" d="M416.11,351.43a189.16,189.16,0,0,1-16.41-16c-3.5,4.23-8.49,7.07-13.89,9.17a43.54,43.54,0,0,1,9.39,11.94c3.89,7.54,15.7,8.66,21.79,2.75a5.21,5.21,0,0,0,1.88-3.82C418.76,353.8,417.38,352.53,416.11,351.43Z"/><path class="cls-11" d="M163.4,352.21c-.27-1.48-2.54-2.66-3.8-3.47A11.58,11.58,0,0,1,146.86,352a43.39,43.39,0,0,0-4.7-2.05c-1.65-.43-3.69-.13-4.6,1.31-1.52,2.39-1.43,6-3.08,8.32-2.94,4.09-8.4,5.51-12.07,8.95a14.27,14.27,0,0,0-4.35,12,3.77,3.77,0,0,0,2.53,3.16A52.72,52.72,0,0,0,135,386a22.42,22.42,0,0,0,13.71-4.46c4.8-3.86,8-10.54,14.13-11.34C163.31,364,164.47,358.27,163.4,352.21Z"/><path class="cls-11" d="M393.27,353.24c3.91,2.27,7.37,5.9,11.88,5.51a14.55,14.55,0,0,0,7-2.3,8.65,8.65,0,0,0,3.84-6.16c3.42,1.85,5.79,4.2,8.64,6.86,7.68,7.19,21.3,7.27,26.28,16.55a19.46,19.46,0,0,1,2,7.28,6.39,6.39,0,0,1-.7,4.32,6.54,6.54,0,0,1-3,2,52.55,52.55,0,0,1-10.73,3,15.06,15.06,0,0,1-6.41,0c-3.82-1-6.47-4.35-9.44-7a29.13,29.13,0,0,0-16.42-7.05c-2-.18-4.1-.2-5.68-1.4a8.5,8.5,0,0,1-2.06-2.68C395.53,367.12,394.91,359,393.27,353.24Z"/><path class="cls-4" d="M326.47,126.86c-1.33-1.41-5.39-1.54-7.17-2.32a10.07,10.07,0,0,0-3.17-1.07,3.31,3.31,0,0,0-.94.06,17.83,17.83,0,0,0,5.55,3.69,14.31,14.31,0,0,0,6.29,1.06A1.91,1.91,0,0,0,326.47,126.86Z"/><path class="cls-3" d="M325.9,127.62a11.57,11.57,0,0,1-2.73-.87l-4.64-1.93a7.2,7.2,0,0,1-3.1-1.95,2.52,2.52,0,0,1,0-3.36c1.07-.91,2.68-.33,4,.2a41.76,41.76,0,0,0,6.07,1.88c1.07.25,5.88.47,6.44,1.22C333.76,125.24,328,127.93,325.9,127.62Z"/><path class="cls-4" d="M332,122.81c-.56-.75-5.37-1-6.44-1.22a41.76,41.76,0,0,1-6.07-1.88,6.23,6.23,0,0,0-2.91-.65,16.15,16.15,0,0,0,9.22,4.84,25,25,0,0,1,4.24.71,8,8,0,0,1,1.54.72A1.83,1.83,0,0,0,332,122.81Z"/><path class="cls-3" d="M321.7,117.24c-1,0-2.23.16-2.74,1.05a2,2,0,0,0,.41,2.32,5.35,5.35,0,0,0,2.15,1.26,34.55,34.55,0,0,0,10.59,2.2,5.89,5.89,0,0,0,1.73-.1c3.68-.88,3-5.78-.1-6.94S325.05,117.14,321.7,117.24Z"/><path class="cls-4" d="M324.91,119.46c-1.43-.13-2.82-.51-4.25-.52s-2.68.31-4,.27a4,4,0,0,1-3.47-1.66c-.07-.12,9-1.54,9.89-1.55,1.91,0,8.25-.39,8.94,1.73A10.66,10.66,0,0,1,324.91,119.46Z"/><path class="cls-3" d="M330.74,117.79a66,66,0,0,1-17.91-.63A11.48,11.48,0,0,1,323,112.91a22,22,0,0,1,3.4.77c1.23.34,5.52.82,6.23,1.84C333.68,117,332.3,117.68,330.74,117.79Z"/><path class="cls-4" d="M342.08,109.09c-1.73-1.13-4.3,1-5.54,2a6.81,6.81,0,0,0-1.56,1.61,2.35,2.35,0,0,0-.26,2.16,2,2,0,0,0,.79.84,10.38,10.38,0,0,1,1.44-2.76A11,11,0,0,1,342.08,109.09Z"/><path class="cls-9" d="M163.4,352.21c-.27-1.48-2.54-2.66-3.8-3.47A11.58,11.58,0,0,1,146.86,352a43.39,43.39,0,0,0-4.7-2.05c-1.65-.43-3.69-.13-4.6,1.31-.08.12-.14.23-.21.35a8.59,8.59,0,0,1,6.91.57,30.1,30.1,0,0,0,3.58,2.19c4.14,1.63,8.54-2.14,13-1.89a80.14,80.14,0,0,1-.32,18.32,9.22,9.22,0,0,1,2.37-.65C163.31,364,164.47,358.27,163.4,352.21Z"/><path class="cls-9" d="M410.87,360.5a13.46,13.46,0,0,0,6.87-9.18c-.54-.35-1.11-.7-1.71-1a8.65,8.65,0,0,1-3.84,6.16,14.55,14.55,0,0,1-7,2.3c-4.51.39-8-3.24-11.88-5.51,1.64,5.71,2.26,13.88,5.18,19.05.14.25.29.5.44.74a56.63,56.63,0,0,1-1.72-13.53A13.46,13.46,0,0,0,410.87,360.5Z"/><circle class="cls-5" cx="309.22" cy="55.05" r="11.08"/></g></g></svg>