<svg xmlns="http://www.w3.org/2000/svg" xmlns:xlink="http://www.w3.org/1999/xlink" viewBox="0 0 283.13 360.1"><defs><style>.cls-1{fill:none;}.cls-2{fill:#414575;}.cls-10,.cls-11,.cls-14,.cls-16,.cls-17,.cls-18,.cls-2,.cls-3,.cls-4,.cls-5,.cls-6,.cls-7,.cls-8,.cls-9{fill-rule:evenodd;}.cls-3{fill:#ecdfdd;}.cls-4{fill:#985c51;}.cls-13,.cls-5{fill:#ffcea3;}.cls-6{fill:#ff5455;}.cls-7{fill:#262840;}.cls-8{fill:#ff6b6c;}.cls-9{fill:#ffec9c;}.cls-10{fill:#ffbd91;}.cls-11{fill:#a90c0c;}.cls-12{clip-path:url(#clip-path);}.cls-14{fill:#595f9a;}.cls-15{fill:#ffd6b2;}.cls-16{fill:#e4a77c;}.cls-17{fill:#fff1d6;fill-opacity:0.47;}.cls-18{fill:#ffc235;}</style><clipPath id="clip-path"><path class="cls-1" d="M190.63,65.27c3.45,3,27.82,19.94,27.82,19.94,1.54-12,6.27-20.27,17.42-23.27,0,0-39.07-34.95-51.19-19.32C177.48,51.9,185,60.41,190.63,65.27Z"/></clipPath></defs><g id="Calque_2" data-name="Calque 2"><g id="Calque_1-2" data-name="Calque 1"><path class="cls-2" d="M105.19,329.44c.09-1.46-13.53-2-15.63,3-1.72,4.09-5.61,5-9.2,7.17s-16.21,5.93-16.53,11c-.33,5.32,16.85,9.24,27.18,3.19l2.44-3.2L93.7,353s1.51,1.42,7.77.39c4.93-.81,5.94-3.22,5.94-3.22S109.61,336.16,105.19,329.44Z"/><path class="cls-3" d="M107.74,347.25c-.12,1.75-.33,2.91-.33,2.91s-1,2.41-5.94,3.22c-6.26,1-7.77-.39-7.77-.39l-.29-1.39L91,353.8c-10.33,6.05-27.51,2.13-27.18-3.19a3.2,3.2,0,0,1,.53-1.52c0,1,.38,3,7.6,5,9.16,2.64,18-1.83,18-1.83l3.42-2.59S97.78,351.83,107.74,347.25Z"/><path class="cls-4" d="M116,18.13s-3.85,18.54,25,24.11c25.26,4.88,15.21-27.88,10.44-33.12S125.72-2.5,116,18.13Z"/><path class="cls-5" d="M130.89,67.46c-4,6.33-15.31,47.39-18.75,50.64-7.4-2-47.83,15.5-47.83,15.5L61,143.81s59.71-2.09,63.86-4.56c7.17-4.25,20.66-34,24.15-45.12C153.88,78.72,140.71,51.8,130.89,67.46Z"/><path class="cls-6" d="M129.79,69.43l-17,44.17c9.68.43,17.8,5.24,25.28,11.92,0,0,26.64-38.25,11.83-51.27S129.79,69.43,129.79,69.43Z"/><path class="cls-5" d="M131.64,201.81c-9.77,20.07-15.09,33.43-24.19,56.52-6.39,39-9.74,52.68-15.12,72.41-1.33,4.9,10.16,5,12.19,1.35,28.1-61.15,24.59-43.3,27.12-64,28.93-33.62,22.44-34.28,29.78-50.61Z"/><path class="cls-5" d="M194.86,228.07s13.13,21.3,18.6,32.81c10.81,22.79,14.32,12.61,44.17,63.09,6.12,7.2,18.14,3,15.6-4.92-27.65-51.82-21.72-53.68-38-68.65l-8.49-36.21Z"/><path class="cls-2" d="M260.5,325.4c1.61,1.05,13.15-2.83,12.14-6.35a10.78,10.78,0,0,1,2.89,2.61c2.77,4.2,5.3,7.78,6.73,15s1.38,11.07-2.18,17.2c-1.77,3-9.57,6.79-17.68,6.11-7.55-.63-7.31-6.67-4.44-15,0,0,4.4-10.8.72-17.95-1.65-3.22-.39-3.9-.39-3.9A21.45,21.45,0,0,0,260.5,325.4Z"/><path class="cls-3" d="M282.92,340.61c.6,4.88,0,8.38-2.84,13.3-1.77,3-9.57,6.79-17.68,6.11-4.47-.37-6.21-2.64-6.29-6.15,1.09,1.45,3,2.76,6.27,3C270,357.39,280.6,355.44,282.92,340.61Z"/><path class="cls-2" d="M146.69,152.41s-18.82,41.82-27.39,65.06c0,0,8.34,19.09,39.3,16.87l16.68-32.53,11.91,33.74s35,3,45.26-18.08c0,0-21.62-65.87-21.39-67.18S146.69,152.41,146.69,152.41Z"/><path class="cls-7" d="M144.93,154.44s1.95,18.28,30.42,19.12,37.25-8.33,38.09-21.31S144.93,154.44,144.93,154.44Z"/><path class="cls-8" d="M154.78,46.37S132.57,58.1,129.93,69.85c-2.1,9.34,20.36,60.87,20.36,60.87,2.5,8.47-10.72,15.75-5.95,24.1,5.57,9.74,57.66,17.69,69.1-.06,8.8-13.67-1.21-32.48-1.21-32.48S208.05,44.54,200.41,40C191.59,34.76,154.78,46.37,154.78,46.37Z"/><path class="cls-9" d="M158.21,44.14c7.6-2.65,12.86-3,14.85,2.81s-2.58,12.71-10.18,15.36-15.38.07-17.36-5.76S150.61,46.79,158.21,44.14Z"/><path class="cls-10" d="M138.57,33.14,149.85,56c5,8.54,23.86-2,18.74-10.37l-15-20.75C149.17,21.8,138.13,28.58,138.57,33.14Z"/><path class="cls-5" d="M130.64,5.72c8.33-3,16.92.68,21.09,12.5s6.11,25-5.93,32.47c-12.18-2.72-16.29-1.61-21.16-15.22C110.38,16.51,122.31,8.72,130.64,5.72Z"/><path class="cls-10" d="M119.54,22.29l1.42-.15-.37,2L125,21.66l-2.17,3.42s12.28-2.24,15.62-14.94-1.89-2.35-1.89-2.35L119.83,17.93A8.91,8.91,0,0,0,119.54,22.29Z"/><path class="cls-4" d="M132.12,12.61s7.53-5.17,8.23,0,2,9.44,9.77,11.38,6.18-9.83.63-17.32c-6.74-9.08-21.69-9.4-31.31,2.2S122.65,22,132.12,12.61Z"/><path class="cls-4" d="M123.67,32.68a4,4,0,0,1,1.51-2.49,2.34,2.34,0,0,1,2.28-.14c.61.11,1-1.28.75-1.48,0,0-2.39-1.13-4,.18a4.3,4.3,0,0,0-1.43,3.79C122.86,32.77,123.62,32.84,123.67,32.68Z"/><path class="cls-11" d="M218.45,85.21s3.12,2.17,11.89-9,5.53-14.29,5.53-14.29C233,59.44,206,54.05,218.45,85.21Z"/><path class="cls-5" d="M199.74,41c16.73,3.33,62.19,42.56,64.33,50.15s-4.4,12.55-48,28.69c-4.66,1.85-5.49-6.3-5.49-6.3s25.9-24.12,29.75-23.24c-26.12-3.13-39.22-18-46.23-25.32C186.42,56.92,188.05,38.64,199.74,41Z"/><path class="cls-8" d="M190.63,65.27c3.45,3,27.82,19.94,27.82,19.94,1.54-12,6.27-20.27,17.42-23.27,0,0-39.07-34.95-51.19-19.32C177.48,51.9,185,60.41,190.63,65.27Z"/><g class="cls-12"><path class="cls-9" d="M213.47,83.61a26.89,26.89,0,0,1,4.82-16.17c7.25-10.37,15.45-9.79,15.45-9.79l6,5.74-19.1,26Z"/></g><path class="cls-13" d="M184.68,131.49a8.57,8.57,0,0,1-3.23,3.53,2.4,2.4,0,0,1-1.43.33,1.49,1.49,0,0,1-1.21-.92l0-.17,2.53-5.12,5.07-5.32,5.63-3.49s8.55-4.07,10.86-4.88,6.75-1.8,6.75-1.8c5.46-1.26,8.47,4.88,5.92,9.08-2.5,3.72-5.61,6.38-9.69,7.34a11.45,11.45,0,0,0-2.33,3.12v.05c-.77,2-1.57,3.89-2.43,5.8a3.48,3.48,0,0,1-.75,1.21c-.55.48-2.12.44-1.9-2,.92-3,1.5-5.87,2.48-8.37a6.21,6.21,0,0,0-3.26,2.32c-1.14,1.73-2.12,3.5-3.26,5.23a34,34,0,0,1-2.26,3.56,3,3,0,0,1-1.45,1.07,1.66,1.66,0,0,1-1.81-.82,2,2,0,0,1,.27-1.79c.58-1.1,1.64-3.24,1.64-3.24a24.1,24.1,0,0,0,3.08-6.2,9.24,9.24,0,0,0-2.84,3.05,11,11,0,0,1-3.05,3,17.37,17.37,0,0,1-3.41,4.11c-1.06.94-3.68-.38-2.68-2s2.08-3.34,3.34-5c1.41-1.9,2.88-3.11,3.87-5.54Z"/><path class="cls-13" d="M51.34,145.07l-2.93,3.34L51.55,151l2.55-3.75Z"/><path class="cls-13" d="M53.05,151.69s.69,1.36,2.84.41l2.69-2.1-4.18-2.54S52,150.25,53.05,151.69Z"/><path class="cls-13" d="M39.08,144.38s-2.4,2.79-2.63,3.79a1.47,1.47,0,0,0,1.27,2c1.22.24,3.94-3.27,3.94-3.27l3.41-3.22L48,141.55s-.27-2.66-1.84-3.19a37,37,0,0,0-4,2.52A21,21,0,0,0,39.08,144.38Z"/><path class="cls-13" d="M41.93,148.37a2.5,2.5,0,0,0-.12,2,8.49,8.49,0,0,0,.66,1.4,1.24,1.24,0,0,0,2.17,0,4.41,4.41,0,0,0,.63-1.56L47,147.86l4.12-2.92a3.18,3.18,0,0,0-3.3-2.85l-4.1,3.08s-1.12,1.88-1.8,3.2"/><path class="cls-13" d="M41.93,148.37a2.5,2.5,0,0,0-.12,2,8.49,8.49,0,0,0,.66,1.4,1.24,1.24,0,0,0,2.17,0,4.41,4.41,0,0,0,.63-1.56L47,147.86l4.12-2.92a3.18,3.18,0,0,0-3.3-2.85l-4.1,3.08S42.61,147.05,41.93,148.37Z"/><path class="cls-13" d="M65.74,135.82c1.75,1.81,4.89,8.67-4.82,13.41a2.32,2.32,0,0,1-2.58.7,8.21,8.21,0,0,1-2.44-1.45c-1.44-1-3-1.92-4.47-2.91s-5.54-4.79-5.8-8.52a11.61,11.61,0,0,1,7.28-5.54C56.92,130.65,63.11,129.86,65.74,135.82Z"/><path class="cls-14" d="M32.38,148.24c-6.52,2.95-12.37,3.32-22.17-2.44C2.06,141-2.72,131.54,1.66,121.1l.09-.2.08-.21c4.38-10.43,14.44-13.53,23.5-10.93,10.9,3.13,14.71,7.65,17.14,14.45Z"/><path class="cls-4" d="M32.38,148.25l10.1-24.06c-1,4.1.08,10.22,3.27,11.67A86.38,86.38,0,0,0,64.2,142.1c5,2.14.93,11.81-4.06,9.66a105,105,0,0,0-17.06-8.89C39.94,141.57,34.57,145.24,32.38,148.25Z"/><path class="cls-14" d="M43,136.23a1.06,1.06,0,0,0-1.4.57l-.84,2a1.1,1.1,0,0,0,.57,1.42l17.26,7.41a1.08,1.08,0,0,0,1.41-.57l.83-2a1.09,1.09,0,0,0-.57-1.42Z"/><path class="cls-13" d="M40.22,145.19a1.09,1.09,0,0,1,.85.39,1.15,1.15,0,0,1,.3.9.1.1,0,0,1-.11.08.1.1,0,0,1-.06-.05h0a3.25,3.25,0,0,0-.43-.64,2.79,2.79,0,0,0-.58-.49h0a.09.09,0,0,1,0-.13s0,0,.06,0"/><path class="cls-13" d="M43,141.79a2,2,0,0,1,1.45,1.9.09.09,0,0,1-.09.09s-.06,0-.08-.06a5.07,5.07,0,0,0-.57-1,5,5,0,0,0-.78-.81.08.08,0,0,1,0-.12.09.09,0,0,1,.08,0"/><path class="cls-13" d="M42.65,148.23a1.1,1.1,0,0,1,1-.4,1.66,1.66,0,0,1,1,.48,2.65,2.65,0,0,1,.56.92,2.34,2.34,0,0,1,.15,1.05.08.08,0,0,1-.1.08.07.07,0,0,1-.07-.07,3.67,3.67,0,0,0-.3-.92,3,3,0,0,0-.53-.77,1.28,1.28,0,0,0-1.59-.25.09.09,0,0,1-.13,0,.08.08,0,0,1,0-.1"/><path class="cls-13" d="M44.16,145a2.29,2.29,0,0,1,2,.64,2.39,2.39,0,0,1,.75,2,.09.09,0,0,1-.1.08.08.08,0,0,1-.07-.07,2.87,2.87,0,0,0-.86-1.66,2.71,2.71,0,0,0-1.67-.77.09.09,0,0,1,0-.18"/><path class="cls-13" d="M55.82,146.55a2.51,2.51,0,0,0-.52.51,1.92,1.92,0,0,0-.18.31,1.11,1.11,0,0,0-.11.32l0-.1a2.3,2.3,0,0,0,.75.63,2.5,2.5,0,0,0,1,.29l-.15.09.51-1.2h0a.21.21,0,0,1,.27-.12.23.23,0,0,1,.11.28v0q-.31.59-.6,1.17h0a.15.15,0,0,1-.16.08,3,3,0,0,1-1-.34,2.7,2.7,0,0,1-.87-.72.2.2,0,0,1,0-.11,2.32,2.32,0,0,1,.12-.42,3.39,3.39,0,0,1,.2-.38,3.28,3.28,0,0,1,.54-.64.2.2,0,0,1,.29,0,.21.21,0,0,1,0,.29v0"/><path class="cls-13" d="M52,147a1.63,1.63,0,0,0-.56.4,1.12,1.12,0,0,0-.19.29.77.77,0,0,0-.09.31v0a1.46,1.46,0,0,0,.43.81,1.36,1.36,0,0,0,.82.35l-.08,0a2,2,0,0,0,.47-.37,1.64,1.64,0,0,0,.31-.48.2.2,0,0,1,.27-.11.2.2,0,0,1,.11.27v0a1.89,1.89,0,0,1-.44.56,2.6,2.6,0,0,1-.58.4.11.11,0,0,1-.08,0,1.68,1.68,0,0,1-1-.45,1.49,1.49,0,0,1-.34-.45,1.77,1.77,0,0,1-.2-.53v0a1.49,1.49,0,0,1,.1-.45,1.72,1.72,0,0,1,.22-.37,2.27,2.27,0,0,1,.64-.56.21.21,0,0,1,.28.08A.22.22,0,0,1,52,147h0"/><path class="cls-15" d="M62.06,139.45c-2.36.17-10.24-2-10.24-2a12.56,12.56,0,0,1-3.92,1c-2.62,1.82-4.59,2-6,1.58a1.31,1.31,0,0,1-.94-1.51.71.71,0,0,1,.14-.32.81.81,0,0,1,.24-.17,11.3,11.3,0,0,0,2.1-1l.27-.19c.81-.63,1.13-1.3,2-1.89A21.27,21.27,0,0,1,49,133.42c3.56-3,12.72-3.29,14.81-1.19A8,8,0,0,1,66,137S65.74,139.2,62.06,139.45Z"/><path class="cls-13" d="M55.89,152.1s2.54-3.95,2-5.44-1.32-1.78-2.61-.62-2.68,3.53-2.61,5.07S54.54,153.16,55.89,152.1Z"/><path class="cls-13" d="M48.72,148a2,2,0,0,0,.38,3.09c.88.47,3,.51,4.77-2.44a1.87,1.87,0,0,0,.23-1.42c-.16-.66-.73-1.33-2.47-1A15.65,15.65,0,0,0,48.72,148"/><path class="cls-13" d="M48.72,148a2,2,0,0,0,.38,3.09c.88.47,3,.51,4.77-2.44a1.87,1.87,0,0,0,.23-1.42c-.16-.66-.73-1.33-2.47-1A15.65,15.65,0,0,0,48.72,148Z"/><path class="cls-13" d="M41.07,138.19s-.06.38,1,.38,2-1.25,2-1.25l-.19-.54S41.09,137.82,41.07,138.19Z"/><path class="cls-4" d="M138.83,24.49a3.87,3.87,0,0,0-2.88-.2,2.41,2.41,0,0,0-1.44,1.79c-.26.57-1.61.08-1.62-.24,0,0,.47-2.62,2.44-3.17a4.2,4.2,0,0,1,3.89,1C139.37,23.87,139,24.54,138.83,24.49Z"/><path class="cls-16" d="M128.34,29.52A4.17,4.17,0,0,1,130.18,31c.63,1,.17,7.41,1.15,8.87s5.41-.34,5.41-.34-3.32.73-4.22-.33-.81-7.29-1.6-8.58A2.89,2.89,0,0,0,128.34,29.52Z"/><path class="cls-5" d="M149,16.42c-1.68,2.45-1.19,6.86.89,9.59s5,2.77,6.65.32,1.34-6.65-.74-9.38S150.69,14,149,16.42Z"/><path class="cls-4" d="M150.69,22.23c0-.14-.06-.28-.08-.42a8.76,8.76,0,0,1-.1-1.59,5.08,5.08,0,0,1,.26-1.52A2.25,2.25,0,0,1,152,17.29a1.53,1.53,0,0,1,1.35.18,7.13,7.13,0,0,1,1.88,1.62s0,0,.06,0a0,0,0,0,0,0-.06,7.32,7.32,0,0,0-1.69-2,2.13,2.13,0,0,0-1.87-.46,3,3,0,0,0-1.85,1.78,4.47,4.47,0,0,0-.35,1.47,7.57,7.57,0,0,0,.2,2.18,6.18,6.18,0,0,0,.86,1.89,6.94,6.94,0,0,0,1.35,1.49,2.79,2.79,0,0,0,2.46.81,0,0,0,1,0,0-.09A2.58,2.58,0,0,1,152.24,25,6.58,6.58,0,0,1,151,23.2a2.4,2.4,0,0,1,.67-1,1.35,1.35,0,0,1,1.23-.26,1.78,1.78,0,0,1,.64.21,1.66,1.66,0,0,1,.53.44,2.87,2.87,0,0,1,.49,1.49s0,0,0,0,0,0,0,0a3,3,0,0,0,.11-.88,2.38,2.38,0,0,0-.18-.91,2,2,0,0,0-.78-.9,2.32,2.32,0,0,0-.73-.29,2.06,2.06,0,0,0-1.91.49A2.57,2.57,0,0,0,150.69,22.23Z"/><path class="cls-4" d="M133.61,10.93a33.89,33.89,0,0,1-8.84,7.5c-5.75,3.45-10.75,2.12-12.84-.55l3.94-.39s-4.08-1.34-3.93-6.5l3.93,1s-3-3.23-1.56-7.24A5.9,5.9,0,0,0,122,6.81C127.06,4.55,131.49,5,133.61,10.93Z"/><path class="cls-4" d="M128.72,8.8c3.11-3-7,12.5-7,12.5.34.44,6.68-3.1,6.68-3.1l-2.55,4A18.11,18.11,0,0,0,132,18.41c2.37-2.47,8.66-9,7-11.95C137.8,4.29,130.65,8.1,128.72,8.8Z"/><path class="cls-1" d="M107.83,80.76s0,0,0-.05"/><path class="cls-17" d="M74.18,104.45c30.32-9.28,74.42-10.29,70.3-7.79-5.51,3.34-26.62,9-65.9,24.67-6.07,2.42-12.43-.8-13.65-5.45S67.94,106.36,74.18,104.45Z"/><path class="cls-18" d="M73.51,107.39c4.12-1.08,8.1.52,8.9,3.56s-1.91,6.37-6,7.45-8.11-.52-8.9-3.56S69.39,108.46,73.51,107.39Z"/></g></g></svg>