<svg xmlns="http://www.w3.org/2000/svg" viewBox="0 0 203.56 448.47"><defs><style>.cls-1{fill:#434345;}.cls-2{fill:#797b7d;}.cls-3{fill:#a9443d;}.cls-4{fill:#953b33;}.cls-5{fill:#3f341e;}.cls-6{fill:#292008;}.cls-7{fill:#322812;}.cls-8{fill:#50432b;}.cls-9{fill:#180e00;}.cls-10{fill:#584930;}.cls-11{fill:#353221;}.cls-12{fill:#2b2918;}.cls-13{fill:#44402d;}.cls-14{fill:#9c867d;}.cls-15{fill:#b6ad9c;}.cls-16{fill:#2e1b10;}.cls-17{fill:#180700;}.cls-18{fill:#706967;}.cls-19{fill:#4c362a;}.cls-20{fill:#6c4e40;}.cls-21{fill:#876253;}.cls-22{fill:#e1dbc6;}.cls-23{fill:#353435;}.cls-24{fill:#4e4f51;}.cls-25{fill:#240e00;}.cls-26{fill:#351813;}.cls-27{fill:#3f2f28;}.cls-28{fill:#462722;}.cls-29{fill:#be896c;}.cls-30{fill:#d69c80;}.cls-31{fill:#e5af97;}.cls-32{fill:#9a6b56;}.cls-33{fill:#815a47;}.cls-34{fill:#7a5442;}.cls-35{fill:#404041;}.cls-36{fill:#545456;}.cls-37{fill:#5b4b32;}.cls-38{fill:#312711;}.cls-39{fill:#2f250f;}.cls-40{fill:#826c48;}.cls-41{fill:#7c6644;}.cls-42{fill:#51442b;}.cls-43{fill:#c2947a;}.cls-44{fill:#d3a288;}.cls-45{fill:#dcae9a;}.cls-46{fill:#a27a63;}.cls-47{fill:#2f251e;}.cls-48{fill:#3f332c;}.cls-49{fill:#654730;}.cls-50{fill:#725538;}</style></defs><g id="Calque_2" data-name="Calque 2"><g id="Calque_1-2" data-name="Calque 1"><path class="cls-1" d="M203,139.5,85.11,137.28l-.1.81,118,2S204.23,139.7,203,139.5Z"/><path class="cls-2" d="M85.1,137.63l118.31,2.21s-.14-.29-.73-.29L85.11,137.28Z"/><path class="cls-3" d="M93.08,140.14s3.32-.37,4.5-1.77c0,0,.59-.89-.66-1.48s-2.74-1.4-4.14-1.11-2.44,1.11-1.77,2C91,137.78,89.53,140.36,93.08,140.14Z"/><path class="cls-4" d="M91,137.78s-.59,1.32-.15,1.4,4.87.07,6.72-.81c0,0,.07-.67-.29-.67Z"/><path class="cls-5" d="M13.9,426.4s-.59,4.58-.59,6.2-.15,4.14.15,5A2.81,2.81,0,0,0,16,439.55a11.46,11.46,0,0,0,1.48,4.58c1.18,1.62,5.61,4,8.57,3.83s7.38-.44,8.56-.44,6.21-.29,7.24-1.18a6.44,6.44,0,0,0,2.36-4.87c0-2.37.3-4.88-1-6.65s-2.22-3.69-3.4-4.87A5.37,5.37,0,0,1,38,426.1c.15-1-1.18-4.57-1.48-5s-3.69-1.62-6.2-1.33S23.06,421.23,22,422a36.12,36.12,0,0,1-5.32,2.66C15.82,424.92,13.9,425.22,13.9,426.4Z"/><path class="cls-6" d="M16.86,427.73a8.93,8.93,0,0,0,0,4.13c.59,1.63-.45,2.22-.45,3.11s-.73,2.21.89,3.39,3.55,3,6.35,3.11,5.32-.74,8.57-2.37,5.32-2.36,6.94-1.62a28.28,28.28,0,0,0,5,1.33,23.18,23.18,0,0,1,0,4.72,4.52,4.52,0,0,1-4.58,3.84c-3,0-10.78.74-10.78.74S24,449,22.47,448s-6.06-2.95-6.2-4.13.14-2.66-.59-3.4-1.78-.74-2.22-1.62-.59-6.06-.44-6.95,1.18-6.05,1.18-6.05S17.89,423.15,16.86,427.73Z"/><path class="cls-7" d="M20.11,424.18a13.36,13.36,0,0,0,1.47,5c1.19,1.77,2.52,3.69,4.44,3.25s2.65-1.18,6.05-1.78,4.73-.88,3.1-1.47-4-.59-2.51-1.63,3.1-1.92,1.48-2.66-3.55-2.06-1.48-2.06,4.58.29,3.25-1a7.2,7.2,0,0,0-6.2-2.22C27.05,420.05,20,422.41,20.11,424.18Z"/><path class="cls-8" d="M33.4,432.16s3,.3,2.36,1.92-2.65,1-.59,1.63,1.78.14,4.14.73,5.17,2.66,3.25-.59.44-4.43-3.69-4.72S29.71,431.28,33.4,432.16Z"/><path class="cls-8" d="M27.05,434.38s.74-.45.59,1.18,4.14,2.51,2.22,3.25-5.47,2.06-7.54,1.18-5.46-1.18-3.69-2.51,5.17-3.84,2.81-3.4-6.5,1.48-3.84,0,3.69-2.22,2.65-2.51-2.06.15-1.92-1.48-.59-4.43.3-3.25,1.18,2.37,2.51,4.14,2.66,2.95,3.69,3.1S27.79,433.49,27.05,434.38Z"/><path class="cls-5" d="M70,410.45s-1.18,1.62-.88,5.61,1.47,5.91,2.36,6.5,5,.74,7.53.44,5.17-1.18,7.09-1,4.14,1.33,7.54,1.92a24.81,24.81,0,0,0,8.71.15,69,69,0,0,0,11.82-3.4c1.62-.74,3.54-2.07,3.4-4.28s-.59-4.29-1.92-4.88a84.51,84.51,0,0,0-8.28-2.21,51,51,0,0,1-5.61-1.48c-.44-.3-.89-1.48-1.48-1.63a8.65,8.65,0,0,1-1.92-1.33c-.44-.29-2.21-1.92-2.8-1.77s-2.51,0-4,.74-8,4.28-9.31,5.32S79.93,410.6,77,411A21.39,21.39,0,0,1,70,410.45Z"/><path class="cls-6" d="M79.19,413.55s0,3.4,2.22,3.25a22.67,22.67,0,0,1,6.64.59,49,49,0,0,0,9.9,1.92c3.55.15,8.12.44,11.52-1s5.76-2.81,5.76-2.81,1.78-1.63,2.22-.3a4.81,4.81,0,0,1-2.37,5.47c-2.51,1.33-7.38,2.36-9.6,3.1a29.41,29.41,0,0,1-8.42,1.18,46.07,46.07,0,0,1-6.79-1.18c-2.36-.59-3.25-2.21-4.14-1.77a24.22,24.22,0,0,1-6,1.62c-1.33,0-6.21.15-7.09-.14s-3.1-2.51-3.1-3.25-2.37-6.95.14-9.75a19.81,19.81,0,0,0,5.32.74C77.57,411,79.49,411.48,79.19,413.55Z"/><path class="cls-9" d="M87.91,419.46a22,22,0,0,0,4.43,2.36,21.21,21.21,0,0,0,8.71.74c2.81-.3,4.43,0,7.09-1a18,18,0,0,1,6.06-.89c-.3,0,0,.44-2.07,1.18s-7.53,2.81-10.63,3.1a30.19,30.19,0,0,1-9.9-.74c-2.36-.73-3.4-1.77-4.88-1.77s-1.77.45-3.84.74-.44-.74-1.92-1.33a7.8,7.8,0,0,0-4.58-.29c-1.92.29-5.17-1-3.69-1.19s4.88,0,8.42.15S86.43,419.16,87.91,419.46Z"/><path class="cls-10" d="M113.76,412.37s-4-.15-5.77.88a12.84,12.84,0,0,1-6.94,1.92c-3.54.15-8.71-2.36-5.91-2.8a39.72,39.72,0,0,0,7.68-2.07c1.33-.59,1.33-1.77,4.58-1S117.3,411,113.76,412.37Z"/><path class="cls-10" d="M116,413s-3.69,2.51-6.06,3.1-6.64,1.18-4.13,1.33,3.4.15,4.73-.44l4.57-2.07S118,413.25,116,413Z"/><path class="cls-7" d="M95.14,404.39s-5,1.18-3,1.33,3.84-.89,3.69-.3-4.58,2.52-2.07,1.78,3.7-1,3.11-.45S92.63,410,94.85,409s3.25-2.07,4.28-2.07,1-.29-.44-1S97.8,403.36,95.14,404.39Z"/><path class="cls-11" d="M19.52,259.34a37.81,37.81,0,0,0-.89,6.8c.15,1.91-.44,5-.44,6.05v10.64c0,2.06.44,3.25.44,4.58s0,4.13-.15,5.9-.59,5.47-.29,7.24-.59,2.51-1.18,4.73-1.33,4.87,0,7.38a7.07,7.07,0,0,1,.73,4.73v2.51c0,1.48-.59,2.66-1,5.91s-1,4.87-1.18,6.2-1.18,2.81-.44,4.14-.3,4.87-1,6.94-2.36,7.68-3,9.6-3.4,9.75-3.55,14.48-.15,9.75.59,13.14,0,3.11.45,6.5,2.06,6.5,2.06,7.69-2.36,1.18-.88,4.13.59,3.69.44,6.79-1,4-1,5.77a27.16,27.16,0,0,0,1.18,6.35c.44,1.33,2.36,5.31,2.51,6.35s-.3,3.1,1,2.51,5.62-2.07,9-3.55,6.36-2.21,8.87-1.92,4.43,1,5.46.15,1.63-2.36,1.33-6.2S37,411,37.68,409.56a2.83,2.83,0,0,0-.59-3.54,14.75,14.75,0,0,1-2.51-5.91c-.29-1.92.3-9,1-12.12s1-12.11,1.33-17.43,1.18-7.82,1.62-11.37a51.76,51.76,0,0,0,.44-5.76s4-7.09,5.17-13,.15-7.53,2.37-10.34,2.07-2.36,2.66-4.13a32.9,32.9,0,0,0,1.33-6.8c.14-2.07.73-3,1.47-4.73s1.63-2.06,1.78-1a18.78,18.78,0,0,1,.44,5.47,6.86,6.86,0,0,0,.74,4.87c.88,1.92,1.77,3.1,1.92,4.73s1.33,5.46,1.33,6.5-.15,12.11.14,17,1.48,11.82,1.78,14.33a63.29,63.29,0,0,0,2.06,8.12c.3,1,.6,8,.74,10.49s1.48,4.88,1.63,6.8,1.33,2.95,1.92,5,.15,3.69.29,5.46,1.63,5.76,1.92,7.39a3.17,3.17,0,0,0,3.55,2.66c1.77-.3,6,0,10-2.37s10-6.2,11.67-6.35,3,.44,1.77-1-1.18-4-2.21-6.5-.89-2.22-.74-3.84a35.63,35.63,0,0,0,.44-7.68c-.29-3.25-2.06-6.65-2.36-8.57a29.25,29.25,0,0,1-.15-5,30.67,30.67,0,0,0-1.33-8.42c-1-3.1-1-3-2.21-6.94s-1.92-6.65-1.92-8.72-.3-2.8-.3-4.43,2.37-10.93,2.07-14.77-1.48-5.76-1.33-7.68a4.26,4.26,0,0,1,1.18-3.25,37.43,37.43,0,0,0,3.25-7.53c1-3,.89-5.76,1.18-7.54s2.81-2.65,2.51-5.76-1.62-4.87-1.33-6.5a41.55,41.55,0,0,0,.15-11.22c-.59-5.62-1.18-10.93-1.47-13.3s0-3.39-.74-5-1.63-2.8-3.1-6.2-1.93-4.88-1.93-4.88-8.71,2.66-10.78,3-11.82,1.18-15.51,1.18A27.76,27.76,0,0,0,50.54,254a89.56,89.56,0,0,1-10.64,2.37c-3.25.44-8.27,1.77-10.93,1.77S20.11,258.9,19.52,259.34Z"/><path class="cls-12" d="M63.68,254.17a13.18,13.18,0,0,1-.29,7.24c-1.33,3.25-2.07,4.72.44,4.87s4.43,1.92,3.84,3.55-1.18,4.72-2.81,7.09-7.23,10-8.27,11.22.15,5.32,3,1.92,5.61-6.05,4.57-3.69-3,6.79-4,9.3-3.7,6.65-4.58,9.31-2.37,7.09-1.77,7.53,0,1.92,2.36-.14,4.87-1.63,4.13-.15S56.15,314,55.85,315s-2.06,6.65,1,4.14,6-3,6.64-5,0-3.69,4.29-5.32,5.17-1.18,7.68-1,3.25.59,3.54-3.4,2.22-9.9-1.18-6.65S69,304.68,71.51,301s3.54-7.09,1.92-6.94-3.25.44-.59-1.92,4.43-6.5,7.68-5.47,4-.88,2.07-2.06-3.1-.59-4.88-2.07.89-1.63,2.66-5,2.81-9,.89-8.72-9.31,2.81-9.9,1-1.62-4.58-2.07-6.5,1.63-2.22,4.29-2.81,4.58-.3,4.13-1.92-.73-2.36.45-3.4,2.07-3.84,2.07-3.84-7.54.59-9.75,1S63.38,253.14,63.68,254.17Z"/><path class="cls-12" d="M67.37,287.85a31.31,31.31,0,0,1-2.06,5.61c-1,1.77,1.47-.3,2.36,1.18s1.77,1.77-.3,2.51-3.54.74-2.8,2.51,3.1,6.95,1,5.91-4.13-4-4.87-3.54a7,7,0,0,0-2.37,3.1c-.14.89.15,4.58-1.77,5s-3.4-.44-1.62-4,5.76-11.08,6.2-12.55a53.82,53.82,0,0,1,2.22-5c.44-1,1.92-1.62.88-3.54s-1.33-2.51-.88-4.58,2.66-5.17,3.1-6.06,1.77-1.33,1.92-2.95.88-3.1,1.62-1.62,4.58,3.1,3,5.31-3,1.63-4.58,4.14S68.11,285.48,67.37,287.85Z"/><path class="cls-12" d="M16.41,309.12a27.62,27.62,0,0,1,3-5c1.48-1.78,3.54-4.88,3.69-2.22s-.29,3.4-1.62,6.06-3.4,4.13-1.78,6.2,2.66,1.92,1.48,4.14.44,5.91-.29,8.12-1.63,8.71.88,7.09a15.2,15.2,0,0,1,6.21-2.07c1.47-.29,2.21.3-2.66,2.51a27.42,27.42,0,0,0-7.83,5.32s-3.1-2.51-2.37-5.32.74-6.2,1.78-8.86,1-6.79,1-8.42S15.53,310.15,16.41,309.12Z"/><path class="cls-12" d="M27.79,289.62s8.42,2.66,12.11,2.81,7.09.89,8.42.44,5-1.92,3.1-.15-2.51,1.19-6.35,2.22-6.5,1.48-8.42.59A42.09,42.09,0,0,0,30,293C26.61,292,23.21,288.74,27.79,289.62Z"/><path class="cls-12" d="M51.72,302.18s-4.88,8.86-10,10-9.75,1.48-11.08,3.4-5.46,3.25-5.76,4.58-1.47,5.91.74,3.1,5.91-6.06,8-6.2,6.64,1.47,9.16.14,6.2-4.13,7.82-6.94,4.29-5.32,5.17-7.09,2.66-6.65.89-7.83S52.75,298.19,51.72,302.18Z"/><path class="cls-12" d="M58.81,254.47s0,1-1.63,2.8-.59,3.11-4.58,3.25-7.53,0-6.2,1-4.88-1.48-3.55.74.59,2.66,3.7,3.84,8.42,4.87,4,4.28-5.76-1.33-8.41-3.25-6.5-2.66-7.69-2.21S31,267,27.34,267.61s-8.42.59-6.2-1.18,4.58-3.69,5-5.17-1.77-2.07,1.92-2.95,16-1.33,18.61-2.66,9.16-2.36,10.05-2.36S59.54,253.14,58.81,254.47Z"/><path class="cls-12" d="M86.87,316.65a5.49,5.49,0,0,1-3.25,4.14,46.69,46.69,0,0,1-7.68,2.36c-3,.59-5.46.44-7.24,3.25s-4.28,5.61-4.13,2.07-4.88-8,.29-7.83,13.89-.3,15.36-1.33S87.17,314.58,86.87,316.65Z"/><path class="cls-12" d="M80.37,381.79s-5.91,7.39-8.12,10-4,3.1-4,3.1-1.18,3.1,1,1.62,3-.59,6.5-3.25,10.19-5,8.72-6.5-1.92-2.21-1.92-3.39S80.81,380.16,80.37,381.79Z"/><path class="cls-12" d="M74.32,381.35a9.21,9.21,0,0,0-3.55,4c-1.33,2.81-3.4,4.14-3.69,1.48s-3.1-6.5.29-6.79S75.79,377.8,74.32,381.35Z"/><path class="cls-12" d="M91.45,386.66s-2.66,1.78-5.91,3.85-11.67,6.94-7.68,5.46,6.06-2.22,7.83-3.4,4.73-2.06,5.17-2.51S93.22,386.22,91.45,386.66Z"/><path class="cls-12" d="M91.45,391.84a12.79,12.79,0,0,0-2.36.88c-1.18.59-2.22,1.48-.45,1.63s2.66,2.06,3.25,1.33.89-.89.74-2.07S93.22,389.32,91.45,391.84Z"/><path class="cls-12" d="M11.24,414.43a19.08,19.08,0,0,1,5.62-2.65,30.73,30.73,0,0,1,9-1.63c2.51-.15,4.13-2.95,2.51-.15s-3,3.4-4.58,4S21,417.09,18,416.65,8.58,415.76,11.24,414.43Z"/><path class="cls-12" d="M23.65,418s3.69-1.92,6.06-3.55,5-2.06,5.91-1.47,3.54-.45-.45,1.47S26.16,418.42,23.65,418Z"/><path class="cls-12" d="M35.76,408.53c-2.18.39-2.66-1.19-5.9-.74s-7.24,1.62-4.88,0,3-4.14,5.17-3.69,2.51,1.32,3.84,1.77S40.64,407.64,35.76,408.53Z"/><path class="cls-12" d="M41.38,340s-4.14,8.86-6.65,10.63a16.14,16.14,0,0,1-6.79,3c-2.66.59-6.8,1-3.7,2.51s4.43,3.84,3.7,5-6.36,7.83-1,4.73,6.94-4.58,8-6.5,3.25-4.87,3.69-6.2,4.14-6.06,4.58-8.72S44.33,335,41.38,340Z"/><path class="cls-12" d="M53.49,274.55c-.37.29-6.65-.59-8.27,1s-4.14,5.46-5.91,7.24-4,5.9.59,3.83,6.94-.29,8.27-2.51.3-3.1,4.43-4.87,7.83-2.95,6.5-4S55.41,273.08,53.49,274.55Z"/><path class="cls-12" d="M91.45,399.81l-3.69,2.95c-1.48,1.18-3,2.22-1.63,0s1.33-2.95,2.66-3.54S92.48,398.33,91.45,399.81Z"/><path class="cls-12" d="M85.69,398.63s-1,.15-3.1,2.21-3.55,3.55-2.66,1.63-.59-2.81,1.92-3.55S87.17,396.85,85.69,398.63Z"/><path class="cls-13" d="M25.28,261.55a11.9,11.9,0,0,1-3.11,2.37,4,4,0,0,0-2.06,2.8,7.2,7.2,0,0,1-.59-2.36c0-1-.6-3.69.29-3.1s.3,2.95,1.48,1.77S25.28,259.93,25.28,261.55Z"/><path class="cls-13" d="M20.11,287.26a2.54,2.54,0,0,1,1,2.95c-.44,2.22-1,4.87.15,4.13s2.21-.88,0,2.22-3.25,6.06-3.1,4,.44-8.57.44-10.19-.15-6.21-.15-6.21A3,3,0,0,1,20.11,287.26Z"/><path class="cls-13" d="M25,340.43a43.46,43.46,0,0,1-5,8.27c-2.81,3.4-6.21,7.68-6.35,9.6s.29,2.37-.74,3.55-3,2.06-3,3.69-2.21,3.55-2.06.89a46.33,46.33,0,0,1,1.47-8.27c.45-1.48,2.66-6.21,3.25-9.46s2.07-5.76,2.51-6.05.45-.89,3.7-1.19S26,339.1,25,340.43Z"/><path class="cls-13" d="M12.28,403.65a14.62,14.62,0,0,1-.15,4.28c-.44,1.92-2.66,3.1-.3,2.81s3.4-1.92,2.37-.3a14.25,14.25,0,0,1-3.55,3.25s-2.21.45-1.62-2.95a44.26,44.26,0,0,1,1.33-6.06C10.8,403.21,12.13,401.43,12.28,403.65Z"/><path class="cls-13" d="M85.54,338.21a24.92,24.92,0,0,0-1.77,5c-.59,2.65-.59,3.39-.15,4.13s1.63.89.59,2.81-4.13,5.17-2.36,4.43,3.69-1.77,3.84.44,1,5.47.15,6.94-1.78,3.7-3.11,4.44,1,2.06,2.81.88,2.07-2.66,2.37-1.62,3.69,3.84,2.36-.74-4-11.38-4.29-14.33-.59-5.46-.59-7.68S85.69,337,85.54,338.21Z"/><path class="cls-13" d="M83.62,249.74s-2.81,2.36-1.92,3.54,1.77,2.81,1.92,6.35,1.63,9,1.77,6.36,0-6.36,0-6.8.45-3.4,1.48-2.36,3,2.06,1.77-.59-2.06-4.43-2.66-5.76a5.56,5.56,0,0,1-.59-1.78S81.41,249.29,83.62,249.74Z"/><path class="cls-14" d="M124.17,1s.55-1,1.22-1,1.21,1.11,1.21,2.66a42,42,0,0,0,1.11,8.53,95.9,95.9,0,0,0,3.22,10.63,24.43,24.43,0,0,0,2.43,4.32c.89,1.22,15.51,21.72,17.73,25.26a169.8,169.8,0,0,1,8.2,15.18c.88,2.33,7.42,28.36,7.42,28.36l-1.11.44s-.66.34-.89-.88-6.64-27.14-6.64-27.14L142.89,42.54,130.15,24.93,124.83,2.77S124.72,1.22,124.17,1Z"/><path class="cls-15" d="M160.28,95.16s-3.1-15.73-4-18.83-4.66-14.85-9.09-21S132.37,34,129,28.91s-6.42-17.28-6-21S124.17,1,124.17,1s1.55-2.22,1.55,2.43,2.88,15.51,4.87,19.5,12.19,17.73,16.18,23.49S157.62,63,159,67.69s6.65,27.69,6.65,27.69S160.73,96.49,160.28,95.16Z"/><path class="cls-16" d="M170.36,119.87s-3.21-11.75-3.76-13.19-1.55-8.64-2-9.41a19.56,19.56,0,0,0-3.1-2.77s-.33-.45,1.22-.45,4.43-.66,5,3.88c0,0,0,2,.66,2s1.55-.23,1.77.55c0,0,2.11,0,2.11,1.66,0,0,0,2-.89,2.11,0,0-.33,1.32-1.33,1.32,0,0,.11,5.1.33,7.21S171.36,122.3,170.36,119.87Z"/><path class="cls-17" d="M163.05,94.72s2.88,1.11,3.33,2.66a18.19,18.19,0,0,1,.88,4.65c0,1.44,0,4,2.77,3.54a2.26,2.26,0,0,0,1.33-1.32,1.82,1.82,0,0,0,.89-2.11s-1.44-1.11-1.66.33c0,0-1.11-.11-.67-1.44h-1.66c-.89,0-.22-1.77-.78-4.54C167.48,96.49,166.82,94.28,163.05,94.72Z"/><path class="cls-18" d="M170.09,100.48c0,.21-.44.39-1,.39s-1-.18-1-.39.43-.39,1-.39S170.09,100.26,170.09,100.48Z"/><path class="cls-18" d="M171.47,101.1c0,.15-.23.28-.52.28s-.53-.13-.53-.28.24-.28.53-.28S171.47,100.94,171.47,101.1Z"/><path class="cls-19" d="M162.2,111a32.72,32.72,0,0,1-1.62-11.67c.29-6.5,3.25-4.58,4.28-3.54s1.63,6.79,1.92,8.56a23.56,23.56,0,0,0,2.37,5.91c.74,1.33,1.92,8.27,2.36,12s2.07,12.55,2.36,14.32a16.76,16.76,0,0,1,.3,4.88c-.15,2.21-3.4,32.2-3.84,36s-1.63,10.19-1.92,13.15-.74,9.74-.74,9.74-1.18,1.63-4.88.89c0,0-.14-8.57.3-14s3.1-10.34,2.66-15.95-2.37-9.75-1.18-16.1,1.92-30,.59-36.34S162.2,111,162.2,111Z"/><path class="cls-20" d="M158.81,110.6s-3.11-7.39-2.37-11.08,2-6.31,5.22-5.28c0,0,1.44.61.54,3.65-.51,1.73.15,9,1.18,11.82s3.11,10.05,3.11,15.36-1,27-1.78,32.94,1,8.13,1.33,9.9a24.35,24.35,0,0,1-.88,13c-2.22,5.9-3,17.28-2.37,20.38a4.67,4.67,0,0,1-4.43-5c0-4.88.45-11.08,1.78-13.74s2.8-11.22,1.77-14.33-1.33-9.45-1-15.8,1.78-14.33,1.78-17.14.29-16.39-1-18.9A32.67,32.67,0,0,1,158.81,110.6Z"/><path class="cls-21" d="M161.5,95.23c0,.27-.66.58-1.54.68s-1.62,0-1.65-.3.65-.58,1.53-.69S161.47,95,161.5,95.23Z"/><path class="cls-16" d="M161.28,190.1c0,1-.6,1.77-1.33,1.77s-1.33-.79-1.33-1.77.6-1.77,1.33-1.77S161.28,189.12,161.28,190.1Z"/><path class="cls-16" d="M169.7,182.13s1.22,4.87,1.11,6.42.22,1.66.66,1.88a2,2,0,0,1,1.33,2.33c-.11,1.77-.44,1.44-1,1.77s-.66,1.11-1.33,1a1.89,1.89,0,0,0-2,1.55c-.33,1.22-.66,2.11-.66,2.11s.55-9.2.88-11.08S169.7,182.13,169.7,182.13Z"/><path class="cls-17" d="M168.7,188.88s0-.77.89-.44,1.22.11,1.22.11-.78,2-.22,2.66,1.1.11,1,1,.78,1.22,1.22.55c0,0,.33,1.66-1,1.77s-1.21-.33-1.77-.22-1-.33-1.11.44-1,2.22-1,.56A42.91,42.91,0,0,1,168.7,188.88Z"/><path class="cls-18" d="M172,190.71s-.5.17-.55.55-.45-.66-.34-1S171.86,190.55,172,190.71Z"/><path class="cls-18" d="M172.58,191.38s-.44.05-.28.83S173,192.59,172.58,191.38Z"/><path class="cls-17" d="M159.06,188.94a1.47,1.47,0,0,1,.5,1.05c-.05.56-.27-.22-.33.39s.17,1.44.39,1.22,1.33.27,1.11-1.44S159.56,188.22,159.06,188.94Z"/><path class="cls-22" d="M161.47,201s-2.37,13.3-3.4,17.43-5.62,16.25-9.16,21.42c-3,4.32-15,19.26-17.58,23.34s-9.16,15.36-8.12,21.27,3.25,7.53,3.39,5,.3-10.19,2.52-14.32a118.7,118.7,0,0,1,11.52-16.7c5.32-6.64,14.47-17.57,17.72-26.14S166,205,166.34,201A10.89,10.89,0,0,1,161.47,201Z"/><path class="cls-14" d="M167.67,200.4s-2.51,11.53-3.4,15.4-4.65,16.4-7.31,19.94l.66-3.32s7.32-18.17,8.09-31.24C165.71,201.18,167.63,200.07,167.67,200.4Z"/><path class="cls-23" d="M166,122s-.11-1.22.56-1.22h3.76a21.27,21.27,0,0,0,2.33,1c1,.33,2.88.89,4-.11s.55-2.11,1.55-3.21a16.79,16.79,0,0,0,1.44-1.78l.11-3.76a1,1,0,0,1,1.44.22s-.22,21.38-.22,23.26-2,3.1-2,.78.22-2.66-.78-3.55-1-2.1-1.22-3.21-1-2.66-2-2.77a4.27,4.27,0,0,0-3.33,1c-1.33,1-4.65,1.22-5.31,1.11C166.38,129.73,165.82,128.29,166,122Z"/><path class="cls-24" d="M173.47,122.08a4.92,4.92,0,0,0,2.54-1,10.44,10.44,0,0,0,1.33-2.88c.23-.55,1.89-1.33,1.89-1.88s.55-3.43.55-3.43l-.11,3.76a29.59,29.59,0,0,0-1.77,2.55C177.57,119.87,177.12,123.3,173.47,122.08Z"/><path class="cls-24" d="M175.79,128.17a9.73,9.73,0,0,1,.89,3c0,1.1.66,1.66,1.55,2.43a19.63,19.63,0,0,1-1.22-3.21A5.7,5.7,0,0,0,175.79,128.17Z"/><path class="cls-25" d="M181.11,123.19s-1.55-.33-1.66-1.33a11.13,11.13,0,0,1,0-3.32,1.36,1.36,0,0,1,1.55-1c.77.11,2.33,0,2.55.66s0,1,.44,1.22a14.79,14.79,0,0,0,2.88.22s.89.89,0,.89-3-.11-3-.11A2.89,2.89,0,0,1,181.11,123.19Z"/><path class="cls-26" d="M181.11,123.19s0-1.51.52-1.59,1.77-.07,1.92-.37A2.37,2.37,0,0,1,181.11,123.19Z"/><path class="cls-27" d="M185.32,119.76s1.26.07,1,.22.15.59.52.55.67-.85,0-.89S184.73,119.53,185.32,119.76Z"/><path class="cls-28" d="M181.85,117.84a1,1,0,0,0-.44.81c0,.51,0,1.62.59,1.11s1.33-1.19,1.55-1,.15-.67-.3-.82S181.7,117.69,181.85,117.84Z"/><path class="cls-16" d="M160.46,105a1.43,1.43,0,1,1-1.61-1.51A1.57,1.57,0,0,1,160.46,105Z"/><path class="cls-17" d="M158.66,106.68a1.21,1.21,0,0,1-.3-1c.15-.44.08-1.25.52-1.1s.07.14.44.59,1.11.81.74,1.1S159,107,158.66,106.68Z"/><polygon class="cls-23" points="124.17 7.42 86.16 133.22 85.62 133.05 123.99 6.43 124.17 7.42"/><path class="cls-23" d="M126.07,288.19c.22.72.08,1.39-.3,1.51s-.87-.37-1.09-1.09-.08-1.39.3-1.51S125.85,287.47,126.07,288.19Z"/><path class="cls-23" d="M124.85,7c0,.88-.27,1.59-.61,1.59s-.6-.71-.6-1.59.27-1.58.6-1.58S124.85,6.1,124.85,7Z"/><path class="cls-29" d="M96.55,146.05s6.5.37,7.83.88,3.39.3,5.24.15,8.64-.81,13.51-.29,19.06,1.77,21.64,1.69,6.06-.36,8.2-.51,4.14,0,5.1-.59,2-3.25,3.54-3.33a2.39,2.39,0,0,0,1.92.89,20.75,20.75,0,0,0,4.8-.59,5,5,0,0,1,3.18.22c.89.37,1.85,1.33,2.44,1.55s1.84.89,2.06,1a1.39,1.39,0,0,1,.08,2.59,1.75,1.75,0,0,0-.08,1.62c.45.74.89,2.14-.36,2.81a2.93,2.93,0,0,0-.3,1.11c0,.51-.22,2.36-.74,2.51s-.22,1.55-.88,2.21-1.11.82-1.41.74a1.66,1.66,0,0,1-.37-2,2.51,2.51,0,0,0,.45-1.7,4.1,4.1,0,0,1,.36-2.14,1.57,1.57,0,0,0,.37-1.33,6.57,6.57,0,0,1-.14-2.14c.14-.82.59-.52.14-.82s-1.1-.07-2-.37-1.25-1.1-2.14-.37-1.33,2.81-3,4.21-2.44.89-2.88,1.63-2.29,2.58-2.29,3.47.15,3.4.15,3.4a3.17,3.17,0,0,1-1.77-1.7c-.6-1.33-1.19-2.22-2.37-2.22a34.05,34.05,0,0,0-8.27.74A116,116,0,0,1,133,161.7a80,80,0,0,1-13.15.45c-4.06-.37-6.57-1-8.27-1a43,43,0,0,0-4.65.37c-2.37.22-11.75,1-13.22,1C93.67,162.52,98,154.25,96.55,146.05Z"/><path class="cls-30" d="M96.92,149.74l7.09.52c4.06.29,5.17,1.4,10.11,2.58a18.94,18.94,0,0,0,9.53,0c2.22-.37,2.22-1.84-.29-2.36s-5.91-.37-8.65-.74-4.65-.89-4.94-.89,2.06-1.4,5.68-1.33,11.53,2.15,17.36,2.29,13.44-.36,15.88-.44,4.87-.22,6.35-.15-.59.59,1.33,1a4.45,4.45,0,0,0,3.17-.22c.89-.29,1.48-1.25.52-1.25s-.07.07.22-1a12.41,12.41,0,0,1,1.26-2.52s.29-1.55-1-.59-2.22,2.74-3.26,2.88-8.78.67-10.11.74-8,0-10.27-.22-12.26-1.55-14.55-1.55-6.2-.22-8.79.07a55.22,55.22,0,0,1-6.72.6c-1.47-.08-2.58-.67-4.06-.82s-6.2-.29-6.2-.29S96.84,149.44,96.92,149.74Z"/><path class="cls-31" d="M96.7,146.56a49.42,49.42,0,0,1,5,.23c1.47.22,4,.88,5.24,1a43.47,43.47,0,0,0,6.28-.82,44.75,44.75,0,0,1,8.34,0c.82.15,2.22.82-.22.59s-6.28-.51-7.09-.44-3.1,1-4.36,1.26-1.77.37-1,.74,3.92,1.55,1.11,1.18-3-1.41-5.46-2a47,47,0,0,0-8-.51S96.1,146.49,96.7,146.56Z"/><path class="cls-31" d="M144.77,149l7.76-.52c1.25-.07,3.17-.29,3.84.15a3.37,3.37,0,0,0,1.92.81c.52-.07.74-.22,0-.51s-.89-.52.29-.74,1.93-1.92,2.22-2.29.52-1.33.22-1.11-1.4,1.92-2,2.37a3.06,3.06,0,0,1-2.14.88l-10.57.52S142.48,148.78,144.77,149Z"/><path class="cls-32" d="M94,162.15s2.66-.67,4.57-1.26,4.14-1.55,6.06-1.7,4.28.3,6.43-.22,2.58-2.44,4.5-3,2.29-.73,5,.23,11.23,4.21,17.36,3.76,10.41-2.21,12-3.32,5-2.36,7-3.4,3.54-2.58,4.06-1.77.44,1.25-1,2.88-2.88,3.54-2.14,4.5c0,0-2.59-.14-3.47-.14a32.14,32.14,0,0,0-7.1,1,148.92,148.92,0,0,1-16.46,2.44c-2.37.07-7.54.44-9.46.29s-6.87-.81-8-1a22.68,22.68,0,0,0-4.5-.07C107.18,161.56,92.85,162.89,94,162.15Z"/><path class="cls-33" d="M117.45,158.46a33.65,33.65,0,0,0,4.73,2.65c1.47.52,4.65,1.33,2.65,1.33s-7.9-.51-8.64-.66a23.33,23.33,0,0,0-2.88-.3c-.44,0-.81-.66.37-.81S117,158.9,117.45,158.46Z"/><path class="cls-33" d="M157.85,158.82a2.84,2.84,0,0,1,.37-2.43c.81-1.26-.23-.67-.74-.15a5.7,5.7,0,0,1-2.07,1.62c-.89.3-2.36.82-1,.82S157.63,158.6,157.85,158.82Z"/><path class="cls-32" d="M160.58,162.37s-.89-.89-.74-1.55-.22-2,.44-2.66.59-1,1.26-1.63a4.71,4.71,0,0,0,1.11-1.84c.14-.37.51-.74,1.7-1s1.47-1,2.06-1.47a11.62,11.62,0,0,0,1.63-2.07c.22-.37.81-.81.59-1.55s-1.7-2-1-1.7.89.81,1.7,1.33,1.48,1.33,1.33.59-1.77-2-.51-1.77,1,1,2.8,1.11,2.07.36,1.77-.3-.22-1.4,0-1.18.23,1,.82,1.55,1.47.44,1,1a1.78,1.78,0,0,0-.59,1.18,11.23,11.23,0,0,0,.22,1.4s.22,1-.29.52-1-.89-1.41-.59-.81-.07-.88.89-.15,1.84.51,1.62,1.78-.44,1.56-.07a4.45,4.45,0,0,0-.3,1.4s-.22-.66-.67-.74-.88-.22-1.1.67-.82,1.7-.15,2a3.15,3.15,0,0,0,1.18.3s-.15,1.33-.52,1.18-1.33-.44-1.33-.44l-.51,1.25s-.59.07-.3-1,.22-2.81.59-3.55.74-.81.59-1.62a4.68,4.68,0,0,1-.22-1.85c.15-.44.82-.89-.22-1a18.21,18.21,0,0,1-1.92-.3c-1-.22-.88-.89-1.33-.44a22.23,22.23,0,0,0-2.14,2.8,7.14,7.14,0,0,1-2.22,2.29,5.57,5.57,0,0,0-1.7.89,21.67,21.67,0,0,0-1.91,2.29c0,.22-.74.22-.67,1S161.32,162.89,160.58,162.37Z"/><path class="cls-34" d="M175.65,149.52a3.47,3.47,0,0,1-1.7.44,8.84,8.84,0,0,1-2-.07s-2.36-.08-1.48.22a7.76,7.76,0,0,0,2.22.52.34.34,0,0,1,.44.44c-.07.3-.22.81.3.37s1.84-.3,1.33-.44-1.11.22-.52-.15S176.09,150.33,175.65,149.52Z"/><path class="cls-34" d="M172.32,157.35s-.07.29.67.44a6.27,6.27,0,0,0,1.1.15s-.07.29-1.92.22C172.17,158.16,172,157.13,172.32,157.35Z"/><path class="cls-30" d="M175.28,146.79a2.17,2.17,0,0,0,.81,1.1c.66.52,1,.52.66-.07S175,146.42,175.28,146.79Z"/><path class="cls-30" d="M167.08,145.38a11.71,11.71,0,0,1,1.33,1.18c.44.52.88.6.44-.14s-1-1.18-.29-1.26,1.91.74,2.51.89.81-.15-.15-.74-1.11-1.18-2.07-1S165.38,145,167.08,145.38Z"/><path class="cls-35" d="M122.1,162.44s1.11-2.88,1.26-3.69-.3-1-.23-1.7,1-1.18.23-2.14-3.55-3.4-3.11-5,2.51-2.14,2.59-2.59.15-.74.59-.74,4.06.15,5.76.3,5.69.59,7.16.81a19,19,0,0,0,3.11.15s.66-.67,1.18-.22.74,1.48,1.4,1.62,4.06,1.63,4.28,3.33-.59,4.58-3.47,4.94a1.43,1.43,0,0,0-1,1.11,5.25,5.25,0,0,1-.59,2.29c-.37.37-.59.52-.88.45s.22-.3.14-1.26.37-2-1.25-2.22-6.5.08-8.72-.29-5.09-.37-5.46.22-1.18,3.62-2,4.65C123.13,162.44,122.25,163.4,122.1,162.44Z"/><path class="cls-36" d="M141.08,155.21s-12.41-.6-14.18-.67-1.92-.37-1.92-.81.52-.81-.74-1-4.65-1.25-4-2.8,1.7-1.48,2.07-2.07.22-1.18,1.11-1.26a48.63,48.63,0,0,1,5.17.23c1.77.14,5.32.44,7.09.73s3.1.45,3.69.6,1.7.88,1.33,1a86.82,86.82,0,0,1-8.86-1c-1-.22-.3.44,1.11.59s6.87,1.18,6.87,1.18,1.47.74.29.74-7.24-.74-7.53-.74,2.14.67,2.43.81,1.19.74-.22.74-1.92.37-1.1.52,1.69.52.66.59-5.1.15-5.76.07-3.25.23-.15.45,4.51.22,3.84.37-1.47.44,1.55.66S141,154.61,141.08,155.21Z"/><path class="cls-37" d="M48.47,139.7a5.93,5.93,0,0,0,.44,2.21A1.33,1.33,0,0,1,48,144a13.1,13.1,0,0,1-5.31-.89c-1.92-.74-8-2.51-8.42-2.51a3.73,3.73,0,0,0-2.22,1.63c-.74,1-5,6.79-6.2,7.68a2.91,2.91,0,0,1-4.14-.45c-1.48-1.47-2.36-4.43-3.54-7.23s-2.81-4.29-2.66-7.83a34,34,0,0,0,0-4.73,23.66,23.66,0,0,1-1.48,2.07,25.06,25.06,0,0,1-4.28,4.43c-1,.74-2.07,1.33-3.55,2.36s-.59,1.92-1.92,3.11-2.36,1.92-2.51,2.8-1.62,1.78-1.77,5S.61,155.8,1.64,157s1,3.25,1,4.13a10.36,10.36,0,0,0,.74,4.29c.73,1.62,1.47,1,2.51,3.25s-.15,1.77,1,3.25,1.18,3.39,1.33,6.35a10.16,10.16,0,0,0,1.63,5.46c.59.89,2.06,7.54,3.39,9.16a15.05,15.05,0,0,1,2.37,3.69c.44,1,2.06,4,2.06,5.17s-.29,7.54-.59,10.64,1,7.68,1.33,10.78,1,7.24.59,8.13a11,11,0,0,0-.29,5.61,22.52,22.52,0,0,1,.44,6.06c-.15,1.47-.29,6.79-.44,8.71s-.89,7.68.15,8.12,2.65,1.19,6.35.3,5.17-1.62,9.3-2.07,6.8-.44,9.75-1.48A62.52,62.52,0,0,1,56.59,254c4.28-.44,6.06,0,8.86-.14s2.07-.45,6.36-1.19,5.17-.88,7.53-1.47,5.17-1,6-1.63,1.33-.88.45-3.1-.74-4.58-1.18-7.09a41.35,41.35,0,0,0-1-5.46c-.59-1.93.59-9.61-.88-15.22s-2.37-9.6-2.51-12.11-2.52-13.89-2.66-18.17-.89-6.2-1.33-9.16-1-4.58-.74-5.31a3.83,3.83,0,0,1,3.84-2.52c2.66,0,6.35.45,8.27.45s3,1.33,3.4-.3,1.18-5,2.21-6.2,5.47-9.6,4.29-19.65c0,0-2.51,0-4-.15s-3.84-.14-6.2-.14a22,22,0,0,1-5.77-1,25.4,25.4,0,0,0-5.17-.88A29.24,29.24,0,0,1,68,142.06c-3.55-1.18-6.06-2.22-7.69-2.22s-2.51-.44-4.13.15a7.23,7.23,0,0,1-4.28.59C50.24,140.29,50.24,138.66,48.47,139.7Z"/><path class="cls-5" d="M97.8,148.89s.33.55-1.11.44a4.41,4.41,0,0,1-2.21-.44c-.67-.33-2.22-1.22-3-.22s-.56,2.88-1.66,3.1-3.44-2.1-5.76-1.33a8.39,8.39,0,0,1-6.21-.22,9,9,0,0,1-3.1-1.88c-.89-.89-2-1.11-1.77-.34s2.55,6.21,2.55,8.31.88,6.43.33,8.53a22.72,22.72,0,0,0-.89,3.55c-.22,1.55-.66,6.42.67,5.09A5.81,5.81,0,0,1,80,171.6c1.33.11,5.2.33,6.53.44s3.33,1,4,.11,1.55-3.76,2.22-5.31,3.54-6.1,4.1-8.75A77.83,77.83,0,0,0,97.8,148.89Z"/><path class="cls-5" d="M45.73,144s-.88,1.33,0,2,3.66,2.55,4.55,2.55,1.33,1.77-1.11,1.22-4-.89-8.42-3.44-5.76-4.43-6-3.1a38.51,38.51,0,0,1-2.44,8.2c-1.11,2.1-1.44,5.76-1,6.76s2.33,2,1.44,3.43.67-.11.89,1.22-3.88,4.32-4.43,6.31.44,5.43-.56,8.64-2.77,8.09-4,11.19S19.92,201.18,20,201.51s0-1,.89-5.09,2-15.18,4-19.06,4.32-7.64,3.21-6.76S24.24,175.15,25,172s2.1-6,3.65-7-.33-2.32-1.66-1.32a36.39,36.39,0,0,1-6.2,3.54c-2.66,1.22-3.21.55-3.21-1s-1.67-4-.34-4.32,5,.22,7.2-.66,2.11-2.22,3-4.43,1.1-3.55-.23-3.44-3.43.67-5.31-1.44a12,12,0,0,1-3.55-9.3,46.41,46.41,0,0,0,2.33,5c1,1.66,3.25,4.21,5.17,2.22a41.16,41.16,0,0,0,5.24-6.21c1.22-2,2.14-3.21,3.18-3.1a10.3,10.3,0,0,1,3.47.67c1.22.55,3.43,1.22,4.32,1.55S45.4,143.68,45.73,144Z"/><path class="cls-38" d="M31.67,144.9a23.88,23.88,0,0,0-2.55,2.55c-1,1.22-1.66,3.32-2.88,4.1s-3.55,1.22-4.77-.22A21.54,21.54,0,0,1,19,147.12l-.67-4.43a33.49,33.49,0,0,0,2.33,5c.88,1.22,3.36,4.1,5.17,2.22s4.58-5.32,4.58-5.32l2.1-3A3.48,3.48,0,0,1,31.67,144.9Z"/><path class="cls-39" d="M74.65,151.88s2.77,3.66,3,5,1.55,6.64,3.54,5.65,5.32-2,4.1-.89-4.76,4.43-2.32,3.77,2.21,1.33,1.66,2,1.88-.66,2.44.22.77,4.66,1.77,5c0,0-3.44-.67-5.21-.78s-3.88-.33-5,.11-3.1,1.89-3.22,2.44-.88-.78-.77-3,1.22-6.65,1.22-7.42,0-6.65-.33-7.65S73.87,150.66,74.65,151.88Z"/><path class="cls-40" d="M59.36,139.81a8.29,8.29,0,0,1,2,1.33c.45.55.56.22,2.66,1.33a29.27,29.27,0,0,1,4.88,3c.88.77,2.21,4.65,1,3.65s-1-1.22-2.44-2.55-4.77-4.09-4.77-4.09-.88.33.45,2.21,3.54,3.44,4.43,4.88,2.88,5.42,1.66,3.65a22.75,22.75,0,0,0-4-4.32c-.44-.22-1.44-.66.22,1.88A27.57,27.57,0,0,1,68,155.32a1.14,1.14,0,0,0,2,.33c1-1.11.66-2.33,1.1-1.55s1.78,1.33.78,2a13.07,13.07,0,0,1-4.76,1.33,28.32,28.32,0,0,1-5.88.44c-2.21-.22-2.32.12-1.88,1.11s.44,2.77,1.22,3.33,2.55,2.32,1.11,1.66a5.08,5.08,0,0,1-3.33-3.88c-.66-2.55-1.44-4-2.65-5.1a19,19,0,0,0-5.1-3c-1.33-.44-3.32-1-1.33-1s4.65.22,3.66-1.11-1.11-1.66-1.78-1.77-1.11.11-.33-.67,1.11-1.22-.55-1.11-3.22-.88-2.22-1.33.89-1.1.89-2.21-1-3.66-.48-3.1a8.82,8.82,0,0,1,1.81,3,34.65,34.65,0,0,0,2.77,4.87s2.32,2.77,1.77,1.22-1.11-3.77-2.11-4.54-4-4.88-3.1-4.77,2,1.34,2.26,1.11,1.51,1.66,1.62,2.22,2.1,4.21,2.33,4.87,1.33,4.1,1.66,5.32-.11,3.21,2.55,3.21,2.1-1.66,3.43-.77,4,1.88,2.88,0-2.33-3.33-2.77-4.1.44-.67-1.44-1.22-2.55-.67-4-2-2.88-3.66-2.1-3.22,2,2.22,3.1,2.77,4,2,2.55.22-1.11-2.77-3.77-3.54a12,12,0,0,1-3.77-1.66s-.11-.56,1.56-.22,4.54,1,4.09.33-.11-1-1.66-1a29,29,0,0,1-4-.44s-1.44,0-.22-.56a9,9,0,0,1,2.22-.81A5.81,5.81,0,0,1,59.36,139.81Z"/><path class="cls-40" d="M74.09,143.68s3.44,1.11,4.1,2.77.89,3.33,1.55,2.22,1.67-2.33,2.44-1.55a3.34,3.34,0,0,0,3.21.88c1.22-.33,1-.88,2.66-1s1.89.33,3.44.11,6.31.66,6.31.66l-.29-2a25,25,0,0,0-4.47-.4c-3.33-.12-6,.11-7.76-.12s-4.1-1.1-5.09-1.21S73.65,143,74.09,143.68Z"/><path class="cls-41" d="M10.17,135.93a27.72,27.72,0,0,1-1.66,2.77,23.73,23.73,0,0,0-1.66,4c-.33.77-1,2.77-1,1.33s-.44-2.22-.55-1.78-.55,2.66-1,2.55-.44-1-1-.22a11.07,11.07,0,0,0-1,3.1c-.33,1.11.22,2.88-.67,3s-1.66,0-1.55-1.88,1.22-3,1.33-3.66-.11-1.77.89-2.43,2.32-1.22,2.55-1.78a10.92,10.92,0,0,1,1.36-2.4C6.74,137.92,10,135.6,10.17,135.93Z"/><path class="cls-41" d="M1.64,157l1.78,1.33c.88.66.66.44.55,2.21s-.44,2.88.44,4,1.55,2.33,1.11,2.22a2.11,2.11,0,0,1-2.1-1.33,11.44,11.44,0,0,1-.74-4.29A10.68,10.68,0,0,0,1.64,157Z"/><path class="cls-42" d="M10.06,137.63s-1,12.26-1,15.21.15,5.17-.89,3.84-1-6.35-.88-9.16a21.77,21.77,0,0,1,1.18-5.61S9.91,136.74,10.06,137.63Z"/><path class="cls-42" d="M12.28,137s.15,7.83.29,10.78.45,12,.59,13.59-.29,4-1.32,2.36-1.48-1.62-1.48-4.87.29-10.93.59-13.15S12,135.86,12.28,137Z"/><path class="cls-42" d="M15.38,140.43s.44,4.58.74,8,.59,10.78.29,11.67-2.36-1.62-2.21-4.73.15-6,.15-9.45S14.94,138.81,15.38,140.43Z"/><path class="cls-42" d="M21.14,176.33s1.33,5.46.3,8.12a47,47,0,0,0-2.37,7.83c-.14,1.33-.88,1.63-.59-3.1s.59-6.65.74-8.72S21,175.44,21.14,176.33Z"/><path class="cls-42" d="M13,174.41s-.3,3.25-.59,5.76-.3,6.05.14,7.38,1.48,4.88.45,3-3-6.8-3-8.13-.29-3.54.45-5.17S12.43,173.08,13,174.41Z"/><path class="cls-42" d="M40.49,147.82s10.64,8.27,13,12.11,11.23,15.95,12.26,17.73,4.58,8,5.76,11.37,2.95,7.24,3.69,9.45,2.66,7.24,3.1,10.2,2.52,5.91,2.81,8.12,1.33,7.68,1.18,10.19-.59,1.33-1.18-1S75.2,217,73.43,211s-5-19.35-7.39-23.49-11.07-17-11.66-19.49-5-9.16-7.09-12S39,147.08,40.49,147.82Z"/><path class="cls-42" d="M37,146.49s6.49,8.57,8.56,11.23,6.06,8.56,6.5,10.63,1.92,4.43,3.1,6.5S59.4,184,62.2,189.47s8.28,18.32,9.46,21.57,3.39,7.83,4.72,11.52,5.91,18.32,2.81,12.26-6.65-11.08-11.37-22.16-13.74-27.32-16.69-34.41S46,160.67,43.89,157.57s-5-7.09-6.06-7.83S34.88,144,37,146.49Z"/><path class="cls-42" d="M46.84,180.17s11.23,21.27,13.3,25.55,7.38,18,10.19,21.86,10,12.7,11.37,14.77,2.07,8.13,0,8.57-9.3,1.33-10.63,1.92-5.32,1.77-7.39,1.33a3.51,3.51,0,0,1-1.92-5.32c1.33-2.21,2.07-6.94.59-14.18S51,212.52,50.68,206.76s-.44-10.49-2.21-16S45.36,178.1,46.84,180.17Z"/><path class="cls-42" d="M34.29,165.69s7.09,11.52,8.42,16.84S48.17,201.14,48,205s-1,16.84-.59,19.06,3.25,10.49,4.43,14.92S59.55,253.43,56,254s-10.78,2.37-10.78,2.37-.45-.3.88-6.06S45.36,238.66,44,232.9s-3.11-9.31-4.58-5.61a22.85,22.85,0,0,0-.59,14.32c1.47,5.77,4.43,15.51,3,15.66s-6,.45-7.24.74-4.87,1-5.76,1.33.3-3.1.59-5.46.15-10.94.15-12.86-2.07-7.53-2.66-5.9a98.14,98.14,0,0,1-3.69,9.15c-1.77,3.7-2.81-5.31-1.77-10s4.58-15.36,6.2-27.18,4.87-26.59,4.87-30.43-.73-6.79-.14-8S32.66,163.92,34.29,165.69Z"/><path class="cls-42" d="M63.39,166.73s6.35,8.42,8.12,11.07a47,47,0,0,1,4.43,9.75c.74,2.37,2.66,13.44,1.33,9.46S73,185.19,72.1,183.27a96.61,96.61,0,0,0-5.47-10C65.16,171.16,60.58,163.62,63.39,166.73Z"/><path class="cls-43" d="M48.62,140.43s-.67-.29,1-1,6.54-.22,8-.81,2.8-2.95,2.95-6a39.43,39.43,0,0,0-.3-5.91c0-.74,0-2.07.89-2.37s3.84-1.47,2.22-4-3-4.29-3.25-5.32.44-1.63.59-2.66a17.86,17.86,0,0,0-.3-3.84c-.15-1.18-.44-2.51-2.07-2.51s-8.56,2.07-9.89,4.43-5.47,9.9-9.31,11.37-11.67,5.76-11.67,5.76a61,61,0,0,0-1.62,6.65c-.3,2.22,1,10.34,1.48,13.89A35.88,35.88,0,0,1,32.07,143c1.92-1.48,2.81-2.07,5.61-1.19s7.39,2.81,9.61,2.81S48.91,142.8,48.62,140.43Z"/><path class="cls-44" d="M38.13,123.89s1,8,1.47,10.49,2.22,8,3.11,8.71,4,1,4,1a10.94,10.94,0,0,0-.44-3.7c-.59-1.92-2.36-6.35-1.18-6.35s2.36.15,1.18-4.43S41.23,123.89,38.13,123.89Z"/><path class="cls-45" d="M60.58,110.45a2.14,2.14,0,0,0-2.36.15c-1.19.88-3.4.44-1.48-.59a12.55,12.55,0,0,0,3.4-3S60.87,109.86,60.58,110.45Z"/><path class="cls-45" d="M60.14,115s.73.88-1.48,1-2.81.3-2.07.74,2.81,1.33,2.81,3.84c0,0,1.18,1.33.88-1.77s-.14-1.33,1,0,1.62,2.66.88,2.81-2.36-.3-1.92.44.74,1.77,1.92.59,2.22-1,1.19-2.36S60.14,115.62,60.14,115Z"/><path class="cls-46" d="M60.73,112.37s1-1.18-.15-1.33-1.33.44-2.07,1.18-.88,2.22-2.51,2.37,0,.59,1.33.59h1.92l.44-1.48-1,.3s.29-1.63.74-1.78S59.55,112.81,60.73,112.37Z"/><path class="cls-46" d="M60.58,133.64s-.74,2.51-3.1,2.36a19.47,19.47,0,0,1-7.24-2.06c-1.92-1-3-1.63-3.69-1.63s-2.51.74-2.37,1.33.45,4.14,1,5.61a16.93,16.93,0,0,1,.51,4.77L48,144s-1.69-4.14,1.59-4.51,6.69-.51,8-.81S60.14,135.86,60.58,133.64Z"/><path class="cls-47" d="M21.58,92.28,17,95.83s-2.81,3.1-3.55,5.46a25,25,0,0,0-.59,8.72c.29,2.21,3,7.83,3.84,9.89S23.8,134.08,24,135.12s.44,2.21,1.62,1.92,3.1-5.17,4.43-7.83,6.06-4.43,8.13-5.91,8-1.77,9.45-4.87,1.48-4.73,2.66-6.36,2.95-2.36,4.73-3.1,2.51-.44,3.84-.59,2.8-.74,2.8-2.66,0-6.94-3.39-10.34-7.83-5-11.38-6.35S40.05,86.82,37,87s-6.06-.88-8.42.45-3.4,1.47-4.29,2.51S23.21,91.69,21.58,92.28Z"/><path class="cls-48" d="M14.35,112.67s-1.18-4.29-.59-7.09a16.23,16.23,0,0,1,2.06-5s.45,5.32,1.19,4.73-.6-2.66,0-4.28,1.47-3,1.62-1.78,1.63,7,1.77,4.43A52.78,52.78,0,0,1,20.7,98c.29-1.62,1.48-2.36,2.21-.88s4.14,4.28,4.29,3.69-2.81-3.69-3-4.88,2.51.3,4,1.92,1.92,1.48.89-.29-2.37-4.73-.74-4.28,10.19,5.61,8,4-4.44-4.58-4.88-4.58.3-.73,2.81,1,7.09,2.66,4,1-5-4-3.55-4,8-.88,10.78,1.33,5.91,4.44,3.55,1.78-4.88-3.25-2.37-2.66,8.42,1.77,6.06.44-9.3-5.32-15.8-5.46-8.28-.15-9.9.88-1.48,2.07-2.81,2.81-.88.59-2.51,1.62-2.36.89-4,2.37-5.17,4.72-5.31,8.86S12.57,112.22,14.35,112.67Z"/><path class="cls-29" d="M15.09,130.39a47.48,47.48,0,0,1,3.84-5.61c1.47-1.63,5.31-5.17,6.79-6.8a46.1,46.1,0,0,1,6.65-5.31,6.72,6.72,0,0,1,7.09-.74c3.39,1.33,9.16,3.69,12.55,5.91s5.17,4.87,7.09,7.09,3.69,6,6.35,6.49,4.14-.29,6.65-.44a12.25,12.25,0,0,1,5.61.59c1.33.59,3.84.3,4.88.45a35.66,35.66,0,0,1,4.73,1.47c.73.3,2.65,1.63,1.18,3.25l-.45,1s1.48,3.1-.29,4c0,0-.59.74-.15,1.19a2,2,0,0,1-1.18,3c-1.77.44-4.43.59-5.32.15s-.59,1.47-1.62,1.77-.74,1.48-4,.59-3.69-1.48-7.24-2.36-4.28-1.33-6.2-2.66-5.32-3.55-7.83-5a101.71,101.71,0,0,0-10.64-5.17c-3.25-1.33-3.39-1.63-4.58-1.18a5.05,5.05,0,0,0-2.8,3.54,21.29,21.29,0,0,1-1.92,5c-.59.89-4.14,4-6.21,6.65s-4.13,5-6.79,1.62a31.85,31.85,0,0,1-4.73-9.3C16.12,138.07,14.49,135.41,15.09,130.39Z"/><polygon class="cls-23" points="125 288.7 85.28 146.45 85.73 146.45 125.47 288.65 125 288.7"/><path class="cls-30" d="M18.78,133.64s-1.33-4.14.74-6.5,4.72-5,6.5-6.94,5-4.58,5.9-4.88,2.07.6,1,1.92-4,4.44-3.84,5.76,3.54,2.66,5.91,1,3.69-3.1,3.69-4.88,1.62-3.69,3.54-2.8a42.23,42.23,0,0,1,7.68,5c1.63,1.48,5.62,4.73,7.54,7.24s2.51,1.48.29-1.18-5.61-6.8-4.13-5.91a13.28,13.28,0,0,1,3.54,3.1c1.48,1.62,3.69,5,5.91,6.79s2.81,3.25,4.14,4.14,3.54.74,5.31.3,3.7-1.48,4-.6-.88,1.33,1.18,2.22,3.55,1.48,3.84.59,0-.88-1.18-1.48A11,11,0,0,1,78,134.82s-3.69-1.33-2.36-1.77,3.1.3,4,.44a39.59,39.59,0,0,0,4.14.15,10.16,10.16,0,0,1,2.51.89c.89.29,3.84.59,1.77-.59A21.19,21.19,0,0,0,82.59,132c-.59-.15-2.36-.15-3.25-.3s-2.07-1.33-4.43-1.18-5.76.88-7.54.74a5.66,5.66,0,0,1-4.43-2.07c-1.77-1.77-6.5-8.72-8.86-10.34a111.85,111.85,0,0,0-13.88-7.09c-2.22-.74-5.62-1.33-6.8-.44s-7.68,5.9-8.71,7.23-5.32,5-6.5,6.65-3.7,4.73-3.4,6.2S16.27,137.48,18.78,133.64Z"/><path class="cls-31" d="M33,113.55s3.4-.44,3.54.59.45,1.92,2.51,1.48,5.62-.15,7.09,1.33,3.84,1,6.06,2.66,4.14,1,.44-1.18-9.89-5.76-13.14-6.5S30.74,112.07,33,113.55Z"/><path class="cls-31" d="M66.34,132.61s.59.59,2.51.14a17.72,17.72,0,0,1,4.14-.59,21.34,21.34,0,0,1,4.58.3c1.62.15,3,0,4.13.15s3.69-.3.89-.59a17.91,17.91,0,0,1-4.29-.74,17.3,17.3,0,0,0-3.39-.74,25.88,25.88,0,0,0-4.58.29C69.44,131.13,64.42,132.31,66.34,132.61Z"/><path class="cls-32" d="M79.63,134.67a10.71,10.71,0,0,0,1.63,1,9.76,9.76,0,0,0,2.66.59l.88.29,2.81.6s.59.59-1,.44a16.33,16.33,0,0,1-2.66-.44H82.15l-1.78-.6S78.3,134.67,79.63,134.67Z"/><path class="cls-32" d="M80.37,140.88H82l2.21.59s3,.74,3.55.29c0,0,.29.74-1.18.89a8.76,8.76,0,0,1-3-.29l-2.07-.45S79.34,141.17,80.37,140.88Z"/><path class="cls-32" d="M87.61,144.57a7,7,0,0,1-3.25.89,4.69,4.69,0,0,1-2.81-1c-.44-.14-2.65-1.18-2.06-.74s.59,2.07,1.62,2.37,1.92,0,3.25.15S87.31,146.05,87.61,144.57Z"/><path class="cls-32" d="M18.19,142.21s4.28,2.66,6.5,2.36a14.25,14.25,0,0,0,7.23-3.84A18.82,18.82,0,0,0,35.47,135c.74-2.22,2.51-3.4,2.51-4.73s1.18-2.66,2.07-1.92,3.69,2.22,5.46,3.55,4.73,0,7.68,2.07S59.4,137.48,61,140s2.66,3.55,4.14,4.43,4.43,1.92,1.48.89-5.32-3.25-8.87-5-10.34-5.47-12-6.06-4.73-2.21-5.47-2.07-2.8.59-3,1.18-.74,2.07-1.48,3.85a36.63,36.63,0,0,1-4.13,6.35,65,65,0,0,0-4.73,5.31c-1,1.48-3.25,3-4.73,1.19S17.15,142.35,18.19,142.21Z"/><path class="cls-32" d="M70.18,145l2.51.74c1.48.45,2.22,1.92,3.25,1.48s2.07-.74,2.36-.15.6,2.07-1.62,1.63a64.81,64.81,0,0,1-6.35-1.92S67.37,144.13,70.18,145Z"/><path class="cls-49" d="M85.31,146.15a.93.93,0,0,1-.94.67H81.82s-1.55-.14-1.33-1.58a6.55,6.55,0,0,1,1.56.71C82.71,146.39,85.31,146.15,85.31,146.15Z"/><path class="cls-50" d="M83.6,136.85s-.23.11-.23,1.33-.22,4.65-.22,4.65v3.42L81.9,146l.26-9.15S82.49,135.41,83.6,136.85Z"/></g></g></svg>