<svg xmlns="http://www.w3.org/2000/svg" viewBox="0 0 281.48 370.42"><defs><style>.cls-1{fill:#00364a;}.cls-2{fill:#00618a;}.cls-3{fill:#717b85;}.cls-4{fill:#9197a5;}.cls-5{fill:#41403e;}.cls-6{fill:#ac612a;}.cls-7{fill:#c6ced9;}.cls-8{fill:#7b9ab6;}.cls-9{fill:#d2a77d;}.cls-10{fill:#9ed3f5;}.cls-11{fill:#425e76;}.cls-12{fill:#081828;}.cls-13{fill:#6a3d28;}.cls-14{fill:#faf5fb;}.cls-15{fill:#949da4;}.cls-16{fill:#aa392b;}.cls-17{fill:#e7f4ff;}.cls-18{fill:#c5cfd9;}.cls-19{fill:#818085;}.cls-20{fill:#373833;}.cls-21{fill:#a2a7ad;}</style></defs><g id="Calque_2" data-name="Calque 2"><g id="Calque_1-2" data-name="Calque 1"><path class="cls-1" d="M281.44,291.54h0a1.67,1.67,0,0,1-.08.3,2.19,2.19,0,0,1-.12.33c0,.09-.1.18-.15.28l-.07.09a2.43,2.43,0,0,1-.14.2.76.76,0,0,1-.08.11l-.17.2-.1.11-.2.21-.1.1-.27.26,0,0h0l-.37.34,0,0-.38.32-.09.08-.34.28,0,0-.06,0-.38.3-.06.05c-.72.56-1.49,1.12-2.22,1.68h0l-.68.52-.46.36-1.15.94-3.5,2.83q-1.19.94-2.43,1.89c-.83.64-1.68,1.27-2.57,1.91l-.84.61c-.3.22-.6.44-.91.65l-1.11.8-1.51,1-1.59,1-.65.41,0,0h0a76.73,76.73,0,0,1-6,5c-.8.6-1.63,1.21-2.5,1.82s-2.07,1.44-3.17,2.17a157.74,157.74,0,0,1-25.3,13.4c-2,.86-4.17,1.71-6.34,2.55l-3.28,1.25-3.33,1.24c-2.22.82-4.46,1.63-6.66,2.42l-6.47,2.34-1.18.43c-1.27.45-2.54.87-3.81,1.28l-2.18.68-1.18.36-.44.12a2.24,2.24,0,0,1-.1.39l.13-.06s0,.05,0,.08h.51l.17,0,.23,0,.15,0,.18,0,.14.05.14.05.13.06.1.06a.41.41,0,0,1,.11.07l.07.06a.38.38,0,0,1,.09.09l.05.07.07.11s0,0,0,.05a.58.58,0,0,1,0,.14h0c.37,1.6-3.25,4.88-6.42,7.36-7.55,5.93-26.21,14.23-37.78,15.95-5,.75-11.54,1.19-13.52.19-1.59-.79.44-2.25-1.87-2.56l.31-.24h0l.35-.25h0l.35-.23,0,0c.12-.07.24-.14.37-.2l0,0,.37-.19.05,0c.12-.07.25-.12.38-.18l.06,0,.39-.16.06,0,.16-.06a40.45,40.45,0,0,1,5.46-3.21c-1.17-.57-1.09-1.72.48-3.24a8.81,8.81,0,0,1,3.25-1.92c-2,1.06-3.22,2.2-2.86,2.73A6.42,6.42,0,0,1,141,358c-.94.8-1.39,1.53-1.13,2a5.47,5.47,0,0,1,1.46-1.5,4.76,4.76,0,0,0,1.7-2.18,14.36,14.36,0,0,1,2.78-3.14c.8-.71,1.82-1.53,2.91-2.33-.69.1-1.38.2-2.05.28l-.83.09-.75.07c-.76.07-1.49.13-2.21.17h-.19c-.93.06-1.84.1-2.74.14l-2.32.08-.6,0-1.25.09-.67.08H135l-1.34.18-1.39.17a21.2,21.2,0,0,1-2.43.16.48.48,0,0,0-.12,0c-.44,0-.82-.05-1.2-.09l-.77-.07a8.28,8.28,0,0,0-1.32,0l-1,.08h0l-.46.05h0c-1.23.14-2.54.33-3.83.51l-.12,0-.68.09-.24,0-.85.11c-3.09.36-6.15.61-9.3.93l-2.39.26c-1.6.18-3.23.39-4.91.65l-2.55.43a37,37,0,0,1-4.8.57l-1.53.11-.52.05-.59.07-.63.21a28.93,28.93,0,0,1-3.69,1c-2.6.62-5.8,1.68-8.23,2.16-2.27.44-3.65.35-4-.25-.2-.42-.76-.92.31-1.74l-.83.26a9.94,9.94,0,0,1-3.13.55A8.46,8.46,0,0,1,75.68,357a60.74,60.74,0,0,0,7.86-2.51c.27-.18.54-.38.85-.6l.26-.19a10.15,10.15,0,0,1,5.43-1.89l2.38-1c-.88-.24-.82-1.12.74-2.1a20.43,20.43,0,0,1,5.92-2.36,7.11,7.11,0,0,1,1.57-.18c1.6-.74,3.94-1.86,6.78-3.24a2.05,2.05,0,0,1-.22-.5,27.07,27.07,0,0,1-5,.41c-5.31-.12-6.92-2.6-4.82-7.37a4.38,4.38,0,0,1-1.15-.46s-4.09-.73-9.87-1.83q-4.2,1.78-8.83,3.46c-31.83,11.6-65.41,14.83-75,7.22S11,320.63,42.84,309s65.41-14.82,75-7.22c5,4,2.51,10.07-5.51,16.66,8.3,2,15.08,3.78,15.08,3.78l2.74.56s-.19,1.09-3.31,2.23-2,2.37-.39,1.87c0,0,14.29-11.48,22.82-25.53a33.32,33.32,0,0,1,6.8-7.78c-1.78-.29-1.44-1.81.63-3.4a30.69,30.69,0,0,1,7.92-3.95,27.38,27.38,0,0,1,4.67-1.21l.08,0h-1.81l-1.23.06-.31,0-.14,0-.22,0-.2,0-.18,0-.26.05-.16,0-.31.06-.14,0-.4.09H164c-1.66.36-3.68.88-5.42,1.24h0c-2.65.56-4.61.76-3.48-.49,0-.14.41-.37,1-.66a.05.05,0,0,1,0,0c0-.57,1.39-1.6,3.13-2.52s3.77-1.77,5.77-2.58l4.7-1.89A74,74,0,0,1,180.17,275a20.88,20.88,0,0,1,4.82-.51c4.81-4.44,13.06-9.08,23.8-13,22.75-8.28,48.1-10.17,56.61-4.21s-3,17.5-25.78,25.79a132.15,132.15,0,0,1-30.73,7.19,7,7,0,0,1-.44,1.34c0,.09-.07.18-.1.27l0,.08a1,1,0,0,0,0,.16.29.29,0,0,0,0,.09l0,.13s0,.07,0,.1,0,.07,0,.11v.19a.28.28,0,0,0,0,.09s0,.06,0,.08,0,.07,0,.1,0,0,0,0a1,1,0,0,0,.19.34h0a.28.28,0,0,0,.1.09l0,0,.11.08,0,0,.12.07,0,0,.14.06h0a3.19,3.19,0,0,0,.37.13,25.45,25.45,0,0,0,5.48.25h1.56c1.93,0,4.08-.1,6.26-.24l1.39-.09,2.53-.15c1.07-.06,2.15-.13,3.25-.22,1.66-.12,3.34-.27,5-.43l2.53-.25,4.3-.41,1.69-.16c1.72-.15,3.42-.29,5.08-.41l2.27-.13c.8,0,1.59-.08,2.36-.1a21.45,21.45,0,0,1,3.93.16,7,7,0,0,1,1.31.31,4.49,4.49,0,0,1,.44.17,115.31,115.31,0,0,1,13.86-2.44q2.07-.22,4-.3c.49,0,.94,0,1.36,0,1.87.06,3,.45,3.31,1.18A1.48,1.48,0,0,1,281.44,291.54Zm-71.78-14.79c-1.38-.23-1.93-.88-1.66-1.8l-11.73,4.36.59.3.54.29c.27.16.54.31.79.47l.2.12.67.43,0,0,.26.17.4.27,1,.71,1,.73h0l1.21.82c4-2.13,9.52-5.08,14.55-7.81A22,22,0,0,1,209.66,276.75ZM158.23,304c-1,2.45-2,5.23-3.54,8.32a16.38,16.38,0,0,1-3.15,4.14l5.26-2.85q2.32-2.1,4.71-4.2l1.48-1.31h0l.72-.61.13-.1.75-.6.16-.12c.25-.21.52-.41.78-.61l.13-.1.81-.62h0L167,305l.12-.09.58-.44.14-.12.42-.32.2-.16.34-.28.21-.17.32-.26.2-.18.29-.26.18-.16.29-.27.14-.14.39-.4h0c.21-.24.4-.48.64-.73a2.27,2.27,0,0,1,.31-.31v0c-1.19-.2-3.23-.06-3.73-.62-.37-.4.2-1.16-.07-1.58s-2.14-.58-3.47-.64c-.74,0-1.88.08-2.94.15l-2.1,2.95C159.06,301.92,158.65,303,158.23,304Zm-21.67,26.58,2-.73.83.9q5.78-2.13,11.51-4l2.66-.87-.25,0a22.94,22.94,0,0,1-4.69-.79c-1-.33-1.42-.82-1.4-1.46h0a.83.83,0,0,1,0-.22v0a2.62,2.62,0,0,1,.27-.71l0,0a2.39,2.39,0,0,1,.13-.21.41.41,0,0,1,.07-.11l.14-.21.11-.15.05-.06c-7.07,4.33-12.44,7.8-12.44,7.8Zm43.58-21.52h0a2.83,2.83,0,0,1-.3-.3l0,0a1.69,1.69,0,0,1-.21-.31h0a2.75,2.75,0,0,1-.15-.36h0a2.21,2.21,0,0,1-.08-.37v0a2.91,2.91,0,0,1,0-.83v0a5.41,5.41,0,0,1,.23-.9v-.06q.17-.47.39-1l0-.06c.07-.16.15-.31.23-.46l0-.05.27-.52,0-.05.26-.47,0-.09-1.23.67c-.08.14-.17.28-.26.42l-.13.21-.3.45-.19.28-.3.41c-.09.12-.18.23-.26.35l-.29.37-.37.45-.25.29c-.22.26-.44.52-.69.78a21.81,21.81,0,0,1-3.12,2.8c-.6.47-.89.76-.93.93a.22.22,0,0,0,0,.09.13.13,0,0,0,.06.07.59.59,0,0,0,.27.07,9.06,9.06,0,0,0,1.39-.05l.76,0,.57,0c3.26-.22,6.94-.72,10.8-1.36-.83,0-1.64-.07-2.42-.12A6.86,6.86,0,0,1,180.14,309.1ZM184.48,289a1.5,1.5,0,0,0-.16-.59h0a3.2,3.2,0,0,0-.26-.48c-.37-.21-.72-.42-1.05-.65l0,0a8.14,8.14,0,0,0,.89,3.55l.06-.13c.08-.17.16-.33.26-.5a2.25,2.25,0,0,0,.27-.76,1.56,1.56,0,0,0,0-.37Zm45.27,17.57a1.12,1.12,0,0,1-.11.26l1.65-.59Zm-56.53-14.12c-1.83-1.19-3.56-1.91-4.87-1.65-1.08.22-2.47,1.58-4.12,3.64A58.35,58.35,0,0,1,173.22,292.44ZM98.86,350.3a1.16,1.16,0,0,1,.28.05c.47.12-.24.59-.24.86s-.59.53.33.31a3.12,3.12,0,0,1,.57-.1l1.41-.34.92-.21c2.15-.47,4.18-.86,6.23-1.26l2.65-.52,1.8-.37,1.59-.34L116,348l3.19-.71,1.58-.34c1.58-.33,3.12-.64,4.6-.88l1.83-.3.5-.08,1.44-.23.44-.07,1.79-.27.27,0,1.49-.22.47-.07,1.53-.22.21,0,1.71-.23.37-.05,1.36-.17.41-.05,1.67-.19h0l1.48-.15.43,0,1.05-.1.5,0,1-.08.45,0,1.44-.09h0l.75,0c1-.07,2-.18,3.12-.31l2.48-.33c.62-.09,1.29-.12,2-.19l.64-.08.66-.11c.35-.07.7-.16,1.06-.27l.74-.27a4.36,4.36,0,0,0,.65-.32,9.19,9.19,0,0,0,1.1-.81l.28-.23a9.26,9.26,0,0,1,.94-.71c.32-.21.66-.42,1-.62,1.57-1,3.33-1.91,5-2.83.88-.48,1.77-.95,2.66-1.42l2.7-1.4,1.36-.7,4.08-2.09c2.06-1.06,4.43-2.19,6.68-3.31l.84-.43c.83-.42,1.64-.84,2.4-1.26,1-.56,1.95-1.11,2.75-1.65l.28-.18h-.05l-.39.07-.16,0a56.93,56.93,0,0,1-9.32.69,85.38,85.38,0,0,0-9.74.6c-4,.44-8,.76-11.59.87-3.12,1.05-6.25,2.11-9.35,3.19s-6.46,2.26-9.74,3.43l.27.29s-22.4,9.82-27.58,11.22a11,11,0,0,1-2.85.35C106.74,346.38,102.67,348.31,98.86,350.3Zm2.52-4.1c.38.12.53.35.36.68h0q3.21-1.58,6.53-3.12a3.3,3.3,0,0,1-.61-.56C105.09,344.45,102.93,345.48,101.38,346.2Zm1.94-4a25.18,25.18,0,0,0,3.84-.27c-.14-1.28.59-2.91,2.41-4.59,1.13-1.05,2.59-2.16,4-3.27a19.67,19.67,0,0,1,2-1.05c-.09-.44-.38-.87-.47-1.3l-7.46,2a12.93,12.93,0,0,1-3.91,1.61,12.35,12.35,0,0,1-3.21.41,14.83,14.83,0,0,1-2-.12C96.68,340.63,99.61,342.07,103.32,342.17Zm-3.16-11.47a83.26,83.26,0,0,1,6.45-8l-.1,0a113.86,113.86,0,0,1-12.17,6.82C96.44,330,98.41,330.38,100.16,330.7ZM77.79,316s-1.46.51-3.05.93l-10.09,5.34c2.9.76,13,3.42,22.78,5.69a77.86,77.86,0,0,0,11.88-7C88.68,318.4,77.79,316,77.79,316Zm27.8-9.73c-7.4-6-33.31-3.68-57.86,5.26s-38.45,21.08-31,27.12S50,342.34,74.55,333.4q2.3-.82,4.47-1.7c-8.46-1.66-18.09-3.64-24.12-5.21-1.17-.3-.56-1.55,2-2.79l1-.44c4.42-2.3,8.86-4.73,13.28-7,1.55-1.62,7.12-3.61,11.89-3.83,2.45-.11,11.77,1.89,21.23,4.12C108,312.5,108.74,308.85,105.59,306.28Zm1.81,16.65a74.48,74.48,0,0,0-6.28,7.94,25.68,25.68,0,0,0,6.25.63c4.95-.85,12.11-3.2,12-4.78C119.4,326.16,114.16,324.65,107.4,322.93Zm32.26-.06s4.11-2.18,9.8-5.25a18.19,18.19,0,0,0,3.91-4.84c1.45-3,2.52-5.74,3.46-8.14C152.07,311.25,146.27,318.62,139.66,322.87Zm97.15-42.3c17.55-6.39,26.43-15.4,19.83-20.12s-26.16-3.38-43.71,3c-7.88,2.87-14,6.26-17.77,9.56a2.66,2.66,0,0,1,1.18.18c.58.29,1.42,2.57-1.78,3.63-1.62.54-1.55-.09-2.13-.09a3.2,3.2,0,0,1,.51.43l.06.06.12.11c.07.08.14.14.2.2a6.28,6.28,0,0,0,.69.53l14.8-5.26c-.32-.29.37-1.07,1.58-1.72a14.6,14.6,0,0,1,4.86-1.51,5.32,5.32,0,0,1,2.14.18l7.34-2.61a23.26,23.26,0,0,1,7-3.37,26.42,26.42,0,0,1,8.05-1.28c2.95,0,4.88.65,5.54,1.78.41.7.23,1.71-1.8,3.06a32.5,32.5,0,0,1-8.15,3.43,51.62,51.62,0,0,1-6.33,1.29c-6.82,3.79-16.5,9.08-23.94,12.8.33.16.67.33,1,.48a5.8,5.8,0,0,1,1.7,1.05A95.33,95.33,0,0,0,236.81,280.57Z"/><path class="cls-2" d="M144.91,252a5.25,5.25,0,0,0,2.83,4.3,14.42,14.42,0,0,0,5.14,1.47c1.39.2,2.79.39,4.19.55,3.16.36,6.54.58,9.38-.88a12.92,12.92,0,0,0,4.38-4c1-1.39,1.85-3.45.65-4.68a3.87,3.87,0,0,0-2.27-.89,57.94,57.94,0,0,0-19,.22C148.33,248.39,144.91,249.79,144.91,252Z"/><path class="cls-2" d="M218.28,165.27c-20.21,0-42.49,22.78-49.75,50.87S171.76,267,192,267s42.49-22.78,49.75-50.87S238.49,165.27,218.28,165.27Zm19.6,51.21c-6.68,26.34-27.11,47.69-45.62,47.69s-28.12-21.35-21.43-47.69,27.1-47.69,45.62-47.69S244.56,190.14,237.88,216.48Z"/><path class="cls-2" d="M74.5,182.24c-28.27,0-57.81,27.91-66,62.34S16.69,306.91,45,306.91s57.82-27.91,66-62.33S102.78,182.24,74.5,182.24Zm34.05,61c-7.53,31.57-37.17,58.32-63.26,58.32S6.54,274.86,14.07,243.29s34.78-57.15,60.87-57.15C97.84,186.14,116.07,211.73,108.55,243.29Z"/><path class="cls-3" d="M158.94,185.22c-.44,2.81-3.4,5.09-4,8.14-.3,1.66.22,3.38,0,5-.28,2-1.86,4.21-3,5.9-1.49,2.17-4.87,4.33-4.92,7.19a3.77,3.77,0,0,0,4.36,3.79c4.52-.6,10.47-5,12.87-8.75a25.09,25.09,0,0,0,2.14-4.86,26.28,26.28,0,0,1,4.25-7c2.25-2.85,2.82-4.37,2.78-8,0-1.95-.1-5.58-1.77-7C167.93,176.55,162.94,184.38,158.94,185.22Z"/><path class="cls-4" d="M197.06,121.5c.38,3.76-8.35,7.66-11,9.41-3.44,2.28-6.95,4.44-10.45,6.62a71.74,71.74,0,0,0-14.85,11.67c-1.89,2.05-3.08,2.62-1.33,5.06a23,23,0,0,1,2.83,5.15A62.59,62.59,0,0,1,166,173.29c.51,3.2,2.54,6.59,1.59,9.84-.72,2.46-4.14,5.81-6.91,5.68-2.29-.11-2.69-2.21-3.32-3.79-1.6-4-4.92-7.25-7.06-11-4.09-7.23-8.08-14.49-11.93-21.9-2.53-4.87-3.26-9.2-1.21-14.37a52,52,0,0,1,4.08-7.74c4.23-6.94,10.17-13.29,16.23-18.71a65,65,0,0,0,8.55-9.14c2.61-3.37,6.76-8.28,10.8-9.81a23.67,23.67,0,0,1,13.32-1c5.67,1.34,14.92,3.86,17.8,9.34a7,7,0,0,1,.06,7C205.34,112.69,200.42,116.94,197.06,121.5Z"/><path class="cls-5" d="M207.93,100.61c-2.88-5.48-12.13-8-17.8-9.34a23.67,23.67,0,0,0-13.32,1,13.6,13.6,0,0,0-3.29,1.91c.44.18.89.38,1.32.6a28.82,28.82,0,0,1,9.21,7.82c-2.32-.12-4.42-1.32-6.56-2.24s-4.64-1.54-6.74-.52l3.18.91a13.65,13.65,0,0,1,4.71,2,4.68,4.68,0,0,1,2,4.47,26.33,26.33,0,0,0-6-1.11,4.33,4.33,0,0,1,2.91,1.73c.26.34.43.9.08,1.15a.9.9,0,0,1-.63.07c-2.16-.32-4.05-1.59-6.05-2.5s-4.43-1.43-6.3-.29a16.3,16.3,0,0,1,8.88,2.09c-2.76,5.25-5.59,10.59-9.78,14.79-4,4-9.05,6.79-12.92,10.9a27,27,0,0,0-4.88,7.26c2.76.78,5.49,1.9,8.17,2.64a17.29,17.29,0,0,1,6.7,4.17,4.11,4.11,0,0,1,.43.5,72.93,72.93,0,0,1,14.35-11.16c3.5-2.18,7-4.34,10.45-6.62,2.64-1.75,11.37-5.65,11-9.41,3.36-4.56,8.28-8.81,10.93-13.87A7,7,0,0,0,207.93,100.61Z"/><path class="cls-6" d="M161.72,176.3a12.16,12.16,0,0,0,4.05-4.3,61.25,61.25,0,0,0-3.5-12.59,23,23,0,0,0-2.83-5.15c-1.75-2.44-.56-3,1.33-5.06l.5-.51a4.11,4.11,0,0,0-.43-.5,17.29,17.29,0,0,0-6.7-4.17c-4-1.09-8-3-12.13-3.43a26.24,26.24,0,0,0-5.81.43c-.68,3.8.19,7.27,2.16,11.07,3.85,7.41,7.84,14.67,11.93,21.9a45.51,45.51,0,0,0,3.15,4.63,4.09,4.09,0,0,0,1.34.26A13.94,13.94,0,0,0,161.72,176.3Z"/><path class="cls-7" d="M166,173.29c-.07-.44-.14-.86-.22-1.29a12.16,12.16,0,0,1-4.05,4.3,13.94,13.94,0,0,1-6.94,2.58,4.09,4.09,0,0,1-1.34-.26,29.61,29.61,0,0,1,3.91,6.4c.63,1.58,1,3.68,3.32,3.79,2.77.13,6.19-3.22,6.91-5.68C168.53,179.88,166.5,176.49,166,173.29Z"/><path class="cls-4" d="M189.12,119.12c-2.67,4.46-7.06,7.84-10.52,11.71a113,113,0,0,0-9.93,13c-6.19,9.38-4,19-1.58,29.36a65.86,65.86,0,0,1,1.58,14.47c0,5.88-.45,12.43.79,18.21.8,3.73-.22,7.73-.66,11.5-.54,4.7-2.53,8.84-3.74,13.34-.35,1.3-1,4-.38,5.13.71,1.29,8.75,6,10.51,5.6s2.27-4.85,2.69-6.79c.89-4.13,2.28-7.89,3.5-11.94,2.67-8.85,4.42-18.05,7.5-26.75a44.65,44.65,0,0,0,1.8-22c-1.26-8,2.06-10.55,6.91-16.94,2.7-3.55,5.92-6.74,8.94-10,7.47-8.14,16.21-15,23.32-23.42,3.89-4.62,5.26-8.14,6.39-14.08.41-2.17,1.36-6.11.83-8.29-.59-2.46-.39-2.2-3.82-1.42-12.87,2.91-23.16,10.57-35,15.7C196.1,116.49,191.61,119.65,189.12,119.12Z"/><path class="cls-5" d="M226.06,108.2a38.51,38.51,0,0,1-8,7.6c-1.6,1.14-3.49,2.55-3.34,4.51.21,2.72,4,3.54,5.3,5.94a41.49,41.49,0,0,1-11.92-2.35l4.83,4.88a17.92,17.92,0,0,1-4.17,4.9,6.1,6.1,0,0,1-6.08.92c-1.66-.79-2.66-2.49-4.06-3.68s-3.84-1.68-4.87-.16a17,17,0,0,1,2.3,3.57,6.72,6.72,0,0,0-4.93-.11,20.08,20.08,0,0,0,1.82,8.32,16.79,16.79,0,0,1,1.5,3.66,3.69,3.69,0,0,1-1,3.63,39.94,39.94,0,0,0-9.4-6.24c-1,1.87-.21,4.22,1,6s2.86,3.2,3.79,5.11a16.34,16.34,0,0,1,1.19,6.41l.1,2.21c.47.81.89,1.65,1.29,2.5,1.22-2.79,3.45-5.15,6.16-8.72s5.92-6.74,8.94-10c7.47-8.14,16.21-15,23.32-23.42,3.89-4.62,5.26-8.14,6.39-14.08.41-2.17,1.36-6.11.83-8.29-.58-2.43-.4-2.2-3.71-1.45a15.85,15.85,0,0,0-2.25,1.92A81.16,81.16,0,0,0,226.06,108.2Z"/><path class="cls-8" d="M215.52,102.64c-10.46.31-21.6.77-31.82-2.14-4.88-1.39-6-4-9.21-7.39-2.88-3-7.65-4.37-11.32-6.31-3.25-1.71-6.52-3.24-9.66-5.19a34.23,34.23,0,0,1-5.4-3.89c-.89-.82-1.57-2.91-2.67-3.07-1.79-.26-3.28,2-4.51,2.93a45,45,0,0,0-5.59,5c-5.9,6.45-12.16,11.14-19.27,16.15-3.48,2.46-7.37,4-11.09,6-4.29,2.31-8.14,5.19-12.79,6.83-1.64.57-1.79.89-3.27-.06-1.7-1.09-3-3.12-4.41-4.58.78-1.53,2.4-2.37,3.56-3.56a30.07,30.07,0,0,1,5.57-5.06c6.1-3.86,11.41-9.83,16.86-14.56,2.07-1.8,4.37-3.31,6.27-5.28a40,40,0,0,0,2.87-4.21,26.63,26.63,0,0,1,4.76-4.49,45,45,0,0,0,4.25-4.61c1.67-1.88,3.34-3.76,5.18-5.47s4.1-3.06,5.86-5c-.28-.82,2.87-3.22,3.65-4,2.57-2.7,5.45-5,8.1-7.62a34.92,34.92,0,0,1,9.79-7A39.08,39.08,0,0,1,177.63,32c7.47,0,15.9-.45,23.18,1,14.42,2.78,26.62,14.88,33.12,27.62a172,172,0,0,1,8.18,18.16c1.32,3.55,2.81,8.71,1,12.24-3.31,6.58-10.89,7.12-16.89,9.67a19.07,19.07,0,0,1-6.24,1.45C218.72,102.16,216.78,102.6,215.52,102.64Z"/><path class="cls-9" d="M124.59,83.37a21.54,21.54,0,0,0-8.66-4c-1.71,1.6-3.65,2.93-5.43,4.47-5.45,4.73-10.76,10.7-16.86,14.56a30.07,30.07,0,0,0-5.57,5.06c-1.16,1.19-2.78,2-3.56,3.56,1.38,1.46,2.71,3.49,4.41,4.58,1.48,1,1.63.63,3.27.06,4.65-1.64,8.5-4.52,12.79-6.83,3.72-2,7.61-3.59,11.09-6a142.43,142.43,0,0,0,13.65-10.58A35.36,35.36,0,0,0,124.59,83.37Z"/><path class="cls-6" d="M124.59,83.37a21.54,21.54,0,0,0-8.66-4l-.4.35c1.26.84,2.74,1.43,4.08,2.16,2.13,1.17,4.21,3.33,3.68,5.7a6.73,6.73,0,0,1-2,3c-3.34,3.51-6.74,7.07-11,9.45-3.28,1.85-6.94,2.93-10.42,4.36a52.76,52.76,0,0,0-11.68,6.71c.22.17.44.34.67.49,1.48,1,1.63.63,3.27.06,4.65-1.64,8.5-4.52,12.79-6.83,3.72-2,7.61-3.59,11.09-6a142.43,142.43,0,0,0,13.65-10.58A35.36,35.36,0,0,0,124.59,83.37Z"/><path class="cls-2" d="M77.39,109.87c1.2-.69,4.1.11,4,1.48-1.52,21.36,14.14,8.87,17.75,7.26-.1,1.53-.17,3.13-1.36,4.1-2.16,1.76-18.72,15.2-21.92-8.64C75.7,112.84,76.38,110.45,77.39,109.87Z"/><path class="cls-10" d="M200.81,32.92c-7.28-1.4-15.71-1-23.18-1a39.08,39.08,0,0,0-16.4,4.17,34.92,34.92,0,0,0-9.79,7c-2.65,2.61-5.53,4.92-8.1,7.62-.78.83-3.93,3.23-3.65,4-1.76,1.9-4,3.2-5.86,5s-3.51,3.59-5.18,5.47a45,45,0,0,1-4.25,4.61,26.63,26.63,0,0,0-4.76,4.49,40,40,0,0,1-2.87,4.21q-.4.42-.84.81a19.89,19.89,0,0,1,5.21,1.86l.17-.15c1.47-1.37,2.71-3,4.44-4.07,2.8-1.66,6.76-1.59,8.6-4.27a10.84,10.84,0,0,1-7.26-.2c2.38-.59,4.11-2.59,6.23-3.82,3.17-1.85,7.11-1.91,10.41-3.53,5.77-2.82,8.27-9.51,12.16-14.62,2.88-3.78,6.64-6.78,10.35-9.73A20.9,20.9,0,0,1,171,37.7a21.12,21.12,0,0,1,5.91-1.25l15.85-1.78c-1.49,1.77-3.87,2.51-6.15,2.85s-4.65.38-6.83,1.15c2.54,2.55,6.78,2.07,10.16.84s6.77-3,10.33-2.6a4.09,4.09,0,0,0-1,2.64l6.57.31c2.58.13,3.94,2.57,5.76,4.39,7.47,7.49,14.58,15.45,23.25,21.5.83.58,1.68,1.15,2.53,1.72q-1.65-3.49-3.41-6.93C227.43,47.8,215.23,35.7,200.81,32.92Z"/><path class="cls-11" d="M190.86,56.88c2.48,5.84,8.63,10.43,8.37,16.77-.08,1.73-.34,4,1.29,4.64q1.06-2.87,2.14-5.73c.14-.39.36-.85.78-.9s.68.24.93.52c2.24,2.4,4.57,5,5.15,8.24a6.79,6.79,0,0,0,.79,2.87c1.12,1.58,3.51,1.29,5.31,2,2.38.93,3.64,3.71,3.51,6.26s-1.26,4.3-2.63,6.46c3.26-2.89,5.88-3.68,8.35-7.27-5-5.77-10-13.14-15.57-18.36-3.53-3.33-7.21-6.56-10.14-10.44S194,53.42,194,48.56a13.91,13.91,0,0,1,6.55-12.09c-3.71-.78-7.47,4.43-8.94,7.23A15.64,15.64,0,0,0,190.86,56.88Z"/><path class="cls-11" d="M191.26,97.62A50.37,50.37,0,0,0,216,88.34c-3.85-.35-7.42,1.83-11,3.28a30.29,30.29,0,0,1-14.06,2,81.11,81.11,0,0,0,13.59-12.39c.53-.6,1-1.61.38-2.09L194.5,86.37a31.08,31.08,0,0,0,.77-8.25,11.52,11.52,0,0,0-3.21-7.48,33.78,33.78,0,0,1-6.81,10.3c-1.24,1.28-2.65,2.59-3,4.35a11.92,11.92,0,0,1-3.79-8.72c0-4.09,2.15-7.87,2.74-11.92.64-4.44-.61-8.92-2.05-13.17a18,18,0,0,1-3.87,11.27,46.91,46.91,0,0,1-8.7,8.42c5.66-7,6.11-16.82,5.23-25.78a30.26,30.26,0,0,0-1.47-7.4,23.84,23.84,0,0,0-4.11,2.83c-3.71,3-7.47,6-10.35,9.73-3.89,5.11-6.39,11.8-12.16,14.62-3.3,1.62-7.24,1.68-10.41,3.53-2.12,1.23-3.85,3.23-6.23,3.82a10.84,10.84,0,0,0,7.26.2c-1.84,2.68-5.8,2.61-8.6,4.27-1.73,1-3,2.7-4.44,4.07l-.17.15a24.05,24.05,0,0,1,3.45,2.16,35.36,35.36,0,0,1,5.13,4.81c1.92-1.73,3.79-3.56,5.62-5.57a45,45,0,0,1,5.59-5c1.23-1,2.72-3.19,4.51-2.93,1.1.16,1.78,2.25,2.67,3.07a34.23,34.23,0,0,0,5.4,3.89c3.14,2,6.41,3.48,9.66,5.19,3.67,1.94,8.44,3.26,11.32,6.31,3.16,3.34,4.33,6,9.21,7.39,10.22,2.91,21.36,2.45,31.82,2.14,1.26,0,3.2-.48,4.49-.58a20.41,20.41,0,0,0,4.93-1A99.75,99.75,0,0,0,207.84,99C202.26,98.94,196.47,99.62,191.26,97.62Z"/><path class="cls-12" d="M223.16,45.65c-8.57,10.19-17.71,18.77-30.07,23.4-13.08,5-26.16,10.6-39.89,12.37l.31.19c3.14,2,6.41,3.48,9.66,5.19,2.92,1.55,6.55,2.7,9.35,4.65l1.41.1c18.74.41,35.82-5.84,52.06-15.41a114.34,114.34,0,0,0,11.68-8q-1.8-3.86-3.74-7.64A60.29,60.29,0,0,0,223.16,45.65Z"/><path class="cls-6" d="M164.3,33.58a93.53,93.53,0,0,0-3.9,8.89,73.63,73.63,0,0,0-3.18,10.32c-.45,2.33-1.61,6.23-1.17,8.71a6.67,6.67,0,0,0,4,4.75c3.13,1,5-1,6.22-3.57a83.45,83.45,0,0,0,2.94-15.41A45.47,45.47,0,0,0,165.57,31,17.54,17.54,0,0,0,164.3,33.58Z"/><path class="cls-9" d="M126.58,31.13c0,1.6.93,4.27,1.31,6.13s.58,3.46,1.75,5,1.13,2.94,1.56,4.83a25.13,25.13,0,0,0,2.54,6.59,30.18,30.18,0,0,0,3.86,5.43c1.67,1.82,3.83,3,5.59,4.64,2.24,2.18,3.91,4.3,7.41,3.8,3.27-.47,6.73-3.13,8.71-5.68a36,36,0,0,0,3.63-6.51A21.73,21.73,0,0,0,165.31,46c3.22-.24,3.61-3.68,4.12-6.27a26.22,26.22,0,0,0,0-8.66c-.3-2.1-.56-4.79-1.79-6.56-3.44-5-14-4.16-19-3.71C140.6,21.55,131.79,24.08,126.58,31.13Z"/><path class="cls-13" d="M141,27.26a12.87,12.87,0,0,0,3,1.32c1.15.23,2.33,0,3.5.11a5.59,5.59,0,0,1,4,2.45,4.73,4.73,0,0,0-.89-2.35A8.27,8.27,0,0,1,153.09,32c.46,1.05.7,2.18,1.1,3.25a10.87,10.87,0,0,0,4.09,5.13,16.2,16.2,0,0,1-.89-2.15,12,12,0,0,0,6.49,2.25,10,10,0,0,1-.58-4.25,82.13,82.13,0,0,1,.52-9.15.89.89,0,0,0-.15-.8,1,1,0,0,0-.45-.16,150.67,150.67,0,0,0-18.92-2.24,13.1,13.1,0,0,0-5.63.73,3.53,3.53,0,0,0-1.24.7c-.44.51-.38.41.21.71C138.69,26.5,139.93,26.72,141,27.26Z"/><path class="cls-12" d="M150.85,20.11c1.8.18,4.05,4,5.28,5.36a18.73,18.73,0,0,1,2.76,3.21,23.79,23.79,0,0,1,2.8,9.59,55.49,55.49,0,0,0,1.67,8.86c1.18,4.56-1.43,9.26-3.81,13-2.19,3.46-6.55,7.7-10.89,7.58a10.07,10.07,0,0,0,10.51-3.38c1.76-2,3-4.51,4.41-6.73a15,15,0,0,0,2.53-5.07c.65-3.22-.46-5.77-1-8.85a40.42,40.42,0,0,1-1.05-5.84c0-2,1-3.54,2.2-5.09,1.41-1.81,2.87.12,3.49,2.65.43-3.61-1-9.81-3.87-11.92a25.8,25.8,0,0,0-11.72-4.59C152.78,18.77,151.51,18.76,150.85,20.11Z"/><path class="cls-12" d="M120.63,29c1.3,2.84,4.11,4.42,6.59,5.63-.21-7.44,10.4-9.1,15.64-9.61a28.44,28.44,0,0,1,11.82,1.48,13.43,13.43,0,0,0,4.27.91c1.51-.06,3-1.38,4.56-1.19,3.06.37,3,5.09,6.33,5.74.08-3.07,2.2-6.78-.94-9.32-1.9-1.53-5.36-1.19-7.58-1.69a92,92,0,0,0-10.93-2.08c-7.83-.78-15.4,1.69-22.39,5A19.67,19.67,0,0,0,120.63,29Z"/><path class="cls-14" d="M169.46,32.17c5.27-6.09.43-15.74-3.57-21.51C159.07.8,142.45-3.86,132.25,3.87c-4.39,3.32-10.16,9.36-11.86,14.68-1.36,4.26.46,6.5-1.55,10.05,3.34,5.45,9.86-2.9,14.23-4.09,6-1.65,13.57-2.91,19.65-.9,3.37,1.11,6.1,2.16,9.6.52,3-.5,4.79-.12,6.26,1.3C170.22,27,167.93,30.65,169.46,32.17Z"/><path class="cls-15" d="M164.45,22.05c-3.69-1.05-1.68-2.07-.29-4.33,1-1.66,1-1.94-1.2-2-2.82-.12-5.86,1.14-8.55,1.79-1.75.43-4.54,1.79-3.27-1.17.76-1.78,3.2-2.94,4-4.75-2.16-.29-4.13,1.08-5.87,2.17-2.07,1.29-6.43,6.32-9,5.36-.5-2.78,2-5.06,3.63-6.89,1-1.12,2.62-3.49.09-3.37-3.72.17-7,7.31-9.33,9.63-2.06,2.08-3.74,2.1-6.24.82-1.25-.65-6.36-4.4-4.57-.8.8,1.6,3.42,2.13,2.85,4.34-1.64.26-3.69-1.47-4.93-1.17-1.48.37-.33,2.05,0,3.1.92,2.93-.46,4.33-2.7,4.26,3.41,4.6,9.7-3.33,13.95-4.49,6-1.65,13.57-2.91,19.65-.9,3.37,1.11,6.1,2.16,9.6.52,3-.5,4.79-.12,6.26,1.3,1.64,1.58-.65,5.22.88,6.74,2.41-2.78,2.7-6.31,1.93-9.87A17.8,17.8,0,0,1,164.45,22.05Z"/><path class="cls-12" d="M144.45,13.71c1.3-1.56,2.23-3.52,3.53-5.12a26.7,26.7,0,0,1,3-3.4c1-.89,1.82-1.62,3.26-1.61a10.67,10.67,0,0,1,2.66.8c-2.7-.08-4.5,3.43-6.21,5S146.87,11.86,144.45,13.71Z"/><path class="cls-12" d="M153.28,9.74c.71-2.13,4.39-3.49,6.35-3.36-1.12.21-2.15,1.79-3.17,2.44A6.52,6.52,0,0,1,153.28,9.74Z"/><path class="cls-12" d="M155,14.3a10.56,10.56,0,0,1,4.74-3.89,8.1,8.1,0,0,1,4.06-.06C161.33,12.82,158.24,13.61,155,14.3Z"/><path class="cls-12" d="M126.68,11.52c0-.75,1.39-3.28,2.39-3.18S130.56,12,131,12.77c.68,1.29,1.91,2.32,3,1,1.72-2.07,2.08-5.07,3.5-7.35s5.52-3.32,8.1-3.56c-.48,1.17-2,2.39-2.82,3.34-1.14,1.29-2.26,2.59-3.4,3.87a50.51,50.51,0,0,0-3.5,4.59,10.56,10.56,0,0,1-2.28,2.89C129.85,20,127.74,13.79,126.68,11.52Z"/><path class="cls-12" d="M122.22,17.48l-.4.2c0,1.18-.2,3.57,1.88,2.68C123.38,19.63,121.61,18.39,122.22,17.48Z"/><path class="cls-12" d="M133.43,10.13a7.63,7.63,0,0,1-.12-5.08,6.39,6.39,0,0,1,4.75-3.26,5.11,5.11,0,0,0-1.17,1.71,37,37,0,0,0-2.12,3.66C134.3,8.19,133.92,9.3,133.43,10.13Z"/><path class="cls-2" d="M106,117.83c-5.63,2.25-7.81,17.76-3.5,26a45.44,45.44,0,0,0,3.65,5.59,5.14,5.14,0,0,0,1.76,1c-.06,1.46-.3,3.11-.37,4.57l-6.6,2.1c-.73-1-2.31-1-3.48-.6a6.85,6.85,0,0,0-2.83,2.38,21.85,21.85,0,0,0-3.7,7.27s-25,48.39-36,73c-1,2.27-.44,5.43,1.86,6.36a4.82,4.82,0,0,0,6.11-2.71s33.48-75.45,37.85-78.43,10.72-3.77,10.72,1.19-36.13,80.26-36.13,80.26-6.55.33-6.16,5.1,6.16,5.36,10.92,0,38.51-80.55,38.51-80.55l2.39-4.81s-.2-3.18-3-3.18-1.79-5.16-.4-5.36c0,0,12.9,19.46,20.85,53.4s28.78,30,28.78,30l9.93-8.14,33.94-1,6.75-8.69-1-6.15s-21.64-15.38-32.56-19.3-3.23,4.81-3.23,4.81,29.24,16.67,29.44,18.86-3.58,5.75-3.58,5.75l-37.91-1s-1.8-11.3,1-27.59,5.66-35.14,5.66-35.14H170l-1.48,7.59s-8.73,49-12.9,51.37-13.9-55.19-26.21-67.1c0,0,35.21,20.64,38.95,26s2.94-8.43,2.94-8.43-18.08-10.82-27.5-18.16-18.16-15.89-18.16-15.89l.8-4h1.78l2.38-12.67S110.6,116.3,106,117.83Z"/><path class="cls-13" d="M142.29,35.74c.23-1.85,2.63-2.55,4.1-3.11,1.67-.64,4-.91,5.57.12a12.83,12.83,0,0,1-2.06-.06,4.89,4.89,0,0,0-2.92,1A32.36,32.36,0,0,1,142.29,35.74Z"/><path class="cls-13" d="M136,38.05a10.65,10.65,0,0,1-1.64.43c-.55,0-1.08-.23-1.67-.21-1.49.06-2,1.16-3.07,1.93-.09-1.41,1.49-2.92,2.77-3.26A3.41,3.41,0,0,1,136,38.05Z"/><path class="cls-6" d="M138.27,49.89a7.59,7.59,0,0,0-.22,3,8,8,0,0,0,1.24,2.75c-.57-.37-1.36-.31-1.95-.74a2.31,2.31,0,0,1-.64-2.25,9.39,9.39,0,0,1,1.8-4.49A4.8,4.8,0,0,1,138.27,49.89Z"/><path class="cls-13" d="M138.49,48.6c.14,1.06.4,1.45,1.2,1.29a1.38,1.38,0,0,1,1.78.8c-.33,0-.56-.21-.89-.28a9,9,0,0,0-1,0C138.64,50.32,138.67,49.52,138.49,48.6Z"/><path class="cls-13" d="M143.33,50c.13-1.34,1.12-1.15,2.13-1.27a2.24,2.24,0,0,0,2-1.61,2.27,2.27,0,0,1-1.89,2.27C144.84,49.57,143.75,49.4,143.33,50Z"/><path class="cls-16" d="M140,55.32c.16-.14.63-.33.91-.5a9.91,9.91,0,0,1,1.07-.71,11.61,11.61,0,0,1,2-.43c.81-.24,1.44-.88,2.35-1.1,1.11-.28,2.29-.35,3.42-.52s2.12-.08,3.12-.31c-.55,2.52-1.78,5.63-4,7.18a5,5,0,0,1-4.52.69A11.53,11.53,0,0,1,142,57.44C141.3,56.83,140.26,56.09,140,55.32Z"/><path class="cls-13" d="M139.76,55.32c1.55,0,3-.65,4.47-.82a5.36,5.36,0,0,0,2.3-.89,5.77,5.77,0,0,1,2.46-.84,39.46,39.46,0,0,0,3.87-1c.07,1.21-1.79,2.48-2.68,3a27,27,0,0,1-3.31,1.67,3.06,3.06,0,0,1-1.47.27c-.66,0-1.24.29-1.84.29C142.48,57,140.87,56.1,139.76,55.32Z"/><path class="cls-17" d="M143,56.46c.47.14.66-.12,1.06-.17s.71.13,1.12.08c.14,0,.31-.25.44-.27s.5,0,.67,0a3.8,3.8,0,0,0,1.25-.67c.77-.44,1.57-.84,2.32-1.3.23-.14.38-.36.6-.48s.62-.13.82-.3a1.1,1.1,0,0,0,.29-1.26,17.08,17.08,0,0,1-2.6.66,5.77,5.77,0,0,0-2.46.84,5.36,5.36,0,0,1-2.3.89,20.47,20.47,0,0,0-2.42.52C142.13,55.54,142.47,56.29,143,56.46Z"/><path class="cls-13" d="M151.59,52.11a1.1,1.1,0,0,1-.29,1.26c-.2.17-.58.16-.82.3s-.37.34-.6.48c-.75.46-1.55.86-2.32,1.3a3.8,3.8,0,0,1-1.25.67c-.17,0-.47,0-.67,0s-.3.25-.44.27c-.41.05-.76-.12-1.12-.08s-.59.31-1.06.17-.89-.92-1.21-1.44a8.83,8.83,0,0,1-2.05.3c1.11.78,2.72,1.72,3.8,1.71.6,0,1.18-.29,1.84-.29a3.06,3.06,0,0,0,1.47-.27,27,27,0,0,0,3.31-1.67c.89-.57,2.75-1.84,2.68-3C152.43,51.86,152,52,151.59,52.11Z"/><path class="cls-6" d="M148,46c1.25-.22,3,1.81,4.1,2.33a16,16,0,0,0,3.92,1c-1.62.47-3.63-.2-5.12-.91C149.62,47.84,149,46.65,148,46Z"/><path class="cls-6" d="M149.67,60.68c.92-.19,1.89-.16,2.82-.29-.48-.38-1.05-.82-1.59-1.17-.86-.57-1.13-.23-2.05.31-1.3.76-4.6.55-3.94,2.88A8.82,8.82,0,0,1,149.67,60.68Z"/><path class="cls-9" d="M189.35,35.11c-1.76.9-2.85,4-3.74,5.63a10.65,10.65,0,0,0-1.18,8.32,36,36,0,0,0,7.81,14c3.38,3.57,7,6.77,10.51,10.21,2.45,2.43,3.91,5.5,6.09,8.12a60,60,0,0,0,8.5,7.76c-1.06.54-1.89,2-2.91,2.75A53.81,53.81,0,0,0,210,95.52a37.38,37.38,0,0,1-6.86,5.53c-4.34,2.41-9,4.28-13.44,6.64a69,69,0,0,1-6.39,3c-1.48.6-3.94.86-5,1.94,2.05,2.33,4.75,4.06,6.53,6.71s1.55,2.75,4.92,2c4.3-.91,8.88-.73,13.27-1.12a63.73,63.73,0,0,0,18.41-4c8.5-3.24,15.57-7.26,21.67-14.31a15.85,15.85,0,0,0,3.88-13.66c-.66-4.06-3.7-7-5.84-10.3a153.55,153.55,0,0,0-8.71-12.67A61.14,61.14,0,0,0,227,59.28c-3.3-3.15-7.25-5.78-9.29-10-1.26-2.58-4.34-4.81-6.74-6.44s-4.71-3.91-7.35-5.23C198.92,35.28,194.22,32.63,189.35,35.11Z"/><path class="cls-6" d="M242.12,79.54c-9.56.09-18.51,3.24-26.85,7.9.69.57,1.39,1.13,2.07,1.68l-.19.12a64.65,64.65,0,0,1,13.57-2.51c2.51-.19,5.33-.12,7.14,1.65,1,1,1.59,2.43,2.67,3.37s2.28,1.23,3,2.26a4,4,0,0,1,.2,3.62c-.86,2.33-2.86,4-4.78,5.55a87,87,0,0,1-12.12,8.73A29,29,0,0,1,212.65,116a72.69,72.69,0,0,0,16.93-8.41c2.1-1.42,4.23-3,5.23-5.4l-16.94,9.32a63.57,63.57,0,0,1-8.29,4.06,66.09,66.09,0,0,1-12.68,2.92c-3.76.6-7.57,1.24-11.35,2,1.07,1.56,1.35,1.51,4.16.91,4.3-.91,8.88-.73,13.27-1.12a63.73,63.73,0,0,0,18.41-4c8.5-3.24,15.57-7.26,21.67-14.31a15.85,15.85,0,0,0,3.88-13.66C246.38,84.92,244.11,82.27,242.12,79.54Z"/><path class="cls-18" d="M93,111.49c2.08-.86.76-5.54-5.11-7.26l-1.34.14c-1.33,0-2.13.71-3.26,1.2-2.3,1-5.14,1.34-7.29,2.61a6.78,6.78,0,0,0-3.44,5.23c-.17,1.54-.65,3.71.33,5s2.52.79,4,.85c1.85.06,2.26.76,3.29,2,2.09,2.61,3.94.61,5.82-1.28,1.73-1.74,5.83-2.21,7-4.86.41-.92-.23-1.55-.23-2.41S92.17,111.83,93,111.49Z"/><path class="cls-19" d="M77.06,119.31a3.84,3.84,0,0,1,1.06.2,17.24,17.24,0,0,1-.66-4.81C76.77,115.79,76.77,117.76,77.06,119.31Z"/><path class="cls-19" d="M73.94,119.24a3.83,3.83,0,0,0,1.32.12,15.18,15.18,0,0,1-1.11-5.16C73.28,115.16,73.51,117.37,73.94,119.24Z"/><path class="cls-19" d="M90.82,113.8c-1.43-1.45-2.45-3.15-4.88-2.54s-2.64,2.22-2.38,4.29c.16,1.22.15,2.81,1,3.93a3.63,3.63,0,0,0,1.08.86l.27-.27c1.59-1.6,5.16-2.13,6.64-4.25a1.88,1.88,0,0,0-.21-.4A16,16,0,0,0,90.82,113.8Z"/><path class="cls-19" d="M79.51,113.47c-1.22,1.52-1.36,4.09-.75,6.37a7.74,7.74,0,0,1,1.37,1.51,5.81,5.81,0,0,0,.47.5A17,17,0,0,1,79.51,113.47Z"/><path class="cls-9" d="M181.49,155c-4.81-2.82-10.79-4.64-16.2-3.29-1.58,6.91.05,14,1.8,21.52a65.86,65.86,0,0,1,1.58,14.47c0,5.88-.45,12.43.79,18.21.8,3.73-.22,7.73-.66,11.5-.54,4.7-2.53,8.84-3.74,13.34-.35,1.3-1,4-.38,5.13.71,1.29,8.75,6,10.51,5.6s2.27-4.85,2.69-6.79c.89-4.13,2.28-7.89,3.5-11.94,2.67-8.85,4.42-18.05,7.5-26.75a44.65,44.65,0,0,0,1.8-22,14,14,0,0,1,.75-8.22,26.84,26.84,0,0,0-2-3.58A23.44,23.44,0,0,0,181.49,155Z"/><path class="cls-2" d="M173.58,122.69c-11.1-3.43-23-1-34.61-.37-16.87,1-35.53.73-49.59-8.63A3,3,0,0,0,85,117.57a86,86,0,0,0,54.07,12.35c6.26-.7,12.42-2.1,18.67-2.79s12.73-.65,18.67,1.44a9.2,9.2,0,0,0,3.86.87c1.32-.11,2.69-1.16,2.59-2.49-.1-1.5-1.81-2.26-3.25-2.71C177.51,123.59,175.69,123.34,173.58,122.69Z"/><path class="cls-2" d="M91.25,118.84l-15.74-.46a12.81,12.81,0,0,0-3.39.19,4.35,4.35,0,0,0-2.76,1.83,2.15,2.15,0,0,0,2.8.84c4.43-2.15,10.1-.76,14.92.27-.77,1.73-.68,4.4.71,5.68A4.55,4.55,0,0,0,95.34,123a3,3,0,0,0,0-3.26C94.67,118.84,92.39,118.88,91.25,118.84Z"/><path class="cls-2" d="M207,211.84a34.66,34.66,0,0,0-4.78,0,12.93,12.93,0,0,0-10,18.87c-1.26,1.14-.62,3.79.84,4.65a3.74,3.74,0,0,0,4.31-.82,10.93,10.93,0,0,0,2.32-4.06c1.65,0,3.85-.28,5.5-.32A5.82,5.82,0,0,0,212,233.9c2.92-.58,5.3-2.72,7.1-5.1A25,25,0,0,0,223.92,217c.34-2.6.14-5.53-1.68-7.42s-4.77-2.18-7.26-1.43a21.29,21.29,0,0,0-6.65,3.93"/><path class="cls-2" d="M145.37,236.72a8.19,8.19,0,0,0,7.07,3.31,8,8,0,0,0,6.34-4,7.73,7.73,0,0,0,0-7.46,8.71,8.71,0,0,0-5.65-4c-2.67-.61-6.72-.57-8.26,2A10,10,0,0,0,145.37,236.72Z"/><path class="cls-2" d="M75.9,248.25l-15.65-9a5.83,5.83,0,0,0-4,5.71c4.61,2.36,9.26,5.41,13.87,7.77a7.07,7.07,0,0,0,3.15,1,3.62,3.62,0,0,0,3-1.72C76.91,251,76.48,249.33,75.9,248.25Z"/><path class="cls-8" d="M232.93,84a22.29,22.29,0,0,1,14.22,6.11c-.05-.57-.11-1.15-.21-1.74-.66-4.06-3.7-7-5.84-10.3a153.55,153.55,0,0,0-8.71-12.67A61.14,61.14,0,0,0,227,59.28c-3.3-3.15-7.25-5.78-9.29-10-1.26-2.58-4.34-4.81-6.74-6.44s-4.71-3.91-7.35-5.23c-4.73-2.36-9.43-5-14.3-2.53-1.76.9-2.85,4-3.74,5.63a10.65,10.65,0,0,0-1.18,8.32,36,36,0,0,0,7.81,14c3.38,3.57,7,6.77,10.51,10.21,2.45,2.43,3.91,5.5,6.09,8.12a54.57,54.57,0,0,0,7.69,7.11A28.56,28.56,0,0,1,232.93,84Z"/><path class="cls-13" d="M133.86,28a10.87,10.87,0,0,0-.13,2.06c0,2.19-.82,4.54-2.68,5.7a5,5,0,0,0,1.19-3.13c-.71,1.82-2.46,3-3.35,4.78a7.08,7.08,0,0,0,.47,6.7,5.28,5.28,0,0,1-2.15-3.36A5.26,5.26,0,0,0,129.8,46c-1.31.13-2.34-1.1-2.91-2.28a13.1,13.1,0,0,1,2-14.06A9.3,9.3,0,0,1,131,27.87a16.47,16.47,0,0,1,4.33-1.5C134.86,26.73,134,27.42,133.86,28Z"/><path class="cls-6" d="M165.61,37a.92.92,0,0,0-.05.37c.06.52.81.57,1.2.92a1.29,1.29,0,0,1,.13,1.44c-.22.46-.58.85-.81,1.31a2.69,2.69,0,0,0-.21,1.89,1.88,1.88,0,0,1,2.13-.74,1.84,1.84,0,0,0-1.18-.55.72.72,0,0,1,.15-.92,8.27,8.27,0,0,1,.83-.59,1.84,1.84,0,0,0,.66-1.57,1.23,1.23,0,0,0-.17-.53c-.27-.4-.8-.51-1.17-.81a1.41,1.41,0,0,1-.46-1.5,5.21,5.21,0,0,1,1.1,1c-.28-.75-.58-1.49-.91-2.22.19-.11.42,0,.58.16a4.68,4.68,0,0,1,1.34,5,6,6,0,0,0-.49-5c-.36-.53-1-1.28-1.57-.76S165.82,36.26,165.61,37Z"/><path class="cls-10" d="M246.94,88.37c-.66-4.06-3.7-7-5.84-10.3a153.55,153.55,0,0,0-8.71-12.67A61.14,61.14,0,0,0,227,59.28c-3.3-3.15-7.25-5.78-9.29-10-1.26-2.58-4.34-4.81-6.74-6.44s-4.71-3.91-7.35-5.23c-4.73-2.36-9.43-5-14.3-2.53-1.76.9-2.85,4-3.74,5.63a12.45,12.45,0,0,0-1.46,4.15l.13-.15a12.91,12.91,0,0,1,6.58-3.44c3.47-.79,7.35-.59,10.27,1.47C203,44.06,204.36,46,206.39,47c3.22,1.59,7.82,1,10,3.91L208,50a22.22,22.22,0,0,1-4.67-.85c-2.75-.91-5.24-2.88-8.13-2.87a.91.91,0,0,0-.49.12c-.32.27-.08.79.2,1.11,2.56,2.93,6.43,4.33,10.2,5.23s7.69,1.44,11.17,3.16c3.07,1.51,5.78,3.92,9.14,4.58l-4.34.72c-.16,1,1.16,1.52,2.12,1.88,2.72,1,4.31,3.79,6.14,6.06,3.83,4.75,9.7,8.42,10.82,14.44-2.47.43-5-.46-7.45-.75a22.15,22.15,0,0,0-15.17,4.4c-.43.33-.87.65-1.33,1l.33.27A28.56,28.56,0,0,1,232.93,84a22.29,22.29,0,0,1,14.22,6.11C247.1,89.54,247,89,246.94,88.37Z"/><path class="cls-6" d="M191.43,165.79a26.84,26.84,0,0,0-2-3.58,23.44,23.44,0,0,0-8-7.25c-4.81-2.82-10.79-4.64-16.2-3.29-.08.34-.14.69-.21,1A18.43,18.43,0,0,1,186.63,169c1,9.85-5.9,19.57-3.7,29.23,3.74-1.88.06-9.25,3.76-11.2,2.16,9.56-2.66,19.11-6,28.32a124.41,124.41,0,0,0-6.18,26.1,1.9,1.9,0,0,0,.7,0c1.63-.35,2.27-4.85,2.69-6.79.89-4.13,2.28-7.89,3.5-11.94,2.67-8.85,4.42-18.05,7.5-26.75a44.65,44.65,0,0,0,1.8-22A14,14,0,0,1,191.43,165.79Z"/><path class="cls-20" d="M184.25,212.13c.29-1.14.58-2.29.88-3.43a22.1,22.1,0,0,1-5.44,1.7,17,17,0,0,1-10-2.49,18.3,18.3,0,0,1,0,2.34C173.63,213.07,179.15,213.48,184.25,212.13Z"/><path class="cls-7" d="M169.71,210.25c-.15,2.38-.64,4.8-.91,7.12-.54,4.7-2.53,8.84-3.74,13.34-.35,1.3-1,4-.38,5.13.71,1.29,8.75,6,10.51,5.6s2.27-4.85,2.69-6.79c.89-4.13,2.28-7.89,3.5-11.94,1.05-3.49,2-7,2.87-10.58C179.15,213.48,173.63,213.07,169.71,210.25Z"/><path class="cls-21" d="M144.05,250.93c-2.1-5.31,7.24-6.43,9.93-9.13,3-3,5.1-7.76,9-9.94,4.49-2.47,9.17,3,12.05,5.57,3.24,2.92,1.63-1.71,3.93-2,2.85-.34,2.18,7.69,1.68,9.23-1,3-3.6,3.79-6.45,4.52-3.45.88-6,3.64-9.31,4.71-3.93,1.26-9.1.82-12.94-.36C150.4,253.06,144.26,252.61,144.05,250.93Z"/><path class="cls-18" d="M163,249.7c1.5.15,3.24-.92,3.12-2.42-.11-1.22-1.33-2-2.47-2.45a16,16,0,0,0-5.88-1.13c2.86-1.42,6.26-.13,9.19,1.15a7.76,7.76,0,0,0-7.61-3.59c1.82-2.22,4-4.62,6.86-4.76a10.38,10.38,0,0,1,4.94,1.44l7,3.38a38.17,38.17,0,0,0-2.54-3.41c-.17-.13-.37-.29-.58-.48-2.88-2.6-7.56-8-12.05-5.57-3.93,2.18-6,6.93-9,9.94-1.37,1.37-4.46,2.34-6.89,3.66,4.12.09,8.24.54,11.83,2.47C160.24,248.64,161.53,249.56,163,249.7Z"/><path class="cls-18" d="M150.93,120.47c.6-2.34,2.11-3.17,3.56-5,1.93-2.4,3.2-2.72,6.36-3.39a66.32,66.32,0,0,1,8.34-1.27A65.52,65.52,0,0,1,177,111c2.67.09,3.61,1.07,5.55,3.16,2.5,2.7,4.43,4.87,4.13,8.64-.26,3.09-1.92,2.89-4.65,4.14-.89.42-2.81.66-3.39,1.16s-1,2.32-1.69,3.07a6.63,6.63,0,0,1-2.61,1.71,11.41,11.41,0,0,1-2.65.51c-1.65,0-2.5-1.25-3.78-1.48-2-.35-4.06,1.07-6.07-.81-2.93,2.73-5.31-1.8-7.41-2.14-1.08-.18-1.44.82-2.66.19C151.07,128.77,150.29,123,150.93,120.47Z"/><path class="cls-19" d="M161,120.74c-1.42-.37-2.14,2.76-2.23,3.8-.19,2,.76,4,1.51,5.85.17.4.35.87.54,1.37a3.08,3.08,0,0,0,.66-.39c-.27-.73-.48-1.49-.68-2.05C159.79,126.47,160.61,123.72,161,120.74Z"/><path class="cls-19" d="M156.57,118.67c-2.69-.66-3.49,5-3.42,6.76a12.08,12.08,0,0,0,.79,3.52,1.61,1.61,0,0,1,.49,0,2.08,2.08,0,0,1,.41.11C154.3,125.73,156.09,121.59,156.57,118.67Z"/><path class="cls-19" d="M167.25,122.26c-3-.67-2.52,6.87-2.14,8.35.12.46.26.93.43,1.39a13.47,13.47,0,0,1,1.66-.15,6.49,6.49,0,0,1-.81-2.35C166.08,127,167.38,124.69,167.25,122.26Z"/><path class="cls-19" d="M186.68,122.79a8,8,0,0,0-.63-4,2,2,0,0,1-1.29,1.24c-1.58.62-3.44-.47-4.92-.85-1.75-.45-4.4-.34-5.77,1-1.67,1.66-.91,4.66-1.22,6.8-.25,1.68-1.51,3.42-1.11,5.18a2,2,0,0,0,.73,1.09,12.83,12.83,0,0,0,1.87-.43,6.63,6.63,0,0,0,2.61-1.71c.7-.75,1-2.48,1.69-3.07s2.5-.74,3.39-1.16C184.76,125.68,186.42,125.88,186.68,122.79Z"/><path class="cls-2" d="M181.37,123.75c1.6-.91,5.47.15,5.34,2-2,28.52,18.88,11.85,23.7,9.69-.13,2.05-.22,4.18-1.81,5.48-2.89,2.35-25,20.3-29.27-11.54C179.11,127.72,180,124.53,181.37,123.75Z"/><path class="cls-2" d="M158.56,229.14c-8.75-3.42-10.64-16.73-13.48-36.87-.92-6.51-2-13.89-3.37-21.78-5.53-31-48.86-44.44-49.29-44.57l.34-1.14a108.36,108.36,0,0,1,22.88,10.69c10.79,6.72,24.28,18.21,27.24,34.81,1.41,7.92,2.45,15.31,3.38,21.83,2.79,19.72,4.63,32.75,12.73,35.93Z"/><path class="cls-2" d="M101.12,194.25C89.72,166,88,146.08,95.92,135.16c6.42-8.82,16.73-8.21,17.16-8.18l-.08,1.19c-.1,0-10.11-.59-16.13,7.7-5.28,7.27-8.63,23.23,5.36,57.94Z"/><path class="cls-2" d="M144,125.9c-1.79-.46-3.82-3.91-2.44-5.14,3.62-3.26,6.72-15.09,5-20.24a3.58,3.58,0,0,1,3.53-4.76h.07c3.7.33,5,10.58-.76,27.54C148.83,124.87,145.5,126.29,144,125.9Z"/><path class="cls-2" d="M97,122.22c1.49,0,3.73-2.32,2.9-3.55-2.21-3.24-2.34-13.08,0-16.76a2.88,2.88,0,0,0-1.84-4.4h0c-3-.45-6,7.3-4.72,21.66C93.43,120.49,95.76,122.23,97,122.22Z"/></g></g></svg>